G04*
G04 #@! TF.GenerationSoftware,Altium Limited,Altium Designer,22.5.1 (42)*
G04*
G04 Layer_Color=2752767*
%FSLAX44Y44*%
%MOMM*%
G71*
G04*
G04 #@! TF.SameCoordinates,40384B85-564C-47B5-BA78-C0A8BA91D8EB*
G04*
G04*
G04 #@! TF.FilePolarity,Positive*
G04*
G01*
G75*
%ADD12C,0.1524*%
%ADD15C,0.2540*%
%ADD17C,0.2032*%
%ADD74C,0.0508*%
%ADD75C,0.3251*%
D12*
X-109298Y1011524D02*
X-111837Y1014063D01*
Y1019141D01*
X-109298Y1021681D01*
X-106759D01*
X-104220Y1019141D01*
Y1016602D01*
Y1019141D01*
X-101681Y1021681D01*
X-99142D01*
X-96602Y1019141D01*
Y1014063D01*
X-99142Y1011524D01*
X-94063Y1029298D02*
X-96602Y1031837D01*
X-99142D01*
Y1029298D01*
X-96602D01*
Y1031837D01*
X-94063Y1029298D01*
X-91524Y1026759D01*
X-109298Y1041994D02*
X-111837Y1044533D01*
Y1049612D01*
X-109298Y1052151D01*
X-99142D01*
X-96602Y1049612D01*
Y1044533D01*
X-99142Y1041994D01*
X-109298D01*
Y36524D02*
X-111837Y39063D01*
Y44142D01*
X-109298Y46681D01*
X-106759D01*
X-104220Y44142D01*
Y41602D01*
Y44142D01*
X-101681Y46681D01*
X-99142D01*
X-96602Y44142D01*
Y39063D01*
X-99142Y36524D01*
X-94063Y54298D02*
X-96602Y56837D01*
X-99142D01*
Y54298D01*
X-96602D01*
Y56837D01*
X-94063Y54298D01*
X-91524Y51759D01*
X-109298Y66994D02*
X-111837Y69533D01*
Y74612D01*
X-109298Y77151D01*
X-99142D01*
X-96602Y74612D01*
Y69533D01*
X-99142Y66994D01*
X-109298D01*
X761657Y-343398D02*
X766735D01*
X764196D01*
Y-328163D01*
X761657Y-330702D01*
X784510Y-328163D02*
X779431Y-330702D01*
X774353Y-335780D01*
Y-340858D01*
X776892Y-343398D01*
X781971D01*
X784510Y-340858D01*
Y-338319D01*
X781971Y-335780D01*
X774353D01*
X789588Y-330702D02*
X792127Y-328163D01*
X797206D01*
X799745Y-330702D01*
Y-340858D01*
X797206Y-343398D01*
X792127D01*
X789588Y-340858D01*
Y-330702D01*
X807362Y-345937D02*
X809902Y-343398D01*
Y-340858D01*
X807362D01*
Y-343398D01*
X809902D01*
X807362Y-345937D01*
X804823Y-348476D01*
X820058Y-330702D02*
X822597Y-328163D01*
X827676D01*
X830215Y-330702D01*
Y-340858D01*
X827676Y-343398D01*
X822597D01*
X820058Y-340858D01*
Y-330702D01*
X-331969Y461657D02*
Y466735D01*
Y464196D01*
X-347204D01*
X-344665Y461657D01*
Y474353D02*
X-347204Y476892D01*
Y481970D01*
X-344665Y484510D01*
X-334509D01*
X-331969Y481970D01*
Y476892D01*
X-334509Y474353D01*
X-344665D01*
Y489588D02*
X-347204Y492127D01*
Y497206D01*
X-344665Y499745D01*
X-334509D01*
X-331969Y497206D01*
Y492127D01*
X-334509Y489588D01*
X-344665D01*
X-329430Y507362D02*
X-331969Y509902D01*
X-334509D01*
Y507362D01*
X-331969D01*
Y509902D01*
X-329430Y507362D01*
X-326891Y504823D01*
X-344665Y520058D02*
X-347204Y522597D01*
Y527676D01*
X-344665Y530215D01*
X-334509D01*
X-331969Y527676D01*
Y522597D01*
X-334509Y520058D01*
X-344665D01*
D15*
X-0Y1000000D02*
X1600000D01*
X-0D02*
X0Y-0D01*
X1600000Y0D02*
Y1000000D01*
X1600000Y-0D02*
X1600000Y0D01*
X0Y-0D02*
X1600000D01*
X-100000Y1000000D02*
X-94920Y984760D01*
X-105080D02*
X-100000Y1000000D01*
X-105080Y985240D02*
X-100000Y970000D01*
X-94920Y985240D01*
X-100000Y985000D02*
Y1000000D01*
Y970000D02*
Y985000D01*
X-102540Y1000000D02*
X0D01*
X-102540Y970000D02*
X0D01*
X-110080Y15240D02*
X-105000Y0D01*
X-99920Y15240D01*
X-105000Y30000D02*
X-99920Y14760D01*
X-110080D02*
X-105000Y30000D01*
Y0D02*
Y15000D01*
Y30000D01*
X-107540Y0D02*
X-2540D01*
X-107540Y30000D02*
X0D01*
Y-331717D02*
X15240Y-326637D01*
X0Y-331717D02*
X15240Y-336797D01*
X1584760D02*
X1600000Y-331717D01*
X1584760Y-326637D02*
X1600000Y-331717D01*
X0D02*
X757593D01*
X834279D02*
X1600000D01*
X0Y-334257D02*
Y-2540D01*
X1600000Y-334257D02*
Y-2540D01*
X-348730Y15240D02*
X-343650Y0D01*
X-338570Y15240D01*
X-343650Y1000000D02*
X-338570Y984760D01*
X-348730D02*
X-343650Y1000000D01*
Y0D02*
Y457593D01*
Y534279D02*
Y1000000D01*
X-346190Y0D02*
X-2540D01*
X-346190Y1000000D02*
X-2540D01*
X1270Y1356070D02*
X1422875D01*
X1270Y1089370D02*
X1422875D01*
X1270Y1051270D02*
X1422875D01*
Y1394170D01*
X1270D02*
X1422875D01*
X1270Y1051270D02*
Y1394170D01*
X1263249Y1051270D02*
Y1394170D01*
X883379Y1051270D02*
Y1394170D01*
X698619Y1051270D02*
Y1394170D01*
X571752Y1051270D02*
Y1394170D01*
X288371Y1051270D02*
Y1394170D01*
X139567Y1051270D02*
Y1394170D01*
D17*
X33232Y1185467D02*
G03*
X33232Y1185467I-8467J0D01*
G01*
X16298Y1329400D02*
Y1333633D01*
X20532Y1337867D01*
X16298Y1342100D02*
X20532Y1337867D01*
X16298Y1342100D02*
Y1346333D01*
X20532D01*
X24765Y1342100D01*
X28998Y1346333D01*
X33232D01*
Y1342100D02*
Y1346333D01*
X28998Y1337867D02*
X33232Y1342100D01*
X28998Y1337867D02*
X33232Y1333633D01*
Y1329400D02*
Y1333633D01*
X28998Y1329400D02*
X33232D01*
X24765Y1333633D02*
X28998Y1329400D01*
X20532D02*
X24765Y1333633D01*
X16298Y1329400D02*
X20532D01*
X16298Y1291300D02*
X33232D01*
Y1308233D01*
X16298D02*
X33232D01*
X16298Y1291300D02*
Y1308233D01*
Y1257433D02*
X20532D01*
X16298D02*
Y1265900D01*
X20532D01*
Y1270133D01*
X28998D01*
Y1265900D02*
Y1270133D01*
Y1265900D02*
X33232D01*
Y1257433D02*
Y1265900D01*
X28998Y1257433D02*
X33232D01*
X28998Y1253200D02*
Y1257433D01*
X20532Y1253200D02*
X28998D01*
X20532D02*
Y1257433D01*
X24765Y1215100D02*
X33232Y1232033D01*
X16298D02*
X33232D01*
X16298D02*
X24765Y1215100D01*
X20532Y1143133D02*
X24765Y1138900D01*
X16298Y1143133D02*
X20532D01*
X16298D02*
X20532Y1147367D01*
X16298Y1151600D02*
X20532Y1147367D01*
X16298Y1151600D02*
X20532D01*
X24765Y1155833D01*
X28998Y1151600D01*
X33232D01*
X28998Y1147367D02*
X33232Y1151600D01*
X28998Y1147367D02*
X33232Y1143133D01*
X28998D02*
X33232D01*
X24765Y1138900D02*
X28998Y1143133D01*
X16298Y1100800D02*
X24765Y1105033D01*
X33232Y1100800D01*
X28998Y1109267D02*
X33232Y1100800D01*
X28998Y1109267D02*
X33232Y1117733D01*
X24765Y1113500D02*
X33232Y1117733D01*
X16298D02*
X24765Y1113500D01*
X16298Y1117733D02*
X20532Y1109267D01*
X16298Y1100800D02*
X20532Y1109267D01*
X1274679Y1344635D02*
Y1334478D01*
X1279758Y1329400D01*
X1284836Y1334478D01*
Y1344635D01*
X1289914Y1329400D02*
X1294993D01*
X1292453D01*
Y1339557D01*
X1289914D01*
X1305149D02*
X1310228D01*
X1312767Y1337018D01*
Y1329400D01*
X1305149D01*
X1302610Y1331939D01*
X1305149Y1334478D01*
X1312767D01*
X1274679Y1306535D02*
Y1296378D01*
X1279758Y1291300D01*
X1284836Y1296378D01*
Y1306535D01*
X1289914Y1291300D02*
X1294993D01*
X1292453D01*
Y1301457D01*
X1289914D01*
X1305149D02*
X1310228D01*
X1312767Y1298918D01*
Y1291300D01*
X1305149D01*
X1302610Y1293839D01*
X1305149Y1296378D01*
X1312767D01*
X1274679Y1253200D02*
Y1268435D01*
X1282297D01*
X1284836Y1265896D01*
Y1260817D01*
X1282297Y1258278D01*
X1274679D01*
X1292453Y1263357D02*
X1297532D01*
X1300071Y1260817D01*
Y1253200D01*
X1292453D01*
X1289914Y1255739D01*
X1292453Y1258278D01*
X1300071D01*
X1315306Y1268435D02*
Y1253200D01*
X1307688D01*
X1305149Y1255739D01*
Y1260817D01*
X1307688Y1263357D01*
X1315306D01*
X1274679Y1230335D02*
Y1220178D01*
X1279758Y1215100D01*
X1284836Y1220178D01*
Y1230335D01*
X1289914Y1215100D02*
X1294993D01*
X1292453D01*
Y1225257D01*
X1289914D01*
X1305149D02*
X1310228D01*
X1312767Y1222718D01*
Y1215100D01*
X1305149D01*
X1302610Y1217639D01*
X1305149Y1220178D01*
X1312767D01*
X1274679Y1177000D02*
Y1192235D01*
X1282297D01*
X1284836Y1189696D01*
Y1184617D01*
X1282297Y1182078D01*
X1274679D01*
X1292453Y1187157D02*
X1297532D01*
X1300071Y1184617D01*
Y1177000D01*
X1292453D01*
X1289914Y1179539D01*
X1292453Y1182078D01*
X1300071D01*
X1315306Y1192235D02*
Y1177000D01*
X1307688D01*
X1305149Y1179539D01*
Y1184617D01*
X1307688Y1187157D01*
X1315306D01*
X1274679Y1138900D02*
Y1154135D01*
X1282297D01*
X1284836Y1151596D01*
Y1146517D01*
X1282297Y1143978D01*
X1274679D01*
X1292453Y1149057D02*
X1297532D01*
X1300071Y1146517D01*
Y1138900D01*
X1292453D01*
X1289914Y1141439D01*
X1292453Y1143978D01*
X1300071D01*
X1315306Y1154135D02*
Y1138900D01*
X1307688D01*
X1305149Y1141439D01*
Y1146517D01*
X1307688Y1149057D01*
X1315306D01*
X1274679Y1100800D02*
Y1116035D01*
X1282297D01*
X1284836Y1113496D01*
Y1108418D01*
X1282297Y1105878D01*
X1274679D01*
X1292453Y1110957D02*
X1297532D01*
X1300071Y1108418D01*
Y1100800D01*
X1292453D01*
X1289914Y1103339D01*
X1292453Y1105878D01*
X1300071D01*
X1315306Y1116035D02*
Y1100800D01*
X1307688D01*
X1305149Y1103339D01*
Y1108418D01*
X1307688Y1110957D01*
X1315306D01*
X894809Y1344635D02*
X904966D01*
X899888D01*
Y1329400D01*
X912584D02*
X917662D01*
X920201Y1331939D01*
Y1337018D01*
X917662Y1339557D01*
X912584D01*
X910044Y1337018D01*
Y1331939D01*
X912584Y1329400D01*
X925279Y1324322D02*
Y1339557D01*
X932897D01*
X935436Y1337018D01*
Y1331939D01*
X932897Y1329400D01*
X925279D01*
X955750Y1344635D02*
Y1329400D01*
X965906D01*
X973524Y1339557D02*
X978602D01*
X981141Y1337018D01*
Y1329400D01*
X973524D01*
X970985Y1331939D01*
X973524Y1334478D01*
X981141D01*
X986220Y1339557D02*
Y1331939D01*
X988759Y1329400D01*
X996376D01*
Y1326861D01*
X993837Y1324322D01*
X991298D01*
X996376Y1329400D02*
Y1339557D01*
X1009072Y1329400D02*
X1003994D01*
X1001455Y1331939D01*
Y1337018D01*
X1003994Y1339557D01*
X1009072D01*
X1011612Y1337018D01*
Y1334478D01*
X1001455D01*
X1016690Y1339557D02*
Y1329400D01*
Y1334478D01*
X1019229Y1337018D01*
X1021768Y1339557D01*
X1024307D01*
X1047160Y1337018D02*
X1057317D01*
X1077630Y1344635D02*
Y1329400D01*
X1085248D01*
X1087787Y1331939D01*
Y1334478D01*
X1085248Y1337018D01*
X1077630D01*
X1085248D01*
X1087787Y1339557D01*
Y1342096D01*
X1085248Y1344635D01*
X1077630D01*
X1095405Y1329400D02*
X1100483D01*
X1103022Y1331939D01*
Y1337018D01*
X1100483Y1339557D01*
X1095405D01*
X1092865Y1337018D01*
Y1331939D01*
X1095405Y1329400D01*
X1110640Y1342096D02*
Y1339557D01*
X1108100D01*
X1113179D01*
X1110640D01*
Y1331939D01*
X1113179Y1329400D01*
X1123335Y1342096D02*
Y1339557D01*
X1120796D01*
X1125875D01*
X1123335D01*
Y1331939D01*
X1125875Y1329400D01*
X1136031D02*
X1141110D01*
X1143649Y1331939D01*
Y1337018D01*
X1141110Y1339557D01*
X1136031D01*
X1133492Y1337018D01*
Y1331939D01*
X1136031Y1329400D01*
X1148727D02*
Y1339557D01*
X1151266D01*
X1153806Y1337018D01*
Y1329400D01*
Y1337018D01*
X1156345Y1339557D01*
X1158884Y1337018D01*
Y1329400D01*
X1179197Y1344635D02*
Y1329400D01*
X1189354D01*
X1196972Y1339557D02*
X1202050D01*
X1204589Y1337018D01*
Y1329400D01*
X1196972D01*
X1194432Y1331939D01*
X1196972Y1334478D01*
X1204589D01*
X1209668Y1339557D02*
Y1331939D01*
X1212207Y1329400D01*
X1219824D01*
Y1326861D01*
X1217285Y1324322D01*
X1214746D01*
X1219824Y1329400D02*
Y1339557D01*
X1232520Y1329400D02*
X1227442D01*
X1224903Y1331939D01*
Y1337018D01*
X1227442Y1339557D01*
X1232520D01*
X1235059Y1337018D01*
Y1334478D01*
X1224903D01*
X1240138Y1339557D02*
Y1329400D01*
Y1334478D01*
X1242677Y1337018D01*
X1245216Y1339557D01*
X1247755D01*
X894809Y1306535D02*
X904966D01*
X899888D01*
Y1291300D01*
X912584D02*
X917662D01*
X920201Y1293839D01*
Y1298918D01*
X917662Y1301457D01*
X912584D01*
X910044Y1298918D01*
Y1293839D01*
X912584Y1291300D01*
X925279Y1286222D02*
Y1301457D01*
X932897D01*
X935436Y1298918D01*
Y1293839D01*
X932897Y1291300D01*
X925279D01*
X955750Y1306535D02*
Y1291300D01*
X965906D01*
X973524Y1301457D02*
X978602D01*
X981141Y1298918D01*
Y1291300D01*
X973524D01*
X970985Y1293839D01*
X973524Y1296378D01*
X981141D01*
X986220Y1301457D02*
Y1293839D01*
X988759Y1291300D01*
X996376D01*
Y1288761D01*
X993837Y1286222D01*
X991298D01*
X996376Y1291300D02*
Y1301457D01*
X1009072Y1291300D02*
X1003994D01*
X1001455Y1293839D01*
Y1298918D01*
X1003994Y1301457D01*
X1009072D01*
X1011612Y1298918D01*
Y1296378D01*
X1001455D01*
X1016690Y1301457D02*
Y1291300D01*
Y1296378D01*
X1019229Y1298918D01*
X1021768Y1301457D01*
X1024307D01*
X1047160Y1298918D02*
X1057317D01*
X1077630Y1306535D02*
Y1291300D01*
X1085248D01*
X1087787Y1293839D01*
Y1296378D01*
X1085248Y1298918D01*
X1077630D01*
X1085248D01*
X1087787Y1301457D01*
Y1303996D01*
X1085248Y1306535D01*
X1077630D01*
X1095405Y1291300D02*
X1100483D01*
X1103022Y1293839D01*
Y1298918D01*
X1100483Y1301457D01*
X1095405D01*
X1092865Y1298918D01*
Y1293839D01*
X1095405Y1291300D01*
X1110640Y1303996D02*
Y1301457D01*
X1108100D01*
X1113179D01*
X1110640D01*
Y1293839D01*
X1113179Y1291300D01*
X1123335Y1303996D02*
Y1301457D01*
X1120796D01*
X1125875D01*
X1123335D01*
Y1293839D01*
X1125875Y1291300D01*
X1136031D02*
X1141110D01*
X1143649Y1293839D01*
Y1298918D01*
X1141110Y1301457D01*
X1136031D01*
X1133492Y1298918D01*
Y1293839D01*
X1136031Y1291300D01*
X1148727D02*
Y1301457D01*
X1151266D01*
X1153806Y1298918D01*
Y1291300D01*
Y1298918D01*
X1156345Y1301457D01*
X1158884Y1298918D01*
Y1291300D01*
X1179197Y1306535D02*
Y1291300D01*
X1189354D01*
X1196972Y1301457D02*
X1202050D01*
X1204589Y1298918D01*
Y1291300D01*
X1196972D01*
X1194432Y1293839D01*
X1196972Y1296378D01*
X1204589D01*
X1209668Y1301457D02*
Y1293839D01*
X1212207Y1291300D01*
X1219824D01*
Y1288761D01*
X1217285Y1286222D01*
X1214746D01*
X1219824Y1291300D02*
Y1301457D01*
X1232520Y1291300D02*
X1227442D01*
X1224903Y1293839D01*
Y1298918D01*
X1227442Y1301457D01*
X1232520D01*
X1235059Y1298918D01*
Y1296378D01*
X1224903D01*
X1240138Y1301457D02*
Y1291300D01*
Y1296378D01*
X1242677Y1298918D01*
X1245216Y1301457D01*
X1247755D01*
X894809Y1268435D02*
X904966D01*
X899888D01*
Y1253200D01*
X912584D02*
X917662D01*
X920201Y1255739D01*
Y1260817D01*
X917662Y1263357D01*
X912584D01*
X910044Y1260817D01*
Y1255739D01*
X912584Y1253200D01*
X925279Y1248122D02*
Y1263357D01*
X932897D01*
X935436Y1260817D01*
Y1255739D01*
X932897Y1253200D01*
X925279D01*
X955750Y1268435D02*
Y1253200D01*
X965906D01*
X973524Y1263357D02*
X978602D01*
X981141Y1260817D01*
Y1253200D01*
X973524D01*
X970985Y1255739D01*
X973524Y1258278D01*
X981141D01*
X986220Y1263357D02*
Y1255739D01*
X988759Y1253200D01*
X996376D01*
Y1250661D01*
X993837Y1248122D01*
X991298D01*
X996376Y1253200D02*
Y1263357D01*
X1009072Y1253200D02*
X1003994D01*
X1001455Y1255739D01*
Y1260817D01*
X1003994Y1263357D01*
X1009072D01*
X1011612Y1260817D01*
Y1258278D01*
X1001455D01*
X1016690Y1263357D02*
Y1253200D01*
Y1258278D01*
X1019229Y1260817D01*
X1021768Y1263357D01*
X1024307D01*
X1047160Y1260817D02*
X1057317D01*
X1077630Y1268435D02*
Y1253200D01*
X1085248D01*
X1087787Y1255739D01*
Y1258278D01*
X1085248Y1260817D01*
X1077630D01*
X1085248D01*
X1087787Y1263357D01*
Y1265896D01*
X1085248Y1268435D01*
X1077630D01*
X1095405Y1253200D02*
X1100483D01*
X1103022Y1255739D01*
Y1260817D01*
X1100483Y1263357D01*
X1095405D01*
X1092865Y1260817D01*
Y1255739D01*
X1095405Y1253200D01*
X1110640Y1265896D02*
Y1263357D01*
X1108100D01*
X1113179D01*
X1110640D01*
Y1255739D01*
X1113179Y1253200D01*
X1123335Y1265896D02*
Y1263357D01*
X1120796D01*
X1125875D01*
X1123335D01*
Y1255739D01*
X1125875Y1253200D01*
X1136031D02*
X1141110D01*
X1143649Y1255739D01*
Y1260817D01*
X1141110Y1263357D01*
X1136031D01*
X1133492Y1260817D01*
Y1255739D01*
X1136031Y1253200D01*
X1148727D02*
Y1263357D01*
X1151266D01*
X1153806Y1260817D01*
Y1253200D01*
Y1260817D01*
X1156345Y1263357D01*
X1158884Y1260817D01*
Y1253200D01*
X1179197Y1268435D02*
Y1253200D01*
X1189354D01*
X1196972Y1263357D02*
X1202050D01*
X1204589Y1260817D01*
Y1253200D01*
X1196972D01*
X1194432Y1255739D01*
X1196972Y1258278D01*
X1204589D01*
X1209668Y1263357D02*
Y1255739D01*
X1212207Y1253200D01*
X1219824D01*
Y1250661D01*
X1217285Y1248122D01*
X1214746D01*
X1219824Y1253200D02*
Y1263357D01*
X1232520Y1253200D02*
X1227442D01*
X1224903Y1255739D01*
Y1260817D01*
X1227442Y1263357D01*
X1232520D01*
X1235059Y1260817D01*
Y1258278D01*
X1224903D01*
X1240138Y1263357D02*
Y1253200D01*
Y1258278D01*
X1242677Y1260817D01*
X1245216Y1263357D01*
X1247755D01*
X894809Y1230335D02*
X904966D01*
X899888D01*
Y1215100D01*
X912584D02*
X917662D01*
X920201Y1217639D01*
Y1222718D01*
X917662Y1225257D01*
X912584D01*
X910044Y1222718D01*
Y1217639D01*
X912584Y1215100D01*
X925279Y1210022D02*
Y1225257D01*
X932897D01*
X935436Y1222718D01*
Y1217639D01*
X932897Y1215100D01*
X925279D01*
X955750Y1230335D02*
Y1215100D01*
X965906D01*
X973524Y1225257D02*
X978602D01*
X981141Y1222718D01*
Y1215100D01*
X973524D01*
X970985Y1217639D01*
X973524Y1220178D01*
X981141D01*
X986220Y1225257D02*
Y1217639D01*
X988759Y1215100D01*
X996376D01*
Y1212561D01*
X993837Y1210022D01*
X991298D01*
X996376Y1215100D02*
Y1225257D01*
X1009072Y1215100D02*
X1003994D01*
X1001455Y1217639D01*
Y1222718D01*
X1003994Y1225257D01*
X1009072D01*
X1011612Y1222718D01*
Y1220178D01*
X1001455D01*
X1016690Y1225257D02*
Y1215100D01*
Y1220178D01*
X1019229Y1222718D01*
X1021768Y1225257D01*
X1024307D01*
X1047160Y1222718D02*
X1057317D01*
X1077630Y1230335D02*
Y1215100D01*
X1085248D01*
X1087787Y1217639D01*
Y1220178D01*
X1085248Y1222718D01*
X1077630D01*
X1085248D01*
X1087787Y1225257D01*
Y1227796D01*
X1085248Y1230335D01*
X1077630D01*
X1095405Y1215100D02*
X1100483D01*
X1103022Y1217639D01*
Y1222718D01*
X1100483Y1225257D01*
X1095405D01*
X1092865Y1222718D01*
Y1217639D01*
X1095405Y1215100D01*
X1110640Y1227796D02*
Y1225257D01*
X1108100D01*
X1113179D01*
X1110640D01*
Y1217639D01*
X1113179Y1215100D01*
X1123335Y1227796D02*
Y1225257D01*
X1120796D01*
X1125875D01*
X1123335D01*
Y1217639D01*
X1125875Y1215100D01*
X1136031D02*
X1141110D01*
X1143649Y1217639D01*
Y1222718D01*
X1141110Y1225257D01*
X1136031D01*
X1133492Y1222718D01*
Y1217639D01*
X1136031Y1215100D01*
X1148727D02*
Y1225257D01*
X1151266D01*
X1153806Y1222718D01*
Y1215100D01*
Y1222718D01*
X1156345Y1225257D01*
X1158884Y1222718D01*
Y1215100D01*
X1179197Y1230335D02*
Y1215100D01*
X1189354D01*
X1196972Y1225257D02*
X1202050D01*
X1204589Y1222718D01*
Y1215100D01*
X1196972D01*
X1194432Y1217639D01*
X1196972Y1220178D01*
X1204589D01*
X1209668Y1225257D02*
Y1217639D01*
X1212207Y1215100D01*
X1219824D01*
Y1212561D01*
X1217285Y1210022D01*
X1214746D01*
X1219824Y1215100D02*
Y1225257D01*
X1232520Y1215100D02*
X1227442D01*
X1224903Y1217639D01*
Y1222718D01*
X1227442Y1225257D01*
X1232520D01*
X1235059Y1222718D01*
Y1220178D01*
X1224903D01*
X1240138Y1225257D02*
Y1215100D01*
Y1220178D01*
X1242677Y1222718D01*
X1245216Y1225257D01*
X1247755D01*
X894809Y1192235D02*
X904966D01*
X899888D01*
Y1177000D01*
X912584D02*
X917662D01*
X920201Y1179539D01*
Y1184617D01*
X917662Y1187157D01*
X912584D01*
X910044Y1184617D01*
Y1179539D01*
X912584Y1177000D01*
X925279Y1171922D02*
Y1187157D01*
X932897D01*
X935436Y1184617D01*
Y1179539D01*
X932897Y1177000D01*
X925279D01*
X955750Y1192235D02*
Y1177000D01*
X965906D01*
X973524Y1187157D02*
X978602D01*
X981141Y1184617D01*
Y1177000D01*
X973524D01*
X970985Y1179539D01*
X973524Y1182078D01*
X981141D01*
X986220Y1187157D02*
Y1179539D01*
X988759Y1177000D01*
X996376D01*
Y1174461D01*
X993837Y1171922D01*
X991298D01*
X996376Y1177000D02*
Y1187157D01*
X1009072Y1177000D02*
X1003994D01*
X1001455Y1179539D01*
Y1184617D01*
X1003994Y1187157D01*
X1009072D01*
X1011612Y1184617D01*
Y1182078D01*
X1001455D01*
X1016690Y1187157D02*
Y1177000D01*
Y1182078D01*
X1019229Y1184617D01*
X1021768Y1187157D01*
X1024307D01*
X1047160Y1184617D02*
X1057317D01*
X1077630Y1192235D02*
Y1177000D01*
X1085248D01*
X1087787Y1179539D01*
Y1182078D01*
X1085248Y1184617D01*
X1077630D01*
X1085248D01*
X1087787Y1187157D01*
Y1189696D01*
X1085248Y1192235D01*
X1077630D01*
X1095405Y1177000D02*
X1100483D01*
X1103022Y1179539D01*
Y1184617D01*
X1100483Y1187157D01*
X1095405D01*
X1092865Y1184617D01*
Y1179539D01*
X1095405Y1177000D01*
X1110640Y1189696D02*
Y1187157D01*
X1108100D01*
X1113179D01*
X1110640D01*
Y1179539D01*
X1113179Y1177000D01*
X1123335Y1189696D02*
Y1187157D01*
X1120796D01*
X1125875D01*
X1123335D01*
Y1179539D01*
X1125875Y1177000D01*
X1136031D02*
X1141110D01*
X1143649Y1179539D01*
Y1184617D01*
X1141110Y1187157D01*
X1136031D01*
X1133492Y1184617D01*
Y1179539D01*
X1136031Y1177000D01*
X1148727D02*
Y1187157D01*
X1151266D01*
X1153806Y1184617D01*
Y1177000D01*
Y1184617D01*
X1156345Y1187157D01*
X1158884Y1184617D01*
Y1177000D01*
X1179197Y1192235D02*
Y1177000D01*
X1189354D01*
X1196972Y1187157D02*
X1202050D01*
X1204589Y1184617D01*
Y1177000D01*
X1196972D01*
X1194432Y1179539D01*
X1196972Y1182078D01*
X1204589D01*
X1209668Y1187157D02*
Y1179539D01*
X1212207Y1177000D01*
X1219824D01*
Y1174461D01*
X1217285Y1171922D01*
X1214746D01*
X1219824Y1177000D02*
Y1187157D01*
X1232520Y1177000D02*
X1227442D01*
X1224903Y1179539D01*
Y1184617D01*
X1227442Y1187157D01*
X1232520D01*
X1235059Y1184617D01*
Y1182078D01*
X1224903D01*
X1240138Y1187157D02*
Y1177000D01*
Y1182078D01*
X1242677Y1184617D01*
X1245216Y1187157D01*
X1247755D01*
X894809Y1154135D02*
X904966D01*
X899888D01*
Y1138900D01*
X912584D02*
X917662D01*
X920201Y1141439D01*
Y1146517D01*
X917662Y1149057D01*
X912584D01*
X910044Y1146517D01*
Y1141439D01*
X912584Y1138900D01*
X925279Y1133822D02*
Y1149057D01*
X932897D01*
X935436Y1146517D01*
Y1141439D01*
X932897Y1138900D01*
X925279D01*
X955750Y1154135D02*
Y1138900D01*
X965906D01*
X973524Y1149057D02*
X978602D01*
X981141Y1146517D01*
Y1138900D01*
X973524D01*
X970985Y1141439D01*
X973524Y1143978D01*
X981141D01*
X986220Y1149057D02*
Y1141439D01*
X988759Y1138900D01*
X996376D01*
Y1136361D01*
X993837Y1133822D01*
X991298D01*
X996376Y1138900D02*
Y1149057D01*
X1009072Y1138900D02*
X1003994D01*
X1001455Y1141439D01*
Y1146517D01*
X1003994Y1149057D01*
X1009072D01*
X1011612Y1146517D01*
Y1143978D01*
X1001455D01*
X1016690Y1149057D02*
Y1138900D01*
Y1143978D01*
X1019229Y1146517D01*
X1021768Y1149057D01*
X1024307D01*
X1047160Y1146517D02*
X1057317D01*
X1077630Y1154135D02*
Y1138900D01*
X1085248D01*
X1087787Y1141439D01*
Y1143978D01*
X1085248Y1146517D01*
X1077630D01*
X1085248D01*
X1087787Y1149057D01*
Y1151596D01*
X1085248Y1154135D01*
X1077630D01*
X1095405Y1138900D02*
X1100483D01*
X1103022Y1141439D01*
Y1146517D01*
X1100483Y1149057D01*
X1095405D01*
X1092865Y1146517D01*
Y1141439D01*
X1095405Y1138900D01*
X1110640Y1151596D02*
Y1149057D01*
X1108100D01*
X1113179D01*
X1110640D01*
Y1141439D01*
X1113179Y1138900D01*
X1123335Y1151596D02*
Y1149057D01*
X1120796D01*
X1125875D01*
X1123335D01*
Y1141439D01*
X1125875Y1138900D01*
X1136031D02*
X1141110D01*
X1143649Y1141439D01*
Y1146517D01*
X1141110Y1149057D01*
X1136031D01*
X1133492Y1146517D01*
Y1141439D01*
X1136031Y1138900D01*
X1148727D02*
Y1149057D01*
X1151266D01*
X1153806Y1146517D01*
Y1138900D01*
Y1146517D01*
X1156345Y1149057D01*
X1158884Y1146517D01*
Y1138900D01*
X1179197Y1154135D02*
Y1138900D01*
X1189354D01*
X1196972Y1149057D02*
X1202050D01*
X1204589Y1146517D01*
Y1138900D01*
X1196972D01*
X1194432Y1141439D01*
X1196972Y1143978D01*
X1204589D01*
X1209668Y1149057D02*
Y1141439D01*
X1212207Y1138900D01*
X1219824D01*
Y1136361D01*
X1217285Y1133822D01*
X1214746D01*
X1219824Y1138900D02*
Y1149057D01*
X1232520Y1138900D02*
X1227442D01*
X1224903Y1141439D01*
Y1146517D01*
X1227442Y1149057D01*
X1232520D01*
X1235059Y1146517D01*
Y1143978D01*
X1224903D01*
X1240138Y1149057D02*
Y1138900D01*
Y1143978D01*
X1242677Y1146517D01*
X1245216Y1149057D01*
X1247755D01*
X894809Y1116035D02*
X904966D01*
X899888D01*
Y1100800D01*
X912584D02*
X917662D01*
X920201Y1103339D01*
Y1108418D01*
X917662Y1110957D01*
X912584D01*
X910044Y1108418D01*
Y1103339D01*
X912584Y1100800D01*
X925279Y1095722D02*
Y1110957D01*
X932897D01*
X935436Y1108418D01*
Y1103339D01*
X932897Y1100800D01*
X925279D01*
X955750Y1116035D02*
Y1100800D01*
X965906D01*
X973524Y1110957D02*
X978602D01*
X981141Y1108418D01*
Y1100800D01*
X973524D01*
X970985Y1103339D01*
X973524Y1105878D01*
X981141D01*
X986220Y1110957D02*
Y1103339D01*
X988759Y1100800D01*
X996376D01*
Y1098261D01*
X993837Y1095722D01*
X991298D01*
X996376Y1100800D02*
Y1110957D01*
X1009072Y1100800D02*
X1003994D01*
X1001455Y1103339D01*
Y1108418D01*
X1003994Y1110957D01*
X1009072D01*
X1011612Y1108418D01*
Y1105878D01*
X1001455D01*
X1016690Y1110957D02*
Y1100800D01*
Y1105878D01*
X1019229Y1108418D01*
X1021768Y1110957D01*
X1024307D01*
X1047160Y1108418D02*
X1057317D01*
X1077630Y1116035D02*
Y1100800D01*
X1085248D01*
X1087787Y1103339D01*
Y1105878D01*
X1085248Y1108418D01*
X1077630D01*
X1085248D01*
X1087787Y1110957D01*
Y1113496D01*
X1085248Y1116035D01*
X1077630D01*
X1095405Y1100800D02*
X1100483D01*
X1103022Y1103339D01*
Y1108418D01*
X1100483Y1110957D01*
X1095405D01*
X1092865Y1108418D01*
Y1103339D01*
X1095405Y1100800D01*
X1110640Y1113496D02*
Y1110957D01*
X1108100D01*
X1113179D01*
X1110640D01*
Y1103339D01*
X1113179Y1100800D01*
X1123335Y1113496D02*
Y1110957D01*
X1120796D01*
X1125875D01*
X1123335D01*
Y1103339D01*
X1125875Y1100800D01*
X1136031D02*
X1141110D01*
X1143649Y1103339D01*
Y1108418D01*
X1141110Y1110957D01*
X1136031D01*
X1133492Y1108418D01*
Y1103339D01*
X1136031Y1100800D01*
X1148727D02*
Y1110957D01*
X1151266D01*
X1153806Y1108418D01*
Y1100800D01*
Y1108418D01*
X1156345Y1110957D01*
X1158884Y1108418D01*
Y1100800D01*
X1179197Y1116035D02*
Y1100800D01*
X1189354D01*
X1196972Y1110957D02*
X1202050D01*
X1204589Y1108418D01*
Y1100800D01*
X1196972D01*
X1194432Y1103339D01*
X1196972Y1105878D01*
X1204589D01*
X1209668Y1110957D02*
Y1103339D01*
X1212207Y1100800D01*
X1219824D01*
Y1098261D01*
X1217285Y1095722D01*
X1214746D01*
X1219824Y1100800D02*
Y1110957D01*
X1232520Y1100800D02*
X1227442D01*
X1224903Y1103339D01*
Y1108418D01*
X1227442Y1110957D01*
X1232520D01*
X1235059Y1108418D01*
Y1105878D01*
X1224903D01*
X1240138Y1110957D02*
Y1100800D01*
Y1105878D01*
X1242677Y1108418D01*
X1245216Y1110957D01*
X1247755D01*
X710049Y1329400D02*
Y1344635D01*
X717667D01*
X720206Y1342096D01*
Y1337018D01*
X717667Y1334478D01*
X710049D01*
X715128D02*
X720206Y1329400D01*
X727823D02*
X732902D01*
X735441Y1331939D01*
Y1337018D01*
X732902Y1339557D01*
X727823D01*
X725284Y1337018D01*
Y1331939D01*
X727823Y1329400D01*
X740519Y1339557D02*
Y1331939D01*
X743059Y1329400D01*
X750676D01*
Y1339557D01*
X755754Y1329400D02*
Y1339557D01*
X763372D01*
X765911Y1337018D01*
Y1329400D01*
X781146Y1344635D02*
Y1329400D01*
X773529D01*
X770990Y1331939D01*
Y1337018D01*
X773529Y1339557D01*
X781146D01*
X710049Y1291300D02*
Y1306535D01*
X717667D01*
X720206Y1303996D01*
Y1298918D01*
X717667Y1296378D01*
X710049D01*
X715128D02*
X720206Y1291300D01*
X727823D02*
X732902D01*
X735441Y1293839D01*
Y1298918D01*
X732902Y1301457D01*
X727823D01*
X725284Y1298918D01*
Y1293839D01*
X727823Y1291300D01*
X740519Y1301457D02*
Y1293839D01*
X743059Y1291300D01*
X750676D01*
Y1301457D01*
X755754Y1291300D02*
Y1301457D01*
X763372D01*
X765911Y1298918D01*
Y1291300D01*
X781146Y1306535D02*
Y1291300D01*
X773529D01*
X770990Y1293839D01*
Y1298918D01*
X773529Y1301457D01*
X781146D01*
X710049Y1253200D02*
Y1268435D01*
X717667D01*
X720206Y1265896D01*
Y1260817D01*
X717667Y1258278D01*
X710049D01*
X715128D02*
X720206Y1253200D01*
X727823D02*
X732902D01*
X735441Y1255739D01*
Y1260817D01*
X732902Y1263357D01*
X727823D01*
X725284Y1260817D01*
Y1255739D01*
X727823Y1253200D01*
X740519Y1263357D02*
Y1255739D01*
X743059Y1253200D01*
X750676D01*
Y1263357D01*
X755754Y1253200D02*
Y1263357D01*
X763372D01*
X765911Y1260817D01*
Y1253200D01*
X781146Y1268435D02*
Y1253200D01*
X773529D01*
X770990Y1255739D01*
Y1260817D01*
X773529Y1263357D01*
X781146D01*
X710049Y1215100D02*
Y1230335D01*
X717667D01*
X720206Y1227796D01*
Y1222718D01*
X717667Y1220178D01*
X710049D01*
X715128D02*
X720206Y1215100D01*
X727823D02*
X732902D01*
X735441Y1217639D01*
Y1222718D01*
X732902Y1225257D01*
X727823D01*
X725284Y1222718D01*
Y1217639D01*
X727823Y1215100D01*
X740519Y1225257D02*
Y1217639D01*
X743059Y1215100D01*
X750676D01*
Y1225257D01*
X755754Y1215100D02*
Y1225257D01*
X763372D01*
X765911Y1222718D01*
Y1215100D01*
X781146Y1230335D02*
Y1215100D01*
X773529D01*
X770990Y1217639D01*
Y1222718D01*
X773529Y1225257D01*
X781146D01*
X710049Y1177000D02*
Y1192235D01*
X717667D01*
X720206Y1189696D01*
Y1184617D01*
X717667Y1182078D01*
X710049D01*
X715128D02*
X720206Y1177000D01*
X727823D02*
X732902D01*
X735441Y1179539D01*
Y1184617D01*
X732902Y1187157D01*
X727823D01*
X725284Y1184617D01*
Y1179539D01*
X727823Y1177000D01*
X740519Y1187157D02*
Y1179539D01*
X743059Y1177000D01*
X750676D01*
Y1187157D01*
X755754Y1177000D02*
Y1187157D01*
X763372D01*
X765911Y1184617D01*
Y1177000D01*
X781146Y1192235D02*
Y1177000D01*
X773529D01*
X770990Y1179539D01*
Y1184617D01*
X773529Y1187157D01*
X781146D01*
X710049Y1138900D02*
Y1154135D01*
X717667D01*
X720206Y1151596D01*
Y1146517D01*
X717667Y1143978D01*
X710049D01*
X715128D02*
X720206Y1138900D01*
X727823D02*
X732902D01*
X735441Y1141439D01*
Y1146517D01*
X732902Y1149057D01*
X727823D01*
X725284Y1146517D01*
Y1141439D01*
X727823Y1138900D01*
X740519Y1149057D02*
Y1141439D01*
X743059Y1138900D01*
X750676D01*
Y1149057D01*
X755754Y1138900D02*
Y1149057D01*
X763372D01*
X765911Y1146517D01*
Y1138900D01*
X781146Y1154135D02*
Y1138900D01*
X773529D01*
X770990Y1141439D01*
Y1146517D01*
X773529Y1149057D01*
X781146D01*
X710049Y1100800D02*
Y1116035D01*
X717667D01*
X720206Y1113496D01*
Y1108418D01*
X717667Y1105878D01*
X710049D01*
X715128D02*
X720206Y1100800D01*
X727823D02*
X732902D01*
X735441Y1103339D01*
Y1108418D01*
X732902Y1110957D01*
X727823D01*
X725284Y1108418D01*
Y1103339D01*
X727823Y1100800D01*
X740519Y1110957D02*
Y1103339D01*
X743059Y1100800D01*
X750676D01*
Y1110957D01*
X755754Y1100800D02*
Y1110957D01*
X763372D01*
X765911Y1108418D01*
Y1100800D01*
X781146Y1116035D02*
Y1100800D01*
X773529D01*
X770990Y1103339D01*
Y1108418D01*
X773529Y1110957D01*
X781146D01*
X583182Y1329400D02*
Y1344635D01*
X590800D01*
X593339Y1342096D01*
Y1337018D01*
X590800Y1334478D01*
X583182D01*
X598418Y1344635D02*
X608574D01*
X603496D01*
Y1329400D01*
X613652Y1344635D02*
Y1329400D01*
Y1337018D01*
X623809D01*
Y1344635D01*
Y1329400D01*
X583182Y1291300D02*
Y1306535D01*
X590800D01*
X593339Y1303996D01*
Y1298918D01*
X590800Y1296378D01*
X583182D01*
X598418Y1306535D02*
X608574D01*
X603496D01*
Y1291300D01*
X613652Y1306535D02*
Y1291300D01*
Y1298918D01*
X623809D01*
Y1306535D01*
Y1291300D01*
X583182Y1253200D02*
Y1268435D01*
X590800D01*
X593339Y1265896D01*
Y1260817D01*
X590800Y1258278D01*
X583182D01*
X598418Y1268435D02*
X608574D01*
X603496D01*
Y1253200D01*
X613652Y1268435D02*
Y1253200D01*
Y1260817D01*
X623809D01*
Y1268435D01*
Y1253200D01*
X583182Y1215100D02*
Y1230335D01*
X590800D01*
X593339Y1227796D01*
Y1222718D01*
X590800Y1220178D01*
X583182D01*
X598418Y1230335D02*
X608574D01*
X603496D01*
Y1215100D01*
X613652Y1230335D02*
Y1215100D01*
Y1222718D01*
X623809D01*
Y1230335D01*
Y1215100D01*
X583182Y1177000D02*
Y1192235D01*
X590800D01*
X593339Y1189696D01*
Y1184617D01*
X590800Y1182078D01*
X583182D01*
X598418Y1192235D02*
X608574D01*
X603496D01*
Y1177000D01*
X613652Y1192235D02*
Y1177000D01*
Y1184617D01*
X623809D01*
Y1192235D01*
Y1177000D01*
X583182Y1138900D02*
Y1154135D01*
X590800D01*
X593339Y1151596D01*
Y1146517D01*
X590800Y1143978D01*
X583182D01*
X598418Y1154135D02*
X608574D01*
X603496D01*
Y1138900D01*
X613652Y1154135D02*
Y1138900D01*
Y1146517D01*
X623809D01*
Y1154135D01*
Y1138900D01*
X583182Y1100800D02*
Y1116035D01*
X590800D01*
X593339Y1113496D01*
Y1108418D01*
X590800Y1105878D01*
X583182D01*
X598418Y1116035D02*
X608574D01*
X603496D01*
Y1100800D01*
X613652Y1116035D02*
Y1100800D01*
Y1108418D01*
X623809D01*
Y1116035D01*
Y1100800D01*
X309958Y1329400D02*
X299801D01*
X309958Y1339557D01*
Y1342096D01*
X307419Y1344635D01*
X302341D01*
X299801Y1342096D01*
X315037Y1344635D02*
X325193D01*
Y1342096D01*
X315037Y1331939D01*
Y1329400D01*
X332811Y1326861D02*
X335350Y1329400D01*
Y1331939D01*
X332811D01*
Y1329400D01*
X335350D01*
X332811Y1326861D01*
X330271Y1324322D01*
X355663Y1344635D02*
X345507D01*
Y1337018D01*
X350585Y1339557D01*
X353124D01*
X355663Y1337018D01*
Y1331939D01*
X353124Y1329400D01*
X348046D01*
X345507Y1331939D01*
X370898Y1344635D02*
X365820Y1342096D01*
X360742Y1337018D01*
Y1331939D01*
X363281Y1329400D01*
X368359D01*
X370898Y1331939D01*
Y1334478D01*
X368359Y1337018D01*
X360742D01*
X375977Y1329400D02*
Y1339557D01*
X378516D01*
X381055Y1337018D01*
Y1329400D01*
Y1337018D01*
X383594Y1339557D01*
X386133Y1337018D01*
Y1329400D01*
X391212D02*
X396290D01*
X393751D01*
Y1339557D01*
X391212D01*
X403908Y1329400D02*
X408986D01*
X406447D01*
Y1344635D01*
X403908D01*
X436917Y1329400D02*
X431839Y1334478D01*
Y1339557D01*
X436917Y1344635D01*
X444534Y1342096D02*
X447074Y1344635D01*
X452152D01*
X454691Y1342096D01*
Y1331939D01*
X452152Y1329400D01*
X447074D01*
X444534Y1331939D01*
Y1342096D01*
X462309Y1326861D02*
X464848Y1329400D01*
Y1331939D01*
X462309D01*
Y1329400D01*
X464848D01*
X462309Y1326861D01*
X459770Y1324322D01*
X475005Y1344635D02*
X485161D01*
Y1342096D01*
X475005Y1331939D01*
Y1329400D01*
X490240Y1342096D02*
X492779Y1344635D01*
X497857D01*
X500396Y1342096D01*
Y1331939D01*
X497857Y1329400D01*
X492779D01*
X490240Y1331939D01*
Y1342096D01*
X505475D02*
X508014Y1344635D01*
X513092D01*
X515632Y1342096D01*
Y1331939D01*
X513092Y1329400D01*
X508014D01*
X505475Y1331939D01*
Y1342096D01*
X520710Y1329400D02*
Y1339557D01*
X523249D01*
X525788Y1337018D01*
Y1329400D01*
Y1337018D01*
X528327Y1339557D01*
X530867Y1337018D01*
Y1329400D01*
X535945D02*
Y1339557D01*
X538484D01*
X541023Y1337018D01*
Y1329400D01*
Y1337018D01*
X543563Y1339557D01*
X546102Y1337018D01*
Y1329400D01*
X551180D02*
X556258Y1334478D01*
Y1339557D01*
X551180Y1344635D01*
X309958Y1291300D02*
X299801D01*
X309958Y1301457D01*
Y1303996D01*
X307419Y1306535D01*
X302341D01*
X299801Y1303996D01*
X315037D02*
X317576Y1306535D01*
X322654D01*
X325193Y1303996D01*
Y1301457D01*
X322654Y1298918D01*
X325193Y1296378D01*
Y1293839D01*
X322654Y1291300D01*
X317576D01*
X315037Y1293839D01*
Y1296378D01*
X317576Y1298918D01*
X315037Y1301457D01*
Y1303996D01*
X317576Y1298918D02*
X322654D01*
X332811Y1288761D02*
X335350Y1291300D01*
Y1293839D01*
X332811D01*
Y1291300D01*
X335350D01*
X332811Y1288761D01*
X330271Y1286222D01*
X345507Y1303996D02*
X348046Y1306535D01*
X353124D01*
X355663Y1303996D01*
Y1293839D01*
X353124Y1291300D01*
X348046D01*
X345507Y1293839D01*
Y1303996D01*
X360742D02*
X363281Y1306535D01*
X368359D01*
X370898Y1303996D01*
Y1293839D01*
X368359Y1291300D01*
X363281D01*
X360742Y1293839D01*
Y1303996D01*
X375977Y1291300D02*
Y1301457D01*
X378516D01*
X381055Y1298918D01*
Y1291300D01*
Y1298918D01*
X383594Y1301457D01*
X386133Y1298918D01*
Y1291300D01*
X391212D02*
X396290D01*
X393751D01*
Y1301457D01*
X391212D01*
X403908Y1291300D02*
X408986D01*
X406447D01*
Y1306535D01*
X403908D01*
X436917Y1291300D02*
X431839Y1296378D01*
Y1301457D01*
X436917Y1306535D01*
X444534Y1303996D02*
X447074Y1306535D01*
X452152D01*
X454691Y1303996D01*
Y1293839D01*
X452152Y1291300D01*
X447074D01*
X444534Y1293839D01*
Y1303996D01*
X462309Y1288761D02*
X464848Y1291300D01*
Y1293839D01*
X462309D01*
Y1291300D01*
X464848D01*
X462309Y1288761D01*
X459770Y1286222D01*
X475005Y1306535D02*
X485161D01*
Y1303996D01*
X475005Y1293839D01*
Y1291300D01*
X490240D02*
X495318D01*
X492779D01*
Y1306535D01*
X490240Y1303996D01*
X502936Y1291300D02*
X508014D01*
X505475D01*
Y1306535D01*
X502936Y1303996D01*
X515631Y1291300D02*
Y1301457D01*
X518171D01*
X520710Y1298918D01*
Y1291300D01*
Y1298918D01*
X523249Y1301457D01*
X525788Y1298918D01*
Y1291300D01*
X530867D02*
Y1301457D01*
X533406D01*
X535945Y1298918D01*
Y1291300D01*
Y1298918D01*
X538484Y1301457D01*
X541023Y1298918D01*
Y1291300D01*
X546102D02*
X551180Y1296378D01*
Y1301457D01*
X546102Y1306535D01*
X299801Y1265896D02*
X302341Y1268435D01*
X307419D01*
X309958Y1265896D01*
Y1263357D01*
X307419Y1260817D01*
X304880D01*
X307419D01*
X309958Y1258278D01*
Y1255739D01*
X307419Y1253200D01*
X302341D01*
X299801Y1255739D01*
X315037Y1253200D02*
X320115D01*
X317576D01*
Y1268435D01*
X315037Y1265896D01*
X330271Y1250661D02*
X332811Y1253200D01*
Y1255739D01*
X330271D01*
Y1253200D01*
X332811D01*
X330271Y1250661D01*
X327732Y1248122D01*
X353124Y1268435D02*
X342967D01*
Y1260817D01*
X348046Y1263357D01*
X350585D01*
X353124Y1260817D01*
Y1255739D01*
X350585Y1253200D01*
X345507D01*
X342967Y1255739D01*
X358203Y1265896D02*
X360742Y1268435D01*
X365820D01*
X368359Y1265896D01*
Y1255739D01*
X365820Y1253200D01*
X360742D01*
X358203Y1255739D01*
Y1265896D01*
X373438Y1253200D02*
Y1263357D01*
X375977D01*
X378516Y1260817D01*
Y1253200D01*
Y1260817D01*
X381055Y1263357D01*
X383594Y1260817D01*
Y1253200D01*
X388673D02*
X393751D01*
X391212D01*
Y1263357D01*
X388673D01*
X401368Y1253200D02*
X406447D01*
X403908D01*
Y1268435D01*
X401368D01*
X434378Y1253200D02*
X429300Y1258278D01*
Y1263357D01*
X434378Y1268435D01*
X441995Y1265896D02*
X444534Y1268435D01*
X449613D01*
X452152Y1265896D01*
Y1255739D01*
X449613Y1253200D01*
X444534D01*
X441995Y1255739D01*
Y1265896D01*
X459770Y1250661D02*
X462309Y1253200D01*
Y1255739D01*
X459770D01*
Y1253200D01*
X462309D01*
X459770Y1250661D01*
X457230Y1248122D01*
X472466Y1265896D02*
X475005Y1268435D01*
X480083D01*
X482622Y1265896D01*
Y1263357D01*
X480083Y1260817D01*
X482622Y1258278D01*
Y1255739D01*
X480083Y1253200D01*
X475005D01*
X472466Y1255739D01*
Y1258278D01*
X475005Y1260817D01*
X472466Y1263357D01*
Y1265896D01*
X475005Y1260817D02*
X480083D01*
X487701Y1265896D02*
X490240Y1268435D01*
X495318D01*
X497857Y1265896D01*
Y1255739D01*
X495318Y1253200D01*
X490240D01*
X487701Y1255739D01*
Y1265896D01*
X502936D02*
X505475Y1268435D01*
X510553D01*
X513092Y1265896D01*
Y1255739D01*
X510553Y1253200D01*
X505475D01*
X502936Y1255739D01*
Y1265896D01*
X518171Y1253200D02*
Y1263357D01*
X520710D01*
X523249Y1260817D01*
Y1253200D01*
Y1260817D01*
X525788Y1263357D01*
X528327Y1260817D01*
Y1253200D01*
X533406D02*
Y1263357D01*
X535945D01*
X538484Y1260817D01*
Y1253200D01*
Y1260817D01*
X541023Y1263357D01*
X543563Y1260817D01*
Y1253200D01*
X548641D02*
X553719Y1258278D01*
Y1263357D01*
X548641Y1268435D01*
X299801Y1227796D02*
X302341Y1230335D01*
X307419D01*
X309958Y1227796D01*
Y1225257D01*
X307419Y1222718D01*
X304880D01*
X307419D01*
X309958Y1220178D01*
Y1217639D01*
X307419Y1215100D01*
X302341D01*
X299801Y1217639D01*
X315037Y1215100D02*
X320115D01*
X317576D01*
Y1230335D01*
X315037Y1227796D01*
X330271Y1212561D02*
X332811Y1215100D01*
Y1217639D01*
X330271D01*
Y1215100D01*
X332811D01*
X330271Y1212561D01*
X327732Y1210022D01*
X353124Y1230335D02*
X342967D01*
Y1222718D01*
X348046Y1225257D01*
X350585D01*
X353124Y1222718D01*
Y1217639D01*
X350585Y1215100D01*
X345507D01*
X342967Y1217639D01*
X358203Y1227796D02*
X360742Y1230335D01*
X365820D01*
X368359Y1227796D01*
Y1217639D01*
X365820Y1215100D01*
X360742D01*
X358203Y1217639D01*
Y1227796D01*
X373438Y1215100D02*
Y1225257D01*
X375977D01*
X378516Y1222718D01*
Y1215100D01*
Y1222718D01*
X381055Y1225257D01*
X383594Y1222718D01*
Y1215100D01*
X388673D02*
X393751D01*
X391212D01*
Y1225257D01*
X388673D01*
X401368Y1215100D02*
X406447D01*
X403908D01*
Y1230335D01*
X401368D01*
X434378Y1215100D02*
X429300Y1220178D01*
Y1225257D01*
X434378Y1230335D01*
X441995Y1227796D02*
X444534Y1230335D01*
X449613D01*
X452152Y1227796D01*
Y1217639D01*
X449613Y1215100D01*
X444534D01*
X441995Y1217639D01*
Y1227796D01*
X459770Y1212561D02*
X462309Y1215100D01*
Y1217639D01*
X459770D01*
Y1215100D01*
X462309D01*
X459770Y1212561D01*
X457230Y1210022D01*
X472466Y1227796D02*
X475005Y1230335D01*
X480083D01*
X482622Y1227796D01*
Y1225257D01*
X480083Y1222718D01*
X482622Y1220178D01*
Y1217639D01*
X480083Y1215100D01*
X475005D01*
X472466Y1217639D01*
Y1220178D01*
X475005Y1222718D01*
X472466Y1225257D01*
Y1227796D01*
X475005Y1222718D02*
X480083D01*
X487701Y1227796D02*
X490240Y1230335D01*
X495318D01*
X497857Y1227796D01*
Y1217639D01*
X495318Y1215100D01*
X490240D01*
X487701Y1217639D01*
Y1227796D01*
X502936D02*
X505475Y1230335D01*
X510553D01*
X513092Y1227796D01*
Y1217639D01*
X510553Y1215100D01*
X505475D01*
X502936Y1217639D01*
Y1227796D01*
X518171Y1215100D02*
Y1225257D01*
X520710D01*
X523249Y1222718D01*
Y1215100D01*
Y1222718D01*
X525788Y1225257D01*
X528327Y1222718D01*
Y1215100D01*
X533406D02*
Y1225257D01*
X535945D01*
X538484Y1222718D01*
Y1215100D01*
Y1222718D01*
X541023Y1225257D01*
X543563Y1222718D01*
Y1215100D01*
X548641D02*
X553719Y1220178D01*
Y1225257D01*
X548641Y1230335D01*
X299801Y1189696D02*
X302341Y1192235D01*
X307419D01*
X309958Y1189696D01*
Y1187157D01*
X307419Y1184617D01*
X304880D01*
X307419D01*
X309958Y1182078D01*
Y1179539D01*
X307419Y1177000D01*
X302341D01*
X299801Y1179539D01*
X325193Y1192235D02*
X315037D01*
Y1184617D01*
X320115Y1187157D01*
X322654D01*
X325193Y1184617D01*
Y1179539D01*
X322654Y1177000D01*
X317576D01*
X315037Y1179539D01*
X332811Y1174461D02*
X335350Y1177000D01*
Y1179539D01*
X332811D01*
Y1177000D01*
X335350D01*
X332811Y1174461D01*
X330271Y1171922D01*
X353124Y1177000D02*
Y1192235D01*
X345507Y1184617D01*
X355663D01*
X360742Y1189696D02*
X363281Y1192235D01*
X368359D01*
X370898Y1189696D01*
Y1187157D01*
X368359Y1184617D01*
X365820D01*
X368359D01*
X370898Y1182078D01*
Y1179539D01*
X368359Y1177000D01*
X363281D01*
X360742Y1179539D01*
X375977Y1177000D02*
Y1187157D01*
X378516D01*
X381055Y1184617D01*
Y1177000D01*
Y1184617D01*
X383594Y1187157D01*
X386133Y1184617D01*
Y1177000D01*
X391212D02*
X396290D01*
X393751D01*
Y1187157D01*
X391212D01*
X403908Y1177000D02*
X408986D01*
X406447D01*
Y1192235D01*
X403908D01*
X436917Y1177000D02*
X431839Y1182078D01*
Y1187157D01*
X436917Y1192235D01*
X444534Y1189696D02*
X447074Y1192235D01*
X452152D01*
X454691Y1189696D01*
Y1179539D01*
X452152Y1177000D01*
X447074D01*
X444534Y1179539D01*
Y1189696D01*
X462309Y1174461D02*
X464848Y1177000D01*
Y1179539D01*
X462309D01*
Y1177000D01*
X464848D01*
X462309Y1174461D01*
X459770Y1171922D01*
X475005Y1179539D02*
X477544Y1177000D01*
X482622D01*
X485161Y1179539D01*
Y1189696D01*
X482622Y1192235D01*
X477544D01*
X475005Y1189696D01*
Y1187157D01*
X477544Y1184617D01*
X485161D01*
X490240Y1189696D02*
X492779Y1192235D01*
X497857D01*
X500396Y1189696D01*
Y1179539D01*
X497857Y1177000D01*
X492779D01*
X490240Y1179539D01*
Y1189696D01*
X505475D02*
X508014Y1192235D01*
X513092D01*
X515632Y1189696D01*
Y1179539D01*
X513092Y1177000D01*
X508014D01*
X505475Y1179539D01*
Y1189696D01*
X520710Y1177000D02*
Y1187157D01*
X523249D01*
X525788Y1184617D01*
Y1177000D01*
Y1184617D01*
X528327Y1187157D01*
X530867Y1184617D01*
Y1177000D01*
X535945D02*
Y1187157D01*
X538484D01*
X541023Y1184617D01*
Y1177000D01*
Y1184617D01*
X543563Y1187157D01*
X546102Y1184617D01*
Y1177000D01*
X551180D02*
X556258Y1182078D01*
Y1187157D01*
X551180Y1192235D01*
X299801Y1151596D02*
X302341Y1154135D01*
X307419D01*
X309958Y1151596D01*
Y1149057D01*
X307419Y1146517D01*
X304880D01*
X307419D01*
X309958Y1143978D01*
Y1141439D01*
X307419Y1138900D01*
X302341D01*
X299801Y1141439D01*
X315037D02*
X317576Y1138900D01*
X322654D01*
X325193Y1141439D01*
Y1151596D01*
X322654Y1154135D01*
X317576D01*
X315037Y1151596D01*
Y1149057D01*
X317576Y1146517D01*
X325193D01*
X332811Y1136361D02*
X335350Y1138900D01*
Y1141439D01*
X332811D01*
Y1138900D01*
X335350D01*
X332811Y1136361D01*
X330271Y1133822D01*
X345507Y1151596D02*
X348046Y1154135D01*
X353124D01*
X355663Y1151596D01*
Y1149057D01*
X353124Y1146517D01*
X350585D01*
X353124D01*
X355663Y1143978D01*
Y1141439D01*
X353124Y1138900D01*
X348046D01*
X345507Y1141439D01*
X360742Y1154135D02*
X370898D01*
Y1151596D01*
X360742Y1141439D01*
Y1138900D01*
X375977D02*
Y1149057D01*
X378516D01*
X381055Y1146517D01*
Y1138900D01*
Y1146517D01*
X383594Y1149057D01*
X386133Y1146517D01*
Y1138900D01*
X391212D02*
X396290D01*
X393751D01*
Y1149057D01*
X391212D01*
X403908Y1138900D02*
X408986D01*
X406447D01*
Y1154135D01*
X403908D01*
X436917Y1138900D02*
X431839Y1143978D01*
Y1149057D01*
X436917Y1154135D01*
X444534Y1138900D02*
X449613D01*
X447074D01*
Y1154135D01*
X444534Y1151596D01*
X459770Y1136361D02*
X462309Y1138900D01*
Y1141439D01*
X459770D01*
Y1138900D01*
X462309D01*
X459770Y1136361D01*
X457230Y1133822D01*
X472466Y1151596D02*
X475005Y1154135D01*
X480083D01*
X482622Y1151596D01*
Y1141439D01*
X480083Y1138900D01*
X475005D01*
X472466Y1141439D01*
Y1151596D01*
X487701D02*
X490240Y1154135D01*
X495318D01*
X497857Y1151596D01*
Y1141439D01*
X495318Y1138900D01*
X490240D01*
X487701Y1141439D01*
Y1151596D01*
X502936D02*
X505475Y1154135D01*
X510553D01*
X513092Y1151596D01*
Y1141439D01*
X510553Y1138900D01*
X505475D01*
X502936Y1141439D01*
Y1151596D01*
X518171Y1138900D02*
Y1149057D01*
X520710D01*
X523249Y1146517D01*
Y1138900D01*
Y1146517D01*
X525788Y1149057D01*
X528327Y1146517D01*
Y1138900D01*
X533406D02*
Y1149057D01*
X535945D01*
X538484Y1146517D01*
Y1138900D01*
Y1146517D01*
X541023Y1149057D01*
X543563Y1146517D01*
Y1138900D01*
X548641D02*
X553719Y1143978D01*
Y1149057D01*
X548641Y1154135D01*
X299801Y1116035D02*
X309958D01*
Y1113496D01*
X299801Y1103339D01*
Y1100800D01*
X315037Y1113496D02*
X317576Y1116035D01*
X322654D01*
X325193Y1113496D01*
Y1110957D01*
X322654Y1108418D01*
X325193Y1105878D01*
Y1103339D01*
X322654Y1100800D01*
X317576D01*
X315037Y1103339D01*
Y1105878D01*
X317576Y1108418D01*
X315037Y1110957D01*
Y1113496D01*
X317576Y1108418D02*
X322654D01*
X332811Y1098261D02*
X335350Y1100800D01*
Y1103339D01*
X332811D01*
Y1100800D01*
X335350D01*
X332811Y1098261D01*
X330271Y1095722D01*
X345507Y1116035D02*
X355663D01*
Y1113496D01*
X345507Y1103339D01*
Y1100800D01*
X368359D02*
Y1116035D01*
X360742Y1108418D01*
X370898D01*
X375977Y1100800D02*
Y1110957D01*
X378516D01*
X381055Y1108418D01*
Y1100800D01*
Y1108418D01*
X383594Y1110957D01*
X386133Y1108418D01*
Y1100800D01*
X391212D02*
X396290D01*
X393751D01*
Y1110957D01*
X391212D01*
X403908Y1100800D02*
X408986D01*
X406447D01*
Y1116035D01*
X403908D01*
X436917Y1100800D02*
X431839Y1105878D01*
Y1110957D01*
X436917Y1116035D01*
X454691Y1100800D02*
X444534D01*
X454691Y1110957D01*
Y1113496D01*
X452152Y1116035D01*
X447074D01*
X444534Y1113496D01*
X462309Y1098261D02*
X464848Y1100800D01*
Y1103339D01*
X462309D01*
Y1100800D01*
X464848D01*
X462309Y1098261D01*
X459770Y1095722D01*
X475005Y1113496D02*
X477544Y1116035D01*
X482622D01*
X485161Y1113496D01*
Y1103339D01*
X482622Y1100800D01*
X477544D01*
X475005Y1103339D01*
Y1113496D01*
X490240D02*
X492779Y1116035D01*
X497857D01*
X500396Y1113496D01*
Y1103339D01*
X497857Y1100800D01*
X492779D01*
X490240Y1103339D01*
Y1113496D01*
X505475D02*
X508014Y1116035D01*
X513092D01*
X515632Y1113496D01*
Y1103339D01*
X513092Y1100800D01*
X508014D01*
X505475Y1103339D01*
Y1113496D01*
X520710Y1100800D02*
Y1110957D01*
X523249D01*
X525788Y1108418D01*
Y1100800D01*
Y1108418D01*
X528327Y1110957D01*
X530867Y1108418D01*
Y1100800D01*
X535945D02*
Y1110957D01*
X538484D01*
X541023Y1108418D01*
Y1100800D01*
Y1108418D01*
X543563Y1110957D01*
X546102Y1108418D01*
Y1100800D01*
X551180D02*
X556258Y1105878D01*
Y1110957D01*
X551180Y1116035D01*
X150997Y1062700D02*
X156075D01*
X153536D01*
Y1077935D01*
X150997Y1075396D01*
X163693Y1065239D02*
X166232Y1062700D01*
X171310D01*
X173849Y1065239D01*
Y1075396D01*
X171310Y1077935D01*
X166232D01*
X163693Y1075396D01*
Y1072857D01*
X166232Y1070318D01*
X173849D01*
X186545Y1062700D02*
Y1077935D01*
X178928Y1070318D01*
X189084D01*
X209398Y1077935D02*
X219555D01*
X214476D01*
Y1062700D01*
X227172D02*
X232250D01*
X234790Y1065239D01*
Y1070318D01*
X232250Y1072857D01*
X227172D01*
X224633Y1070318D01*
Y1065239D01*
X227172Y1062700D01*
X242407Y1075396D02*
Y1072857D01*
X239868D01*
X244946D01*
X242407D01*
Y1065239D01*
X244946Y1062700D01*
X255103Y1072857D02*
X260182D01*
X262721Y1070318D01*
Y1062700D01*
X255103D01*
X252564Y1065239D01*
X255103Y1067778D01*
X262721D01*
X267799Y1062700D02*
X272877D01*
X270338D01*
Y1077935D01*
X267799D01*
X150997Y1329400D02*
X156075D01*
X153536D01*
Y1344635D01*
X150997Y1342096D01*
X163693D02*
X166232Y1344635D01*
X171310D01*
X173849Y1342096D01*
Y1331939D01*
X171310Y1329400D01*
X166232D01*
X163693Y1331939D01*
Y1342096D01*
X189084Y1329400D02*
X178928D01*
X189084Y1339557D01*
Y1342096D01*
X186545Y1344635D01*
X181467D01*
X178928Y1342096D01*
X150997Y1291300D02*
X156075D01*
X153536D01*
Y1306535D01*
X150997Y1303996D01*
Y1268435D02*
X161154D01*
Y1265896D01*
X150997Y1255739D01*
Y1253200D01*
X161154Y1230335D02*
X156075Y1227796D01*
X150997Y1222718D01*
Y1217639D01*
X153536Y1215100D01*
X158614D01*
X161154Y1217639D01*
Y1220178D01*
X158614Y1222718D01*
X150997D01*
X158614Y1177000D02*
Y1192235D01*
X150997Y1184617D01*
X161154D01*
X176389Y1177000D02*
X166232D01*
X176389Y1187157D01*
Y1189696D01*
X173849Y1192235D01*
X168771D01*
X166232Y1189696D01*
X161154Y1138900D02*
X150997D01*
X161154Y1149057D01*
Y1151596D01*
X158614Y1154135D01*
X153536D01*
X150997Y1151596D01*
X166232D02*
X168771Y1154135D01*
X173849D01*
X176389Y1151596D01*
Y1149057D01*
X173849Y1146517D01*
X176389Y1143978D01*
Y1141439D01*
X173849Y1138900D01*
X168771D01*
X166232Y1141439D01*
Y1143978D01*
X168771Y1146517D01*
X166232Y1149057D01*
Y1151596D01*
X168771Y1146517D02*
X173849D01*
X150997Y1113496D02*
X153536Y1116035D01*
X158614D01*
X161154Y1113496D01*
Y1110957D01*
X158614Y1108418D01*
X161154Y1105878D01*
Y1103339D01*
X158614Y1100800D01*
X153536D01*
X150997Y1103339D01*
Y1105878D01*
X153536Y1108418D01*
X150997Y1110957D01*
Y1113496D01*
X153536Y1108418D02*
X158614D01*
D74*
X1507540Y609600D02*
G03*
X1507540Y609600I-2540J0D01*
G01*
Y635000D02*
G03*
X1507540Y635000I-2540J0D01*
G01*
X597540Y896600D02*
G03*
X597540Y896600I-2540J0D01*
G01*
Y922000D02*
G03*
X597540Y922000I-2540J0D01*
G01*
X1482540Y860000D02*
G03*
X1482540Y860000I-2540J0D01*
G01*
Y885000D02*
G03*
X1482540Y885000I-2540J0D01*
G01*
X71340Y55000D02*
G03*
X71340Y55000I-2540J0D01*
G01*
X96740D02*
G03*
X96740Y55000I-2540J0D01*
G01*
X122140D02*
G03*
X122140Y55000I-2540J0D01*
G01*
X147540D02*
G03*
X147540Y55000I-2540J0D01*
G01*
X1156270Y611270D02*
G03*
X1156270Y611270I-2540J0D01*
G01*
X1181670D02*
G03*
X1181670Y611270I-2540J0D01*
G01*
X1156270Y581270D02*
G03*
X1156270Y581270I-2540J0D01*
G01*
X1181670D02*
G03*
X1181670Y581270I-2540J0D01*
G01*
X369640Y437100D02*
G03*
X369640Y437100I-2540J0D01*
G01*
X344240D02*
G03*
X344240Y437100I-2540J0D01*
G01*
X318840D02*
G03*
X318840Y437100I-2540J0D01*
G01*
X293440D02*
G03*
X293440Y437100I-2540J0D01*
G01*
X369640Y360900D02*
G03*
X369640Y360900I-2540J0D01*
G01*
X344240D02*
G03*
X344240Y360900I-2540J0D01*
G01*
X318840D02*
G03*
X318840Y360900I-2540J0D01*
G01*
X293440D02*
G03*
X293440Y360900I-2540J0D01*
G01*
X1215312Y61215D02*
G03*
X1215312Y61215I-2540J0D01*
G01*
X1240712D02*
G03*
X1240712Y61215I-2540J0D01*
G01*
X1047040Y244900D02*
G03*
X1047040Y244900I-2540J0D01*
G01*
Y219500D02*
G03*
X1047040Y219500I-2540J0D01*
G01*
X1021640Y244900D02*
G03*
X1021640Y244900I-2540J0D01*
G01*
Y219500D02*
G03*
X1021640Y219500I-2540J0D01*
G01*
X996240Y244900D02*
G03*
X996240Y244900I-2540J0D01*
G01*
Y219500D02*
G03*
X996240Y219500I-2540J0D01*
G01*
X970840Y244900D02*
G03*
X970840Y244900I-2540J0D01*
G01*
Y219500D02*
G03*
X970840Y219500I-2540J0D01*
G01*
X945440Y244900D02*
G03*
X945440Y244900I-2540J0D01*
G01*
Y219500D02*
G03*
X945440Y219500I-2540J0D01*
G01*
X920040Y244900D02*
G03*
X920040Y244900I-2540J0D01*
G01*
Y219500D02*
G03*
X920040Y219500I-2540J0D01*
G01*
X122540Y835000D02*
G03*
X122540Y835000I-2540J0D01*
G01*
Y860000D02*
G03*
X122540Y860000I-2540J0D01*
G01*
Y635000D02*
G03*
X122540Y635000I-2540J0D01*
G01*
Y660000D02*
G03*
X122540Y660000I-2540J0D01*
G01*
Y330000D02*
G03*
X122540Y330000I-2540J0D01*
G01*
Y305000D02*
G03*
X122540Y305000I-2540J0D01*
G01*
X418954Y857460D02*
Y858730D01*
X420224Y860000D01*
X418954Y861270D02*
X420224Y860000D01*
X418954Y861270D02*
Y862540D01*
X420224D01*
X421494Y861270D01*
X422764Y862540D01*
X424034D01*
Y861270D02*
Y862540D01*
X422764Y860000D02*
X424034Y861270D01*
X422764Y860000D02*
X424034Y858730D01*
Y857460D02*
Y858730D01*
X422764Y857460D02*
X424034D01*
X421494Y858730D02*
X422764Y857460D01*
X420224D02*
X421494Y858730D01*
X418954Y857460D02*
X420224D01*
X464954Y887460D02*
Y888730D01*
X466224Y890000D01*
X464954Y891270D02*
X466224Y890000D01*
X464954Y891270D02*
Y892540D01*
X466224D01*
X467494Y891270D01*
X468764Y892540D01*
X470034D01*
Y891270D02*
Y892540D01*
X468764Y890000D02*
X470034Y891270D01*
X468764Y890000D02*
X470034Y888730D01*
Y887460D02*
Y888730D01*
X468764Y887460D02*
X470034D01*
X467494Y888730D02*
X468764Y887460D01*
X466224D02*
X467494Y888730D01*
X464954Y887460D02*
X466224D01*
X378690Y152230D02*
Y153500D01*
X379960Y154770D01*
X378690Y156040D02*
X379960Y154770D01*
X378690Y156040D02*
Y157310D01*
X379960D01*
X381230Y156040D01*
X382500Y157310D01*
X383770D01*
Y156040D02*
Y157310D01*
X382500Y154770D02*
X383770Y156040D01*
X382500Y154770D02*
X383770Y153500D01*
Y152230D02*
Y153500D01*
X382500Y152230D02*
X383770D01*
X381230Y153500D02*
X382500Y152230D01*
X379960D02*
X381230Y153500D01*
X378690Y152230D02*
X379960D01*
X329690Y123230D02*
Y124500D01*
X330960Y125770D01*
X329690Y127040D02*
X330960Y125770D01*
X329690Y127040D02*
Y128310D01*
X330960D01*
X332230Y127040D01*
X333500Y128310D01*
X334770D01*
Y127040D02*
Y128310D01*
X333500Y125770D02*
X334770Y127040D01*
X333500Y125770D02*
X334770Y124500D01*
Y123230D02*
Y124500D01*
X333500Y123230D02*
X334770D01*
X332230Y124500D02*
X333500Y123230D01*
X330960D02*
X332230Y124500D01*
X329690Y123230D02*
X330960D01*
X112460Y142949D02*
Y144219D01*
X113730Y145489D01*
X112460Y146759D02*
X113730Y145489D01*
X112460Y146759D02*
Y148029D01*
X113730D01*
X115000Y146759D01*
X116270Y148029D01*
X117540D01*
Y146759D02*
Y148029D01*
X116270Y145489D02*
X117540Y146759D01*
X116270Y145489D02*
X117540Y144219D01*
Y142949D02*
Y144219D01*
X116270Y142949D02*
X117540D01*
X115000Y144219D02*
X116270Y142949D01*
X113730D02*
X115000Y144219D01*
X112460Y142949D02*
X113730D01*
X67960Y87449D02*
Y88719D01*
X69230Y89989D01*
X67960Y91259D02*
X69230Y89989D01*
X67960Y91259D02*
Y92529D01*
X69230D01*
X70500Y91259D01*
X71770Y92529D01*
X73040D01*
Y91259D02*
Y92529D01*
X71770Y89989D02*
X73040Y91259D01*
X71770Y89989D02*
X73040Y88719D01*
Y87449D02*
Y88719D01*
X71770Y87449D02*
X73040D01*
X70500Y88719D02*
X71770Y87449D01*
X69230D02*
X70500Y88719D01*
X67960Y87449D02*
X69230D01*
X161460Y107949D02*
Y109219D01*
X162730Y110489D01*
X161460Y111759D02*
X162730Y110489D01*
X161460Y111759D02*
Y113029D01*
X162730D01*
X164000Y111759D01*
X165270Y113029D01*
X166540D01*
Y111759D02*
Y113029D01*
X165270Y110489D02*
X166540Y111759D01*
X165270Y110489D02*
X166540Y109219D01*
Y107949D02*
Y109219D01*
X165270Y107949D02*
X166540D01*
X164000Y109219D02*
X165270Y107949D01*
X162730D02*
X164000Y109219D01*
X161460Y107949D02*
X162730D01*
X581460Y234715D02*
Y235985D01*
X582730Y237255D01*
X581460Y238525D02*
X582730Y237255D01*
X581460Y238525D02*
Y239795D01*
X582730D01*
X584000Y238525D01*
X585270Y239795D01*
X586540D01*
Y238525D02*
Y239795D01*
X585270Y237255D02*
X586540Y238525D01*
X585270Y237255D02*
X586540Y235985D01*
Y234715D02*
Y235985D01*
X585270Y234715D02*
X586540D01*
X584000Y235985D02*
X585270Y234715D01*
X582730D02*
X584000Y235985D01*
X581460Y234715D02*
X582730D01*
X557960Y235215D02*
Y236485D01*
X559230Y237754D01*
X557960Y239025D02*
X559230Y237754D01*
X557960Y239025D02*
Y240294D01*
X559230D01*
X560500Y239025D01*
X561770Y240294D01*
X563040D01*
Y239025D02*
Y240294D01*
X561770Y237754D02*
X563040Y239025D01*
X561770Y237754D02*
X563040Y236485D01*
Y235215D02*
Y236485D01*
X561770Y235215D02*
X563040D01*
X560500Y236485D02*
X561770Y235215D01*
X559230D02*
X560500Y236485D01*
X557960Y235215D02*
X559230D01*
X1229460Y709960D02*
Y711230D01*
X1230730Y712500D01*
X1229460Y713770D02*
X1230730Y712500D01*
X1229460Y713770D02*
Y715040D01*
X1230730D01*
X1232000Y713770D01*
X1233270Y715040D01*
X1234540D01*
Y713770D02*
Y715040D01*
X1233270Y712500D02*
X1234540Y713770D01*
X1233270Y712500D02*
X1234540Y711230D01*
Y709960D02*
Y711230D01*
X1233270Y709960D02*
X1234540D01*
X1232000Y711230D02*
X1233270Y709960D01*
X1230730D02*
X1232000Y711230D01*
X1229460Y709960D02*
X1230730D01*
X761460Y295460D02*
Y296730D01*
X762730Y298000D01*
X761460Y299270D02*
X762730Y298000D01*
X761460Y299270D02*
Y300540D01*
X762730D01*
X764000Y299270D01*
X765270Y300540D01*
X766540D01*
Y299270D02*
Y300540D01*
X765270Y298000D02*
X766540Y299270D01*
X765270Y298000D02*
X766540Y296730D01*
Y295460D02*
Y296730D01*
X765270Y295460D02*
X766540D01*
X764000Y296730D02*
X765270Y295460D01*
X762730D02*
X764000Y296730D01*
X761460Y295460D02*
X762730D01*
X1117689Y67245D02*
Y68515D01*
X1118959Y69785D01*
X1117689Y71055D02*
X1118959Y69785D01*
X1117689Y71055D02*
Y72325D01*
X1118959D01*
X1120229Y71055D01*
X1121499Y72325D01*
X1122769D01*
Y71055D02*
Y72325D01*
X1121499Y69785D02*
X1122769Y71055D01*
X1121499Y69785D02*
X1122769Y68515D01*
Y67245D02*
Y68515D01*
X1121499Y67245D02*
X1122769D01*
X1120229Y68515D02*
X1121499Y67245D01*
X1118959D02*
X1120229Y68515D01*
X1117689Y67245D02*
X1118959D01*
X182460Y168288D02*
Y169558D01*
X183730Y170828D01*
X182460Y172098D02*
X183730Y170828D01*
X182460Y172098D02*
Y173368D01*
X183730D01*
X185000Y172098D01*
X186270Y173368D01*
X187540D01*
Y172098D02*
Y173368D01*
X186270Y170828D02*
X187540Y172098D01*
X186270Y170828D02*
X187540Y169558D01*
Y168288D02*
Y169558D01*
X186270Y168288D02*
X187540D01*
X185000Y169558D02*
X186270Y168288D01*
X183730D02*
X185000Y169558D01*
X182460Y168288D02*
X183730D01*
X281576Y148688D02*
Y149958D01*
X282846Y151228D01*
X281576Y152498D02*
X282846Y151228D01*
X281576Y152498D02*
Y153768D01*
X282846D01*
X284116Y152498D01*
X285386Y153768D01*
X286656D01*
Y152498D02*
Y153768D01*
X285386Y151228D02*
X286656Y152498D01*
X285386Y151228D02*
X286656Y149958D01*
Y148688D02*
Y149958D01*
X285386Y148688D02*
X286656D01*
X284116Y149958D02*
X285386Y148688D01*
X282846D02*
X284116Y149958D01*
X281576Y148688D02*
X282846D01*
X532571Y862063D02*
Y863333D01*
X533841Y864603D01*
X532571Y865873D02*
X533841Y864603D01*
X532571Y865873D02*
Y867143D01*
X533841D01*
X535111Y865873D01*
X536381Y867143D01*
X537651D01*
Y865873D02*
Y867143D01*
X536381Y864603D02*
X537651Y865873D01*
X536381Y864603D02*
X537651Y863333D01*
Y862063D02*
Y863333D01*
X536381Y862063D02*
X537651D01*
X535111Y863333D02*
X536381Y862063D01*
X533841D02*
X535111Y863333D01*
X532571Y862063D02*
X533841D01*
X1264190Y599730D02*
Y601000D01*
X1265460Y602270D01*
X1264190Y603540D02*
X1265460Y602270D01*
X1264190Y603540D02*
Y604810D01*
X1265460D01*
X1266730Y603540D01*
X1268000Y604810D01*
X1269270D01*
Y603540D02*
Y604810D01*
X1268000Y602270D02*
X1269270Y603540D01*
X1268000Y602270D02*
X1269270Y601000D01*
Y599730D02*
Y601000D01*
X1268000Y599730D02*
X1269270D01*
X1266730Y601000D02*
X1268000Y599730D01*
X1265460D02*
X1266730Y601000D01*
X1264190Y599730D02*
X1265460D01*
X1234460Y570460D02*
Y571730D01*
X1235730Y573000D01*
X1234460Y574270D02*
X1235730Y573000D01*
X1234460Y574270D02*
Y575540D01*
X1235730D01*
X1237000Y574270D01*
X1238270Y575540D01*
X1239540D01*
Y574270D02*
Y575540D01*
X1238270Y573000D02*
X1239540Y574270D01*
X1238270Y573000D02*
X1239540Y571730D01*
Y570460D02*
Y571730D01*
X1238270Y570460D02*
X1239540D01*
X1237000Y571730D02*
X1238270Y570460D01*
X1235730D02*
X1237000Y571730D01*
X1234460Y570460D02*
X1235730D01*
X199697Y655960D02*
Y657230D01*
X200967Y658500D01*
X199697Y659770D02*
X200967Y658500D01*
X199697Y659770D02*
Y661040D01*
X200967D01*
X202237Y659770D01*
X203507Y661040D01*
X204777D01*
Y659770D02*
Y661040D01*
X203507Y658500D02*
X204777Y659770D01*
X203507Y658500D02*
X204777Y657230D01*
Y655960D02*
Y657230D01*
X203507Y655960D02*
X204777D01*
X202237Y657230D02*
X203507Y655960D01*
X200967D02*
X202237Y657230D01*
X199697Y655960D02*
X200967D01*
X307697D02*
Y657230D01*
X308967Y658500D01*
X307697Y659770D02*
X308967Y658500D01*
X307697Y659770D02*
Y661040D01*
X308967D01*
X310237Y659770D01*
X311507Y661040D01*
X312777D01*
Y659770D02*
Y661040D01*
X311507Y658500D02*
X312777Y659770D01*
X311507Y658500D02*
X312777Y657230D01*
Y655960D02*
Y657230D01*
X311507Y655960D02*
X312777D01*
X310237Y657230D02*
X311507Y655960D01*
X308967D02*
X310237Y657230D01*
X307697Y655960D02*
X308967D01*
X329697Y716436D02*
Y717706D01*
X330967Y718976D01*
X329697Y720246D02*
X330967Y718976D01*
X329697Y720246D02*
Y721516D01*
X330967D01*
X332237Y720246D01*
X333507Y721516D01*
X334777D01*
Y720246D02*
Y721516D01*
X333507Y718976D02*
X334777Y720246D01*
X333507Y718976D02*
X334777Y717706D01*
Y716436D02*
Y717706D01*
X333507Y716436D02*
X334777D01*
X332237Y717706D02*
X333507Y716436D01*
X330967D02*
X332237Y717706D01*
X329697Y716436D02*
X330967D01*
X1386460Y505960D02*
Y507230D01*
X1387730Y508500D01*
X1386460Y509770D02*
X1387730Y508500D01*
X1386460Y509770D02*
Y511040D01*
X1387730D01*
X1389000Y509770D01*
X1390270Y511040D01*
X1391540D01*
Y509770D02*
Y511040D01*
X1390270Y508500D02*
X1391540Y509770D01*
X1390270Y508500D02*
X1391540Y507230D01*
Y505960D02*
Y507230D01*
X1390270Y505960D02*
X1391540D01*
X1389000Y507230D02*
X1390270Y505960D01*
X1387730D02*
X1389000Y507230D01*
X1386460Y505960D02*
X1387730D01*
X1329960Y505460D02*
Y506730D01*
X1331230Y508000D01*
X1329960Y509270D02*
X1331230Y508000D01*
X1329960Y509270D02*
Y510540D01*
X1331230D01*
X1332500Y509270D01*
X1333770Y510540D01*
X1335040D01*
Y509270D02*
Y510540D01*
X1333770Y508000D02*
X1335040Y509270D01*
X1333770Y508000D02*
X1335040Y506730D01*
Y505460D02*
Y506730D01*
X1333770Y505460D02*
X1335040D01*
X1332500Y506730D02*
X1333770Y505460D01*
X1331230D02*
X1332500Y506730D01*
X1329960Y505460D02*
X1331230D01*
X1330960Y190460D02*
Y191730D01*
X1332230Y193000D01*
X1330960Y194270D02*
X1332230Y193000D01*
X1330960Y194270D02*
Y195540D01*
X1332230D01*
X1333500Y194270D01*
X1334770Y195540D01*
X1336040D01*
Y194270D02*
Y195540D01*
X1334770Y193000D02*
X1336040Y194270D01*
X1334770Y193000D02*
X1336040Y191730D01*
Y190460D02*
Y191730D01*
X1334770Y190460D02*
X1336040D01*
X1333500Y191730D02*
X1334770Y190460D01*
X1332230D02*
X1333500Y191730D01*
X1330960Y190460D02*
X1332230D01*
X1386460Y269960D02*
Y271230D01*
X1387730Y272500D01*
X1386460Y273770D02*
X1387730Y272500D01*
X1386460Y273770D02*
Y275040D01*
X1387730D01*
X1389000Y273770D01*
X1390270Y275040D01*
X1391540D01*
Y273770D02*
Y275040D01*
X1390270Y272500D02*
X1391540Y273770D01*
X1390270Y272500D02*
X1391540Y271230D01*
Y269960D02*
Y271230D01*
X1390270Y269960D02*
X1391540D01*
X1389000Y271230D02*
X1390270Y269960D01*
X1387730D02*
X1389000Y271230D01*
X1386460Y269960D02*
X1387730D01*
X1290460Y204960D02*
Y206230D01*
X1291730Y207500D01*
X1290460Y208770D02*
X1291730Y207500D01*
X1290460Y208770D02*
Y210040D01*
X1291730D01*
X1293000Y208770D01*
X1294270Y210040D01*
X1295540D01*
Y208770D02*
Y210040D01*
X1294270Y207500D02*
X1295540Y208770D01*
X1294270Y207500D02*
X1295540Y206230D01*
Y204960D02*
Y206230D01*
X1294270Y204960D02*
X1295540D01*
X1293000Y206230D02*
X1294270Y204960D01*
X1291730D02*
X1293000Y206230D01*
X1290460Y204960D02*
X1291730D01*
X1430960Y287960D02*
Y289230D01*
X1432230Y290500D01*
X1430960Y291770D02*
X1432230Y290500D01*
X1430960Y291770D02*
Y293040D01*
X1432230D01*
X1433500Y291770D01*
X1434770Y293040D01*
X1436040D01*
Y291770D02*
Y293040D01*
X1434770Y290500D02*
X1436040Y291770D01*
X1434770Y290500D02*
X1436040Y289230D01*
Y287960D02*
Y289230D01*
X1434770Y287960D02*
X1436040D01*
X1433500Y289230D02*
X1434770Y287960D01*
X1432230D02*
X1433500Y289230D01*
X1430960Y287960D02*
X1432230D01*
X1431460Y523960D02*
Y525230D01*
X1432730Y526500D01*
X1431460Y527770D02*
X1432730Y526500D01*
X1431460Y527770D02*
Y529040D01*
X1432730D01*
X1434000Y527770D01*
X1435270Y529040D01*
X1436540D01*
Y527770D02*
Y529040D01*
X1435270Y526500D02*
X1436540Y527770D01*
X1435270Y526500D02*
X1436540Y525230D01*
Y523960D02*
Y525230D01*
X1435270Y523960D02*
X1436540D01*
X1434000Y525230D02*
X1435270Y523960D01*
X1432730D02*
X1434000Y525230D01*
X1431460Y523960D02*
X1432730D01*
X654460Y263715D02*
Y264985D01*
X655730Y266255D01*
X654460Y267525D02*
X655730Y266255D01*
X654460Y267525D02*
Y268795D01*
X655730D01*
X657000Y267525D01*
X658270Y268795D01*
X659540D01*
Y267525D02*
Y268795D01*
X658270Y266255D02*
X659540Y267525D01*
X658270Y266255D02*
X659540Y264985D01*
Y263715D02*
Y264985D01*
X658270Y263715D02*
X659540D01*
X657000Y264985D02*
X658270Y263715D01*
X655730D02*
X657000Y264985D01*
X654460Y263715D02*
X655730D01*
X285460Y793460D02*
Y794730D01*
X286730Y796000D01*
X285460Y797270D02*
X286730Y796000D01*
X285460Y797270D02*
Y798540D01*
X286730D01*
X288000Y797270D01*
X289270Y798540D01*
X290540D01*
Y797270D02*
Y798540D01*
X289270Y796000D02*
X290540Y797270D01*
X289270Y796000D02*
X290540Y794730D01*
Y793460D02*
Y794730D01*
X289270Y793460D02*
X290540D01*
X288000Y794730D02*
X289270Y793460D01*
X286730D02*
X288000Y794730D01*
X285460Y793460D02*
X286730D01*
X308460Y855936D02*
Y857206D01*
X309730Y858476D01*
X308460Y859746D02*
X309730Y858476D01*
X308460Y859746D02*
Y861016D01*
X309730D01*
X311000Y859746D01*
X312270Y861016D01*
X313540D01*
Y859746D02*
Y861016D01*
X312270Y858476D02*
X313540Y859746D01*
X312270Y858476D02*
X313540Y857206D01*
Y855936D02*
Y857206D01*
X312270Y855936D02*
X313540D01*
X311000Y857206D02*
X312270Y855936D01*
X309730D02*
X311000Y857206D01*
X308460Y855936D02*
X309730D01*
X173460Y794460D02*
Y795730D01*
X174730Y797000D01*
X173460Y798270D02*
X174730Y797000D01*
X173460Y798270D02*
Y799540D01*
X174730D01*
X176000Y798270D01*
X177270Y799540D01*
X178540D01*
Y798270D02*
Y799540D01*
X177270Y797000D02*
X178540Y798270D01*
X177270Y797000D02*
X178540Y795730D01*
Y794460D02*
Y795730D01*
X177270Y794460D02*
X178540D01*
X176000Y795730D02*
X177270Y794460D01*
X174730D02*
X176000Y795730D01*
X173460Y794460D02*
X174730D01*
X171460Y840936D02*
Y842206D01*
X172730Y843476D01*
X171460Y844746D02*
X172730Y843476D01*
X171460Y844746D02*
Y846016D01*
X172730D01*
X174000Y844746D01*
X175270Y846016D01*
X176540D01*
Y844746D02*
Y846016D01*
X175270Y843476D02*
X176540Y844746D01*
X175270Y843476D02*
X176540Y842206D01*
Y840936D02*
Y842206D01*
X175270Y840936D02*
X176540D01*
X174000Y842206D02*
X175270Y840936D01*
X172730D02*
X174000Y842206D01*
X171460Y840936D02*
X172730D01*
X455460Y465460D02*
Y466730D01*
X456730Y468000D01*
X455460Y469270D02*
X456730Y468000D01*
X455460Y469270D02*
Y470540D01*
X456730D01*
X458000Y469270D01*
X459270Y470540D01*
X460540D01*
Y469270D02*
Y470540D01*
X459270Y468000D02*
X460540Y469270D01*
X459270Y468000D02*
X460540Y466730D01*
Y465460D02*
Y466730D01*
X459270Y465460D02*
X460540D01*
X458000Y466730D02*
X459270Y465460D01*
X456730D02*
X458000Y466730D01*
X455460Y465460D02*
X456730D01*
X474460Y450460D02*
Y451730D01*
X475730Y453000D01*
X474460Y454270D02*
X475730Y453000D01*
X474460Y454270D02*
Y455540D01*
X475730D01*
X477000Y454270D01*
X478270Y455540D01*
X479540D01*
Y454270D02*
Y455540D01*
X478270Y453000D02*
X479540Y454270D01*
X478270Y453000D02*
X479540Y451730D01*
Y450460D02*
Y451730D01*
X478270Y450460D02*
X479540D01*
X477000Y451730D02*
X478270Y450460D01*
X475730D02*
X477000Y451730D01*
X474460Y450460D02*
X475730D01*
X474460Y422460D02*
Y423730D01*
X475730Y425000D01*
X474460Y426270D02*
X475730Y425000D01*
X474460Y426270D02*
Y427540D01*
X475730D01*
X477000Y426270D01*
X478270Y427540D01*
X479540D01*
Y426270D02*
Y427540D01*
X478270Y425000D02*
X479540Y426270D01*
X478270Y425000D02*
X479540Y423730D01*
Y422460D02*
Y423730D01*
X478270Y422460D02*
X479540D01*
X477000Y423730D02*
X478270Y422460D01*
X475730D02*
X477000Y423730D01*
X474460Y422460D02*
X475730D01*
X270460Y481460D02*
Y482730D01*
X271730Y484000D01*
X270460Y485270D02*
X271730Y484000D01*
X270460Y485270D02*
Y486540D01*
X271730D01*
X273000Y485270D01*
X274270Y486540D01*
X275540D01*
Y485270D02*
Y486540D01*
X274270Y484000D02*
X275540Y485270D01*
X274270Y484000D02*
X275540Y482730D01*
Y481460D02*
Y482730D01*
X274270Y481460D02*
X275540D01*
X273000Y482730D02*
X274270Y481460D01*
X271730D02*
X273000Y482730D01*
X270460Y481460D02*
X271730D01*
X255460Y509460D02*
Y510730D01*
X256730Y512000D01*
X255460Y513270D02*
X256730Y512000D01*
X255460Y513270D02*
Y514540D01*
X256730D01*
X258000Y513270D01*
X259270Y514540D01*
X260540D01*
Y513270D02*
Y514540D01*
X259270Y512000D02*
X260540Y513270D01*
X259270Y512000D02*
X260540Y510730D01*
Y509460D02*
Y510730D01*
X259270Y509460D02*
X260540D01*
X258000Y510730D02*
X259270Y509460D01*
X256730D02*
X258000Y510730D01*
X255460Y509460D02*
X256730D01*
X404460Y380460D02*
Y381730D01*
X405730Y383000D01*
X404460Y384270D02*
X405730Y383000D01*
X404460Y384270D02*
Y385540D01*
X405730D01*
X407000Y384270D01*
X408270Y385540D01*
X409540D01*
Y384270D02*
Y385540D01*
X408270Y383000D02*
X409540Y384270D01*
X408270Y383000D02*
X409540Y381730D01*
Y380460D02*
Y381730D01*
X408270Y380460D02*
X409540D01*
X407000Y381730D02*
X408270Y380460D01*
X405730D02*
X407000Y381730D01*
X404460Y380460D02*
X405730D01*
X402460Y314460D02*
Y315730D01*
X403730Y317000D01*
X402460Y318270D02*
X403730Y317000D01*
X402460Y318270D02*
Y319540D01*
X403730D01*
X405000Y318270D01*
X406270Y319540D01*
X407540D01*
Y318270D02*
Y319540D01*
X406270Y317000D02*
X407540Y318270D01*
X406270Y317000D02*
X407540Y315730D01*
Y314460D02*
Y315730D01*
X406270Y314460D02*
X407540D01*
X405000Y315730D02*
X406270Y314460D01*
X403730D02*
X405000Y315730D01*
X402460Y314460D02*
X403730D01*
X460460Y203460D02*
Y204730D01*
X461730Y206000D01*
X460460Y207270D02*
X461730Y206000D01*
X460460Y207270D02*
Y208540D01*
X461730D01*
X463000Y207270D01*
X464270Y208540D01*
X465540D01*
Y207270D02*
Y208540D01*
X464270Y206000D02*
X465540Y207270D01*
X464270Y206000D02*
X465540Y204730D01*
Y203460D02*
Y204730D01*
X464270Y203460D02*
X465540D01*
X463000Y204730D02*
X464270Y203460D01*
X461730D02*
X463000Y204730D01*
X460460Y203460D02*
X461730D01*
X390460Y190460D02*
Y191730D01*
X391730Y193000D01*
X390460Y194270D02*
X391730Y193000D01*
X390460Y194270D02*
Y195540D01*
X391730D01*
X393000Y194270D01*
X394270Y195540D01*
X395540D01*
Y194270D02*
Y195540D01*
X394270Y193000D02*
X395540Y194270D01*
X394270Y193000D02*
X395540Y191730D01*
Y190460D02*
Y191730D01*
X394270Y190460D02*
X395540D01*
X393000Y191730D02*
X394270Y190460D01*
X391730D02*
X393000Y191730D01*
X390460Y190460D02*
X391730D01*
X263460D02*
Y191730D01*
X264730Y193000D01*
X263460Y194270D02*
X264730Y193000D01*
X263460Y194270D02*
Y195540D01*
X264730D01*
X266000Y194270D01*
X267270Y195540D01*
X268540D01*
Y194270D02*
Y195540D01*
X267270Y193000D02*
X268540Y194270D01*
X267270Y193000D02*
X268540Y191730D01*
Y190460D02*
Y191730D01*
X267270Y190460D02*
X268540D01*
X266000Y191730D02*
X267270Y190460D01*
X264730D02*
X266000Y191730D01*
X263460Y190460D02*
X264730D01*
X1399176Y593891D02*
Y595161D01*
X1400446Y596431D01*
X1399176Y597701D02*
X1400446Y596431D01*
X1399176Y597701D02*
Y598971D01*
X1400446D01*
X1401716Y597701D01*
X1402986Y598971D01*
X1404256D01*
Y597701D02*
Y598971D01*
X1402986Y596431D02*
X1404256Y597701D01*
X1402986Y596431D02*
X1404256Y595161D01*
Y593891D02*
Y595161D01*
X1402986Y593891D02*
X1404256D01*
X1401716Y595161D02*
X1402986Y593891D01*
X1400446D02*
X1401716Y595161D01*
X1399176Y593891D02*
X1400446D01*
X512460Y565460D02*
Y566730D01*
X513730Y568000D01*
X512460Y569270D02*
X513730Y568000D01*
X512460Y569270D02*
Y570540D01*
X513730D01*
X515000Y569270D01*
X516270Y570540D01*
X517540D01*
Y569270D02*
Y570540D01*
X516270Y568000D02*
X517540Y569270D01*
X516270Y568000D02*
X517540Y566730D01*
Y565460D02*
Y566730D01*
X516270Y565460D02*
X517540D01*
X515000Y566730D02*
X516270Y565460D01*
X513730D02*
X515000Y566730D01*
X512460Y565460D02*
X513730D01*
X490460Y566460D02*
Y567730D01*
X491730Y569000D01*
X490460Y570270D02*
X491730Y569000D01*
X490460Y570270D02*
Y571540D01*
X491730D01*
X493000Y570270D01*
X494270Y571540D01*
X495540D01*
Y570270D02*
Y571540D01*
X494270Y569000D02*
X495540Y570270D01*
X494270Y569000D02*
X495540Y567730D01*
Y566460D02*
Y567730D01*
X494270Y566460D02*
X495540D01*
X493000Y567730D02*
X494270Y566460D01*
X491730D02*
X493000Y567730D01*
X490460Y566460D02*
X491730D01*
X562460Y422460D02*
Y423730D01*
X563730Y425000D01*
X562460Y426270D02*
X563730Y425000D01*
X562460Y426270D02*
Y427540D01*
X563730D01*
X565000Y426270D01*
X566270Y427540D01*
X567540D01*
Y426270D02*
Y427540D01*
X566270Y425000D02*
X567540Y426270D01*
X566270Y425000D02*
X567540Y423730D01*
Y422460D02*
Y423730D01*
X566270Y422460D02*
X567540D01*
X565000Y423730D02*
X566270Y422460D01*
X563730D02*
X565000Y423730D01*
X562460Y422460D02*
X563730D01*
X589960Y484960D02*
Y486230D01*
X591230Y487500D01*
X589960Y488770D02*
X591230Y487500D01*
X589960Y488770D02*
Y490040D01*
X591230D01*
X592500Y488770D01*
X593770Y490040D01*
X595040D01*
Y488770D02*
Y490040D01*
X593770Y487500D02*
X595040Y488770D01*
X593770Y487500D02*
X595040Y486230D01*
Y484960D02*
Y486230D01*
X593770Y484960D02*
X595040D01*
X592500Y486230D02*
X593770Y484960D01*
X591230D02*
X592500Y486230D01*
X589960Y484960D02*
X591230D01*
X702460Y343460D02*
Y344730D01*
X703730Y346000D01*
X702460Y347270D02*
X703730Y346000D01*
X702460Y347270D02*
Y348540D01*
X703730D01*
X705000Y347270D01*
X706270Y348540D01*
X707540D01*
Y347270D02*
Y348540D01*
X706270Y346000D02*
X707540Y347270D01*
X706270Y346000D02*
X707540Y344730D01*
Y343460D02*
Y344730D01*
X706270Y343460D02*
X707540D01*
X705000Y344730D02*
X706270Y343460D01*
X703730D02*
X705000Y344730D01*
X702460Y343460D02*
X703730D01*
X624460Y461460D02*
Y462730D01*
X625730Y464000D01*
X624460Y465270D02*
X625730Y464000D01*
X624460Y465270D02*
Y466540D01*
X625730D01*
X627000Y465270D01*
X628270Y466540D01*
X629540D01*
Y465270D02*
Y466540D01*
X628270Y464000D02*
X629540Y465270D01*
X628270Y464000D02*
X629540Y462730D01*
Y461460D02*
Y462730D01*
X628270Y461460D02*
X629540D01*
X627000Y462730D02*
X628270Y461460D01*
X625730D02*
X627000Y462730D01*
X624460Y461460D02*
X625730D01*
X624460Y382460D02*
Y383730D01*
X625730Y385000D01*
X624460Y386270D02*
X625730Y385000D01*
X624460Y386270D02*
Y387540D01*
X625730D01*
X627000Y386270D01*
X628270Y387540D01*
X629540D01*
Y386270D02*
Y387540D01*
X628270Y385000D02*
X629540Y386270D01*
X628270Y385000D02*
X629540Y383730D01*
Y382460D02*
Y383730D01*
X628270Y382460D02*
X629540D01*
X627000Y383730D02*
X628270Y382460D01*
X625730D02*
X627000Y383730D01*
X624460Y382460D02*
X625730D01*
X696460Y366460D02*
Y367730D01*
X697730Y369000D01*
X696460Y370270D02*
X697730Y369000D01*
X696460Y370270D02*
Y371540D01*
X697730D01*
X699000Y370270D01*
X700270Y371540D01*
X701540D01*
Y370270D02*
Y371540D01*
X700270Y369000D02*
X701540Y370270D01*
X700270Y369000D02*
X701540Y367730D01*
Y366460D02*
Y367730D01*
X700270Y366460D02*
X701540D01*
X699000Y367730D02*
X700270Y366460D01*
X697730D02*
X699000Y367730D01*
X696460Y366460D02*
X697730D01*
X688460Y484460D02*
Y485730D01*
X689730Y487000D01*
X688460Y488270D02*
X689730Y487000D01*
X688460Y488270D02*
Y489540D01*
X689730D01*
X691000Y488270D01*
X692270Y489540D01*
X693540D01*
Y488270D02*
Y489540D01*
X692270Y487000D02*
X693540Y488270D01*
X692270Y487000D02*
X693540Y485730D01*
Y484460D02*
Y485730D01*
X692270Y484460D02*
X693540D01*
X691000Y485730D02*
X692270Y484460D01*
X689730D02*
X691000Y485730D01*
X688460Y484460D02*
X689730D01*
X733460Y465960D02*
Y467230D01*
X734730Y468500D01*
X733460Y469770D02*
X734730Y468500D01*
X733460Y469770D02*
Y471040D01*
X734730D01*
X736000Y469770D01*
X737270Y471040D01*
X738540D01*
Y469770D02*
Y471040D01*
X737270Y468500D02*
X738540Y469770D01*
X737270Y468500D02*
X738540Y467230D01*
Y465960D02*
Y467230D01*
X737270Y465960D02*
X738540D01*
X736000Y467230D02*
X737270Y465960D01*
X734730D02*
X736000Y467230D01*
X733460Y465960D02*
X734730D01*
X654460Y206715D02*
Y207985D01*
X655730Y209255D01*
X654460Y210525D02*
X655730Y209255D01*
X654460Y210525D02*
Y211795D01*
X655730D01*
X657000Y210525D01*
X658270Y211795D01*
X659540D01*
Y210525D02*
Y211795D01*
X658270Y209255D02*
X659540Y210525D01*
X658270Y209255D02*
X659540Y207985D01*
Y206715D02*
Y207985D01*
X658270Y206715D02*
X659540D01*
X657000Y207985D02*
X658270Y206715D01*
X655730D02*
X657000Y207985D01*
X654460Y206715D02*
X655730D01*
X196697Y701435D02*
Y702706D01*
X197967Y703976D01*
X196697Y705246D02*
X197967Y703976D01*
X196697Y705246D02*
Y706516D01*
X197967D01*
X199237Y705246D01*
X200507Y706516D01*
X201777D01*
Y705246D02*
Y706516D01*
X200507Y703976D02*
X201777Y705246D01*
X200507Y703976D02*
X201777Y702706D01*
Y701435D02*
Y702706D01*
X200507Y701435D02*
X201777D01*
X199237Y702706D02*
X200507Y701435D01*
X197967D02*
X199237Y702706D01*
X196697Y701435D02*
X197967D01*
X748460Y593460D02*
Y594730D01*
X749730Y596000D01*
X748460Y597270D02*
X749730Y596000D01*
X748460Y597270D02*
Y598540D01*
X749730D01*
X751000Y597270D01*
X752270Y598540D01*
X753540D01*
Y597270D02*
Y598540D01*
X752270Y596000D02*
X753540Y597270D01*
X752270Y596000D02*
X753540Y594730D01*
Y593460D02*
Y594730D01*
X752270Y593460D02*
X753540D01*
X751000Y594730D02*
X752270Y593460D01*
X749730D02*
X751000Y594730D01*
X748460Y593460D02*
X749730D01*
X748460Y537460D02*
Y538730D01*
X749730Y540000D01*
X748460Y541270D02*
X749730Y540000D01*
X748460Y541270D02*
Y542540D01*
X749730D01*
X751000Y541270D01*
X752270Y542540D01*
X753540D01*
Y541270D02*
Y542540D01*
X752270Y540000D02*
X753540Y541270D01*
X752270Y540000D02*
X753540Y538730D01*
Y537460D02*
Y538730D01*
X752270Y537460D02*
X753540D01*
X751000Y538730D02*
X752270Y537460D01*
X749730D02*
X751000Y538730D01*
X748460Y537460D02*
X749730D01*
X832460Y348460D02*
Y349730D01*
X833730Y351000D01*
X832460Y352270D02*
X833730Y351000D01*
X832460Y352270D02*
Y353540D01*
X833730D01*
X835000Y352270D01*
X836270Y353540D01*
X837540D01*
Y352270D02*
Y353540D01*
X836270Y351000D02*
X837540Y352270D01*
X836270Y351000D02*
X837540Y349730D01*
Y348460D02*
Y349730D01*
X836270Y348460D02*
X837540D01*
X835000Y349730D02*
X836270Y348460D01*
X833730D02*
X835000Y349730D01*
X832460Y348460D02*
X833730D01*
X1425960Y402960D02*
Y404230D01*
X1427230Y405500D01*
X1425960Y406770D02*
X1427230Y405500D01*
X1425960Y406770D02*
Y408040D01*
X1427230D01*
X1428500Y406770D01*
X1429770Y408040D01*
X1431040D01*
Y406770D02*
Y408040D01*
X1429770Y405500D02*
X1431040Y406770D01*
X1429770Y405500D02*
X1431040Y404230D01*
Y402960D02*
Y404230D01*
X1429770Y402960D02*
X1431040D01*
X1428500Y404230D02*
X1429770Y402960D01*
X1427230D02*
X1428500Y404230D01*
X1425960Y402960D02*
X1427230D01*
X1386960Y384960D02*
Y386230D01*
X1388230Y387500D01*
X1386960Y388770D02*
X1388230Y387500D01*
X1386960Y388770D02*
Y390040D01*
X1388230D01*
X1389500Y388770D01*
X1390770Y390040D01*
X1392040D01*
Y388770D02*
Y390040D01*
X1390770Y387500D02*
X1392040Y388770D01*
X1390770Y387500D02*
X1392040Y386230D01*
Y384960D02*
Y386230D01*
X1390770Y384960D02*
X1392040D01*
X1389500Y386230D02*
X1390770Y384960D01*
X1388230D02*
X1389500Y386230D01*
X1386960Y384960D02*
X1388230D01*
X1329960Y305960D02*
Y307230D01*
X1331230Y308500D01*
X1329960Y309770D02*
X1331230Y308500D01*
X1329960Y309770D02*
Y311040D01*
X1331230D01*
X1332500Y309770D01*
X1333770Y311040D01*
X1335040D01*
Y309770D02*
Y311040D01*
X1333770Y308500D02*
X1335040Y309770D01*
X1333770Y308500D02*
X1335040Y307230D01*
Y305960D02*
Y307230D01*
X1333770Y305960D02*
X1335040D01*
X1332500Y307230D02*
X1333770Y305960D01*
X1331230D02*
X1332500Y307230D01*
X1329960Y305960D02*
X1331230D01*
X724460Y100460D02*
Y101730D01*
X725730Y103000D01*
X724460Y104270D02*
X725730Y103000D01*
X724460Y104270D02*
Y105540D01*
X725730D01*
X727000Y104270D01*
X728270Y105540D01*
X729540D01*
Y104270D02*
Y105540D01*
X728270Y103000D02*
X729540Y104270D01*
X728270Y103000D02*
X729540Y101730D01*
Y100460D02*
Y101730D01*
X728270Y100460D02*
X729540D01*
X727000Y101730D02*
X728270Y100460D01*
X725730D02*
X727000Y101730D01*
X724460Y100460D02*
X725730D01*
X948960Y112960D02*
Y114230D01*
X950230Y115500D01*
X948960Y116770D02*
X950230Y115500D01*
X948960Y116770D02*
Y118040D01*
X950230D01*
X951500Y116770D01*
X952770Y118040D01*
X954040D01*
Y116770D02*
Y118040D01*
X952770Y115500D02*
X954040Y116770D01*
X952770Y115500D02*
X954040Y114230D01*
Y112960D02*
Y114230D01*
X952770Y112960D02*
X954040D01*
X951500Y114230D02*
X952770Y112960D01*
X950230D02*
X951500Y114230D01*
X948960Y112960D02*
X950230D01*
X948960Y58960D02*
Y60230D01*
X950230Y61500D01*
X948960Y62770D02*
X950230Y61500D01*
X948960Y62770D02*
Y64040D01*
X950230D01*
X951500Y62770D01*
X952770Y64040D01*
X954040D01*
Y62770D02*
Y64040D01*
X952770Y61500D02*
X954040Y62770D01*
X952770Y61500D02*
X954040Y60230D01*
Y58960D02*
Y60230D01*
X952770Y58960D02*
X954040D01*
X951500Y60230D02*
X952770Y58960D01*
X950230D02*
X951500Y60230D01*
X948960Y58960D02*
X950230D01*
X909460Y184460D02*
Y185730D01*
X910730Y187000D01*
X909460Y188270D02*
X910730Y187000D01*
X909460Y188270D02*
Y189540D01*
X910730D01*
X912000Y188270D01*
X913270Y189540D01*
X914540D01*
Y188270D02*
Y189540D01*
X913270Y187000D02*
X914540Y188270D01*
X913270Y187000D02*
X914540Y185730D01*
Y184460D02*
Y185730D01*
X913270Y184460D02*
X914540D01*
X912000Y185730D02*
X913270Y184460D01*
X910730D02*
X912000Y185730D01*
X909460Y184460D02*
X910730D01*
X948460Y139960D02*
Y141230D01*
X949730Y142500D01*
X948460Y143770D02*
X949730Y142500D01*
X948460Y143770D02*
Y145040D01*
X949730D01*
X951000Y143770D01*
X952270Y145040D01*
X953540D01*
Y143770D02*
Y145040D01*
X952270Y142500D02*
X953540Y143770D01*
X952270Y142500D02*
X953540Y141230D01*
Y139960D02*
Y141230D01*
X952270Y139960D02*
X953540D01*
X951000Y141230D02*
X952270Y139960D01*
X949730D02*
X951000Y141230D01*
X948460Y139960D02*
X949730D01*
X1008460Y172460D02*
Y173730D01*
X1009730Y175000D01*
X1008460Y176270D02*
X1009730Y175000D01*
X1008460Y176270D02*
Y177540D01*
X1009730D01*
X1011000Y176270D01*
X1012270Y177540D01*
X1013540D01*
Y176270D02*
Y177540D01*
X1012270Y175000D02*
X1013540Y176270D01*
X1012270Y175000D02*
X1013540Y173730D01*
Y172460D02*
Y173730D01*
X1012270Y172460D02*
X1013540D01*
X1011000Y173730D02*
X1012270Y172460D01*
X1009730D02*
X1011000Y173730D01*
X1008460Y172460D02*
X1009730D01*
X980460Y190460D02*
Y191730D01*
X981730Y193000D01*
X980460Y194270D02*
X981730Y193000D01*
X980460Y194270D02*
Y195540D01*
X981730D01*
X983000Y194270D01*
X984270Y195540D01*
X985540D01*
Y194270D02*
Y195540D01*
X984270Y193000D02*
X985540Y194270D01*
X984270Y193000D02*
X985540Y191730D01*
Y190460D02*
Y191730D01*
X984270Y190460D02*
X985540D01*
X983000Y191730D02*
X984270Y190460D01*
X981730D02*
X983000Y191730D01*
X980460Y190460D02*
X981730D01*
X1409460Y319460D02*
Y320730D01*
X1410730Y322000D01*
X1409460Y323270D02*
X1410730Y322000D01*
X1409460Y323270D02*
Y324540D01*
X1410730D01*
X1412000Y323270D01*
X1413270Y324540D01*
X1414540D01*
Y323270D02*
Y324540D01*
X1413270Y322000D02*
X1414540Y323270D01*
X1413270Y322000D02*
X1414540Y320730D01*
Y319460D02*
Y320730D01*
X1413270Y319460D02*
X1414540D01*
X1412000Y320730D02*
X1413270Y319460D01*
X1410730D02*
X1412000Y320730D01*
X1409460Y319460D02*
X1410730D01*
X1409139Y439362D02*
Y440633D01*
X1410409Y441903D01*
X1409139Y443172D02*
X1410409Y441903D01*
X1409139Y443172D02*
Y444442D01*
X1410409D01*
X1411679Y443172D01*
X1412949Y444442D01*
X1414219D01*
Y443172D02*
Y444442D01*
X1412949Y441903D02*
X1414219Y443172D01*
X1412949Y441903D02*
X1414219Y440633D01*
Y439362D02*
Y440633D01*
X1412949Y439362D02*
X1414219D01*
X1411679Y440633D02*
X1412949Y439362D01*
X1410409D02*
X1411679Y440633D01*
X1409139Y439362D02*
X1410409D01*
X1328460Y269960D02*
Y271230D01*
X1329730Y272500D01*
X1328460Y273770D02*
X1329730Y272500D01*
X1328460Y273770D02*
Y275040D01*
X1329730D01*
X1331000Y273770D01*
X1332270Y275040D01*
X1333540D01*
Y273770D02*
Y275040D01*
X1332270Y272500D02*
X1333540Y273770D01*
X1332270Y272500D02*
X1333540Y271230D01*
Y269960D02*
Y271230D01*
X1332270Y269960D02*
X1333540D01*
X1331000Y271230D02*
X1332270Y269960D01*
X1329730D02*
X1331000Y271230D01*
X1328460Y269960D02*
X1329730D01*
X1329960Y426460D02*
Y427730D01*
X1331230Y429000D01*
X1329960Y430270D02*
X1331230Y429000D01*
X1329960Y430270D02*
Y431540D01*
X1331230D01*
X1332500Y430270D01*
X1333770Y431540D01*
X1335040D01*
Y430270D02*
Y431540D01*
X1333770Y429000D02*
X1335040Y430270D01*
X1333770Y429000D02*
X1335040Y427730D01*
Y426460D02*
Y427730D01*
X1333770Y426460D02*
X1335040D01*
X1332500Y427730D02*
X1333770Y426460D01*
X1331230D02*
X1332500Y427730D01*
X1329960Y426460D02*
X1331230D01*
X1329960Y383960D02*
Y385230D01*
X1331230Y386500D01*
X1329960Y387770D02*
X1331230Y386500D01*
X1329960Y387770D02*
Y389040D01*
X1331230D01*
X1332500Y387770D01*
X1333770Y389040D01*
X1335040D01*
Y387770D02*
Y389040D01*
X1333770Y386500D02*
X1335040Y387770D01*
X1333770Y386500D02*
X1335040Y385230D01*
Y383960D02*
Y385230D01*
X1333770Y383960D02*
X1335040D01*
X1332500Y385230D02*
X1333770Y383960D01*
X1331230D02*
X1332500Y385230D01*
X1329960Y383960D02*
X1331230D01*
X1289960Y319960D02*
Y321230D01*
X1291230Y322500D01*
X1289960Y323770D02*
X1291230Y322500D01*
X1289960Y323770D02*
Y325040D01*
X1291230D01*
X1292500Y323770D01*
X1293770Y325040D01*
X1295040D01*
Y323770D02*
Y325040D01*
X1293770Y322500D02*
X1295040Y323770D01*
X1293770Y322500D02*
X1295040Y321230D01*
Y319960D02*
Y321230D01*
X1293770Y319960D02*
X1295040D01*
X1292500Y321230D02*
X1293770Y319960D01*
X1291230D02*
X1292500Y321230D01*
X1289960Y319960D02*
X1291230D01*
X1120460Y38460D02*
Y39730D01*
X1121730Y41000D01*
X1120460Y42270D02*
X1121730Y41000D01*
X1120460Y42270D02*
Y43540D01*
X1121730D01*
X1123000Y42270D01*
X1124270Y43540D01*
X1125540D01*
Y42270D02*
Y43540D01*
X1124270Y41000D02*
X1125540Y42270D01*
X1124270Y41000D02*
X1125540Y39730D01*
Y38460D02*
Y39730D01*
X1124270Y38460D02*
X1125540D01*
X1123000Y39730D02*
X1124270Y38460D01*
X1121730D02*
X1123000Y39730D01*
X1120460Y38460D02*
X1121730D01*
X1088460Y165460D02*
Y166730D01*
X1089730Y168000D01*
X1088460Y169270D02*
X1089730Y168000D01*
X1088460Y169270D02*
Y170540D01*
X1089730D01*
X1091000Y169270D01*
X1092270Y170540D01*
X1093540D01*
Y169270D02*
Y170540D01*
X1092270Y168000D02*
X1093540Y169270D01*
X1092270Y168000D02*
X1093540Y166730D01*
Y165460D02*
Y166730D01*
X1092270Y165460D02*
X1093540D01*
X1091000Y166730D02*
X1092270Y165460D01*
X1089730D02*
X1091000Y166730D01*
X1088460Y165460D02*
X1089730D01*
X1409460Y205460D02*
Y206730D01*
X1410730Y208000D01*
X1409460Y209270D02*
X1410730Y208000D01*
X1409460Y209270D02*
Y210540D01*
X1410730D01*
X1412000Y209270D01*
X1413270Y210540D01*
X1414540D01*
Y209270D02*
Y210540D01*
X1413270Y208000D02*
X1414540Y209270D01*
X1413270Y208000D02*
X1414540Y206730D01*
Y205460D02*
Y206730D01*
X1413270Y205460D02*
X1414540D01*
X1412000Y206730D02*
X1413270Y205460D01*
X1410730D02*
X1412000Y206730D01*
X1409460Y205460D02*
X1410730D01*
X1085460Y147460D02*
Y148730D01*
X1086730Y150000D01*
X1085460Y151270D02*
X1086730Y150000D01*
X1085460Y151270D02*
Y152540D01*
X1086730D01*
X1088000Y151270D01*
X1089270Y152540D01*
X1090540D01*
Y151270D02*
Y152540D01*
X1089270Y150000D02*
X1090540Y151270D01*
X1089270Y150000D02*
X1090540Y148730D01*
Y147460D02*
Y148730D01*
X1089270Y147460D02*
X1090540D01*
X1088000Y148730D02*
X1089270Y147460D01*
X1086730D02*
X1088000Y148730D01*
X1085460Y147460D02*
X1086730D01*
X1288460Y440960D02*
Y442230D01*
X1289730Y443500D01*
X1288460Y444770D02*
X1289730Y443500D01*
X1288460Y444770D02*
Y446040D01*
X1289730D01*
X1291000Y444770D01*
X1292270Y446040D01*
X1293540D01*
Y444770D02*
Y446040D01*
X1292270Y443500D02*
X1293540Y444770D01*
X1292270Y443500D02*
X1293540Y442230D01*
Y440960D02*
Y442230D01*
X1292270Y440960D02*
X1293540D01*
X1291000Y442230D02*
X1292270Y440960D01*
X1289730D02*
X1291000Y442230D01*
X1288460Y440960D02*
X1289730D01*
X1421460Y562460D02*
Y563730D01*
X1422730Y565000D01*
X1421460Y566270D02*
X1422730Y565000D01*
X1421460Y566270D02*
Y567540D01*
X1422730D01*
X1424000Y566270D01*
X1425270Y567540D01*
X1426540D01*
Y566270D02*
Y567540D01*
X1425270Y565000D02*
X1426540Y566270D01*
X1425270Y565000D02*
X1426540Y563730D01*
Y562460D02*
Y563730D01*
X1425270Y562460D02*
X1426540D01*
X1424000Y563730D02*
X1425270Y562460D01*
X1422730D02*
X1424000Y563730D01*
X1421460Y562460D02*
X1422730D01*
X1315460Y576460D02*
Y577730D01*
X1316730Y579000D01*
X1315460Y580270D02*
X1316730Y579000D01*
X1315460Y580270D02*
Y581540D01*
X1316730D01*
X1318000Y580270D01*
X1319270Y581540D01*
X1320540D01*
Y580270D02*
Y581540D01*
X1319270Y579000D02*
X1320540Y580270D01*
X1319270Y579000D02*
X1320540Y577730D01*
Y576460D02*
Y577730D01*
X1319270Y576460D02*
X1320540D01*
X1318000Y577730D02*
X1319270Y576460D01*
X1316730D02*
X1318000Y577730D01*
X1315460Y576460D02*
X1316730D01*
X1052460Y92460D02*
Y93730D01*
X1053730Y95000D01*
X1052460Y96270D02*
X1053730Y95000D01*
X1052460Y96270D02*
Y97540D01*
X1053730D01*
X1055000Y96270D01*
X1056270Y97540D01*
X1057540D01*
Y96270D02*
Y97540D01*
X1056270Y95000D02*
X1057540Y96270D01*
X1056270Y95000D02*
X1057540Y93730D01*
Y92460D02*
Y93730D01*
X1056270Y92460D02*
X1057540D01*
X1055000Y93730D02*
X1056270Y92460D01*
X1053730D02*
X1055000Y93730D01*
X1052460Y92460D02*
X1053730D01*
X127460Y417460D02*
Y418730D01*
X128730Y420000D01*
X127460Y421270D02*
X128730Y420000D01*
X127460Y421270D02*
Y422540D01*
X128730D01*
X130000Y421270D01*
X131270Y422540D01*
X132540D01*
Y421270D02*
Y422540D01*
X131270Y420000D02*
X132540Y421270D01*
X131270Y420000D02*
X132540Y418730D01*
Y417460D02*
Y418730D01*
X131270Y417460D02*
X132540D01*
X130000Y418730D02*
X131270Y417460D01*
X128730D02*
X130000Y418730D01*
X127460Y417460D02*
X128730D01*
X127460Y544960D02*
Y546230D01*
X128730Y547500D01*
X127460Y548770D02*
X128730Y547500D01*
X127460Y548770D02*
Y550040D01*
X128730D01*
X130000Y548770D01*
X131270Y550040D01*
X132540D01*
Y548770D02*
Y550040D01*
X131270Y547500D02*
X132540Y548770D01*
X131270Y547500D02*
X132540Y546230D01*
Y544960D02*
Y546230D01*
X131270Y544960D02*
X132540D01*
X130000Y546230D02*
X131270Y544960D01*
X128730D02*
X130000Y546230D01*
X127460Y544960D02*
X128730D01*
X1357460Y622460D02*
Y623730D01*
X1358730Y625000D01*
X1357460Y626270D02*
X1358730Y625000D01*
X1357460Y626270D02*
Y627540D01*
X1358730D01*
X1360000Y626270D01*
X1361270Y627540D01*
X1362540D01*
Y626270D02*
Y627540D01*
X1361270Y625000D02*
X1362540Y626270D01*
X1361270Y625000D02*
X1362540Y623730D01*
Y622460D02*
Y623730D01*
X1361270Y622460D02*
X1362540D01*
X1360000Y623730D02*
X1361270Y622460D01*
X1358730D02*
X1360000Y623730D01*
X1357460Y622460D02*
X1358730D01*
X662460Y627460D02*
Y628730D01*
X663730Y630000D01*
X662460Y631270D02*
X663730Y630000D01*
X662460Y631270D02*
Y632540D01*
X663730D01*
X665000Y631270D01*
X666270Y632540D01*
X667540D01*
Y631270D02*
Y632540D01*
X666270Y630000D02*
X667540Y631270D01*
X666270Y630000D02*
X667540Y628730D01*
Y627460D02*
Y628730D01*
X666270Y627460D02*
X667540D01*
X665000Y628730D02*
X666270Y627460D01*
X663730D02*
X665000Y628730D01*
X662460Y627460D02*
X663730D01*
X527460Y203460D02*
Y204730D01*
X528730Y206000D01*
X527460Y207270D02*
X528730Y206000D01*
X527460Y207270D02*
Y208540D01*
X528730D01*
X530000Y207270D01*
X531270Y208540D01*
X532540D01*
Y207270D02*
Y208540D01*
X531270Y206000D02*
X532540Y207270D01*
X531270Y206000D02*
X532540Y204730D01*
Y203460D02*
Y204730D01*
X531270Y203460D02*
X532540D01*
X530000Y204730D02*
X531270Y203460D01*
X528730D02*
X530000Y204730D01*
X527460Y203460D02*
X528730D01*
X637460Y664210D02*
Y665480D01*
X638730Y666750D01*
X637460Y668020D02*
X638730Y666750D01*
X637460Y668020D02*
Y669290D01*
X638730D01*
X640000Y668020D01*
X641270Y669290D01*
X642540D01*
Y668020D02*
Y669290D01*
X641270Y666750D02*
X642540Y668020D01*
X641270Y666750D02*
X642540Y665480D01*
Y664210D02*
Y665480D01*
X641270Y664210D02*
X642540D01*
X640000Y665480D02*
X641270Y664210D01*
X638730D02*
X640000Y665480D01*
X637460Y664210D02*
X638730D01*
X618960Y790710D02*
Y791980D01*
X620230Y793250D01*
X618960Y794520D02*
X620230Y793250D01*
X618960Y794520D02*
Y795790D01*
X620230D01*
X621500Y794520D01*
X622770Y795790D01*
X624040D01*
Y794520D02*
Y795790D01*
X622770Y793250D02*
X624040Y794520D01*
X622770Y793250D02*
X624040Y791980D01*
Y790710D02*
Y791980D01*
X622770Y790710D02*
X624040D01*
X621500Y791980D02*
X622770Y790710D01*
X620230D02*
X621500Y791980D01*
X618960Y790710D02*
X620230D01*
X661960D02*
Y791980D01*
X663230Y793250D01*
X661960Y794520D02*
X663230Y793250D01*
X661960Y794520D02*
Y795790D01*
X663230D01*
X664500Y794520D01*
X665770Y795790D01*
X667040D01*
Y794520D02*
Y795790D01*
X665770Y793250D02*
X667040Y794520D01*
X665770Y793250D02*
X667040Y791980D01*
Y790710D02*
Y791980D01*
X665770Y790710D02*
X667040D01*
X664500Y791980D02*
X665770Y790710D01*
X663230D02*
X664500Y791980D01*
X661960Y790710D02*
X663230D01*
X577960Y780710D02*
Y781980D01*
X579230Y783250D01*
X577960Y784520D02*
X579230Y783250D01*
X577960Y784520D02*
Y785790D01*
X579230D01*
X580500Y784520D01*
X581770Y785790D01*
X583040D01*
Y784520D02*
Y785790D01*
X581770Y783250D02*
X583040Y784520D01*
X581770Y783250D02*
X583040Y781980D01*
Y780710D02*
Y781980D01*
X581770Y780710D02*
X583040D01*
X580500Y781980D02*
X581770Y780710D01*
X579230D02*
X580500Y781980D01*
X577960Y780710D02*
X579230D01*
X594960Y762710D02*
Y763980D01*
X596230Y765250D01*
X594960Y766520D02*
X596230Y765250D01*
X594960Y766520D02*
Y767790D01*
X596230D01*
X597500Y766520D01*
X598770Y767790D01*
X600040D01*
Y766520D02*
Y767790D01*
X598770Y765250D02*
X600040Y766520D01*
X598770Y765250D02*
X600040Y763980D01*
Y762710D02*
Y763980D01*
X598770Y762710D02*
X600040D01*
X597500Y763980D02*
X598770Y762710D01*
X596230D02*
X597500Y763980D01*
X594960Y762710D02*
X596230D01*
X538960Y740710D02*
Y741980D01*
X540230Y743250D01*
X538960Y744520D02*
X540230Y743250D01*
X538960Y744520D02*
Y745790D01*
X540230D01*
X541500Y744520D01*
X542770Y745790D01*
X544040D01*
Y744520D02*
Y745790D01*
X542770Y743250D02*
X544040Y744520D01*
X542770Y743250D02*
X544040Y741980D01*
Y740710D02*
Y741980D01*
X542770Y740710D02*
X544040D01*
X541500Y741980D02*
X542770Y740710D01*
X540230D02*
X541500Y741980D01*
X538960Y740710D02*
X540230D01*
X581960Y690710D02*
Y691980D01*
X583230Y693250D01*
X581960Y694520D02*
X583230Y693250D01*
X581960Y694520D02*
Y695790D01*
X583230D01*
X584500Y694520D01*
X585770Y695790D01*
X587040D01*
Y694520D02*
Y695790D01*
X585770Y693250D02*
X587040Y694520D01*
X585770Y693250D02*
X587040Y691980D01*
Y690710D02*
Y691980D01*
X585770Y690710D02*
X587040D01*
X584500Y691980D02*
X585770Y690710D01*
X583230D02*
X584500Y691980D01*
X581960Y690710D02*
X583230D01*
X718780Y683780D02*
Y685050D01*
X720050Y686320D01*
X718780Y687590D02*
X720050Y686320D01*
X718780Y687590D02*
Y688860D01*
X720050D01*
X721320Y687590D01*
X722590Y688860D01*
X723860D01*
Y687590D02*
Y688860D01*
X722590Y686320D02*
X723860Y687590D01*
X722590Y686320D02*
X723860Y685050D01*
Y683780D02*
Y685050D01*
X722590Y683780D02*
X723860D01*
X721320Y685050D02*
X722590Y683780D01*
X720050D02*
X721320Y685050D01*
X718780Y683780D02*
X720050D01*
X712460Y707460D02*
Y708730D01*
X713730Y710000D01*
X712460Y711270D02*
X713730Y710000D01*
X712460Y711270D02*
Y712540D01*
X713730D01*
X715000Y711270D01*
X716270Y712540D01*
X717540D01*
Y711270D02*
Y712540D01*
X716270Y710000D02*
X717540Y711270D01*
X716270Y710000D02*
X717540Y708730D01*
Y707460D02*
Y708730D01*
X716270Y707460D02*
X717540D01*
X715000Y708730D02*
X716270Y707460D01*
X713730D02*
X715000Y708730D01*
X712460Y707460D02*
X713730D01*
X1127460Y557460D02*
Y558730D01*
X1128730Y560000D01*
X1127460Y561270D02*
X1128730Y560000D01*
X1127460Y561270D02*
Y562540D01*
X1128730D01*
X1130000Y561270D01*
X1131270Y562540D01*
X1132540D01*
Y561270D02*
Y562540D01*
X1131270Y560000D02*
X1132540Y561270D01*
X1131270Y560000D02*
X1132540Y558730D01*
Y557460D02*
Y558730D01*
X1131270Y557460D02*
X1132540D01*
X1130000Y558730D02*
X1131270Y557460D01*
X1128730D02*
X1130000Y558730D01*
X1127460Y557460D02*
X1128730D01*
X1550000Y17460D02*
X1552540Y22540D01*
X1547460D02*
X1552540D01*
X1547460D02*
X1550000Y17460D01*
X40000D02*
X42540Y22540D01*
X37460D02*
X42540D01*
X37460D02*
X40000Y17460D01*
X800000D02*
X802540Y22540D01*
X797460D02*
X802540D01*
X797460D02*
X800000Y17460D01*
Y977460D02*
X802540Y982540D01*
X797460D02*
X802540D01*
X797460D02*
X800000Y977460D01*
X40000D02*
X42540Y982540D01*
X37460D02*
X42540D01*
X37460D02*
X40000Y977460D01*
X1550000D02*
X1552540Y982540D01*
X1547460D02*
X1552540D01*
X1547460D02*
X1550000Y977460D01*
X1203460Y654460D02*
X1208540D01*
Y659540D01*
X1203460D02*
X1208540D01*
X1203460Y654460D02*
Y659540D01*
X1098460Y39460D02*
Y40730D01*
X1099730Y42000D01*
X1098460Y43270D02*
X1099730Y42000D01*
X1098460Y43270D02*
Y44540D01*
X1099730D01*
X1101000Y43270D01*
X1102270Y44540D01*
X1103540D01*
Y43270D02*
Y44540D01*
X1102270Y42000D02*
X1103540Y43270D01*
X1102270Y42000D02*
X1103540Y40730D01*
Y39460D02*
Y40730D01*
X1102270Y39460D02*
X1103540D01*
X1101000Y40730D02*
X1102270Y39460D01*
X1099730D02*
X1101000Y40730D01*
X1098460Y39460D02*
X1099730D01*
X514966Y945954D02*
Y947224D01*
X516236Y948494D01*
X514966Y949764D02*
X516236Y948494D01*
X514966Y949764D02*
Y951034D01*
X516236D01*
X517506Y949764D01*
X518776Y951034D01*
X520046D01*
Y949764D02*
Y951034D01*
X518776Y948494D02*
X520046Y949764D01*
X518776Y948494D02*
X520046Y947224D01*
Y945954D02*
Y947224D01*
X518776Y945954D02*
X520046D01*
X517506Y947224D02*
X518776Y945954D01*
X516236D02*
X517506Y947224D01*
X514966Y945954D02*
X516236D01*
X245460Y398460D02*
Y399730D01*
X246730Y401000D01*
X245460Y402270D02*
X246730Y401000D01*
X245460Y402270D02*
Y403540D01*
X246730D01*
X248000Y402270D01*
X249270Y403540D01*
X250540D01*
Y402270D02*
Y403540D01*
X249270Y401000D02*
X250540Y402270D01*
X249270Y401000D02*
X250540Y399730D01*
Y398460D02*
Y399730D01*
X249270Y398460D02*
X250540D01*
X248000Y399730D02*
X249270Y398460D01*
X246730D02*
X248000Y399730D01*
X245460Y398460D02*
X246730D01*
X281460Y68460D02*
Y69730D01*
X282730Y71000D01*
X281460Y72270D02*
X282730Y71000D01*
X281460Y72270D02*
Y73540D01*
X282730D01*
X284000Y72270D01*
X285270Y73540D01*
X286540D01*
Y72270D02*
Y73540D01*
X285270Y71000D02*
X286540Y72270D01*
X285270Y71000D02*
X286540Y69730D01*
Y68460D02*
Y69730D01*
X285270Y68460D02*
X286540D01*
X284000Y69730D02*
X285270Y68460D01*
X282730D02*
X284000Y69730D01*
X281460Y68460D02*
X282730D01*
X368460Y399460D02*
Y400730D01*
X369730Y402000D01*
X368460Y403270D02*
X369730Y402000D01*
X368460Y403270D02*
Y404540D01*
X369730D01*
X371000Y403270D01*
X372270Y404540D01*
X373540D01*
Y403270D02*
Y404540D01*
X372270Y402000D02*
X373540Y403270D01*
X372270Y402000D02*
X373540Y400730D01*
Y399460D02*
Y400730D01*
X372270Y399460D02*
X373540D01*
X371000Y400730D02*
X372270Y399460D01*
X369730D02*
X371000Y400730D01*
X368460Y399460D02*
X369730D01*
X1528460Y908460D02*
X1531000Y909730D01*
X1533540Y908460D01*
X1532270Y911000D02*
X1533540Y908460D01*
X1532270Y911000D02*
X1533540Y913540D01*
X1531000Y912270D02*
X1533540Y913540D01*
X1528460D02*
X1531000Y912270D01*
X1528460Y913540D02*
X1529730Y911000D01*
X1528460Y908460D02*
X1529730Y911000D01*
X1528460Y806460D02*
X1531000Y807730D01*
X1533540Y806460D01*
X1532270Y809000D02*
X1533540Y806460D01*
X1532270Y809000D02*
X1533540Y811540D01*
X1531000Y810270D02*
X1533540Y811540D01*
X1528460D02*
X1531000Y810270D01*
X1528460Y811540D02*
X1529730Y809000D01*
X1528460Y806460D02*
X1529730Y809000D01*
X1210190Y531600D02*
X1211460D01*
X1210190D02*
Y534140D01*
X1211460D01*
Y535410D01*
X1214000D01*
Y534140D02*
Y535410D01*
Y534140D02*
X1215270D01*
Y531600D02*
Y534140D01*
X1214000Y531600D02*
X1215270D01*
X1214000Y530330D02*
Y531600D01*
X1211460Y530330D02*
X1214000D01*
X1211460D02*
Y531600D01*
X1210190Y544300D02*
X1211460D01*
X1210190D02*
Y546840D01*
X1211460D01*
Y548110D01*
X1214000D01*
Y546840D02*
Y548110D01*
Y546840D02*
X1215270D01*
Y544300D02*
Y546840D01*
X1214000Y544300D02*
X1215270D01*
X1214000Y543030D02*
Y544300D01*
X1211460Y543030D02*
X1214000D01*
X1211460D02*
Y544300D01*
X1210190Y557000D02*
X1211460D01*
X1210190D02*
Y559540D01*
X1211460D01*
Y560810D01*
X1214000D01*
Y559540D02*
Y560810D01*
Y559540D02*
X1215270D01*
Y557000D02*
Y559540D01*
X1214000Y557000D02*
X1215270D01*
X1214000Y555730D02*
Y557000D01*
X1211460Y555730D02*
X1214000D01*
X1211460D02*
Y557000D01*
X244460Y329730D02*
X245730D01*
X244460D02*
Y332270D01*
X245730D01*
Y333540D01*
X248270D01*
Y332270D02*
Y333540D01*
Y332270D02*
X249540D01*
Y329730D02*
Y332270D01*
X248270Y329730D02*
X249540D01*
X248270Y328460D02*
Y329730D01*
X245730Y328460D02*
X248270D01*
X245730D02*
Y329730D01*
X244460Y367830D02*
X245730D01*
X244460D02*
Y370370D01*
X245730D01*
Y371640D01*
X248270D01*
Y370370D02*
Y371640D01*
Y370370D02*
X249540D01*
Y367830D02*
Y370370D01*
X248270Y367830D02*
X249540D01*
X248270Y366560D02*
Y367830D01*
X245730Y366560D02*
X248270D01*
X245730D02*
Y367830D01*
X187460Y329630D02*
X188730D01*
X187460D02*
Y332170D01*
X188730D01*
Y333440D01*
X191270D01*
Y332170D02*
Y333440D01*
Y332170D02*
X192540D01*
Y329630D02*
Y332170D01*
X191270Y329630D02*
X192540D01*
X191270Y328360D02*
Y329630D01*
X188730Y328360D02*
X191270D01*
X188730D02*
Y329630D01*
X187460Y367730D02*
X188730D01*
X187460D02*
Y370270D01*
X188730D01*
Y371540D01*
X191270D01*
Y370270D02*
Y371540D01*
Y370270D02*
X192540D01*
Y367730D02*
Y370270D01*
X191270Y367730D02*
X192540D01*
X191270Y366460D02*
Y367730D01*
X188730Y366460D02*
X191270D01*
X188730D02*
Y367730D01*
X1080630Y456450D02*
X1081900Y455180D01*
X1079360Y456450D02*
X1080630D01*
X1079360D02*
X1080630Y457720D01*
X1079360Y458990D02*
X1080630Y457720D01*
X1079360Y458990D02*
X1080630D01*
X1081900Y460260D01*
X1083170Y458990D01*
X1084440D01*
X1083170Y457720D02*
X1084440Y458990D01*
X1083170Y457720D02*
X1084440Y456450D01*
X1083170D02*
X1084440D01*
X1081900Y455180D02*
X1083170Y456450D01*
X1080630Y431050D02*
X1081900Y429780D01*
X1079360Y431050D02*
X1080630D01*
X1079360D02*
X1080630Y432320D01*
X1079360Y433590D02*
X1080630Y432320D01*
X1079360Y433590D02*
X1080630D01*
X1081900Y434860D01*
X1083170Y433590D01*
X1084440D01*
X1083170Y432320D02*
X1084440Y433590D01*
X1083170Y432320D02*
X1084440Y431050D01*
X1083170D02*
X1084440D01*
X1081900Y429780D02*
X1083170Y431050D01*
X1080630Y481850D02*
X1081900Y480580D01*
X1079360Y481850D02*
X1080630D01*
X1079360D02*
X1080630Y483120D01*
X1079360Y484390D02*
X1080630Y483120D01*
X1079360Y484390D02*
X1080630D01*
X1081900Y485660D01*
X1083170Y484390D01*
X1084440D01*
X1083170Y483120D02*
X1084440Y484390D01*
X1083170Y483120D02*
X1084440Y481850D01*
X1083170D02*
X1084440D01*
X1081900Y480580D02*
X1083170Y481850D01*
X1081010Y507005D02*
X1082280Y505735D01*
X1079740Y507005D02*
X1081010D01*
X1079740D02*
X1081010Y508275D01*
X1079740Y509545D02*
X1081010Y508275D01*
X1079740Y509545D02*
X1081010D01*
X1082280Y510815D01*
X1083550Y509545D01*
X1084820D01*
X1083550Y508275D02*
X1084820Y509545D01*
X1083550Y508275D02*
X1084820Y507005D01*
X1083550D02*
X1084820D01*
X1082280Y505735D02*
X1083550Y507005D01*
X1081010Y532624D02*
X1082280Y531354D01*
X1079740Y532624D02*
X1081010D01*
X1079740D02*
X1081010Y533894D01*
X1079740Y535164D02*
X1081010Y533894D01*
X1079740Y535164D02*
X1081010D01*
X1082280Y536434D01*
X1083550Y535164D01*
X1084820D01*
X1083550Y533894D02*
X1084820Y535164D01*
X1083550Y533894D02*
X1084820Y532624D01*
X1083550D02*
X1084820D01*
X1082280Y531354D02*
X1083550Y532624D01*
X1081010Y557808D02*
X1082280Y556538D01*
X1079740Y557808D02*
X1081010D01*
X1079740D02*
X1081010Y559078D01*
X1079740Y560348D02*
X1081010Y559078D01*
X1079740Y560348D02*
X1081010D01*
X1082280Y561618D01*
X1083550Y560348D01*
X1084820D01*
X1083550Y559078D02*
X1084820Y560348D01*
X1083550Y559078D02*
X1084820Y557808D01*
X1083550D02*
X1084820D01*
X1082280Y556538D02*
X1083550Y557808D01*
X1080630Y583450D02*
X1081900Y582180D01*
X1079360Y583450D02*
X1080630D01*
X1079360D02*
X1080630Y584720D01*
X1079360Y585990D02*
X1080630Y584720D01*
X1079360Y585990D02*
X1080630D01*
X1081900Y587260D01*
X1083170Y585990D01*
X1084440D01*
X1083170Y584720D02*
X1084440Y585990D01*
X1083170Y584720D02*
X1084440Y583450D01*
X1083170D02*
X1084440D01*
X1081900Y582180D02*
X1083170Y583450D01*
X1080630Y608850D02*
X1081900Y607580D01*
X1079360Y608850D02*
X1080630D01*
X1079360D02*
X1080630Y610120D01*
X1079360Y611390D02*
X1080630Y610120D01*
X1079360Y611390D02*
X1080630D01*
X1081900Y612660D01*
X1083170Y611390D01*
X1084440D01*
X1083170Y610120D02*
X1084440Y611390D01*
X1083170Y610120D02*
X1084440Y608850D01*
X1083170D02*
X1084440D01*
X1081900Y607580D02*
X1083170Y608850D01*
X1080630Y634250D02*
X1081900Y632980D01*
X1079360Y634250D02*
X1080630D01*
X1079360D02*
X1080630Y635520D01*
X1079360Y636790D02*
X1080630Y635520D01*
X1079360Y636790D02*
X1080630D01*
X1081900Y638060D01*
X1083170Y636790D01*
X1084440D01*
X1083170Y635520D02*
X1084440Y636790D01*
X1083170Y635520D02*
X1084440Y634250D01*
X1083170D02*
X1084440D01*
X1081900Y632980D02*
X1083170Y634250D01*
X1080630Y659650D02*
X1081900Y658380D01*
X1079360Y659650D02*
X1080630D01*
X1079360D02*
X1080630Y660920D01*
X1079360Y662190D02*
X1080630Y660920D01*
X1079360Y662190D02*
X1080630D01*
X1081900Y663460D01*
X1083170Y662190D01*
X1084440D01*
X1083170Y660920D02*
X1084440Y662190D01*
X1083170Y660920D02*
X1084440Y659650D01*
X1083170D02*
X1084440D01*
X1081900Y658380D02*
X1083170Y659650D01*
X1080630Y685050D02*
X1081900Y683780D01*
X1079360Y685050D02*
X1080630D01*
X1079360D02*
X1080630Y686320D01*
X1079360Y687590D02*
X1080630Y686320D01*
X1079360Y687590D02*
X1080630D01*
X1081900Y688860D01*
X1083170Y687590D01*
X1084440D01*
X1083170Y686320D02*
X1084440Y687590D01*
X1083170Y686320D02*
X1084440Y685050D01*
X1083170D02*
X1084440D01*
X1081900Y683780D02*
X1083170Y685050D01*
X1080630Y710450D02*
X1081900Y709180D01*
X1079360Y710450D02*
X1080630D01*
X1079360D02*
X1080630Y711720D01*
X1079360Y712990D02*
X1080630Y711720D01*
X1079360Y712990D02*
X1080630D01*
X1081900Y714260D01*
X1083170Y712990D01*
X1084440D01*
X1083170Y711720D02*
X1084440Y712990D01*
X1083170Y711720D02*
X1084440Y710450D01*
X1083170D02*
X1084440D01*
X1081900Y709180D02*
X1083170Y710450D01*
X1080630Y735850D02*
X1081900Y734580D01*
X1079360Y735850D02*
X1080630D01*
X1079360D02*
X1080630Y737120D01*
X1079360Y738390D02*
X1080630Y737120D01*
X1079360Y738390D02*
X1080630D01*
X1081900Y739660D01*
X1083170Y738390D01*
X1084440D01*
X1083170Y737120D02*
X1084440Y738390D01*
X1083170Y737120D02*
X1084440Y735850D01*
X1083170D02*
X1084440D01*
X1081900Y734580D02*
X1083170Y735850D01*
X1080630Y761250D02*
X1081900Y759980D01*
X1079360Y761250D02*
X1080630D01*
X1079360D02*
X1080630Y762520D01*
X1079360Y763790D02*
X1080630Y762520D01*
X1079360Y763790D02*
X1080630D01*
X1081900Y765060D01*
X1083170Y763790D01*
X1084440D01*
X1083170Y762520D02*
X1084440Y763790D01*
X1083170Y762520D02*
X1084440Y761250D01*
X1083170D02*
X1084440D01*
X1081900Y759980D02*
X1083170Y761250D01*
X877430Y431050D02*
X878700Y429780D01*
X876160Y431050D02*
X877430D01*
X876160D02*
X877430Y432320D01*
X876160Y433590D02*
X877430Y432320D01*
X876160Y433590D02*
X877430D01*
X878700Y434860D01*
X879970Y433590D01*
X881240D01*
X879970Y432320D02*
X881240Y433590D01*
X879970Y432320D02*
X881240Y431050D01*
X879970D02*
X881240D01*
X878700Y429780D02*
X879970Y431050D01*
X877430Y456450D02*
X878700Y455180D01*
X876160Y456450D02*
X877430D01*
X876160D02*
X877430Y457720D01*
X876160Y458990D02*
X877430Y457720D01*
X876160Y458990D02*
X877430D01*
X878700Y460260D01*
X879970Y458990D01*
X881240D01*
X879970Y457720D02*
X881240Y458990D01*
X879970Y457720D02*
X881240Y456450D01*
X879970D02*
X881240D01*
X878700Y455180D02*
X879970Y456450D01*
X877810Y481605D02*
X879080Y480335D01*
X876540Y481605D02*
X877810D01*
X876540D02*
X877810Y482875D01*
X876540Y484145D02*
X877810Y482875D01*
X876540Y484145D02*
X877810D01*
X879080Y485415D01*
X880350Y484145D01*
X881620D01*
X880350Y482875D02*
X881620Y484145D01*
X880350Y482875D02*
X881620Y481605D01*
X880350D02*
X881620D01*
X879080Y480335D02*
X880350Y481605D01*
X877810Y507224D02*
X879080Y505954D01*
X876540Y507224D02*
X877810D01*
X876540D02*
X877810Y508494D01*
X876540Y509764D02*
X877810Y508494D01*
X876540Y509764D02*
X877810D01*
X879080Y511034D01*
X880350Y509764D01*
X881620D01*
X880350Y508494D02*
X881620Y509764D01*
X880350Y508494D02*
X881620Y507224D01*
X880350D02*
X881620D01*
X879080Y505954D02*
X880350Y507224D01*
X877810Y532408D02*
X879080Y531138D01*
X876540Y532408D02*
X877810D01*
X876540D02*
X877810Y533678D01*
X876540Y534948D02*
X877810Y533678D01*
X876540Y534948D02*
X877810D01*
X879080Y536218D01*
X880350Y534948D01*
X881620D01*
X880350Y533678D02*
X881620Y534948D01*
X880350Y533678D02*
X881620Y532408D01*
X880350D02*
X881620D01*
X879080Y531138D02*
X880350Y532408D01*
X877430Y558050D02*
X878700Y556780D01*
X876160Y558050D02*
X877430D01*
X876160D02*
X877430Y559320D01*
X876160Y560590D02*
X877430Y559320D01*
X876160Y560590D02*
X877430D01*
X878700Y561860D01*
X879970Y560590D01*
X881240D01*
X879970Y559320D02*
X881240Y560590D01*
X879970Y559320D02*
X881240Y558050D01*
X879970D02*
X881240D01*
X878700Y556780D02*
X879970Y558050D01*
X877430Y583450D02*
X878700Y582180D01*
X876160Y583450D02*
X877430D01*
X876160D02*
X877430Y584720D01*
X876160Y585990D02*
X877430Y584720D01*
X876160Y585990D02*
X877430D01*
X878700Y587260D01*
X879970Y585990D01*
X881240D01*
X879970Y584720D02*
X881240Y585990D01*
X879970Y584720D02*
X881240Y583450D01*
X879970D02*
X881240D01*
X878700Y582180D02*
X879970Y583450D01*
X877430Y608850D02*
X878700Y607580D01*
X876160Y608850D02*
X877430D01*
X876160D02*
X877430Y610120D01*
X876160Y611390D02*
X877430Y610120D01*
X876160Y611390D02*
X877430D01*
X878700Y612660D01*
X879970Y611390D01*
X881240D01*
X879970Y610120D02*
X881240Y611390D01*
X879970Y610120D02*
X881240Y608850D01*
X879970D02*
X881240D01*
X878700Y607580D02*
X879970Y608850D01*
X877430Y634250D02*
X878700Y632980D01*
X876160Y634250D02*
X877430D01*
X876160D02*
X877430Y635520D01*
X876160Y636790D02*
X877430Y635520D01*
X876160Y636790D02*
X877430D01*
X878700Y638060D01*
X879970Y636790D01*
X881240D01*
X879970Y635520D02*
X881240Y636790D01*
X879970Y635520D02*
X881240Y634250D01*
X879970D02*
X881240D01*
X878700Y632980D02*
X879970Y634250D01*
X877430Y659650D02*
X878700Y658380D01*
X876160Y659650D02*
X877430D01*
X876160D02*
X877430Y660920D01*
X876160Y662190D02*
X877430Y660920D01*
X876160Y662190D02*
X877430D01*
X878700Y663460D01*
X879970Y662190D01*
X881240D01*
X879970Y660920D02*
X881240Y662190D01*
X879970Y660920D02*
X881240Y659650D01*
X879970D02*
X881240D01*
X878700Y658380D02*
X879970Y659650D01*
X877430Y685050D02*
X878700Y683780D01*
X876160Y685050D02*
X877430D01*
X876160D02*
X877430Y686320D01*
X876160Y687590D02*
X877430Y686320D01*
X876160Y687590D02*
X877430D01*
X878700Y688860D01*
X879970Y687590D01*
X881240D01*
X879970Y686320D02*
X881240Y687590D01*
X879970Y686320D02*
X881240Y685050D01*
X879970D02*
X881240D01*
X878700Y683780D02*
X879970Y685050D01*
X877430Y710450D02*
X878700Y709180D01*
X876160Y710450D02*
X877430D01*
X876160D02*
X877430Y711720D01*
X876160Y712990D02*
X877430Y711720D01*
X876160Y712990D02*
X877430D01*
X878700Y714260D01*
X879970Y712990D01*
X881240D01*
X879970Y711720D02*
X881240Y712990D01*
X879970Y711720D02*
X881240Y710450D01*
X879970D02*
X881240D01*
X878700Y709180D02*
X879970Y710450D01*
X877430Y735850D02*
X878700Y734580D01*
X876160Y735850D02*
X877430D01*
X876160D02*
X877430Y737120D01*
X876160Y738390D02*
X877430Y737120D01*
X876160Y738390D02*
X877430D01*
X878700Y739660D01*
X879970Y738390D01*
X881240D01*
X879970Y737120D02*
X881240Y738390D01*
X879970Y737120D02*
X881240Y735850D01*
X879970D02*
X881240D01*
X878700Y734580D02*
X879970Y735850D01*
X877430Y761250D02*
X878700Y759980D01*
X876160Y761250D02*
X877430D01*
X876160D02*
X877430Y762520D01*
X876160Y763790D02*
X877430Y762520D01*
X876160Y763790D02*
X877430D01*
X878700Y765060D01*
X879970Y763790D01*
X881240D01*
X879970Y762520D02*
X881240Y763790D01*
X879970Y762520D02*
X881240Y761250D01*
X879970D02*
X881240D01*
X878700Y759980D02*
X879970Y761250D01*
X66460Y908460D02*
X69000Y909730D01*
X71540Y908460D01*
X70270Y911000D02*
X71540Y908460D01*
X70270Y911000D02*
X71540Y913540D01*
X69000Y912270D02*
X71540Y913540D01*
X66460D02*
X69000Y912270D01*
X66460Y913540D02*
X67730Y911000D01*
X66460Y908460D02*
X67730Y911000D01*
X66460Y806460D02*
X69000Y807730D01*
X71540Y806460D01*
X70270Y809000D02*
X71540Y806460D01*
X70270Y809000D02*
X71540Y811540D01*
X69000Y810270D02*
X71540Y811540D01*
X66460D02*
X69000Y810270D01*
X66460Y811540D02*
X67730Y809000D01*
X66460Y806460D02*
X67730Y809000D01*
X66460Y708460D02*
X69000Y709730D01*
X71540Y708460D01*
X70270Y711000D02*
X71540Y708460D01*
X70270Y711000D02*
X71540Y713540D01*
X69000Y712270D02*
X71540Y713540D01*
X66460D02*
X69000Y712270D01*
X66460Y713540D02*
X67730Y711000D01*
X66460Y708460D02*
X67730Y711000D01*
X66460Y606460D02*
X69000Y607730D01*
X71540Y606460D01*
X70270Y609000D02*
X71540Y606460D01*
X70270Y609000D02*
X71540Y611540D01*
X69000Y610270D02*
X71540Y611540D01*
X66460D02*
X69000Y610270D01*
X66460Y611540D02*
X67730Y609000D01*
X66460Y606460D02*
X67730Y609000D01*
X66460Y276460D02*
X69000Y277730D01*
X71540Y276460D01*
X70270Y279000D02*
X71540Y276460D01*
X70270Y279000D02*
X71540Y281540D01*
X69000Y280270D02*
X71540Y281540D01*
X66460D02*
X69000Y280270D01*
X66460Y281540D02*
X67730Y279000D01*
X66460Y276460D02*
X67730Y279000D01*
X66460Y378460D02*
X69000Y379730D01*
X71540Y378460D01*
X70270Y381000D02*
X71540Y378460D01*
X70270Y381000D02*
X71540Y383540D01*
X69000Y382270D02*
X71540Y383540D01*
X66460D02*
X69000Y382270D01*
X66460Y383540D02*
X67730Y381000D01*
X66460Y378460D02*
X67730Y381000D01*
D75*
X1274679Y1385782D02*
Y1373594D01*
X1280773Y1367500D01*
X1286867Y1373594D01*
Y1385782D01*
X1292961Y1367500D02*
X1299055D01*
X1296008D01*
Y1379688D01*
X1292961D01*
X1311243D02*
X1317337D01*
X1320384Y1376641D01*
Y1367500D01*
X1311243D01*
X1308196Y1370547D01*
X1311243Y1373594D01*
X1320384D01*
X1326478Y1367500D02*
X1338667Y1379688D01*
X1344760Y1367500D02*
Y1385782D01*
X1353902D01*
X1356949Y1382735D01*
Y1376641D01*
X1353902Y1373594D01*
X1344760D01*
X1366090Y1379688D02*
X1372184D01*
X1375231Y1376641D01*
Y1367500D01*
X1366090D01*
X1363043Y1370547D01*
X1366090Y1373594D01*
X1375231D01*
X1393513Y1385782D02*
Y1367500D01*
X1384372D01*
X1381325Y1370547D01*
Y1376641D01*
X1384372Y1379688D01*
X1393513D01*
X894809Y1385782D02*
Y1367500D01*
X903950D01*
X906997Y1370547D01*
Y1382735D01*
X903950Y1385782D01*
X894809D01*
X913091Y1379688D02*
Y1367500D01*
Y1373594D01*
X916139Y1376641D01*
X919185Y1379688D01*
X922233D01*
X931374Y1367500D02*
X937467D01*
X934420D01*
Y1379688D01*
X931374D01*
X946609Y1367500D02*
X952703D01*
X949656D01*
Y1385782D01*
X946609D01*
X961844Y1367500D02*
X967938D01*
X964891D01*
Y1385782D01*
X961844D01*
X995361D02*
Y1367500D01*
X1007549D01*
X1016690Y1379688D02*
X1022784D01*
X1025831Y1376641D01*
Y1367500D01*
X1016690D01*
X1013643Y1370547D01*
X1016690Y1373594D01*
X1025831D01*
X1031925Y1379688D02*
Y1370547D01*
X1034972Y1367500D01*
X1044113D01*
Y1364453D01*
X1041066Y1361406D01*
X1038019D01*
X1044113Y1367500D02*
Y1379688D01*
X1059348Y1367500D02*
X1053254D01*
X1050207Y1370547D01*
Y1376641D01*
X1053254Y1379688D01*
X1059348D01*
X1062395Y1376641D01*
Y1373594D01*
X1050207D01*
X1068489Y1379688D02*
Y1367500D01*
Y1373594D01*
X1071536Y1376641D01*
X1074583Y1379688D01*
X1077630D01*
X1105053Y1367500D02*
Y1385782D01*
X1114194D01*
X1117241Y1382735D01*
Y1376641D01*
X1114194Y1373594D01*
X1105053D01*
X1126382Y1379688D02*
X1132476D01*
X1135524Y1376641D01*
Y1367500D01*
X1126382D01*
X1123335Y1370547D01*
X1126382Y1373594D01*
X1135524D01*
X1141618Y1367500D02*
X1147711D01*
X1144665D01*
Y1379688D01*
X1141618D01*
X1156853D02*
Y1367500D01*
Y1373594D01*
X1159900Y1376641D01*
X1162947Y1379688D01*
X1165994D01*
X710049Y1385782D02*
Y1367500D01*
Y1376641D01*
X722237D01*
Y1385782D01*
Y1367500D01*
X731378D02*
X737472D01*
X740519Y1370547D01*
Y1376641D01*
X737472Y1379688D01*
X731378D01*
X728331Y1376641D01*
Y1370547D01*
X731378Y1367500D01*
X746613D02*
X752707D01*
X749660D01*
Y1385782D01*
X746613D01*
X770990Y1367500D02*
X764895D01*
X761849Y1370547D01*
Y1376641D01*
X764895Y1379688D01*
X770990D01*
X774037Y1376641D01*
Y1373594D01*
X761849D01*
X798413Y1385782D02*
X810601D01*
X804507D01*
Y1367500D01*
X816695Y1379688D02*
Y1370547D01*
X819742Y1367500D01*
X828883D01*
Y1364453D01*
X825836Y1361406D01*
X822789D01*
X828883Y1367500D02*
Y1379688D01*
X834977Y1361406D02*
Y1379688D01*
X844118D01*
X847165Y1376641D01*
Y1370547D01*
X844118Y1367500D01*
X834977D01*
X862400D02*
X856306D01*
X853259Y1370547D01*
Y1376641D01*
X856306Y1379688D01*
X862400D01*
X865447Y1376641D01*
Y1373594D01*
X853259D01*
X583182Y1367500D02*
Y1385782D01*
X592323D01*
X595370Y1382735D01*
Y1376641D01*
X592323Y1373594D01*
X583182D01*
X601465Y1367500D02*
X607559D01*
X604511D01*
Y1385782D01*
X601465D01*
X619747Y1379688D02*
X625841D01*
X628888Y1376641D01*
Y1367500D01*
X619747D01*
X616700Y1370547D01*
X619747Y1373594D01*
X628888D01*
X638029Y1382735D02*
Y1379688D01*
X634982D01*
X641076D01*
X638029D01*
Y1370547D01*
X641076Y1367500D01*
X659358D02*
X653264D01*
X650217Y1370547D01*
Y1376641D01*
X653264Y1379688D01*
X659358D01*
X662405Y1376641D01*
Y1373594D01*
X650217D01*
X680687Y1385782D02*
Y1367500D01*
X671546D01*
X668499Y1370547D01*
Y1376641D01*
X671546Y1379688D01*
X680687D01*
X299801Y1385782D02*
Y1367500D01*
Y1376641D01*
X311989D01*
Y1385782D01*
Y1367500D01*
X321130D02*
X327225D01*
X330271Y1370547D01*
Y1376641D01*
X327225Y1379688D01*
X321130D01*
X318083Y1376641D01*
Y1370547D01*
X321130Y1367500D01*
X336366D02*
X342460D01*
X339413D01*
Y1385782D01*
X336366D01*
X360742Y1367500D02*
X354648D01*
X351601Y1370547D01*
Y1376641D01*
X354648Y1379688D01*
X360742D01*
X363789Y1376641D01*
Y1373594D01*
X351601D01*
X400353Y1382735D02*
X397306Y1385782D01*
X391212D01*
X388165Y1382735D01*
Y1379688D01*
X391212Y1376641D01*
X397306D01*
X400353Y1373594D01*
Y1370547D01*
X397306Y1367500D01*
X391212D01*
X388165Y1370547D01*
X406447Y1367500D02*
X412541D01*
X409494D01*
Y1379688D01*
X406447D01*
X421682D02*
X433870D01*
X421682Y1367500D01*
X433870D01*
X449105D02*
X443011D01*
X439964Y1370547D01*
Y1376641D01*
X443011Y1379688D01*
X449105D01*
X452152Y1376641D01*
Y1373594D01*
X439964D01*
X163185Y1382735D02*
X160138Y1385782D01*
X154044D01*
X150997Y1382735D01*
Y1370547D01*
X154044Y1367500D01*
X160138D01*
X163185Y1370547D01*
X172326Y1367500D02*
X178420D01*
X181467Y1370547D01*
Y1376641D01*
X178420Y1379688D01*
X172326D01*
X169279Y1376641D01*
Y1370547D01*
X172326Y1367500D01*
X187561Y1379688D02*
Y1370547D01*
X190608Y1367500D01*
X199749D01*
Y1379688D01*
X205843Y1367500D02*
Y1379688D01*
X214984D01*
X218031Y1376641D01*
Y1367500D01*
X227172Y1382735D02*
Y1379688D01*
X224125D01*
X230219D01*
X227172D01*
Y1370547D01*
X230219Y1367500D01*
X36318Y1382735D02*
X33271Y1385782D01*
X27177D01*
X24130Y1382735D01*
Y1379688D01*
X27177Y1376641D01*
X33271D01*
X36318Y1373594D01*
Y1370547D01*
X33271Y1367500D01*
X27177D01*
X24130Y1370547D01*
X42412Y1379688D02*
Y1370547D01*
X45459Y1367500D01*
X54600D01*
Y1364453D01*
X51553Y1361406D01*
X48506D01*
X54600Y1367500D02*
Y1379688D01*
X60694Y1367500D02*
Y1379688D01*
X63741D01*
X66788Y1376641D01*
Y1367500D01*
Y1376641D01*
X69835Y1379688D01*
X72882Y1376641D01*
Y1367500D01*
X78976Y1385782D02*
Y1367500D01*
X88117D01*
X91164Y1370547D01*
Y1373594D01*
Y1376641D01*
X88117Y1379688D01*
X78976D01*
X100305Y1367500D02*
X106399D01*
X109446Y1370547D01*
Y1376641D01*
X106399Y1379688D01*
X100305D01*
X97258Y1376641D01*
Y1370547D01*
X100305Y1367500D01*
X115540D02*
X121634D01*
X118587D01*
Y1385782D01*
X115540D01*
M02*
