%TF.GenerationSoftware,Altium Limited,Altium Designer,22.5.1 (42)*%
G04 Layer_Physical_Order=4*
G04 Layer_Color=16711680*
%FSLAX44Y44*%
%MOMM*%
%TF.SameCoordinates,EDF0C4A9-A600-4E9B-A30B-1A7791E2F720*%
%TF.FilePolarity,Positive*%
%TF.FileFunction,Copper,L4,Bot,Signal*%
%TF.Part,Single*%
G01*
G75*
%TA.AperFunction,Conductor*%
%ADD27C,0.5080*%
%ADD29C,0.2540*%
%TA.AperFunction,ComponentPad*%
%ADD32C,1.4224*%
%ADD33R,1.4224X1.4224*%
%ADD34C,1.6000*%
%ADD35R,1.6000X1.6000*%
%ADD36C,1.5000*%
%ADD37R,1.5000X1.5000*%
%TA.AperFunction,SMDPad,CuDef*%
%ADD38C,1.5240*%
%TA.AperFunction,ComponentPad*%
%ADD39C,3.3000*%
%ADD40R,1.2700X1.2700*%
%ADD41C,1.2700*%
%ADD42C,1.1430*%
%ADD43R,1.1430X1.1430*%
%ADD44R,1.5000X1.5000*%
%ADD45C,1.5000*%
%ADD47O,1.2700X1.1684*%
%ADD48R,1.5000X1.5000*%
%TA.AperFunction,ViaPad*%
%ADD49C,1.2700*%
%ADD50C,1.2000*%
%TA.AperFunction,Conductor*%
%ADD52C,0.6350*%
G36*
X1600000Y970000D02*
X1551935D01*
X1551767Y971270D01*
X1553431Y971716D01*
X1555459Y972886D01*
X1557114Y974541D01*
X1558284Y976569D01*
X1558863Y978730D01*
X1541137D01*
X1541716Y976569D01*
X1542886Y974541D01*
X1544541Y972886D01*
X1546569Y971716D01*
X1548233Y971270D01*
X1548065Y970000D01*
X801935D01*
X801768Y971270D01*
X803431Y971716D01*
X805459Y972886D01*
X807114Y974541D01*
X808284Y976569D01*
X808863Y978730D01*
X791137D01*
X791716Y976569D01*
X792886Y974541D01*
X794541Y972886D01*
X796569Y971716D01*
X798232Y971270D01*
X798065Y970000D01*
X41935D01*
X41768Y971270D01*
X43431Y971716D01*
X45459Y972886D01*
X47114Y974541D01*
X48284Y976569D01*
X48863Y978730D01*
X31137D01*
X31716Y976569D01*
X32886Y974541D01*
X34541Y972886D01*
X36569Y971716D01*
X38233Y971270D01*
X38065Y970000D01*
X0D01*
Y1000000D01*
X1600000D01*
Y970000D01*
D02*
G37*
G36*
X599735Y890704D02*
X599274Y890146D01*
X598868Y889570D01*
X598516Y888977D01*
X598218Y888366D01*
X597974Y887737D01*
X597784Y887090D01*
X597649Y886425D01*
X597567Y885743D01*
X597540Y885043D01*
X592460D01*
X592433Y885743D01*
X592352Y886425D01*
X592216Y887090D01*
X592026Y887737D01*
X591783Y888366D01*
X591484Y888977D01*
X591132Y889570D01*
X590726Y890146D01*
X590265Y890704D01*
X589750Y891244D01*
X600250D01*
X599735Y890704D01*
D02*
G37*
G36*
X539736Y868488D02*
X540106Y868205D01*
X540507Y867956D01*
X540937Y867741D01*
X541397Y867558D01*
X541887Y867409D01*
X542407Y867292D01*
X542957Y867209D01*
X543537Y867160D01*
X544147Y867143D01*
Y862063D01*
X543537Y862047D01*
X542957Y861997D01*
X542407Y861914D01*
X541887Y861797D01*
X541397Y861648D01*
X540937Y861466D01*
X540507Y861250D01*
X540106Y861001D01*
X539736Y860719D01*
X539396Y860403D01*
Y868803D01*
X539736Y868488D01*
D02*
G37*
G36*
X1471561Y796920D02*
X1471510Y797402D01*
X1471357Y797834D01*
X1471101Y798215D01*
X1470743Y798545D01*
X1470283Y798825D01*
X1469721Y799053D01*
X1469057Y799231D01*
X1468290Y799358D01*
X1467421Y799434D01*
X1466451Y799460D01*
Y804540D01*
X1467421Y804565D01*
X1468290Y804641D01*
X1469057Y804768D01*
X1469721Y804946D01*
X1470283Y805175D01*
X1470743Y805454D01*
X1471101Y805784D01*
X1471357Y806165D01*
X1471510Y806597D01*
X1471561Y807080D01*
Y796920D01*
D02*
G37*
G36*
X660715Y625800D02*
X660490Y625995D01*
X660217Y626169D01*
X659897Y626323D01*
X659528Y626456D01*
X659111Y626569D01*
X658647Y626661D01*
X658134Y626733D01*
X656965Y626815D01*
X656309Y626825D01*
Y633175D01*
X656965Y633185D01*
X658134Y633267D01*
X658647Y633339D01*
X659111Y633431D01*
X659528Y633544D01*
X659897Y633677D01*
X660217Y633831D01*
X660490Y634005D01*
X660715Y634200D01*
Y625800D01*
D02*
G37*
G36*
X1125020Y607139D02*
X1125640Y606618D01*
X1126273Y606159D01*
X1126921Y605762D01*
X1127581Y605425D01*
X1128255Y605150D01*
X1128943Y604935D01*
X1129644Y604782D01*
X1130358Y604691D01*
X1131086Y604660D01*
Y599580D01*
X1130358Y599549D01*
X1129644Y599458D01*
X1128943Y599305D01*
X1128255Y599090D01*
X1127581Y598815D01*
X1126921Y598478D01*
X1126273Y598081D01*
X1125640Y597622D01*
X1125020Y597101D01*
X1124413Y596520D01*
Y607720D01*
X1125020Y607139D01*
D02*
G37*
G36*
X952358Y562075D02*
X952479Y560517D01*
X952591Y559822D01*
X952738Y559181D01*
X952919Y558595D01*
X953136Y558065D01*
X953386Y557589D01*
X953671Y557169D01*
X953991Y556805D01*
X952196Y555009D01*
X951831Y555328D01*
X951411Y555614D01*
X950935Y555864D01*
X950405Y556081D01*
X949819Y556262D01*
X949178Y556409D01*
X948483Y556521D01*
X947731Y556599D01*
X946064Y556650D01*
X952350Y562937D01*
X952358Y562075D01*
D02*
G37*
G36*
X138391Y551400D02*
X137934Y550929D01*
X137165Y550045D01*
X136854Y549632D01*
X136590Y549238D01*
X136375Y548863D01*
X136209Y548508D01*
X136091Y548173D01*
X136021Y547857D01*
X136000Y547560D01*
X130060Y553500D01*
X130357Y553521D01*
X130673Y553591D01*
X131008Y553709D01*
X131363Y553875D01*
X131738Y554090D01*
X132132Y554353D01*
X132545Y554665D01*
X133429Y555434D01*
X133900Y555891D01*
X138391Y551400D01*
D02*
G37*
G36*
X134005Y542990D02*
X133831Y542717D01*
X133677Y542397D01*
X133544Y542028D01*
X133431Y541611D01*
X133339Y541147D01*
X133267Y540634D01*
X133185Y539465D01*
X133175Y538809D01*
X126825D01*
X126815Y539465D01*
X126733Y540634D01*
X126661Y541147D01*
X126569Y541611D01*
X126456Y542028D01*
X126323Y542397D01*
X126169Y542717D01*
X125995Y542990D01*
X125800Y543215D01*
X134200D01*
X134005Y542990D01*
D02*
G37*
G36*
X263371Y509252D02*
X263251Y508821D01*
X263145Y508320D01*
X262976Y507107D01*
X262863Y505612D01*
X262799Y502841D01*
X257719Y502406D01*
X257700Y503027D01*
X257640Y503600D01*
X257540Y504124D01*
X257400Y504600D01*
X257220Y505029D01*
X257001Y505409D01*
X256741Y505741D01*
X256442Y506025D01*
X256102Y506261D01*
X255723Y506449D01*
X263505Y509612D01*
X263371Y509252D01*
D02*
G37*
G36*
X1112987Y469520D02*
X1112153Y470343D01*
X1110576Y471728D01*
X1109832Y472291D01*
X1109118Y472767D01*
X1108435Y473157D01*
X1107782Y473460D01*
X1107158Y473677D01*
X1106565Y473807D01*
X1106002Y473850D01*
Y476390D01*
X1106565Y476433D01*
X1107158Y476563D01*
X1107782Y476780D01*
X1108435Y477083D01*
X1109118Y477472D01*
X1109832Y477949D01*
X1110576Y478512D01*
X1112153Y479897D01*
X1112987Y480720D01*
Y469520D01*
D02*
G37*
G36*
X133185Y428035D02*
X133267Y426866D01*
X133339Y426353D01*
X133431Y425889D01*
X133544Y425472D01*
X133677Y425103D01*
X133831Y424783D01*
X134005Y424510D01*
X134200Y424285D01*
X125800D01*
X125995Y424510D01*
X126169Y424783D01*
X126323Y425103D01*
X126456Y425472D01*
X126569Y425889D01*
X126661Y426353D01*
X126733Y426866D01*
X126815Y428035D01*
X126825Y428691D01*
X133175D01*
X133185Y428035D01*
D02*
G37*
G36*
X1328599Y429096D02*
X1329219Y428576D01*
X1329853Y428117D01*
X1330500Y427719D01*
X1331161Y427383D01*
X1331835Y427107D01*
X1332522Y426893D01*
X1333223Y426740D01*
X1333938Y426648D01*
X1334666Y426618D01*
Y421538D01*
X1333938Y421507D01*
X1333223Y421415D01*
X1332522Y421262D01*
X1331835Y421048D01*
X1331161Y420773D01*
X1330500Y420436D01*
X1329853Y420038D01*
X1329219Y419579D01*
X1328599Y419059D01*
X1327993Y418478D01*
Y429678D01*
X1328599Y429096D01*
D02*
G37*
G36*
X252855Y404586D02*
X253137Y404366D01*
X253465Y404173D01*
X253839Y404005D01*
X254258Y403863D01*
X254722Y403747D01*
X255233Y403656D01*
X255788Y403592D01*
X257036Y403540D01*
Y398460D01*
X256389Y398447D01*
X255233Y398344D01*
X254722Y398254D01*
X254258Y398137D01*
X253839Y397995D01*
X253465Y397827D01*
X253137Y397634D01*
X252855Y397414D01*
X252618Y397169D01*
Y404831D01*
X252855Y404586D01*
D02*
G37*
G36*
X1125399Y403696D02*
X1126019Y403176D01*
X1126653Y402717D01*
X1127300Y402319D01*
X1127961Y401983D01*
X1128635Y401707D01*
X1129322Y401493D01*
X1130023Y401340D01*
X1130738Y401248D01*
X1131466Y401218D01*
Y396138D01*
X1130738Y396107D01*
X1130023Y396015D01*
X1129322Y395862D01*
X1128635Y395648D01*
X1127961Y395373D01*
X1127300Y395036D01*
X1126653Y394638D01*
X1126019Y394179D01*
X1125399Y393659D01*
X1124793Y393078D01*
Y404278D01*
X1125399Y403696D01*
D02*
G37*
G36*
X1113366Y367894D02*
X1112760Y368475D01*
X1112140Y368996D01*
X1111506Y369455D01*
X1110859Y369852D01*
X1110199Y370189D01*
X1109525Y370465D01*
X1108837Y370679D01*
X1108136Y370832D01*
X1107421Y370924D01*
X1106693Y370954D01*
Y376034D01*
X1107421Y376065D01*
X1108136Y376157D01*
X1108837Y376310D01*
X1109525Y376524D01*
X1110199Y376799D01*
X1110859Y377136D01*
X1111506Y377533D01*
X1112140Y377993D01*
X1112760Y378513D01*
X1113366Y379094D01*
Y367894D01*
D02*
G37*
G36*
Y342275D02*
X1112760Y342856D01*
X1112140Y343377D01*
X1111506Y343836D01*
X1110859Y344234D01*
X1110199Y344570D01*
X1109525Y344846D01*
X1108837Y345060D01*
X1108136Y345213D01*
X1107421Y345304D01*
X1106693Y345335D01*
Y350415D01*
X1107421Y350446D01*
X1108136Y350538D01*
X1108837Y350691D01*
X1109525Y350905D01*
X1110199Y351180D01*
X1110859Y351517D01*
X1111506Y351914D01*
X1112140Y352374D01*
X1112760Y352894D01*
X1113366Y353475D01*
Y342275D01*
D02*
G37*
G36*
X785715Y305800D02*
X785490Y305995D01*
X785217Y306169D01*
X784897Y306323D01*
X784528Y306456D01*
X784111Y306569D01*
X783647Y306661D01*
X783134Y306733D01*
X781965Y306815D01*
X781309Y306825D01*
Y313175D01*
X781965Y313185D01*
X783134Y313267D01*
X783647Y313339D01*
X784111Y313431D01*
X784528Y313544D01*
X784897Y313677D01*
X785217Y313831D01*
X785490Y314005D01*
X785715Y314200D01*
Y305800D01*
D02*
G37*
G36*
X471391Y209900D02*
X470934Y209429D01*
X470165Y208545D01*
X469854Y208131D01*
X469590Y207738D01*
X469375Y207363D01*
X469209Y207008D01*
X469091Y206673D01*
X469021Y206357D01*
X469000Y206060D01*
X463060Y212000D01*
X463357Y212021D01*
X463673Y212091D01*
X464009Y212209D01*
X464364Y212375D01*
X464738Y212590D01*
X465132Y212853D01*
X465545Y213165D01*
X466429Y213934D01*
X466901Y214391D01*
X471391Y209900D01*
D02*
G37*
G36*
X397510Y197005D02*
X397783Y196831D01*
X398104Y196677D01*
X398472Y196544D01*
X398889Y196431D01*
X399354Y196339D01*
X399866Y196267D01*
X401035Y196185D01*
X401691Y196175D01*
Y189825D01*
X401035Y189815D01*
X399866Y189733D01*
X399354Y189661D01*
X398889Y189569D01*
X398472Y189456D01*
X398104Y189323D01*
X397783Y189169D01*
X397510Y188995D01*
X397285Y188800D01*
Y197200D01*
X397510Y197005D01*
D02*
G37*
G36*
X388715Y188800D02*
X388490Y188995D01*
X388218Y189169D01*
X387897Y189323D01*
X387528Y189456D01*
X387112Y189569D01*
X386647Y189661D01*
X386134Y189733D01*
X384966Y189815D01*
X384309Y189825D01*
Y196175D01*
X384966Y196185D01*
X386134Y196267D01*
X386647Y196339D01*
X387112Y196431D01*
X387528Y196544D01*
X387897Y196677D01*
X388218Y196831D01*
X388490Y197005D01*
X388715Y197200D01*
Y188800D01*
D02*
G37*
G36*
X270510Y197005D02*
X270783Y196831D01*
X271104Y196677D01*
X271472Y196544D01*
X271889Y196431D01*
X272354Y196339D01*
X272866Y196267D01*
X274035Y196185D01*
X274691Y196175D01*
Y189825D01*
X274035Y189815D01*
X272866Y189733D01*
X272354Y189661D01*
X271889Y189569D01*
X271472Y189456D01*
X271104Y189323D01*
X270783Y189169D01*
X270510Y188995D01*
X270285Y188800D01*
Y197200D01*
X270510Y197005D01*
D02*
G37*
G36*
X566935Y151943D02*
X566709Y152111D01*
X566435Y152261D01*
X566113Y152393D01*
X565743Y152508D01*
X565325Y152605D01*
X564859Y152684D01*
X563781Y152790D01*
X563170Y152816D01*
X562511Y152825D01*
X561936Y159175D01*
X562591Y159186D01*
X563754Y159278D01*
X564263Y159358D01*
X564723Y159461D01*
X565134Y159587D01*
X565497Y159735D01*
X565811Y159907D01*
X566076Y160101D01*
X566293Y160319D01*
X566935Y151943D01*
D02*
G37*
G36*
X340828Y129869D02*
X340489Y129556D01*
X340185Y129210D01*
X339916Y128831D01*
X339684Y128418D01*
X339487Y127972D01*
X339326Y127494D01*
X339201Y126982D01*
X339112Y126436D01*
X339058Y125858D01*
X339040Y125246D01*
X333960Y125716D01*
X333945Y126325D01*
X333900Y126906D01*
X333825Y127460D01*
X333720Y127986D01*
X333584Y128485D01*
X333419Y128957D01*
X333224Y129401D01*
X332998Y129818D01*
X332743Y130207D01*
X332458Y130569D01*
X340828Y129869D01*
D02*
G37*
G36*
X509795Y84532D02*
X509858Y83808D01*
X509962Y83120D01*
X510107Y82470D01*
X510294Y81858D01*
X510522Y81283D01*
X510792Y80745D01*
X511103Y80244D01*
X511455Y79781D01*
X511850Y79356D01*
X501350D01*
X501744Y79781D01*
X502097Y80244D01*
X502408Y80745D01*
X502678Y81283D01*
X502906Y81858D01*
X503093Y82470D01*
X503238Y83120D01*
X503342Y83808D01*
X503404Y84532D01*
X503425Y85295D01*
X509775D01*
X509795Y84532D01*
D02*
G37*
G36*
X450444Y68750D02*
X449904Y69265D01*
X449346Y69726D01*
X448770Y70132D01*
X448176Y70484D01*
X447565Y70782D01*
X446936Y71026D01*
X446290Y71216D01*
X445625Y71351D01*
X444943Y71433D01*
X444243Y71460D01*
Y76540D01*
X444943Y76567D01*
X445625Y76648D01*
X446290Y76784D01*
X446936Y76974D01*
X447565Y77217D01*
X448176Y77516D01*
X448770Y77868D01*
X449346Y78274D01*
X449904Y78735D01*
X450444Y79250D01*
Y68750D01*
D02*
G37*
G36*
X1426776Y75738D02*
X1427221Y75364D01*
X1427669Y75035D01*
X1428119Y74751D01*
X1428572Y74513D01*
X1429026Y74320D01*
X1429483Y74171D01*
X1429943Y74069D01*
X1430404Y74011D01*
X1430868Y73998D01*
X1425000Y67988D01*
X1424977Y68452D01*
X1424910Y68913D01*
X1424799Y69371D01*
X1424644Y69828D01*
X1424445Y70282D01*
X1424201Y70734D01*
X1423914Y71184D01*
X1423583Y71631D01*
X1423207Y72076D01*
X1422788Y72518D01*
X1426333Y76158D01*
X1426776Y75738D01*
D02*
G37*
G36*
X1600000Y30000D02*
Y-0D01*
X0D01*
X0Y0D01*
Y30000D01*
X38065D01*
X38232Y28730D01*
X36569Y28284D01*
X34541Y27114D01*
X32886Y25459D01*
X31716Y23431D01*
X31137Y21270D01*
X48863D01*
X48284Y23431D01*
X47114Y25459D01*
X45459Y27114D01*
X43431Y28284D01*
X41768Y28730D01*
X41935Y30000D01*
X798065D01*
X798232Y28730D01*
X796569Y28284D01*
X794541Y27114D01*
X792886Y25459D01*
X791716Y23431D01*
X791137Y21270D01*
X808863D01*
X808284Y23431D01*
X807114Y25459D01*
X805459Y27114D01*
X803431Y28284D01*
X801768Y28730D01*
X801935Y30000D01*
X1548065D01*
X1548232Y28730D01*
X1546569Y28284D01*
X1544541Y27114D01*
X1542886Y25459D01*
X1541716Y23431D01*
X1541137Y21270D01*
X1558863D01*
X1558284Y23431D01*
X1557114Y25459D01*
X1555459Y27114D01*
X1553431Y28284D01*
X1551768Y28730D01*
X1551935Y30000D01*
X1600000D01*
X1600000Y30000D01*
D02*
G37*
%LPC*%
G36*
X1551270Y988863D02*
Y981270D01*
X1558863D01*
X1558284Y983431D01*
X1557114Y985459D01*
X1555459Y987114D01*
X1553431Y988284D01*
X1551270Y988863D01*
D02*
G37*
G36*
X1548730D02*
X1546569Y988284D01*
X1544541Y987114D01*
X1542886Y985459D01*
X1541716Y983431D01*
X1541137Y981270D01*
X1548730D01*
Y988863D01*
D02*
G37*
G36*
X801270D02*
Y981270D01*
X808863D01*
X808284Y983431D01*
X807114Y985459D01*
X805459Y987114D01*
X803431Y988284D01*
X801270Y988863D01*
D02*
G37*
G36*
X798730D02*
X796569Y988284D01*
X794541Y987114D01*
X792886Y985459D01*
X791716Y983431D01*
X791137Y981270D01*
X798730D01*
Y988863D01*
D02*
G37*
G36*
X41270D02*
Y981270D01*
X48863D01*
X48284Y983431D01*
X47114Y985459D01*
X45459Y987114D01*
X43431Y988284D01*
X41270Y988863D01*
D02*
G37*
G36*
X38730D02*
X36569Y988284D01*
X34541Y987114D01*
X32886Y985459D01*
X31716Y983431D01*
X31137Y981270D01*
X38730D01*
Y988863D01*
D02*
G37*
G36*
X1558863Y18730D02*
X1551270D01*
Y11137D01*
X1553431Y11716D01*
X1555459Y12886D01*
X1557114Y14541D01*
X1558284Y16569D01*
X1558863Y18730D01*
D02*
G37*
G36*
X1548730D02*
X1541137D01*
X1541716Y16569D01*
X1542886Y14541D01*
X1544541Y12886D01*
X1546569Y11716D01*
X1548730Y11137D01*
Y18730D01*
D02*
G37*
G36*
X808863D02*
X801270D01*
Y11137D01*
X803431Y11716D01*
X805459Y12886D01*
X807114Y14541D01*
X808284Y16569D01*
X808863Y18730D01*
D02*
G37*
G36*
X798730D02*
X791137D01*
X791716Y16569D01*
X792886Y14541D01*
X794541Y12886D01*
X796569Y11716D01*
X798730Y11137D01*
Y18730D01*
D02*
G37*
G36*
X48863D02*
X41270D01*
Y11137D01*
X43431Y11716D01*
X45459Y12886D01*
X47114Y14541D01*
X48284Y16569D01*
X48863Y18730D01*
D02*
G37*
G36*
X38730D02*
X31137D01*
X31716Y16569D01*
X32886Y14541D01*
X34541Y12886D01*
X36569Y11716D01*
X38730Y11137D01*
Y18730D01*
D02*
G37*
%LPD*%
D27*
X1082000Y213000D02*
X1164000Y295000D01*
X916000Y213000D02*
X916000Y213000D01*
X1082000D01*
X1111000Y270000D02*
X1143000Y302000D01*
X915808Y270000D02*
X1111000D01*
X820000Y553000D02*
X859000D01*
X820000Y553000D02*
X820000Y553000D01*
X842000Y616000D02*
X1084506Y373494D01*
X820000Y616000D02*
X842000D01*
X1118700Y424320D02*
X1153680D01*
X1164000Y295000D02*
Y414000D01*
X1153680Y424320D02*
X1164000Y414000D01*
X1143000Y302000D02*
Y388000D01*
X1132322Y398678D02*
X1143000Y388000D01*
X859000Y553000D02*
X1064125Y347875D01*
X336500Y84500D02*
X347000Y74000D01*
X455800D01*
X336500Y84500D02*
Y133989D01*
X337000Y134489D01*
X1064125Y347875D02*
X1119080D01*
X1084506Y373494D02*
X1119080D01*
X1359000Y173000D02*
X1418069Y113931D01*
X1322280Y424078D02*
X1356024D01*
X1359000Y421102D01*
Y173000D02*
Y421102D01*
X1418069Y80830D02*
Y113931D01*
Y80830D02*
X1430898Y68000D01*
X1381000Y802000D02*
X1479000D01*
X1181120Y602120D02*
X1381000Y802000D01*
X1118700Y602120D02*
X1181120D01*
X1321900Y475120D02*
X1322405Y474615D01*
X1119080Y398678D02*
X1132322D01*
X258000Y510127D02*
Y512000D01*
X260259Y403976D02*
Y507868D01*
X248000Y401000D02*
X257284D01*
X260259Y403976D01*
X258000Y510127D02*
X260259Y507868D01*
X535111Y864603D02*
X589603D01*
X595000Y870000D01*
Y896600D01*
D29*
X946000Y563000D02*
X1033880Y475120D01*
X1118700D01*
D32*
X1500730Y465470D02*
D03*
Y492370D02*
D03*
D33*
Y519270D02*
D03*
D34*
X1118700Y627520D02*
D03*
Y602120D02*
D03*
Y576720D02*
D03*
Y551320D02*
D03*
Y525920D02*
D03*
Y500520D02*
D03*
Y475120D02*
D03*
Y449720D02*
D03*
Y424320D02*
D03*
X1119080Y398678D02*
D03*
Y373494D02*
D03*
Y347875D02*
D03*
X1118700Y322720D02*
D03*
Y297320D02*
D03*
X1321900Y627520D02*
D03*
Y602120D02*
D03*
Y576720D02*
D03*
Y551320D02*
D03*
Y525920D02*
D03*
Y500520D02*
D03*
Y475120D02*
D03*
Y449720D02*
D03*
X1322280Y424078D02*
D03*
Y398894D02*
D03*
Y373275D02*
D03*
X1321900Y348120D02*
D03*
Y322720D02*
D03*
D35*
Y297320D02*
D03*
D36*
X1520772Y88215D02*
D03*
X120000Y305000D02*
D03*
Y635000D02*
D03*
Y835000D02*
D03*
X1439172Y444615D02*
D03*
Y474615D02*
D03*
X506600Y74000D02*
D03*
X481200D02*
D03*
X455800D02*
D03*
X1479000Y827000D02*
D03*
X595000Y896600D02*
D03*
D37*
X1546172Y88215D02*
D03*
X120000Y330000D02*
D03*
Y660000D02*
D03*
Y860000D02*
D03*
X1413772Y444615D02*
D03*
Y474615D02*
D03*
X532000Y74000D02*
D03*
X1479000Y802000D02*
D03*
D38*
X1414270Y222730D02*
D03*
Y182730D02*
D03*
X435000Y800000D02*
D03*
X475000D02*
D03*
X689270Y223270D02*
D03*
Y183270D02*
D03*
X174730Y150270D02*
D03*
Y190270D02*
D03*
D39*
X69000Y381000D02*
D03*
Y279000D02*
D03*
Y609000D02*
D03*
Y711000D02*
D03*
Y809000D02*
D03*
Y911000D02*
D03*
X1530000Y751000D02*
D03*
Y853000D02*
D03*
D40*
X190000Y369000D02*
D03*
D41*
Y330900D02*
D03*
D42*
X247000Y369100D02*
D03*
D43*
Y331000D02*
D03*
D44*
X290900Y360900D02*
D03*
D45*
X316300D02*
D03*
X341700D02*
D03*
X367100D02*
D03*
X290900Y437100D02*
D03*
X316300D02*
D03*
X341700D02*
D03*
X367100D02*
D03*
D47*
X1472772Y408915D02*
D03*
Y396215D02*
D03*
D48*
X595000Y922000D02*
D03*
D49*
X916000Y213000D02*
D03*
X915808Y270000D02*
D03*
X729500Y583000D02*
D03*
X820000Y616000D02*
D03*
Y553000D02*
D03*
X405000Y508000D02*
D03*
X1470000Y309000D02*
D03*
X946000Y563000D02*
D03*
X1466042Y520345D02*
D03*
X1550000Y980000D02*
D03*
X40000D02*
D03*
X800000D02*
D03*
Y20000D02*
D03*
X40000D02*
D03*
X1550000D02*
D03*
D50*
X811500Y241500D02*
D03*
X395500Y426500D02*
D03*
X435033Y383000D02*
D03*
X505033Y425000D02*
D03*
Y453000D02*
D03*
X486033Y468000D02*
D03*
X790000Y310000D02*
D03*
X1409000Y69000D02*
D03*
X1363000Y122000D02*
D03*
X1431000Y68000D02*
D03*
X1428229Y96785D02*
D03*
X570770Y76230D02*
D03*
X248000Y401000D02*
D03*
X517506Y948494D02*
D03*
X1390042Y423345D02*
D03*
X715000Y710000D02*
D03*
X721320Y686320D02*
D03*
X584500Y693250D02*
D03*
X541500Y743250D02*
D03*
X597500Y765250D02*
D03*
X580500Y783250D02*
D03*
X664500Y793250D02*
D03*
X621500D02*
D03*
X640000Y666750D02*
D03*
X665000Y630000D02*
D03*
X130000Y547500D02*
D03*
Y420000D02*
D03*
X199237Y703976D02*
D03*
X822000Y468500D02*
D03*
X777000Y487000D02*
D03*
X785000Y369000D02*
D03*
X713000Y385000D02*
D03*
Y464000D02*
D03*
X791000Y346000D02*
D03*
X678500Y487500D02*
D03*
X651000Y425000D02*
D03*
X266000Y193000D02*
D03*
X393000D02*
D03*
X463000Y206000D02*
D03*
X405000Y317000D02*
D03*
X258000Y512000D02*
D03*
X273000Y484000D02*
D03*
X174000Y843476D02*
D03*
X176000Y797000D02*
D03*
X311000Y858476D02*
D03*
X288000Y796000D02*
D03*
X332237Y718976D02*
D03*
X310237Y658500D02*
D03*
X202237D02*
D03*
X1497042Y436345D02*
D03*
X535111Y864603D02*
D03*
X570886Y156458D02*
D03*
X407000Y159828D02*
D03*
X1472000Y577000D02*
D03*
X386000Y99489D02*
D03*
X292500Y78989D02*
D03*
X337000Y134489D02*
D03*
X619000Y131000D02*
D03*
X668000Y160000D02*
D03*
X467494Y890000D02*
D03*
X421494Y860000D02*
D03*
D52*
X463000Y206000D02*
X567000Y310000D01*
X790000D01*
X506600Y143600D02*
X519000Y156000D01*
X506600Y74000D02*
Y143600D01*
X519000Y156000D02*
X570428D01*
X570886Y156458D01*
X463000Y204282D02*
Y206000D01*
X459825Y201107D02*
X463000Y204282D01*
X459825Y199825D02*
Y201107D01*
X453000Y193000D02*
X459825Y199825D01*
X393000Y193000D02*
X453000D01*
X266000D02*
X393000D01*
X450000Y630000D02*
X665000D01*
X436280Y575000D02*
X440000Y578720D01*
Y620000D01*
X157500Y575000D02*
X436280D01*
X440000Y620000D02*
X450000Y630000D01*
X130000Y547500D02*
X157500Y575000D01*
X130000Y420000D02*
Y547500D01*
%TF.MD5,c57ad194f4f862581bb4b9e3840a35b5*%
M02*
