%TF.GenerationSoftware,Altium Limited,Altium Designer,22.5.1 (42)*%
G04 Layer_Color=65535*
%FSLAX44Y44*%
%MOMM*%
%TF.SameCoordinates,EDF0C4A9-A600-4E9B-A30B-1A7791E2F720*%
%TF.FilePolarity,Positive*%
%TF.FileFunction,Legend,Top*%
%TF.Part,Single*%
G01*
G75*
%TA.AperFunction,NonConductor*%
%ADD65C,0.1524*%
%ADD66C,0.0250*%
%ADD67C,0.2000*%
%ADD68C,0.1000*%
%ADD69C,0.2540*%
%ADD70C,0.0250*%
%ADD71C,0.0762*%
%ADD72C,0.2032*%
G36*
X436181Y878095D02*
X433641D01*
Y881905D01*
X436181D01*
Y878095D01*
D02*
G37*
G36*
X985585Y783971D02*
X984673D01*
Y782146D01*
X983761D01*
Y780322D01*
X982849D01*
Y778498D01*
X981937D01*
Y776673D01*
X981024D01*
Y775761D01*
X980112D01*
Y773937D01*
X979200D01*
Y772112D01*
X978288D01*
Y770288D01*
X977376D01*
Y769376D01*
X976463D01*
Y767551D01*
X975551D01*
Y765727D01*
X974639D01*
Y764815D01*
X973727D01*
Y762990D01*
X972815D01*
Y761166D01*
X971902D01*
Y759342D01*
X970990D01*
Y758429D01*
X970078D01*
Y756605D01*
X969166D01*
Y754781D01*
X968254D01*
Y753868D01*
X967341D01*
Y752044D01*
X966429D01*
Y750219D01*
X965517D01*
Y748395D01*
X964605D01*
Y746571D01*
X963693D01*
Y744746D01*
X962781D01*
Y743834D01*
X961868D01*
Y742922D01*
X960956D01*
Y742010D01*
X956395D01*
Y741098D01*
X937239D01*
Y742010D01*
X816829D01*
Y743834D01*
X815917D01*
Y744746D01*
X815005D01*
Y746571D01*
X814093D01*
Y748395D01*
X813180D01*
Y750219D01*
X812268D01*
Y751132D01*
X811356D01*
Y752956D01*
X810444D01*
Y754781D01*
X809532D01*
Y756605D01*
X808620D01*
Y757517D01*
X807707D01*
Y759342D01*
X806795D01*
Y761166D01*
X805883D01*
Y762078D01*
X804971D01*
Y763902D01*
X804059D01*
Y765727D01*
X803146D01*
Y766639D01*
X802234D01*
Y768463D01*
X801322D01*
Y770288D01*
X800410D01*
Y771200D01*
X799498D01*
Y773024D01*
X798585D01*
Y774849D01*
X797673D01*
Y775761D01*
X796761D01*
Y777585D01*
X795849D01*
Y779410D01*
X794937D01*
Y780322D01*
X794024D01*
Y782146D01*
X793112D01*
Y783971D01*
X792200D01*
Y785795D01*
X985585D01*
Y783971D01*
D02*
G37*
G36*
X859702Y736537D02*
X862439D01*
Y735624D01*
X864263D01*
Y734712D01*
X866088D01*
Y733800D01*
X867000D01*
Y732888D01*
X867912D01*
Y731976D01*
X868824D01*
Y730151D01*
X869737D01*
Y726502D01*
X861527D01*
Y727415D01*
X860615D01*
Y728327D01*
X859702D01*
Y729239D01*
X858790D01*
Y730151D01*
X857878D01*
Y731063D01*
X849668D01*
Y730151D01*
X848756D01*
Y729239D01*
X847844D01*
Y726502D01*
X848756D01*
Y725590D01*
X849668D01*
Y724678D01*
X853317D01*
Y723766D01*
X856966D01*
Y722854D01*
X859702D01*
Y721942D01*
X862439D01*
Y721029D01*
X865176D01*
Y720117D01*
X866088D01*
Y719205D01*
X867912D01*
Y718293D01*
X868824D01*
Y717381D01*
X869737D01*
Y716468D01*
X870649D01*
Y713732D01*
X871561D01*
Y710083D01*
X870649D01*
Y707346D01*
X869737D01*
Y706434D01*
X868824D01*
Y705522D01*
X867912D01*
Y704610D01*
X867000D01*
Y703698D01*
X865176D01*
Y702785D01*
X863351D01*
Y701873D01*
X859702D01*
Y700961D01*
X849668D01*
Y701873D01*
X846020D01*
Y702785D01*
X844195D01*
Y703698D01*
X842371D01*
Y704610D01*
X841459D01*
Y705522D01*
X840546D01*
Y706434D01*
X839634D01*
Y707346D01*
X838722D01*
Y710083D01*
X837810D01*
Y713732D01*
X846020D01*
Y710083D01*
X846932D01*
Y709171D01*
X847844D01*
Y708259D01*
X855141D01*
Y707346D01*
X858790D01*
Y708259D01*
X861527D01*
Y710083D01*
X862439D01*
Y713732D01*
X861527D01*
Y714644D01*
X856966D01*
Y715556D01*
X853317D01*
Y716468D01*
X849668D01*
Y717381D01*
X846932D01*
Y718293D01*
X845107D01*
Y719205D01*
X843283D01*
Y720117D01*
X841459D01*
Y721029D01*
X840546D01*
Y722854D01*
X839634D01*
Y724678D01*
X838722D01*
Y730151D01*
X839634D01*
Y731063D01*
X840546D01*
Y731976D01*
Y732888D01*
X841459D01*
Y733800D01*
X843283D01*
Y734712D01*
X844195D01*
Y735624D01*
X846020D01*
Y736537D01*
X848756D01*
Y737449D01*
X859702D01*
Y736537D01*
D02*
G37*
G36*
X979200Y735624D02*
X978288D01*
Y733800D01*
X977376D01*
Y731976D01*
X976463D01*
Y730151D01*
X975551D01*
Y729239D01*
X974639D01*
Y727415D01*
X973727D01*
Y726502D01*
X972815D01*
Y724678D01*
X971902D01*
Y723766D01*
X970990D01*
Y722854D01*
X970078D01*
Y721029D01*
X969166D01*
Y720117D01*
X968254D01*
Y718293D01*
X967341D01*
Y716468D01*
X966429D01*
Y712820D01*
X965517D01*
Y703698D01*
Y702785D01*
Y701873D01*
X956395D01*
Y702785D01*
X957307D01*
Y706434D01*
X956395D01*
Y712820D01*
X955483D01*
Y715556D01*
X954571D01*
Y717381D01*
X953659D01*
Y719205D01*
X952746D01*
Y721029D01*
X951834D01*
Y722854D01*
X950922D01*
Y723766D01*
X950010D01*
Y725590D01*
X949098D01*
Y726502D01*
X948185D01*
Y727415D01*
X947273D01*
Y729239D01*
X946361D01*
Y730151D01*
X945449D01*
Y731063D01*
X944537D01*
Y732888D01*
X943624D01*
Y734712D01*
X942712D01*
Y736537D01*
X951834D01*
Y735624D01*
X952746D01*
Y734712D01*
X953659D01*
Y733800D01*
X954571D01*
Y731976D01*
X955483D01*
Y731063D01*
X956395D01*
Y729239D01*
X957307D01*
Y728327D01*
X958220D01*
Y726502D01*
X959132D01*
Y724678D01*
X960044D01*
Y723766D01*
X962781D01*
Y725590D01*
X963693D01*
Y727415D01*
X964605D01*
Y729239D01*
X965517D01*
Y731063D01*
X966429D01*
Y731976D01*
X967341D01*
Y733800D01*
X968254D01*
Y734712D01*
X969166D01*
Y735624D01*
X970078D01*
Y736537D01*
X979200D01*
Y735624D01*
D02*
G37*
G36*
X908049Y701873D02*
X899839D01*
Y717381D01*
X883419D01*
Y706434D01*
Y705522D01*
Y701873D01*
X874297D01*
Y736537D01*
X883419D01*
Y723766D01*
X899839D01*
Y736537D01*
X908049D01*
Y701873D01*
D02*
G37*
G36*
X823215Y735624D02*
X822302D01*
Y732888D01*
X821390D01*
Y730151D01*
X820478D01*
Y727415D01*
X819566D01*
Y724678D01*
X818654D01*
Y721942D01*
X817741D01*
Y719205D01*
X816829D01*
Y717381D01*
X815917D01*
Y714644D01*
X815005D01*
Y711907D01*
X814093D01*
Y710083D01*
X813180D01*
Y707346D01*
X812268D01*
Y705522D01*
X811356D01*
Y702785D01*
X810444D01*
Y701873D01*
X800410D01*
Y703698D01*
X799498D01*
Y705522D01*
X798585D01*
Y708259D01*
X797673D01*
Y710083D01*
X796761D01*
Y712820D01*
X795849D01*
Y714644D01*
X794937D01*
Y717381D01*
X794024D01*
Y719205D01*
X793112D01*
Y721942D01*
X792200D01*
Y724678D01*
X791288D01*
Y726502D01*
X790376D01*
Y729239D01*
X789463D01*
Y731976D01*
X788551D01*
Y734712D01*
X787639D01*
Y735624D01*
Y736537D01*
X796761D01*
Y734712D01*
X797673D01*
Y731976D01*
X798585D01*
Y730151D01*
X799498D01*
Y727415D01*
X800410D01*
Y725590D01*
X801322D01*
Y722854D01*
X802234D01*
Y721029D01*
X803146D01*
Y718293D01*
X804059D01*
Y715556D01*
X804971D01*
Y714644D01*
X806795D01*
Y717381D01*
X807707D01*
Y719205D01*
X808620D01*
Y721942D01*
X809532D01*
Y723766D01*
X810444D01*
Y726502D01*
X811356D01*
Y729239D01*
X812268D01*
Y731976D01*
X813180D01*
Y734712D01*
X814093D01*
Y736537D01*
X823215D01*
Y735624D01*
D02*
G37*
G36*
X653136Y712095D02*
X650596D01*
Y715905D01*
X653136D01*
Y712095D01*
D02*
G37*
G36*
X934502Y734712D02*
X935415D01*
Y732888D01*
X936327D01*
Y731063D01*
X937239D01*
Y728327D01*
X938151D01*
Y726502D01*
X939063D01*
Y724678D01*
X939976D01*
Y721942D01*
X940888D01*
Y720117D01*
X941800D01*
Y718293D01*
X942712D01*
Y716468D01*
X943624D01*
Y713732D01*
X944537D01*
Y711907D01*
X945449D01*
Y710083D01*
X946361D01*
Y707346D01*
X947273D01*
Y705522D01*
X948185D01*
Y701873D01*
X939063D01*
Y703698D01*
X938151D01*
Y706434D01*
X937239D01*
Y709171D01*
X921732D01*
Y708259D01*
X920819D01*
Y706434D01*
X919907D01*
Y703698D01*
X918995D01*
Y701873D01*
X910785D01*
Y704610D01*
X911697D01*
Y707346D01*
X912610D01*
Y710083D01*
X913522D01*
Y711907D01*
X914434D01*
Y714644D01*
X915346D01*
Y716468D01*
X916258D01*
Y718293D01*
X917171D01*
Y721029D01*
X918083D01*
Y722854D01*
X918995D01*
Y724678D01*
X919907D01*
Y726502D01*
X920819D01*
Y729239D01*
X921732D01*
Y731063D01*
X922644D01*
Y732888D01*
X923556D01*
Y734712D01*
X924468D01*
Y736537D01*
X934502D01*
Y734712D01*
D02*
G37*
G36*
X834161Y724678D02*
Y723766D01*
Y701873D01*
X825039D01*
Y736537D01*
X834161D01*
Y724678D01*
D02*
G37*
G36*
X977376Y711907D02*
X981024D01*
Y710995D01*
X981937D01*
Y710083D01*
X982849D01*
Y702785D01*
X981937D01*
Y701873D01*
X980112D01*
Y700961D01*
X974639D01*
Y701873D01*
X972815D01*
Y703698D01*
X971902D01*
Y710083D01*
X972815D01*
Y710995D01*
X973727D01*
Y711907D01*
X975551D01*
Y712820D01*
X977376D01*
Y711907D01*
D02*
G37*
G36*
X932678Y694576D02*
X931766D01*
Y692751D01*
X930854D01*
Y690927D01*
X929941D01*
Y690015D01*
Y689102D01*
X929029D01*
Y687278D01*
X928117D01*
Y686366D01*
X927205D01*
Y684541D01*
X926293D01*
Y682717D01*
X925380D01*
Y681805D01*
X924468D01*
Y679980D01*
X923556D01*
Y678156D01*
X922644D01*
Y676332D01*
X921732D01*
Y675419D01*
X920819D01*
Y673595D01*
X919907D01*
Y671771D01*
X918995D01*
Y670859D01*
X918083D01*
Y669034D01*
X917171D01*
Y667210D01*
X916258D01*
Y666298D01*
X915346D01*
Y664473D01*
X914434D01*
Y662649D01*
X913522D01*
Y660824D01*
X912610D01*
Y659912D01*
X911697D01*
Y658088D01*
X910785D01*
Y656263D01*
X909873D01*
Y655351D01*
X908961D01*
Y653527D01*
X908049D01*
Y651702D01*
X907137D01*
Y650790D01*
X906224D01*
Y648966D01*
X905312D01*
Y647141D01*
X904400D01*
Y646229D01*
X903488D01*
Y644405D01*
X902576D01*
Y642580D01*
X901663D01*
Y641668D01*
X900751D01*
Y639844D01*
X899839D01*
Y638019D01*
X898927D01*
Y637107D01*
X898015D01*
Y635283D01*
X897102D01*
Y633459D01*
X896190D01*
Y632546D01*
X895278D01*
Y630722D01*
X894366D01*
Y628898D01*
X893454D01*
Y627985D01*
X892541D01*
Y626161D01*
X891629D01*
Y624337D01*
X890717D01*
Y623424D01*
X889805D01*
Y622512D01*
X887068D01*
Y624337D01*
X886156D01*
Y625249D01*
X885244D01*
Y627073D01*
X884332D01*
Y628898D01*
X883419D01*
Y630722D01*
X882507D01*
Y631634D01*
X881595D01*
Y633459D01*
X880683D01*
Y635283D01*
X879771D01*
Y636195D01*
X878858D01*
Y638019D01*
X877946D01*
Y639844D01*
X877034D01*
Y641668D01*
X876122D01*
Y642580D01*
X875210D01*
Y644405D01*
X874297D01*
Y646229D01*
X873385D01*
Y648054D01*
X872473D01*
Y648966D01*
X871561D01*
Y650790D01*
X870649D01*
Y652615D01*
X869737D01*
Y653527D01*
X868824D01*
Y655351D01*
X867912D01*
Y657176D01*
X867000D01*
Y659000D01*
X866088D01*
Y659912D01*
X865176D01*
Y661737D01*
X864263D01*
Y663561D01*
X863351D01*
Y664473D01*
X862439D01*
Y666298D01*
X861527D01*
Y668122D01*
X860615D01*
Y669034D01*
X859702D01*
Y670859D01*
X858790D01*
Y672683D01*
X857878D01*
Y674507D01*
X856966D01*
Y675419D01*
X856054D01*
Y677244D01*
X855141D01*
Y679068D01*
X854229D01*
Y679980D01*
X853317D01*
Y681805D01*
X852405D01*
Y683629D01*
X851493D01*
Y684541D01*
X850581D01*
Y686366D01*
X849668D01*
Y687278D01*
X848756D01*
Y689102D01*
X847844D01*
Y690927D01*
X846932D01*
Y691839D01*
X846020D01*
Y693663D01*
X845107D01*
Y695488D01*
X844195D01*
Y697312D01*
X932678D01*
Y694576D01*
D02*
G37*
G36*
X770656Y403845D02*
X768116D01*
Y407655D01*
X770656D01*
Y403845D01*
D02*
G37*
G36*
X652853Y139095D02*
X650313D01*
Y142905D01*
X652853D01*
Y139095D01*
D02*
G37*
G36*
X370853Y135834D02*
X368313D01*
Y139644D01*
X370853D01*
Y135834D01*
D02*
G37*
%LPC*%
G36*
X929941Y727415D02*
X928117D01*
Y726502D01*
X927205D01*
Y723766D01*
X926293D01*
Y721029D01*
X925380D01*
Y718293D01*
X924468D01*
Y715556D01*
X934502D01*
Y717381D01*
X933590D01*
Y718293D01*
Y720117D01*
X932678D01*
Y721942D01*
X931766D01*
Y724678D01*
X930854D01*
Y726502D01*
X929941D01*
Y727415D01*
D02*
G37*
G36*
X981024Y710995D02*
X974639D01*
Y710083D01*
X975551D01*
Y709171D01*
X976463D01*
Y707346D01*
X978288D01*
Y705522D01*
X979200D01*
Y704610D01*
X981024D01*
Y705522D01*
X981937D01*
Y709171D01*
X981024D01*
Y710995D01*
D02*
G37*
%LPD*%
D65*
X1490291Y516220D02*
G03*
X1485376Y513396I10439J-23850D01*
G01*
X1510765Y468347D02*
G03*
X1511169Y516220I-10035J24023D01*
G01*
X1485376Y471344D02*
G03*
X1490695Y468347I15354J21026D01*
G01*
X1502000Y536185D02*
G03*
X1502000Y536185I-1270J0D01*
G01*
X203970Y377636D02*
G03*
X176030Y377636I-13970J0D01*
G01*
Y322264D02*
G03*
X190000Y308294I13970J0D01*
G01*
D02*
G03*
X203970Y322264I0J13970D01*
G01*
X1474042Y452730D02*
G03*
X1474042Y452730I-1270J0D01*
G01*
X1457418Y387889D02*
G03*
X1472772Y382880I15354J21026D01*
G01*
D02*
G03*
X1457418Y429940I0J26035D01*
G01*
X784319Y574999D02*
Y591001D01*
X759681Y574999D02*
Y591001D01*
X868069Y233749D02*
Y249751D01*
X843431Y233749D02*
Y249751D01*
X1484855Y472370D02*
Y512370D01*
X439000Y469510D02*
X459066D01*
X439000Y449368D02*
Y456632D01*
Y436490D02*
X459066D01*
X1411465Y113549D02*
X1444993D01*
X1411465Y80021D02*
X1444993D01*
X594376Y756520D02*
X630624D01*
X594376Y703980D02*
X630624D01*
X709590Y448797D02*
X748410D01*
X709590Y395203D02*
X748410D01*
X203970Y322264D02*
Y377636D01*
X176030Y322264D02*
Y377636D01*
X232395Y310680D02*
X261605D01*
X232395D02*
Y389420D01*
X261605D01*
Y310680D02*
Y389420D01*
X254230Y292770D02*
X257720D01*
X274281D02*
X308520D01*
X325081D02*
X333920D01*
X350481D02*
X359320D01*
X375881D02*
X384720D01*
X401281Y217230D02*
X404770D01*
X375881D02*
X384720D01*
X350481D02*
X359320D01*
X325081D02*
X333920D01*
X274281D02*
X308520D01*
X254230D02*
X257720D01*
X254230D02*
Y292770D01*
X401281D02*
X404770D01*
Y217230D02*
Y292770D01*
X418980Y217480D02*
Y248520D01*
X435020Y217480D02*
Y248520D01*
X181480Y622020D02*
X212520D01*
X181480Y605980D02*
X212520D01*
X181480Y603020D02*
X212520D01*
X181480Y586980D02*
X212520D01*
X237770Y555280D02*
Y558770D01*
Y504480D02*
Y538720D01*
Y479080D02*
Y487920D01*
Y453680D02*
Y462520D01*
Y428280D02*
Y437120D01*
X162230Y408230D02*
Y411720D01*
Y428280D02*
Y437120D01*
Y453680D02*
Y462520D01*
Y479080D02*
Y487920D01*
Y504480D02*
Y538720D01*
Y555280D02*
Y558770D01*
X237770D01*
Y408230D02*
Y411720D01*
X162230Y408230D02*
X237770D01*
X440980Y227480D02*
Y258520D01*
X457020Y227480D02*
Y258520D01*
X241967Y815490D02*
X262033D01*
Y828367D02*
Y835632D01*
X241967Y848510D02*
X262033D01*
X266204Y709010D02*
X286270D01*
Y688868D02*
Y696133D01*
X266204Y675990D02*
X286270D01*
X1456897Y388915D02*
Y428915D01*
X320236Y112518D02*
X353764D01*
X320236Y156460D02*
X353764D01*
X602236Y147764D02*
X635764D01*
X602236Y114236D02*
X635764D01*
X450730Y873236D02*
X484258D01*
X450730Y906764D02*
X484258D01*
D66*
X-159000Y330000D02*
G03*
X-159000Y330000I-10000J0D01*
G01*
Y660000D02*
G03*
X-159000Y660000I-10000J0D01*
G01*
Y860000D02*
G03*
X-159000Y860000I-10000J0D01*
G01*
X1778000Y802000D02*
G03*
X1778000Y802000I-10000J0D01*
G01*
X-91000Y392500D02*
X-81000Y267500D01*
Y392500D02*
X-71000Y267500D01*
Y392500D02*
X-61000Y267500D01*
Y392500D02*
X-51000Y267500D01*
Y392500D02*
X-41000Y267500D01*
Y392500D02*
X-31000Y267500D01*
Y392500D02*
X-21000Y267500D01*
Y392500D02*
X-11000Y267500D01*
X10000Y271000D02*
Y389000D01*
Y601000D02*
Y719000D01*
X-21000Y722500D02*
X-11000Y597500D01*
X-31000Y722500D02*
X-21000Y597500D01*
X-41000Y722500D02*
X-31000Y597500D01*
X-51000Y722500D02*
X-41000Y597500D01*
X-61000Y722500D02*
X-51000Y597500D01*
X-71000Y722500D02*
X-61000Y597500D01*
X-81000Y722500D02*
X-71000Y597500D01*
X-91000Y722500D02*
X-81000Y597500D01*
X10000Y801000D02*
Y919000D01*
X-21000Y922500D02*
X-11000Y797500D01*
X-31000Y922500D02*
X-21000Y797500D01*
X-41000Y922500D02*
X-31000Y797500D01*
X-51000Y922500D02*
X-41000Y797500D01*
X-61000Y922500D02*
X-51000Y797500D01*
X-71000Y922500D02*
X-61000Y797500D01*
X-81000Y922500D02*
X-71000Y797500D01*
X-91000Y922500D02*
X-81000Y797500D01*
X1680000Y864500D02*
X1690000Y739500D01*
X1670000Y864500D02*
X1680000Y739500D01*
X1660000Y864500D02*
X1670000Y739500D01*
X1650000Y864500D02*
X1660000Y739500D01*
X1640000Y864500D02*
X1650000Y739500D01*
X1630000Y864500D02*
X1640000Y739500D01*
X1620000Y864500D02*
X1630000Y739500D01*
X1610000Y864500D02*
X1620000Y739500D01*
X1589000Y743000D02*
Y861000D01*
D67*
X274000Y392650D02*
G03*
X274000Y405350I0J6350D01*
G01*
X1508072Y75515D02*
X1558872D01*
Y100915D01*
X1508072D02*
X1558872D01*
X1508072Y75515D02*
Y100915D01*
X139000Y256000D02*
Y404000D01*
X-2000Y256000D02*
X139000D01*
X-2000D02*
Y267500D01*
X-91000D02*
X-2000D01*
X-91000D02*
Y282000D01*
X-210000D02*
X-91000D01*
X-210000D02*
Y378000D01*
X-91000D01*
Y392500D01*
X-2000D01*
Y404000D01*
X139000D01*
X-2000Y267500D02*
Y392500D01*
X-91000Y282000D02*
Y378000D01*
Y612000D02*
Y708000D01*
X-2000Y597500D02*
Y722500D01*
Y734000D02*
X139000D01*
X-2000Y722500D02*
Y734000D01*
X-91000Y722500D02*
X-2000D01*
X-91000Y708000D02*
Y722500D01*
X-210000Y708000D02*
X-91000D01*
X-210000Y612000D02*
Y708000D01*
Y612000D02*
X-91000D01*
Y597500D02*
Y612000D01*
Y597500D02*
X-2000D01*
Y586000D02*
Y597500D01*
Y586000D02*
X139000D01*
Y734000D01*
X-91000Y812000D02*
Y908000D01*
X-2000Y797500D02*
Y922500D01*
Y934000D02*
X139000D01*
X-2000Y922500D02*
Y934000D01*
X-91000Y922500D02*
X-2000D01*
X-91000Y908000D02*
Y922500D01*
X-210000Y908000D02*
X-91000D01*
X-210000Y812000D02*
Y908000D01*
Y812000D02*
X-91000D01*
Y797500D02*
Y812000D01*
Y797500D02*
X-2000D01*
Y786000D02*
Y797500D01*
Y786000D02*
X139000D01*
Y934000D01*
X274000Y372500D02*
Y392650D01*
Y405350D02*
Y425500D01*
X384000Y372500D02*
Y425500D01*
X274000Y372500D02*
X384000D01*
X274000Y425500D02*
X384000D01*
X1401072Y457315D02*
X1451872D01*
X1401072Y431915D02*
Y457315D01*
Y431915D02*
X1451872D01*
Y457315D01*
X1401072Y487315D02*
X1451872D01*
X1401072Y461915D02*
Y487315D01*
Y461915D02*
X1451872D01*
Y487315D01*
X443100Y61300D02*
Y86700D01*
X544700D01*
X443100Y61300D02*
X544700D01*
Y86700D01*
X1460000Y728000D02*
Y876000D01*
X1601000D01*
Y864500D02*
Y876000D01*
Y864500D02*
X1690000D01*
Y850000D02*
Y864500D01*
Y850000D02*
X1809000D01*
Y754000D02*
Y850000D01*
X1690000Y754000D02*
X1809000D01*
X1690000Y739500D02*
Y754000D01*
X1601000Y739500D02*
X1690000D01*
X1601000Y728000D02*
Y739500D01*
X1460000Y728000D02*
X1601000D01*
Y739500D02*
Y864500D01*
X1690000Y754000D02*
Y850000D01*
X582300Y883900D02*
X607700D01*
X582300D02*
Y934700D01*
X607700D01*
Y883900D02*
Y934700D01*
D68*
X332000Y762000D02*
X340000D01*
X332000Y780000D02*
X340000D01*
X358000Y616000D02*
X366000D01*
X358000Y634000D02*
X366000D01*
X739000Y625000D02*
X747000D01*
X739000Y607000D02*
X747000D01*
X739999Y561755D02*
X747999D01*
X739999Y543755D02*
X747999D01*
X781000Y607000D02*
X789000D01*
X781000Y625000D02*
X789000D01*
X782000Y544000D02*
X790000D01*
X782000Y562000D02*
X790000D01*
X821000Y279000D02*
X829000D01*
X821000Y261000D02*
X829000D01*
X821000Y222000D02*
X829000D01*
X821000Y204000D02*
X829000D01*
X866000Y204000D02*
X874000D01*
X866000Y222000D02*
X874000D01*
X865000Y279000D02*
X873000D01*
X865000Y261000D02*
X873000D01*
X414000Y472000D02*
Y480000D01*
X396000Y472000D02*
Y480000D01*
X444033Y409000D02*
Y417000D01*
X426033Y409000D02*
Y417000D01*
X445033Y493000D02*
X453033D01*
X445033Y475000D02*
X453033D01*
X472033Y414000D02*
X480033D01*
X472033Y396000D02*
X480033D01*
X495033Y435000D02*
Y443000D01*
X477033Y435000D02*
Y443000D01*
X1444000Y302142D02*
Y315858D01*
X1393000Y318000D02*
X1401000D01*
X1393000Y300000D02*
X1401000D01*
X1393000Y293000D02*
X1401000D01*
X1393000Y275000D02*
X1401000D01*
X1444000Y277142D02*
Y290858D01*
X1399000Y586000D02*
X1407000D01*
X1399000Y568000D02*
X1407000D01*
X1446000Y570142D02*
Y583858D01*
X1395229Y88785D02*
Y96785D01*
X1377229Y88785D02*
Y96785D01*
X1372229Y88785D02*
Y96785D01*
X1354229Y88785D02*
Y96785D01*
X1479229Y89785D02*
Y97785D01*
X1461229Y89785D02*
Y97785D01*
X549500Y710250D02*
Y718250D01*
X531500Y710250D02*
Y718250D01*
X571500Y710250D02*
Y718250D01*
X553500Y710250D02*
Y718250D01*
Y766250D02*
Y774250D01*
X571500Y766250D02*
Y774250D01*
X622500Y698250D02*
X630500D01*
X622500Y680250D02*
X630500D01*
X650500Y775250D02*
Y783250D01*
X632500Y775250D02*
Y783250D01*
X654500Y686250D02*
Y694250D01*
X672500Y686250D02*
Y694250D01*
X655500Y759250D02*
Y767250D01*
X673500Y759250D02*
Y767250D01*
X680500Y743250D02*
Y751250D01*
X698500Y743250D02*
Y751250D01*
X740000Y473000D02*
X748000D01*
X740000Y455000D02*
X748000D01*
X740000Y496000D02*
X748000D01*
X740000Y478000D02*
X748000D01*
X810000Y451000D02*
Y459000D01*
X792000Y451000D02*
Y459000D01*
X788000Y451000D02*
Y459000D01*
X770000Y451000D02*
Y459000D01*
X661000Y476000D02*
X669000D01*
X661000Y458000D02*
X669000D01*
X671000Y398000D02*
Y406000D01*
X689000Y398000D02*
Y406000D01*
X661000Y454000D02*
X669000D01*
X661000Y436000D02*
X669000D01*
X744000Y373000D02*
X752000D01*
X744000Y391000D02*
X752000D01*
X744000Y351000D02*
X752000D01*
X744000Y369000D02*
X752000D01*
X776000Y395000D02*
Y403000D01*
X794000Y395000D02*
Y403000D01*
X377000Y327000D02*
X385000D01*
X377000Y345000D02*
X385000D01*
X154000Y340000D02*
Y348000D01*
X172000Y340000D02*
Y348000D01*
X403000Y370000D02*
X411000D01*
X403000Y352000D02*
X411000D01*
X209000Y340000D02*
Y348000D01*
X227000Y340000D02*
Y348000D01*
X351000Y454000D02*
X359000D01*
X351000Y472000D02*
X359000D01*
X299000Y493000D02*
X307000D01*
X299000Y475000D02*
X307000D01*
X299000Y472000D02*
X307000D01*
X299000Y454000D02*
X307000D01*
X248000Y806000D02*
X256000D01*
X248000Y788000D02*
X256000D01*
X320000Y825000D02*
Y833000D01*
X302000Y825000D02*
Y833000D01*
X297000Y825000D02*
Y833000D01*
X279000Y825000D02*
Y833000D01*
X226000Y826000D02*
Y834000D01*
X208000Y826000D02*
Y834000D01*
X203000Y826000D02*
Y834000D01*
X185000Y826000D02*
Y834000D01*
X203000Y788000D02*
X211000D01*
X203000Y806000D02*
X211000D01*
X229237Y667500D02*
X237237D01*
X229237Y649500D02*
X237237D01*
X210237Y686500D02*
Y694500D01*
X228237Y686500D02*
Y694500D01*
X232237Y686500D02*
Y694500D01*
X250237Y686500D02*
Y694500D01*
X272237Y649500D02*
X280237D01*
X272237Y667500D02*
X280237D01*
X323237Y685500D02*
Y693500D01*
X341237Y685500D02*
Y693500D01*
X301237Y685500D02*
Y693500D01*
X319237Y685500D02*
Y693500D01*
X1403772Y405615D02*
Y413615D01*
X1421772Y405615D02*
Y413615D01*
X1457042Y484345D02*
Y492345D01*
X1475042Y484345D02*
Y492345D01*
X1448772Y405615D02*
Y413615D01*
X1430772Y405615D02*
Y413615D01*
X395000Y126489D02*
Y134489D01*
X377000Y126489D02*
Y134489D01*
X416000Y126489D02*
Y134489D01*
X398000Y126489D02*
Y134489D01*
X346000Y69489D02*
X354000D01*
X346000Y87489D02*
X354000D01*
X346000Y108489D02*
X354000D01*
X346000Y90489D02*
X354000D01*
X302000Y108489D02*
X310000D01*
X302000Y90489D02*
X310000D01*
X301000Y132489D02*
Y140489D01*
X283000Y132489D02*
Y140489D01*
X658000Y124000D02*
Y132000D01*
X676000Y124000D02*
Y132000D01*
X562000Y124000D02*
Y132000D01*
X580000Y124000D02*
Y132000D01*
Y88000D02*
X588000D01*
X580000Y106000D02*
X588000D01*
X624000Y87000D02*
X632000D01*
X624000Y69000D02*
X632000D01*
X624000Y90000D02*
X632000D01*
X624000Y108000D02*
X632000D01*
X624000Y169000D02*
X632000D01*
X624000Y151000D02*
X632000D01*
X526494Y888000D02*
Y896000D01*
X508494Y888000D02*
Y896000D01*
X500000Y935000D02*
X508000D01*
X500000Y917000D02*
X508000D01*
X454494Y931000D02*
X462494D01*
X454494Y913000D02*
X462494D01*
X454494Y934000D02*
X462494D01*
X454494Y952000D02*
X462494D01*
X454494Y851000D02*
X462494D01*
X454494Y869000D02*
X462494D01*
X430494Y889000D02*
Y897000D01*
X412494Y889000D02*
Y897000D01*
D69*
X1080000Y862600D02*
X1360000D01*
X1320680Y232600D02*
X1360000D01*
X1080000D02*
X1119320D01*
Y150000D02*
Y232600D01*
X1080000D02*
Y862600D01*
X1320680Y150000D02*
Y232600D01*
X1119320Y150000D02*
X1320680D01*
X1360000Y232600D02*
Y862600D01*
D70*
X10000Y389000D02*
X90000D01*
Y271000D02*
Y389000D01*
X10000Y271000D02*
X90000D01*
X-2000Y256000D02*
Y267500D01*
Y256000D02*
X139000D01*
Y404000D01*
X-2000D02*
X139000D01*
X-2000Y392500D02*
Y404000D01*
X-91000Y267500D02*
Y282000D01*
Y267500D02*
X-2000D01*
Y392500D01*
X-91000D02*
X-2000D01*
X-91000Y378000D02*
Y392500D01*
X-210000Y378000D02*
X-91000D01*
Y282000D02*
Y378000D01*
X-210000Y282000D02*
X-91000D01*
X-210000D02*
Y378000D01*
Y612000D02*
Y708000D01*
Y612000D02*
X-91000D01*
Y708000D01*
X-210000D02*
X-91000D01*
Y722500D01*
X-2000D01*
Y597500D02*
Y722500D01*
X-91000Y597500D02*
X-2000D01*
X-91000D02*
Y612000D01*
X-2000Y722500D02*
Y734000D01*
X139000D01*
Y586000D02*
Y734000D01*
X-2000Y586000D02*
X139000D01*
X-2000D02*
Y597500D01*
X10000Y601000D02*
X90000D01*
Y719000D01*
X10000D02*
X90000D01*
X-210000Y812000D02*
Y908000D01*
Y812000D02*
X-91000D01*
Y908000D01*
X-210000D02*
X-91000D01*
Y922500D01*
X-2000D01*
Y797500D02*
Y922500D01*
X-91000Y797500D02*
X-2000D01*
X-91000D02*
Y812000D01*
X-2000Y922500D02*
Y934000D01*
X139000D01*
Y786000D02*
Y934000D01*
X-2000Y786000D02*
X139000D01*
X-2000D02*
Y797500D01*
X10000Y801000D02*
X90000D01*
Y919000D01*
X10000D02*
X90000D01*
X1509000Y743000D02*
X1589000D01*
X1509000D02*
Y861000D01*
X1589000D01*
X1601000Y864500D02*
Y876000D01*
X1460000D02*
X1601000D01*
X1460000Y728000D02*
Y876000D01*
Y728000D02*
X1601000D01*
Y739500D01*
X1690000Y850000D02*
Y864500D01*
X1601000D02*
X1690000D01*
X1601000Y739500D02*
Y864500D01*
Y739500D02*
X1690000D01*
Y754000D01*
X1809000D01*
X1690000D02*
Y850000D01*
X1809000D01*
Y754000D02*
Y850000D01*
D71*
X744420Y566000D02*
X752884Y574464D01*
Y566000D02*
X744420Y574464D01*
X748652Y566000D02*
Y574464D01*
X752884Y570232D02*
X744420D01*
X828170Y227250D02*
X836634Y235714D01*
Y227250D02*
X828170Y235714D01*
X832402Y227250D02*
Y235714D01*
X836634Y231482D02*
X828170D01*
X467033Y421420D02*
X458569Y429884D01*
X467033D02*
X458569Y421420D01*
X467033Y425652D02*
X458569D01*
X462801Y429884D02*
Y421420D01*
X1398229Y120365D02*
X1406693Y111901D01*
X1398229D02*
X1406693Y120365D01*
X1398229Y116133D02*
X1406693D01*
X1402461Y111901D02*
Y120365D01*
X578535Y765818D02*
X586999Y757354D01*
X578535D02*
X586999Y765818D01*
X578535Y761586D02*
X586999D01*
X582767Y757354D02*
Y765818D01*
X693000Y459580D02*
X701464Y451116D01*
X693000D02*
X701464Y459580D01*
X693000Y455348D02*
X701464D01*
X697232Y451116D02*
Y459580D01*
X230187Y211825D02*
X238651Y220289D01*
Y211825D02*
X230187Y220289D01*
X234419Y211825D02*
Y220289D01*
X238651Y216057D02*
X230187D01*
X409420Y204000D02*
X417884Y212464D01*
Y204000D02*
X409420Y212464D01*
X413652Y204000D02*
Y212464D01*
X417884Y208232D02*
X409420D01*
X172000Y635580D02*
X180464Y627116D01*
X172000D02*
X180464Y635580D01*
X172000Y631348D02*
X180464D01*
X176232Y627116D02*
Y635580D01*
X172000Y581580D02*
X180464Y573116D01*
X172000D02*
X180464Y581580D01*
X172000Y577348D02*
X180464D01*
X176232Y573116D02*
Y581580D01*
X150000Y573580D02*
X158464Y565116D01*
X150000D02*
X158464Y573580D01*
X150000Y569348D02*
X158464D01*
X154232Y565116D02*
Y573580D01*
X462420Y215000D02*
X470884Y223464D01*
Y215000D02*
X462420Y223464D01*
X466652Y215000D02*
Y223464D01*
X470884Y219232D02*
X462420D01*
X229000Y858580D02*
X237464Y850116D01*
X229000D02*
X237464Y858580D01*
X229000Y854348D02*
X237464D01*
X233232Y850116D02*
Y858580D01*
X253237Y719080D02*
X261701Y710616D01*
X253237D02*
X261701Y719080D01*
X253237Y714848D02*
X261701D01*
X257469Y710616D02*
Y719080D01*
X305000Y166069D02*
X313464Y157605D01*
X305000D02*
X313464Y166069D01*
X305000Y161837D02*
X313464D01*
X309232Y157605D02*
Y166069D01*
X587000Y155580D02*
X595464Y147116D01*
X587000D02*
X595464Y155580D01*
X587000Y151348D02*
X595464D01*
X591232Y147116D02*
Y155580D01*
X496494Y866420D02*
X488030Y874884D01*
X496494D02*
X488030Y866420D01*
X496494Y870652D02*
X488030D01*
X492262Y874884D02*
Y866420D01*
D72*
X1438650Y210532D02*
X1441190D01*
X1443729Y213071D01*
Y225767D01*
X1436111D01*
X1433572Y223228D01*
Y218150D01*
X1436111Y215611D01*
X1443729D01*
X1448807D02*
Y225767D01*
X1456425D01*
X1458964Y223228D01*
Y215611D01*
X1474199Y230846D02*
Y215611D01*
X1466581D01*
X1464042Y218150D01*
Y223228D01*
X1466581Y225767D01*
X1474199D01*
X1433572Y188267D02*
Y173032D01*
X1441190D01*
X1443729Y175571D01*
Y185728D01*
X1441190Y188267D01*
X1433572D01*
X1448807D02*
Y178111D01*
X1453885Y173032D01*
X1458964Y178111D01*
Y188267D01*
X1464042D02*
Y173032D01*
X1471660D01*
X1474199Y175571D01*
Y185728D01*
X1471660Y188267D01*
X1464042D01*
X1479277D02*
Y173032D01*
X1486895D01*
X1489434Y175571D01*
Y185728D01*
X1486895Y188267D01*
X1479277D01*
X442968Y727032D02*
X432811D01*
X427733Y732110D01*
X432811Y737189D01*
X442968D01*
X435350D01*
Y727032D01*
X427733Y742267D02*
X437890D01*
X442968Y747345D01*
X437890Y752424D01*
X427733D01*
Y757502D02*
X442968D01*
Y765120D01*
X440429Y767659D01*
X430272D01*
X427733Y765120D01*
Y757502D01*
Y772737D02*
X442968D01*
Y780355D01*
X440429Y782894D01*
X430272D01*
X427733Y780355D01*
Y772737D01*
X485468Y747110D02*
Y749650D01*
X482929Y752189D01*
X470233D01*
Y744571D01*
X472772Y742032D01*
X477850D01*
X480390Y744571D01*
Y752189D01*
Y757267D02*
X470233D01*
Y764885D01*
X472772Y767424D01*
X480390D01*
X465155Y782659D02*
X480390D01*
Y775041D01*
X477850Y772502D01*
X472772D01*
X470233Y775041D01*
Y782659D01*
X711380Y212802D02*
X713920D01*
X716459Y215341D01*
Y228037D01*
X708841D01*
X706302Y225498D01*
Y220420D01*
X708841Y217880D01*
X716459D01*
X721537D02*
Y228037D01*
X729155D01*
X731694Y225498D01*
Y217880D01*
X746929Y233115D02*
Y217880D01*
X739311D01*
X736772Y220420D01*
Y225498D01*
X739311Y228037D01*
X746929D01*
X706302Y175302D02*
Y190537D01*
X713920D01*
X716459Y187998D01*
Y182920D01*
X713920Y180380D01*
X706302D01*
X724076D02*
X729155D01*
X731694Y182920D01*
Y187998D01*
X729155Y190537D01*
X724076D01*
X721537Y187998D01*
Y182920D01*
X724076Y180380D01*
X736772D02*
X744390D01*
X746929Y182920D01*
X744390Y185459D01*
X739311D01*
X736772Y187998D01*
X739311Y190537D01*
X746929D01*
X191762Y147380D02*
Y157537D01*
X199380D01*
X201919Y154998D01*
Y147380D01*
X214615D02*
X209536D01*
X206997Y149920D01*
Y154998D01*
X209536Y157537D01*
X214615D01*
X217154Y154998D01*
Y152459D01*
X206997D01*
X227311Y142302D02*
X229850D01*
X232389Y144841D01*
Y157537D01*
X224771D01*
X222232Y154998D01*
Y149920D01*
X224771Y147380D01*
X232389D01*
X196840Y179802D02*
X199380D01*
X201919Y182341D01*
Y195037D01*
X194301D01*
X191762Y192498D01*
Y187419D01*
X194301Y184880D01*
X201919D01*
X206997D02*
Y195037D01*
X214615D01*
X217154Y192498D01*
Y184880D01*
X232389Y200115D02*
Y184880D01*
X224771D01*
X222232Y187419D01*
Y192498D01*
X224771Y195037D01*
X232389D01*
X343420Y642124D02*
Y657359D01*
X351037D01*
X353577Y654820D01*
Y649742D01*
X351037Y647202D01*
X343420D01*
X348498D02*
X353577Y642124D01*
X368812D02*
X358655D01*
X368812Y652281D01*
Y654820D01*
X366273Y657359D01*
X361194D01*
X358655Y654820D01*
X373890D02*
X376429Y657359D01*
X381508D01*
X384047Y654820D01*
Y644663D01*
X381508Y642124D01*
X376429D01*
X373890Y644663D01*
Y654820D01*
X317956Y742383D02*
Y757617D01*
X325574D01*
X328113Y755078D01*
Y750000D01*
X325574Y747461D01*
X317956D01*
X323035D02*
X328113Y742383D01*
X333191D02*
X338270D01*
X335730D01*
Y757617D01*
X333191Y755078D01*
X345887Y744922D02*
X348426Y742383D01*
X353505D01*
X356044Y744922D01*
Y755078D01*
X353505Y757617D01*
X348426D01*
X345887Y755078D01*
Y752539D01*
X348426Y750000D01*
X356044D01*
X799000Y577922D02*
Y588078D01*
X796461Y590617D01*
X791383D01*
X788843Y588078D01*
Y577922D01*
X791383Y575382D01*
X796461D01*
X793922Y580461D02*
X799000Y575382D01*
X796461D02*
X799000Y577922D01*
X804078Y575382D02*
X809157D01*
X806618D01*
Y590617D01*
X804078Y588078D01*
X723687Y629382D02*
Y644617D01*
X731304D01*
X733843Y642078D01*
Y637000D01*
X731304Y634461D01*
X723687D01*
X728765D02*
X733843Y629382D01*
X738922Y642078D02*
X741461Y644617D01*
X746539D01*
X749078Y642078D01*
Y639539D01*
X746539Y637000D01*
X744000D01*
X746539D01*
X749078Y634461D01*
Y631922D01*
X746539Y629382D01*
X741461D01*
X738922Y631922D01*
X754157Y642078D02*
X756696Y644617D01*
X761774D01*
X764313Y642078D01*
Y639539D01*
X761774Y637000D01*
X764313Y634461D01*
Y631922D01*
X761774Y629382D01*
X756696D01*
X754157Y631922D01*
Y634461D01*
X756696Y637000D01*
X754157Y639539D01*
Y642078D01*
X756696Y637000D02*
X761774D01*
X613687Y566382D02*
Y581618D01*
X621304D01*
X623843Y579078D01*
Y574000D01*
X621304Y571461D01*
X613687D01*
X618765D02*
X623843Y566382D01*
X628922Y579078D02*
X631461Y581618D01*
X636539D01*
X639078Y579078D01*
Y576539D01*
X636539Y574000D01*
X634000D01*
X636539D01*
X639078Y571461D01*
Y568922D01*
X636539Y566382D01*
X631461D01*
X628922Y568922D01*
X654313Y581618D02*
X649235Y579078D01*
X644157Y574000D01*
Y568922D01*
X646696Y566382D01*
X651774D01*
X654313Y568922D01*
Y571461D01*
X651774Y574000D01*
X644157D01*
X772687Y629382D02*
Y644617D01*
X780304D01*
X782843Y642078D01*
Y637000D01*
X780304Y634461D01*
X772687D01*
X777765D02*
X782843Y629382D01*
X787922Y642078D02*
X790461Y644617D01*
X795539D01*
X798078Y642078D01*
Y639539D01*
X795539Y637000D01*
X793000D01*
X795539D01*
X798078Y634461D01*
Y631922D01*
X795539Y629382D01*
X790461D01*
X787922Y631922D01*
X813313Y644617D02*
X803157D01*
Y637000D01*
X808235Y639539D01*
X810774D01*
X813313Y637000D01*
Y631922D01*
X810774Y629382D01*
X805696D01*
X803157Y631922D01*
X611687Y533382D02*
Y548618D01*
X619304D01*
X621843Y546078D01*
Y541000D01*
X619304Y538461D01*
X611687D01*
X616765D02*
X621843Y533382D01*
X626922Y546078D02*
X629461Y548618D01*
X634539D01*
X637078Y546078D01*
Y543539D01*
X634539Y541000D01*
X632000D01*
X634539D01*
X637078Y538461D01*
Y535922D01*
X634539Y533382D01*
X629461D01*
X626922Y535922D01*
X642157Y546078D02*
X644696Y548618D01*
X649774D01*
X652314Y546078D01*
Y543539D01*
X649774Y541000D01*
X647235D01*
X649774D01*
X652314Y538461D01*
Y535922D01*
X649774Y533382D01*
X644696D01*
X642157Y535922D01*
X887705Y231922D02*
Y242078D01*
X885166Y244618D01*
X880088D01*
X877548Y242078D01*
Y231922D01*
X880088Y229382D01*
X885166D01*
X882627Y234461D02*
X887705Y229382D01*
X885166D02*
X887705Y231922D01*
X902940Y229382D02*
X892784D01*
X902940Y239539D01*
Y242078D01*
X900401Y244618D01*
X895323D01*
X892784Y242078D01*
X802686Y283382D02*
Y298617D01*
X810304D01*
X812843Y296078D01*
Y291000D01*
X810304Y288461D01*
X802686D01*
X807765D02*
X812843Y283382D01*
X825539D02*
Y298617D01*
X817922Y291000D01*
X828078D01*
X843313Y298617D02*
X838235Y296078D01*
X833157Y291000D01*
Y285921D01*
X835696Y283382D01*
X840774D01*
X843313Y285921D01*
Y288461D01*
X840774Y291000D01*
X833157D01*
X802686Y184382D02*
Y199617D01*
X810304D01*
X812843Y197078D01*
Y192000D01*
X810304Y189461D01*
X802686D01*
X807765D02*
X812843Y184382D01*
X825539D02*
Y199617D01*
X817922Y192000D01*
X828078D01*
X843313Y199617D02*
X833157D01*
Y192000D01*
X838235Y194539D01*
X840774D01*
X843313Y192000D01*
Y186922D01*
X840774Y184382D01*
X835696D01*
X833157Y186922D01*
X850687Y184382D02*
Y199618D01*
X858304D01*
X860843Y197078D01*
Y192000D01*
X858304Y189461D01*
X850687D01*
X855765D02*
X860843Y184382D01*
X873539D02*
Y199618D01*
X865922Y192000D01*
X876078D01*
X888774Y184382D02*
Y199618D01*
X881157Y192000D01*
X891313D01*
X850187Y281882D02*
Y297118D01*
X857804D01*
X860343Y294578D01*
Y289500D01*
X857804Y286961D01*
X850187D01*
X855265D02*
X860343Y281882D01*
X873039D02*
Y297118D01*
X865422Y289500D01*
X875578D01*
X880657Y294578D02*
X883196Y297118D01*
X888274D01*
X890814Y294578D01*
Y292039D01*
X888274Y289500D01*
X885735D01*
X888274D01*
X890814Y286961D01*
Y284422D01*
X888274Y281882D01*
X883196D01*
X880657Y284422D01*
X1557382Y472956D02*
X1570078D01*
X1572617Y475495D01*
Y480574D01*
X1570078Y483113D01*
X1557382D01*
X1572617Y488191D02*
Y493270D01*
Y490730D01*
X1557382D01*
X1559922Y488191D01*
X1557382Y511044D02*
X1559922Y505965D01*
X1565000Y500887D01*
X1570078D01*
X1572617Y503426D01*
Y508505D01*
X1570078Y511044D01*
X1567539D01*
X1565000Y508505D01*
Y500887D01*
X376922Y485843D02*
X374382Y483304D01*
Y478226D01*
X376922Y475687D01*
X387078D01*
X389618Y478226D01*
Y483304D01*
X387078Y485843D01*
X389618Y501078D02*
Y490922D01*
X379461Y501078D01*
X376922D01*
X374382Y498539D01*
Y493461D01*
X376922Y490922D01*
X387078Y506157D02*
X389618Y508696D01*
Y513774D01*
X387078Y516313D01*
X376922D01*
X374382Y513774D01*
Y508696D01*
X376922Y506157D01*
X379461D01*
X382000Y508696D01*
Y516313D01*
X1067617Y837304D02*
X1052382D01*
X1067617Y847461D01*
X1052382D01*
X1067617Y860157D02*
X1052382D01*
X1060000Y852539D01*
Y862696D01*
X1377956Y255382D02*
Y270618D01*
X1385574D01*
X1388113Y268078D01*
Y263000D01*
X1385574Y260461D01*
X1377956D01*
X1383035D02*
X1388113Y255382D01*
X1393191D02*
X1398270D01*
X1395730D01*
Y270618D01*
X1393191Y268078D01*
X1405887D02*
X1408426Y270618D01*
X1413505D01*
X1416044Y268078D01*
Y265539D01*
X1413505Y263000D01*
X1416044Y260461D01*
Y257922D01*
X1413505Y255382D01*
X1408426D01*
X1405887Y257922D01*
Y260461D01*
X1408426Y263000D01*
X1405887Y265539D01*
Y268078D01*
X1408426Y263000D02*
X1413505D01*
X1378956Y322383D02*
Y337617D01*
X1386574D01*
X1389113Y335078D01*
Y330000D01*
X1386574Y327461D01*
X1378956D01*
X1384034D02*
X1389113Y322383D01*
X1394191D02*
X1399270D01*
X1396730D01*
Y337617D01*
X1394191Y335078D01*
X1406887Y337617D02*
X1417044D01*
Y335078D01*
X1406887Y324922D01*
Y322383D01*
X1431304Y273617D02*
Y258382D01*
X1438922D01*
X1441461Y260922D01*
Y271078D01*
X1438922Y273617D01*
X1431304D01*
X1446539Y271078D02*
X1449078Y273617D01*
X1454157D01*
X1456696Y271078D01*
Y268539D01*
X1454157Y266000D01*
X1451617D01*
X1454157D01*
X1456696Y263461D01*
Y260922D01*
X1454157Y258382D01*
X1449078D01*
X1446539Y260922D01*
X1431304Y334618D02*
Y319382D01*
X1438922D01*
X1441461Y321922D01*
Y332078D01*
X1438922Y334618D01*
X1431304D01*
X1456696Y319382D02*
X1446539D01*
X1456696Y329539D01*
Y332078D01*
X1454157Y334618D01*
X1449078D01*
X1446539Y332078D01*
X1506956Y106383D02*
Y121617D01*
X1514574D01*
X1517113Y119078D01*
Y114000D01*
X1514574Y111461D01*
X1506956D01*
X1522191Y106383D02*
X1527270D01*
X1524730D01*
Y121617D01*
X1522191Y119078D01*
X1545044Y106383D02*
X1534887D01*
X1545044Y116539D01*
Y119078D01*
X1542505Y121617D01*
X1537426D01*
X1534887Y119078D01*
X244304Y868617D02*
Y855922D01*
X246843Y853382D01*
X251922D01*
X254461Y855922D01*
Y868617D01*
X259539D02*
X269696D01*
Y866078D01*
X259539Y855922D01*
Y853382D01*
X233687Y764382D02*
Y779617D01*
X241304D01*
X243843Y777078D01*
Y772000D01*
X241304Y769461D01*
X233687D01*
X238765D02*
X243843Y764382D01*
X248922Y777078D02*
X251461Y779617D01*
X256539D01*
X259078Y777078D01*
Y774539D01*
X256539Y772000D01*
X254000D01*
X256539D01*
X259078Y769461D01*
Y766922D01*
X256539Y764382D01*
X251461D01*
X248922Y766922D01*
X271774Y764382D02*
Y779617D01*
X264157Y772000D01*
X274313D01*
X324955Y868476D02*
X322416Y865937D01*
Y860858D01*
X324955Y858319D01*
X335111D01*
X337650Y860858D01*
Y865937D01*
X335111Y868476D01*
X337650Y881172D02*
X322416D01*
X330033Y873554D01*
Y883711D01*
X337650Y898946D02*
Y888789D01*
X327494Y898946D01*
X324955D01*
X322416Y896407D01*
Y891329D01*
X324955Y888789D01*
X326922Y821383D02*
X324382Y818843D01*
Y813765D01*
X326922Y811226D01*
X337078D01*
X339618Y813765D01*
Y818843D01*
X337078Y821383D01*
X339618Y834078D02*
X324382D01*
X332000Y826461D01*
Y836618D01*
X339618Y841696D02*
Y846774D01*
Y844235D01*
X324382D01*
X326922Y841696D01*
X206843Y875554D02*
X204304Y878093D01*
X199226D01*
X196687Y875554D01*
Y865397D01*
X199226Y862858D01*
X204304D01*
X206843Y865397D01*
X219539Y862858D02*
Y878093D01*
X211922Y870476D01*
X222078D01*
X227157Y875554D02*
X229696Y878093D01*
X234774D01*
X237313Y875554D01*
Y865397D01*
X234774Y862858D01*
X229696D01*
X227157Y865397D01*
Y875554D01*
X157843Y867554D02*
X155304Y870093D01*
X150226D01*
X147687Y867554D01*
Y857397D01*
X150226Y854858D01*
X155304D01*
X157843Y857397D01*
X162922Y867554D02*
X165461Y870093D01*
X170539D01*
X173078Y867554D01*
Y865015D01*
X170539Y862476D01*
X168000D01*
X170539D01*
X173078Y859937D01*
Y857397D01*
X170539Y854858D01*
X165461D01*
X162922Y857397D01*
X178157D02*
X180696Y854858D01*
X185774D01*
X188313Y857397D01*
Y867554D01*
X185774Y870093D01*
X180696D01*
X178157Y867554D01*
Y865015D01*
X180696Y862476D01*
X188313D01*
X194876Y776711D02*
X192337Y779250D01*
X187259D01*
X184720Y776711D01*
Y766554D01*
X187259Y764015D01*
X192337D01*
X194876Y766554D01*
X210111Y764015D02*
X199955D01*
X210111Y774172D01*
Y776711D01*
X207572Y779250D01*
X202494D01*
X199955Y776711D01*
X225346Y779250D02*
X215190D01*
Y771633D01*
X220268Y774172D01*
X222807D01*
X225346Y771633D01*
Y766554D01*
X222807Y764015D01*
X217729D01*
X215190Y766554D01*
X413304Y196618D02*
Y181383D01*
X420922D01*
X423461Y183922D01*
Y194078D01*
X420922Y196618D01*
X413304D01*
X428539Y194078D02*
X431078Y196618D01*
X436157D01*
X438696Y194078D01*
Y191539D01*
X436157Y189000D01*
X438696Y186461D01*
Y183922D01*
X436157Y181383D01*
X431078D01*
X428539Y183922D01*
Y186461D01*
X431078Y189000D01*
X428539Y191539D01*
Y194078D01*
X431078Y189000D02*
X436157D01*
X447304Y196618D02*
Y181383D01*
X454922D01*
X457461Y183922D01*
Y194078D01*
X454922Y196618D01*
X447304D01*
X462539D02*
X472696D01*
Y194078D01*
X462539Y183922D01*
Y181383D01*
X227304Y602617D02*
Y587383D01*
X234922D01*
X237461Y589922D01*
Y600078D01*
X234922Y602617D01*
X227304D01*
X252696D02*
X247617Y600078D01*
X242539Y595000D01*
Y589922D01*
X245078Y587383D01*
X250157D01*
X252696Y589922D01*
Y592461D01*
X250157Y595000D01*
X242539D01*
X227304Y622617D02*
Y607383D01*
X234922D01*
X237461Y609922D01*
Y620078D01*
X234922Y622617D01*
X227304D01*
X252696D02*
X242539D01*
Y615000D01*
X247617Y617539D01*
X250157D01*
X252696Y615000D01*
Y609922D01*
X250157Y607383D01*
X245078D01*
X242539Y609922D01*
X485450Y861618D02*
Y848922D01*
X487989Y846383D01*
X493068D01*
X495607Y848922D01*
Y861618D01*
X500685Y846383D02*
X505764D01*
X503224D01*
Y861618D01*
X500685Y859078D01*
X513381D02*
X515920Y861618D01*
X520999D01*
X523538Y859078D01*
Y848922D01*
X520999Y846383D01*
X515920D01*
X513381Y848922D01*
Y859078D01*
X532732Y936383D02*
Y951618D01*
X540349D01*
X542888Y949078D01*
Y944000D01*
X540349Y941461D01*
X532732D01*
X537810D02*
X542888Y936383D01*
X555584D02*
Y951618D01*
X547967Y944000D01*
X558124D01*
X563202Y936383D02*
X568280D01*
X565741D01*
Y951618D01*
X563202Y949078D01*
X392687Y915383D02*
Y930618D01*
X400304D01*
X402843Y928078D01*
Y923000D01*
X400304Y920461D01*
X392687D01*
X397765D02*
X402843Y915383D01*
X415539D02*
Y930618D01*
X407922Y923000D01*
X418078D01*
X423157Y928078D02*
X425696Y930618D01*
X430774D01*
X433313Y928078D01*
Y917922D01*
X430774Y915383D01*
X425696D01*
X423157Y917922D01*
Y928078D01*
X393922Y878843D02*
X391382Y876304D01*
Y871226D01*
X393922Y868687D01*
X404078D01*
X406618Y871226D01*
Y876304D01*
X404078Y878843D01*
X391382Y894078D02*
Y883922D01*
X399000D01*
X396461Y889000D01*
Y891539D01*
X399000Y894078D01*
X404078D01*
X406618Y891539D01*
Y886461D01*
X404078Y883922D01*
X406618Y906774D02*
X391382D01*
X399000Y899157D01*
Y909313D01*
X402843Y948078D02*
X400304Y950618D01*
X395226D01*
X392687Y948078D01*
Y937922D01*
X395226Y935383D01*
X400304D01*
X402843Y937922D01*
X418078Y935383D02*
X407922D01*
X418078Y945539D01*
Y948078D01*
X415539Y950618D01*
X410461D01*
X407922Y948078D01*
X423157D02*
X425696Y950618D01*
X430774D01*
X433313Y948078D01*
Y945539D01*
X430774Y943000D01*
X433313Y940461D01*
Y937922D01*
X430774Y935383D01*
X425696D01*
X423157Y937922D01*
Y940461D01*
X425696Y943000D01*
X423157Y945539D01*
Y948078D01*
X425696Y943000D02*
X430774D01*
X448337Y844078D02*
X445798Y846618D01*
X440720D01*
X438181Y844078D01*
Y833922D01*
X440720Y831383D01*
X445798D01*
X448337Y833922D01*
X463572Y831383D02*
X453416D01*
X463572Y841539D01*
Y844078D01*
X461033Y846618D01*
X455955D01*
X453416Y844078D01*
X468651Y846618D02*
X478807D01*
Y844078D01*
X468651Y833922D01*
Y831383D01*
X475415Y478956D02*
X488111D01*
X490650Y481496D01*
Y486574D01*
X488111Y489113D01*
X475415D01*
X490650Y494191D02*
Y499270D01*
Y496730D01*
X475415D01*
X477954Y494191D01*
X475415Y517044D02*
Y506887D01*
X483033D01*
X480494Y511966D01*
Y514505D01*
X483033Y517044D01*
X488111D01*
X490650Y514505D01*
Y509426D01*
X488111Y506887D01*
X1414185Y135403D02*
Y122707D01*
X1416724Y120168D01*
X1421803D01*
X1424342Y122707D01*
Y135403D01*
X1429420Y120168D02*
X1434498D01*
X1431959D01*
Y135403D01*
X1429420Y132863D01*
X1452273Y120168D02*
X1442116D01*
X1452273Y130324D01*
Y132863D01*
X1449734Y135403D01*
X1444655D01*
X1442116Y132863D01*
X1460076Y376232D02*
Y363536D01*
X1462615Y360997D01*
X1467694D01*
X1470233Y363536D01*
Y376232D01*
X1475311Y363536D02*
X1477850Y360997D01*
X1482929D01*
X1485468Y363536D01*
Y373693D01*
X1482929Y376232D01*
X1477850D01*
X1475311Y373693D01*
Y371154D01*
X1477850Y368615D01*
X1485468D01*
X269541Y730117D02*
Y717422D01*
X272080Y714882D01*
X277159D01*
X279698Y717422D01*
Y730117D01*
X284776Y727578D02*
X287315Y730117D01*
X292394D01*
X294933Y727578D01*
Y725039D01*
X292394Y722500D01*
X294933Y719961D01*
Y717422D01*
X292394Y714882D01*
X287315D01*
X284776Y717422D01*
Y719961D01*
X287315Y722500D01*
X284776Y725039D01*
Y727578D01*
X287315Y722500D02*
X292394D01*
X593882Y780554D02*
X606578D01*
X609118Y783093D01*
Y788172D01*
X606578Y790711D01*
X593882D01*
X596422Y795789D02*
X593882Y798328D01*
Y803407D01*
X596422Y805946D01*
X598961D01*
X601500Y803407D01*
Y800868D01*
Y803407D01*
X604039Y805946D01*
X606578D01*
X609118Y803407D01*
Y798328D01*
X606578Y795789D01*
X324304Y177106D02*
Y164411D01*
X326843Y161871D01*
X331922D01*
X334461Y164411D01*
Y177106D01*
X349696Y161871D02*
X339539D01*
X349696Y172028D01*
Y174567D01*
X347157Y177106D01*
X342078D01*
X339539Y174567D01*
X575843Y178617D02*
Y165922D01*
X578382Y163382D01*
X583461D01*
X586000Y165922D01*
Y178617D01*
X591078Y163382D02*
X596157D01*
X593618D01*
Y178617D01*
X591078Y176078D01*
X1551617Y472687D02*
X1536382D01*
Y480304D01*
X1538922Y482843D01*
X1544000D01*
X1546539Y480304D01*
Y472687D01*
Y477765D02*
X1551617Y482843D01*
Y495539D02*
X1536382D01*
X1544000Y487922D01*
Y498078D01*
X1536382Y503157D02*
Y513313D01*
X1538922D01*
X1549078Y503157D01*
X1551617D01*
X248618Y264687D02*
X233382D01*
Y272304D01*
X235922Y274843D01*
X241000D01*
X243539Y272304D01*
Y264687D01*
Y269765D02*
X248618Y274843D01*
Y287539D02*
X233382D01*
X241000Y279922D01*
Y290078D01*
X248618Y305313D02*
Y295157D01*
X238461Y305313D01*
X235922D01*
X233382Y302774D01*
Y297696D01*
X235922Y295157D01*
X1447390Y347301D02*
X1432155D01*
Y354919D01*
X1434694Y357458D01*
X1439772D01*
X1442311Y354919D01*
Y347301D01*
Y352380D02*
X1447390Y357458D01*
X1434694Y362536D02*
X1432155Y365076D01*
Y370154D01*
X1434694Y372693D01*
X1437233D01*
X1439772Y370154D01*
Y367615D01*
Y370154D01*
X1442311Y372693D01*
X1444850D01*
X1447390Y370154D01*
Y365076D01*
X1444850Y362536D01*
Y377771D02*
X1447390Y380311D01*
Y385389D01*
X1444850Y387928D01*
X1434694D01*
X1432155Y385389D01*
Y380311D01*
X1434694Y377771D01*
X1437233D01*
X1439772Y380311D01*
Y387928D01*
X257924Y628882D02*
Y644118D01*
X265541D01*
X268080Y641578D01*
Y636500D01*
X265541Y633961D01*
X257924D01*
X263002D02*
X268080Y628882D01*
X273159Y641578D02*
X275698Y644118D01*
X280776D01*
X283315Y641578D01*
Y639039D01*
X280776Y636500D01*
X278237D01*
X280776D01*
X283315Y633961D01*
Y631422D01*
X280776Y628882D01*
X275698D01*
X273159Y631422D01*
X288394Y644118D02*
X298550D01*
Y641578D01*
X288394Y631422D01*
Y628882D01*
X1384956Y548382D02*
Y563618D01*
X1392574D01*
X1395113Y561078D01*
Y556000D01*
X1392574Y553461D01*
X1384956D01*
X1390034D02*
X1395113Y548382D01*
X1400191D02*
X1405269D01*
X1402730D01*
Y563618D01*
X1400191Y561078D01*
X1423044Y563618D02*
X1417965Y561078D01*
X1412887Y556000D01*
Y550922D01*
X1415426Y548382D01*
X1420504D01*
X1423044Y550922D01*
Y553461D01*
X1420504Y556000D01*
X1412887D01*
X649617Y803956D02*
X634382D01*
Y811574D01*
X636922Y814113D01*
X642000D01*
X644539Y811574D01*
Y803956D01*
Y809035D02*
X649617Y814113D01*
Y819191D02*
Y824270D01*
Y821730D01*
X634382D01*
X636922Y819191D01*
X634382Y842044D02*
Y831887D01*
X642000D01*
X639461Y836965D01*
Y839505D01*
X642000Y842044D01*
X647078D01*
X649617Y839505D01*
Y834426D01*
X647078Y831887D01*
X693569Y671251D02*
X678334D01*
Y678868D01*
X680873Y681407D01*
X685951D01*
X688491Y678868D01*
Y671251D01*
Y676329D02*
X693569Y681407D01*
Y686486D02*
Y691564D01*
Y689025D01*
X678334D01*
X680873Y686486D01*
X693569Y706799D02*
X678334D01*
X685951Y699182D01*
Y709338D01*
X695618Y803956D02*
X680383D01*
Y811574D01*
X682922Y814113D01*
X688000D01*
X690539Y811574D01*
Y803956D01*
Y809035D02*
X695618Y814113D01*
Y819191D02*
Y824270D01*
Y821730D01*
X680383D01*
X682922Y819191D01*
Y831887D02*
X680383Y834426D01*
Y839505D01*
X682922Y842044D01*
X685461D01*
X688000Y839505D01*
Y836965D01*
Y839505D01*
X690539Y842044D01*
X693078D01*
X695618Y839505D01*
Y834426D01*
X693078Y831887D01*
X672617Y803956D02*
X657382D01*
Y811574D01*
X659922Y814113D01*
X665000D01*
X667539Y811574D01*
Y803956D01*
Y809035D02*
X672617Y814113D01*
Y819191D02*
Y824270D01*
Y821730D01*
X657382D01*
X659922Y819191D01*
X672617Y842044D02*
Y831887D01*
X662461Y842044D01*
X659922D01*
X657382Y839505D01*
Y834426D01*
X659922Y831887D01*
X813617Y383495D02*
X798382D01*
Y391113D01*
X800922Y393652D01*
X806000D01*
X808539Y391113D01*
Y383495D01*
Y388574D02*
X813617Y393652D01*
Y398730D02*
Y403809D01*
Y401270D01*
X798382D01*
X800922Y398730D01*
X813617Y411426D02*
Y416505D01*
Y413965D01*
X798382D01*
X800922Y411426D01*
X728956Y331382D02*
Y346618D01*
X736574D01*
X739113Y344078D01*
Y339000D01*
X736574Y336461D01*
X728956D01*
X734035D02*
X739113Y331382D01*
X744191D02*
X749270D01*
X746730D01*
Y346618D01*
X744191Y344078D01*
X756887D02*
X759426Y346618D01*
X764505D01*
X767044Y344078D01*
Y333922D01*
X764505Y331382D01*
X759426D01*
X756887Y333922D01*
Y344078D01*
X699304Y352383D02*
Y367618D01*
X706922D01*
X709461Y365078D01*
Y360000D01*
X706922Y357461D01*
X699304D01*
X704382D02*
X709461Y352383D01*
X714539Y354922D02*
X717078Y352383D01*
X722157D01*
X724696Y354922D01*
Y365078D01*
X722157Y367618D01*
X717078D01*
X714539Y365078D01*
Y362539D01*
X717078Y360000D01*
X724696D01*
X399304Y91383D02*
Y106617D01*
X406922D01*
X409461Y104078D01*
Y99000D01*
X406922Y96461D01*
X399304D01*
X404383D02*
X409461Y91383D01*
X414539Y104078D02*
X417078Y106617D01*
X422157D01*
X424696Y104078D01*
Y101539D01*
X422157Y99000D01*
X424696Y96461D01*
Y93922D01*
X422157Y91383D01*
X417078D01*
X414539Y93922D01*
Y96461D01*
X417078Y99000D01*
X414539Y101539D01*
Y104078D01*
X417078Y99000D02*
X422157D01*
X302054Y70872D02*
Y86107D01*
X309672D01*
X312211Y83567D01*
Y78489D01*
X309672Y75950D01*
X302054D01*
X307132D02*
X312211Y70872D01*
X317289Y86107D02*
X327446D01*
Y83567D01*
X317289Y73411D01*
Y70872D01*
X602617Y57304D02*
X587382D01*
Y64922D01*
X589922Y67461D01*
X595000D01*
X597539Y64922D01*
Y57304D01*
Y62382D02*
X602617Y67461D01*
X587382Y82696D02*
X589922Y77618D01*
X595000Y72539D01*
X600078D01*
X602617Y75078D01*
Y80157D01*
X600078Y82696D01*
X597539D01*
X595000Y80157D01*
Y72539D01*
X652304Y89382D02*
Y104618D01*
X659922D01*
X662461Y102078D01*
Y97000D01*
X659922Y94461D01*
X652304D01*
X657382D02*
X662461Y89382D01*
X677696Y104618D02*
X667539D01*
Y97000D01*
X672617Y99539D01*
X675157D01*
X677696Y97000D01*
Y91922D01*
X675157Y89382D01*
X670078D01*
X667539Y91922D01*
X494650Y366304D02*
X479415D01*
Y373922D01*
X481954Y376461D01*
X487033D01*
X489572Y373922D01*
Y366304D01*
Y371383D02*
X494650Y376461D01*
Y389157D02*
X479415D01*
X487033Y381539D01*
Y391696D01*
X341304Y476382D02*
Y491618D01*
X348922D01*
X351461Y489078D01*
Y484000D01*
X348922Y481461D01*
X341304D01*
X346382D02*
X351461Y476382D01*
X356539Y489078D02*
X359078Y491618D01*
X364157D01*
X366696Y489078D01*
Y486539D01*
X364157Y484000D01*
X361618D01*
X364157D01*
X366696Y481461D01*
Y478922D01*
X364157Y476382D01*
X359078D01*
X356539Y478922D01*
X436337Y497383D02*
Y512618D01*
X443955D01*
X446494Y510079D01*
Y505000D01*
X443955Y502461D01*
X436337D01*
X441415D02*
X446494Y497383D01*
X461729D02*
X451572D01*
X461729Y507539D01*
Y510079D01*
X459190Y512618D01*
X454111D01*
X451572Y510079D01*
X197618Y264843D02*
X182383D01*
Y272461D01*
X184922Y275000D01*
X190000D01*
X192539Y272461D01*
Y264843D01*
Y269922D02*
X197618Y275000D01*
Y280078D02*
Y285157D01*
Y282617D01*
X182383D01*
X184922Y280078D01*
X1407537Y512727D02*
Y527962D01*
X1415155D01*
X1417694Y525423D01*
Y520345D01*
X1415155Y517806D01*
X1407537D01*
X1422773Y512727D02*
X1427851D01*
X1425312D01*
Y527962D01*
X1422773Y525423D01*
X1435468Y512727D02*
X1440547D01*
X1438008D01*
Y527962D01*
X1435468Y525423D01*
X1406728Y491997D02*
Y507232D01*
X1414346D01*
X1416885Y504693D01*
Y499615D01*
X1414346Y497076D01*
X1406728D01*
X1421963Y491997D02*
X1427042D01*
X1424503D01*
Y507232D01*
X1421963Y504693D01*
X1434659D02*
X1437198Y507232D01*
X1442277D01*
X1444816Y504693D01*
Y494536D01*
X1442277Y491997D01*
X1437198D01*
X1434659Y494536D01*
Y504693D01*
X1461020Y884186D02*
Y899421D01*
X1468638D01*
X1471177Y896882D01*
Y891804D01*
X1468638Y889264D01*
X1461020D01*
X1476255Y886725D02*
X1478794Y884186D01*
X1483873D01*
X1486412Y886725D01*
Y896882D01*
X1483873Y899421D01*
X1478794D01*
X1476255Y896882D01*
Y894343D01*
X1478794Y891804D01*
X1486412D01*
X583450Y942860D02*
Y958095D01*
X591068D01*
X593607Y955556D01*
Y950478D01*
X591068Y947938D01*
X583450D01*
X608842Y958095D02*
X598685D01*
Y950478D01*
X603763Y953017D01*
X606303D01*
X608842Y950478D01*
Y945399D01*
X606303Y942860D01*
X601224D01*
X598685Y945399D01*
X410574Y66112D02*
Y81348D01*
X418192D01*
X420731Y78808D01*
Y73730D01*
X418192Y71191D01*
X410574D01*
X433427Y66112D02*
Y81348D01*
X425809Y73730D01*
X435966D01*
X117304Y942383D02*
Y957617D01*
X124922D01*
X127461Y955078D01*
Y950000D01*
X124922Y947461D01*
X117304D01*
X142696Y942383D02*
X132539D01*
X142696Y952539D01*
Y955078D01*
X140157Y957617D01*
X135078D01*
X132539Y955078D01*
X117304Y742383D02*
Y757617D01*
X124922D01*
X127461Y755078D01*
Y750000D01*
X124922Y747461D01*
X117304D01*
X132539Y755078D02*
X135078Y757617D01*
X140157D01*
X142696Y755078D01*
Y752539D01*
X140157Y750000D01*
X137618D01*
X140157D01*
X142696Y747461D01*
Y744922D01*
X140157Y742383D01*
X135078D01*
X132539Y744922D01*
X119843Y232383D02*
Y247617D01*
X127461D01*
X130000Y245078D01*
Y240000D01*
X127461Y237461D01*
X119843D01*
X135078Y232383D02*
X140157D01*
X137618D01*
Y247617D01*
X135078Y245078D01*
X692304Y480382D02*
Y495618D01*
X702461Y480382D01*
Y495618D01*
X707539Y493078D02*
X710078Y495618D01*
X715157D01*
X717696Y493078D01*
Y490539D01*
X715157Y488000D01*
X712618D01*
X715157D01*
X717696Y485461D01*
Y482922D01*
X715157Y480382D01*
X710078D01*
X707539Y482922D01*
X390843Y391382D02*
Y406618D01*
X401000Y391382D01*
Y406618D01*
X406078Y391382D02*
X411157D01*
X408618D01*
Y406618D01*
X406078Y404078D01*
X227383Y228304D02*
X242618D01*
X237539D01*
X227383Y238461D01*
X235000Y230843D01*
X242618Y238461D01*
Y253696D02*
Y243539D01*
X232461Y253696D01*
X229922D01*
X227383Y251157D01*
Y246078D01*
X229922Y243539D01*
X229843Y582617D02*
Y567383D01*
Y572461D01*
X240000Y582617D01*
X232383Y575000D01*
X240000Y567383D01*
X245078D02*
X250157D01*
X247618D01*
Y582617D01*
X245078Y580078D01*
X1435843Y564118D02*
Y548882D01*
X1443461D01*
X1446000Y551422D01*
Y561578D01*
X1443461Y564118D01*
X1435843D01*
X1451078Y548882D02*
X1456156D01*
X1453617D01*
Y564118D01*
X1451078Y561578D01*
X212922Y274843D02*
X210382Y272304D01*
Y267226D01*
X212922Y264687D01*
X223078D01*
X225618Y267226D01*
Y272304D01*
X223078Y274843D01*
X210382Y290078D02*
Y279922D01*
X218000D01*
X215461Y285000D01*
Y287539D01*
X218000Y290078D01*
X223078D01*
X225618Y287539D01*
Y282461D01*
X223078Y279922D01*
X210382Y305313D02*
X212922Y300235D01*
X218000Y295157D01*
X223078D01*
X225618Y297696D01*
Y302774D01*
X223078Y305313D01*
X220539D01*
X218000Y302774D01*
Y295157D01*
X534032Y885446D02*
X531493Y882907D01*
Y877829D01*
X534032Y875290D01*
X544189D01*
X546728Y877829D01*
Y882907D01*
X544189Y885446D01*
X531493Y900681D02*
Y890525D01*
X539110D01*
X536571Y895603D01*
Y898142D01*
X539110Y900681D01*
X544189D01*
X546728Y898142D01*
Y893064D01*
X544189Y890525D01*
X531493Y915917D02*
Y905760D01*
X539110D01*
X536571Y910838D01*
Y913377D01*
X539110Y915917D01*
X544189D01*
X546728Y913377D01*
Y908299D01*
X544189Y905760D01*
X1407694Y357458D02*
X1405155Y354919D01*
Y349841D01*
X1407694Y347301D01*
X1417850D01*
X1420390Y349841D01*
Y354919D01*
X1417850Y357458D01*
X1405155Y372693D02*
Y362536D01*
X1412772D01*
X1410233Y367615D01*
Y370154D01*
X1412772Y372693D01*
X1417850D01*
X1420390Y370154D01*
Y365076D01*
X1417850Y362536D01*
X1407694Y377771D02*
X1405155Y380311D01*
Y385389D01*
X1407694Y387928D01*
X1410233D01*
X1412772Y385389D01*
Y382850D01*
Y385389D01*
X1415311Y387928D01*
X1417850D01*
X1420390Y385389D01*
Y380311D01*
X1417850Y377771D01*
X735843Y534078D02*
X733304Y536618D01*
X728226D01*
X725687Y534078D01*
Y523922D01*
X728226Y521382D01*
X733304D01*
X735843Y523922D01*
X751078Y536618D02*
X740922D01*
Y529000D01*
X746000Y531539D01*
X748539D01*
X751078Y529000D01*
Y523922D01*
X748539Y521382D01*
X743461D01*
X740922Y523922D01*
X766313Y521382D02*
X756157D01*
X766313Y531539D01*
Y534078D01*
X763774Y536618D01*
X758696D01*
X756157Y534078D01*
X617383Y450078D02*
X614843Y452618D01*
X609765D01*
X607226Y450078D01*
Y439922D01*
X609765Y437383D01*
X614843D01*
X617383Y439922D01*
X632618Y452618D02*
X622461D01*
Y445000D01*
X627539Y447539D01*
X630078D01*
X632618Y445000D01*
Y439922D01*
X630078Y437383D01*
X625000D01*
X622461Y439922D01*
X637696Y437383D02*
X642774D01*
X640235D01*
Y452618D01*
X637696Y450078D01*
X423922Y121332D02*
X421382Y118793D01*
Y113715D01*
X423922Y111175D01*
X434078D01*
X436618Y113715D01*
Y118793D01*
X434078Y121332D01*
X421382Y136567D02*
Y126411D01*
X429000D01*
X426461Y131489D01*
Y134028D01*
X429000Y136567D01*
X434078D01*
X436618Y134028D01*
Y128950D01*
X434078Y126411D01*
X423922Y141646D02*
X421382Y144185D01*
Y149263D01*
X423922Y151802D01*
X434078D01*
X436618Y149263D01*
Y144185D01*
X434078Y141646D01*
X423922D01*
X263922Y125332D02*
X261382Y122793D01*
Y117715D01*
X263922Y115176D01*
X274078D01*
X276618Y117715D01*
Y122793D01*
X274078Y125332D01*
X276618Y138028D02*
X261382D01*
X269000Y130411D01*
Y140567D01*
X274078Y145646D02*
X276618Y148185D01*
Y153263D01*
X274078Y155802D01*
X263922D01*
X261382Y153263D01*
Y148185D01*
X263922Y145646D01*
X266461D01*
X269000Y148185D01*
Y155802D01*
X682922Y118843D02*
X680382Y116304D01*
Y111226D01*
X682922Y108687D01*
X693078D01*
X695618Y111226D01*
Y116304D01*
X693078Y118843D01*
X695618Y131539D02*
X680382D01*
X688000Y123922D01*
Y134078D01*
X682922Y139157D02*
X680382Y141696D01*
Y146774D01*
X682922Y149313D01*
X685461D01*
X688000Y146774D01*
X690539Y149313D01*
X693078D01*
X695618Y146774D01*
Y141696D01*
X693078Y139157D01*
X690539D01*
X688000Y141696D01*
X685461Y139157D01*
X682922D01*
X688000Y141696D02*
Y146774D01*
X544922Y118843D02*
X542382Y116304D01*
Y111226D01*
X544922Y108687D01*
X555078D01*
X557617Y111226D01*
Y116304D01*
X555078Y118843D01*
X557617Y131539D02*
X542382D01*
X550000Y123922D01*
Y134078D01*
X542382Y139157D02*
Y149313D01*
X544922D01*
X555078Y139157D01*
X557617D01*
X445843Y358078D02*
X443304Y360617D01*
X438226D01*
X435687Y358078D01*
Y347922D01*
X438226Y345382D01*
X443304D01*
X445843Y347922D01*
X458539Y345382D02*
Y360617D01*
X450922Y353000D01*
X461078D01*
X476314Y360617D02*
X471235Y358078D01*
X466157Y353000D01*
Y347922D01*
X468696Y345382D01*
X473774D01*
X476314Y347922D01*
Y350461D01*
X473774Y353000D01*
X466157D01*
X272843Y532078D02*
X270304Y534618D01*
X265226D01*
X262687Y532078D01*
Y521922D01*
X265226Y519383D01*
X270304D01*
X272843Y521922D01*
X285539Y519383D02*
Y534618D01*
X277922Y527000D01*
X288078D01*
X303314Y534618D02*
X293157D01*
Y527000D01*
X298235Y529539D01*
X300774D01*
X303314Y527000D01*
Y521922D01*
X300774Y519383D01*
X295696D01*
X293157Y521922D01*
X368159Y682343D02*
X365619Y679804D01*
Y674726D01*
X368159Y672187D01*
X378315D01*
X380854Y674726D01*
Y679804D01*
X378315Y682343D01*
X380854Y695039D02*
X365619D01*
X373237Y687422D01*
Y697578D01*
X380854Y710274D02*
X365619D01*
X373237Y702657D01*
Y712813D01*
X348159Y682343D02*
X345619Y679804D01*
Y674726D01*
X348159Y672187D01*
X358315D01*
X360854Y674726D01*
Y679804D01*
X358315Y682343D01*
X360854Y695039D02*
X345619D01*
X353237Y687422D01*
Y697578D01*
X348159Y702657D02*
X345619Y705196D01*
Y710274D01*
X348159Y712813D01*
X350698D01*
X353237Y710274D01*
Y707735D01*
Y710274D01*
X355776Y712813D01*
X358315D01*
X360854Y710274D01*
Y705196D01*
X358315Y702657D01*
X156159Y681819D02*
X153619Y679280D01*
Y674202D01*
X156159Y671662D01*
X166315D01*
X168855Y674202D01*
Y679280D01*
X166315Y681819D01*
X156159Y686897D02*
X153619Y689437D01*
Y694515D01*
X156159Y697054D01*
X158698D01*
X161237Y694515D01*
Y691976D01*
Y694515D01*
X163776Y697054D01*
X166315D01*
X168855Y694515D01*
Y689437D01*
X166315Y686897D01*
X156159Y702132D02*
X153619Y704672D01*
Y709750D01*
X156159Y712289D01*
X158698D01*
X161237Y709750D01*
X163776Y712289D01*
X166315D01*
X168855Y709750D01*
Y704672D01*
X166315Y702132D01*
X163776D01*
X161237Y704672D01*
X158698Y702132D01*
X156159D01*
X161237Y704672D02*
Y709750D01*
X176159Y681819D02*
X173619Y679280D01*
Y674202D01*
X176159Y671662D01*
X186315D01*
X188855Y674202D01*
Y679280D01*
X186315Y681819D01*
X176159Y686897D02*
X173619Y689437D01*
Y694515D01*
X176159Y697054D01*
X178698D01*
X181237Y694515D01*
Y691976D01*
Y694515D01*
X183776Y697054D01*
X186315D01*
X188855Y694515D01*
Y689437D01*
X186315Y686897D01*
X173619Y702132D02*
Y712289D01*
X176159D01*
X186315Y702132D01*
X188855D01*
X1485922Y83843D02*
X1483382Y81304D01*
Y76226D01*
X1485922Y73687D01*
X1496078D01*
X1498618Y76226D01*
Y81304D01*
X1496078Y83843D01*
X1485922Y88922D02*
X1483382Y91461D01*
Y96539D01*
X1485922Y99078D01*
X1488461D01*
X1491000Y96539D01*
Y94000D01*
Y96539D01*
X1493539Y99078D01*
X1496078D01*
X1498618Y96539D01*
Y91461D01*
X1496078Y88922D01*
X1483382Y114313D02*
X1485922Y109235D01*
X1491000Y104157D01*
X1496078D01*
X1498618Y106696D01*
Y111774D01*
X1496078Y114313D01*
X1493539D01*
X1491000Y111774D01*
Y104157D01*
X1337151Y88628D02*
X1334611Y86089D01*
Y81011D01*
X1337151Y78472D01*
X1347307D01*
X1349846Y81011D01*
Y86089D01*
X1347307Y88628D01*
X1337151Y93707D02*
X1334611Y96246D01*
Y101324D01*
X1337151Y103863D01*
X1339690D01*
X1342229Y101324D01*
Y98785D01*
Y101324D01*
X1344768Y103863D01*
X1347307D01*
X1349846Y101324D01*
Y96246D01*
X1347307Y93707D01*
X1334611Y119099D02*
Y108942D01*
X1342229D01*
X1339690Y114020D01*
Y116559D01*
X1342229Y119099D01*
X1347307D01*
X1349846Y116559D01*
Y111481D01*
X1347307Y108942D01*
X1317151Y88628D02*
X1314611Y86089D01*
Y81011D01*
X1317151Y78472D01*
X1327307D01*
X1329846Y81011D01*
Y86089D01*
X1327307Y88628D01*
X1317151Y93707D02*
X1314611Y96246D01*
Y101324D01*
X1317151Y103863D01*
X1319690D01*
X1322229Y101324D01*
Y98785D01*
Y101324D01*
X1324768Y103863D01*
X1327307D01*
X1329846Y101324D01*
Y96246D01*
X1327307Y93707D01*
X1329846Y116559D02*
X1314611D01*
X1322229Y108942D01*
Y119099D01*
X220080Y641578D02*
X217541Y644118D01*
X212463D01*
X209923Y641578D01*
Y631422D01*
X212463Y628882D01*
X217541D01*
X220080Y631422D01*
X235315Y628882D02*
X225159D01*
X235315Y639039D01*
Y641578D01*
X232776Y644118D01*
X227698D01*
X225159Y641578D01*
X250550Y644118D02*
X245472Y641578D01*
X240394Y636500D01*
Y631422D01*
X242933Y628882D01*
X248011D01*
X250550Y631422D01*
Y633961D01*
X248011Y636500D01*
X240394D01*
X665613Y654328D02*
X663074Y656868D01*
X657995D01*
X655456Y654328D01*
Y644172D01*
X657995Y641633D01*
X663074D01*
X665613Y644172D01*
X670691Y641633D02*
X675770D01*
X673230D01*
Y656868D01*
X670691Y654328D01*
X683387D02*
X685926Y656868D01*
X691005D01*
X693544Y654328D01*
Y651789D01*
X691005Y649250D01*
X693544Y646711D01*
Y644172D01*
X691005Y641633D01*
X685926D01*
X683387Y644172D01*
Y646711D01*
X685926Y649250D01*
X683387Y651789D01*
Y654328D01*
X685926Y649250D02*
X691005D01*
X535422Y763363D02*
X532882Y760824D01*
Y755745D01*
X535422Y753206D01*
X545578D01*
X548117Y755745D01*
Y760824D01*
X545578Y763363D01*
X548117Y768441D02*
Y773520D01*
Y770981D01*
X532882D01*
X535422Y768441D01*
X532882Y781137D02*
Y791294D01*
X535422D01*
X545578Y781137D01*
X548117D01*
X557422Y663363D02*
X554882Y660824D01*
Y655745D01*
X557422Y653206D01*
X567578D01*
X570117Y655745D01*
Y660824D01*
X567578Y663363D01*
X570117Y668441D02*
Y673520D01*
Y670981D01*
X554882D01*
X557422Y668441D01*
X554882Y691294D02*
X557422Y686216D01*
X562500Y681137D01*
X567578D01*
X570117Y683676D01*
Y688755D01*
X567578Y691294D01*
X565039D01*
X562500Y688755D01*
Y681137D01*
X535422Y663363D02*
X532882Y660824D01*
Y655745D01*
X535422Y653206D01*
X545578D01*
X548117Y655745D01*
Y660824D01*
X545578Y663363D01*
X548117Y668441D02*
Y673520D01*
Y670981D01*
X532882D01*
X535422Y668441D01*
X532882Y691294D02*
Y681137D01*
X540500D01*
X537961Y686216D01*
Y688755D01*
X540500Y691294D01*
X545578D01*
X548117Y688755D01*
Y683676D01*
X545578Y681137D01*
X735113Y513078D02*
X732574Y515618D01*
X727495D01*
X724956Y513078D01*
Y502922D01*
X727495Y500382D01*
X732574D01*
X735113Y502922D01*
X740191Y500382D02*
X745270D01*
X742730D01*
Y515618D01*
X740191Y513078D01*
X760505Y500382D02*
Y515618D01*
X752887Y508000D01*
X763044D01*
X614113Y472078D02*
X611574Y474618D01*
X606495D01*
X603956Y472078D01*
Y461922D01*
X606495Y459383D01*
X611574D01*
X614113Y461922D01*
X619191Y459383D02*
X624270D01*
X621730D01*
Y474618D01*
X619191Y472078D01*
X631887D02*
X634426Y474618D01*
X639505D01*
X642044Y472078D01*
Y469539D01*
X639505Y467000D01*
X636965D01*
X639505D01*
X642044Y464461D01*
Y461922D01*
X639505Y459383D01*
X634426D01*
X631887Y461922D01*
X815922Y492113D02*
X813382Y489574D01*
Y484495D01*
X815922Y481956D01*
X826078D01*
X828617Y484495D01*
Y489574D01*
X826078Y492113D01*
X828617Y497191D02*
Y502270D01*
Y499730D01*
X813382D01*
X815922Y497191D01*
X828617Y520044D02*
Y509887D01*
X818461Y520044D01*
X815922D01*
X813382Y517505D01*
Y512426D01*
X815922Y509887D01*
X795922Y491652D02*
X793382Y489113D01*
Y484035D01*
X795922Y481495D01*
X806078D01*
X808617Y484035D01*
Y489113D01*
X806078Y491652D01*
X808617Y496730D02*
Y501809D01*
Y499270D01*
X793382D01*
X795922Y496730D01*
X808617Y509426D02*
Y514505D01*
Y511965D01*
X793382D01*
X795922Y509426D01*
X638113Y397078D02*
X635574Y399618D01*
X630495D01*
X627956Y397078D01*
Y386922D01*
X630495Y384383D01*
X635574D01*
X638113Y386922D01*
X643191Y384383D02*
X648270D01*
X645731D01*
Y399618D01*
X643191Y397078D01*
X655887D02*
X658426Y399618D01*
X663505D01*
X666044Y397078D01*
Y386922D01*
X663505Y384383D01*
X658426D01*
X655887Y386922D01*
Y397078D01*
X384461Y83567D02*
X381922Y86107D01*
X376843D01*
X374304Y83567D01*
Y73411D01*
X376843Y70871D01*
X381922D01*
X384461Y73411D01*
X389539D02*
X392078Y70871D01*
X397157D01*
X399696Y73411D01*
Y83567D01*
X397157Y86107D01*
X392078D01*
X389539Y83567D01*
Y81028D01*
X392078Y78489D01*
X399696D01*
X378461Y175078D02*
X375922Y177617D01*
X370843D01*
X368304Y175078D01*
Y164922D01*
X370843Y162383D01*
X375922D01*
X378461Y164922D01*
X383539Y175078D02*
X386078Y177617D01*
X391157D01*
X393696Y175078D01*
Y172539D01*
X391157Y170000D01*
X393696Y167461D01*
Y164922D01*
X391157Y162383D01*
X386078D01*
X383539Y164922D01*
Y167461D01*
X386078Y170000D01*
X383539Y172539D01*
Y175078D01*
X386078Y170000D02*
X391157D01*
X662461Y82078D02*
X659922Y84618D01*
X654843D01*
X652304Y82078D01*
Y71922D01*
X654843Y69383D01*
X659922D01*
X662461Y71922D01*
X667539Y84618D02*
X677696D01*
Y82078D01*
X667539Y71922D01*
Y69383D01*
X625461Y186078D02*
X622922Y188617D01*
X617843D01*
X615304Y186078D01*
Y175922D01*
X617843Y173382D01*
X622922D01*
X625461Y175922D01*
X640696Y188617D02*
X635617Y186078D01*
X630539Y181000D01*
Y175922D01*
X633078Y173382D01*
X638157D01*
X640696Y175922D01*
Y178461D01*
X638157Y181000D01*
X630539D01*
X518955Y437461D02*
X516415Y434922D01*
Y429843D01*
X518955Y427304D01*
X529111D01*
X531650Y429843D01*
Y434922D01*
X529111Y437461D01*
X516415Y452696D02*
Y442539D01*
X524033D01*
X521494Y447618D01*
Y450157D01*
X524033Y452696D01*
X529111D01*
X531650Y450157D01*
Y445079D01*
X529111Y442539D01*
X418461Y341078D02*
X415922Y343618D01*
X410843D01*
X408304Y341078D01*
Y330922D01*
X410843Y328382D01*
X415922D01*
X418461Y330922D01*
X431157Y328382D02*
Y343618D01*
X423539Y336000D01*
X433696D01*
X460955Y375461D02*
X458415Y372922D01*
Y367843D01*
X460955Y365304D01*
X471111D01*
X473650Y367843D01*
Y372922D01*
X471111Y375461D01*
X460955Y380539D02*
X458415Y383078D01*
Y388157D01*
X460955Y390696D01*
X463494D01*
X466033Y388157D01*
Y385618D01*
Y388157D01*
X468572Y390696D01*
X471111D01*
X473650Y388157D01*
Y383078D01*
X471111Y380539D01*
X288461Y511078D02*
X285922Y513618D01*
X280843D01*
X278304Y511078D01*
Y500922D01*
X280843Y498382D01*
X285922D01*
X288461Y500922D01*
X303696Y498382D02*
X293539D01*
X303696Y508539D01*
Y511078D01*
X301157Y513618D01*
X296078D01*
X293539Y511078D01*
X157922Y274000D02*
X155382Y271461D01*
Y266382D01*
X157922Y263843D01*
X168078D01*
X170618Y266382D01*
Y271461D01*
X168078Y274000D01*
X170618Y279078D02*
Y284157D01*
Y281618D01*
X155382D01*
X157922Y279078D01*
%TF.MD5,3ce4b698bf0630261a49468fd1d82e6e*%
M02*
