%TF.GenerationSoftware,Altium Limited,Altium Designer,22.5.1 (42)*%
G04 Layer_Physical_Order=1*
G04 Layer_Color=255*
%FSLAX44Y44*%
%MOMM*%
%TF.SameCoordinates,EDF0C4A9-A600-4E9B-A30B-1A7791E2F720*%
%TF.FilePolarity,Positive*%
%TF.FileFunction,Copper,L1,Top,Signal*%
%TF.Part,Single*%
G01*
G75*
%TA.AperFunction,SMDPad,CuDef*%
%ADD10R,1.1000X1.7000*%
%ADD11R,0.3548X0.7818*%
%ADD12R,1.7000X1.1000*%
%ADD13R,0.9779X0.5080*%
%ADD14R,1.2000X1.4000*%
%ADD15R,1.8542X2.1590*%
%ADD16R,1.3335X0.4318*%
%ADD17R,1.4612X0.3508*%
%ADD18R,1.4732X0.3556*%
%ADD19R,0.9906X2.2098*%
%ADD20R,0.6008X1.1112*%
%ADD21R,1.1112X0.6008*%
%ADD22R,2.2098X0.9906*%
%ADD23R,1.3858X0.4310*%
%ADD24R,1.7526X2.9464*%
%ADD25R,1.7780X1.9812*%
%ADD26R,1.3279X0.2794*%
%TA.AperFunction,Conductor*%
%ADD27C,0.5080*%
%ADD28C,0.3048*%
%ADD29C,0.2540*%
%ADD30C,0.4318*%
%ADD31C,0.7620*%
%TA.AperFunction,ComponentPad*%
%ADD32C,1.4224*%
%ADD33R,1.4224X1.4224*%
%ADD34C,1.6000*%
%ADD35R,1.6000X1.6000*%
%ADD36C,1.5000*%
%ADD37R,1.5000X1.5000*%
%TA.AperFunction,SMDPad,CuDef*%
%ADD38C,1.5240*%
%TA.AperFunction,ComponentPad*%
%ADD39C,3.3000*%
%ADD40R,1.2700X1.2700*%
%ADD41C,1.2700*%
%ADD42C,1.1430*%
%ADD43R,1.1430X1.1430*%
%ADD44R,1.5000X1.5000*%
%ADD45C,1.5000*%
%ADD46R,1.2700X1.1684*%
%ADD47O,1.2700X1.1684*%
%ADD48R,1.5000X1.5000*%
%TA.AperFunction,ViaPad*%
%ADD49C,1.2700*%
%ADD50C,1.2000*%
G36*
X1600000Y970000D02*
X1551935D01*
X1551767Y971270D01*
X1553431Y971716D01*
X1555459Y972886D01*
X1557114Y974541D01*
X1558284Y976569D01*
X1558863Y978730D01*
X1541137D01*
X1541716Y976569D01*
X1542886Y974541D01*
X1544541Y972886D01*
X1546569Y971716D01*
X1548233Y971270D01*
X1548065Y970000D01*
X801935D01*
X801768Y971270D01*
X803431Y971716D01*
X805459Y972886D01*
X807114Y974541D01*
X808284Y976569D01*
X808863Y978730D01*
X791137D01*
X791716Y976569D01*
X792886Y974541D01*
X794541Y972886D01*
X796569Y971716D01*
X798232Y971270D01*
X798065Y970000D01*
X41935D01*
X41768Y971270D01*
X43431Y971716D01*
X45459Y972886D01*
X47114Y974541D01*
X48284Y976569D01*
X48863Y978730D01*
X31137D01*
X31716Y976569D01*
X32886Y974541D01*
X34541Y972886D01*
X36569Y971716D01*
X38233Y971270D01*
X38065Y970000D01*
X0D01*
Y1000000D01*
X1600000D01*
Y970000D01*
D02*
G37*
G36*
X521391Y943869D02*
X521108Y943498D01*
X520859Y943098D01*
X520644Y942668D01*
X520461Y942208D01*
X520312Y941718D01*
X520195Y941198D01*
X520112Y940648D01*
X520063Y940068D01*
X520047Y939503D01*
X520071Y938578D01*
X520148Y937710D01*
X520275Y936943D01*
X520452Y936279D01*
X520681Y935717D01*
X520960Y935257D01*
X521291Y934899D01*
X521672Y934643D01*
X522103Y934490D01*
X522586Y934439D01*
X512426D01*
X512909Y934490D01*
X513340Y934643D01*
X513721Y934899D01*
X514052Y935257D01*
X514331Y935717D01*
X514560Y936279D01*
X514737Y936943D01*
X514864Y937710D01*
X514941Y938578D01*
X514965Y939503D01*
X514949Y940068D01*
X514900Y940648D01*
X514817Y941198D01*
X514700Y941718D01*
X514551Y942208D01*
X514368Y942668D01*
X514153Y943098D01*
X513904Y943498D01*
X513621Y943869D01*
X513306Y944209D01*
X521706D01*
X521391Y943869D01*
D02*
G37*
G36*
X447293Y934536D02*
X447077Y934458D01*
X446886Y934330D01*
X446721Y934150D01*
X446582Y933919D01*
X446467Y933636D01*
X446378Y933302D01*
X446315Y932916D01*
X446279Y932500D01*
X446315Y932084D01*
X446378Y931699D01*
X446467Y931364D01*
X446582Y931082D01*
X446721Y930850D01*
X446886Y930670D01*
X447077Y930542D01*
X447293Y930465D01*
X447534Y930439D01*
X442454D01*
X442695Y930465D01*
X442911Y930542D01*
X443102Y930670D01*
X443267Y930850D01*
X443407Y931082D01*
X443521Y931364D01*
X443610Y931699D01*
X443673Y932084D01*
X443710Y932500D01*
X443673Y932916D01*
X443610Y933302D01*
X443521Y933636D01*
X443407Y933919D01*
X443267Y934150D01*
X443102Y934330D01*
X442911Y934458D01*
X442695Y934536D01*
X442454Y934561D01*
X447534D01*
X447293Y934536D01*
D02*
G37*
G36*
X474560Y934578D02*
X474561Y934561D01*
X477074D01*
X476592Y934510D01*
X476160Y934357D01*
X475779Y934101D01*
X475449Y933744D01*
X475169Y933284D01*
X474941Y932721D01*
X474881Y932500D01*
X474941Y932279D01*
X475169Y931717D01*
X475449Y931257D01*
X475779Y930899D01*
X476160Y930643D01*
X476592Y930490D01*
X477074Y930439D01*
X474561D01*
X474560Y930422D01*
X474534Y929451D01*
X469454D01*
X469429Y930422D01*
X469427Y930439D01*
X466914D01*
X467397Y930490D01*
X467829Y930643D01*
X468210Y930899D01*
X468540Y931257D01*
X468819Y931717D01*
X469048Y932279D01*
X469107Y932500D01*
X469048Y932721D01*
X468819Y933284D01*
X468540Y933744D01*
X468210Y934101D01*
X467829Y934357D01*
X467397Y934510D01*
X466914Y934561D01*
X469427D01*
X469429Y934578D01*
X469454Y935549D01*
X474534D01*
X474560Y934578D01*
D02*
G37*
G36*
X495995Y924299D02*
X496071Y924083D01*
X496198Y923892D01*
X496376Y923727D01*
X496605Y923587D01*
X496884Y923473D01*
X497214Y923384D01*
X497595Y923321D01*
X498027Y923283D01*
X498510Y923270D01*
Y920730D01*
X498027Y920717D01*
X497595Y920679D01*
X497214Y920616D01*
X496884Y920527D01*
X496605Y920413D01*
X496376Y920273D01*
X496198Y920108D01*
X496071Y919917D01*
X495995Y919701D01*
X495970Y919460D01*
Y924540D01*
X495995Y924299D01*
D02*
G37*
G36*
X439555Y919460D02*
X439529Y919701D01*
X439452Y919917D01*
X439324Y920108D01*
X439144Y920273D01*
X438912Y920413D01*
X438630Y920527D01*
X438296Y920616D01*
X437910Y920679D01*
X437473Y920717D01*
X436985Y920730D01*
Y923270D01*
X437473Y923283D01*
X437910Y923321D01*
X438296Y923384D01*
X438630Y923473D01*
X438912Y923587D01*
X439144Y923727D01*
X439324Y923892D01*
X439452Y924083D01*
X439529Y924299D01*
X439555Y924540D01*
Y919460D01*
D02*
G37*
G36*
X522091Y917510D02*
X521659Y917357D01*
X521278Y917101D01*
X520948Y916743D01*
X520669Y916283D01*
X520440Y915721D01*
X520262Y915057D01*
X520135Y914290D01*
X520132Y914250D01*
X520135Y914210D01*
X520262Y913443D01*
X520440Y912779D01*
X520669Y912217D01*
X520948Y911757D01*
X521278Y911399D01*
X521659Y911144D01*
X522091Y910990D01*
X522574Y910939D01*
X512414D01*
X512896Y910990D01*
X513328Y911144D01*
X513709Y911399D01*
X514039Y911757D01*
X514319Y912217D01*
X514547Y912779D01*
X514725Y913443D01*
X514852Y914210D01*
X514856Y914250D01*
X514852Y914290D01*
X514725Y915057D01*
X514547Y915721D01*
X514319Y916283D01*
X514039Y916743D01*
X513709Y917101D01*
X513328Y917357D01*
X512896Y917510D01*
X512414Y917561D01*
X522574D01*
X522091Y917510D01*
D02*
G37*
G36*
X476592Y913510D02*
X476160Y913356D01*
X475779Y913101D01*
X475449Y912743D01*
X475169Y912283D01*
X474941Y911721D01*
X474763Y911057D01*
X474636Y910290D01*
X474560Y909421D01*
X474534Y908450D01*
X469454D01*
X469429Y909421D01*
X469353Y910290D01*
X469226Y911057D01*
X469048Y911721D01*
X468819Y912283D01*
X468540Y912743D01*
X468210Y913101D01*
X467829Y913356D01*
X467397Y913510D01*
X466914Y913561D01*
X477074D01*
X476592Y913510D01*
D02*
G37*
G36*
X474552Y903990D02*
X474698Y902365D01*
X474825Y901704D01*
X474989Y901146D01*
X475189Y900688D01*
X475426Y900333D01*
X475699Y900079D01*
X476008Y899926D01*
X476353Y899876D01*
X466914D01*
X467397Y899926D01*
X467829Y900079D01*
X468210Y900333D01*
X468540Y900688D01*
X468819Y901146D01*
X469048Y901704D01*
X469226Y902365D01*
X469353Y903127D01*
X469429Y903990D01*
X469454Y904956D01*
X474534D01*
X474552Y903990D01*
D02*
G37*
G36*
X496262Y901348D02*
X496338Y901332D01*
X496465Y901317D01*
X496871Y901294D01*
X498777Y901270D01*
Y898730D01*
X496236Y898633D01*
Y901367D01*
X496262Y901348D01*
D02*
G37*
G36*
X451995D02*
X452071Y901332D01*
X452198Y901317D01*
X452604Y901294D01*
X454509Y901270D01*
Y898730D01*
X451969Y898633D01*
Y901367D01*
X451995Y901348D01*
D02*
G37*
G36*
X423793Y901005D02*
X423577Y900929D01*
X423386Y900802D01*
X423221Y900624D01*
X423082Y900395D01*
X422967Y900116D01*
X422878Y899786D01*
X422815Y899405D01*
X422777Y898973D01*
X422764Y898490D01*
X420224D01*
X420211Y898973D01*
X420173Y899405D01*
X420110Y899786D01*
X420021Y900116D01*
X419907Y900395D01*
X419767Y900624D01*
X419602Y900802D01*
X419411Y900929D01*
X419195Y901005D01*
X418954Y901030D01*
X424034D01*
X423793Y901005D01*
D02*
G37*
G36*
X438751Y893633D02*
X438734Y893652D01*
X438681Y893668D01*
X438592Y893682D01*
X438468Y893695D01*
X437884Y893721D01*
X436982Y893730D01*
Y896270D01*
X438751Y896366D01*
Y893633D01*
D02*
G37*
G36*
X462683Y897662D02*
X463069Y897389D01*
X463511Y897138D01*
X464008Y896908D01*
X464561Y896698D01*
X465168Y896509D01*
X465831Y896342D01*
X467324Y896069D01*
X468153Y895964D01*
X463209Y892084D01*
Y891411D01*
X464984Y891528D01*
X465311Y891607D01*
X465549Y891697D01*
X465699Y891797D01*
Y888203D01*
X465549Y888303D01*
X465311Y888393D01*
X464984Y888472D01*
X464568Y888540D01*
X463471Y888646D01*
X463209Y888655D01*
Y885800D01*
X462640Y886357D01*
X461537Y887294D01*
X461002Y887675D01*
X460478Y887998D01*
X459966Y888261D01*
X459465Y888466D01*
X458975Y888613D01*
X458665Y888670D01*
Y887460D01*
X458639Y887701D01*
X458562Y887917D01*
X458433Y888108D01*
X458254Y888273D01*
X458022Y888412D01*
X457739Y888527D01*
X457405Y888616D01*
X457020Y888679D01*
X456583Y888717D01*
X456094Y888730D01*
Y891270D01*
X456583Y891283D01*
X457020Y891321D01*
X457405Y891384D01*
X457739Y891473D01*
X458022Y891588D01*
X458254Y891727D01*
X458433Y891892D01*
X458562Y892083D01*
X458639Y892299D01*
X458665Y892540D01*
Y891330D01*
X458975Y891387D01*
X459465Y891534D01*
X459966Y891739D01*
X460478Y892003D01*
X461002Y892325D01*
X461537Y892706D01*
X461651Y892797D01*
X461649Y892913D01*
X461595Y893539D01*
X461496Y894120D01*
X461352Y894659D01*
X461165Y895154D01*
X460932Y895606D01*
X460655Y896015D01*
X460334Y896380D01*
X462351Y897954D01*
X462683Y897662D01*
D02*
G37*
G36*
X496262Y891348D02*
X496338Y891332D01*
X496465Y891317D01*
X496871Y891294D01*
X498777Y891270D01*
Y888730D01*
X496236Y888633D01*
Y891367D01*
X496262Y891348D01*
D02*
G37*
G36*
X451995D02*
X452071Y891332D01*
X452198Y891317D01*
X452604Y891294D01*
X454509Y891270D01*
Y888730D01*
X451969Y888633D01*
Y891367D01*
X451995Y891348D01*
D02*
G37*
G36*
X438751Y888633D02*
X438726Y888652D01*
X438650Y888668D01*
X438523Y888683D01*
X438116Y888706D01*
X436211Y888730D01*
Y891270D01*
X438751Y891367D01*
Y888633D01*
D02*
G37*
G36*
X496262Y886348D02*
X496338Y886332D01*
X496465Y886317D01*
X496871Y886294D01*
X498777Y886270D01*
Y883730D01*
X496236Y883633D01*
Y886366D01*
X496262Y886348D01*
D02*
G37*
G36*
X438751Y883633D02*
X438726Y883652D01*
X438650Y883668D01*
X438523Y883682D01*
X438116Y883706D01*
X436211Y883730D01*
Y886270D01*
X438751Y886366D01*
Y883633D01*
D02*
G37*
G36*
X510061Y885513D02*
X511816Y883946D01*
X511867Y883939D01*
X509055Y882691D01*
X509072Y882718D01*
X509060Y882770D01*
X509017Y882848D01*
X508944Y882951D01*
X508842Y883080D01*
X508354Y883617D01*
X507878Y884102D01*
X509674Y885898D01*
X510061Y885513D01*
D02*
G37*
G36*
X496262Y881348D02*
X496338Y881332D01*
X496465Y881317D01*
X496871Y881294D01*
X498777Y881270D01*
Y878730D01*
X496236Y878633D01*
Y881367D01*
X496262Y881348D01*
D02*
G37*
G36*
X438751Y878633D02*
X438726Y878652D01*
X438650Y878668D01*
X438523Y878683D01*
X438116Y878706D01*
X436211Y878730D01*
Y881270D01*
X438751Y881367D01*
Y878633D01*
D02*
G37*
G36*
X509055Y877460D02*
X509029Y877701D01*
X508952Y877917D01*
X508823Y878108D01*
X508643Y878273D01*
X508412Y878413D01*
X508129Y878527D01*
X507795Y878616D01*
X507410Y878679D01*
X506973Y878717D01*
X506484Y878730D01*
Y881270D01*
X506973Y881283D01*
X507410Y881321D01*
X507795Y881384D01*
X508129Y881473D01*
X508412Y881588D01*
X508643Y881727D01*
X508823Y881892D01*
X508952Y882083D01*
X509029Y882299D01*
X509055Y882540D01*
Y877460D01*
D02*
G37*
G36*
X429959Y882299D02*
X430036Y882083D01*
X430164Y881892D01*
X430344Y881727D01*
X430576Y881588D01*
X430858Y881473D01*
X431193Y881384D01*
X431578Y881321D01*
X432015Y881283D01*
X432504Y881270D01*
Y878730D01*
X432015Y878717D01*
X431578Y878679D01*
X431193Y878616D01*
X430858Y878527D01*
X430576Y878413D01*
X430344Y878273D01*
X430164Y878108D01*
X430036Y877917D01*
X429959Y877701D01*
X429933Y877460D01*
Y882540D01*
X429959Y882299D01*
D02*
G37*
G36*
X476353Y880125D02*
X476008Y880074D01*
X475699Y879921D01*
X475426Y879667D01*
X475189Y879312D01*
X474989Y878855D01*
X474825Y878296D01*
X474698Y877635D01*
X474607Y876873D01*
X474552Y876010D01*
X474534Y875044D01*
X469454D01*
X469429Y876014D01*
X469353Y876882D01*
X469226Y877647D01*
X469048Y878311D01*
X468819Y878873D01*
X468540Y879333D01*
X468210Y879692D01*
X467829Y879948D01*
X467397Y880102D01*
X466914Y880155D01*
X476353Y880125D01*
D02*
G37*
G36*
X525676Y879819D02*
X525532Y879352D01*
Y878814D01*
X525676Y878203D01*
X525963Y877521D01*
X526394Y876766D01*
X526969Y875940D01*
X527687Y875042D01*
X529555Y873030D01*
X525963Y869438D01*
X524922Y870444D01*
X523054Y872025D01*
X522228Y872599D01*
X521473Y873030D01*
X520791Y873318D01*
X520180Y873462D01*
X519641D01*
X519174Y873318D01*
X518779Y873030D01*
X525963Y880215D01*
X525676Y879819D01*
D02*
G37*
G36*
X474560Y872579D02*
X474636Y871710D01*
X474763Y870943D01*
X474941Y870279D01*
X475169Y869717D01*
X475449Y869257D01*
X475779Y868899D01*
X476160Y868644D01*
X476592Y868490D01*
X477074Y868439D01*
X466914D01*
X467397Y868490D01*
X467829Y868644D01*
X468210Y868899D01*
X468540Y869257D01*
X468819Y869717D01*
X469048Y870279D01*
X469226Y870943D01*
X469353Y871710D01*
X469429Y872579D01*
X469454Y873550D01*
X474534D01*
X474560Y872579D01*
D02*
G37*
G36*
X426091Y873980D02*
X425660Y873828D01*
X425279Y873574D01*
X424948Y873218D01*
X424669Y872761D01*
X424440Y872202D01*
X424263Y871542D01*
X424136Y870779D01*
X424059Y869916D01*
X424035Y868994D01*
X424051Y868426D01*
X424100Y867846D01*
X424183Y867296D01*
X424300Y866776D01*
X424449Y866286D01*
X424632Y865826D01*
X424847Y865396D01*
X425096Y864996D01*
X425379Y864625D01*
X425694Y864285D01*
X417294D01*
X417609Y864625D01*
X417892Y864996D01*
X418141Y865396D01*
X418356Y865826D01*
X418539Y866286D01*
X418688Y866776D01*
X418805Y867296D01*
X418888Y867846D01*
X418937Y868426D01*
X418953Y868994D01*
X418929Y869916D01*
X418852Y870779D01*
X418725Y871542D01*
X418548Y872202D01*
X418319Y872761D01*
X418040Y873218D01*
X417709Y873574D01*
X417328Y873828D01*
X416897Y873980D01*
X416414Y874031D01*
X426574D01*
X426091Y873980D01*
D02*
G37*
G36*
X530454Y872157D02*
X530901Y871786D01*
X531350Y871464D01*
X531800Y871191D01*
X532253Y870966D01*
X532707Y870791D01*
X533163Y870664D01*
X533621Y870586D01*
X534081Y870556D01*
X534542Y870576D01*
X529128Y864154D01*
X529073Y864612D01*
X528978Y865067D01*
X528842Y865521D01*
X528665Y865973D01*
X528448Y866423D01*
X528191Y866872D01*
X527893Y867318D01*
X527554Y867763D01*
X527175Y868206D01*
X526755Y868647D01*
X530009Y872577D01*
X530454Y872157D01*
D02*
G37*
G36*
X426119Y863885D02*
X426490Y863603D01*
X426890Y863354D01*
X427320Y863138D01*
X427780Y862955D01*
X428270Y862806D01*
X428790Y862690D01*
X429340Y862607D01*
X429920Y862557D01*
X430530Y862540D01*
Y857460D01*
X429920Y857443D01*
X429340Y857394D01*
X428790Y857311D01*
X428270Y857195D01*
X427780Y857045D01*
X427320Y856862D01*
X426890Y856647D01*
X426490Y856398D01*
X426119Y856115D01*
X425779Y855800D01*
Y864200D01*
X426119Y863885D01*
D02*
G37*
G36*
X439525Y854920D02*
X439474Y855403D01*
X439321Y855835D01*
X439067Y856216D01*
X438712Y856546D01*
X438255Y856825D01*
X437696Y857054D01*
X437035Y857232D01*
X436273Y857358D01*
X435410Y857435D01*
X434445Y857460D01*
Y862540D01*
X435410Y862566D01*
X436273Y862642D01*
X437035Y862769D01*
X437696Y862946D01*
X438255Y863175D01*
X438712Y863455D01*
X439067Y863785D01*
X439321Y864166D01*
X439474Y864597D01*
X439525Y865080D01*
Y854920D01*
D02*
G37*
G36*
X127490Y864597D02*
X127643Y864166D01*
X127899Y863785D01*
X128257Y863455D01*
X128717Y863175D01*
X129279Y862946D01*
X129943Y862769D01*
X130710Y862642D01*
X131579Y862566D01*
X132550Y862540D01*
Y857460D01*
X131579Y857435D01*
X130710Y857358D01*
X129943Y857232D01*
X129279Y857054D01*
X128717Y856825D01*
X128257Y856546D01*
X127899Y856216D01*
X127643Y855835D01*
X127490Y855403D01*
X127439Y854920D01*
Y865080D01*
X127490Y864597D01*
D02*
G37*
G36*
X314812Y853782D02*
X314465Y853354D01*
X314159Y852908D01*
X313894Y852444D01*
X313669Y851962D01*
X313486Y851462D01*
X313343Y850943D01*
X313272Y850572D01*
X313353Y850085D01*
X313504Y849524D01*
X313699Y849049D01*
X313936Y848660D01*
X314217Y848358D01*
X314541Y848142D01*
X314908Y848013D01*
X315318Y847970D01*
X306682D01*
X307092Y848013D01*
X307459Y848142D01*
X307783Y848358D01*
X308064Y848660D01*
X308301Y849049D01*
X308496Y849524D01*
X308647Y850085D01*
X308728Y850572D01*
X308657Y850943D01*
X308514Y851462D01*
X308331Y851962D01*
X308106Y852444D01*
X307841Y852908D01*
X307535Y853354D01*
X307188Y853782D01*
X306800Y854191D01*
X315200D01*
X314812Y853782D01*
D02*
G37*
G36*
X208561Y838420D02*
X208510Y838903D01*
X208357Y839335D01*
X208101Y839716D01*
X207743Y840046D01*
X207283Y840325D01*
X206721Y840554D01*
X206057Y840732D01*
X205500Y840824D01*
X204943Y840732D01*
X204279Y840554D01*
X203717Y840325D01*
X203257Y840046D01*
X202899Y839716D01*
X202643Y839335D01*
X202490Y838903D01*
X202439Y838420D01*
Y848580D01*
X202490Y848098D01*
X202643Y847666D01*
X202899Y847285D01*
X203257Y846955D01*
X203717Y846675D01*
X204279Y846447D01*
X204943Y846269D01*
X205500Y846177D01*
X206057Y846269D01*
X206721Y846447D01*
X207283Y846675D01*
X207743Y846955D01*
X208101Y847285D01*
X208357Y847666D01*
X208510Y848098D01*
X208561Y848580D01*
Y838420D01*
D02*
G37*
G36*
X185561D02*
X185510Y838903D01*
X185357Y839335D01*
X185101Y839716D01*
X184743Y840046D01*
X184283Y840325D01*
X183721Y840554D01*
X183057Y840732D01*
X182290Y840859D01*
X181875Y840895D01*
X181857Y840894D01*
X181308Y840810D01*
X180788Y840694D01*
X180299Y840544D01*
X179839Y840360D01*
X179410Y840144D01*
X179010Y839893D01*
X178641Y839610D01*
X178302Y839293D01*
X178268Y847693D01*
X178609Y847379D01*
X178981Y847098D01*
X179382Y846850D01*
X179813Y846635D01*
X180274Y846453D01*
X180764Y846305D01*
X181285Y846189D01*
X181835Y846106D01*
X181861Y846104D01*
X182290Y846142D01*
X183057Y846269D01*
X183721Y846447D01*
X184283Y846675D01*
X184743Y846955D01*
X185101Y847285D01*
X185357Y847666D01*
X185510Y848098D01*
X185561Y848580D01*
Y838420D01*
D02*
G37*
G36*
X302561Y837182D02*
X302517Y837592D01*
X302387Y837959D01*
X302170Y838283D01*
X301865Y838564D01*
X301474Y838801D01*
X300996Y838995D01*
X300430Y839146D01*
X299778Y839254D01*
X299500Y839279D01*
X299222Y839254D01*
X298570Y839146D01*
X298004Y838995D01*
X297526Y838801D01*
X297134Y838564D01*
X296830Y838283D01*
X296613Y837959D01*
X296482Y837592D01*
X296439Y837182D01*
Y845818D01*
X296482Y845408D01*
X296613Y845041D01*
X296830Y844717D01*
X297134Y844436D01*
X297526Y844199D01*
X298004Y844004D01*
X298570Y843853D01*
X299222Y843745D01*
X299500Y843721D01*
X299778Y843745D01*
X300430Y843853D01*
X300996Y844004D01*
X301474Y844199D01*
X301865Y844436D01*
X302170Y844717D01*
X302387Y845041D01*
X302517Y845408D01*
X302561Y845818D01*
Y837182D01*
D02*
G37*
G36*
X270555Y843943D02*
X270684Y843883D01*
X270900Y843830D01*
X271202Y843785D01*
X272066Y843715D01*
X274009Y843662D01*
X274829Y843659D01*
Y839341D01*
X274009Y839337D01*
X270684Y839116D01*
X270555Y839057D01*
X270511Y838990D01*
Y844009D01*
X270555Y843943D01*
D02*
G37*
G36*
X279561Y837182D02*
X279517Y837592D01*
X279387Y837959D01*
X279169Y838283D01*
X278865Y838564D01*
X278474Y838801D01*
X277995Y838995D01*
X277430Y839146D01*
X276778Y839254D01*
X276038Y839319D01*
X275212Y839341D01*
Y843659D01*
X276038Y843680D01*
X276778Y843745D01*
X277430Y843853D01*
X277995Y844004D01*
X278474Y844199D01*
X278865Y844436D01*
X279169Y844717D01*
X279387Y845041D01*
X279517Y845408D01*
X279561Y845818D01*
Y837182D01*
D02*
G37*
G36*
X219957Y838030D02*
X219870Y837938D01*
X219792Y837784D01*
X219725Y837568D01*
X219669Y837290D01*
X219622Y836951D01*
X219561Y836087D01*
X219540Y834976D01*
X214460D01*
X214455Y835562D01*
X214331Y837290D01*
X214275Y837568D01*
X214208Y837784D01*
X214131Y837938D01*
X214043Y838030D01*
X213945Y838061D01*
X220055D01*
X219957Y838030D01*
D02*
G37*
G36*
X208561Y811420D02*
X208510Y811903D01*
X208357Y812335D01*
X208101Y812716D01*
X207743Y813046D01*
X207283Y813325D01*
X206721Y813554D01*
X206057Y813732D01*
X205500Y813824D01*
X204943Y813732D01*
X204279Y813554D01*
X203717Y813325D01*
X203257Y813046D01*
X202899Y812716D01*
X202643Y812335D01*
X202490Y811903D01*
X202439Y811420D01*
Y821580D01*
X202490Y821097D01*
X202643Y820666D01*
X202899Y820285D01*
X203257Y819955D01*
X203717Y819675D01*
X204279Y819446D01*
X204943Y819269D01*
X205500Y819176D01*
X206057Y819269D01*
X206721Y819446D01*
X207283Y819675D01*
X207743Y819955D01*
X208101Y820285D01*
X208357Y820666D01*
X208510Y821097D01*
X208561Y821580D01*
Y811420D01*
D02*
G37*
G36*
X302561Y810420D02*
X302510Y810902D01*
X302356Y811334D01*
X302101Y811715D01*
X301743Y812045D01*
X301283Y812325D01*
X300721Y812553D01*
X300057Y812731D01*
X299500Y812823D01*
X298943Y812731D01*
X298279Y812553D01*
X297716Y812325D01*
X297256Y812045D01*
X296899Y811715D01*
X296643Y811334D01*
X296490Y810902D01*
X296439Y810420D01*
Y820580D01*
X296490Y820097D01*
X296643Y819665D01*
X296899Y819284D01*
X297256Y818954D01*
X297716Y818675D01*
X298279Y818446D01*
X298943Y818268D01*
X299500Y818176D01*
X300057Y818268D01*
X300721Y818446D01*
X301283Y818675D01*
X301743Y818954D01*
X302101Y819284D01*
X302356Y819665D01*
X302510Y820097D01*
X302561Y820580D01*
Y810420D01*
D02*
G37*
G36*
X242795Y819940D02*
X242426Y819787D01*
X242102Y819533D01*
X241820Y819178D01*
X241582Y818720D01*
X241387Y818162D01*
X241235Y817501D01*
X241127Y816739D01*
X241062Y815876D01*
X241040Y814911D01*
X235960D01*
X235935Y815876D01*
X235861Y816739D01*
X235738Y817501D01*
X235565Y818162D01*
X235342Y818720D01*
X235070Y819178D01*
X234749Y819533D01*
X234378Y819787D01*
X233958Y819940D01*
X233488Y819990D01*
X243206D01*
X242795Y819940D01*
D02*
G37*
G36*
X241066Y809578D02*
X241142Y808710D01*
X241269Y807943D01*
X241447Y807279D01*
X241675Y806717D01*
X241955Y806257D01*
X242285Y805899D01*
X242666Y805643D01*
X243098Y805490D01*
X243580Y805439D01*
X233420D01*
X233903Y805490D01*
X234335Y805643D01*
X234716Y805899D01*
X235046Y806257D01*
X235325Y806717D01*
X235554Y807279D01*
X235732Y807943D01*
X235859Y808710D01*
X235935Y809578D01*
X235960Y810549D01*
X241040D01*
X241066Y809578D01*
D02*
G37*
G36*
X198597Y811010D02*
X198165Y810857D01*
X197785Y810601D01*
X197454Y810243D01*
X197175Y809783D01*
X196946Y809221D01*
X196768Y808557D01*
X196715Y808233D01*
X196759Y807959D01*
X196929Y807298D01*
X197147Y806740D01*
X197415Y806282D01*
X197730Y805927D01*
X198095Y805673D01*
X198508Y805520D01*
X198970Y805470D01*
X188920Y805439D01*
X189403Y805491D01*
X189834Y805646D01*
X190215Y805902D01*
X190546Y806260D01*
X190825Y806721D01*
X191054Y807282D01*
X191231Y807946D01*
X191282Y808251D01*
X191231Y808557D01*
X191054Y809221D01*
X190825Y809783D01*
X190546Y810243D01*
X190215Y810601D01*
X189834Y810857D01*
X189403Y811010D01*
X188920Y811061D01*
X199080D01*
X198597Y811010D01*
D02*
G37*
G36*
X292597Y810010D02*
X292165Y809856D01*
X291784Y809601D01*
X291454Y809243D01*
X291175Y808783D01*
X290946Y808221D01*
X290768Y807557D01*
X290641Y806790D01*
X290565Y805921D01*
X290541Y804994D01*
X290556Y804426D01*
X290606Y803846D01*
X290689Y803297D01*
X290805Y802776D01*
X290955Y802286D01*
X291137Y801826D01*
X291353Y801396D01*
X291602Y800996D01*
X291884Y800626D01*
X292200Y800285D01*
X283800D01*
X284115Y800626D01*
X284397Y800996D01*
X284646Y801396D01*
X284862Y801826D01*
X285045Y802286D01*
X285194Y802776D01*
X285310Y803297D01*
X285393Y803846D01*
X285443Y804426D01*
X285459Y804994D01*
X285434Y805921D01*
X285358Y806790D01*
X285231Y807557D01*
X285053Y808221D01*
X284825Y808783D01*
X284545Y809243D01*
X284215Y809601D01*
X283834Y809856D01*
X283402Y810010D01*
X282920Y810061D01*
X293080D01*
X292597Y810010D01*
D02*
G37*
G36*
X233031Y791920D02*
X232980Y792403D01*
X232827Y792834D01*
X232574Y793215D01*
X232218Y793546D01*
X231761Y793825D01*
X231202Y794054D01*
X230541Y794231D01*
X229779Y794358D01*
X229500Y794383D01*
X229221Y794358D01*
X228459Y794231D01*
X227799Y794054D01*
X227240Y793825D01*
X226783Y793546D01*
X226427Y793215D01*
X226173Y792834D01*
X226021Y792403D01*
X225970Y791920D01*
Y802080D01*
X226021Y801597D01*
X226173Y801166D01*
X226427Y800785D01*
X226783Y800454D01*
X227240Y800175D01*
X227799Y799946D01*
X228459Y799769D01*
X229221Y799642D01*
X229500Y799617D01*
X229779Y799642D01*
X230541Y799769D01*
X231202Y799946D01*
X231761Y800175D01*
X232218Y800454D01*
X232574Y800785D01*
X232827Y801166D01*
X232980Y801597D01*
X233031Y802080D01*
Y791920D01*
D02*
G37*
G36*
X188061D02*
X188010Y792403D01*
X187857Y792834D01*
X187601Y793215D01*
X187243Y793546D01*
X186783Y793825D01*
X186221Y794054D01*
X185557Y794231D01*
X184790Y794358D01*
X184120Y794417D01*
X183846Y794394D01*
X183296Y794311D01*
X182776Y794194D01*
X182286Y794045D01*
X181826Y793862D01*
X181396Y793647D01*
X180996Y793398D01*
X180625Y793115D01*
X180285Y792800D01*
Y801200D01*
X180625Y800885D01*
X180996Y800602D01*
X181396Y800353D01*
X181826Y800138D01*
X182286Y799955D01*
X182776Y799806D01*
X183296Y799689D01*
X183846Y799606D01*
X184120Y799583D01*
X184790Y799642D01*
X185557Y799769D01*
X186221Y799946D01*
X186783Y800175D01*
X187243Y800454D01*
X187601Y800785D01*
X187857Y801166D01*
X188010Y801597D01*
X188061Y802080D01*
Y791920D01*
D02*
G37*
G36*
X633061Y787670D02*
X633010Y788153D01*
X632857Y788585D01*
X632601Y788966D01*
X632243Y789296D01*
X631783Y789575D01*
X631221Y789804D01*
X630557Y789982D01*
X629790Y790109D01*
X629207Y790160D01*
X629083Y790150D01*
X628529Y790075D01*
X628003Y789970D01*
X627504Y789835D01*
X627032Y789669D01*
X626588Y789474D01*
X626171Y789249D01*
X625782Y788993D01*
X625420Y788708D01*
X626120Y797078D01*
X626433Y796739D01*
X626779Y796435D01*
X627158Y796167D01*
X627571Y795934D01*
X628017Y795737D01*
X628495Y795576D01*
X629007Y795451D01*
X629516Y795368D01*
X629790Y795392D01*
X630557Y795519D01*
X631221Y795697D01*
X631783Y795925D01*
X632243Y796205D01*
X632601Y796535D01*
X632857Y796916D01*
X633010Y797348D01*
X633061Y797830D01*
Y787670D01*
D02*
G37*
G36*
X668385Y788625D02*
X668103Y788254D01*
X667854Y787854D01*
X667638Y787424D01*
X667455Y786964D01*
X667306Y786474D01*
X667190Y785954D01*
X667132Y785572D01*
X667142Y785460D01*
X667269Y784693D01*
X667447Y784029D01*
X667675Y783467D01*
X667955Y783007D01*
X668285Y782649D01*
X668666Y782394D01*
X669098Y782240D01*
X669580Y782189D01*
X659420D01*
X659903Y782240D01*
X660335Y782394D01*
X660716Y782649D01*
X661046Y783007D01*
X661325Y783467D01*
X661554Y784029D01*
X661732Y784693D01*
X661859Y785460D01*
X661869Y785572D01*
X661811Y785954D01*
X661695Y786474D01*
X661545Y786964D01*
X661363Y787424D01*
X661147Y787854D01*
X660898Y788254D01*
X660616Y788625D01*
X660300Y788965D01*
X668700D01*
X668385Y788625D01*
D02*
G37*
G36*
X570990Y788097D02*
X571143Y787666D01*
X571399Y787285D01*
X571757Y786954D01*
X572217Y786675D01*
X572779Y786446D01*
X573443Y786269D01*
X573607Y786242D01*
X573853Y786294D01*
X574348Y786436D01*
X574814Y786611D01*
X575252Y786817D01*
X575661Y787054D01*
X576042Y787324D01*
X576394Y787625D01*
X576044Y779232D01*
X575717Y779560D01*
X575358Y779854D01*
X574967Y780113D01*
X574546Y780338D01*
X574092Y780528D01*
X573608Y780684D01*
X573425Y780726D01*
X572779Y780554D01*
X572217Y780325D01*
X571757Y780046D01*
X571399Y779715D01*
X571143Y779334D01*
X570990Y778903D01*
X570939Y778420D01*
Y788580D01*
X570990Y788097D01*
D02*
G37*
G36*
X669098Y771230D02*
X668666Y771077D01*
X668285Y770824D01*
X667955Y770468D01*
X667675Y770011D01*
X667447Y769452D01*
X667269Y768792D01*
X667142Y768029D01*
X667066Y767166D01*
X667040Y766201D01*
X661960D01*
X661935Y767166D01*
X661859Y768029D01*
X661732Y768792D01*
X661554Y769452D01*
X661325Y770011D01*
X661046Y770468D01*
X660716Y770824D01*
X660335Y771077D01*
X659903Y771230D01*
X659420Y771281D01*
X669580D01*
X669098Y771230D01*
D02*
G37*
G36*
X601192Y760442D02*
X600737Y759921D01*
X600335Y759403D01*
X599987Y758887D01*
X599693Y758374D01*
X599452Y757864D01*
X599265Y757356D01*
X599131Y756850D01*
X599051Y756347D01*
X599024Y755847D01*
X595976D01*
X595949Y756347D01*
X595869Y756850D01*
X595735Y757356D01*
X595548Y757864D01*
X595307Y758374D01*
X595013Y758887D01*
X594665Y759403D01*
X594263Y759921D01*
X593809Y760442D01*
X593300Y760965D01*
X601700D01*
X601192Y760442D01*
D02*
G37*
G36*
X681061Y755670D02*
X681010Y756153D01*
X680856Y756585D01*
X680601Y756966D01*
X680243Y757296D01*
X679783Y757575D01*
X679221Y757804D01*
X678557Y757982D01*
X677790Y758109D01*
X676921Y758185D01*
X675950Y758210D01*
Y763290D01*
X676921Y763316D01*
X677790Y763392D01*
X678557Y763519D01*
X679221Y763697D01*
X679783Y763925D01*
X680243Y764205D01*
X680601Y764535D01*
X680856Y764916D01*
X681010Y765348D01*
X681061Y765830D01*
Y755670D01*
D02*
G37*
G36*
X644258Y760280D02*
X643999Y760188D01*
X643771Y760034D01*
X643573Y759818D01*
X643405Y759541D01*
X643268Y759203D01*
X643161Y758802D01*
X643085Y758341D01*
X643039Y757817D01*
X643031Y757502D01*
X643039Y757187D01*
X643085Y756664D01*
X643161Y756202D01*
X643268Y755801D01*
X643405Y755463D01*
X643573Y755186D01*
X643771Y754970D01*
X643999Y754816D01*
X644258Y754724D01*
X644548Y754693D01*
X638452D01*
X638742Y754724D01*
X639001Y754816D01*
X639229Y754970D01*
X639427Y755186D01*
X639595Y755463D01*
X639732Y755801D01*
X639839Y756202D01*
X639915Y756664D01*
X639961Y757187D01*
X639969Y757502D01*
X639961Y757817D01*
X639915Y758341D01*
X639839Y758802D01*
X639732Y759203D01*
X639595Y759541D01*
X639427Y759818D01*
X639229Y760034D01*
X639001Y760188D01*
X638742Y760280D01*
X638452Y760311D01*
X644548D01*
X644258Y760280D01*
D02*
G37*
G36*
X570971Y755759D02*
X571065Y755500D01*
X571220Y755271D01*
X571436Y755073D01*
X571713Y754905D01*
X572052Y754768D01*
X572452Y754661D01*
X572912Y754585D01*
X573434Y754539D01*
X574007Y754525D01*
X574506Y754526D01*
X576944Y754686D01*
X576974Y754724D01*
Y751277D01*
X576944Y751315D01*
X576852Y751348D01*
X576700Y751378D01*
X576487Y751404D01*
X575877Y751444D01*
X573942Y751476D01*
X573438Y751474D01*
X571000Y751318D01*
X570969Y751281D01*
X570939Y756048D01*
X570971Y755759D01*
D02*
G37*
G36*
X648056Y748186D02*
X648148Y748151D01*
X648300Y748122D01*
X648513Y748096D01*
X649123Y748056D01*
X651074Y748024D01*
Y744976D01*
X650495Y744974D01*
X648056Y744814D01*
X648026Y744776D01*
Y748223D01*
X648056Y748186D01*
D02*
G37*
G36*
X656031Y744280D02*
X656000Y744413D01*
X655909Y744531D01*
X655756Y744635D01*
X655543Y744725D01*
X655269Y744802D01*
X654933Y744865D01*
X654537Y744913D01*
X653562Y744969D01*
X652983Y744976D01*
Y748024D01*
X653566Y748039D01*
X654088Y748085D01*
X654549Y748161D01*
X654949Y748268D01*
X655287Y748405D01*
X655564Y748572D01*
X655780Y748771D01*
X655935Y748999D01*
X656029Y749258D01*
X656061Y749548D01*
X656031Y744280D01*
D02*
G37*
G36*
X648051Y741637D02*
X648127Y741560D01*
X648254Y741492D01*
X648432Y741433D01*
X648661Y741383D01*
X648940Y741343D01*
X649651Y741288D01*
X650566Y741270D01*
Y738730D01*
X650083Y738725D01*
X648661Y738617D01*
X648432Y738567D01*
X648254Y738508D01*
X648127Y738440D01*
X648051Y738363D01*
X648026Y738277D01*
Y741723D01*
X648051Y741637D01*
D02*
G37*
G36*
X545385Y738625D02*
X545103Y738255D01*
X544854Y737854D01*
X544638Y737424D01*
X544455Y736964D01*
X544306Y736474D01*
X544212Y736052D01*
X544269Y735709D01*
X544447Y735048D01*
X544675Y734490D01*
X544955Y734032D01*
X545285Y733677D01*
X545666Y733423D01*
X546098Y733270D01*
X546580Y733220D01*
X536420D01*
X536903Y733270D01*
X537335Y733423D01*
X537716Y733677D01*
X538046Y734032D01*
X538325Y734490D01*
X538554Y735048D01*
X538732Y735709D01*
X538789Y736052D01*
X538695Y736474D01*
X538545Y736964D01*
X538363Y737424D01*
X538147Y737854D01*
X537898Y738255D01*
X537616Y738625D01*
X537300Y738965D01*
X545700D01*
X545385Y738625D01*
D02*
G37*
G36*
X648051Y735137D02*
X648127Y735060D01*
X648254Y734992D01*
X648432Y734933D01*
X648661Y734883D01*
X648940Y734843D01*
X649651Y734788D01*
X650566Y734770D01*
Y732230D01*
X650083Y732226D01*
X648661Y732117D01*
X648432Y732067D01*
X648254Y732008D01*
X648127Y731940D01*
X648051Y731863D01*
X648026Y731777D01*
Y735224D01*
X648051Y735137D01*
D02*
G37*
G36*
X591556Y735186D02*
X591647Y735152D01*
X591800Y735122D01*
X592013Y735096D01*
X592623Y735056D01*
X594574Y735024D01*
Y731976D01*
X593994Y731974D01*
X591556Y731814D01*
X591525Y731777D01*
Y735224D01*
X591556Y735186D01*
D02*
G37*
G36*
X681061Y730960D02*
X681035Y731201D01*
X680958Y731417D01*
X680830Y731608D01*
X680650Y731773D01*
X680418Y731913D01*
X680135Y732027D01*
X679801Y732116D01*
X679416Y732179D01*
X678979Y732217D01*
X678490Y732230D01*
Y734770D01*
X678979Y734783D01*
X679416Y734821D01*
X679801Y734884D01*
X680135Y734973D01*
X680418Y735088D01*
X680650Y735227D01*
X680830Y735392D01*
X680958Y735583D01*
X681035Y735799D01*
X681061Y736040D01*
Y730960D01*
D02*
G37*
G36*
X554061Y723952D02*
X554030Y724242D01*
X553938Y724501D01*
X553784Y724730D01*
X553568Y724928D01*
X553291Y725095D01*
X552953Y725232D01*
X552552Y725339D01*
X552091Y725415D01*
X551567Y725461D01*
X551500Y725463D01*
X551433Y725461D01*
X550909Y725415D01*
X550447Y725339D01*
X550047Y725232D01*
X549709Y725095D01*
X549431Y724928D01*
X549216Y724730D01*
X549062Y724501D01*
X548970Y724242D01*
X548939Y723952D01*
Y730048D01*
X548970Y729759D01*
X549062Y729500D01*
X549216Y729271D01*
X549431Y729073D01*
X549709Y728905D01*
X550047Y728768D01*
X550447Y728661D01*
X550909Y728585D01*
X551433Y728540D01*
X551500Y728538D01*
X551567Y728540D01*
X552091Y728585D01*
X552552Y728661D01*
X552953Y728768D01*
X553291Y728905D01*
X553568Y729073D01*
X553784Y729271D01*
X553938Y729500D01*
X554030Y729759D01*
X554061Y730048D01*
Y723952D01*
D02*
G37*
G36*
X648051Y728638D02*
X648127Y728560D01*
X648254Y728493D01*
X648432Y728434D01*
X648661Y728384D01*
X648940Y728343D01*
X649651Y728288D01*
X650566Y728270D01*
Y725730D01*
X650083Y725726D01*
X648661Y725617D01*
X648432Y725567D01*
X648254Y725508D01*
X648127Y725440D01*
X648051Y725363D01*
X648026Y725277D01*
Y728724D01*
X648051Y728638D01*
D02*
G37*
G36*
X570970Y729759D02*
X571062Y729500D01*
X571216Y729271D01*
X571432Y729073D01*
X571709Y728905D01*
X572047Y728768D01*
X572447Y728661D01*
X572909Y728585D01*
X573433Y728540D01*
X574007Y728525D01*
X574506Y728526D01*
X576944Y728686D01*
X576974Y728724D01*
Y725277D01*
X576944Y725315D01*
X576852Y725349D01*
X576700Y725378D01*
X576487Y725404D01*
X575877Y725444D01*
X573982Y725475D01*
X573433Y725461D01*
X572909Y725415D01*
X572447Y725339D01*
X572047Y725232D01*
X571709Y725095D01*
X571432Y724928D01*
X571216Y724730D01*
X571062Y724501D01*
X570970Y724242D01*
X570939Y723952D01*
Y730048D01*
X570970Y729759D01*
D02*
G37*
G36*
X648056Y722186D02*
X648148Y722152D01*
X648300Y722122D01*
X648513Y722096D01*
X649123Y722056D01*
X651074Y722024D01*
Y718976D01*
X650495Y718974D01*
X648056Y718814D01*
X648026Y718776D01*
Y722223D01*
X648056Y722186D01*
D02*
G37*
G36*
X633475Y718776D02*
X633444Y718814D01*
X633353Y718848D01*
X633200Y718878D01*
X632987Y718904D01*
X632377Y718944D01*
X630427Y718976D01*
Y722024D01*
X631006Y722026D01*
X633444Y722186D01*
X633475Y722223D01*
Y718776D01*
D02*
G37*
G36*
X648051Y715590D02*
X648127Y715470D01*
X648254Y715365D01*
X648432Y715273D01*
X648661Y715196D01*
X648940Y715133D01*
X649270Y715083D01*
X649651Y715048D01*
X650566Y715020D01*
Y712480D01*
X650083Y712478D01*
X648127Y712350D01*
X648051Y712315D01*
X648026Y712277D01*
Y715724D01*
X648051Y715590D01*
D02*
G37*
G36*
X709801Y717392D02*
X710214Y717093D01*
X710666Y716830D01*
X711157Y716603D01*
X711689Y716413D01*
X712260Y716258D01*
X712870Y716139D01*
X713521Y716057D01*
X714210Y716010D01*
X714940Y716000D01*
X709000Y710060D01*
X708990Y710790D01*
X708943Y711479D01*
X708861Y712130D01*
X708742Y712740D01*
X708587Y713311D01*
X708397Y713843D01*
X708170Y714334D01*
X707907Y714786D01*
X707608Y715199D01*
X707273Y715572D01*
X709428Y717727D01*
X709801Y717392D01*
D02*
G37*
G36*
X336049Y714282D02*
X335702Y713854D01*
X335396Y713409D01*
X335131Y712944D01*
X334906Y712462D01*
X334722Y711962D01*
X334580Y711443D01*
X334509Y711072D01*
X334590Y710585D01*
X334741Y710024D01*
X334936Y709549D01*
X335173Y709161D01*
X335454Y708858D01*
X335778Y708642D01*
X336145Y708513D01*
X336555Y708470D01*
X327919D01*
X328329Y708513D01*
X328696Y708642D01*
X329020Y708858D01*
X329301Y709161D01*
X329538Y709549D01*
X329732Y710024D01*
X329884Y710585D01*
X329965Y711072D01*
X329894Y711443D01*
X329751Y711962D01*
X329568Y712462D01*
X329343Y712944D01*
X329078Y713409D01*
X328772Y713854D01*
X328425Y714282D01*
X328037Y714691D01*
X336437D01*
X336049Y714282D01*
D02*
G37*
G36*
X232798Y698920D02*
X232747Y699402D01*
X232593Y699834D01*
X232338Y700215D01*
X231980Y700546D01*
X231520Y700825D01*
X230958Y701053D01*
X230294Y701231D01*
X230237Y701241D01*
X230180Y701231D01*
X229516Y701053D01*
X228953Y700825D01*
X228493Y700546D01*
X228136Y700215D01*
X227880Y699834D01*
X227727Y699402D01*
X227676Y698920D01*
Y709080D01*
X227727Y708597D01*
X227880Y708166D01*
X228136Y707785D01*
X228493Y707454D01*
X228953Y707175D01*
X229516Y706946D01*
X230180Y706768D01*
X230237Y706759D01*
X230294Y706768D01*
X230958Y706946D01*
X231520Y707175D01*
X231980Y707454D01*
X232338Y707785D01*
X232593Y708166D01*
X232747Y708597D01*
X232798Y709080D01*
Y698920D01*
D02*
G37*
G36*
X210798D02*
X210747Y699402D01*
X210593Y699834D01*
X210338Y700215D01*
X209980Y700546D01*
X209520Y700825D01*
X208958Y701053D01*
X208294Y701231D01*
X207527Y701358D01*
X207112Y701395D01*
X207094Y701393D01*
X206545Y701310D01*
X206025Y701193D01*
X205536Y701043D01*
X205076Y700860D01*
X204647Y700643D01*
X204247Y700393D01*
X203878Y700110D01*
X203539Y699793D01*
X203505Y708193D01*
X203846Y707879D01*
X204218Y707598D01*
X204619Y707350D01*
X205050Y707135D01*
X205511Y706953D01*
X206001Y706804D01*
X206521Y706689D01*
X207072Y706606D01*
X207097Y706604D01*
X207527Y706641D01*
X208294Y706768D01*
X208958Y706946D01*
X209520Y707175D01*
X209980Y707454D01*
X210338Y707785D01*
X210593Y708166D01*
X210747Y708597D01*
X210798Y709080D01*
Y698920D01*
D02*
G37*
G36*
X648056Y709186D02*
X648148Y709152D01*
X648300Y709122D01*
X648513Y709096D01*
X649123Y709056D01*
X651074Y709024D01*
Y705976D01*
X650495Y705974D01*
X648056Y705815D01*
X648026Y705777D01*
Y709224D01*
X648056Y709186D01*
D02*
G37*
G36*
X591551Y709137D02*
X591627Y709060D01*
X591754Y708992D01*
X591932Y708933D01*
X592160Y708884D01*
X592440Y708843D01*
X593151Y708788D01*
X594066Y708770D01*
Y706230D01*
X593583Y706226D01*
X592160Y706117D01*
X591932Y706067D01*
X591754Y706008D01*
X591627Y705940D01*
X591551Y705863D01*
X591525Y705777D01*
Y709224D01*
X591551Y709137D01*
D02*
G37*
G36*
X655061Y704452D02*
X655028Y704742D01*
X654935Y705001D01*
X654780Y705229D01*
X654564Y705427D01*
X654286Y705595D01*
X653948Y705732D01*
X653548Y705839D01*
X653088Y705915D01*
X652566Y705961D01*
X651982Y705976D01*
Y709024D01*
X652562Y709026D01*
X655000Y709183D01*
X655031Y709220D01*
X655061Y704452D01*
D02*
G37*
G36*
X323798Y697682D02*
X323754Y698092D01*
X323624Y698459D01*
X323406Y698783D01*
X323102Y699064D01*
X322711Y699301D01*
X322232Y699495D01*
X321667Y699647D01*
X321237Y699718D01*
X320807Y699647D01*
X320241Y699495D01*
X319763Y699301D01*
X319372Y699064D01*
X319067Y698783D01*
X318850Y698459D01*
X318719Y698092D01*
X318676Y697682D01*
Y706318D01*
X318719Y705908D01*
X318850Y705541D01*
X319067Y705217D01*
X319372Y704936D01*
X319763Y704699D01*
X320241Y704504D01*
X320807Y704353D01*
X321237Y704282D01*
X321667Y704353D01*
X322232Y704504D01*
X322711Y704699D01*
X323102Y704936D01*
X323406Y705217D01*
X323624Y705541D01*
X323754Y705908D01*
X323798Y706318D01*
Y697682D01*
D02*
G37*
G36*
X301798D02*
X301754Y698092D01*
X301624Y698459D01*
X301406Y698783D01*
X301102Y699064D01*
X300711Y699301D01*
X300232Y699495D01*
X299667Y699647D01*
X299015Y699755D01*
X298276Y699819D01*
X298059Y699825D01*
X294921Y699617D01*
X294792Y699557D01*
X294748Y699490D01*
Y704509D01*
X294792Y704443D01*
X294921Y704383D01*
X295137Y704331D01*
X295439Y704285D01*
X296303Y704215D01*
X297921Y704171D01*
X298276Y704181D01*
X299015Y704245D01*
X299667Y704353D01*
X300232Y704504D01*
X300711Y704699D01*
X301102Y704936D01*
X301406Y705217D01*
X301624Y705541D01*
X301754Y705908D01*
X301798Y706318D01*
Y697682D01*
D02*
G37*
G36*
X554061Y695670D02*
X554010Y696152D01*
X553857Y696584D01*
X553601Y696965D01*
X553243Y697296D01*
X552783Y697575D01*
X552221Y697803D01*
X551557Y697981D01*
X551500Y697991D01*
X551443Y697981D01*
X550779Y697803D01*
X550217Y697575D01*
X549757Y697296D01*
X549399Y696965D01*
X549143Y696584D01*
X548990Y696152D01*
X548939Y695670D01*
Y705830D01*
X548990Y705347D01*
X549143Y704915D01*
X549399Y704535D01*
X549757Y704204D01*
X550217Y703925D01*
X550779Y703696D01*
X551443Y703519D01*
X551500Y703509D01*
X551557Y703519D01*
X552221Y703696D01*
X552783Y703925D01*
X553243Y704204D01*
X553601Y704535D01*
X553857Y704915D01*
X554010Y705347D01*
X554061Y705830D01*
Y695670D01*
D02*
G37*
G36*
X614539Y700183D02*
X614585Y699660D01*
X614661Y699198D01*
X614768Y698798D01*
X614905Y698459D01*
X615073Y698182D01*
X615271Y697966D01*
X615500Y697812D01*
X615759Y697720D01*
X616048Y697689D01*
X609952D01*
X610242Y697720D01*
X610501Y697812D01*
X610729Y697966D01*
X610928Y698182D01*
X611095Y698459D01*
X611232Y698798D01*
X611339Y699198D01*
X611415Y699660D01*
X611461Y700183D01*
X611476Y700768D01*
X614524D01*
X614539Y700183D01*
D02*
G37*
G36*
X570990Y705347D02*
X571143Y704915D01*
X571399Y704535D01*
X571757Y704204D01*
X572217Y703925D01*
X572779Y703696D01*
X573443Y703519D01*
X574210Y703391D01*
X575078Y703315D01*
X576049Y703290D01*
Y698210D01*
X575078Y698185D01*
X574210Y698108D01*
X573443Y697981D01*
X572779Y697803D01*
X572217Y697575D01*
X571757Y697296D01*
X571399Y696965D01*
X571143Y696584D01*
X570990Y696152D01*
X570939Y695670D01*
Y705830D01*
X570990Y705347D01*
D02*
G37*
G36*
X244194Y698530D02*
X244106Y698438D01*
X244029Y698283D01*
X243962Y698067D01*
X243906Y697790D01*
X243859Y697450D01*
X243797Y696586D01*
X243777Y695476D01*
X238697D01*
X238692Y696062D01*
X238568Y697790D01*
X238512Y698067D01*
X238445Y698283D01*
X238367Y698438D01*
X238280Y698530D01*
X238182Y698561D01*
X244291D01*
X244194Y698530D01*
D02*
G37*
G36*
X580349Y701016D02*
X580794Y700641D01*
X581242Y700311D01*
X581692Y700025D01*
X582144Y699785D01*
X582599Y699588D01*
X583055Y699437D01*
X583515Y699330D01*
X583976Y699268D01*
X584440Y699250D01*
X578500Y693310D01*
X578483Y693774D01*
X578420Y694235D01*
X578313Y694694D01*
X578162Y695151D01*
X577965Y695605D01*
X577724Y696058D01*
X577439Y696508D01*
X577109Y696955D01*
X576734Y697400D01*
X576314Y697843D01*
X579906Y701435D01*
X580349Y701016D01*
D02*
G37*
G36*
X645490Y693848D02*
X645643Y693416D01*
X645899Y693035D01*
X646257Y692705D01*
X646717Y692425D01*
X647279Y692197D01*
X647943Y692019D01*
X648710Y691892D01*
X649578Y691816D01*
X650549Y691790D01*
Y686710D01*
X649578Y686685D01*
X648710Y686609D01*
X647943Y686482D01*
X647279Y686304D01*
X646717Y686075D01*
X646257Y685796D01*
X645899Y685466D01*
X645643Y685085D01*
X645490Y684653D01*
X645439Y684170D01*
Y694330D01*
X645490Y693848D01*
D02*
G37*
G36*
X660963Y685499D02*
X661084Y684193D01*
X661190Y683663D01*
X661327Y683213D01*
X661493Y682846D01*
X661690Y682559D01*
X661917Y682354D01*
X662175Y682231D01*
X662463Y682189D01*
X655031Y682219D01*
X655190Y682260D01*
X655332Y682382D01*
X655458Y682584D01*
X655566Y682868D01*
X655658Y683233D01*
X655734Y683679D01*
X655792Y684206D01*
X655859Y685504D01*
X655868Y686274D01*
X660948D01*
X660963Y685499D01*
D02*
G37*
G36*
X717035Y682120D02*
X716466Y682677D01*
X715363Y683614D01*
X714828Y683995D01*
X714304Y684317D01*
X713792Y684581D01*
X713291Y684786D01*
X712801Y684933D01*
X712323Y685021D01*
X711856Y685050D01*
Y687590D01*
X712323Y687619D01*
X712801Y687707D01*
X713291Y687854D01*
X713792Y688059D01*
X714304Y688323D01*
X714828Y688645D01*
X715363Y689026D01*
X715909Y689465D01*
X717035Y690520D01*
Y682120D01*
D02*
G37*
G36*
X232798Y671920D02*
X232747Y672403D01*
X232593Y672835D01*
X232338Y673216D01*
X231980Y673546D01*
X231520Y673825D01*
X230958Y674054D01*
X230294Y674232D01*
X230237Y674241D01*
X230180Y674232D01*
X229516Y674054D01*
X228953Y673825D01*
X228493Y673546D01*
X228136Y673216D01*
X227880Y672835D01*
X227727Y672403D01*
X227676Y671920D01*
Y682080D01*
X227727Y681598D01*
X227880Y681166D01*
X228136Y680785D01*
X228493Y680455D01*
X228953Y680175D01*
X229516Y679947D01*
X230180Y679769D01*
X230237Y679759D01*
X230294Y679769D01*
X230958Y679947D01*
X231520Y680175D01*
X231980Y680455D01*
X232338Y680785D01*
X232593Y681166D01*
X232747Y681598D01*
X232798Y682080D01*
Y671920D01*
D02*
G37*
G36*
X323798Y670920D02*
X323747Y671403D01*
X323593Y671834D01*
X323338Y672215D01*
X322980Y672546D01*
X322520Y672825D01*
X321958Y673054D01*
X321294Y673231D01*
X321237Y673241D01*
X321180Y673231D01*
X320516Y673054D01*
X319954Y672825D01*
X319494Y672546D01*
X319136Y672215D01*
X318880Y671834D01*
X318727Y671403D01*
X318676Y670920D01*
Y681080D01*
X318727Y680597D01*
X318880Y680166D01*
X319136Y679785D01*
X319494Y679454D01*
X319954Y679175D01*
X320516Y678946D01*
X321180Y678769D01*
X321237Y678759D01*
X321294Y678769D01*
X321958Y678946D01*
X322520Y679175D01*
X322980Y679454D01*
X323338Y679785D01*
X323593Y680166D01*
X323747Y680597D01*
X323798Y681080D01*
Y670920D01*
D02*
G37*
G36*
X267032Y680440D02*
X266663Y680287D01*
X266339Y680033D01*
X266057Y679678D01*
X265819Y679221D01*
X265623Y678662D01*
X265472Y678001D01*
X265364Y677240D01*
X265299Y676376D01*
X265277Y675411D01*
X260197D01*
X260172Y676376D01*
X260098Y677240D01*
X259974Y678001D01*
X259802Y678662D01*
X259579Y679221D01*
X259307Y679678D01*
X258986Y680033D01*
X258615Y680287D01*
X258195Y680440D01*
X257726Y680491D01*
X267444D01*
X267032Y680440D01*
D02*
G37*
G36*
X644597Y680760D02*
X644165Y680607D01*
X643784Y680351D01*
X643454Y679994D01*
X643175Y679534D01*
X642946Y678971D01*
X642768Y678307D01*
X642642Y677541D01*
X642565Y676672D01*
X642541Y675744D01*
X642557Y675176D01*
X642606Y674596D01*
X642689Y674046D01*
X642805Y673526D01*
X642955Y673036D01*
X643138Y672576D01*
X643353Y672146D01*
X643602Y671746D01*
X643885Y671375D01*
X644200Y671035D01*
X635800D01*
X636115Y671375D01*
X636398Y671746D01*
X636646Y672146D01*
X636862Y672576D01*
X637045Y673036D01*
X637194Y673526D01*
X637310Y674046D01*
X637393Y674596D01*
X637443Y675176D01*
X637459Y675744D01*
X637435Y676672D01*
X637358Y677541D01*
X637231Y678307D01*
X637053Y678971D01*
X636825Y679534D01*
X636545Y679994D01*
X636215Y680351D01*
X635834Y680607D01*
X635402Y680760D01*
X634920Y680811D01*
X645080D01*
X644597Y680760D01*
D02*
G37*
G36*
X265302Y671078D02*
X265378Y670210D01*
X265506Y669443D01*
X265683Y668779D01*
X265912Y668216D01*
X266191Y667757D01*
X266521Y667399D01*
X266903Y667143D01*
X267334Y666990D01*
X267817Y666939D01*
X257657D01*
X258139Y666990D01*
X258571Y667143D01*
X258952Y667399D01*
X259282Y667757D01*
X259562Y668216D01*
X259790Y668779D01*
X259968Y669443D01*
X260095Y670210D01*
X260172Y671078D01*
X260197Y672049D01*
X265277D01*
X265302Y671078D01*
D02*
G37*
G36*
X222290Y671561D02*
X224817D01*
X224335Y671510D01*
X223903Y671357D01*
X223522Y671101D01*
X223192Y670743D01*
X222912Y670284D01*
X222684Y669721D01*
X222558Y669250D01*
X222684Y668779D01*
X222912Y668216D01*
X223192Y667757D01*
X223522Y667399D01*
X223903Y667143D01*
X224335Y666990D01*
X224817Y666939D01*
X222290D01*
X222277Y666451D01*
X217197D01*
X217185Y666939D01*
X214657D01*
X215140Y666990D01*
X215572Y667143D01*
X215953Y667399D01*
X216283Y667757D01*
X216562Y668216D01*
X216791Y668779D01*
X216917Y669250D01*
X216791Y669721D01*
X216562Y670284D01*
X216283Y670743D01*
X215953Y671101D01*
X215572Y671357D01*
X215140Y671510D01*
X214657Y671561D01*
X217185D01*
X217197Y672049D01*
X222277D01*
X222290Y671561D01*
D02*
G37*
G36*
X314834Y670510D02*
X314403Y670357D01*
X314021Y670101D01*
X313691Y669743D01*
X313412Y669283D01*
X313183Y668721D01*
X313006Y668057D01*
X312878Y667290D01*
X312820Y666620D01*
X312843Y666346D01*
X312926Y665796D01*
X313043Y665276D01*
X313192Y664786D01*
X313375Y664326D01*
X313590Y663896D01*
X313839Y663495D01*
X314121Y663125D01*
X314437Y662785D01*
X306037D01*
X306352Y663125D01*
X306635Y663495D01*
X306884Y663896D01*
X307099Y664326D01*
X307282Y664786D01*
X307431Y665276D01*
X307547Y665796D01*
X307631Y666346D01*
X307654Y666620D01*
X307595Y667290D01*
X307468Y668057D01*
X307290Y668721D01*
X307062Y669283D01*
X306782Y669743D01*
X306452Y670101D01*
X306071Y670357D01*
X305639Y670510D01*
X305157Y670561D01*
X315317D01*
X314834Y670510D01*
D02*
G37*
G36*
X257267Y661040D02*
X257286Y661040D01*
Y655960D01*
X257267Y655959D01*
Y653420D01*
X257217Y653903D01*
X257064Y654334D01*
X256810Y654715D01*
X256455Y655045D01*
X255997Y655325D01*
X255439Y655554D01*
X254778Y655731D01*
X254737Y655738D01*
X254696Y655731D01*
X254035Y655554D01*
X253476Y655325D01*
X253019Y655045D01*
X252664Y654715D01*
X252410Y654334D01*
X252257Y653903D01*
X252206Y653420D01*
Y655959D01*
X252187Y655960D01*
Y661040D01*
X252206Y661040D01*
Y663580D01*
X252257Y663097D01*
X252410Y662665D01*
X252664Y662284D01*
X253019Y661954D01*
X253476Y661675D01*
X254035Y661446D01*
X254696Y661268D01*
X254737Y661262D01*
X254778Y661268D01*
X255439Y661446D01*
X255997Y661675D01*
X256455Y661954D01*
X256810Y662284D01*
X257064Y662665D01*
X257217Y663097D01*
X257267Y663580D01*
Y661040D01*
D02*
G37*
G36*
X214298Y653420D02*
X214247Y653903D01*
X214094Y654334D01*
X213838Y654715D01*
X213480Y655045D01*
X213021Y655325D01*
X212458Y655554D01*
X211794Y655731D01*
X211028Y655858D01*
X210358Y655917D01*
X210083Y655893D01*
X209533Y655810D01*
X209013Y655694D01*
X208523Y655545D01*
X208063Y655362D01*
X207633Y655146D01*
X207233Y654898D01*
X206862Y654615D01*
X206522Y654300D01*
Y662700D01*
X206862Y662384D01*
X207233Y662102D01*
X207633Y661853D01*
X208063Y661637D01*
X208523Y661455D01*
X209013Y661305D01*
X209533Y661189D01*
X210083Y661106D01*
X210358Y661083D01*
X211028Y661142D01*
X211794Y661268D01*
X212458Y661446D01*
X213021Y661675D01*
X213480Y661954D01*
X213838Y662284D01*
X214094Y662665D01*
X214247Y663097D01*
X214298Y663580D01*
Y653420D01*
D02*
G37*
G36*
X127490Y664597D02*
X127643Y664166D01*
X127899Y663785D01*
X128257Y663454D01*
X128717Y663175D01*
X129279Y662946D01*
X129943Y662769D01*
X130710Y662642D01*
X131579Y662565D01*
X132550Y662540D01*
Y657460D01*
X131579Y657435D01*
X130710Y657358D01*
X129943Y657231D01*
X129279Y657054D01*
X128717Y656825D01*
X128257Y656546D01*
X127899Y656215D01*
X127643Y655834D01*
X127490Y655403D01*
X127439Y654920D01*
Y665080D01*
X127490Y664597D01*
D02*
G37*
G36*
X208725Y611027D02*
X208674Y611109D01*
X208522Y611183D01*
X208268Y611248D01*
X207912Y611304D01*
X207455Y611352D01*
X205474Y611443D01*
X203645Y611460D01*
Y616540D01*
X204610Y616544D01*
X208522Y616818D01*
X208674Y616891D01*
X208725Y616974D01*
Y611027D01*
D02*
G37*
G36*
X184347Y610976D02*
X183916Y610823D01*
X183535Y610569D01*
X183204Y610214D01*
X182925Y609757D01*
X182696Y609198D01*
X182519Y608537D01*
X182392Y607775D01*
X182315Y606912D01*
X182290Y605947D01*
X177210D01*
X177185Y606912D01*
X177108Y607775D01*
X176981Y608537D01*
X176804Y609198D01*
X176575Y609757D01*
X176296Y610214D01*
X175965Y610569D01*
X175584Y610823D01*
X175153Y610976D01*
X174670Y611027D01*
X184830D01*
X184347Y610976D01*
D02*
G37*
G36*
X182315Y602082D02*
X182392Y601214D01*
X182519Y600447D01*
X182696Y599783D01*
X182925Y599221D01*
X183204Y598761D01*
X183535Y598403D01*
X183916Y598147D01*
X184347Y597994D01*
X184830Y597943D01*
X174670D01*
X175153Y597994D01*
X175584Y598147D01*
X175965Y598403D01*
X176296Y598761D01*
X176575Y599221D01*
X176804Y599783D01*
X176981Y600447D01*
X177108Y601214D01*
X177185Y602082D01*
X177210Y603053D01*
X182290D01*
X182315Y602082D01*
D02*
G37*
G36*
X218848Y591976D02*
X218416Y591823D01*
X218035Y591569D01*
X217705Y591214D01*
X217425Y590756D01*
X217197Y590198D01*
X217019Y589537D01*
X216892Y588775D01*
X216816Y587912D01*
X216790Y586946D01*
X211710D01*
X211685Y587912D01*
X211609Y588775D01*
X211482Y589537D01*
X211304Y590198D01*
X211075Y590756D01*
X210796Y591214D01*
X210466Y591569D01*
X210085Y591823D01*
X209653Y591976D01*
X209170Y592026D01*
X219330D01*
X218848Y591976D01*
D02*
G37*
G36*
X184347D02*
X183916Y591823D01*
X183535Y591569D01*
X183204Y591214D01*
X182925Y590756D01*
X182696Y590198D01*
X182519Y589537D01*
X182392Y588775D01*
X182315Y587912D01*
X182290Y586946D01*
X177210D01*
X177185Y587912D01*
X177108Y588775D01*
X176981Y589537D01*
X176804Y590198D01*
X176575Y590756D01*
X176296Y591214D01*
X175965Y591569D01*
X175584Y591823D01*
X175153Y591976D01*
X174670Y592026D01*
X184830D01*
X184347Y591976D01*
D02*
G37*
G36*
X1431061Y571920D02*
X1431010Y572403D01*
X1430856Y572834D01*
X1430601Y573215D01*
X1430243Y573546D01*
X1429783Y573825D01*
X1429221Y574054D01*
X1428557Y574231D01*
X1427790Y574358D01*
X1426922Y574435D01*
X1426501Y574446D01*
X1426084Y574435D01*
X1425220Y574358D01*
X1424458Y574231D01*
X1423798Y574054D01*
X1423239Y573825D01*
X1422782Y573546D01*
X1422426Y573215D01*
X1422172Y572834D01*
X1422020Y572403D01*
X1421969Y571920D01*
Y582080D01*
X1422020Y581597D01*
X1422172Y581166D01*
X1422426Y580785D01*
X1422782Y580454D01*
X1423239Y580175D01*
X1423798Y579946D01*
X1424458Y579769D01*
X1425220Y579642D01*
X1426084Y579565D01*
X1426501Y579554D01*
X1426922Y579565D01*
X1427790Y579642D01*
X1428557Y579769D01*
X1429221Y579946D01*
X1429783Y580175D01*
X1430243Y580454D01*
X1430601Y580785D01*
X1430856Y581166D01*
X1431010Y581597D01*
X1431061Y582080D01*
Y571920D01*
D02*
G37*
G36*
X1461020Y581597D02*
X1461173Y581166D01*
X1461427Y580785D01*
X1461782Y580454D01*
X1462240Y580175D01*
X1462798Y579946D01*
X1463459Y579769D01*
X1464221Y579642D01*
X1464326Y579632D01*
X1464703Y579689D01*
X1465223Y579806D01*
X1465714Y579955D01*
X1466174Y580138D01*
X1466604Y580353D01*
X1467004Y580602D01*
X1467374Y580885D01*
X1467715Y581200D01*
Y572800D01*
X1467374Y573115D01*
X1467004Y573398D01*
X1466604Y573647D01*
X1466174Y573862D01*
X1465714Y574045D01*
X1465223Y574194D01*
X1464703Y574311D01*
X1464326Y574368D01*
X1464221Y574358D01*
X1463459Y574231D01*
X1462798Y574054D01*
X1462240Y573825D01*
X1461782Y573546D01*
X1461427Y573215D01*
X1461173Y572834D01*
X1461020Y572403D01*
X1460970Y571920D01*
Y582080D01*
X1461020Y581597D01*
D02*
G37*
G36*
X1384061Y571920D02*
X1384010Y572403D01*
X1383857Y572834D01*
X1383601Y573215D01*
X1383243Y573546D01*
X1382783Y573825D01*
X1382221Y574054D01*
X1381557Y574231D01*
X1380790Y574358D01*
X1379921Y574435D01*
X1378951Y574460D01*
Y579540D01*
X1379921Y579565D01*
X1380790Y579642D01*
X1381557Y579769D01*
X1382221Y579946D01*
X1382783Y580175D01*
X1383243Y580454D01*
X1383601Y580785D01*
X1383857Y581166D01*
X1384010Y581597D01*
X1384061Y582080D01*
Y571920D01*
D02*
G37*
G36*
X1328045Y581951D02*
X1328686Y581445D01*
X1329338Y580998D01*
X1329999Y580611D01*
X1330672Y580284D01*
X1331354Y580016D01*
X1332047Y579808D01*
X1332750Y579659D01*
X1333463Y579570D01*
X1334187Y579540D01*
X1334374Y574460D01*
X1333642Y574429D01*
X1332927Y574334D01*
X1332228Y574178D01*
X1331546Y573958D01*
X1330881Y573676D01*
X1330233Y573331D01*
X1329601Y572923D01*
X1328986Y572453D01*
X1328387Y571919D01*
X1327806Y571323D01*
X1327414Y582517D01*
X1328045Y581951D01*
D02*
G37*
G36*
X940169Y570672D02*
X940589Y570386D01*
X941065Y570135D01*
X941595Y569919D01*
X942181Y569738D01*
X942822Y569591D01*
X943517Y569479D01*
X944269Y569401D01*
X945937Y569350D01*
X939650Y563064D01*
X939642Y563925D01*
X939521Y565483D01*
X939409Y566179D01*
X939262Y566819D01*
X939081Y567405D01*
X938865Y567935D01*
X938614Y568411D01*
X938328Y568831D01*
X938008Y569196D01*
X939805Y570992D01*
X940169Y570672D01*
D02*
G37*
G36*
X241945Y548697D02*
X242184Y548607D01*
X242511Y548528D01*
X242926Y548460D01*
X244023Y548354D01*
X246333Y548275D01*
X247280Y548270D01*
Y545730D01*
X246333Y545725D01*
X242511Y545472D01*
X242184Y545393D01*
X241945Y545303D01*
X241795Y545203D01*
Y548797D01*
X241945Y548697D01*
D02*
G37*
G36*
X251014Y549299D02*
X251091Y549083D01*
X251220Y548892D01*
X251400Y548727D01*
X251631Y548587D01*
X251914Y548473D01*
X252248Y548384D01*
X252633Y548321D01*
X253071Y548283D01*
X253559Y548270D01*
Y545730D01*
X253071Y545717D01*
X252633Y545679D01*
X252248Y545616D01*
X251914Y545527D01*
X251631Y545412D01*
X251400Y545273D01*
X251220Y545108D01*
X251091Y544917D01*
X251014Y544701D01*
X250988Y544460D01*
Y549540D01*
X251014Y549299D01*
D02*
G37*
G36*
X134933Y550989D02*
X135279Y550685D01*
X135658Y550416D01*
X136071Y550184D01*
X136517Y549987D01*
X136995Y549826D01*
X137507Y549701D01*
X138053Y549612D01*
X138631Y549558D01*
X139242Y549540D01*
X138773Y544460D01*
X138164Y544445D01*
X137583Y544400D01*
X137029Y544325D01*
X136503Y544220D01*
X136004Y544084D01*
X135532Y543919D01*
X135088Y543724D01*
X134671Y543498D01*
X134282Y543243D01*
X133920Y542957D01*
X134620Y551328D01*
X134933Y550989D01*
D02*
G37*
G36*
X228982Y542077D02*
X228931Y542530D01*
X228779Y542935D01*
X228525Y543293D01*
X228169Y543602D01*
X227712Y543864D01*
X227153Y544079D01*
X226493Y544245D01*
X225731Y544365D01*
X224867Y544436D01*
X223902Y544460D01*
Y549540D01*
X224867Y549564D01*
X225731Y549635D01*
X226493Y549754D01*
X227153Y549921D01*
X227712Y550136D01*
X228169Y550398D01*
X228525Y550707D01*
X228779Y551065D01*
X228931Y551470D01*
X228982Y551922D01*
Y542077D01*
D02*
G37*
G36*
X171069Y551470D02*
X171222Y551065D01*
X171476Y550707D01*
X171831Y550398D01*
X172288Y550136D01*
X172847Y549921D01*
X173508Y549754D01*
X174270Y549635D01*
X175133Y549564D01*
X176098Y549540D01*
Y544460D01*
X175133Y544436D01*
X174270Y544365D01*
X173508Y544245D01*
X172847Y544079D01*
X172288Y543864D01*
X171831Y543602D01*
X171476Y543293D01*
X171222Y542935D01*
X171069Y542530D01*
X171019Y542077D01*
Y551922D01*
X171069Y551470D01*
D02*
G37*
G36*
X148982Y542077D02*
X148931Y542530D01*
X148778Y542935D01*
X148524Y543293D01*
X148169Y543602D01*
X147711Y543864D01*
X147153Y544079D01*
X146492Y544245D01*
X145730Y544365D01*
X144867Y544436D01*
X143902Y544460D01*
Y549540D01*
X144867Y549564D01*
X145730Y549635D01*
X146492Y549754D01*
X147153Y549921D01*
X147711Y550136D01*
X148169Y550398D01*
X148524Y550707D01*
X148778Y551065D01*
X148931Y551470D01*
X148982Y551922D01*
Y542077D01*
D02*
G37*
G36*
X265590Y517794D02*
X265281Y517443D01*
X265005Y517042D01*
X264762Y516593D01*
X264553Y516093D01*
X264377Y515545D01*
X264235Y514947D01*
X264126Y514299D01*
X264051Y513602D01*
X264000Y512060D01*
X262028Y514032D01*
X260856Y512694D01*
X260681Y512407D01*
X260576Y512175D01*
X260540Y511998D01*
X257999Y514540D01*
X258176Y514575D01*
X258407Y514680D01*
X258695Y514855D01*
X259037Y515101D01*
X259887Y515802D01*
X260079Y515981D01*
X258060Y517999D01*
X258856Y518008D01*
X260299Y518125D01*
X260947Y518234D01*
X261545Y518377D01*
X262094Y518552D01*
X262593Y518762D01*
X263043Y519004D01*
X263443Y519280D01*
X263794Y519590D01*
X265590Y517794D01*
D02*
G37*
G36*
X1469932Y515240D02*
X1468997Y514118D01*
X1468618Y513565D01*
X1468296Y513018D01*
X1468033Y512477D01*
X1467829Y511942D01*
X1467683Y511412D01*
X1467595Y510888D01*
X1467566Y510370D01*
X1464518D01*
X1464489Y510888D01*
X1464401Y511412D01*
X1464255Y511942D01*
X1464051Y512477D01*
X1463788Y513018D01*
X1463466Y513565D01*
X1463087Y514118D01*
X1462649Y514676D01*
X1462152Y515240D01*
X1461597Y515810D01*
X1470487D01*
X1469932Y515240D01*
D02*
G37*
G36*
X253715Y507800D02*
X253375Y508115D01*
X253005Y508397D01*
X252604Y508646D01*
X252174Y508862D01*
X251714Y509045D01*
X251224Y509194D01*
X250704Y509310D01*
X250154Y509393D01*
X249574Y509443D01*
X248964Y509460D01*
Y514540D01*
X249574Y514556D01*
X250154Y514606D01*
X250704Y514689D01*
X251224Y514805D01*
X251714Y514955D01*
X252174Y515137D01*
X252604Y515353D01*
X253005Y515602D01*
X253375Y515884D01*
X253715Y516200D01*
Y507800D01*
D02*
G37*
G36*
X1467581Y509778D02*
X1467627Y509254D01*
X1467703Y508792D01*
X1467810Y508392D01*
X1467947Y508054D01*
X1468115Y507777D01*
X1468313Y507561D01*
X1468541Y507407D01*
X1468801Y507315D01*
X1469090Y507284D01*
X1462994D01*
X1463284Y507315D01*
X1463543Y507407D01*
X1463771Y507561D01*
X1463969Y507777D01*
X1464137Y508054D01*
X1464274Y508392D01*
X1464381Y508792D01*
X1464457Y509254D01*
X1464503Y509778D01*
X1464518Y510363D01*
X1467566D01*
X1467581Y509778D01*
D02*
G37*
G36*
X1316187Y494920D02*
X1315353Y495743D01*
X1313776Y497128D01*
X1313032Y497691D01*
X1312319Y498167D01*
X1311635Y498557D01*
X1310981Y498860D01*
X1310358Y499077D01*
X1309765Y499207D01*
X1309202Y499250D01*
Y501790D01*
X1309765Y501833D01*
X1310358Y501963D01*
X1310981Y502180D01*
X1311635Y502483D01*
X1312319Y502873D01*
X1313032Y503349D01*
X1313776Y503912D01*
X1315353Y505297D01*
X1316187Y506120D01*
Y494920D01*
D02*
G37*
G36*
X1125247Y505297D02*
X1126824Y503912D01*
X1127568Y503349D01*
X1128282Y502873D01*
X1128965Y502483D01*
X1129619Y502180D01*
X1130242Y501963D01*
X1130835Y501833D01*
X1131399Y501790D01*
Y499250D01*
X1130835Y499207D01*
X1130242Y499077D01*
X1129619Y498860D01*
X1128965Y498557D01*
X1128282Y498167D01*
X1127568Y497691D01*
X1126824Y497128D01*
X1125247Y495743D01*
X1124413Y494920D01*
Y506120D01*
X1125247Y505297D01*
D02*
G37*
G36*
X228982Y491278D02*
X228931Y491730D01*
X228779Y492135D01*
X228525Y492492D01*
X228169Y492802D01*
X227712Y493064D01*
X227153Y493279D01*
X226493Y493446D01*
X225731Y493565D01*
X224867Y493636D01*
X223902Y493660D01*
Y498740D01*
X224867Y498764D01*
X225731Y498835D01*
X226493Y498954D01*
X227153Y499121D01*
X227712Y499336D01*
X228169Y499598D01*
X228525Y499907D01*
X228779Y500265D01*
X228931Y500670D01*
X228982Y501123D01*
Y491278D01*
D02*
G37*
G36*
X284061Y478920D02*
X284010Y479402D01*
X283856Y479834D01*
X283601Y480215D01*
X283243Y480545D01*
X282783Y480825D01*
X282221Y481053D01*
X281557Y481231D01*
X280790Y481358D01*
X280678Y481368D01*
X280296Y481310D01*
X279776Y481194D01*
X279286Y481045D01*
X278826Y480862D01*
X278396Y480646D01*
X277996Y480397D01*
X277625Y480115D01*
X277285Y479800D01*
Y488200D01*
X277625Y487884D01*
X277996Y487602D01*
X278396Y487353D01*
X278826Y487137D01*
X279286Y486955D01*
X279776Y486805D01*
X280296Y486689D01*
X280678Y486632D01*
X280790Y486641D01*
X281557Y486768D01*
X282221Y486946D01*
X282783Y487175D01*
X283243Y487454D01*
X283601Y487784D01*
X283856Y488165D01*
X284010Y488597D01*
X284061Y489080D01*
Y478920D01*
D02*
G37*
G36*
X763020Y491598D02*
X763173Y491166D01*
X763427Y490785D01*
X763782Y490454D01*
X764240Y490175D01*
X764798Y489947D01*
X765459Y489769D01*
X766221Y489642D01*
X767084Y489566D01*
X768006Y489541D01*
X768574Y489557D01*
X769154Y489607D01*
X769704Y489689D01*
X770224Y489806D01*
X770714Y489955D01*
X771174Y490138D01*
X771604Y490354D01*
X772005Y490602D01*
X772375Y490885D01*
X772715Y491200D01*
Y482800D01*
X772375Y483116D01*
X772005Y483398D01*
X771604Y483647D01*
X771174Y483862D01*
X770714Y484045D01*
X770224Y484194D01*
X769704Y484311D01*
X769154Y484394D01*
X768574Y484444D01*
X768006Y484459D01*
X767084Y484435D01*
X766221Y484358D01*
X765459Y484231D01*
X764798Y484054D01*
X764240Y483825D01*
X763782Y483546D01*
X763427Y483215D01*
X763173Y482835D01*
X763020Y482403D01*
X762970Y481920D01*
Y492080D01*
X763020Y491598D01*
D02*
G37*
G36*
X682385Y482875D02*
X682102Y482504D01*
X681853Y482104D01*
X681638Y481674D01*
X681455Y481214D01*
X681306Y480724D01*
X681189Y480204D01*
X681106Y479654D01*
X681083Y479380D01*
X681142Y478710D01*
X681269Y477943D01*
X681446Y477279D01*
X681675Y476717D01*
X681954Y476257D01*
X682285Y475899D01*
X682666Y475644D01*
X683097Y475490D01*
X683580Y475439D01*
X673420D01*
X673903Y475490D01*
X674334Y475644D01*
X674715Y475899D01*
X675046Y476257D01*
X675325Y476717D01*
X675554Y477279D01*
X675731Y477943D01*
X675858Y478710D01*
X675917Y479380D01*
X675894Y479654D01*
X675811Y480204D01*
X675694Y480724D01*
X675545Y481214D01*
X675362Y481674D01*
X675147Y482104D01*
X674898Y482504D01*
X674615Y482875D01*
X674300Y483215D01*
X682700D01*
X682385Y482875D01*
D02*
G37*
G36*
X762970Y478531D02*
X762548Y478480D01*
X762171Y478327D01*
X761838Y478073D01*
X761549Y477718D01*
X761305Y477261D01*
X761105Y476702D01*
X760950Y476041D01*
X760871Y475500D01*
X760950Y474959D01*
X761105Y474298D01*
X761305Y473739D01*
X761549Y473282D01*
X761838Y472927D01*
X762171Y472673D01*
X762548Y472520D01*
X762970Y472469D01*
X753130Y472439D01*
X753613Y472491D01*
X754045Y472646D01*
X754426Y472902D01*
X754756Y473260D01*
X755035Y473721D01*
X755264Y474282D01*
X755442Y474946D01*
X755534Y475500D01*
X755442Y476054D01*
X755264Y476717D01*
X755035Y477280D01*
X754756Y477740D01*
X754426Y478098D01*
X754045Y478354D01*
X753613Y478508D01*
X753130Y478561D01*
X762970Y478531D01*
D02*
G37*
G36*
X733258Y478530D02*
X732999Y478438D01*
X732771Y478284D01*
X732573Y478069D01*
X732405Y477791D01*
X732268Y477453D01*
X732161Y477053D01*
X732085Y476591D01*
X732039Y476068D01*
X732024Y475500D01*
X732039Y474933D01*
X732085Y474409D01*
X732161Y473947D01*
X732268Y473547D01*
X732405Y473209D01*
X732573Y472932D01*
X732771Y472716D01*
X732999Y472562D01*
X733258Y472470D01*
X733548Y472439D01*
X727452D01*
X727741Y472470D01*
X728001Y472562D01*
X728229Y472716D01*
X728427Y472932D01*
X728595Y473209D01*
X728732Y473547D01*
X728839Y473947D01*
X728915Y474409D01*
X728961Y474933D01*
X728976Y475500D01*
X728961Y476068D01*
X728915Y476591D01*
X728839Y477053D01*
X728732Y477453D01*
X728595Y477791D01*
X728427Y478069D01*
X728229Y478284D01*
X728001Y478438D01*
X727741Y478530D01*
X727452Y478561D01*
X733548D01*
X733258Y478530D01*
D02*
G37*
G36*
X792561Y463420D02*
X792510Y463903D01*
X792357Y464335D01*
X792101Y464716D01*
X791743Y465046D01*
X791283Y465325D01*
X790721Y465554D01*
X790057Y465732D01*
X790000Y465741D01*
X789943Y465732D01*
X789279Y465554D01*
X788717Y465325D01*
X788257Y465046D01*
X787899Y464716D01*
X787644Y464335D01*
X787490Y463903D01*
X787439Y463420D01*
Y473580D01*
X787490Y473098D01*
X787644Y472666D01*
X787899Y472285D01*
X788257Y471955D01*
X788717Y471675D01*
X789279Y471447D01*
X789943Y471269D01*
X790000Y471259D01*
X790057Y471269D01*
X790721Y471447D01*
X791283Y471675D01*
X791743Y471955D01*
X792101Y472285D01*
X792357Y472666D01*
X792510Y473098D01*
X792561Y473580D01*
Y463420D01*
D02*
G37*
G36*
X318465Y475561D02*
X320618D01*
X320208Y475517D01*
X319841Y475387D01*
X319517Y475169D01*
X319236Y474865D01*
X318999Y474474D01*
X318804Y473995D01*
X318672Y473500D01*
X318804Y473005D01*
X318999Y472526D01*
X319236Y472135D01*
X319517Y471830D01*
X319841Y471613D01*
X320208Y471483D01*
X320618Y471439D01*
X318465D01*
X318459Y471212D01*
X314141D01*
X314135Y471439D01*
X311982D01*
X312392Y471483D01*
X312759Y471613D01*
X313083Y471830D01*
X313364Y472135D01*
X313601Y472526D01*
X313796Y473005D01*
X313928Y473500D01*
X313796Y473995D01*
X313601Y474474D01*
X313364Y474865D01*
X313083Y475169D01*
X312759Y475387D01*
X312392Y475517D01*
X311982Y475561D01*
X314135D01*
X314141Y475788D01*
X318459D01*
X318465Y475561D01*
D02*
G37*
G36*
X292065Y475579D02*
X292067Y475561D01*
X294580D01*
X294097Y475510D01*
X293666Y475356D01*
X293284Y475101D01*
X292954Y474743D01*
X292675Y474283D01*
X292446Y473721D01*
X292387Y473500D01*
X292446Y473279D01*
X292675Y472717D01*
X292954Y472257D01*
X293284Y471899D01*
X293666Y471644D01*
X294097Y471490D01*
X294580Y471439D01*
X292067D01*
X292065Y471421D01*
X292040Y470450D01*
X286960D01*
X286935Y471421D01*
X286933Y471439D01*
X284420D01*
X284902Y471490D01*
X285334Y471644D01*
X285715Y471899D01*
X286045Y472257D01*
X286325Y472717D01*
X286553Y473279D01*
X286613Y473500D01*
X286553Y473721D01*
X286325Y474283D01*
X286045Y474743D01*
X285715Y475101D01*
X285334Y475356D01*
X284902Y475510D01*
X284420Y475561D01*
X286933D01*
X286935Y475579D01*
X286960Y476550D01*
X292040D01*
X292065Y475579D01*
D02*
G37*
G36*
X1406333Y469535D02*
X1406282Y470018D01*
X1406129Y470449D01*
X1405873Y470830D01*
X1405516Y471161D01*
X1405056Y471440D01*
X1404494Y471669D01*
X1403829Y471846D01*
X1403063Y471973D01*
X1402194Y472049D01*
X1401223Y472075D01*
Y477155D01*
X1402194Y477180D01*
X1403063Y477257D01*
X1403829Y477383D01*
X1404494Y477561D01*
X1405056Y477790D01*
X1405516Y478069D01*
X1405873Y478400D01*
X1406129Y478781D01*
X1406282Y479212D01*
X1406333Y479695D01*
Y469535D01*
D02*
G37*
G36*
X1125247Y479897D02*
X1126824Y478512D01*
X1127568Y477949D01*
X1128282Y477472D01*
X1128965Y477083D01*
X1129619Y476780D01*
X1130242Y476563D01*
X1130835Y476433D01*
X1131399Y476390D01*
Y473850D01*
X1130835Y473807D01*
X1130242Y473677D01*
X1129619Y473460D01*
X1128965Y473157D01*
X1128282Y472767D01*
X1127568Y472291D01*
X1126824Y471728D01*
X1125247Y470343D01*
X1124413Y469520D01*
Y480720D01*
X1125247Y479897D01*
D02*
G37*
G36*
X1328517Y479741D02*
X1329097Y479198D01*
X1329697Y478719D01*
X1330316Y478304D01*
X1330954Y477953D01*
X1331612Y477666D01*
X1332289Y477442D01*
X1332986Y477283D01*
X1333702Y477187D01*
X1334437Y477155D01*
X1334098Y472075D01*
X1333378Y472046D01*
X1332666Y471959D01*
X1331962Y471814D01*
X1331265Y471610D01*
X1330576Y471349D01*
X1329895Y471029D01*
X1329222Y470652D01*
X1328556Y470216D01*
X1327898Y469722D01*
X1327248Y469170D01*
X1327955Y480348D01*
X1328517Y479741D01*
D02*
G37*
G36*
X251095Y475511D02*
X251324Y475322D01*
X251705Y475155D01*
X252238Y475010D01*
X252924Y474888D01*
X253762Y474788D01*
X255896Y474655D01*
X258639Y474610D01*
Y466990D01*
X257191Y466979D01*
X252924Y466712D01*
X252238Y466590D01*
X251705Y466445D01*
X251324Y466278D01*
X251095Y466089D01*
X251019Y465877D01*
Y475723D01*
X251095Y475511D01*
D02*
G37*
G36*
X809490Y473098D02*
X809644Y472666D01*
X809899Y472285D01*
X810257Y471955D01*
X810717Y471675D01*
X811279Y471447D01*
X811943Y471269D01*
X812710Y471142D01*
X813579Y471066D01*
X813653Y471064D01*
X814154Y471107D01*
X814704Y471190D01*
X815224Y471306D01*
X815714Y471455D01*
X816174Y471638D01*
X816604Y471854D01*
X817004Y472103D01*
X817375Y472385D01*
X817715Y472700D01*
Y464300D01*
X817375Y464616D01*
X817004Y464898D01*
X816604Y465147D01*
X816174Y465363D01*
X815714Y465545D01*
X815224Y465695D01*
X814704Y465811D01*
X814154Y465894D01*
X813653Y465937D01*
X813579Y465935D01*
X812710Y465859D01*
X811943Y465732D01*
X811279Y465554D01*
X810717Y465325D01*
X810257Y465046D01*
X809899Y464716D01*
X809644Y464335D01*
X809490Y463903D01*
X809439Y463420D01*
Y473580D01*
X809490Y473098D01*
D02*
G37*
G36*
X1418370Y467095D02*
X1417938Y466942D01*
X1417557Y466688D01*
X1417227Y466333D01*
X1416947Y465875D01*
X1416719Y465317D01*
X1416541Y464656D01*
X1416414Y463894D01*
X1416338Y463031D01*
X1416312Y462065D01*
X1411232D01*
X1411207Y463031D01*
X1411131Y463894D01*
X1411004Y464656D01*
X1410826Y465317D01*
X1410597Y465875D01*
X1410318Y466333D01*
X1409988Y466688D01*
X1409607Y466942D01*
X1409175Y467095D01*
X1408692Y467145D01*
X1418852D01*
X1418370Y467095D01*
D02*
G37*
G36*
X717808Y467691D02*
X718329Y467237D01*
X718847Y466835D01*
X719363Y466487D01*
X719876Y466193D01*
X720386Y465952D01*
X720894Y465765D01*
X721400Y465631D01*
X721903Y465551D01*
X722265Y465531D01*
X722567Y465539D01*
X723091Y465585D01*
X723552Y465661D01*
X723953Y465768D01*
X724291Y465905D01*
X724568Y466073D01*
X724784Y466271D01*
X724938Y466499D01*
X725030Y466758D01*
X725061Y467048D01*
Y460952D01*
X725030Y461241D01*
X724938Y461501D01*
X724784Y461729D01*
X724568Y461927D01*
X724291Y462095D01*
X723953Y462232D01*
X723552Y462339D01*
X723091Y462415D01*
X722567Y462461D01*
X722265Y462468D01*
X721903Y462449D01*
X721400Y462369D01*
X720894Y462235D01*
X720386Y462048D01*
X719876Y461807D01*
X719363Y461512D01*
X718847Y461165D01*
X718329Y460763D01*
X717808Y460308D01*
X717285Y459800D01*
Y468200D01*
X717808Y467691D01*
D02*
G37*
G36*
X759956Y461393D02*
X759909Y461195D01*
X759868Y460902D01*
X759803Y460029D01*
X759734Y456178D01*
X756686D01*
X756413Y461495D01*
X760007D01*
X759956Y461393D01*
D02*
G37*
G36*
X716691Y459192D02*
X716236Y458671D01*
X715835Y458153D01*
X715487Y457637D01*
X715193Y457124D01*
X714952Y456613D01*
X714765Y456105D01*
X714631Y455600D01*
X714551Y455097D01*
X714524Y454597D01*
X711476D01*
X711449Y455097D01*
X711369Y455600D01*
X711235Y456105D01*
X711048Y456613D01*
X710807Y457124D01*
X710512Y457637D01*
X710165Y458153D01*
X709763Y458671D01*
X709308Y459192D01*
X708800Y459715D01*
X717200D01*
X716691Y459192D01*
D02*
G37*
G36*
X683097Y458510D02*
X682666Y458357D01*
X682285Y458101D01*
X681954Y457743D01*
X681675Y457284D01*
X681446Y456721D01*
X681269Y456057D01*
X681259Y456000D01*
X681269Y455943D01*
X681446Y455279D01*
X681675Y454717D01*
X681954Y454257D01*
X682285Y453899D01*
X682666Y453644D01*
X683097Y453490D01*
X683580Y453439D01*
X673420D01*
X673903Y453490D01*
X674334Y453644D01*
X674715Y453899D01*
X675046Y454257D01*
X675325Y454717D01*
X675554Y455279D01*
X675731Y455943D01*
X675741Y456000D01*
X675731Y456057D01*
X675554Y456721D01*
X675325Y457284D01*
X675046Y457743D01*
X674715Y458101D01*
X674334Y458357D01*
X673903Y458510D01*
X673420Y458561D01*
X683580D01*
X683097Y458510D01*
D02*
G37*
G36*
X656097D02*
X655665Y458357D01*
X655284Y458101D01*
X654954Y457743D01*
X654675Y457284D01*
X654446Y456721D01*
X654268Y456057D01*
X654259Y456000D01*
X654268Y455943D01*
X654446Y455279D01*
X654675Y454717D01*
X654954Y454257D01*
X655284Y453899D01*
X655665Y453644D01*
X656097Y453490D01*
X656580Y453439D01*
X646420D01*
X646902Y453490D01*
X647334Y453644D01*
X647715Y453899D01*
X648045Y454257D01*
X648325Y454717D01*
X648553Y455279D01*
X648731Y455943D01*
X648741Y456000D01*
X648731Y456057D01*
X648553Y456721D01*
X648325Y457284D01*
X648045Y457743D01*
X647715Y458101D01*
X647334Y458357D01*
X646902Y458510D01*
X646420Y458561D01*
X656580D01*
X656097Y458510D01*
D02*
G37*
G36*
X760969Y455530D02*
X760710Y455438D01*
X760481Y455284D01*
X760283Y455068D01*
X760115Y454791D01*
X759978Y454453D01*
X759872Y454052D01*
X759795Y453591D01*
X759750Y453067D01*
X759734Y452482D01*
X756686D01*
X756671Y453067D01*
X756625Y453591D01*
X756549Y454052D01*
X756442Y454453D01*
X756305Y454791D01*
X756138Y455068D01*
X755939Y455284D01*
X755711Y455438D01*
X755452Y455530D01*
X755162Y455561D01*
X761258D01*
X760969Y455530D01*
D02*
G37*
G36*
X1416338Y456193D02*
X1416414Y455325D01*
X1416541Y454558D01*
X1416719Y453894D01*
X1416947Y453332D01*
X1417227Y452872D01*
X1417557Y452514D01*
X1417938Y452258D01*
X1418370Y452105D01*
X1418852Y452054D01*
X1408692D01*
X1409175Y452105D01*
X1409607Y452258D01*
X1409988Y452514D01*
X1410318Y452872D01*
X1410597Y453332D01*
X1410826Y453894D01*
X1411004Y454558D01*
X1411131Y455325D01*
X1411207Y456193D01*
X1411232Y457164D01*
X1416312D01*
X1416338Y456193D01*
D02*
G37*
G36*
X320208Y454518D02*
X319841Y454387D01*
X319517Y454170D01*
X319236Y453865D01*
X318999Y453474D01*
X318804Y452996D01*
X318653Y452430D01*
X318545Y451778D01*
X318480Y451039D01*
X318459Y450213D01*
X314141D01*
X314119Y451039D01*
X314055Y451778D01*
X313947Y452430D01*
X313796Y452996D01*
X313601Y453474D01*
X313364Y453865D01*
X313083Y454170D01*
X312759Y454387D01*
X312392Y454518D01*
X311982Y454561D01*
X320618D01*
X320208Y454518D01*
D02*
G37*
G36*
X927691Y453047D02*
X927767Y452616D01*
X927894Y452235D01*
X928072Y451904D01*
X928301Y451625D01*
X928580Y451396D01*
X928910Y451219D01*
X929291Y451092D01*
X929723Y451015D01*
X930206Y450990D01*
X926396Y448450D01*
X922586Y450990D01*
X923068Y451015D01*
X923500Y451092D01*
X923881Y451219D01*
X924211Y451396D01*
X924491Y451625D01*
X924719Y451904D01*
X924897Y452235D01*
X925024Y452616D01*
X925100Y453047D01*
X925126Y453530D01*
X927666D01*
X927691Y453047D01*
D02*
G37*
G36*
X759750Y448961D02*
X759795Y448438D01*
X759872Y447976D01*
X759978Y447575D01*
X760115Y447237D01*
X760283Y446960D01*
X760481Y446744D01*
X760710Y446590D01*
X760969Y446498D01*
X761258Y446467D01*
X755162D01*
X755452Y446498D01*
X755711Y446590D01*
X755939Y446744D01*
X756138Y446960D01*
X756305Y447237D01*
X756442Y447575D01*
X756549Y447976D01*
X756625Y448438D01*
X756671Y448961D01*
X756686Y449546D01*
X759734D01*
X759750Y448961D01*
D02*
G37*
G36*
X1316187Y444120D02*
X1315353Y444943D01*
X1313776Y446328D01*
X1313032Y446891D01*
X1312319Y447368D01*
X1311635Y447757D01*
X1310981Y448060D01*
X1310358Y448277D01*
X1309765Y448407D01*
X1309202Y448450D01*
Y450990D01*
X1309765Y451033D01*
X1310358Y451163D01*
X1310981Y451380D01*
X1311635Y451683D01*
X1312319Y452072D01*
X1313032Y452549D01*
X1313776Y453112D01*
X1315353Y454497D01*
X1316187Y455320D01*
Y444120D01*
D02*
G37*
G36*
X1112987D02*
X1112153Y444943D01*
X1110576Y446328D01*
X1109832Y446891D01*
X1109118Y447368D01*
X1108435Y447757D01*
X1107782Y448060D01*
X1107158Y448277D01*
X1106565Y448407D01*
X1106002Y448450D01*
Y450990D01*
X1106565Y451033D01*
X1107158Y451163D01*
X1107782Y451380D01*
X1108435Y451683D01*
X1109118Y452072D01*
X1109832Y452549D01*
X1110576Y453112D01*
X1112153Y454497D01*
X1112987Y455320D01*
Y444120D01*
D02*
G37*
G36*
X707156Y446455D02*
X707248Y446417D01*
X707400Y446384D01*
X707614Y446355D01*
X708223Y446310D01*
X710174Y446274D01*
Y443226D01*
X709595Y443224D01*
X707248Y443083D01*
X707156Y443045D01*
X707126Y443003D01*
Y446498D01*
X707156Y446455D01*
D02*
G37*
G36*
X346692Y454454D02*
X346444Y454226D01*
X346225Y453845D01*
X346035Y453311D01*
X345875Y452626D01*
X345743Y451787D01*
X345641Y450797D01*
X345524Y448358D01*
X345517Y447644D01*
X345524Y447249D01*
X345639Y445795D01*
X345740Y445151D01*
X345870Y444563D01*
X346028Y444030D01*
X346216Y443553D01*
X346432Y443132D01*
X346676Y442766D01*
X346950Y442456D01*
X336450D01*
X336724Y442766D01*
X336968Y443132D01*
X337184Y443553D01*
X337371Y444030D01*
X337530Y444563D01*
X337659Y445151D01*
X337760Y445795D01*
X337832Y446494D01*
X337879Y447763D01*
X337871Y448358D01*
X337592Y451787D01*
X337425Y452626D01*
X337221Y453311D01*
X336979Y453845D01*
X336700Y454226D01*
X336384Y454454D01*
X336031Y454531D01*
X346970D01*
X346692Y454454D01*
D02*
G37*
G36*
X318490Y448126D02*
X318582Y447474D01*
X318737Y446828D01*
X318953Y446188D01*
X319232Y445552D01*
X319572Y444922D01*
X319974Y444298D01*
X320437Y443678D01*
X320963Y443064D01*
X321550Y442456D01*
X311050D01*
X311637Y443064D01*
X312163Y443678D01*
X312626Y444298D01*
X313028Y444922D01*
X313368Y445552D01*
X313646Y446188D01*
X313863Y446828D01*
X314017Y447474D01*
X314110Y448126D01*
X314141Y448782D01*
X318459D01*
X318490Y448126D01*
D02*
G37*
G36*
X680345Y443244D02*
X680278Y443147D01*
X680218Y443045D01*
X680167Y442940D01*
X680123Y442831D01*
X680088Y442718D01*
X680060Y442601D01*
X680040Y442480D01*
X680028Y442355D01*
X680024Y442226D01*
X676976D01*
X676972Y442355D01*
X676960Y442480D01*
X676940Y442601D01*
X676913Y442718D01*
X676877Y442831D01*
X676833Y442940D01*
X676782Y443045D01*
X676722Y443147D01*
X676655Y443244D01*
X676579Y443338D01*
X680421D01*
X680345Y443244D01*
D02*
G37*
G36*
X229012Y440920D02*
X228960Y441403D01*
X228805Y441834D01*
X228549Y442215D01*
X228191Y442546D01*
X227731Y442825D01*
X227169Y443054D01*
X226505Y443231D01*
X225739Y443358D01*
X224871Y443434D01*
X223902Y443460D01*
Y448540D01*
X224867Y448558D01*
X226493Y448700D01*
X227153Y448825D01*
X227712Y448986D01*
X228169Y449182D01*
X228525Y449413D01*
X228779Y449681D01*
X228931Y449984D01*
X228982Y450322D01*
X229012Y440920D01*
D02*
G37*
G36*
X792531Y436031D02*
X792500Y436163D01*
X792409Y436281D01*
X792256Y436385D01*
X792043Y436476D01*
X791769Y436552D01*
X791433Y436615D01*
X791037Y436663D01*
X790062Y436719D01*
X790000Y436720D01*
X789939Y436719D01*
X788567Y436615D01*
X788232Y436552D01*
X787957Y436476D01*
X787744Y436385D01*
X787592Y436281D01*
X787500Y436163D01*
X787470Y436031D01*
X787439Y441298D01*
X787472Y441008D01*
X787565Y440749D01*
X787720Y440521D01*
X787936Y440322D01*
X788213Y440155D01*
X788552Y440018D01*
X788951Y439911D01*
X789412Y439835D01*
X789934Y439789D01*
X790000Y439787D01*
X790066Y439789D01*
X790588Y439835D01*
X791049Y439911D01*
X791449Y440018D01*
X791787Y440155D01*
X792064Y440322D01*
X792280Y440521D01*
X792435Y440749D01*
X792529Y441008D01*
X792561Y441298D01*
X792531Y436031D01*
D02*
G37*
G36*
X770531D02*
X770500Y436163D01*
X770409Y436281D01*
X770256Y436385D01*
X770043Y436476D01*
X769769Y436552D01*
X769433Y436615D01*
X769037Y436663D01*
X768062Y436719D01*
X767957Y436720D01*
X765668Y436583D01*
X765576Y436545D01*
X765546Y436502D01*
Y439997D01*
X765576Y439955D01*
X765668Y439917D01*
X765820Y439883D01*
X766033Y439854D01*
X766643Y439810D01*
X767941Y439786D01*
X768066Y439789D01*
X768588Y439835D01*
X769049Y439911D01*
X769449Y440018D01*
X769787Y440155D01*
X770064Y440322D01*
X770280Y440521D01*
X770435Y440749D01*
X770529Y441008D01*
X770561Y441298D01*
X770531Y436031D01*
D02*
G37*
G36*
X684000Y441008D02*
X684091Y440749D01*
X684244Y440521D01*
X684457Y440322D01*
X684732Y440155D01*
X685067Y440018D01*
X685463Y439911D01*
X685920Y439835D01*
X686438Y439789D01*
X687018Y439774D01*
Y436726D01*
X686438Y436724D01*
X684000Y436568D01*
X683969Y436531D01*
Y441298D01*
X684000Y441008D01*
D02*
G37*
G36*
X750875Y436502D02*
X750844Y436545D01*
X750753Y436583D01*
X750601Y436616D01*
X750387Y436645D01*
X749778Y436690D01*
X747827Y436726D01*
Y439774D01*
X748406Y439776D01*
X750753Y439917D01*
X750844Y439955D01*
X750875Y439997D01*
Y436502D01*
D02*
G37*
G36*
X692455D02*
X692424Y436545D01*
X692333Y436583D01*
X692180Y436616D01*
X691967Y436645D01*
X691357Y436690D01*
X689407Y436726D01*
Y439774D01*
X689986Y439776D01*
X692333Y439917D01*
X692424Y439955D01*
X692455Y439997D01*
Y436502D01*
D02*
G37*
G36*
X750875Y430003D02*
X750849Y430093D01*
X750773Y430174D01*
X750646Y430246D01*
X750468Y430308D01*
X750240Y430361D01*
X749960Y430404D01*
X749249Y430461D01*
X748335Y430480D01*
Y433020D01*
X748817Y433025D01*
X749960Y433096D01*
X750240Y433139D01*
X750468Y433192D01*
X750646Y433254D01*
X750773Y433326D01*
X750849Y433407D01*
X750875Y433498D01*
Y430003D01*
D02*
G37*
G36*
X707156Y433455D02*
X707248Y433417D01*
X707400Y433383D01*
X707614Y433354D01*
X708223Y433310D01*
X710174Y433274D01*
Y430226D01*
X709595Y430224D01*
X707248Y430083D01*
X707156Y430045D01*
X707126Y430003D01*
Y433498D01*
X707156Y433455D01*
D02*
G37*
G36*
X656097Y436510D02*
X655665Y436357D01*
X655284Y436101D01*
X654954Y435743D01*
X654675Y435284D01*
X654446Y434721D01*
X654268Y434057D01*
X654141Y433290D01*
X654090Y432707D01*
X654100Y432583D01*
X654175Y432029D01*
X654280Y431503D01*
X654415Y431004D01*
X654581Y430532D01*
X654776Y430088D01*
X655001Y429672D01*
X655257Y429282D01*
X655542Y428920D01*
X647171Y429620D01*
X647511Y429933D01*
X647815Y430279D01*
X648083Y430658D01*
X648316Y431071D01*
X648513Y431517D01*
X648674Y431996D01*
X648799Y432508D01*
X648882Y433016D01*
X648858Y433290D01*
X648731Y434057D01*
X648553Y434721D01*
X648325Y435284D01*
X648045Y435743D01*
X647715Y436101D01*
X647334Y436357D01*
X646902Y436510D01*
X646420Y436561D01*
X656580D01*
X656097Y436510D01*
D02*
G37*
G36*
X1444355Y439110D02*
X1443926Y438512D01*
X1443548Y437902D01*
X1443220Y437280D01*
X1442943Y436647D01*
X1442716Y436002D01*
X1442539Y435345D01*
X1442413Y434676D01*
X1442337Y433996D01*
X1442318Y433455D01*
X1442338Y432699D01*
X1442414Y431836D01*
X1442541Y431074D01*
X1442719Y430413D01*
X1442947Y429854D01*
X1443227Y429397D01*
X1443557Y429042D01*
X1443938Y428788D01*
X1444370Y428635D01*
X1444852Y428584D01*
X1434692D01*
X1435175Y428635D01*
X1435607Y428788D01*
X1435988Y429042D01*
X1436318Y429397D01*
X1436597Y429854D01*
X1436826Y430413D01*
X1437004Y431074D01*
X1437131Y431836D01*
X1437207Y432699D01*
X1437220Y433183D01*
X1437204Y433577D01*
X1437118Y434260D01*
X1436974Y434919D01*
X1436774Y435554D01*
X1436516Y436165D01*
X1436201Y436751D01*
X1435829Y437313D01*
X1435399Y437852D01*
X1434912Y438366D01*
X1434368Y438856D01*
X1444834Y439696D01*
X1444355Y439110D01*
D02*
G37*
G36*
X1501463Y432233D02*
X1501221Y431838D01*
X1501008Y431415D01*
X1500823Y430966D01*
X1500667Y430491D01*
X1500539Y429988D01*
X1500440Y429460D01*
X1500369Y428904D01*
X1500326Y428323D01*
X1500312Y427714D01*
X1495232Y427024D01*
X1495214Y427637D01*
X1495159Y428214D01*
X1495067Y428757D01*
X1494938Y429265D01*
X1494773Y429738D01*
X1494571Y430176D01*
X1494332Y430580D01*
X1494056Y430948D01*
X1493744Y431282D01*
X1493395Y431581D01*
X1501732Y432603D01*
X1501463Y432233D01*
D02*
G37*
G36*
X346676Y431434D02*
X346432Y431068D01*
X346216Y430647D01*
X346028Y430169D01*
X345870Y429637D01*
X345740Y429049D01*
X345639Y428405D01*
X345568Y427705D01*
X345510Y426140D01*
X337890D01*
X337876Y426950D01*
X337760Y428405D01*
X337659Y429049D01*
X337530Y429637D01*
X337371Y430169D01*
X337184Y430647D01*
X336968Y431068D01*
X336724Y431434D01*
X336450Y431744D01*
X346950D01*
X346676Y431434D01*
D02*
G37*
G36*
X768086Y424488D02*
X767603Y424478D01*
X766790Y424399D01*
X766460Y424330D01*
X766181Y424242D01*
X765952Y424133D01*
X765774Y424005D01*
X765647Y423857D01*
X765571Y423690D01*
X765546Y423503D01*
Y426998D01*
X765571Y427004D01*
X765647Y427009D01*
X766790Y427025D01*
X768086Y427028D01*
Y424488D01*
D02*
G37*
G36*
X707156Y426955D02*
X707248Y426917D01*
X707400Y426884D01*
X707614Y426855D01*
X708223Y426810D01*
X710174Y426774D01*
Y423726D01*
X709595Y423724D01*
X707248Y423583D01*
X707156Y423545D01*
X707126Y423503D01*
Y426998D01*
X707156Y426955D01*
D02*
G37*
G36*
X1394813Y427050D02*
X1395173Y426757D01*
X1395564Y426499D01*
X1395986Y426275D01*
X1396440Y426086D01*
X1396925Y425930D01*
X1397442Y425810D01*
X1397990Y425724D01*
X1398569Y425672D01*
X1399180Y425655D01*
X1398964Y420575D01*
X1398355Y420559D01*
X1397775Y420511D01*
X1397223Y420432D01*
X1396700Y420320D01*
X1396205Y420177D01*
X1395739Y420002D01*
X1395302Y419795D01*
X1394894Y419557D01*
X1394514Y419286D01*
X1394163Y418984D01*
X1394485Y427378D01*
X1394813Y427050D01*
D02*
G37*
G36*
X1404333Y418035D02*
X1404282Y418517D01*
X1404129Y418949D01*
X1403873Y419330D01*
X1403515Y419660D01*
X1403055Y419940D01*
X1402493Y420168D01*
X1401829Y420346D01*
X1401062Y420473D01*
X1400194Y420550D01*
X1399223Y420575D01*
Y425655D01*
X1400194Y425680D01*
X1401062Y425756D01*
X1401829Y425883D01*
X1402493Y426061D01*
X1403055Y426290D01*
X1403515Y426569D01*
X1403873Y426899D01*
X1404129Y427281D01*
X1404282Y427712D01*
X1404333Y428195D01*
Y418035D01*
D02*
G37*
G36*
X707156Y420455D02*
X707248Y420417D01*
X707400Y420384D01*
X707614Y420355D01*
X708223Y420310D01*
X710174Y420274D01*
Y417226D01*
X709595Y417224D01*
X707248Y417083D01*
X707156Y417045D01*
X707126Y417003D01*
Y420498D01*
X707156Y420455D01*
D02*
G37*
G36*
X765571Y420407D02*
X765647Y420325D01*
X765774Y420254D01*
X765952Y420192D01*
X766181Y420139D01*
X766460Y420096D01*
X767171Y420039D01*
X768086Y420020D01*
Y417480D01*
X767603Y417475D01*
X766460Y417403D01*
X766181Y417360D01*
X765952Y417308D01*
X765774Y417246D01*
X765647Y417174D01*
X765571Y417093D01*
X765546Y417002D01*
Y420497D01*
X765571Y420407D01*
D02*
G37*
G36*
X134625Y423885D02*
X134996Y423602D01*
X135396Y423353D01*
X135826Y423138D01*
X136286Y422955D01*
X136776Y422806D01*
X137296Y422689D01*
X137846Y422606D01*
X138426Y422557D01*
X139036Y422540D01*
X139036Y417460D01*
X138426Y417443D01*
X137846Y417394D01*
X137296Y417311D01*
X136776Y417194D01*
X136286Y417045D01*
X135826Y416862D01*
X135396Y416647D01*
X134996Y416398D01*
X134625Y416115D01*
X134285Y415800D01*
X134285Y424200D01*
X134625Y423885D01*
D02*
G37*
G36*
X148982Y415078D02*
X148931Y415530D01*
X148778Y415935D01*
X148524Y416292D01*
X148169Y416602D01*
X147711Y416864D01*
X147153Y417079D01*
X146492Y417245D01*
X145730Y417365D01*
X144867Y417436D01*
X143902Y417460D01*
Y422540D01*
X144867Y422564D01*
X145730Y422635D01*
X146492Y422754D01*
X147153Y422921D01*
X147711Y423136D01*
X148169Y423398D01*
X148524Y423707D01*
X148778Y424065D01*
X148931Y424470D01*
X148982Y424922D01*
Y415078D01*
D02*
G37*
G36*
X765571Y413907D02*
X765647Y413825D01*
X765774Y413754D01*
X765952Y413692D01*
X766181Y413639D01*
X766460Y413596D01*
X767171Y413539D01*
X768086Y413520D01*
Y410980D01*
X767603Y410975D01*
X766460Y410904D01*
X766181Y410860D01*
X765952Y410808D01*
X765774Y410746D01*
X765647Y410674D01*
X765571Y410593D01*
X765546Y410502D01*
Y413997D01*
X765571Y413907D01*
D02*
G37*
G36*
X688472Y415008D02*
X688565Y414749D01*
X688720Y414521D01*
X688936Y414323D01*
X689213Y414155D01*
X689552Y414018D01*
X689951Y413911D01*
X690412Y413835D01*
X690637Y413815D01*
X692333Y413917D01*
X692424Y413955D01*
X692455Y413997D01*
Y410502D01*
X692424Y410545D01*
X692333Y410583D01*
X692180Y410616D01*
X691967Y410645D01*
X691357Y410690D01*
X690715Y410702D01*
X689567Y410615D01*
X689232Y410552D01*
X688957Y410476D01*
X688744Y410385D01*
X688592Y410281D01*
X688500Y410163D01*
X688470Y410031D01*
X688439Y415298D01*
X688472Y415008D01*
D02*
G37*
G36*
X793465Y414799D02*
X793542Y414583D01*
X793671Y414392D01*
X793850Y414227D01*
X794082Y414087D01*
X794365Y413973D01*
X794699Y413884D01*
X795084Y413821D01*
X795521Y413783D01*
X796010Y413770D01*
Y411230D01*
X795521Y411217D01*
X795084Y411179D01*
X794699Y411116D01*
X794365Y411027D01*
X794082Y410912D01*
X793850Y410773D01*
X793671Y410608D01*
X793542Y410417D01*
X793465Y410201D01*
X793439Y409960D01*
Y415040D01*
X793465Y414799D01*
D02*
G37*
G36*
X776561Y409710D02*
X776535Y409951D01*
X776458Y410167D01*
X776330Y410358D01*
X776150Y410523D01*
X775919Y410662D01*
X775636Y410777D01*
X775302Y410866D01*
X774916Y410929D01*
X774479Y410967D01*
X773991Y410980D01*
Y413520D01*
X774479Y413533D01*
X774916Y413571D01*
X775302Y413634D01*
X775636Y413723D01*
X775919Y413837D01*
X776150Y413977D01*
X776330Y414142D01*
X776458Y414333D01*
X776535Y414549D01*
X776561Y414790D01*
Y409710D01*
D02*
G37*
G36*
X251019Y415078D02*
X250928Y415027D01*
X250847Y414874D01*
X250775Y414620D01*
X250712Y414265D01*
X250660Y413807D01*
X250559Y411826D01*
X250540Y410025D01*
X250557Y409426D01*
X250606Y408846D01*
X250689Y408296D01*
X250806Y407776D01*
X250955Y407286D01*
X251138Y406826D01*
X251353Y406396D01*
X251602Y405996D01*
X251885Y405625D01*
X252200Y405285D01*
X243800D01*
X244115Y405625D01*
X244398Y405996D01*
X244647Y406396D01*
X244862Y406826D01*
X245045Y407286D01*
X245194Y407776D01*
X245311Y408296D01*
X245394Y408846D01*
X245443Y409426D01*
X245459Y410017D01*
X245435Y410967D01*
X245358Y411834D01*
X245231Y412600D01*
X245054Y413264D01*
X244825Y413825D01*
X244546Y414286D01*
X244215Y414644D01*
X243834Y414901D01*
X243403Y415055D01*
X242920Y415108D01*
X251019Y415078D01*
D02*
G37*
G36*
X765571Y407407D02*
X765647Y407326D01*
X765774Y407254D01*
X765952Y407192D01*
X766181Y407139D01*
X766460Y407096D01*
X767171Y407039D01*
X768086Y407020D01*
Y404480D01*
X767603Y404475D01*
X766460Y404404D01*
X766181Y404361D01*
X765952Y404308D01*
X765774Y404246D01*
X765647Y404174D01*
X765571Y404093D01*
X765546Y404002D01*
Y407498D01*
X765571Y407407D01*
D02*
G37*
G36*
X1469333Y403838D02*
X1468664Y404320D01*
X1467980Y404752D01*
X1467280Y405132D01*
X1466564Y405462D01*
X1465833Y405741D01*
X1465087Y405969D01*
X1464325Y406147D01*
X1463547Y406273D01*
X1462754Y406349D01*
X1461946Y406375D01*
Y411455D01*
X1462754Y411480D01*
X1463547Y411556D01*
X1464325Y411683D01*
X1465087Y411861D01*
X1465833Y412089D01*
X1466564Y412368D01*
X1467280Y412697D01*
X1467980Y413078D01*
X1468664Y413509D01*
X1469333Y413991D01*
Y403838D01*
D02*
G37*
G36*
X1431333Y391035D02*
X1431282Y391517D01*
X1431129Y391949D01*
X1430873Y392330D01*
X1430516Y392660D01*
X1430056Y392940D01*
X1429494Y393168D01*
X1428829Y393346D01*
X1428062Y393473D01*
X1427194Y393549D01*
X1426272Y393573D01*
X1425351Y393549D01*
X1424482Y393473D01*
X1423715Y393346D01*
X1423051Y393168D01*
X1422489Y392940D01*
X1422029Y392660D01*
X1421671Y392330D01*
X1421416Y391949D01*
X1421262Y391517D01*
X1421211Y391035D01*
Y401195D01*
X1421262Y400712D01*
X1421416Y400280D01*
X1421671Y399899D01*
X1422029Y399569D01*
X1422489Y399290D01*
X1423051Y399061D01*
X1423715Y398883D01*
X1424482Y398756D01*
X1425351Y398680D01*
X1426272Y398656D01*
X1427194Y398680D01*
X1428062Y398756D01*
X1428829Y398883D01*
X1429494Y399061D01*
X1430056Y399290D01*
X1430516Y399569D01*
X1430873Y399899D01*
X1431129Y400280D01*
X1431282Y400712D01*
X1431333Y401195D01*
Y391035D01*
D02*
G37*
G36*
X750875Y397503D02*
X750849Y397593D01*
X750773Y397675D01*
X750646Y397746D01*
X750468Y397808D01*
X750240Y397861D01*
X749960Y397904D01*
X749249Y397961D01*
X748335Y397980D01*
Y400520D01*
X748817Y400525D01*
X749960Y400597D01*
X750240Y400640D01*
X750468Y400692D01*
X750646Y400754D01*
X750773Y400826D01*
X750849Y400907D01*
X750875Y400998D01*
Y397503D01*
D02*
G37*
G36*
X707156Y400955D02*
X707248Y400917D01*
X707400Y400884D01*
X707614Y400855D01*
X708223Y400810D01*
X710174Y400774D01*
Y397726D01*
X709595Y397724D01*
X707248Y397583D01*
X707156Y397545D01*
X707126Y397503D01*
Y400998D01*
X707156Y400955D01*
D02*
G37*
G36*
X1476880Y400809D02*
X1477564Y400378D01*
X1478264Y399997D01*
X1478979Y399668D01*
X1479710Y399389D01*
X1480457Y399160D01*
X1481219Y398983D01*
X1481996Y398856D01*
X1482790Y398780D01*
X1483598Y398755D01*
Y393675D01*
X1482790Y393649D01*
X1481996Y393573D01*
X1481219Y393447D01*
X1480457Y393269D01*
X1479710Y393041D01*
X1478979Y392762D01*
X1478264Y392432D01*
X1477564Y392052D01*
X1476880Y391620D01*
X1476211Y391138D01*
Y401291D01*
X1476880Y400809D01*
D02*
G37*
G36*
X1469333Y391138D02*
X1468688Y391601D01*
X1468023Y392015D01*
X1467339Y392381D01*
X1466634Y392698D01*
X1465909Y392966D01*
X1465165Y393185D01*
X1464400Y393355D01*
X1463616Y393477D01*
X1462811Y393550D01*
X1461987Y393575D01*
X1461904Y398655D01*
X1463300Y398680D01*
X1465650Y398881D01*
X1466603Y399057D01*
X1467409Y399284D01*
X1468067Y399560D01*
X1468578Y399887D01*
X1468942Y400265D01*
X1469158Y400692D01*
X1469226Y401171D01*
X1469333Y391138D01*
D02*
G37*
G36*
X1448262Y400712D02*
X1448416Y400280D01*
X1448671Y399899D01*
X1449029Y399569D01*
X1449489Y399290D01*
X1450051Y399061D01*
X1450715Y398883D01*
X1451482Y398756D01*
X1452351Y398680D01*
X1453322Y398655D01*
Y393575D01*
X1452351Y393549D01*
X1451482Y393473D01*
X1450715Y393346D01*
X1450051Y393168D01*
X1449489Y392940D01*
X1449029Y392660D01*
X1448671Y392330D01*
X1448416Y391949D01*
X1448262Y391517D01*
X1448211Y391035D01*
Y401195D01*
X1448262Y400712D01*
D02*
G37*
G36*
X735783Y392521D02*
X735821Y392084D01*
X735884Y391699D01*
X735973Y391364D01*
X736087Y391082D01*
X736227Y390850D01*
X736392Y390670D01*
X736583Y390542D01*
X736799Y390465D01*
X737040Y390439D01*
X731960D01*
X732201Y390465D01*
X732417Y390542D01*
X732608Y390670D01*
X732773Y390850D01*
X732912Y391082D01*
X733027Y391364D01*
X733116Y391699D01*
X733179Y392084D01*
X733217Y392521D01*
X733230Y393010D01*
X735770D01*
X735783Y392521D01*
D02*
G37*
G36*
X714551Y393903D02*
X714631Y393400D01*
X714765Y392894D01*
X714952Y392386D01*
X715193Y391876D01*
X715487Y391363D01*
X715835Y390847D01*
X716236Y390329D01*
X716691Y389808D01*
X717200Y389285D01*
X708800D01*
X709308Y389808D01*
X709763Y390329D01*
X710165Y390847D01*
X710512Y391363D01*
X710807Y391876D01*
X711048Y392386D01*
X711235Y392894D01*
X711369Y393400D01*
X711449Y393903D01*
X711476Y394403D01*
X714524D01*
X714551Y393903D01*
D02*
G37*
G36*
X776561Y380420D02*
X776510Y380903D01*
X776357Y381335D01*
X776101Y381716D01*
X775743Y382046D01*
X775284Y382325D01*
X774721Y382554D01*
X774057Y382732D01*
X773290Y382859D01*
X772422Y382935D01*
X771750Y382952D01*
X771080Y382935D01*
X770212Y382859D01*
X769446Y382732D01*
X768783Y382554D01*
X768221Y382325D01*
X767760Y382046D01*
X767402Y381716D01*
X767146Y381335D01*
X766992Y380903D01*
X766939Y380420D01*
X766970Y390470D01*
X767020Y390008D01*
X767173Y389595D01*
X767427Y389231D01*
X767782Y388915D01*
X768240Y388647D01*
X768798Y388429D01*
X769459Y388259D01*
X770221Y388137D01*
X771084Y388064D01*
X771744Y388048D01*
X772422Y388066D01*
X773290Y388142D01*
X774057Y388269D01*
X774721Y388447D01*
X775284Y388675D01*
X775743Y388955D01*
X776101Y389285D01*
X776357Y389666D01*
X776510Y390098D01*
X776561Y390580D01*
Y380420D01*
D02*
G37*
G36*
X688472Y387758D02*
X688565Y387499D01*
X688720Y387271D01*
X688936Y387072D01*
X689213Y386905D01*
X689552Y386768D01*
X689951Y386661D01*
X690412Y386585D01*
X690934Y386539D01*
X691518Y386524D01*
Y383476D01*
X690938Y383471D01*
X689232Y383364D01*
X688957Y383315D01*
X688744Y383258D01*
X688592Y383191D01*
X688500Y383115D01*
X688470Y383030D01*
X688439Y388048D01*
X688472Y387758D01*
D02*
G37*
G36*
X765336Y382982D02*
X765164Y382943D01*
X764968Y382866D01*
X764749Y382752D01*
X764508Y382601D01*
X764244Y382414D01*
X763646Y381928D01*
X762957Y381295D01*
X762578Y380922D01*
X760423Y383078D01*
X760795Y383457D01*
X761914Y384744D01*
X762101Y385008D01*
X762252Y385249D01*
X762366Y385468D01*
X762443Y385663D01*
X762483Y385836D01*
X765336Y382982D01*
D02*
G37*
G36*
X708715Y380800D02*
X708192Y381308D01*
X707671Y381763D01*
X707153Y382164D01*
X706637Y382512D01*
X706124Y382807D01*
X705613Y383048D01*
X705105Y383235D01*
X704600Y383369D01*
X704097Y383449D01*
X703597Y383476D01*
Y386524D01*
X704097Y386551D01*
X704600Y386631D01*
X705105Y386765D01*
X705613Y386952D01*
X706124Y387193D01*
X706637Y387487D01*
X707153Y387835D01*
X707671Y388236D01*
X708192Y388691D01*
X708715Y389200D01*
Y380800D01*
D02*
G37*
G36*
X192565Y379428D02*
X192642Y378560D01*
X192768Y377793D01*
X192946Y377129D01*
X193175Y376567D01*
X193454Y376106D01*
X193785Y375749D01*
X194165Y375493D01*
X194597Y375340D01*
X195080Y375289D01*
X184920D01*
X185403Y375340D01*
X185834Y375493D01*
X186215Y375749D01*
X186546Y376106D01*
X186825Y376567D01*
X187054Y377129D01*
X187231Y377793D01*
X187358Y378560D01*
X187435Y379428D01*
X187460Y380399D01*
X192540D01*
X192565Y379428D01*
D02*
G37*
G36*
X789598Y380010D02*
X789166Y379857D01*
X788785Y379601D01*
X788455Y379244D01*
X788175Y378783D01*
X787947Y378221D01*
X787769Y377557D01*
X787642Y376790D01*
X787632Y376678D01*
X787690Y376296D01*
X787806Y375776D01*
X787955Y375286D01*
X788138Y374826D01*
X788354Y374396D01*
X788603Y373995D01*
X788885Y373625D01*
X789200Y373285D01*
X780800D01*
X781116Y373625D01*
X781398Y373995D01*
X781647Y374396D01*
X781863Y374826D01*
X782045Y375286D01*
X782195Y375776D01*
X782311Y376296D01*
X782368Y376678D01*
X782359Y376790D01*
X782232Y377557D01*
X782054Y378221D01*
X781825Y378783D01*
X781546Y379244D01*
X781216Y379601D01*
X780835Y379857D01*
X780403Y380010D01*
X779920Y380061D01*
X790080D01*
X789598Y380010D01*
D02*
G37*
G36*
X736799Y373535D02*
X736583Y373458D01*
X736392Y373330D01*
X736227Y373150D01*
X736087Y372918D01*
X735973Y372636D01*
X735884Y372301D01*
X735821Y371916D01*
X735783Y371479D01*
X735770Y371000D01*
X735783Y370521D01*
X735821Y370084D01*
X735884Y369699D01*
X735973Y369365D01*
X736087Y369082D01*
X736227Y368850D01*
X736392Y368671D01*
X736583Y368542D01*
X736799Y368465D01*
X737040Y368439D01*
X731960D01*
X732201Y368465D01*
X732417Y368542D01*
X732608Y368671D01*
X732773Y368850D01*
X732912Y369082D01*
X733027Y369365D01*
X733116Y369699D01*
X733179Y370084D01*
X733217Y370521D01*
X733230Y371000D01*
X733217Y371479D01*
X733179Y371916D01*
X733116Y372301D01*
X733027Y372636D01*
X732912Y372918D01*
X732773Y373150D01*
X732608Y373330D01*
X732417Y373458D01*
X732201Y373535D01*
X731960Y373561D01*
X737040D01*
X736799Y373535D01*
D02*
G37*
G36*
X1328599Y378294D02*
X1329219Y377774D01*
X1329853Y377314D01*
X1330500Y376917D01*
X1331161Y376580D01*
X1331835Y376305D01*
X1332522Y376091D01*
X1333223Y375938D01*
X1333938Y375846D01*
X1334666Y375815D01*
Y370735D01*
X1333938Y370704D01*
X1333223Y370613D01*
X1332522Y370460D01*
X1331835Y370246D01*
X1331161Y369970D01*
X1330500Y369634D01*
X1329853Y369236D01*
X1329219Y368777D01*
X1328599Y368256D01*
X1327993Y367675D01*
Y378875D01*
X1328599Y378294D01*
D02*
G37*
G36*
X220565Y367085D02*
X220641Y366221D01*
X220769Y365459D01*
X220946Y364799D01*
X221175Y364240D01*
X221454Y363783D01*
X221784Y363427D01*
X222166Y363173D01*
X222597Y363021D01*
X223080Y362970D01*
X212920D01*
X213403Y363021D01*
X213834Y363173D01*
X214215Y363427D01*
X214545Y363783D01*
X214825Y364240D01*
X215054Y364799D01*
X215231Y365459D01*
X215358Y366221D01*
X215434Y367085D01*
X215460Y368050D01*
X220540D01*
X220565Y367085D01*
D02*
G37*
G36*
X190865Y362680D02*
X190469Y362968D01*
X190002Y363111D01*
X189464D01*
X188853Y362968D01*
X188171Y362680D01*
X187416Y362249D01*
X186590Y361674D01*
X185692Y360956D01*
X183680Y359088D01*
X180088Y362680D01*
X181094Y363722D01*
X182675Y365590D01*
X183249Y366416D01*
X183680Y367170D01*
X183968Y367853D01*
X184111Y368464D01*
Y369002D01*
X183968Y369469D01*
X183680Y369865D01*
X190865Y362680D01*
D02*
G37*
G36*
X246943Y363385D02*
X246533Y363368D01*
X246121Y363307D01*
X245707Y363202D01*
X245291Y363055D01*
X244872Y362864D01*
X244452Y362630D01*
X244030Y362352D01*
X243606Y362031D01*
X243179Y361667D01*
X242751Y361259D01*
X239159Y364851D01*
X239567Y365280D01*
X239931Y365706D01*
X240252Y366130D01*
X240530Y366552D01*
X240764Y366973D01*
X240955Y367391D01*
X241103Y367807D01*
X241207Y368221D01*
X241268Y368633D01*
X241285Y369043D01*
X246943Y363385D01*
D02*
G37*
G36*
X388061Y355820D02*
X388010Y356302D01*
X387857Y356734D01*
X387601Y357115D01*
X387243Y357445D01*
X386783Y357725D01*
X386221Y357953D01*
X385557Y358131D01*
X384790Y358258D01*
X383922Y358334D01*
X382951Y358360D01*
Y363440D01*
X383922Y363465D01*
X384790Y363541D01*
X385557Y363668D01*
X386221Y363846D01*
X386783Y364075D01*
X387243Y364354D01*
X387601Y364684D01*
X387857Y365065D01*
X388010Y365497D01*
X388061Y365980D01*
Y355820D01*
D02*
G37*
G36*
X372996Y365635D02*
X373554Y365174D01*
X374130Y364768D01*
X374723Y364415D01*
X375334Y364117D01*
X375963Y363873D01*
X376610Y363684D01*
X377274Y363548D01*
X377957Y363467D01*
X378657Y363440D01*
Y358360D01*
X377957Y358333D01*
X377274Y358251D01*
X376610Y358116D01*
X375963Y357926D01*
X375334Y357682D01*
X374723Y357384D01*
X374130Y357032D01*
X373554Y356625D01*
X372996Y356165D01*
X372456Y355650D01*
Y366150D01*
X372996Y365635D01*
D02*
G37*
G36*
X766990Y364598D02*
X767144Y364166D01*
X767399Y363785D01*
X767757Y363455D01*
X768217Y363175D01*
X768779Y362947D01*
X769443Y362769D01*
X770210Y362642D01*
X771079Y362565D01*
X772050Y362540D01*
Y357460D01*
X771079Y357435D01*
X770210Y357359D01*
X769443Y357231D01*
X768779Y357054D01*
X768217Y356825D01*
X767757Y356546D01*
X767399Y356216D01*
X767144Y355835D01*
X766990Y355403D01*
X766939Y354920D01*
Y365080D01*
X766990Y364598D01*
D02*
G37*
G36*
X226490Y362098D02*
X226643Y361666D01*
X226899Y361285D01*
X227257Y360955D01*
X227717Y360675D01*
X228279Y360447D01*
X228943Y360269D01*
X229710Y360142D01*
X230578Y360066D01*
X231549Y360040D01*
Y354960D01*
X230578Y354935D01*
X229710Y354859D01*
X228943Y354732D01*
X228279Y354554D01*
X227717Y354325D01*
X227257Y354046D01*
X226899Y353716D01*
X226643Y353335D01*
X226490Y352903D01*
X226439Y352420D01*
Y362580D01*
X226490Y362098D01*
D02*
G37*
G36*
X171490D02*
X171644Y361666D01*
X171899Y361285D01*
X172257Y360955D01*
X172717Y360675D01*
X173279Y360447D01*
X173943Y360269D01*
X174710Y360142D01*
X175579Y360066D01*
X176550Y360040D01*
Y354960D01*
X175579Y354935D01*
X174710Y354859D01*
X173943Y354732D01*
X173279Y354554D01*
X172717Y354325D01*
X172257Y354046D01*
X171899Y353716D01*
X171644Y353335D01*
X171490Y352903D01*
X171439Y352420D01*
Y362580D01*
X171490Y362098D01*
D02*
G37*
G36*
X321276Y355234D02*
X321031Y354868D01*
X320816Y354446D01*
X320628Y353969D01*
X320470Y353437D01*
X320340Y352849D01*
X320239Y352205D01*
X320168Y351505D01*
X320110Y349940D01*
X312490D01*
X312475Y350750D01*
X312360Y352205D01*
X312260Y352849D01*
X312130Y353437D01*
X311971Y353969D01*
X311784Y354446D01*
X311568Y354868D01*
X311324Y355234D01*
X311050Y355544D01*
X321550D01*
X321276Y355234D01*
D02*
G37*
G36*
X347051Y355590D02*
X346833Y355219D01*
X346640Y354793D01*
X346473Y354312D01*
X346332Y353775D01*
X346216Y353183D01*
X346126Y352536D01*
X346023Y351075D01*
X346010Y350262D01*
X338390Y349669D01*
X338375Y350479D01*
X338249Y351927D01*
X338139Y352566D01*
X337997Y353148D01*
X337825Y353673D01*
X337620Y354142D01*
X337385Y354553D01*
X337118Y354908D01*
X336819Y355205D01*
X347295Y355906D01*
X347051Y355590D01*
D02*
G37*
G36*
X786850Y353766D02*
X787295Y353391D01*
X787743Y353061D01*
X788193Y352775D01*
X788645Y352535D01*
X789099Y352338D01*
X789556Y352187D01*
X790015Y352080D01*
X790476Y352018D01*
X790940Y352000D01*
X785001Y346060D01*
X784983Y346524D01*
X784921Y346985D01*
X784814Y347444D01*
X784662Y347901D01*
X784466Y348356D01*
X784225Y348808D01*
X783939Y349258D01*
X783609Y349705D01*
X783234Y350150D01*
X782815Y350593D01*
X786407Y354185D01*
X786850Y353766D01*
D02*
G37*
G36*
X371835Y355004D02*
X371374Y354446D01*
X370968Y353870D01*
X370616Y353277D01*
X370317Y352665D01*
X370074Y352036D01*
X369884Y351390D01*
X369748Y350725D01*
X369667Y350043D01*
X369643Y349426D01*
X369665Y348580D01*
X369742Y347712D01*
X369869Y346946D01*
X370046Y346283D01*
X370275Y345721D01*
X370554Y345261D01*
X370885Y344902D01*
X371265Y344646D01*
X371697Y344492D01*
X372180Y344439D01*
X362031Y344470D01*
X362511Y344520D01*
X362941Y344673D01*
X363321Y344927D01*
X363649Y345282D01*
X363928Y345740D01*
X364155Y346298D01*
X364332Y346959D01*
X364459Y347721D01*
X364535Y348584D01*
X364557Y349426D01*
X364533Y350043D01*
X364451Y350725D01*
X364316Y351390D01*
X364126Y352036D01*
X363882Y352665D01*
X363584Y353277D01*
X363232Y353870D01*
X362826Y354446D01*
X362365Y355004D01*
X361850Y355544D01*
X372350D01*
X371835Y355004D01*
D02*
G37*
G36*
X1328220Y353139D02*
X1328840Y352618D01*
X1329474Y352159D01*
X1330121Y351762D01*
X1330781Y351425D01*
X1331455Y351150D01*
X1332143Y350935D01*
X1332844Y350782D01*
X1333558Y350691D01*
X1334286Y350660D01*
Y345580D01*
X1333558Y345549D01*
X1332844Y345458D01*
X1332143Y345305D01*
X1331455Y345090D01*
X1330781Y344815D01*
X1330121Y344478D01*
X1329474Y344081D01*
X1328840Y343622D01*
X1328220Y343101D01*
X1327613Y342520D01*
Y353720D01*
X1328220Y353139D01*
D02*
G37*
G36*
X241315Y325315D02*
X241239Y325577D01*
X241011Y325810D01*
X240630Y326016D01*
X240096Y326195D01*
X239410Y326346D01*
X238572Y326470D01*
X236439Y326635D01*
X233839Y326687D01*
X232642Y326673D01*
X229213Y326424D01*
X228374Y326275D01*
X227689Y326093D01*
X227155Y325877D01*
X226774Y325628D01*
X226546Y325346D01*
X226469Y325031D01*
Y335970D01*
X226546Y335654D01*
X226774Y335372D01*
X227155Y335123D01*
X227689Y334907D01*
X228374Y334725D01*
X229213Y334576D01*
X230203Y334459D01*
X232642Y334327D01*
X233857Y334313D01*
X235143Y334334D01*
X237582Y334524D01*
X238572Y334690D01*
X239410Y334904D01*
X240096Y335165D01*
X240630Y335474D01*
X241011Y335830D01*
X241239Y336233D01*
X241315Y336684D01*
Y325315D01*
D02*
G37*
G36*
X399990Y340597D02*
X400143Y340166D01*
X400399Y339785D01*
X400757Y339454D01*
X401217Y339175D01*
X401779Y338946D01*
X402443Y338769D01*
X403210Y338642D01*
X404078Y338565D01*
X405049Y338540D01*
Y333460D01*
X404078Y333435D01*
X403210Y333358D01*
X402443Y333232D01*
X401779Y333054D01*
X401217Y332825D01*
X400757Y332546D01*
X400399Y332215D01*
X400143Y331834D01*
X399990Y331403D01*
X399939Y330920D01*
Y341080D01*
X399990Y340597D01*
D02*
G37*
G36*
X194964Y334910D02*
X195185Y334784D01*
X195467Y334673D01*
X195810Y334577D01*
X196216Y334495D01*
X196682Y334428D01*
X197801Y334340D01*
X199167Y334310D01*
X198564Y326690D01*
X197846Y326685D01*
X195210Y326506D01*
X194874Y326439D01*
X194601Y326362D01*
X194391Y326275D01*
X194246Y326178D01*
X194806Y335051D01*
X194964Y334910D01*
D02*
G37*
G36*
X185754Y326178D02*
X185608Y326275D01*
X185399Y326362D01*
X185126Y326439D01*
X184790Y326506D01*
X182154Y326685D01*
X181436Y326690D01*
X180833Y334310D01*
X182199Y334340D01*
X183317Y334428D01*
X183784Y334495D01*
X184189Y334577D01*
X184533Y334673D01*
X184815Y334784D01*
X185035Y334910D01*
X185194Y335051D01*
X185754Y326178D01*
D02*
G37*
G36*
X252761Y336328D02*
X252989Y336010D01*
X253370Y335728D01*
X253904Y335485D01*
X254590Y335279D01*
X255428Y335110D01*
X256418Y334979D01*
X258857Y334829D01*
X260305Y334810D01*
Y327190D01*
X258857Y327171D01*
X255428Y326890D01*
X254590Y326721D01*
X253904Y326515D01*
X253370Y326271D01*
X252989Y325990D01*
X252761Y325672D01*
X252685Y325315D01*
Y336684D01*
X252761Y336328D01*
D02*
G37*
G36*
X209530Y325031D02*
X209454Y325346D01*
X209226Y325628D01*
X208845Y325877D01*
X208311Y326093D01*
X207625Y326275D01*
X206787Y326424D01*
X205797Y326541D01*
X203358Y326673D01*
X201910Y326690D01*
Y334310D01*
X203358Y334327D01*
X206787Y334576D01*
X207625Y334725D01*
X208311Y334907D01*
X208845Y335123D01*
X209226Y335372D01*
X209454Y335654D01*
X209530Y335970D01*
Y325031D01*
D02*
G37*
G36*
X171546Y335654D02*
X171775Y335372D01*
X172155Y335123D01*
X172689Y334907D01*
X173375Y334725D01*
X174213Y334576D01*
X175203Y334459D01*
X177642Y334327D01*
X179090Y334310D01*
Y326690D01*
X177642Y326673D01*
X174213Y326424D01*
X173375Y326275D01*
X172689Y326093D01*
X172155Y325877D01*
X171775Y325628D01*
X171546Y325346D01*
X171470Y325031D01*
Y335970D01*
X171546Y335654D01*
D02*
G37*
G36*
X154531Y325031D02*
X154454Y325346D01*
X154226Y325628D01*
X153845Y325877D01*
X153312Y326093D01*
X152626Y326275D01*
X151788Y326424D01*
X150797Y326541D01*
X148358Y326673D01*
X146911Y326690D01*
Y334310D01*
X148358Y334327D01*
X151788Y334576D01*
X152626Y334725D01*
X153312Y334907D01*
X153845Y335123D01*
X154226Y335372D01*
X154454Y335654D01*
X154531Y335970D01*
Y325031D01*
D02*
G37*
G36*
X127546Y336869D02*
X127774Y336332D01*
X128155Y335858D01*
X128689Y335448D01*
X129375Y335100D01*
X130213Y334816D01*
X131203Y334594D01*
X132346Y334436D01*
X133642Y334342D01*
X135090Y334310D01*
Y326690D01*
X133637Y326652D01*
X132338Y326538D01*
X131191Y326347D01*
X130197Y326080D01*
X129356Y325737D01*
X128667Y325318D01*
X128131Y324823D01*
X127748Y324252D01*
X127517Y323604D01*
X127439Y322880D01*
X127470Y337470D01*
X127546Y336869D01*
D02*
G37*
G36*
X1314248Y332230D02*
X1314759Y331902D01*
X1315353Y331614D01*
X1316030Y331366D01*
X1316788Y331159D01*
X1317630Y330991D01*
X1318554Y330863D01*
X1320649Y330728D01*
X1321820Y330720D01*
X1313900Y322800D01*
X1313893Y323971D01*
X1313757Y326067D01*
X1313629Y326990D01*
X1313461Y327832D01*
X1313254Y328591D01*
X1313006Y329267D01*
X1312718Y329861D01*
X1312390Y330372D01*
X1312023Y330801D01*
X1313819Y332597D01*
X1314248Y332230D01*
D02*
G37*
G36*
X372098Y327510D02*
X371666Y327357D01*
X371285Y327101D01*
X370955Y326743D01*
X370675Y326283D01*
X370447Y325721D01*
X370269Y325057D01*
X370142Y324290D01*
X370066Y323422D01*
X370040Y322451D01*
X364960D01*
X364935Y323422D01*
X364859Y324290D01*
X364732Y325057D01*
X364554Y325721D01*
X364325Y326283D01*
X364046Y326743D01*
X363716Y327101D01*
X363335Y327357D01*
X362903Y327510D01*
X362420Y327561D01*
X372580D01*
X372098Y327510D01*
D02*
G37*
G36*
X320110Y331000D02*
X312490Y319570D01*
X312414Y321018D01*
X312185Y322313D01*
X311804Y323456D01*
X311271Y324447D01*
X310585Y325285D01*
X309747Y325971D01*
X308756Y326504D01*
X307613Y326885D01*
X306318Y327114D01*
X304870Y327190D01*
Y334810D01*
X306318Y334886D01*
X307613Y335115D01*
X308756Y335496D01*
X309747Y336029D01*
X310585Y336715D01*
X311271Y337553D01*
X311804Y338544D01*
X312185Y339687D01*
X312414Y340982D01*
X312490Y342430D01*
X320110Y331000D01*
D02*
G37*
G36*
X1386065Y321578D02*
X1386142Y320710D01*
X1386269Y319943D01*
X1386446Y319279D01*
X1386675Y318717D01*
X1386954Y318257D01*
X1387285Y317899D01*
X1387666Y317643D01*
X1388097Y317490D01*
X1388580Y317439D01*
X1378420D01*
X1378903Y317490D01*
X1379334Y317643D01*
X1379715Y317899D01*
X1380046Y318257D01*
X1380325Y318717D01*
X1380554Y319279D01*
X1380731Y319943D01*
X1380858Y320710D01*
X1380935Y321578D01*
X1380960Y322550D01*
X1386040D01*
X1386065Y321578D01*
D02*
G37*
G36*
X1114325Y316023D02*
X1113225Y316727D01*
X1109526Y318803D01*
X1108777Y319137D01*
X1108097Y319396D01*
X1107488Y319582D01*
X1106949Y319693D01*
X1106480Y319730D01*
X1105913Y322270D01*
X1106526Y322317D01*
X1107136Y322458D01*
X1107743Y322692D01*
X1108348Y323020D01*
X1108949Y323443D01*
X1109548Y323959D01*
X1110145Y324568D01*
X1110738Y325272D01*
X1111329Y326069D01*
X1111917Y326961D01*
X1114325Y316023D01*
D02*
G37*
G36*
X400715Y312800D02*
X400375Y313115D01*
X400005Y313398D01*
X399604Y313647D01*
X399174Y313862D01*
X398714Y314045D01*
X398224Y314194D01*
X397704Y314310D01*
X397154Y314394D01*
X396574Y314443D01*
X395964Y314460D01*
Y319540D01*
X396574Y319557D01*
X397154Y319606D01*
X397704Y319689D01*
X398224Y319806D01*
X398714Y319955D01*
X399174Y320137D01*
X399604Y320353D01*
X400005Y320602D01*
X400375Y320885D01*
X400715Y321200D01*
Y312800D01*
D02*
G37*
G36*
X346021Y312191D02*
X346288Y307924D01*
X346411Y307238D01*
X346555Y306704D01*
X346722Y306323D01*
X346911Y306095D01*
X347123Y306019D01*
X337278D01*
X337489Y306095D01*
X337678Y306323D01*
X337845Y306704D01*
X337990Y307238D01*
X338112Y307924D01*
X338212Y308762D01*
X338346Y310895D01*
X338390Y313638D01*
X346010D01*
X346021Y312191D01*
D02*
G37*
G36*
X320126D02*
X320368Y308762D01*
X320513Y307924D01*
X320690Y307238D01*
X320900Y306704D01*
X321142Y306323D01*
X321416Y306095D01*
X321723Y306019D01*
X311878D01*
X311994Y306095D01*
X312098Y306323D01*
X312190Y306704D01*
X312269Y307238D01*
X312392Y308762D01*
X312484Y312191D01*
X312490Y313638D01*
X320110D01*
X320126Y312191D01*
D02*
G37*
G36*
X1459020Y313597D02*
X1459173Y313166D01*
X1459427Y312785D01*
X1459782Y312454D01*
X1460240Y312175D01*
X1460798Y311946D01*
X1461459Y311769D01*
X1461992Y311680D01*
X1462184Y311711D01*
X1462735Y311845D01*
X1463258Y312016D01*
X1463754Y312226D01*
X1464222Y312473D01*
X1464664Y312759D01*
X1465078Y313083D01*
X1465465Y313445D01*
Y304555D01*
X1465078Y304917D01*
X1464664Y305241D01*
X1464222Y305527D01*
X1463754Y305774D01*
X1463258Y305984D01*
X1462735Y306155D01*
X1462184Y306289D01*
X1461992Y306320D01*
X1461459Y306231D01*
X1460798Y306054D01*
X1460240Y305825D01*
X1459782Y305546D01*
X1459427Y305215D01*
X1459173Y304834D01*
X1459020Y304403D01*
X1458970Y303920D01*
Y314080D01*
X1459020Y313597D01*
D02*
G37*
G36*
X1429061Y303920D02*
X1429010Y304403D01*
X1428857Y304834D01*
X1428601Y305215D01*
X1428243Y305546D01*
X1427783Y305825D01*
X1427221Y306054D01*
X1426557Y306231D01*
X1425790Y306358D01*
X1424922Y306435D01*
X1423951Y306460D01*
Y311540D01*
X1424922Y311565D01*
X1425790Y311642D01*
X1426557Y311769D01*
X1427221Y311946D01*
X1427783Y312175D01*
X1428243Y312454D01*
X1428601Y312785D01*
X1428857Y313166D01*
X1429010Y313597D01*
X1429061Y314080D01*
Y303920D01*
D02*
G37*
G36*
X1416020Y313597D02*
X1416173Y313166D01*
X1416427Y312785D01*
X1416782Y312454D01*
X1417240Y312175D01*
X1417798Y311946D01*
X1418459Y311769D01*
X1419221Y311642D01*
X1420084Y311565D01*
X1421049Y311540D01*
Y306460D01*
X1420084Y306435D01*
X1419221Y306358D01*
X1418459Y306231D01*
X1417798Y306054D01*
X1417240Y305825D01*
X1416782Y305546D01*
X1416427Y305215D01*
X1416173Y304834D01*
X1416020Y304403D01*
X1415970Y303920D01*
Y314080D01*
X1416020Y313597D01*
D02*
G37*
G36*
X1457597Y302010D02*
X1457166Y301857D01*
X1456785Y301601D01*
X1456454Y301243D01*
X1456175Y300783D01*
X1455946Y300221D01*
X1455769Y299557D01*
X1455642Y298790D01*
X1455565Y297922D01*
X1455540Y296950D01*
X1450460D01*
X1450435Y297922D01*
X1450358Y298790D01*
X1450231Y299557D01*
X1450054Y300221D01*
X1449825Y300783D01*
X1449546Y301243D01*
X1449215Y301601D01*
X1448834Y301857D01*
X1448403Y302010D01*
X1447920Y302061D01*
X1458080D01*
X1457597Y302010D01*
D02*
G37*
G36*
X1455565Y295079D02*
X1455642Y294210D01*
X1455769Y293443D01*
X1455946Y292779D01*
X1456175Y292217D01*
X1456454Y291757D01*
X1456785Y291399D01*
X1457166Y291143D01*
X1457597Y290990D01*
X1458080Y290939D01*
X1447920D01*
X1448403Y290990D01*
X1448834Y291143D01*
X1449215Y291399D01*
X1449546Y291757D01*
X1449825Y292217D01*
X1450054Y292779D01*
X1450231Y293443D01*
X1450358Y294210D01*
X1450435Y295079D01*
X1450460Y296049D01*
X1455540D01*
X1455565Y295079D01*
D02*
G37*
G36*
X1429061Y278920D02*
X1429010Y279403D01*
X1428857Y279834D01*
X1428601Y280215D01*
X1428243Y280546D01*
X1427783Y280825D01*
X1427221Y281054D01*
X1426557Y281231D01*
X1425790Y281358D01*
X1424922Y281435D01*
X1423951Y281460D01*
Y286540D01*
X1424922Y286565D01*
X1425790Y286642D01*
X1426557Y286769D01*
X1427221Y286946D01*
X1427783Y287175D01*
X1428243Y287454D01*
X1428601Y287785D01*
X1428857Y288166D01*
X1429010Y288597D01*
X1429061Y289080D01*
Y278920D01*
D02*
G37*
G36*
X1416020Y288597D02*
X1416173Y288166D01*
X1416427Y287785D01*
X1416782Y287454D01*
X1417240Y287175D01*
X1417798Y286946D01*
X1418459Y286769D01*
X1419221Y286642D01*
X1420084Y286565D01*
X1421049Y286540D01*
Y281460D01*
X1420084Y281435D01*
X1419221Y281358D01*
X1418459Y281231D01*
X1417798Y281054D01*
X1417240Y280825D01*
X1416782Y280546D01*
X1416427Y280215D01*
X1416173Y279834D01*
X1416020Y279403D01*
X1415970Y278920D01*
Y289080D01*
X1416020Y288597D01*
D02*
G37*
G36*
X1378061Y278920D02*
X1378010Y279403D01*
X1377857Y279834D01*
X1377601Y280215D01*
X1377243Y280546D01*
X1376783Y280825D01*
X1376221Y281054D01*
X1375557Y281231D01*
X1374790Y281358D01*
X1373922Y281435D01*
X1372950Y281460D01*
Y286540D01*
X1373922Y286565D01*
X1374790Y286642D01*
X1375557Y286769D01*
X1376221Y286946D01*
X1376783Y287175D01*
X1377243Y287454D01*
X1377601Y287785D01*
X1377857Y288166D01*
X1378010Y288597D01*
X1378061Y289080D01*
Y278920D01*
D02*
G37*
G36*
X397470Y283931D02*
X397065Y283778D01*
X396708Y283524D01*
X396398Y283169D01*
X396136Y282711D01*
X395922Y282153D01*
X395755Y281492D01*
X395636Y280730D01*
X395564Y279867D01*
X395540Y278901D01*
X390460D01*
X390437Y279867D01*
X390365Y280730D01*
X390246Y281492D01*
X390079Y282153D01*
X389865Y282711D01*
X389603Y283169D01*
X389293Y283524D01*
X388936Y283778D01*
X388530Y283931D01*
X388078Y283981D01*
X397923D01*
X397470Y283931D01*
D02*
G37*
G36*
X270470D02*
X270065Y283778D01*
X269708Y283524D01*
X269398Y283169D01*
X269136Y282711D01*
X268922Y282153D01*
X268755Y281492D01*
X268636Y280730D01*
X268564Y279867D01*
X268540Y278901D01*
X263460D01*
X263437Y279867D01*
X263365Y280730D01*
X263246Y281492D01*
X263079Y282153D01*
X262865Y282711D01*
X262603Y283169D01*
X262293Y283524D01*
X261936Y283778D01*
X261530Y283931D01*
X261078Y283981D01*
X270923D01*
X270470Y283931D01*
D02*
G37*
G36*
X451999Y262549D02*
X452075Y262333D01*
X452202Y262143D01*
X452380Y261977D01*
X452609Y261838D01*
X452888Y261723D01*
X453218Y261635D01*
X453599Y261571D01*
X454031Y261533D01*
X454514Y261520D01*
Y258980D01*
X454031Y258967D01*
X453599Y258929D01*
X453218Y258866D01*
X452888Y258777D01*
X452609Y258663D01*
X452380Y258523D01*
X452202Y258358D01*
X452075Y258167D01*
X451999Y257952D01*
X451974Y257710D01*
Y262790D01*
X451999Y262549D01*
D02*
G37*
G36*
X446057Y255920D02*
X446005Y256403D01*
X445850Y256834D01*
X445594Y257215D01*
X445236Y257546D01*
X444776Y257825D01*
X444214Y258054D01*
X443550Y258231D01*
X442784Y258358D01*
X441916Y258435D01*
X440947Y258460D01*
Y263540D01*
X441912Y263562D01*
X442775Y263629D01*
X443537Y263741D01*
X444198Y263898D01*
X444757Y264099D01*
X445214Y264345D01*
X445569Y264636D01*
X445824Y264971D01*
X445976Y265351D01*
X446027Y265776D01*
X446057Y255920D01*
D02*
G37*
G36*
X451891Y220174D02*
X451818Y220021D01*
X451753Y219767D01*
X451696Y219412D01*
X451649Y218954D01*
X451558Y216973D01*
X451540Y215144D01*
X446460D01*
X446456Y216110D01*
X446183Y220021D01*
X446109Y220174D01*
X446027Y220224D01*
X451974D01*
X451891Y220174D01*
D02*
G37*
G36*
X451591Y212655D02*
X451743Y211791D01*
X451997Y211029D01*
X452353Y210369D01*
X452810Y209810D01*
X453369Y209353D01*
X454029Y208997D01*
X454791Y208743D01*
X455376Y208640D01*
X455704Y208689D01*
X456224Y208806D01*
X456714Y208955D01*
X457174Y209137D01*
X457604Y209353D01*
X458005Y209602D01*
X458375Y209884D01*
X458715Y210200D01*
Y201800D01*
X458375Y202115D01*
X458005Y202397D01*
X457604Y202647D01*
X457174Y202862D01*
X456714Y203045D01*
X456224Y203194D01*
X455704Y203311D01*
X455154Y203393D01*
X454574Y203443D01*
X453964Y203460D01*
Y206769D01*
X449000Y203460D01*
X441380Y208540D01*
X442345Y208591D01*
X443209Y208743D01*
X443971Y208997D01*
X444631Y209353D01*
X445190Y209810D01*
X445647Y210369D01*
X446003Y211029D01*
X446257Y211791D01*
X446409Y212655D01*
X446460Y213620D01*
X451540D01*
X451591Y212655D01*
D02*
G37*
G36*
X397470Y203931D02*
X397065Y203778D01*
X396708Y203524D01*
X396398Y203169D01*
X396136Y202712D01*
X395922Y202153D01*
X395755Y201492D01*
X395636Y200730D01*
X395631Y200682D01*
X395690Y200296D01*
X395806Y199776D01*
X395955Y199286D01*
X396138Y198826D01*
X396354Y198396D01*
X396603Y197996D01*
X396885Y197625D01*
X397200Y197285D01*
X388800D01*
X389116Y197625D01*
X389398Y197996D01*
X389647Y198396D01*
X389863Y198826D01*
X390045Y199286D01*
X390195Y199776D01*
X390311Y200296D01*
X390369Y200682D01*
X390365Y200730D01*
X390246Y201492D01*
X390079Y202153D01*
X389865Y202712D01*
X389603Y203169D01*
X389293Y203524D01*
X388936Y203778D01*
X388530Y203931D01*
X388078Y203982D01*
X397923D01*
X397470Y203931D01*
D02*
G37*
G36*
X270470D02*
X270065Y203778D01*
X269708Y203524D01*
X269398Y203169D01*
X269136Y202712D01*
X268922Y202153D01*
X268755Y201492D01*
X268636Y200730D01*
X268631Y200682D01*
X268690Y200296D01*
X268806Y199776D01*
X268955Y199286D01*
X269138Y198826D01*
X269354Y198396D01*
X269603Y197996D01*
X269885Y197625D01*
X270200Y197285D01*
X261800D01*
X262116Y197625D01*
X262398Y197996D01*
X262647Y198396D01*
X262863Y198826D01*
X263045Y199286D01*
X263195Y199776D01*
X263311Y200296D01*
X263369Y200682D01*
X263365Y200730D01*
X263246Y201492D01*
X263079Y202153D01*
X262865Y202712D01*
X262603Y203169D01*
X262293Y203524D01*
X261936Y203778D01*
X261530Y203931D01*
X261078Y203982D01*
X270923D01*
X270470Y203931D01*
D02*
G37*
G36*
X663715Y155800D02*
X663375Y156116D01*
X663004Y156398D01*
X662604Y156647D01*
X662174Y156862D01*
X661714Y157045D01*
X661224Y157194D01*
X660704Y157311D01*
X660154Y157394D01*
X659574Y157444D01*
X658964Y157460D01*
Y162540D01*
X659574Y162557D01*
X660154Y162607D01*
X660704Y162689D01*
X661224Y162806D01*
X661714Y162955D01*
X662174Y163138D01*
X662604Y163354D01*
X663004Y163603D01*
X663375Y163885D01*
X663715Y164200D01*
Y155800D01*
D02*
G37*
G36*
X647020Y164597D02*
X647173Y164166D01*
X647427Y163785D01*
X647782Y163454D01*
X648240Y163175D01*
X648798Y162946D01*
X649459Y162769D01*
X650221Y162642D01*
X651084Y162565D01*
X652050Y162540D01*
Y157460D01*
X651084Y157435D01*
X650221Y157359D01*
X649459Y157232D01*
X648798Y157054D01*
X648240Y156825D01*
X647782Y156546D01*
X647427Y156215D01*
X647173Y155835D01*
X647020Y155403D01*
X646970Y154920D01*
Y165080D01*
X647020Y164597D01*
D02*
G37*
G36*
X410812Y155134D02*
X410465Y154706D01*
X410159Y154261D01*
X409894Y153797D01*
X409669Y153315D01*
X409486Y152814D01*
X409343Y152295D01*
X409285Y151988D01*
X409353Y151574D01*
X409505Y151013D01*
X409699Y150538D01*
X409936Y150149D01*
X410217Y149847D01*
X410541Y149631D01*
X410908Y149502D01*
X411318Y149459D01*
X402682D01*
X403092Y149502D01*
X403459Y149631D01*
X403783Y149847D01*
X404064Y150149D01*
X404301Y150538D01*
X404496Y151013D01*
X404647Y151574D01*
X404716Y151988D01*
X404658Y152295D01*
X404515Y152814D01*
X404331Y153315D01*
X404106Y153797D01*
X403841Y154261D01*
X403535Y154706D01*
X403188Y155134D01*
X402800Y155543D01*
X411200D01*
X410812Y155134D01*
D02*
G37*
G36*
X322085Y152749D02*
X322176Y152647D01*
X322329Y152557D01*
X322542Y152479D01*
X322816Y152413D01*
X323152Y152359D01*
X323548Y152317D01*
X324523Y152269D01*
X325102Y152263D01*
Y149215D01*
X324523Y149209D01*
X323152Y149119D01*
X322816Y149065D01*
X322542Y148999D01*
X322329Y148921D01*
X322176Y148830D01*
X322085Y148729D01*
X322054Y148614D01*
Y152863D01*
X322085Y152749D01*
D02*
G37*
G36*
X308257Y148614D02*
X308227Y148729D01*
X308135Y148830D01*
X307983Y148921D01*
X307770Y148999D01*
X307495Y149065D01*
X307160Y149119D01*
X306764Y149161D01*
X305788Y149209D01*
X305209Y149215D01*
Y152263D01*
X305788Y152269D01*
X307160Y152359D01*
X307495Y152413D01*
X307770Y152479D01*
X307983Y152557D01*
X308135Y152647D01*
X308227Y152749D01*
X308257Y152863D01*
Y148614D01*
D02*
G37*
G36*
X300470Y153497D02*
X300562Y153238D01*
X300716Y153010D01*
X300932Y152811D01*
X301209Y152644D01*
X301548Y152507D01*
X301948Y152400D01*
X302409Y152324D01*
X302933Y152278D01*
X303518Y152263D01*
Y149215D01*
X302933Y149200D01*
X302409Y149154D01*
X301948Y149078D01*
X301548Y148971D01*
X301209Y148834D01*
X300932Y148666D01*
X300716Y148468D01*
X300562Y148239D01*
X300470Y147980D01*
X300439Y147691D01*
Y153787D01*
X300470Y153497D01*
D02*
G37*
G36*
X671885Y155375D02*
X671602Y155005D01*
X671353Y154604D01*
X671137Y154174D01*
X670955Y153714D01*
X670806Y153224D01*
X670689Y152704D01*
X670606Y152154D01*
X670556Y151574D01*
X670554Y151497D01*
X670565Y151084D01*
X670641Y150220D01*
X670769Y149459D01*
X670946Y148798D01*
X671175Y148239D01*
X671454Y147782D01*
X671785Y147427D01*
X672166Y147172D01*
X672597Y147020D01*
X673080Y146969D01*
X662920D01*
X663402Y147020D01*
X663834Y147172D01*
X664215Y147427D01*
X664546Y147782D01*
X664825Y148239D01*
X665053Y148798D01*
X665231Y149459D01*
X665358Y150220D01*
X665434Y151084D01*
X665445Y151497D01*
X665443Y151574D01*
X665394Y152154D01*
X665311Y152704D01*
X665194Y153224D01*
X665045Y153714D01*
X664862Y154174D01*
X664647Y154604D01*
X664398Y155005D01*
X664115Y155375D01*
X663800Y155715D01*
X672200D01*
X671885Y155375D01*
D02*
G37*
G36*
X574857Y151908D02*
X574581Y151533D01*
X574337Y151128D01*
X574126Y150695D01*
X573946Y150232D01*
X573800Y149739D01*
X573756Y149536D01*
X573768Y149459D01*
X573946Y148798D01*
X574175Y148239D01*
X574454Y147782D01*
X574784Y147427D01*
X575165Y147172D01*
X575597Y147020D01*
X576080Y146969D01*
X565920D01*
X566402Y147020D01*
X566834Y147172D01*
X567215Y147427D01*
X567545Y147782D01*
X567825Y148239D01*
X568053Y148798D01*
X568229Y149452D01*
X568189Y149628D01*
X568037Y150115D01*
X567851Y150573D01*
X567631Y150999D01*
X567377Y151395D01*
X567090Y151760D01*
X566768Y152095D01*
X575167Y152254D01*
X574857Y151908D01*
D02*
G37*
G36*
X619097Y151510D02*
X618666Y151357D01*
X618284Y151101D01*
X617954Y150743D01*
X617675Y150283D01*
X617446Y149721D01*
X617268Y149057D01*
X617141Y148290D01*
X617065Y147422D01*
X617040Y146451D01*
X611960D01*
X611935Y147422D01*
X611858Y148290D01*
X611731Y149057D01*
X611553Y149721D01*
X611325Y150283D01*
X611045Y150743D01*
X610715Y151101D01*
X610334Y151357D01*
X609902Y151510D01*
X609420Y151561D01*
X619580D01*
X619097Y151510D01*
D02*
G37*
G36*
X398561Y146154D02*
X398787Y146148D01*
Y141830D01*
X398561Y141824D01*
Y139671D01*
X398518Y140081D01*
X398387Y140448D01*
X398170Y140772D01*
X397865Y141053D01*
X397474Y141290D01*
X396996Y141485D01*
X396500Y141617D01*
X396004Y141485D01*
X395526Y141290D01*
X395135Y141053D01*
X394830Y140772D01*
X394613Y140448D01*
X394482Y140081D01*
X394439Y139671D01*
Y141824D01*
X394213Y141830D01*
Y146148D01*
X394439Y146154D01*
Y148307D01*
X394482Y147897D01*
X394613Y147530D01*
X394830Y147206D01*
X395135Y146925D01*
X395526Y146688D01*
X396004Y146494D01*
X396500Y146361D01*
X396996Y146494D01*
X397474Y146688D01*
X397865Y146925D01*
X398170Y147206D01*
X398387Y147530D01*
X398518Y147897D01*
X398561Y148307D01*
Y146154D01*
D02*
G37*
G36*
X328804Y150849D02*
X330391Y149481D01*
X330679Y149293D01*
X330923Y149167D01*
X331124Y149103D01*
X331281Y149101D01*
X331395Y149160D01*
X328298Y146125D01*
X328359Y146237D01*
X328358Y146393D01*
X328298Y146582D01*
Y141191D01*
X328267Y141481D01*
X328175Y141740D01*
X328021Y141968D01*
X327805Y142166D01*
X327528Y142334D01*
X327189Y142471D01*
X326789Y142578D01*
X326328Y142654D01*
X325804Y142700D01*
X325219Y142715D01*
Y145763D01*
X325804Y145778D01*
X326328Y145824D01*
X326789Y145900D01*
X327189Y146007D01*
X327528Y146144D01*
X327805Y146312D01*
X328021Y146510D01*
X328175Y146738D01*
X328193Y146790D01*
X328169Y146837D01*
X327981Y147124D01*
X327732Y147456D01*
X327046Y148251D01*
X326112Y149221D01*
X328298Y151346D01*
X328804Y150849D01*
D02*
G37*
G36*
X322085Y146249D02*
X322176Y146147D01*
X322329Y146057D01*
X322542Y145979D01*
X322816Y145913D01*
X323152Y145859D01*
X323548Y145817D01*
X324523Y145769D01*
X325102Y145763D01*
Y142715D01*
X324523Y142709D01*
X323152Y142619D01*
X322816Y142565D01*
X322542Y142499D01*
X322329Y142421D01*
X322176Y142331D01*
X322085Y142229D01*
X322054Y142114D01*
Y146363D01*
X322085Y146249D01*
D02*
G37*
G36*
X308257Y142114D02*
X308227Y142229D01*
X308135Y142331D01*
X307983Y142421D01*
X307770Y142499D01*
X307495Y142565D01*
X307160Y142619D01*
X306764Y142661D01*
X305788Y142709D01*
X305209Y142715D01*
Y145763D01*
X305788Y145769D01*
X307160Y145859D01*
X307495Y145913D01*
X307770Y145979D01*
X307983Y146057D01*
X308135Y146147D01*
X308227Y146249D01*
X308257Y146363D01*
Y142114D01*
D02*
G37*
G36*
X617065Y144986D02*
X617141Y144118D01*
X617268Y143353D01*
X617446Y142689D01*
X617675Y142127D01*
X617954Y141667D01*
X618284Y141308D01*
X618666Y141052D01*
X619097Y140898D01*
X619580Y140845D01*
X610140Y140876D01*
X610486Y140926D01*
X610795Y141079D01*
X611068Y141333D01*
X611305Y141688D01*
X611505Y142146D01*
X611669Y142704D01*
X611796Y143365D01*
X611887Y144127D01*
X611942Y144990D01*
X611960Y145955D01*
X617040D01*
X617065Y144986D01*
D02*
G37*
G36*
X377561Y139921D02*
X377518Y140331D01*
X377387Y140698D01*
X377170Y141022D01*
X376865Y141303D01*
X376474Y141540D01*
X375995Y141735D01*
X375430Y141886D01*
X374778Y141994D01*
X374039Y142058D01*
X373213Y142080D01*
Y146398D01*
X374039Y146420D01*
X374778Y146484D01*
X375430Y146592D01*
X375995Y146743D01*
X376474Y146938D01*
X376865Y147175D01*
X377170Y147456D01*
X377387Y147780D01*
X377518Y148147D01*
X377561Y148557D01*
Y139921D01*
D02*
G37*
G36*
X647768Y142348D02*
X647844Y142332D01*
X647971Y142317D01*
X648377Y142294D01*
X650282Y142270D01*
Y139730D01*
X647742Y139633D01*
Y142366D01*
X647768Y142348D01*
D02*
G37*
G36*
X590258Y139633D02*
X590232Y139652D01*
X590156Y139668D01*
X590029Y139683D01*
X589623Y139706D01*
X587718Y139730D01*
Y142270D01*
X590258Y142366D01*
Y139633D01*
D02*
G37*
G36*
X658561Y138460D02*
X658535Y138701D01*
X658458Y138917D01*
X658330Y139108D01*
X658150Y139273D01*
X657918Y139412D01*
X657636Y139527D01*
X657302Y139616D01*
X656916Y139679D01*
X656479Y139717D01*
X655991Y139730D01*
Y142270D01*
X656479Y142283D01*
X656916Y142321D01*
X657302Y142384D01*
X657636Y142473D01*
X657918Y142587D01*
X658150Y142727D01*
X658330Y142892D01*
X658458Y143083D01*
X658535Y143299D01*
X658561Y143540D01*
Y138460D01*
D02*
G37*
G36*
X579465Y143299D02*
X579542Y143083D01*
X579670Y142892D01*
X579850Y142727D01*
X580081Y142587D01*
X580364Y142473D01*
X580698Y142384D01*
X581084Y142321D01*
X581521Y142283D01*
X582009Y142270D01*
Y139730D01*
X581521Y139717D01*
X581084Y139679D01*
X580698Y139616D01*
X580364Y139527D01*
X580081Y139412D01*
X579850Y139273D01*
X579670Y139108D01*
X579542Y138917D01*
X579465Y138701D01*
X579439Y138460D01*
Y143540D01*
X579465Y143299D01*
D02*
G37*
G36*
X333565Y142618D02*
X333936Y142331D01*
X334358Y142049D01*
X334830Y141773D01*
X335925Y141238D01*
X336548Y140980D01*
X338718Y140238D01*
X331287Y136322D01*
X331463Y136950D01*
X331580Y137553D01*
X331638Y138131D01*
X331637Y138682D01*
X331578Y139208D01*
X331459Y139708D01*
X331281Y140182D01*
X331044Y140631D01*
X330748Y141054D01*
X330393Y141451D01*
X333244Y142911D01*
X333565Y142618D01*
D02*
G37*
G36*
X308257Y135615D02*
X308232Y135777D01*
X308156Y135922D01*
X308029Y136050D01*
X307851Y136161D01*
X307622Y136256D01*
X307343Y136332D01*
X307013Y136392D01*
X306632Y136435D01*
X306200Y136461D01*
X305717Y136469D01*
Y139009D01*
X306200Y139018D01*
X307013Y139086D01*
X307343Y139146D01*
X307622Y139223D01*
X307851Y139317D01*
X308029Y139428D01*
X308156Y139556D01*
X308232Y139701D01*
X308257Y139864D01*
Y135615D01*
D02*
G37*
G36*
X647768Y137348D02*
X647844Y137332D01*
X647971Y137317D01*
X648377Y137294D01*
X650282Y137270D01*
Y134730D01*
X647742Y134634D01*
Y137367D01*
X647768Y137348D01*
D02*
G37*
G36*
X590258Y134634D02*
X590232Y134652D01*
X590156Y134668D01*
X590029Y134683D01*
X589623Y134706D01*
X587718Y134730D01*
Y137270D01*
X590258Y137367D01*
Y134634D01*
D02*
G37*
G36*
X647768Y132348D02*
X647844Y132332D01*
X647971Y132317D01*
X648377Y132294D01*
X650282Y132270D01*
Y129730D01*
X647742Y129633D01*
Y132367D01*
X647768Y132348D01*
D02*
G37*
G36*
X634524Y129633D02*
X634499Y129652D01*
X634423Y129668D01*
X634296Y129683D01*
X633889Y129706D01*
X631984Y129730D01*
Y132270D01*
X634524Y132367D01*
Y129633D01*
D02*
G37*
G36*
X590258D02*
X590232Y129652D01*
X590156Y129668D01*
X590029Y129683D01*
X589623Y129706D01*
X587718Y129730D01*
Y132270D01*
X590258Y132367D01*
Y129633D01*
D02*
G37*
G36*
X623853Y134643D02*
X624957Y133706D01*
X625492Y133325D01*
X626015Y133003D01*
X626528Y132739D01*
X627029Y132534D01*
X627518Y132387D01*
X627829Y132330D01*
Y133540D01*
X627854Y133299D01*
X627932Y133083D01*
X628060Y132892D01*
X628240Y132727D01*
X628471Y132587D01*
X628754Y132473D01*
X629088Y132384D01*
X629474Y132321D01*
X629911Y132283D01*
X630399Y132270D01*
Y129730D01*
X629911Y129717D01*
X629474Y129679D01*
X629088Y129616D01*
X628754Y129527D01*
X628471Y129412D01*
X628240Y129273D01*
X628060Y129108D01*
X627932Y128917D01*
X627854Y128701D01*
X627829Y128460D01*
Y129670D01*
X627518Y129613D01*
X627029Y129466D01*
X626528Y129261D01*
X626015Y128997D01*
X625492Y128675D01*
X624957Y128294D01*
X624843Y128203D01*
X624845Y128087D01*
X624899Y127462D01*
X624998Y126880D01*
X625141Y126341D01*
X625329Y125846D01*
X625562Y125394D01*
X625839Y124985D01*
X626160Y124620D01*
X624142Y123045D01*
X623811Y123338D01*
X623424Y123611D01*
X622983Y123862D01*
X622486Y124092D01*
X621933Y124302D01*
X621325Y124491D01*
X620662Y124658D01*
X619170Y124931D01*
X618341Y125036D01*
X623285Y128916D01*
Y135200D01*
X623853Y134643D01*
D02*
G37*
G36*
X338718Y128740D02*
X337944Y128499D01*
X335925Y127739D01*
X335352Y127475D01*
X334358Y126929D01*
X333936Y126647D01*
X333565Y126360D01*
X333244Y126067D01*
X330393Y127527D01*
X330748Y127924D01*
X331044Y128347D01*
X331281Y128796D01*
X331459Y129270D01*
X331578Y129770D01*
X331637Y130296D01*
X331638Y130847D01*
X331580Y131425D01*
X331463Y132028D01*
X331287Y132656D01*
X338718Y128740D01*
D02*
G37*
G36*
X647765Y127348D02*
X647833Y127332D01*
X647945Y127317D01*
X648307Y127294D01*
X650000Y127270D01*
Y124730D01*
X647742Y124634D01*
Y127367D01*
X647765Y127348D01*
D02*
G37*
G36*
X365773Y126749D02*
X365864Y126647D01*
X366017Y126557D01*
X366230Y126479D01*
X366504Y126413D01*
X366840Y126359D01*
X367236Y126317D01*
X368211Y126269D01*
X368790Y126263D01*
Y123215D01*
X368211Y123209D01*
X366840Y123119D01*
X366504Y123065D01*
X366230Y122999D01*
X366017Y122921D01*
X365864Y122831D01*
X365773Y122729D01*
X365742Y122614D01*
Y126863D01*
X365773Y126749D01*
D02*
G37*
G36*
X322085D02*
X322176Y126647D01*
X322329Y126557D01*
X322542Y126479D01*
X322816Y126413D01*
X323152Y126359D01*
X323548Y126317D01*
X324523Y126269D01*
X325102Y126263D01*
Y123215D01*
X324523Y123209D01*
X323152Y123119D01*
X322816Y123065D01*
X322542Y122999D01*
X322329Y122921D01*
X322176Y122831D01*
X322085Y122729D01*
X322054Y122614D01*
Y126863D01*
X322085Y126749D01*
D02*
G37*
G36*
X388565Y126573D02*
X388642Y125710D01*
X388769Y124948D01*
X388946Y124287D01*
X389175Y123728D01*
X389454Y123271D01*
X389785Y122916D01*
X390166Y122662D01*
X390597Y122509D01*
X391080Y122458D01*
X380920D01*
X381403Y122509D01*
X381834Y122662D01*
X382215Y122916D01*
X382546Y123271D01*
X382825Y123728D01*
X383054Y124287D01*
X383231Y124948D01*
X383358Y125710D01*
X383435Y126573D01*
X383460Y127538D01*
X388540D01*
X388565Y126573D01*
D02*
G37*
G36*
X328298Y121691D02*
X328267Y121980D01*
X328175Y122240D01*
X328021Y122468D01*
X327805Y122666D01*
X327528Y122834D01*
X327189Y122971D01*
X326789Y123078D01*
X326328Y123154D01*
X325804Y123200D01*
X325219Y123215D01*
Y126263D01*
X325804Y126278D01*
X326328Y126324D01*
X326789Y126400D01*
X327189Y126507D01*
X327528Y126644D01*
X327805Y126812D01*
X328021Y127010D01*
X328175Y127238D01*
X328267Y127497D01*
X328298Y127787D01*
Y121691D01*
D02*
G37*
G36*
X668283Y122027D02*
X668321Y121595D01*
X668384Y121214D01*
X668473Y120884D01*
X668588Y120605D01*
X668727Y120376D01*
X668893Y120198D01*
X669083Y120071D01*
X669299Y119995D01*
X669540Y119970D01*
X664460D01*
X664702Y119995D01*
X664917Y120071D01*
X665108Y120198D01*
X665273Y120376D01*
X665413Y120605D01*
X665527Y120884D01*
X665616Y121214D01*
X665679Y121595D01*
X665717Y122027D01*
X665730Y122510D01*
X668270D01*
X668283Y122027D01*
D02*
G37*
G36*
X398561Y119556D02*
X398578Y119554D01*
X399549Y119529D01*
Y114449D01*
X398578Y114424D01*
X398561Y114422D01*
Y111909D01*
X398510Y112392D01*
X398357Y112823D01*
X398101Y113204D01*
X397743Y113534D01*
X397284Y113814D01*
X396721Y114043D01*
X396500Y114102D01*
X396279Y114043D01*
X395717Y113814D01*
X395257Y113534D01*
X394899Y113204D01*
X394643Y112823D01*
X394490Y112392D01*
X394439Y111909D01*
Y114422D01*
X394422Y114424D01*
X393451Y114449D01*
Y119529D01*
X394422Y119554D01*
X394439Y119556D01*
Y122069D01*
X394490Y121586D01*
X394643Y121154D01*
X394899Y120773D01*
X395257Y120443D01*
X395717Y120164D01*
X396279Y119935D01*
X396500Y119876D01*
X396721Y119935D01*
X397284Y120164D01*
X397743Y120443D01*
X398101Y120773D01*
X398357Y121154D01*
X398510Y121586D01*
X398561Y122069D01*
Y119556D01*
D02*
G37*
G36*
X634524Y119633D02*
X634499Y119652D01*
X634423Y119668D01*
X634296Y119683D01*
X633889Y119706D01*
X631984Y119730D01*
Y122270D01*
X634524Y122367D01*
Y119633D01*
D02*
G37*
G36*
X590258D02*
X590232Y119652D01*
X590156Y119668D01*
X590029Y119683D01*
X589623Y119706D01*
X587718Y119730D01*
Y122270D01*
X590258Y122367D01*
Y119633D01*
D02*
G37*
G36*
X619097Y121074D02*
X618666Y120921D01*
X618284Y120667D01*
X617954Y120312D01*
X617675Y119854D01*
X617446Y119296D01*
X617268Y118635D01*
X617141Y117873D01*
X617065Y117010D01*
X617040Y116044D01*
X611960D01*
X611942Y117010D01*
X611796Y118635D01*
X611669Y119296D01*
X611505Y119854D01*
X611305Y120312D01*
X611068Y120667D01*
X610795Y120921D01*
X610486Y121074D01*
X610140Y121124D01*
X619580D01*
X619097Y121074D01*
D02*
G37*
G36*
X312950Y116084D02*
X312691Y115993D01*
X312462Y115840D01*
X312264Y115627D01*
X312097Y115353D01*
X311959Y115017D01*
X311853Y114621D01*
X311777Y114164D01*
X311731Y113646D01*
X311716Y113067D01*
X308668D01*
X308664Y113646D01*
X308520Y115627D01*
X308467Y115840D01*
X308405Y115993D01*
X308335Y116084D01*
X308257Y116115D01*
X313240D01*
X312950Y116084D01*
D02*
G37*
G36*
X1366885Y117375D02*
X1366602Y117004D01*
X1366353Y116604D01*
X1366138Y116174D01*
X1365955Y115714D01*
X1365806Y115224D01*
X1365691Y114710D01*
X1365769Y114244D01*
X1365946Y113584D01*
X1366175Y113025D01*
X1366454Y112568D01*
X1366785Y112212D01*
X1367166Y111958D01*
X1367597Y111806D01*
X1368080Y111755D01*
X1357920D01*
X1358403Y111806D01*
X1358834Y111958D01*
X1359215Y112212D01*
X1359546Y112568D01*
X1359825Y113025D01*
X1360054Y113584D01*
X1360231Y114244D01*
X1360309Y114710D01*
X1360194Y115224D01*
X1360045Y115714D01*
X1359862Y116174D01*
X1359647Y116604D01*
X1359398Y117004D01*
X1359115Y117375D01*
X1358800Y117715D01*
X1367200D01*
X1366885Y117375D01*
D02*
G37*
G36*
X1377790Y103487D02*
X1377759Y103776D01*
X1377667Y104035D01*
X1377513Y104264D01*
X1377297Y104462D01*
X1377020Y104630D01*
X1376682Y104767D01*
X1376281Y104874D01*
X1375820Y104950D01*
X1375296Y104995D01*
X1374729Y105010D01*
X1374161Y104995D01*
X1373638Y104950D01*
X1373176Y104874D01*
X1372776Y104767D01*
X1372437Y104630D01*
X1372160Y104462D01*
X1371945Y104264D01*
X1371791Y104035D01*
X1371698Y103776D01*
X1371668Y103487D01*
Y109583D01*
X1371698Y109293D01*
X1371791Y109034D01*
X1371945Y108806D01*
X1372160Y108607D01*
X1372437Y108440D01*
X1372776Y108303D01*
X1373176Y108196D01*
X1373638Y108120D01*
X1374161Y108074D01*
X1374729Y108059D01*
X1375296Y108074D01*
X1375820Y108120D01*
X1376281Y108196D01*
X1376682Y108303D01*
X1377020Y108440D01*
X1377297Y108607D01*
X1377513Y108806D01*
X1377667Y109034D01*
X1377759Y109293D01*
X1377790Y109583D01*
Y103487D01*
D02*
G37*
G36*
X296598Y117499D02*
X296166Y117345D01*
X295785Y117090D01*
X295455Y116732D01*
X295175Y116272D01*
X294947Y115710D01*
X294769Y115046D01*
X294642Y114279D01*
X294566Y113410D01*
X294548Y112739D01*
X294566Y112069D01*
X294642Y111201D01*
X294769Y110435D01*
X294947Y109771D01*
X295175Y109209D01*
X295455Y108749D01*
X295785Y108391D01*
X296166Y108135D01*
X296598Y107980D01*
X297080Y107928D01*
X287031Y107958D01*
X287492Y108009D01*
X287905Y108161D01*
X288270Y108415D01*
X288585Y108771D01*
X288853Y109228D01*
X289071Y109787D01*
X289242Y110448D01*
X289363Y111209D01*
X289436Y112073D01*
X289452Y112733D01*
X289435Y113410D01*
X289359Y114279D01*
X289232Y115046D01*
X289054Y115710D01*
X288825Y116272D01*
X288546Y116732D01*
X288216Y117090D01*
X287835Y117345D01*
X287403Y117499D01*
X286920Y117550D01*
X297080D01*
X296598Y117499D01*
D02*
G37*
G36*
X617065Y111579D02*
X617141Y110710D01*
X617268Y109943D01*
X617446Y109279D01*
X617675Y108717D01*
X617954Y108257D01*
X618284Y107899D01*
X618666Y107643D01*
X619097Y107490D01*
X619580Y107439D01*
X609420D01*
X609902Y107490D01*
X610334Y107643D01*
X610715Y107899D01*
X611045Y108257D01*
X611325Y108717D01*
X611553Y109279D01*
X611731Y109943D01*
X611858Y110710D01*
X611935Y111579D01*
X611960Y112549D01*
X617040D01*
X617065Y111579D01*
D02*
G37*
G36*
X1394699Y109293D02*
X1394791Y109034D01*
X1394945Y108806D01*
X1395161Y108607D01*
X1395437Y108440D01*
X1395776Y108303D01*
X1396176Y108196D01*
X1396638Y108120D01*
X1397135Y108076D01*
X1398333Y108155D01*
X1398668Y108210D01*
X1398943Y108276D01*
X1399156Y108355D01*
X1399308Y108446D01*
X1399400Y108548D01*
X1399430Y108663D01*
Y104406D01*
X1399400Y104521D01*
X1399308Y104624D01*
X1399156Y104714D01*
X1398943Y104793D01*
X1398668Y104860D01*
X1398333Y104914D01*
X1397937Y104956D01*
X1397156Y104995D01*
X1396638Y104950D01*
X1396176Y104874D01*
X1395776Y104767D01*
X1395437Y104630D01*
X1395161Y104462D01*
X1394945Y104264D01*
X1394791Y104035D01*
X1394699Y103776D01*
X1394668Y103487D01*
Y109583D01*
X1394699Y109293D01*
D02*
G37*
G36*
X314030Y104282D02*
X314010Y104383D01*
X313948Y104473D01*
X313845Y104552D01*
X313702Y104621D01*
X313517Y104679D01*
X313291Y104727D01*
X313024Y104764D01*
X312367Y104806D01*
X311977Y104812D01*
Y107860D01*
X314030Y107958D01*
Y104282D01*
D02*
G37*
G36*
X573065Y109579D02*
X573111Y109061D01*
X575580D01*
X575097Y109010D01*
X574666Y108857D01*
X574285Y108601D01*
X573954Y108243D01*
X573675Y107783D01*
X573458Y107250D01*
X573675Y106717D01*
X573954Y106257D01*
X574285Y105899D01*
X574666Y105644D01*
X575097Y105490D01*
X575580Y105439D01*
X573111D01*
X573065Y104922D01*
X573040Y103951D01*
X567960D01*
X567935Y104922D01*
X567889Y105439D01*
X565420D01*
X565903Y105490D01*
X566334Y105644D01*
X566715Y105899D01*
X567046Y106257D01*
X567325Y106717D01*
X567542Y107250D01*
X567325Y107783D01*
X567046Y108243D01*
X566715Y108601D01*
X566334Y108857D01*
X565903Y109010D01*
X565420Y109061D01*
X567889D01*
X567935Y109579D01*
X567960Y110549D01*
X573040D01*
X573065Y109579D01*
D02*
G37*
G36*
X390597Y111499D02*
X390166Y111345D01*
X389785Y111090D01*
X389454Y110732D01*
X389175Y110272D01*
X388946Y109710D01*
X388769Y109046D01*
X388642Y108279D01*
X388583Y107609D01*
X388606Y107335D01*
X388689Y106785D01*
X388806Y106265D01*
X388955Y105775D01*
X389138Y105315D01*
X389353Y104885D01*
X389602Y104484D01*
X389885Y104114D01*
X390200Y103774D01*
X381800D01*
X382115Y104114D01*
X382398Y104484D01*
X382647Y104885D01*
X382862Y105315D01*
X383045Y105775D01*
X383194Y106265D01*
X383311Y106785D01*
X383394Y107335D01*
X383417Y107609D01*
X383358Y108279D01*
X383231Y109046D01*
X383054Y109710D01*
X382825Y110272D01*
X382546Y110732D01*
X382215Y111090D01*
X381834Y111345D01*
X381403Y111499D01*
X380920Y111550D01*
X391080D01*
X390597Y111499D01*
D02*
G37*
G36*
X1461790Y102217D02*
X1461746Y102627D01*
X1461616Y102994D01*
X1461398Y103318D01*
X1461094Y103598D01*
X1460703Y103836D01*
X1460224Y104030D01*
X1459659Y104181D01*
X1459007Y104289D01*
X1458267Y104354D01*
X1457441Y104376D01*
Y108694D01*
X1458267Y108715D01*
X1459007Y108780D01*
X1459659Y108888D01*
X1460224Y109039D01*
X1460703Y109234D01*
X1461094Y109471D01*
X1461398Y109752D01*
X1461616Y110076D01*
X1461746Y110442D01*
X1461790Y110853D01*
Y102217D01*
D02*
G37*
G36*
X1478719Y111597D02*
X1478872Y111166D01*
X1479128Y110785D01*
X1479485Y110454D01*
X1479945Y110175D01*
X1480508Y109946D01*
X1481172Y109769D01*
X1481938Y109642D01*
X1482807Y109565D01*
X1483778Y109540D01*
Y104460D01*
X1482807Y104435D01*
X1481938Y104358D01*
X1481172Y104231D01*
X1480508Y104054D01*
X1479945Y103825D01*
X1479485Y103546D01*
X1479128Y103215D01*
X1478872Y102834D01*
X1478719Y102403D01*
X1478668Y101920D01*
Y112080D01*
X1478719Y111597D01*
D02*
G37*
G36*
X1399430Y97906D02*
X1399400Y98021D01*
X1399308Y98124D01*
X1399156Y98215D01*
X1398943Y98293D01*
X1398668Y98360D01*
X1398333Y98414D01*
X1397937Y98456D01*
X1396961Y98505D01*
X1396382Y98511D01*
Y101559D01*
X1396961Y101565D01*
X1398333Y101656D01*
X1398668Y101710D01*
X1398943Y101777D01*
X1399156Y101855D01*
X1399308Y101946D01*
X1399400Y102049D01*
X1399430Y102163D01*
Y97906D01*
D02*
G37*
G36*
X646965Y101299D02*
X647042Y101083D01*
X647170Y100892D01*
X647350Y100727D01*
X647582Y100588D01*
X647865Y100473D01*
X648199Y100384D01*
X648584Y100321D01*
X649021Y100283D01*
X649510Y100270D01*
Y97730D01*
X649021Y97717D01*
X648584Y97679D01*
X648199Y97616D01*
X647865Y97527D01*
X647582Y97413D01*
X647350Y97273D01*
X647170Y97108D01*
X647042Y96917D01*
X646965Y96701D01*
X646939Y96460D01*
Y101540D01*
X646965Y101299D01*
D02*
G37*
G36*
X368970Y102247D02*
X369062Y101988D01*
X369216Y101760D01*
X369432Y101561D01*
X369709Y101394D01*
X370047Y101257D01*
X370448Y101150D01*
X370909Y101074D01*
X371433Y101028D01*
X372018Y101013D01*
Y97965D01*
X371433Y97949D01*
X370909Y97904D01*
X370448Y97828D01*
X370047Y97721D01*
X369709Y97584D01*
X369432Y97416D01*
X369216Y97218D01*
X369062Y96989D01*
X368970Y96730D01*
X368939Y96441D01*
Y102537D01*
X368970Y102247D01*
D02*
G37*
G36*
X1437490Y98132D02*
X1437643Y97701D01*
X1437899Y97320D01*
X1438257Y96989D01*
X1438716Y96710D01*
X1439279Y96481D01*
X1439943Y96304D01*
X1440710Y96177D01*
X1441578Y96100D01*
X1442549Y96075D01*
Y90995D01*
X1441578Y90970D01*
X1440710Y90893D01*
X1439943Y90766D01*
X1439279Y90589D01*
X1438716Y90360D01*
X1438257Y90081D01*
X1437899Y89750D01*
X1437643Y89369D01*
X1437490Y88938D01*
X1437439Y88455D01*
Y94143D01*
X1436872Y90995D01*
X1429923Y91029D01*
X1434106Y97994D01*
X1434214Y97630D01*
X1434379Y97303D01*
X1434603Y97016D01*
X1434884Y96766D01*
X1435223Y96555D01*
X1435620Y96382D01*
X1436075Y96248D01*
X1436588Y96152D01*
X1437158Y96094D01*
X1437439Y96086D01*
Y98615D01*
X1437490Y98132D01*
D02*
G37*
G36*
X592031Y94460D02*
X592005Y94701D01*
X591929Y94917D01*
X591802Y95108D01*
X591624Y95273D01*
X591396Y95413D01*
X591116Y95527D01*
X590786Y95616D01*
X590405Y95679D01*
X589973Y95717D01*
X589491Y95730D01*
Y98270D01*
X589973Y98283D01*
X590405Y98321D01*
X590786Y98384D01*
X591116Y98473D01*
X591396Y98588D01*
X591624Y98727D01*
X591802Y98892D01*
X591929Y99083D01*
X592005Y99299D01*
X592031Y99540D01*
Y94460D01*
D02*
G37*
G36*
X1523339Y99071D02*
X1523421Y98389D01*
X1523556Y97725D01*
X1523746Y97078D01*
X1523990Y96449D01*
X1524288Y95838D01*
X1524640Y95244D01*
X1525047Y94669D01*
X1525507Y94111D01*
X1526022Y93571D01*
X1515522D01*
X1516037Y94111D01*
X1516498Y94669D01*
X1516904Y95244D01*
X1517257Y95838D01*
X1517555Y96449D01*
X1517799Y97078D01*
X1517988Y97725D01*
X1518124Y98389D01*
X1518205Y99071D01*
X1518232Y99771D01*
X1523312D01*
X1523339Y99071D01*
D02*
G37*
G36*
X1425473Y93481D02*
X1429247Y90872D01*
X1428687Y90759D01*
X1428143Y90616D01*
X1427616Y90442D01*
X1427106Y90238D01*
X1426613Y90004D01*
X1426137Y89739D01*
X1425677Y89445D01*
X1425235Y89120D01*
X1424809Y88764D01*
X1424400Y88378D01*
X1423498Y88984D01*
X1423252Y88754D01*
X1422051Y89955D01*
X1420745Y90831D01*
X1420952Y91054D01*
X1420198Y91808D01*
X1420589Y92227D01*
X1420939Y92663D01*
X1421246Y93115D01*
X1421512Y93583D01*
X1421736Y94067D01*
X1421918Y94566D01*
X1422058Y95082D01*
X1422157Y95614D01*
X1422214Y96161D01*
X1422229Y96725D01*
X1425473Y93481D01*
D02*
G37*
G36*
X366259Y91019D02*
X365999Y90927D01*
X365771Y90773D01*
X365573Y90557D01*
X365405Y90280D01*
X365268Y89942D01*
X365161Y89541D01*
X365085Y89080D01*
X365077Y88989D01*
X365085Y88898D01*
X365161Y88437D01*
X365268Y88036D01*
X365405Y87698D01*
X365573Y87421D01*
X365771Y87205D01*
X365999Y87051D01*
X366259Y86959D01*
X366548Y86928D01*
X360452D01*
X360742Y86959D01*
X361001Y87051D01*
X361229Y87205D01*
X361427Y87421D01*
X361595Y87698D01*
X361732Y88036D01*
X361839Y88437D01*
X361915Y88898D01*
X361923Y88989D01*
X361915Y89080D01*
X361839Y89541D01*
X361732Y89942D01*
X361595Y90280D01*
X361427Y90557D01*
X361229Y90773D01*
X361001Y90927D01*
X360742Y91019D01*
X360452Y91050D01*
X366548D01*
X366259Y91019D01*
D02*
G37*
G36*
X643799Y90535D02*
X643583Y90458D01*
X643392Y90330D01*
X643227Y90150D01*
X643088Y89918D01*
X642973Y89636D01*
X642884Y89301D01*
X642821Y88916D01*
X642785Y88500D01*
X642821Y88084D01*
X642884Y87698D01*
X642973Y87364D01*
X643088Y87081D01*
X643227Y86850D01*
X643392Y86670D01*
X643583Y86542D01*
X643799Y86465D01*
X644040Y86439D01*
X638960D01*
X639201Y86465D01*
X639417Y86542D01*
X639608Y86670D01*
X639773Y86850D01*
X639913Y87081D01*
X640027Y87364D01*
X640116Y87698D01*
X640179Y88084D01*
X640216Y88500D01*
X640179Y88916D01*
X640116Y89301D01*
X640027Y89636D01*
X639913Y89918D01*
X639773Y90150D01*
X639608Y90330D01*
X639417Y90458D01*
X639201Y90535D01*
X638960Y90561D01*
X644040D01*
X643799Y90535D01*
D02*
G37*
G36*
X339065Y91068D02*
X339067Y91050D01*
X341580D01*
X341097Y90999D01*
X340666Y90845D01*
X340285Y90590D01*
X339954Y90232D01*
X339675Y89772D01*
X339446Y89210D01*
X339387Y88989D01*
X339446Y88768D01*
X339675Y88206D01*
X339954Y87746D01*
X340285Y87388D01*
X340666Y87133D01*
X341097Y86979D01*
X341580Y86928D01*
X339067D01*
X339065Y86910D01*
X339040Y85939D01*
X333960D01*
X333935Y86910D01*
X333933Y86928D01*
X331420D01*
X331903Y86979D01*
X332334Y87133D01*
X332715Y87388D01*
X333046Y87746D01*
X333325Y88206D01*
X333554Y88768D01*
X333613Y88989D01*
X333554Y89210D01*
X333325Y89772D01*
X333046Y90232D01*
X332715Y90590D01*
X332334Y90845D01*
X331903Y90999D01*
X331420Y91050D01*
X333933D01*
X333935Y91068D01*
X333960Y92039D01*
X339040D01*
X339065Y91068D01*
D02*
G37*
G36*
X1470791Y89646D02*
X1470859Y88830D01*
X1470972Y88109D01*
X1471131Y87484D01*
X1471335Y86956D01*
X1471584Y86524D01*
X1471878Y86187D01*
X1472218Y85947D01*
X1472603Y85803D01*
X1473033Y85755D01*
X1463425D01*
X1463855Y85803D01*
X1464240Y85947D01*
X1464579Y86187D01*
X1464874Y86524D01*
X1465123Y86956D01*
X1465327Y87484D01*
X1465485Y88109D01*
X1465598Y88830D01*
X1465666Y89646D01*
X1465689Y90559D01*
X1470769D01*
X1470791Y89646D01*
D02*
G37*
G36*
X617065Y90578D02*
X617067Y90561D01*
X619580D01*
X619097Y90510D01*
X618666Y90357D01*
X618284Y90101D01*
X617954Y89743D01*
X617675Y89283D01*
X617446Y88721D01*
X617387Y88500D01*
X617446Y88279D01*
X617675Y87716D01*
X617954Y87256D01*
X618284Y86899D01*
X618666Y86643D01*
X619097Y86490D01*
X619580Y86439D01*
X617067D01*
X617065Y86421D01*
X617040Y85450D01*
X611960D01*
X611935Y86421D01*
X611933Y86439D01*
X609420D01*
X609902Y86490D01*
X610334Y86643D01*
X610715Y86899D01*
X611045Y87256D01*
X611325Y87716D01*
X611553Y88279D01*
X611613Y88500D01*
X611553Y88721D01*
X611325Y89283D01*
X611045Y89743D01*
X610715Y90101D01*
X610334Y90357D01*
X609902Y90510D01*
X609420Y90561D01*
X611933D01*
X611935Y90578D01*
X611960Y91549D01*
X617040D01*
X617065Y90578D01*
D02*
G37*
G36*
X297097Y90999D02*
X296666Y90845D01*
X296285Y90590D01*
X295954Y90232D01*
X295675Y89772D01*
X295446Y89210D01*
X295269Y88546D01*
X295142Y87779D01*
X295083Y87109D01*
X295106Y86835D01*
X295189Y86285D01*
X295306Y85765D01*
X295455Y85275D01*
X295638Y84815D01*
X295854Y84385D01*
X296103Y83984D01*
X296385Y83614D01*
X296700Y83274D01*
X288300D01*
X288615Y83614D01*
X288898Y83984D01*
X289147Y84385D01*
X289362Y84815D01*
X289545Y85275D01*
X289694Y85765D01*
X289811Y86285D01*
X289894Y86835D01*
X289917Y87109D01*
X289858Y87779D01*
X289732Y88546D01*
X289554Y89210D01*
X289325Y89772D01*
X289046Y90232D01*
X288715Y90590D01*
X288335Y90845D01*
X287903Y90999D01*
X287420Y91050D01*
X297580D01*
X297097Y90999D01*
D02*
G37*
G36*
X1452689Y84881D02*
X1452473Y84805D01*
X1452283Y84678D01*
X1452117Y84500D01*
X1451978Y84272D01*
X1451864Y83992D01*
X1451775Y83662D01*
X1451711Y83281D01*
X1451673Y82849D01*
X1451660Y82367D01*
X1449120D01*
X1449108Y82849D01*
X1449070Y83281D01*
X1449006Y83662D01*
X1448917Y83992D01*
X1448803Y84272D01*
X1448663Y84500D01*
X1448498Y84678D01*
X1448307Y84805D01*
X1448092Y84881D01*
X1447850Y84907D01*
X1452930D01*
X1452689Y84881D01*
D02*
G37*
G36*
X1377790Y74205D02*
X1377739Y74688D01*
X1377585Y75120D01*
X1377330Y75500D01*
X1376972Y75831D01*
X1376512Y76110D01*
X1375950Y76339D01*
X1375286Y76516D01*
X1374729Y76609D01*
X1374172Y76516D01*
X1373508Y76339D01*
X1372945Y76110D01*
X1372485Y75831D01*
X1372128Y75500D01*
X1371872Y75120D01*
X1371719Y74688D01*
X1371668Y74205D01*
Y84365D01*
X1371719Y83883D01*
X1371872Y83451D01*
X1372128Y83070D01*
X1372485Y82739D01*
X1372945Y82460D01*
X1373508Y82232D01*
X1374172Y82054D01*
X1374729Y81961D01*
X1375286Y82054D01*
X1375950Y82232D01*
X1376512Y82460D01*
X1376972Y82739D01*
X1377330Y83070D01*
X1377585Y83451D01*
X1377739Y83883D01*
X1377790Y84365D01*
Y74205D01*
D02*
G37*
G36*
X575347Y88510D02*
X574916Y88357D01*
X574534Y88101D01*
X574204Y87743D01*
X573925Y87283D01*
X573696Y86721D01*
X573518Y86057D01*
X573391Y85290D01*
X573321Y84492D01*
X573357Y84086D01*
X573440Y83536D01*
X573556Y83016D01*
X573706Y82526D01*
X573890Y82067D01*
X574106Y81637D01*
X574356Y81238D01*
X574639Y80868D01*
X574956Y80529D01*
X566556Y80501D01*
X566870Y80842D01*
X567151Y81213D01*
X567399Y81614D01*
X567614Y82045D01*
X567796Y82506D01*
X567945Y82996D01*
X568061Y83517D01*
X568144Y84067D01*
X568179Y84482D01*
X568108Y85290D01*
X567981Y86057D01*
X567803Y86721D01*
X567575Y87283D01*
X567295Y87743D01*
X566965Y88101D01*
X566584Y88357D01*
X566152Y88510D01*
X565670Y88561D01*
X575830D01*
X575347Y88510D01*
D02*
G37*
G36*
X297433Y82478D02*
X297779Y82174D01*
X298158Y81905D01*
X298571Y81673D01*
X299016Y81476D01*
X299495Y81315D01*
X300007Y81190D01*
X300553Y81101D01*
X301131Y81047D01*
X301743Y81029D01*
X301273Y75949D01*
X300664Y75934D01*
X300083Y75889D01*
X299529Y75814D01*
X299003Y75709D01*
X298504Y75574D01*
X298032Y75408D01*
X297588Y75213D01*
X297171Y74988D01*
X296782Y74732D01*
X296420Y74447D01*
X297120Y82817D01*
X297433Y82478D01*
D02*
G37*
G36*
X1394715Y82896D02*
X1394856Y82533D01*
X1395091Y82213D01*
X1395421Y81935D01*
X1395844Y81700D01*
X1396362Y81508D01*
X1396974Y81359D01*
X1397679Y81252D01*
X1398479Y81188D01*
X1399373Y81167D01*
Y76087D01*
X1398479Y76066D01*
X1397679Y76002D01*
X1396974Y75895D01*
X1396362Y75745D01*
X1395844Y75553D01*
X1395421Y75318D01*
X1395091Y75041D01*
X1394856Y74721D01*
X1394715Y74358D01*
X1394668Y73952D01*
Y83302D01*
X1394715Y82896D01*
D02*
G37*
G36*
X331061Y73409D02*
X331010Y73892D01*
X330857Y74324D01*
X330601Y74704D01*
X330243Y75035D01*
X329783Y75314D01*
X329221Y75543D01*
X328557Y75721D01*
X327790Y75848D01*
X326921Y75924D01*
X325951Y75949D01*
Y81029D01*
X326921Y81054D01*
X327790Y81131D01*
X328557Y81258D01*
X329221Y81435D01*
X329783Y81664D01*
X330243Y81944D01*
X330601Y82274D01*
X330857Y82655D01*
X331010Y83087D01*
X331061Y83569D01*
Y73409D01*
D02*
G37*
G36*
X1404850Y76766D02*
X1405295Y76391D01*
X1405742Y76061D01*
X1406192Y75775D01*
X1406644Y75535D01*
X1407099Y75338D01*
X1407556Y75187D01*
X1408015Y75080D01*
X1408476Y75017D01*
X1408940Y75000D01*
X1403000Y69060D01*
X1402983Y69524D01*
X1402920Y69985D01*
X1402813Y70444D01*
X1402662Y70901D01*
X1402466Y71356D01*
X1402225Y71808D01*
X1401939Y72257D01*
X1401609Y72705D01*
X1401234Y73150D01*
X1400815Y73593D01*
X1404407Y77185D01*
X1404850Y76766D01*
D02*
G37*
G36*
X1435884Y71603D02*
X1436977Y70660D01*
X1437508Y70277D01*
X1438028Y69953D01*
X1438538Y69689D01*
X1439038Y69482D01*
X1439527Y69335D01*
X1440007Y69247D01*
X1440475Y69217D01*
X1440452Y66677D01*
X1439987Y66648D01*
X1439509Y66561D01*
X1439019Y66415D01*
X1438517Y66211D01*
X1438003Y65949D01*
X1437476Y65628D01*
X1436937Y65249D01*
X1436386Y64812D01*
X1435248Y63762D01*
X1435322Y72162D01*
X1435884Y71603D01*
D02*
G37*
G36*
X553295Y52327D02*
X553372Y51895D01*
X553499Y51515D01*
X553676Y51184D01*
X553905Y50905D01*
X554184Y50676D01*
X554515Y50498D01*
X554896Y50371D01*
X555327Y50295D01*
X555810Y50270D01*
X552000Y49000D01*
X548190Y50270D01*
X548673Y50295D01*
X549104Y50371D01*
X549485Y50498D01*
X549816Y50676D01*
X550095Y50905D01*
X550324Y51184D01*
X550501Y51515D01*
X550628Y51895D01*
X550705Y52327D01*
X550730Y52810D01*
X553270D01*
X553295Y52327D01*
D02*
G37*
G36*
X1600000Y0D02*
X0D01*
Y30000D01*
X38065D01*
X38232Y28730D01*
X36569Y28284D01*
X34541Y27114D01*
X32886Y25459D01*
X31716Y23431D01*
X31137Y21270D01*
X48863D01*
X48284Y23431D01*
X47114Y25459D01*
X45459Y27114D01*
X43431Y28284D01*
X41768Y28730D01*
X41935Y30000D01*
X798065D01*
X798232Y28730D01*
X796569Y28284D01*
X794541Y27114D01*
X792886Y25459D01*
X791716Y23431D01*
X791137Y21270D01*
X808863D01*
X808284Y23431D01*
X807114Y25459D01*
X805459Y27114D01*
X803431Y28284D01*
X801768Y28730D01*
X801935Y30000D01*
X1548065D01*
X1548232Y28730D01*
X1546569Y28284D01*
X1544541Y27114D01*
X1542886Y25459D01*
X1541716Y23431D01*
X1541137Y21270D01*
X1558863D01*
X1558284Y23431D01*
X1557114Y25459D01*
X1555459Y27114D01*
X1553431Y28284D01*
X1551768Y28730D01*
X1551935Y30000D01*
X1600000D01*
Y0D01*
D02*
G37*
%LPC*%
G36*
X1551270Y988863D02*
Y981270D01*
X1558863D01*
X1558284Y983431D01*
X1557114Y985459D01*
X1555459Y987114D01*
X1553431Y988284D01*
X1551270Y988863D01*
D02*
G37*
G36*
X1548730D02*
X1546569Y988284D01*
X1544541Y987114D01*
X1542886Y985459D01*
X1541716Y983431D01*
X1541137Y981270D01*
X1548730D01*
Y988863D01*
D02*
G37*
G36*
X801270D02*
Y981270D01*
X808863D01*
X808284Y983431D01*
X807114Y985459D01*
X805459Y987114D01*
X803431Y988284D01*
X801270Y988863D01*
D02*
G37*
G36*
X798730D02*
X796569Y988284D01*
X794541Y987114D01*
X792886Y985459D01*
X791716Y983431D01*
X791137Y981270D01*
X798730D01*
Y988863D01*
D02*
G37*
G36*
X41270D02*
Y981270D01*
X48863D01*
X48284Y983431D01*
X47114Y985459D01*
X45459Y987114D01*
X43431Y988284D01*
X41270Y988863D01*
D02*
G37*
G36*
X38730D02*
X36569Y988284D01*
X34541Y987114D01*
X32886Y985459D01*
X31716Y983431D01*
X31137Y981270D01*
X38730D01*
Y988863D01*
D02*
G37*
G36*
X1558863Y18730D02*
X1551270D01*
Y11137D01*
X1553431Y11716D01*
X1555459Y12886D01*
X1557114Y14541D01*
X1558284Y16569D01*
X1558863Y18730D01*
D02*
G37*
G36*
X1548730D02*
X1541137D01*
X1541716Y16569D01*
X1542886Y14541D01*
X1544541Y12886D01*
X1546569Y11716D01*
X1548730Y11137D01*
Y18730D01*
D02*
G37*
G36*
X808863D02*
X801270D01*
Y11137D01*
X803431Y11716D01*
X805459Y12886D01*
X807114Y14541D01*
X808284Y16569D01*
X808863Y18730D01*
D02*
G37*
G36*
X798730D02*
X791137D01*
X791716Y16569D01*
X792886Y14541D01*
X794541Y12886D01*
X796569Y11716D01*
X798730Y11137D01*
Y18730D01*
D02*
G37*
G36*
X48863D02*
X41270D01*
Y11137D01*
X43431Y11716D01*
X45459Y12886D01*
X47114Y14541D01*
X48284Y16569D01*
X48863Y18730D01*
D02*
G37*
G36*
X38730D02*
X31137D01*
X31716Y16569D01*
X32886Y14541D01*
X34541Y12886D01*
X36569Y11716D01*
X38730Y11137D01*
Y18730D01*
D02*
G37*
%LPD*%
D10*
X349500Y771000D02*
D03*
X322500D02*
D03*
X375500Y625000D02*
D03*
X348500D02*
D03*
X729500Y616000D02*
D03*
X756500D02*
D03*
X730500Y552754D02*
D03*
X757499D02*
D03*
X798500Y616000D02*
D03*
X771500D02*
D03*
X799500Y553000D02*
D03*
X772500D02*
D03*
X811500Y270000D02*
D03*
X838500D02*
D03*
X811500Y213000D02*
D03*
X838500D02*
D03*
X883500Y213000D02*
D03*
X856500D02*
D03*
X855500Y270000D02*
D03*
X882500D02*
D03*
X435533Y484000D02*
D03*
X462533D02*
D03*
Y405000D02*
D03*
X489533D02*
D03*
X1383500Y309000D02*
D03*
X1410500D02*
D03*
X1383500Y284000D02*
D03*
X1410500D02*
D03*
X1389500Y577000D02*
D03*
X1416500D02*
D03*
X613000Y689250D02*
D03*
X640000D02*
D03*
X730500Y464000D02*
D03*
X757500D02*
D03*
X730500Y487000D02*
D03*
X757500D02*
D03*
X651500Y467000D02*
D03*
X678500D02*
D03*
X651500Y445000D02*
D03*
X678500D02*
D03*
X761500Y382000D02*
D03*
X734500D02*
D03*
X761500Y360000D02*
D03*
X734500D02*
D03*
X394500Y336000D02*
D03*
X367500D02*
D03*
X393500Y361000D02*
D03*
X420500D02*
D03*
X368500Y463000D02*
D03*
X341500D02*
D03*
X289500Y484000D02*
D03*
X316500D02*
D03*
X289500Y463000D02*
D03*
X316500D02*
D03*
X238500Y797000D02*
D03*
X265500D02*
D03*
X220500D02*
D03*
X193500D02*
D03*
X219737Y658500D02*
D03*
X246737D02*
D03*
X289737D02*
D03*
X262737D02*
D03*
X363500Y78489D02*
D03*
X336500D02*
D03*
Y99489D02*
D03*
X363500D02*
D03*
X292500D02*
D03*
X319500D02*
D03*
X597500Y97000D02*
D03*
X570500D02*
D03*
X614500Y78000D02*
D03*
X641500D02*
D03*
Y99000D02*
D03*
X614500D02*
D03*
Y160000D02*
D03*
X641500D02*
D03*
X490500Y926000D02*
D03*
X517500D02*
D03*
X444994Y922000D02*
D03*
X471994D02*
D03*
Y943000D02*
D03*
X444994D02*
D03*
X471994Y860000D02*
D03*
X444994D02*
D03*
D11*
X765500Y572360D02*
D03*
X772000D02*
D03*
X778500D02*
D03*
Y593640D02*
D03*
X772000D02*
D03*
X765500D02*
D03*
X849250Y231110D02*
D03*
X855750D02*
D03*
X862250D02*
D03*
Y252390D02*
D03*
X855750D02*
D03*
X849250D02*
D03*
D12*
X405000Y489500D02*
D03*
Y462500D02*
D03*
X435033Y426500D02*
D03*
Y399500D02*
D03*
X486033Y452500D02*
D03*
Y425500D02*
D03*
X1386229Y106285D02*
D03*
Y79285D02*
D03*
X1363229Y106285D02*
D03*
Y79285D02*
D03*
X1470229Y107285D02*
D03*
Y80285D02*
D03*
X540500Y727750D02*
D03*
Y700750D02*
D03*
X562500Y727750D02*
D03*
Y700750D02*
D03*
Y756750D02*
D03*
Y783750D02*
D03*
X641500Y792750D02*
D03*
Y765750D02*
D03*
X663500Y676750D02*
D03*
Y703750D02*
D03*
X664500Y749750D02*
D03*
Y776750D02*
D03*
X689500Y733750D02*
D03*
Y760750D02*
D03*
X801000Y468500D02*
D03*
Y441500D02*
D03*
X779000Y468500D02*
D03*
Y441500D02*
D03*
X680000Y388500D02*
D03*
Y415500D02*
D03*
X785000Y385500D02*
D03*
Y412500D02*
D03*
X163000Y330500D02*
D03*
Y357500D02*
D03*
X218000Y330500D02*
D03*
Y357500D02*
D03*
X311000Y842500D02*
D03*
Y815500D02*
D03*
X288000Y842500D02*
D03*
Y815500D02*
D03*
X217000Y843500D02*
D03*
Y816500D02*
D03*
X194000Y843500D02*
D03*
Y816500D02*
D03*
X219237Y677000D02*
D03*
Y704000D02*
D03*
X241237Y677000D02*
D03*
Y704000D02*
D03*
X332237Y676000D02*
D03*
Y703000D02*
D03*
X310237Y676000D02*
D03*
Y703000D02*
D03*
X1412772Y396115D02*
D03*
Y423115D02*
D03*
X1466042Y474845D02*
D03*
Y501845D02*
D03*
X1439772Y423115D02*
D03*
Y396115D02*
D03*
X386000Y143989D02*
D03*
Y116989D02*
D03*
X407000Y143989D02*
D03*
Y116989D02*
D03*
X292000Y149989D02*
D03*
Y122989D02*
D03*
X667000Y114500D02*
D03*
Y141500D02*
D03*
X571000Y114500D02*
D03*
Y141500D02*
D03*
X517494Y905500D02*
D03*
Y878500D02*
D03*
X421494Y906500D02*
D03*
Y879500D02*
D03*
D13*
X462686Y443500D02*
D03*
Y453000D02*
D03*
Y462500D02*
D03*
X435381D02*
D03*
Y443500D02*
D03*
X238347Y841500D02*
D03*
Y832000D02*
D03*
Y822500D02*
D03*
X265652D02*
D03*
Y841500D02*
D03*
X289890Y702000D02*
D03*
Y683000D02*
D03*
X262584D02*
D03*
Y692500D02*
D03*
Y702000D02*
D03*
D14*
X1435000Y309000D02*
D03*
X1453000D02*
D03*
X1435000Y284000D02*
D03*
X1453000D02*
D03*
X1437000Y577000D02*
D03*
X1455000D02*
D03*
D15*
X1428229Y96785D02*
D03*
D16*
X1450390Y106535D02*
D03*
Y100035D02*
D03*
Y93535D02*
D03*
Y87035D02*
D03*
X1406067D02*
D03*
Y93535D02*
D03*
Y100035D02*
D03*
Y106535D02*
D03*
D17*
X640750Y753000D02*
D03*
Y746500D02*
D03*
Y740000D02*
D03*
Y733500D02*
D03*
Y727000D02*
D03*
Y720500D02*
D03*
Y714000D02*
D03*
Y707500D02*
D03*
X584250D02*
D03*
Y714000D02*
D03*
Y720500D02*
D03*
Y727000D02*
D03*
Y733500D02*
D03*
Y740000D02*
D03*
Y746500D02*
D03*
Y753000D02*
D03*
D18*
X758210Y444750D02*
D03*
Y438250D02*
D03*
Y431750D02*
D03*
Y425250D02*
D03*
Y418750D02*
D03*
Y412250D02*
D03*
Y405750D02*
D03*
Y399250D02*
D03*
X699790D02*
D03*
Y405750D02*
D03*
Y412250D02*
D03*
Y418750D02*
D03*
Y425250D02*
D03*
Y431750D02*
D03*
Y438250D02*
D03*
Y444750D02*
D03*
D19*
X266000Y295000D02*
D03*
X316800D02*
D03*
X342200D02*
D03*
X367600D02*
D03*
X393000D02*
D03*
Y215000D02*
D03*
X367600D02*
D03*
X342200D02*
D03*
X316800D02*
D03*
X266000D02*
D03*
D20*
X427000Y250250D02*
D03*
Y215750D02*
D03*
X449000Y260250D02*
D03*
Y225750D02*
D03*
D21*
X214250Y614000D02*
D03*
X179750D02*
D03*
X214250Y595000D02*
D03*
X179750D02*
D03*
D22*
X240000Y547000D02*
D03*
Y496200D02*
D03*
Y470800D02*
D03*
Y445400D02*
D03*
Y420000D02*
D03*
X160000D02*
D03*
Y445400D02*
D03*
Y470800D02*
D03*
Y496200D02*
D03*
Y547000D02*
D03*
D23*
X315156Y150739D02*
D03*
Y144239D02*
D03*
Y137739D02*
D03*
Y131239D02*
D03*
Y124739D02*
D03*
Y118239D02*
D03*
X358844D02*
D03*
Y124739D02*
D03*
Y131239D02*
D03*
Y137739D02*
D03*
Y144239D02*
D03*
Y150739D02*
D03*
D24*
X337000Y134489D02*
D03*
D25*
X619000Y131000D02*
D03*
X467494Y890000D02*
D03*
D26*
X641133Y141000D02*
D03*
Y136000D02*
D03*
Y131000D02*
D03*
Y126000D02*
D03*
Y121000D02*
D03*
X596867D02*
D03*
Y126000D02*
D03*
Y131000D02*
D03*
Y136000D02*
D03*
Y141000D02*
D03*
X445360Y880000D02*
D03*
Y885000D02*
D03*
Y890000D02*
D03*
Y895000D02*
D03*
Y900000D02*
D03*
X489627D02*
D03*
Y895000D02*
D03*
Y890000D02*
D03*
Y885000D02*
D03*
Y880000D02*
D03*
D27*
X265500Y777500D02*
Y797000D01*
Y777500D02*
X272000Y771000D01*
X322500D01*
X294000Y625000D02*
X348500D01*
X289737Y629263D02*
X294000Y625000D01*
X289737Y629263D02*
Y658500D01*
X883500Y213000D02*
X916000D01*
X883500Y213000D02*
X883500Y213000D01*
X882500Y270000D02*
X882500Y270000D01*
X915808D01*
X799500Y553000D02*
X820000D01*
X798500Y616000D02*
X820000D01*
X729500Y583000D02*
Y614754D01*
X729500Y583000D02*
X729500Y583000D01*
X729500Y553000D02*
Y583000D01*
Y616000D02*
X729500Y616000D01*
X756500Y616000D02*
X771500D01*
X799500Y553000D02*
X799500Y553000D01*
X811500Y213000D02*
Y241500D01*
Y270000D01*
X1466042Y474845D02*
X1483205D01*
X1500730Y492370D01*
X405000Y489500D02*
Y508000D01*
X420500Y380024D02*
X423476Y383000D01*
X420500Y338976D02*
Y380024D01*
X423476Y383000D02*
X435033D01*
Y399500D01*
X462533Y405000D02*
X462686Y405153D01*
Y443500D01*
X486033Y425500D02*
X486065Y425468D01*
X504565D01*
X449033Y446476D02*
Y481024D01*
Y446476D02*
X452009Y443500D01*
X462686D01*
Y462500D02*
X479247D01*
X462686Y453000D02*
X485533D01*
X479247Y462500D02*
X484747Y468000D01*
X486033D01*
X485533Y453000D02*
X486033Y452500D01*
X486220Y452688D01*
X504720D01*
X449033Y481024D02*
X452009Y484000D01*
X462533D01*
X504565Y425468D02*
X505033Y425000D01*
X504720Y452688D02*
X505033Y453000D01*
X1399373Y78627D02*
X1409000Y69000D01*
X1453000Y309000D02*
X1453000Y309000D01*
X1470000D01*
X1453000Y284000D02*
Y309000D01*
X1410500Y284000D02*
X1435000D01*
X1435000Y284000D01*
X1410500Y309000D02*
X1435000D01*
X1410500Y309000D02*
X1410500Y309000D01*
X1369000Y286976D02*
Y338000D01*
X1321900Y348120D02*
X1358880D01*
X1369000Y338000D01*
Y286976D02*
X1371976Y284000D01*
X1383500D01*
Y309000D02*
Y350500D01*
X1322280Y373275D02*
X1360725D01*
X1383500Y350500D01*
X1322180Y577000D02*
X1389500D01*
X1321900Y576720D02*
X1322180Y577000D01*
X1386229Y79056D02*
X1386658Y78627D01*
X1363000Y106514D02*
X1363229Y106285D01*
X1428229Y95261D02*
Y96785D01*
X1431479Y93535D02*
X1450390D01*
X1465253D01*
X1428229Y96785D02*
X1431479Y93535D01*
X1322405Y474615D02*
X1413772D01*
X1363229Y79285D02*
X1386229D01*
X1386658Y78627D02*
X1399373D01*
X1363000Y106514D02*
Y122000D01*
X1465253Y93535D02*
X1468229Y90559D01*
Y82285D02*
Y90559D01*
Y82285D02*
X1470229Y80285D01*
X1470514Y107000D02*
X1514000D01*
X1520772Y100228D01*
Y88215D02*
Y100228D01*
X1470229Y107285D02*
X1470514Y107000D01*
X570750Y76250D02*
X570770Y76230D01*
X570500Y97000D02*
X570750Y96750D01*
Y76250D02*
Y96750D01*
X245587Y420000D02*
X248000Y417587D01*
X240000Y420000D02*
X245587D01*
X248000Y401000D02*
Y417587D01*
X517506Y926006D02*
Y948494D01*
X517500Y926000D02*
X517506Y926006D01*
X1390272Y423115D02*
X1412772D01*
X1390042Y423345D02*
X1390272Y423115D01*
X661368Y676750D02*
X663500D01*
X640000Y689250D02*
X655432D01*
X658408Y686274D01*
Y679710D02*
Y686274D01*
Y679710D02*
X661368Y676750D01*
X664500Y763250D02*
Y776750D01*
Y793250D01*
Y763250D02*
X667000Y760750D01*
X689500D01*
X640000Y666750D02*
Y689250D01*
X540500Y727750D02*
X541500Y728750D01*
Y743250D01*
X540500Y700750D02*
X562500D01*
Y783750D02*
X562750Y783500D01*
X562500Y700750D02*
X577000D01*
X562750Y783500D02*
X580250D01*
X580500Y783250D01*
X577000Y700750D02*
X584500Y693250D01*
X621500Y793250D02*
X622000Y792750D01*
X641500D01*
X758210Y464000D02*
Y486290D01*
X266000Y193000D02*
Y215000D01*
X1439772Y396115D02*
X1472672D01*
X1412772D02*
X1439772D01*
X179750Y595000D02*
Y614000D01*
Y549976D02*
Y595000D01*
X130000Y420000D02*
X160000D01*
X130000Y420000D02*
X130000Y420000D01*
X130500Y547000D02*
X160000D01*
X130000Y547500D02*
X130500Y547000D01*
X801000Y468500D02*
X822000D01*
X779000D02*
X801000D01*
X471994Y922000D02*
Y940000D01*
Y894500D02*
Y922000D01*
X614500Y99000D02*
Y126500D01*
Y78000D02*
Y99000D01*
X1413772Y444615D02*
Y474615D01*
X262737Y658500D02*
Y683000D01*
X238500Y797000D02*
Y822500D01*
X666500Y142000D02*
X668000Y143500D01*
X392600Y360900D02*
X393500Y360000D01*
X1412622Y473465D02*
X1413772Y474615D01*
X120000Y860000D02*
X245000D01*
X250000Y838524D02*
Y855000D01*
X245000Y860000D02*
X250000Y855000D01*
X238347Y841500D02*
X247024D01*
X250000Y838524D01*
Y825476D02*
Y838524D01*
X252976Y822500D02*
X265652D01*
X250000Y825476D02*
X252976Y822500D01*
X120000Y660000D02*
X175000D01*
X180000Y712024D02*
X182976Y715000D01*
X175000Y660000D02*
X180000Y665000D01*
X182976Y715000D02*
X272024D01*
X180000Y665000D02*
Y712024D01*
X272024Y715000D02*
X275000Y712024D01*
Y699024D02*
Y712024D01*
Y690000D02*
Y699024D01*
X262584Y702000D02*
X272024D01*
X275000Y699024D01*
Y690000D02*
X282000Y683000D01*
X289890D01*
X199261Y704000D02*
X219237D01*
X199237Y703976D02*
X199261Y704000D01*
X785000Y369000D02*
Y385500D01*
X777000Y360000D02*
X791000Y346000D01*
X757500Y487000D02*
X777000D01*
X757500Y464000D02*
X758210Y463290D01*
X765000Y385500D02*
X785000D01*
X761500Y360000D02*
X777000D01*
X678500Y467000D02*
Y487500D01*
Y445000D02*
Y467000D01*
X651000Y425000D02*
X651500Y425500D01*
Y445000D02*
Y467000D01*
Y425500D02*
Y445000D01*
X219000Y547000D02*
X240000D01*
X190000Y487000D02*
X199200Y496200D01*
X240000D01*
X200488Y614000D02*
X214250D01*
X199000Y612512D02*
X200488Y614000D01*
X266000Y257000D02*
Y295000D01*
Y257000D02*
X273000Y250000D01*
X235400Y357500D02*
X247000Y369100D01*
X246500Y330500D02*
X247000Y331000D01*
X163000Y357500D02*
X178500D01*
X190000Y369000D01*
X160000Y547000D02*
X176774D01*
X179750Y549976D01*
X199000Y526000D02*
Y612512D01*
Y526000D02*
X213000Y512000D01*
X214250Y551750D02*
X219000Y547000D01*
X214250Y551750D02*
Y595000D01*
X218000Y357500D02*
X235400D01*
X190000Y369000D02*
Y487000D01*
X218000Y357500D02*
Y443024D01*
X220976Y446000D01*
X239400D01*
X240000Y445400D01*
X213000Y512000D02*
X258000D01*
X393000Y193000D02*
Y215000D01*
X430440Y206000D02*
X449000D01*
X463000D01*
X427464Y208976D02*
X430440Y206000D01*
X427464Y208976D02*
Y215286D01*
X427000Y215750D02*
X427464Y215286D01*
X449000Y206000D02*
Y225750D01*
X395976Y261000D02*
X448536D01*
X393000Y263976D02*
Y295000D01*
X315800D02*
X316300Y295500D01*
X370476Y317000D02*
X405000D01*
X367500Y319976D02*
X370476Y317000D01*
X394500Y336000D02*
X417524D01*
X420500Y338976D01*
X289500Y463000D02*
Y484000D01*
X273000D02*
X289500D01*
X273000Y250000D02*
X426750D01*
X367500Y319976D02*
Y336000D01*
X367100Y337400D02*
Y360900D01*
X393000Y263976D02*
X395976Y261000D01*
X341700Y360900D02*
X342200Y360400D01*
X367100Y360900D02*
X392600D01*
X219976Y832000D02*
X238347D01*
X217000Y834976D02*
Y843500D01*
Y834976D02*
X219976Y832000D01*
X238347Y822500D02*
X238500D01*
X194000Y816500D02*
X217000D01*
X194000Y797500D02*
Y816500D01*
X193500Y797000D02*
X194000Y797500D01*
X176000Y797000D02*
X193500D01*
X220500D02*
X238500D01*
X174000Y843476D02*
X174024Y843500D01*
X194000D01*
X217000D01*
X288000Y796000D02*
Y815500D01*
X311000D01*
X202237Y658500D02*
X219737D01*
X241237Y695476D02*
X244213Y692500D01*
X219237Y704000D02*
X241237D01*
X246737Y658500D02*
X262737D01*
X310237D02*
Y676000D01*
X219237Y677000D02*
X241237D01*
X219737Y658500D02*
Y676500D01*
X219237Y677000D02*
X219737Y676500D01*
X241237Y695476D02*
Y704000D01*
X310237Y676000D02*
X332237D01*
X262584Y683000D02*
X262737D01*
X244213Y692500D02*
X262584D01*
X1439172Y444615D02*
X1439772Y444015D01*
Y423115D02*
X1442772D01*
X1445732Y420155D01*
X1439772Y423115D02*
Y444015D01*
X1445732Y417155D02*
Y420155D01*
Y417155D02*
X1453972Y408915D01*
X1472772D01*
X1497772Y403615D02*
Y437615D01*
X1472772Y396215D02*
X1490372D01*
X1497772Y403615D01*
X1472672Y396115D02*
X1472772Y396215D01*
X1439672Y475115D02*
X1465772D01*
X534391Y864603D02*
X535111D01*
X520494Y878500D02*
X534391Y864603D01*
X517494Y878500D02*
X520494D01*
X571000Y141500D02*
Y156345D01*
X1455000Y577000D02*
X1472000D01*
X1416500D02*
X1437000D01*
X386000Y99489D02*
Y116989D01*
X292500Y78989D02*
X293000Y78489D01*
X336500D01*
X292500Y78989D02*
Y99489D01*
X292000Y99989D02*
X292500Y99489D01*
X383024Y131239D02*
X386000Y128263D01*
X358844Y131239D02*
X383024D01*
X386000Y116989D02*
Y128263D01*
X336500Y78489D02*
Y99489D01*
X292000Y99989D02*
Y122989D01*
X386000Y116989D02*
X407000D01*
X381250Y145739D02*
X382750Y144239D01*
X384250D02*
X385750D01*
X382750D02*
X384250D01*
X570500Y97000D02*
Y114000D01*
X571000Y114500D01*
X668000Y143500D02*
Y160000D01*
X641500D02*
X668000D01*
X614500Y135500D02*
Y160000D01*
X468002Y890508D02*
X471994Y894500D01*
Y860000D02*
Y885500D01*
X467494Y890000D02*
X471994Y885500D01*
X421494Y860000D02*
X444994D01*
X421494D02*
Y879500D01*
X517494Y905500D02*
Y921500D01*
D28*
X524000Y714000D02*
X584250D01*
X435000Y625000D02*
X524000Y714000D01*
X375500Y625000D02*
X435000D01*
X560000Y740000D02*
X584250D01*
X529000Y771000D02*
X560000Y740000D01*
X456000Y771000D02*
X529000D01*
X349500D02*
X456000D01*
X757745Y553000D02*
X772500D01*
X772000Y553500D02*
Y572360D01*
Y593640D02*
Y615500D01*
X729500Y583000D02*
X776714D01*
X765500Y572360D02*
Y582500D01*
X776714Y583000D02*
X778500Y584785D01*
Y593640D01*
X811500Y241500D02*
X860464D01*
X849250Y231360D02*
Y239958D01*
X862250Y243285D02*
Y252640D01*
X860464Y241500D02*
X862250Y243285D01*
X838500Y270000D02*
X855500D01*
X855750Y269749D01*
Y252640D02*
Y269749D01*
Y213250D02*
Y231360D01*
X666750Y752000D02*
X842000D01*
X966480Y627520D02*
X1118700D01*
X842000Y752000D02*
X966480Y627520D01*
X489533Y405750D02*
X699790Y405750D01*
X704500Y720500D02*
X715000Y710000D01*
X614785Y720500D02*
X640750D01*
X704500D01*
X664500Y749750D02*
X666750Y752000D01*
X661500Y750750D02*
X664500D01*
X1386229Y106285D02*
X1389229D01*
X1393205Y102309D01*
Y101820D02*
Y102309D01*
Y101820D02*
X1394990Y100035D01*
X1406067D01*
X1363229Y106285D02*
X1363479Y106535D01*
X1406067D01*
X1466042Y501845D02*
Y520345D01*
X1466042Y501845D02*
X1466042Y501845D01*
X613000Y689250D02*
Y718715D01*
X640750Y707500D02*
X659750D01*
X663500Y703750D01*
X640750Y753000D02*
X641270D01*
X641500Y753230D01*
Y765750D01*
X640750Y746500D02*
X657250D01*
X661500Y750750D01*
X534250Y727000D02*
X541250D01*
X540500Y727750D02*
X541250Y727000D01*
X584250D01*
X562500Y756750D02*
X566250Y753000D01*
X584250D01*
Y733500D02*
X595714D01*
X597500Y735286D01*
Y765250D01*
X613000Y718715D02*
X614785Y720500D01*
X1388720Y576220D02*
X1389500Y577000D01*
X758210Y438250D02*
X779000D01*
X800750D01*
X295000Y149989D02*
X300750Y144239D01*
X315156D01*
X292000Y149989D02*
X295000D01*
X699790Y418750D02*
X711215D01*
X713000Y416965D01*
X699790Y425250D02*
X719250D01*
X713000Y401035D02*
Y416965D01*
X732250Y438250D02*
X758210D01*
X719250Y425250D02*
X732250Y438250D01*
X699790Y444750D02*
X711215D01*
X758210D02*
Y463290D01*
X699790Y431750D02*
X711215D01*
X713000Y433536D01*
Y464000D01*
X800750Y438250D02*
X801000Y438500D01*
X730500Y464000D02*
Y487000D01*
X713000Y464000D02*
X730500D01*
X757500Y487000D02*
X758210Y486290D01*
X761500Y382000D02*
X765000Y385500D01*
X680000Y411500D02*
X680750Y412250D01*
X699790D01*
X678500Y442226D02*
Y445000D01*
Y442226D02*
X682476Y438250D01*
X699790D01*
X711215Y399250D02*
X713000Y401035D01*
X683500Y385000D02*
X713000D01*
X680000Y388500D02*
X683500Y385000D01*
X680000Y384500D02*
X680500Y385000D01*
X699790Y399250D02*
X711215D01*
X713000Y385000D02*
Y401035D01*
X319500Y99489D02*
Y102360D01*
X310192Y108121D02*
X311977Y106336D01*
X315524D02*
X319500Y102360D01*
X311977Y106336D02*
X315524D01*
X310192Y108121D02*
Y117608D01*
X310823Y118239D02*
X315156D01*
X310192Y117608D02*
X310823Y118239D01*
X363500Y78489D02*
Y99489D01*
X374000Y101274D02*
Y121489D01*
X363500Y99489D02*
X372214D01*
X374000Y101274D01*
X370750Y124739D02*
X374000Y121489D01*
X358844Y124739D02*
X370750D01*
X292000Y149989D02*
X292750Y150739D01*
X315156D01*
X329761Y124739D02*
X337000Y131978D01*
X315156Y124739D02*
X329761D01*
Y144239D02*
Y147728D01*
Y144239D02*
X337000Y137000D01*
X315156Y144239D02*
X329761D01*
X326750Y150739D02*
X329761Y147728D01*
X315156Y150739D02*
X326750D01*
D29*
X789495Y250250D02*
X797000Y242745D01*
X831359Y252640D02*
X849250D01*
X508505Y287504D02*
X822495D01*
X862250Y231360D02*
X866390D01*
X736000Y632000D02*
X743000Y625000D01*
X723000Y632000D02*
X736000D01*
X702000Y611000D02*
X723000Y632000D01*
X787000Y537250D02*
Y559000D01*
X778500Y572360D02*
X779004Y571856D01*
Y567088D02*
Y571856D01*
Y567088D02*
X780540Y565552D01*
Y565460D02*
Y565552D01*
Y565460D02*
X787000Y559000D01*
X764996Y594514D02*
Y599021D01*
X763508Y600509D02*
X764996Y599021D01*
X747000Y600509D02*
X763508D01*
X743000Y604509D02*
Y625000D01*
Y604509D02*
X747000Y600509D01*
X869000Y200000D02*
Y228750D01*
X864000Y195000D02*
X869000Y200000D01*
X828000Y256000D02*
X831359Y252640D01*
X866390Y231360D02*
X869000Y228750D01*
X803000Y195000D02*
X864000D01*
X855500Y213500D02*
X856000Y213000D01*
X825000Y259000D02*
Y285000D01*
X822495Y287504D02*
X825000Y285000D01*
X797000Y201000D02*
Y242745D01*
Y201000D02*
X803000Y195000D01*
X825000Y259000D02*
X828000Y256000D01*
X838500Y213000D02*
X855500D01*
X778750Y529000D02*
X787000Y537250D01*
X275000Y529000D02*
X778750D01*
X791000Y346000D02*
X810000D01*
X824000Y360000D02*
X1284620D01*
X810000Y346000D02*
X824000Y360000D01*
X930680Y551320D02*
X1118700D01*
X795680Y686320D02*
X930680Y551320D01*
X721320Y686320D02*
X795680D01*
X689500Y733750D02*
X802250D01*
X959280Y576720D02*
X1118700D01*
X802250Y733750D02*
X959280Y576720D01*
X680250Y745000D02*
X821000D01*
X950000Y616000D02*
X1245000D01*
X821000Y745000D02*
X950000Y616000D01*
X842000Y437000D02*
X1132000D01*
X1139000Y444000D02*
Y471000D01*
X1132000Y437000D02*
X1139000Y444000D01*
X1118700Y475120D02*
X1134880D01*
X1139000Y471000D01*
X773658Y418750D02*
X779906Y425000D01*
X830000D02*
X842000Y437000D01*
X779906Y425000D02*
X830000D01*
X758210Y418750D02*
X773658D01*
X770758Y425758D02*
X775000Y430000D01*
X758718Y425758D02*
X770758D01*
X775000Y430000D02*
X817280D01*
X758210Y425250D02*
X758718Y425758D01*
X817280Y430000D02*
X837000Y449720D01*
X481250Y260250D02*
X508505Y287504D01*
X427000Y250250D02*
X789495D01*
X552000Y49000D02*
X984000Y49000D01*
X293000Y49000D02*
X552000Y49000D01*
Y119000D01*
X564000Y131000D01*
X596867D01*
X275000Y67000D02*
X293000Y49000D01*
X727500Y336000D02*
X1283220D01*
X1173000Y387000D02*
X1235720Y449720D01*
X813000Y387000D02*
X1173000D01*
X1147500Y412500D02*
X1148000Y412000D01*
X785000Y412500D02*
X1147500D01*
X837000Y449720D02*
X926396D01*
X258000Y512000D02*
X275000Y529000D01*
X481000Y611000D02*
X702000D01*
X807750Y648250D02*
X926396Y529604D01*
Y449720D02*
X1118700D01*
X926396D02*
Y529604D01*
X995000Y60000D02*
Y312000D01*
X984000Y49000D02*
X995000Y60000D01*
Y312000D02*
X1004000Y321000D01*
X1116980D01*
X1161000Y425000D02*
Y490000D01*
X1118700Y500520D02*
X1150480D01*
X1161000Y490000D01*
X1235720Y449720D02*
X1321900D01*
X1255000Y451208D02*
Y606000D01*
X798000Y402000D02*
X813000Y387000D01*
X772000Y402000D02*
X798000D01*
X1284620Y360000D02*
X1321900Y322720D01*
X726000Y337500D02*
X727500Y336000D01*
X1283220D02*
X1321900Y297320D01*
X607500Y648250D02*
X807750D01*
X1245000Y616000D02*
X1255000Y606000D01*
X666750Y725000D02*
X784000D01*
X946000Y563000D01*
X1286000Y506000D02*
X1291480Y500520D01*
X1321900D01*
X1286000Y506000D02*
Y707000D01*
X1135000Y858000D02*
X1286000Y707000D01*
X596000Y858000D02*
X1135000D01*
X1116980Y321000D02*
X1118700Y322720D01*
X1148000Y412000D02*
X1161000Y425000D01*
X1319620Y452000D02*
X1321900Y449720D01*
X1431000Y68000D02*
X1431053Y67947D01*
X1447415D01*
X1450390Y70923D01*
Y87035D01*
X768250Y405750D02*
X772000Y402000D01*
X758210Y405750D02*
X768250D01*
X664750Y727000D02*
X666750Y725000D01*
X640750Y727000D02*
X664750D01*
X641000Y713750D02*
X678890D01*
X706320Y686320D01*
X721320D01*
X602500Y653250D02*
Y706012D01*
Y653250D02*
X607500Y648250D01*
X601012Y707500D02*
X602500Y706012D01*
X584250Y707500D02*
X601012D01*
X640750Y714000D02*
X641000Y713750D01*
X675250Y740000D02*
X680250Y745000D01*
X640750Y740000D02*
X675250D01*
X640750Y733500D02*
X689250D01*
X689500Y733750D01*
X574000Y145500D02*
X578500Y141000D01*
X736500Y357000D02*
Y360000D01*
X564000Y890000D02*
X596000Y858000D01*
X489627Y890000D02*
X564000D01*
X275000Y67000D02*
Y131000D01*
X281739Y137739D02*
X315156D01*
X275000Y131000D02*
X281739Y137739D01*
X726000Y337500D02*
Y420000D01*
X737750Y431750D01*
X758210D01*
X449000Y260250D02*
X481250D01*
X240000Y547000D02*
X456000D01*
X468000Y559000D01*
Y598000D01*
X481000Y611000D01*
X736250Y399250D02*
X758210D01*
Y412250D02*
X784750D01*
X785000Y412500D01*
X734500Y382000D02*
Y397500D01*
X736250Y399250D01*
X734500Y360000D02*
Y382000D01*
X426750Y250000D02*
X427000Y250250D01*
X501006Y900000D02*
X502494Y901488D01*
Y920512D01*
X489994Y922000D02*
X501006D01*
X489627Y900000D02*
X501006D01*
Y922000D02*
X502494Y920512D01*
X570886Y156458D02*
X571000Y156345D01*
X667000Y114500D02*
Y127000D01*
X663000Y131000D02*
X667000Y127000D01*
X641133Y131000D02*
X663000D01*
X641133Y126000D02*
X650000D01*
X652000Y124000D01*
Y100488D02*
Y124000D01*
X628108Y121000D02*
X641133D01*
X626620Y122364D02*
X626744D01*
X628108Y121000D01*
X619000Y129984D02*
X626620Y122364D01*
X619000Y131000D02*
X641133D01*
X641500Y78000D02*
Y99000D01*
X650512D01*
X652000Y100488D01*
X578112Y136000D02*
X596867D01*
X572612Y141500D02*
X578112Y136000D01*
X587000Y97000D02*
X597500D01*
X585000Y99000D02*
X587000Y97000D01*
X585000Y99000D02*
Y119512D01*
X578500Y141000D02*
X596867D01*
X585000Y119512D02*
X586488Y121000D01*
X596867D01*
X664000Y142000D02*
X666500D01*
X641133Y141000D02*
X664000D01*
X659500Y136000D02*
X664000Y140500D01*
X641133Y136000D02*
X659500D01*
X445360Y900000D02*
X458510D01*
X467494Y891016D01*
X445360Y890000D02*
X467494D01*
X435494Y920512D02*
X436982Y922000D01*
X444994D01*
X435494Y896488D02*
Y920512D01*
X444994Y922000D02*
Y943000D01*
X436982Y895000D02*
X445360D01*
X435494Y896488D02*
X436982Y895000D01*
X421994Y880000D02*
X424994D01*
X445360D01*
X424994D02*
X429994Y885000D01*
X445360D01*
X422982Y890000D02*
X445360D01*
X421494Y891488D02*
Y906500D01*
Y891488D02*
X422982Y890000D01*
X489627Y880000D02*
X512994D01*
X515994D01*
X510264Y882730D02*
X512994Y880000D01*
X514494Y878500D01*
X508776Y885000D02*
X510264Y883512D01*
Y882730D02*
Y883512D01*
X489627Y885000D02*
X508776D01*
D30*
X369000Y462500D02*
X435380D01*
X435381Y462500D01*
X395500Y426500D02*
X435033D01*
X289890Y702000D02*
X331237D01*
X265652Y841500D02*
X310000D01*
X316300Y437100D02*
Y483800D01*
X435033Y426500D02*
Y443153D01*
X435381Y443500D01*
Y462500D02*
X435533Y462653D01*
Y484000D01*
X1418479Y87035D02*
X1428229Y96785D01*
X1421117Y88149D02*
X1428229Y95261D01*
X1406067Y87035D02*
X1418479D01*
X1450390Y106535D02*
X1469479D01*
X1470229Y107285D01*
X316500Y484000D02*
X316750Y484250D01*
X316300Y483800D02*
X316500Y484000D01*
X368500Y463000D02*
X369000Y462500D01*
X311000Y842500D02*
Y858476D01*
X310000Y841500D02*
X311000Y842500D01*
X331237Y702000D02*
X332237Y703000D01*
Y718976D01*
X407000Y143989D02*
Y159828D01*
X379659Y147330D02*
X381250Y145739D01*
X385750Y144239D02*
X386000Y143989D01*
X384250Y145739D02*
X385750Y144239D01*
X386000Y143989D02*
X407000D01*
X377129Y150739D02*
X379659Y148209D01*
X358844Y150739D02*
X377129D01*
X379659Y147330D02*
Y148209D01*
X381250Y145739D02*
X384250D01*
Y144239D02*
X384500Y143989D01*
X386000D01*
X383000D02*
X384500D01*
X363614Y137739D02*
X377129D01*
X379659Y140268D02*
Y140648D01*
X377129Y137739D02*
X379659Y140268D01*
Y140648D02*
X383000Y143989D01*
X358844Y144239D02*
X382750D01*
D31*
X163000Y330500D02*
X218000D01*
X120500D02*
X163000D01*
X120000Y330000D02*
X120500Y330500D01*
X269000Y422464D02*
Y466336D01*
Y422464D02*
X273464Y418000D01*
X218000Y330500D02*
X246500D01*
X247000Y331000D02*
X316300D01*
X240000Y470800D02*
X264536D01*
X269000Y466336D01*
X316300Y295500D02*
Y331000D01*
X341700Y437100D02*
Y462800D01*
X341500Y463000D02*
X341700Y462800D01*
X342200Y295000D02*
Y360400D01*
X316300Y331000D02*
Y360900D01*
X337000Y418000D02*
X341700Y422700D01*
Y437100D01*
X273464Y418000D02*
X337000D01*
D32*
X1500730Y465470D02*
D03*
Y492370D02*
D03*
D33*
Y519270D02*
D03*
D34*
X1118700Y627520D02*
D03*
Y602120D02*
D03*
Y576720D02*
D03*
Y551320D02*
D03*
Y525920D02*
D03*
Y500520D02*
D03*
Y475120D02*
D03*
Y449720D02*
D03*
Y424320D02*
D03*
X1119080Y398678D02*
D03*
Y373494D02*
D03*
Y347875D02*
D03*
X1118700Y322720D02*
D03*
Y297320D02*
D03*
X1321900Y627520D02*
D03*
Y602120D02*
D03*
Y576720D02*
D03*
Y551320D02*
D03*
Y525920D02*
D03*
Y500520D02*
D03*
Y475120D02*
D03*
Y449720D02*
D03*
X1322280Y424078D02*
D03*
Y398894D02*
D03*
Y373275D02*
D03*
X1321900Y348120D02*
D03*
Y322720D02*
D03*
D35*
Y297320D02*
D03*
D36*
X1520772Y88215D02*
D03*
X120000Y305000D02*
D03*
Y635000D02*
D03*
Y835000D02*
D03*
X1439172Y444615D02*
D03*
Y474615D02*
D03*
X506600Y74000D02*
D03*
X481200D02*
D03*
X455800D02*
D03*
X1479000Y827000D02*
D03*
X595000Y896600D02*
D03*
D37*
X1546172Y88215D02*
D03*
X120000Y330000D02*
D03*
Y660000D02*
D03*
Y860000D02*
D03*
X1413772Y444615D02*
D03*
Y474615D02*
D03*
X532000Y74000D02*
D03*
X1479000Y802000D02*
D03*
D38*
X1414270Y222730D02*
D03*
Y182730D02*
D03*
X435000Y800000D02*
D03*
X475000D02*
D03*
X689270Y223270D02*
D03*
Y183270D02*
D03*
X174730Y150270D02*
D03*
Y190270D02*
D03*
D39*
X69000Y381000D02*
D03*
Y279000D02*
D03*
Y609000D02*
D03*
Y711000D02*
D03*
Y809000D02*
D03*
Y911000D02*
D03*
X1530000Y751000D02*
D03*
Y853000D02*
D03*
D40*
X190000Y369000D02*
D03*
D41*
Y330900D02*
D03*
D42*
X247000Y369100D02*
D03*
D43*
Y331000D02*
D03*
D44*
X290900Y360900D02*
D03*
D45*
X316300D02*
D03*
X341700D02*
D03*
X367100D02*
D03*
X290900Y437100D02*
D03*
X316300D02*
D03*
X341700D02*
D03*
X367100D02*
D03*
D46*
X1472772Y421615D02*
D03*
D47*
Y408915D02*
D03*
Y396215D02*
D03*
D48*
X595000Y922000D02*
D03*
D49*
X916000Y213000D02*
D03*
X915808Y270000D02*
D03*
X729500Y583000D02*
D03*
X820000Y616000D02*
D03*
Y553000D02*
D03*
X405000Y508000D02*
D03*
X1470000Y309000D02*
D03*
X946000Y563000D02*
D03*
X1466042Y520345D02*
D03*
X1550000Y980000D02*
D03*
X40000D02*
D03*
X800000D02*
D03*
Y20000D02*
D03*
X40000D02*
D03*
X1550000D02*
D03*
D50*
X811500Y241500D02*
D03*
X395500Y426500D02*
D03*
X435033Y383000D02*
D03*
X505033Y425000D02*
D03*
Y453000D02*
D03*
X486033Y468000D02*
D03*
X790000Y310000D02*
D03*
X1409000Y69000D02*
D03*
X1363000Y122000D02*
D03*
X1431000Y68000D02*
D03*
X1428229Y96785D02*
D03*
X570770Y76230D02*
D03*
X248000Y401000D02*
D03*
X517506Y948494D02*
D03*
X1390042Y423345D02*
D03*
X715000Y710000D02*
D03*
X721320Y686320D02*
D03*
X584500Y693250D02*
D03*
X541500Y743250D02*
D03*
X597500Y765250D02*
D03*
X580500Y783250D02*
D03*
X664500Y793250D02*
D03*
X621500D02*
D03*
X640000Y666750D02*
D03*
X665000Y630000D02*
D03*
X130000Y547500D02*
D03*
Y420000D02*
D03*
X199237Y703976D02*
D03*
X822000Y468500D02*
D03*
X777000Y487000D02*
D03*
X785000Y369000D02*
D03*
X713000Y385000D02*
D03*
Y464000D02*
D03*
X791000Y346000D02*
D03*
X678500Y487500D02*
D03*
X651000Y425000D02*
D03*
X266000Y193000D02*
D03*
X393000D02*
D03*
X463000Y206000D02*
D03*
X405000Y317000D02*
D03*
X258000Y512000D02*
D03*
X273000Y484000D02*
D03*
X174000Y843476D02*
D03*
X176000Y797000D02*
D03*
X311000Y858476D02*
D03*
X288000Y796000D02*
D03*
X332237Y718976D02*
D03*
X310237Y658500D02*
D03*
X202237D02*
D03*
X1497042Y436345D02*
D03*
X535111Y864603D02*
D03*
X570886Y156458D02*
D03*
X407000Y159828D02*
D03*
X1472000Y577000D02*
D03*
X386000Y99489D02*
D03*
X292500Y78989D02*
D03*
X337000Y134489D02*
D03*
X619000Y131000D02*
D03*
X668000Y160000D02*
D03*
X467494Y890000D02*
D03*
X421494Y860000D02*
D03*
%TF.MD5,d0b9f0f13093bf5db1c7aaed62c17a89*%
M02*
