G04*
G04 #@! TF.GenerationSoftware,Altium Limited,Altium Designer,22.5.1 (42)*
G04*
G04 Layer_Color=8388736*
%FSLAX44Y44*%
%MOMM*%
G71*
G04*
G04 #@! TF.SameCoordinates,40384B85-564C-47B5-BA78-C0A8BA91D8EB*
G04*
G04*
G04 #@! TF.FilePolarity,Negative*
G04*
G01*
G75*
%ADD12C,0.1524*%
%ADD15C,0.2540*%
%ADD20R,1.4612X0.3508*%
%ADD22R,1.4986X0.8128*%
%ADD23R,1.3561X0.5580*%
%ADD24R,1.4732X0.3556*%
%ADD25R,0.2540X0.6096*%
%ADD26R,0.9906X2.2098*%
%ADD27R,0.6008X1.1112*%
%ADD28R,1.1112X0.6008*%
%ADD29R,2.2098X0.9906*%
%ADD30R,0.9779X0.5080*%
%ADD31R,1.2954X0.5588*%
%ADD33R,1.3858X0.4310*%
%ADD34R,1.7780X1.9812*%
%ADD35R,1.3279X0.2794*%
%ADD36R,1.3335X0.4318*%
%ADD37R,1.8542X2.1590*%
%ADD39R,160.0000X3.0000*%
%ADD40R,1.9032X1.3032*%
%ADD41R,1.3032X1.9032*%
%ADD42R,1.4032X1.6032*%
%ADD43R,1.7526X2.9464*%
%ADD44C,3.5032*%
%ADD45C,1.7032*%
%ADD46R,1.7032X1.7032*%
%ADD47C,1.8032*%
%ADD48R,1.8032X1.8032*%
%ADD49R,1.2700X1.2700*%
%ADD50C,1.2700*%
%ADD51C,1.1430*%
%ADD52R,1.1430X1.1430*%
%ADD53R,1.7032X1.7032*%
%ADD54C,1.7032*%
%ADD55R,1.2700X1.1684*%
%ADD56O,1.2700X1.1684*%
%ADD57R,1.7032X1.7032*%
%ADD58C,1.4032*%
%ADD59C,1.4732*%
G36*
X1600000Y970000D02*
X0D01*
Y1000000D01*
X1600000D01*
Y970000D01*
D02*
G37*
G36*
X862000Y176500D02*
X842000D01*
Y191000D01*
X862000D01*
Y176500D01*
D02*
G37*
G36*
X779000D02*
X759000D01*
Y191000D01*
X779000D01*
Y176500D01*
D02*
G37*
G36*
X862000Y39000D02*
X842000D01*
Y53500D01*
X862000D01*
Y39000D01*
D02*
G37*
G36*
X779000D02*
X759000D01*
Y53500D01*
X779000D01*
Y39000D01*
D02*
G37*
D12*
X-109298Y1011524D02*
X-111837Y1014063D01*
Y1019141D01*
X-109298Y1021681D01*
X-106759D01*
X-104220Y1019141D01*
Y1016602D01*
Y1019141D01*
X-101681Y1021681D01*
X-99142D01*
X-96602Y1019141D01*
Y1014063D01*
X-99142Y1011524D01*
X-94063Y1029298D02*
X-96602Y1031837D01*
X-99142D01*
Y1029298D01*
X-96602D01*
Y1031837D01*
X-94063Y1029298D01*
X-91524Y1026759D01*
X-109298Y1041994D02*
X-111837Y1044533D01*
Y1049612D01*
X-109298Y1052151D01*
X-99142D01*
X-96602Y1049612D01*
Y1044533D01*
X-99142Y1041994D01*
X-109298D01*
Y36524D02*
X-111837Y39063D01*
Y44142D01*
X-109298Y46681D01*
X-106759D01*
X-104220Y44142D01*
Y41602D01*
Y44142D01*
X-101681Y46681D01*
X-99142D01*
X-96602Y44142D01*
Y39063D01*
X-99142Y36524D01*
X-94063Y54298D02*
X-96602Y56837D01*
X-99142D01*
Y54298D01*
X-96602D01*
Y56837D01*
X-94063Y54298D01*
X-91524Y51759D01*
X-109298Y66994D02*
X-111837Y69533D01*
Y74612D01*
X-109298Y77151D01*
X-99142D01*
X-96602Y74612D01*
Y69533D01*
X-99142Y66994D01*
X-109298D01*
X761657Y-343398D02*
X766735D01*
X764196D01*
Y-328163D01*
X761657Y-330702D01*
X784510Y-328163D02*
X779431Y-330702D01*
X774353Y-335780D01*
Y-340858D01*
X776892Y-343398D01*
X781971D01*
X784510Y-340858D01*
Y-338319D01*
X781971Y-335780D01*
X774353D01*
X789588Y-330702D02*
X792127Y-328163D01*
X797206D01*
X799745Y-330702D01*
Y-340858D01*
X797206Y-343398D01*
X792127D01*
X789588Y-340858D01*
Y-330702D01*
X807362Y-345937D02*
X809902Y-343398D01*
Y-340858D01*
X807362D01*
Y-343398D01*
X809902D01*
X807362Y-345937D01*
X804823Y-348476D01*
X820058Y-330702D02*
X822597Y-328163D01*
X827676D01*
X830215Y-330702D01*
Y-340858D01*
X827676Y-343398D01*
X822597D01*
X820058Y-340858D01*
Y-330702D01*
X-331969Y461657D02*
Y466735D01*
Y464196D01*
X-347204D01*
X-344665Y461657D01*
Y474353D02*
X-347204Y476892D01*
Y481970D01*
X-344665Y484510D01*
X-334509D01*
X-331969Y481970D01*
Y476892D01*
X-334509Y474353D01*
X-344665D01*
Y489588D02*
X-347204Y492127D01*
Y497206D01*
X-344665Y499745D01*
X-334509D01*
X-331969Y497206D01*
Y492127D01*
X-334509Y489588D01*
X-344665D01*
X-329430Y507362D02*
X-331969Y509902D01*
X-334509D01*
Y507362D01*
X-331969D01*
Y509902D01*
X-329430Y507362D01*
X-326891Y504823D01*
X-344665Y520058D02*
X-347204Y522597D01*
Y527676D01*
X-344665Y530215D01*
X-334509D01*
X-331969Y527676D01*
Y522597D01*
X-334509Y520058D01*
X-344665D01*
D15*
X-0Y1000000D02*
X1600000D01*
X-0D02*
X0Y-0D01*
X1600000Y0D02*
Y1000000D01*
X1600000Y-0D02*
X1600000Y0D01*
X0Y-0D02*
X1600000D01*
X-100000Y1000000D02*
X-94920Y984760D01*
X-105080D02*
X-100000Y1000000D01*
X-105080Y985240D02*
X-100000Y970000D01*
X-94920Y985240D01*
X-100000Y985000D02*
Y1000000D01*
Y970000D02*
Y985000D01*
X-102540Y1000000D02*
X0D01*
X-102540Y970000D02*
X0D01*
X-110080Y15240D02*
X-105000Y0D01*
X-99920Y15240D01*
X-105000Y30000D02*
X-99920Y14760D01*
X-110080D02*
X-105000Y30000D01*
Y0D02*
Y15000D01*
Y30000D01*
X-107540Y0D02*
X-2540D01*
X-107540Y30000D02*
X0D01*
Y-331717D02*
X15240Y-326637D01*
X0Y-331717D02*
X15240Y-336797D01*
X1584760D02*
X1600000Y-331717D01*
X1584760Y-326637D02*
X1600000Y-331717D01*
X0D02*
X757593D01*
X834279D02*
X1600000D01*
X0Y-334257D02*
Y-2540D01*
X1600000Y-334257D02*
Y-2540D01*
X-348730Y15240D02*
X-343650Y0D01*
X-338570Y15240D01*
X-343650Y1000000D02*
X-338570Y984760D01*
X-348730D02*
X-343650Y1000000D01*
Y0D02*
Y457593D01*
Y534279D02*
Y1000000D01*
X-346190Y0D02*
X-2540D01*
X-346190Y1000000D02*
X-2540D01*
D20*
X640750Y753000D02*
D03*
Y746500D02*
D03*
Y740000D02*
D03*
Y733500D02*
D03*
Y727000D02*
D03*
Y720500D02*
D03*
Y714000D02*
D03*
Y707500D02*
D03*
X584250D02*
D03*
Y714000D02*
D03*
Y720500D02*
D03*
Y727000D02*
D03*
Y733500D02*
D03*
Y740000D02*
D03*
Y746500D02*
D03*
Y753000D02*
D03*
D22*
X795017Y82950D02*
D03*
Y93950D02*
D03*
Y104950D02*
D03*
Y115950D02*
D03*
Y126950D02*
D03*
Y137950D02*
D03*
Y148950D02*
D03*
Y159950D02*
D03*
D23*
X1332780Y360550D02*
D03*
Y347850D02*
D03*
Y335150D02*
D03*
Y322450D02*
D03*
X1386220D02*
D03*
Y335150D02*
D03*
Y347850D02*
D03*
Y360550D02*
D03*
X1387719Y245550D02*
D03*
Y232850D02*
D03*
Y220150D02*
D03*
Y207450D02*
D03*
X1334281D02*
D03*
Y220150D02*
D03*
Y232850D02*
D03*
Y245550D02*
D03*
X1385720Y481550D02*
D03*
Y468850D02*
D03*
Y456150D02*
D03*
Y443450D02*
D03*
X1332281D02*
D03*
Y456150D02*
D03*
Y468850D02*
D03*
Y481550D02*
D03*
D24*
X672210Y444750D02*
D03*
Y438250D02*
D03*
Y431750D02*
D03*
Y425250D02*
D03*
Y418750D02*
D03*
Y412250D02*
D03*
Y405750D02*
D03*
Y399250D02*
D03*
X613790D02*
D03*
Y405750D02*
D03*
Y412250D02*
D03*
Y418750D02*
D03*
Y425250D02*
D03*
Y431750D02*
D03*
Y438250D02*
D03*
Y444750D02*
D03*
D25*
X540000Y559491D02*
D03*
X535000D02*
D03*
X530000D02*
D03*
Y576509D02*
D03*
X535000D02*
D03*
X540000D02*
D03*
X609000Y228746D02*
D03*
X604000D02*
D03*
X599000D02*
D03*
Y245764D02*
D03*
X604000D02*
D03*
X609000D02*
D03*
D26*
X266000Y295000D02*
D03*
X316800D02*
D03*
X342200D02*
D03*
X367600D02*
D03*
X393000D02*
D03*
Y215000D02*
D03*
X367600D02*
D03*
X342200D02*
D03*
X316800D02*
D03*
X266000D02*
D03*
D27*
X427000Y250250D02*
D03*
Y215750D02*
D03*
X449000Y260250D02*
D03*
Y225750D02*
D03*
D28*
X214250Y614000D02*
D03*
X179750D02*
D03*
X214250Y595000D02*
D03*
X179750D02*
D03*
D29*
X240000Y547000D02*
D03*
Y496200D02*
D03*
Y470800D02*
D03*
Y445400D02*
D03*
Y420000D02*
D03*
X160000D02*
D03*
Y445400D02*
D03*
Y470800D02*
D03*
Y496200D02*
D03*
Y547000D02*
D03*
D30*
X407348Y443500D02*
D03*
Y462500D02*
D03*
X434653D02*
D03*
Y453000D02*
D03*
Y443500D02*
D03*
X238347Y841500D02*
D03*
Y832000D02*
D03*
Y822500D02*
D03*
X265652D02*
D03*
Y841500D02*
D03*
X289890Y702000D02*
D03*
Y683000D02*
D03*
X262584D02*
D03*
Y692500D02*
D03*
Y702000D02*
D03*
D31*
X1227443Y611770D02*
D03*
Y592770D02*
D03*
X1248017Y602270D02*
D03*
D33*
X93156Y161739D02*
D03*
Y155239D02*
D03*
Y148739D02*
D03*
Y142239D02*
D03*
Y135739D02*
D03*
Y129239D02*
D03*
X136844D02*
D03*
Y135739D02*
D03*
Y142239D02*
D03*
Y148739D02*
D03*
Y155239D02*
D03*
Y161739D02*
D03*
D34*
X332230Y125770D02*
D03*
X467494Y890000D02*
D03*
D35*
X354363Y135770D02*
D03*
Y130770D02*
D03*
Y125770D02*
D03*
Y120770D02*
D03*
Y115770D02*
D03*
X310097D02*
D03*
Y120770D02*
D03*
Y125770D02*
D03*
Y130770D02*
D03*
Y135770D02*
D03*
X445360Y880000D02*
D03*
Y885000D02*
D03*
Y890000D02*
D03*
Y895000D02*
D03*
Y900000D02*
D03*
X489627D02*
D03*
Y895000D02*
D03*
Y890000D02*
D03*
Y885000D02*
D03*
Y880000D02*
D03*
D36*
X1098067Y79535D02*
D03*
Y73035D02*
D03*
Y66535D02*
D03*
Y60035D02*
D03*
X1142390D02*
D03*
Y66535D02*
D03*
Y73035D02*
D03*
Y79535D02*
D03*
X1379555Y606181D02*
D03*
Y599681D02*
D03*
Y593181D02*
D03*
Y586681D02*
D03*
X1423878D02*
D03*
Y593181D02*
D03*
Y599681D02*
D03*
Y606181D02*
D03*
D37*
X1120229Y69785D02*
D03*
X1401716Y596431D02*
D03*
D39*
X800000Y15000D02*
D03*
D40*
X540500Y727750D02*
D03*
Y700750D02*
D03*
X562500Y727750D02*
D03*
Y700750D02*
D03*
Y756750D02*
D03*
Y783750D02*
D03*
X641500Y792750D02*
D03*
Y765750D02*
D03*
X663500Y676750D02*
D03*
Y703750D02*
D03*
X664500Y749750D02*
D03*
Y776750D02*
D03*
X689500Y733750D02*
D03*
Y760750D02*
D03*
X928000Y61500D02*
D03*
Y88500D02*
D03*
X906000Y72500D02*
D03*
Y99500D02*
D03*
Y142500D02*
D03*
Y115500D02*
D03*
X929000Y142500D02*
D03*
Y115500D02*
D03*
X727000Y59500D02*
D03*
Y86500D02*
D03*
X1311500Y360000D02*
D03*
Y387000D02*
D03*
Y335000D02*
D03*
Y308000D02*
D03*
X715000Y468500D02*
D03*
Y441500D02*
D03*
X693000Y468500D02*
D03*
Y441500D02*
D03*
X594000Y388500D02*
D03*
Y415500D02*
D03*
X699000Y385500D02*
D03*
Y412500D02*
D03*
X163000Y330500D02*
D03*
Y357500D02*
D03*
X218000Y330500D02*
D03*
Y357500D02*
D03*
X407000Y399500D02*
D03*
Y426500D02*
D03*
X458000Y425500D02*
D03*
Y452500D02*
D03*
X311000Y842500D02*
D03*
Y815500D02*
D03*
X288000Y842500D02*
D03*
Y815500D02*
D03*
X217000Y843500D02*
D03*
Y816500D02*
D03*
X194000Y843500D02*
D03*
Y816500D02*
D03*
X1311000Y273000D02*
D03*
Y246000D02*
D03*
Y193000D02*
D03*
Y220000D02*
D03*
X1309000Y429000D02*
D03*
Y456000D02*
D03*
X1310000Y508000D02*
D03*
Y481000D02*
D03*
X219237Y677000D02*
D03*
Y704000D02*
D03*
X241237Y677000D02*
D03*
Y704000D02*
D03*
X332237Y676000D02*
D03*
Y703000D02*
D03*
X310237Y676000D02*
D03*
Y703000D02*
D03*
X1152730Y532770D02*
D03*
Y559770D02*
D03*
X1206000Y611500D02*
D03*
Y638500D02*
D03*
X1179730Y559770D02*
D03*
Y532770D02*
D03*
X164000Y154989D02*
D03*
Y127989D02*
D03*
X185000Y154989D02*
D03*
Y127989D02*
D03*
X70000Y160989D02*
D03*
Y133989D02*
D03*
X380230Y109270D02*
D03*
Y136270D02*
D03*
X284230Y109270D02*
D03*
Y136270D02*
D03*
X517494Y905500D02*
D03*
Y878500D02*
D03*
X421494Y906500D02*
D03*
Y879500D02*
D03*
X1443716Y579932D02*
D03*
Y606931D02*
D03*
X1359716Y578931D02*
D03*
Y605932D02*
D03*
X1337716Y578931D02*
D03*
Y605932D02*
D03*
X1162229Y53285D02*
D03*
Y80285D02*
D03*
X1055229Y52285D02*
D03*
Y79285D02*
D03*
X1078229Y52285D02*
D03*
Y79285D02*
D03*
D41*
X613000Y689250D02*
D03*
X640000D02*
D03*
X931500Y187000D02*
D03*
X958500D02*
D03*
X1412000Y344500D02*
D03*
X1439000D02*
D03*
X1406000Y387500D02*
D03*
X1433000D02*
D03*
X1406000Y365500D02*
D03*
X1433000D02*
D03*
X644500Y464000D02*
D03*
X671500D02*
D03*
X644500Y487000D02*
D03*
X671500D02*
D03*
X565500Y467000D02*
D03*
X592500D02*
D03*
X565500Y445000D02*
D03*
X592500D02*
D03*
X675500Y382000D02*
D03*
X648500D02*
D03*
X675500Y360000D02*
D03*
X648500D02*
D03*
X492500Y597000D02*
D03*
X519500D02*
D03*
X562500D02*
D03*
X535500D02*
D03*
X492500Y540000D02*
D03*
X519500D02*
D03*
X562500D02*
D03*
X535500D02*
D03*
X394500Y336000D02*
D03*
X367500D02*
D03*
X434500Y484000D02*
D03*
X407500D02*
D03*
X393500Y361000D02*
D03*
X420500D02*
D03*
X461500Y405000D02*
D03*
X434500D02*
D03*
X368500Y463000D02*
D03*
X341500D02*
D03*
X289500Y484000D02*
D03*
X316500D02*
D03*
X289500Y463000D02*
D03*
X316500D02*
D03*
X238500Y797000D02*
D03*
X265500D02*
D03*
X220500D02*
D03*
X193500D02*
D03*
X1433500Y250500D02*
D03*
X1406500D02*
D03*
X1433500Y272500D02*
D03*
X1406500D02*
D03*
X1439500Y229500D02*
D03*
X1412500D02*
D03*
X1433500Y508500D02*
D03*
X1406500D02*
D03*
X1433500Y486500D02*
D03*
X1406500D02*
D03*
X1439500Y465500D02*
D03*
X1412500D02*
D03*
X219737Y658500D02*
D03*
X246737D02*
D03*
X289737D02*
D03*
X262737D02*
D03*
X1176500Y712500D02*
D03*
X1149500D02*
D03*
X802500Y249000D02*
D03*
X829500D02*
D03*
X802500Y271000D02*
D03*
X829500D02*
D03*
X560500Y209255D02*
D03*
X587500D02*
D03*
X631500D02*
D03*
X604500D02*
D03*
X560500Y266255D02*
D03*
X587500D02*
D03*
X631500D02*
D03*
X604500D02*
D03*
X141500Y89489D02*
D03*
X114500D02*
D03*
Y110489D02*
D03*
X141500D02*
D03*
X70500D02*
D03*
X97500D02*
D03*
X310730Y91770D02*
D03*
X283730D02*
D03*
X327730Y72770D02*
D03*
X354730D02*
D03*
Y93770D02*
D03*
X327730D02*
D03*
Y154770D02*
D03*
X354730D02*
D03*
X490500Y926000D02*
D03*
X517500D02*
D03*
X444994Y922000D02*
D03*
X471994D02*
D03*
Y943000D02*
D03*
X444994D02*
D03*
X471994Y860000D02*
D03*
X444994D02*
D03*
D42*
X1215000Y712500D02*
D03*
X1197000D02*
D03*
X764000Y249000D02*
D03*
X782000D02*
D03*
X764000Y271000D02*
D03*
X782000D02*
D03*
D43*
X115000Y145489D02*
D03*
D44*
X69000Y381000D02*
D03*
Y279000D02*
D03*
Y609000D02*
D03*
Y711000D02*
D03*
Y809000D02*
D03*
Y911000D02*
D03*
X1531000Y809000D02*
D03*
Y911000D02*
D03*
D45*
X120000Y305000D02*
D03*
Y635000D02*
D03*
Y835000D02*
D03*
X917500Y244900D02*
D03*
X942900Y219500D02*
D03*
Y244900D02*
D03*
X968300Y219500D02*
D03*
Y244900D02*
D03*
X993700Y219500D02*
D03*
Y244900D02*
D03*
X1019100Y219500D02*
D03*
Y244900D02*
D03*
X1044500Y219500D02*
D03*
Y244900D02*
D03*
X1212772Y61215D02*
D03*
X1179130Y581270D02*
D03*
Y611270D02*
D03*
X119600Y55000D02*
D03*
X94200D02*
D03*
X68800D02*
D03*
X1480000Y885000D02*
D03*
X595000Y896600D02*
D03*
X1505000Y609600D02*
D03*
D46*
X120000Y330000D02*
D03*
Y660000D02*
D03*
Y860000D02*
D03*
X917500Y219500D02*
D03*
X1238172Y61215D02*
D03*
X1153730Y581270D02*
D03*
Y611270D02*
D03*
X145000Y55000D02*
D03*
X1480000Y860000D02*
D03*
D47*
X878700Y762520D02*
D03*
Y737120D02*
D03*
Y711720D02*
D03*
Y686320D02*
D03*
Y660920D02*
D03*
Y635520D02*
D03*
Y610120D02*
D03*
Y584720D02*
D03*
Y559320D02*
D03*
X879080Y533678D02*
D03*
Y508494D02*
D03*
Y482875D02*
D03*
X878700Y457720D02*
D03*
Y432320D02*
D03*
X1081900Y762520D02*
D03*
Y737120D02*
D03*
Y711720D02*
D03*
Y686320D02*
D03*
Y660920D02*
D03*
Y635520D02*
D03*
Y610120D02*
D03*
Y584720D02*
D03*
X1082280Y559078D02*
D03*
Y533894D02*
D03*
Y508275D02*
D03*
X1081900Y483120D02*
D03*
Y457720D02*
D03*
D48*
Y432320D02*
D03*
D49*
X190000Y369000D02*
D03*
D50*
Y330900D02*
D03*
D51*
X247000Y369100D02*
D03*
D52*
Y331000D02*
D03*
D53*
X290900Y360900D02*
D03*
D54*
X316300D02*
D03*
X341700D02*
D03*
X367100D02*
D03*
X290900Y437100D02*
D03*
X316300D02*
D03*
X341700D02*
D03*
X367100D02*
D03*
D55*
X1212730Y558270D02*
D03*
D56*
Y545570D02*
D03*
Y532870D02*
D03*
D57*
X595000Y922000D02*
D03*
X1505000Y635000D02*
D03*
D58*
X371000Y402000D02*
D03*
X284000Y71000D02*
D03*
X248000Y401000D02*
D03*
X517506Y948494D02*
D03*
X1101000Y42000D02*
D03*
X1130000Y560000D02*
D03*
X715000Y710000D02*
D03*
X721320Y686320D02*
D03*
X584500Y693250D02*
D03*
X541500Y743250D02*
D03*
X597500Y765250D02*
D03*
X580500Y783250D02*
D03*
X664500Y793250D02*
D03*
X621500D02*
D03*
X640000Y666750D02*
D03*
X530000Y206000D02*
D03*
X665000Y630000D02*
D03*
X1360000Y625000D02*
D03*
X130000Y547500D02*
D03*
Y420000D02*
D03*
X1055000Y95000D02*
D03*
X1318000Y579000D02*
D03*
X1424000Y565000D02*
D03*
X1291000Y443500D02*
D03*
X1088000Y150000D02*
D03*
X1412000Y208000D02*
D03*
X1091000Y168000D02*
D03*
X1123000Y41000D02*
D03*
X1292500Y322500D02*
D03*
X1332500Y386500D02*
D03*
Y429000D02*
D03*
X1331000Y272500D02*
D03*
X1411679Y441903D02*
D03*
X1412000Y322000D02*
D03*
X983000Y193000D02*
D03*
X1011000Y175000D02*
D03*
X951000Y142500D02*
D03*
X912000Y187000D02*
D03*
X951500Y61500D02*
D03*
X951500Y115500D02*
D03*
X727000Y103000D02*
D03*
X1332500Y308500D02*
D03*
X1389500Y387500D02*
D03*
X1428500Y405500D02*
D03*
X835000Y351000D02*
D03*
X751000Y540000D02*
D03*
Y596000D02*
D03*
X199237Y703976D02*
D03*
X657000Y209255D02*
D03*
X736000Y468500D02*
D03*
X691000Y487000D02*
D03*
X699000Y369000D02*
D03*
X627000Y385000D02*
D03*
Y464000D02*
D03*
X705000Y346000D02*
D03*
X592500Y487500D02*
D03*
X565000Y425000D02*
D03*
X493000Y569000D02*
D03*
X515000Y568000D02*
D03*
X1401716Y596431D02*
D03*
X266000Y193000D02*
D03*
X393000D02*
D03*
X463000Y206000D02*
D03*
X405000Y317000D02*
D03*
X407000Y383000D02*
D03*
X258000Y512000D02*
D03*
X273000Y484000D02*
D03*
X477000Y425000D02*
D03*
Y453000D02*
D03*
X458000Y468000D02*
D03*
X174000Y843476D02*
D03*
X176000Y797000D02*
D03*
X311000Y858476D02*
D03*
X288000Y796000D02*
D03*
X657000Y266255D02*
D03*
X1434000Y526500D02*
D03*
X1433500Y290500D02*
D03*
X1293000Y207500D02*
D03*
X1389000Y272500D02*
D03*
X1333500Y193000D02*
D03*
X1332500Y508000D02*
D03*
X1389000Y508500D02*
D03*
X332237Y718976D02*
D03*
X310237Y658500D02*
D03*
X202237D02*
D03*
X1237000Y573000D02*
D03*
X1266730Y602270D02*
D03*
X535111Y864603D02*
D03*
X284116Y151228D02*
D03*
X185000Y170828D02*
D03*
X1120229Y69785D02*
D03*
X764000Y298000D02*
D03*
X1232000Y712500D02*
D03*
X560500Y237754D02*
D03*
X584000Y237255D02*
D03*
X164000Y110489D02*
D03*
X70500Y89989D02*
D03*
X115000Y145489D02*
D03*
X332230Y125770D02*
D03*
X381230Y154770D02*
D03*
X467494Y890000D02*
D03*
X421494Y860000D02*
D03*
D59*
X1206000Y657000D02*
D03*
X1550000Y980000D02*
D03*
X40000D02*
D03*
X800000D02*
D03*
Y20000D02*
D03*
X40000D02*
D03*
X1550000D02*
D03*
M02*
