G04*
G04 #@! TF.GenerationSoftware,Altium Limited,Altium Designer,22.5.1 (42)*
G04*
G04 Layer_Physical_Order=4*
G04 Layer_Color=16711680*
%FSLAX44Y44*%
%MOMM*%
G71*
G04*
G04 #@! TF.SameCoordinates,40384B85-564C-47B5-BA78-C0A8BA91D8EB*
G04*
G04*
G04 #@! TF.FilePolarity,Positive*
G04*
G01*
G75*
%ADD11C,0.5080*%
%ADD12C,0.1524*%
%ADD15C,0.2540*%
%ADD49R,1.2700X1.2700*%
%ADD50C,1.2700*%
%ADD51C,1.1430*%
%ADD52R,1.1430X1.1430*%
%ADD56O,1.2700X1.1684*%
%ADD63C,3.3000*%
%ADD64C,1.5000*%
%ADD65R,1.5000X1.5000*%
%ADD66C,1.6000*%
%ADD67R,1.6000X1.6000*%
%ADD68R,1.5000X1.5000*%
%ADD69C,1.5000*%
%ADD70R,1.5000X1.5000*%
%ADD71C,1.2000*%
%ADD73C,0.6350*%
G36*
X1600000Y970000D02*
X1551935D01*
X1551767Y971270D01*
X1553431Y971716D01*
X1555459Y972886D01*
X1557114Y974541D01*
X1558284Y976569D01*
X1558863Y978730D01*
X1541137D01*
X1541716Y976569D01*
X1542886Y974541D01*
X1544541Y972886D01*
X1546569Y971716D01*
X1548233Y971270D01*
X1548065Y970000D01*
X801935D01*
X801768Y971270D01*
X803431Y971716D01*
X805459Y972886D01*
X807114Y974541D01*
X808284Y976569D01*
X808863Y978730D01*
X791137D01*
X791716Y976569D01*
X792886Y974541D01*
X794541Y972886D01*
X796569Y971716D01*
X798232Y971270D01*
X798065Y970000D01*
X41935D01*
X41768Y971270D01*
X43431Y971716D01*
X45459Y972886D01*
X47114Y974541D01*
X48284Y976569D01*
X48863Y978730D01*
X31137D01*
X31716Y976569D01*
X32886Y974541D01*
X34541Y972886D01*
X36569Y971716D01*
X38233Y971270D01*
X38065Y970000D01*
X0D01*
Y1000000D01*
X1600000D01*
Y970000D01*
D02*
G37*
G36*
X599735Y890704D02*
X599274Y890146D01*
X598868Y889570D01*
X598516Y888977D01*
X598218Y888366D01*
X597974Y887737D01*
X597784Y887090D01*
X597649Y886425D01*
X597567Y885743D01*
X597540Y885043D01*
X592460D01*
X592433Y885743D01*
X592352Y886425D01*
X592216Y887090D01*
X592026Y887737D01*
X591783Y888366D01*
X591484Y888977D01*
X591132Y889570D01*
X590726Y890146D01*
X590265Y890704D01*
X589750Y891244D01*
X600250D01*
X599735Y890704D01*
D02*
G37*
G36*
X539736Y868488D02*
X540106Y868205D01*
X540507Y867956D01*
X540937Y867741D01*
X541397Y867558D01*
X541887Y867409D01*
X542407Y867292D01*
X542957Y867209D01*
X543537Y867160D01*
X544147Y867143D01*
Y862063D01*
X543537Y862047D01*
X542957Y861997D01*
X542407Y861914D01*
X541887Y861797D01*
X541397Y861648D01*
X540937Y861466D01*
X540507Y861250D01*
X540106Y861001D01*
X539736Y860719D01*
X539396Y860403D01*
Y868803D01*
X539736Y868488D01*
D02*
G37*
G36*
X1472561Y854920D02*
X1472510Y855403D01*
X1472357Y855834D01*
X1472101Y856215D01*
X1471743Y856546D01*
X1471283Y856825D01*
X1470721Y857054D01*
X1470057Y857231D01*
X1469290Y857358D01*
X1468421Y857435D01*
X1467451Y857460D01*
Y862540D01*
X1468421Y862565D01*
X1469290Y862642D01*
X1470057Y862769D01*
X1470721Y862946D01*
X1471283Y863175D01*
X1471743Y863454D01*
X1472101Y863785D01*
X1472357Y864166D01*
X1472510Y864597D01*
X1472561Y865080D01*
Y854920D01*
D02*
G37*
G36*
X885020Y742139D02*
X885640Y741618D01*
X886273Y741159D01*
X886921Y740762D01*
X887581Y740425D01*
X888255Y740150D01*
X888943Y739935D01*
X889644Y739782D01*
X890358Y739691D01*
X891086Y739660D01*
Y734580D01*
X890358Y734549D01*
X889644Y734458D01*
X888943Y734305D01*
X888255Y734090D01*
X887581Y733815D01*
X886921Y733478D01*
X886273Y733081D01*
X885640Y732622D01*
X885020Y732101D01*
X884413Y731520D01*
Y742720D01*
X885020Y742139D01*
D02*
G37*
G36*
X726174Y689963D02*
X727277Y689026D01*
X727812Y688645D01*
X728336Y688323D01*
X728848Y688059D01*
X729349Y687854D01*
X729839Y687707D01*
X730317Y687619D01*
X730784Y687590D01*
Y685050D01*
X730317Y685021D01*
X729839Y684933D01*
X729349Y684786D01*
X728848Y684581D01*
X728336Y684317D01*
X727812Y683995D01*
X727277Y683614D01*
X726731Y683175D01*
X725605Y682120D01*
Y690520D01*
X726174Y689963D01*
D02*
G37*
G36*
X872987Y680720D02*
X872153Y681543D01*
X870576Y682928D01*
X869832Y683491D01*
X869118Y683968D01*
X868435Y684357D01*
X867782Y684660D01*
X867158Y684877D01*
X866565Y685007D01*
X866002Y685050D01*
Y687590D01*
X866565Y687633D01*
X867158Y687763D01*
X867782Y687980D01*
X868435Y688283D01*
X869118Y688672D01*
X869832Y689149D01*
X870576Y689712D01*
X872153Y691097D01*
X872987Y691920D01*
Y680720D01*
D02*
G37*
G36*
X660715Y625800D02*
X660490Y625995D01*
X660217Y626169D01*
X659897Y626323D01*
X659528Y626456D01*
X659111Y626569D01*
X658647Y626661D01*
X658134Y626733D01*
X656965Y626815D01*
X656309Y626825D01*
Y633175D01*
X656965Y633185D01*
X658134Y633267D01*
X658647Y633339D01*
X659111Y633431D01*
X659528Y633544D01*
X659897Y633677D01*
X660217Y633831D01*
X660490Y634005D01*
X660715Y634200D01*
Y625800D01*
D02*
G37*
G36*
X755625Y599885D02*
X755996Y599603D01*
X756396Y599353D01*
X756826Y599138D01*
X757286Y598955D01*
X757776Y598806D01*
X758296Y598689D01*
X758846Y598606D01*
X759426Y598557D01*
X760036Y598540D01*
Y593460D01*
X759426Y593443D01*
X758846Y593394D01*
X758296Y593311D01*
X757776Y593195D01*
X757286Y593045D01*
X756826Y592863D01*
X756396Y592647D01*
X755996Y592398D01*
X755625Y592116D01*
X755285Y591800D01*
Y600200D01*
X755625Y599885D01*
D02*
G37*
G36*
X1419715Y560800D02*
X1419375Y561115D01*
X1419004Y561398D01*
X1418604Y561647D01*
X1418174Y561862D01*
X1417714Y562045D01*
X1417224Y562194D01*
X1416704Y562311D01*
X1416154Y562394D01*
X1415574Y562443D01*
X1414964Y562460D01*
Y567540D01*
X1415574Y567557D01*
X1416154Y567606D01*
X1416704Y567689D01*
X1417224Y567806D01*
X1417714Y567955D01*
X1418174Y568138D01*
X1418604Y568353D01*
X1419004Y568602D01*
X1419375Y568885D01*
X1419715Y569200D01*
Y560800D01*
D02*
G37*
G36*
X885020Y564339D02*
X885640Y563818D01*
X886273Y563359D01*
X886921Y562962D01*
X887581Y562625D01*
X888255Y562350D01*
X888943Y562135D01*
X889644Y561982D01*
X890358Y561891D01*
X891086Y561860D01*
Y556780D01*
X890358Y556749D01*
X889644Y556658D01*
X888943Y556505D01*
X888255Y556290D01*
X887581Y556015D01*
X886921Y555678D01*
X886273Y555281D01*
X885640Y554822D01*
X885020Y554301D01*
X884413Y553720D01*
Y564920D01*
X885020Y564339D01*
D02*
G37*
G36*
X138391Y551400D02*
X137934Y550929D01*
X137165Y550045D01*
X136854Y549632D01*
X136590Y549238D01*
X136375Y548863D01*
X136209Y548508D01*
X136091Y548173D01*
X136021Y547857D01*
X136000Y547560D01*
X130060Y553500D01*
X130357Y553521D01*
X130673Y553591D01*
X131008Y553709D01*
X131363Y553875D01*
X131738Y554090D01*
X132132Y554353D01*
X132545Y554665D01*
X133429Y555434D01*
X133900Y555891D01*
X138391Y551400D01*
D02*
G37*
G36*
X134005Y542990D02*
X133831Y542717D01*
X133677Y542397D01*
X133544Y542028D01*
X133431Y541611D01*
X133339Y541147D01*
X133267Y540634D01*
X133185Y539465D01*
X133175Y538809D01*
X126825D01*
X126815Y539465D01*
X126733Y540634D01*
X126661Y541147D01*
X126569Y541611D01*
X126456Y542028D01*
X126323Y542397D01*
X126169Y542717D01*
X125995Y542990D01*
X125800Y543215D01*
X134200D01*
X134005Y542990D01*
D02*
G37*
G36*
X755625Y543885D02*
X755996Y543603D01*
X756396Y543354D01*
X756826Y543138D01*
X757286Y542955D01*
X757776Y542806D01*
X758296Y542690D01*
X758846Y542607D01*
X759426Y542557D01*
X760036Y542540D01*
Y537460D01*
X759426Y537444D01*
X758846Y537394D01*
X758296Y537311D01*
X757776Y537195D01*
X757286Y537045D01*
X756826Y536863D01*
X756396Y536647D01*
X755996Y536398D01*
X755625Y536116D01*
X755285Y535800D01*
Y544200D01*
X755625Y543885D01*
D02*
G37*
G36*
X885399Y538696D02*
X886019Y538176D01*
X886653Y537717D01*
X887300Y537319D01*
X887961Y536983D01*
X888635Y536707D01*
X889322Y536493D01*
X890023Y536340D01*
X890738Y536248D01*
X891466Y536218D01*
Y531138D01*
X890738Y531107D01*
X890023Y531015D01*
X889322Y530862D01*
X888635Y530648D01*
X887961Y530373D01*
X887300Y530036D01*
X886653Y529638D01*
X886019Y529179D01*
X885399Y528659D01*
X884793Y528078D01*
Y539278D01*
X885399Y538696D01*
D02*
G37*
G36*
X873366Y502894D02*
X872760Y503475D01*
X872140Y503996D01*
X871506Y504455D01*
X870859Y504852D01*
X870199Y505189D01*
X869525Y505465D01*
X868837Y505679D01*
X868136Y505832D01*
X867421Y505924D01*
X866693Y505954D01*
Y511034D01*
X867421Y511065D01*
X868136Y511157D01*
X868837Y511310D01*
X869525Y511524D01*
X870199Y511799D01*
X870859Y512136D01*
X871506Y512533D01*
X872140Y512993D01*
X872760Y513513D01*
X873366Y514094D01*
Y502894D01*
D02*
G37*
G36*
X263371Y509252D02*
X263251Y508821D01*
X263145Y508320D01*
X262976Y507107D01*
X262863Y505612D01*
X262799Y502841D01*
X257719Y502406D01*
X257700Y503027D01*
X257640Y503600D01*
X257540Y504124D01*
X257400Y504600D01*
X257220Y505029D01*
X257001Y505409D01*
X256741Y505741D01*
X256442Y506025D01*
X256102Y506261D01*
X255723Y506449D01*
X263505Y509612D01*
X263371Y509252D01*
D02*
G37*
G36*
X873366Y477275D02*
X872760Y477856D01*
X872140Y478377D01*
X871506Y478836D01*
X870859Y479234D01*
X870199Y479570D01*
X869525Y479846D01*
X868837Y480060D01*
X868136Y480213D01*
X867421Y480304D01*
X866693Y480335D01*
Y485415D01*
X867421Y485446D01*
X868136Y485537D01*
X868837Y485690D01*
X869525Y485905D01*
X870199Y486180D01*
X870859Y486517D01*
X871506Y486914D01*
X872140Y487374D01*
X872760Y487894D01*
X873366Y488475D01*
Y477275D01*
D02*
G37*
G36*
X885378Y462290D02*
X886786Y460986D01*
X887469Y460456D01*
X888138Y460008D01*
X888794Y459642D01*
X889436Y459357D01*
X890065Y459153D01*
X890679Y459031D01*
X891280Y458990D01*
Y456450D01*
X890679Y456409D01*
X890065Y456287D01*
X889436Y456083D01*
X888794Y455798D01*
X888138Y455432D01*
X887469Y454983D01*
X886786Y454454D01*
X886089Y453843D01*
X885378Y453150D01*
X884654Y452377D01*
Y463064D01*
X885378Y462290D01*
D02*
G37*
G36*
X1415805Y437494D02*
X1415540Y437110D01*
X1415305Y436699D01*
X1415102Y436259D01*
X1414931Y435791D01*
X1414790Y435295D01*
X1414681Y434771D01*
X1414603Y434218D01*
X1414556Y433638D01*
X1414540Y433029D01*
X1409460Y432728D01*
X1409442Y433339D01*
X1409390Y433918D01*
X1409303Y434465D01*
X1409181Y434980D01*
X1409023Y435463D01*
X1408831Y435914D01*
X1408604Y436333D01*
X1408343Y436720D01*
X1408046Y437076D01*
X1407714Y437399D01*
X1416102Y437849D01*
X1415805Y437494D01*
D02*
G37*
G36*
X133185Y428035D02*
X133267Y426866D01*
X133339Y426353D01*
X133431Y425889D01*
X133544Y425472D01*
X133677Y425103D01*
X133831Y424783D01*
X134005Y424510D01*
X134200Y424285D01*
X125800D01*
X125995Y424510D01*
X126169Y424783D01*
X126323Y425103D01*
X126456Y425472D01*
X126569Y425889D01*
X126661Y426353D01*
X126733Y426866D01*
X126815Y428035D01*
X126825Y428691D01*
X133175D01*
X133185Y428035D01*
D02*
G37*
G36*
X252855Y404586D02*
X253137Y404366D01*
X253465Y404173D01*
X253839Y404005D01*
X254258Y403863D01*
X254722Y403747D01*
X255233Y403656D01*
X255788Y403592D01*
X257036Y403540D01*
Y398460D01*
X256389Y398447D01*
X255233Y398344D01*
X254722Y398254D01*
X254258Y398137D01*
X253839Y397995D01*
X253465Y397827D01*
X253137Y397634D01*
X252855Y397414D01*
X252618Y397169D01*
Y404831D01*
X252855Y404586D01*
D02*
G37*
G36*
X842590Y356794D02*
X842281Y356443D01*
X842004Y356043D01*
X841762Y355593D01*
X841553Y355093D01*
X841377Y354545D01*
X841234Y353947D01*
X841125Y353299D01*
X841050Y352602D01*
X841000Y351060D01*
X835060Y357000D01*
X835856Y357008D01*
X837299Y357126D01*
X837947Y357234D01*
X838545Y357377D01*
X839093Y357552D01*
X839593Y357762D01*
X840042Y358004D01*
X840443Y358280D01*
X840794Y358590D01*
X842590Y356794D01*
D02*
G37*
G36*
X1414557Y330426D02*
X1414606Y329846D01*
X1414689Y329296D01*
X1414806Y328776D01*
X1414955Y328286D01*
X1415138Y327826D01*
X1415353Y327396D01*
X1415602Y326996D01*
X1415885Y326625D01*
X1416200Y326285D01*
X1407800D01*
X1408115Y326625D01*
X1408398Y326996D01*
X1408647Y327396D01*
X1408862Y327826D01*
X1409045Y328286D01*
X1409194Y328776D01*
X1409311Y329296D01*
X1409394Y329846D01*
X1409443Y330426D01*
X1409460Y331036D01*
X1414540D01*
X1414557Y330426D01*
D02*
G37*
G36*
X1415885Y317375D02*
X1415602Y317004D01*
X1415353Y316604D01*
X1415138Y316174D01*
X1414955Y315714D01*
X1414806Y315224D01*
X1414689Y314704D01*
X1414606Y314154D01*
X1414557Y313574D01*
X1414540Y312964D01*
X1409460D01*
X1409443Y313574D01*
X1409394Y314154D01*
X1409311Y314704D01*
X1409194Y315224D01*
X1409045Y315714D01*
X1408862Y316174D01*
X1408647Y316604D01*
X1408398Y317004D01*
X1408115Y317375D01*
X1407800Y317715D01*
X1416200D01*
X1415885Y317375D01*
D02*
G37*
G36*
X665185Y270848D02*
X664766Y270405D01*
X664391Y269960D01*
X664061Y269512D01*
X663775Y269062D01*
X663534Y268610D01*
X663338Y268156D01*
X663186Y267699D01*
X663079Y267240D01*
X663017Y266779D01*
X662999Y266315D01*
X657060Y272255D01*
X657523Y272272D01*
X657985Y272334D01*
X658444Y272441D01*
X658901Y272593D01*
X659355Y272789D01*
X659807Y273030D01*
X660257Y273316D01*
X660705Y273646D01*
X661150Y274021D01*
X661593Y274440D01*
X665185Y270848D01*
D02*
G37*
G36*
X1029068Y251276D02*
X1028592Y250762D01*
X1028167Y250222D01*
X1027793Y249656D01*
X1027470Y249065D01*
X1027198Y248447D01*
X1026976Y247804D01*
X1026806Y247136D01*
X1026686Y246441D01*
X1026618Y245721D01*
X1026600Y244975D01*
X1019175Y252400D01*
X1019921Y252417D01*
X1020641Y252486D01*
X1021336Y252606D01*
X1022004Y252776D01*
X1022647Y252998D01*
X1023265Y253270D01*
X1023856Y253593D01*
X1024422Y253967D01*
X1024962Y254392D01*
X1025476Y254868D01*
X1029068Y251276D01*
D02*
G37*
G36*
X1050396Y249635D02*
X1050954Y249174D01*
X1051530Y248768D01*
X1052123Y248416D01*
X1052734Y248117D01*
X1053363Y247873D01*
X1054010Y247684D01*
X1054675Y247548D01*
X1055357Y247467D01*
X1056057Y247440D01*
Y242360D01*
X1055357Y242333D01*
X1054675Y242251D01*
X1054010Y242116D01*
X1053363Y241926D01*
X1052734Y241682D01*
X1052123Y241384D01*
X1051530Y241032D01*
X1050954Y240625D01*
X1050396Y240165D01*
X1049856Y239650D01*
Y250150D01*
X1050396Y249635D01*
D02*
G37*
G36*
X1414557Y216426D02*
X1414606Y215846D01*
X1414689Y215296D01*
X1414806Y214776D01*
X1414955Y214286D01*
X1415138Y213826D01*
X1415353Y213396D01*
X1415602Y212996D01*
X1415885Y212625D01*
X1416200Y212285D01*
X1407800D01*
X1408115Y212625D01*
X1408398Y212996D01*
X1408647Y213396D01*
X1408862Y213826D01*
X1409045Y214286D01*
X1409194Y214776D01*
X1409311Y215296D01*
X1409394Y215846D01*
X1409443Y216426D01*
X1409460Y217036D01*
X1414540D01*
X1414557Y216426D01*
D02*
G37*
G36*
X665186Y213848D02*
X664766Y213405D01*
X664391Y212960D01*
X664061Y212512D01*
X663776Y212062D01*
X663535Y211610D01*
X663338Y211156D01*
X663187Y210699D01*
X663080Y210240D01*
X663018Y209778D01*
X663000Y209315D01*
X657060Y215254D01*
X657524Y215272D01*
X657985Y215334D01*
X658445Y215441D01*
X658901Y215593D01*
X659356Y215789D01*
X659808Y216030D01*
X660258Y216316D01*
X660705Y216646D01*
X661151Y217020D01*
X661593Y217440D01*
X665186Y213848D01*
D02*
G37*
G36*
X525715Y201800D02*
X525490Y201995D01*
X525217Y202169D01*
X524897Y202323D01*
X524528Y202456D01*
X524111Y202569D01*
X523647Y202661D01*
X523134Y202733D01*
X521965Y202815D01*
X521309Y202825D01*
Y209175D01*
X521965Y209185D01*
X523134Y209267D01*
X523647Y209339D01*
X524111Y209431D01*
X524528Y209544D01*
X524897Y209677D01*
X525217Y209831D01*
X525490Y210005D01*
X525715Y210200D01*
Y201800D01*
D02*
G37*
G36*
X467510Y210005D02*
X467783Y209831D01*
X468103Y209677D01*
X468472Y209544D01*
X468889Y209431D01*
X469353Y209339D01*
X469866Y209267D01*
X471035Y209185D01*
X471691Y209175D01*
Y202825D01*
X471035Y202815D01*
X469866Y202733D01*
X469353Y202661D01*
X468889Y202569D01*
X468472Y202456D01*
X468103Y202323D01*
X467783Y202169D01*
X467510Y201995D01*
X467285Y201800D01*
Y210200D01*
X467510Y210005D01*
D02*
G37*
G36*
X397510Y197005D02*
X397783Y196831D01*
X398104Y196677D01*
X398472Y196544D01*
X398889Y196431D01*
X399354Y196339D01*
X399866Y196267D01*
X401035Y196185D01*
X401691Y196175D01*
Y189825D01*
X401035Y189815D01*
X399866Y189733D01*
X399354Y189661D01*
X398889Y189569D01*
X398472Y189456D01*
X398104Y189323D01*
X397783Y189169D01*
X397510Y188995D01*
X397285Y188800D01*
Y197200D01*
X397510Y197005D01*
D02*
G37*
G36*
X388715Y188800D02*
X388490Y188995D01*
X388218Y189169D01*
X387897Y189323D01*
X387528Y189456D01*
X387112Y189569D01*
X386647Y189661D01*
X386134Y189733D01*
X384966Y189815D01*
X384309Y189825D01*
Y196175D01*
X384966Y196185D01*
X386134Y196267D01*
X386647Y196339D01*
X387112Y196431D01*
X387528Y196544D01*
X387897Y196677D01*
X388218Y196831D01*
X388490Y197005D01*
X388715Y197200D01*
Y188800D01*
D02*
G37*
G36*
X270510Y197005D02*
X270783Y196831D01*
X271104Y196677D01*
X271472Y196544D01*
X271889Y196431D01*
X272354Y196339D01*
X272866Y196267D01*
X274035Y196185D01*
X274691Y196175D01*
Y189825D01*
X274035Y189815D01*
X272866Y189733D01*
X272354Y189661D01*
X271889Y189569D01*
X271472Y189456D01*
X271104Y189323D01*
X270783Y189169D01*
X270510Y188995D01*
X270285Y188800D01*
Y197200D01*
X270510Y197005D01*
D02*
G37*
G36*
X986885Y188375D02*
X986602Y188004D01*
X986353Y187604D01*
X986138Y187174D01*
X985955Y186714D01*
X985806Y186224D01*
X985689Y185704D01*
X985606Y185154D01*
X985557Y184574D01*
X985540Y183964D01*
X980460D01*
X980443Y184574D01*
X980394Y185154D01*
X980311Y185704D01*
X980194Y186224D01*
X980045Y186714D01*
X979862Y187174D01*
X979647Y187604D01*
X979398Y188004D01*
X979115Y188375D01*
X978800Y188715D01*
X987200D01*
X986885Y188375D01*
D02*
G37*
G36*
X1017017Y174476D02*
X1017080Y174015D01*
X1017187Y173556D01*
X1017338Y173099D01*
X1017534Y172645D01*
X1017775Y172192D01*
X1018061Y171742D01*
X1018391Y171295D01*
X1018766Y170850D01*
X1019185Y170407D01*
X1015593Y166815D01*
X1015150Y167234D01*
X1014705Y167609D01*
X1014258Y167939D01*
X1013808Y168225D01*
X1013355Y168465D01*
X1012901Y168662D01*
X1012444Y168813D01*
X1011985Y168920D01*
X1011524Y168983D01*
X1011060Y169000D01*
X1017000Y174940D01*
X1017017Y174476D01*
D02*
G37*
G36*
X1086715Y163800D02*
X1086375Y164115D01*
X1086004Y164398D01*
X1085604Y164647D01*
X1085174Y164862D01*
X1084714Y165045D01*
X1084224Y165194D01*
X1083704Y165311D01*
X1083154Y165394D01*
X1082574Y165443D01*
X1081964Y165460D01*
Y170540D01*
X1082574Y170557D01*
X1083154Y170606D01*
X1083704Y170689D01*
X1084224Y170806D01*
X1084714Y170955D01*
X1085174Y171138D01*
X1085604Y171353D01*
X1086004Y171602D01*
X1086375Y171885D01*
X1086715Y172200D01*
Y163800D01*
D02*
G37*
G36*
X1083715Y145800D02*
X1083375Y146115D01*
X1083004Y146398D01*
X1082604Y146647D01*
X1082174Y146862D01*
X1081714Y147045D01*
X1081224Y147194D01*
X1080704Y147311D01*
X1080154Y147394D01*
X1079574Y147443D01*
X1078964Y147460D01*
Y152540D01*
X1079574Y152557D01*
X1080154Y152606D01*
X1080704Y152689D01*
X1081224Y152806D01*
X1081714Y152955D01*
X1082174Y153138D01*
X1082604Y153353D01*
X1083004Y153602D01*
X1083375Y153885D01*
X1083715Y154200D01*
Y145800D01*
D02*
G37*
G36*
X1118850Y48766D02*
X1119295Y48391D01*
X1119743Y48061D01*
X1120192Y47775D01*
X1120645Y47534D01*
X1121099Y47338D01*
X1121556Y47187D01*
X1122015Y47080D01*
X1122476Y47017D01*
X1122940Y47000D01*
X1117000Y41060D01*
X1116983Y41524D01*
X1116920Y41985D01*
X1116813Y42444D01*
X1116662Y42901D01*
X1116466Y43355D01*
X1116225Y43808D01*
X1115939Y44257D01*
X1115609Y44705D01*
X1115234Y45150D01*
X1114815Y45593D01*
X1118407Y49185D01*
X1118850Y48766D01*
D02*
G37*
G36*
X1600000Y30000D02*
Y-0D01*
X0D01*
X0Y0D01*
Y30000D01*
X38065D01*
X38232Y28730D01*
X36569Y28284D01*
X34541Y27114D01*
X32886Y25459D01*
X31716Y23431D01*
X31137Y21270D01*
X48863D01*
X48284Y23431D01*
X47114Y25459D01*
X45459Y27114D01*
X43431Y28284D01*
X41768Y28730D01*
X41935Y30000D01*
X798065D01*
X798232Y28730D01*
X796569Y28284D01*
X794541Y27114D01*
X792886Y25459D01*
X791716Y23431D01*
X791137Y21270D01*
X808863D01*
X808284Y23431D01*
X807114Y25459D01*
X805459Y27114D01*
X803431Y28284D01*
X801768Y28730D01*
X801935Y30000D01*
X1548065D01*
X1548232Y28730D01*
X1546569Y28284D01*
X1544541Y27114D01*
X1542886Y25459D01*
X1541716Y23431D01*
X1541137Y21270D01*
X1558863D01*
X1558284Y23431D01*
X1557114Y25459D01*
X1555459Y27114D01*
X1553431Y28284D01*
X1551768Y28730D01*
X1551935Y30000D01*
X1600000D01*
X1600000Y30000D01*
D02*
G37*
%LPC*%
G36*
X1551270Y988863D02*
Y981270D01*
X1558863D01*
X1558284Y983431D01*
X1557114Y985459D01*
X1555459Y987114D01*
X1553431Y988284D01*
X1551270Y988863D01*
D02*
G37*
G36*
X1548730D02*
X1546569Y988284D01*
X1544541Y987114D01*
X1542886Y985459D01*
X1541716Y983431D01*
X1541137Y981270D01*
X1548730D01*
Y988863D01*
D02*
G37*
G36*
X801270D02*
Y981270D01*
X808863D01*
X808284Y983431D01*
X807114Y985459D01*
X805459Y987114D01*
X803431Y988284D01*
X801270Y988863D01*
D02*
G37*
G36*
X798730D02*
X796569Y988284D01*
X794541Y987114D01*
X792886Y985459D01*
X791716Y983431D01*
X791137Y981270D01*
X798730D01*
Y988863D01*
D02*
G37*
G36*
X41270D02*
Y981270D01*
X48863D01*
X48284Y983431D01*
X47114Y985459D01*
X45459Y987114D01*
X43431Y988284D01*
X41270Y988863D01*
D02*
G37*
G36*
X38730D02*
X36569Y988284D01*
X34541Y987114D01*
X32886Y985459D01*
X31716Y983431D01*
X31137Y981270D01*
X38730D01*
Y988863D01*
D02*
G37*
G36*
X1558863Y18730D02*
X1551270D01*
Y11137D01*
X1553431Y11716D01*
X1555459Y12886D01*
X1557114Y14541D01*
X1558284Y16569D01*
X1558863Y18730D01*
D02*
G37*
G36*
X1548730D02*
X1541137D01*
X1541716Y16569D01*
X1542886Y14541D01*
X1544541Y12886D01*
X1546569Y11716D01*
X1548730Y11137D01*
Y18730D01*
D02*
G37*
G36*
X808863D02*
X801270D01*
Y11137D01*
X803431Y11716D01*
X805459Y12886D01*
X807114Y14541D01*
X808284Y16569D01*
X808863Y18730D01*
D02*
G37*
G36*
X798730D02*
X791137D01*
X791716Y16569D01*
X792886Y14541D01*
X794541Y12886D01*
X796569Y11716D01*
X798730Y11137D01*
Y18730D01*
D02*
G37*
G36*
X48863D02*
X41270D01*
Y11137D01*
X43431Y11716D01*
X45459Y12886D01*
X47114Y14541D01*
X48284Y16569D01*
X48863Y18730D01*
D02*
G37*
G36*
X38730D02*
X31137D01*
X31716Y16569D01*
X32886Y14541D01*
X34541Y12886D01*
X36569Y11716D01*
X38730Y11137D01*
Y18730D01*
D02*
G37*
%LPD*%
D11*
X258000Y510127D02*
Y512000D01*
X260259Y403976D02*
Y507868D01*
X248000Y401000D02*
X257284D01*
X260259Y403976D01*
X258000Y510127D02*
X260259Y507868D01*
X1040200Y266000D02*
X1134000D01*
X1019100Y244900D02*
X1040200Y266000D01*
X1110600Y74525D02*
Y241924D01*
X1107624Y244900D02*
X1110600Y241924D01*
X1044500Y244900D02*
X1107624D01*
X1104000Y860000D02*
X1480473D01*
X981120Y737120D02*
X1104000Y860000D01*
X535111Y864603D02*
X589603D01*
X595000Y870000D01*
Y896600D01*
X657000Y266255D02*
X710745Y320000D01*
X822000D01*
X922000Y420000D01*
X787000Y540000D02*
X844125Y482875D01*
X879080D01*
X751000Y540000D02*
X787000D01*
X774000Y596000D02*
X861506Y508494D01*
X879080D01*
X751000Y596000D02*
X774000D01*
X836000Y310000D02*
X942000Y416000D01*
X721000Y310000D02*
X836000D01*
X673000Y262000D02*
X721000Y310000D01*
X878700Y737120D02*
X981120D01*
X1293000Y565000D02*
X1424000D01*
X1260000Y532000D02*
X1293000Y565000D01*
X1260000Y392000D02*
Y532000D01*
X1134000Y266000D02*
X1260000Y392000D01*
X1110600Y53400D02*
Y65045D01*
X1110069Y65577D02*
Y73994D01*
Y65577D02*
X1110600Y65045D01*
Y53400D02*
X1123000Y41000D01*
X1110069Y73994D02*
X1110600Y74525D01*
X1412000Y322000D02*
Y441581D01*
Y208000D02*
Y322000D01*
X1007000Y150000D02*
X1088000D01*
X983000Y174000D02*
X1007000Y150000D01*
X983000Y174000D02*
Y193000D01*
X1412000Y208000D02*
X1413000Y207000D01*
X1018000Y168000D02*
X1091000D01*
X1011000Y175000D02*
X1018000Y168000D01*
X1411679Y441903D02*
X1412000Y441581D01*
X929680Y559320D02*
X942000Y547000D01*
X878700Y559320D02*
X929680D01*
X942000Y416000D02*
Y547000D01*
X673000Y225255D02*
Y262000D01*
X657000Y209255D02*
X673000Y225255D01*
X910322Y533678D02*
X922000Y522000D01*
X879080Y533678D02*
X910322D01*
X922000Y420000D02*
Y522000D01*
D12*
X-109298Y1011524D02*
X-111837Y1014063D01*
Y1019141D01*
X-109298Y1021681D01*
X-106759D01*
X-104220Y1019141D01*
Y1016602D01*
Y1019141D01*
X-101681Y1021681D01*
X-99142D01*
X-96602Y1019141D01*
Y1014063D01*
X-99142Y1011524D01*
X-94063Y1029298D02*
X-96602Y1031837D01*
X-99142D01*
Y1029298D01*
X-96602D01*
Y1031837D01*
X-94063Y1029298D01*
X-91524Y1026759D01*
X-109298Y1041994D02*
X-111837Y1044533D01*
Y1049612D01*
X-109298Y1052151D01*
X-99142D01*
X-96602Y1049612D01*
Y1044533D01*
X-99142Y1041994D01*
X-109298D01*
Y36524D02*
X-111837Y39063D01*
Y44142D01*
X-109298Y46681D01*
X-106759D01*
X-104220Y44142D01*
Y41602D01*
Y44142D01*
X-101681Y46681D01*
X-99142D01*
X-96602Y44142D01*
Y39063D01*
X-99142Y36524D01*
X-94063Y54298D02*
X-96602Y56837D01*
X-99142D01*
Y54298D01*
X-96602D01*
Y56837D01*
X-94063Y54298D01*
X-91524Y51759D01*
X-109298Y66994D02*
X-111837Y69533D01*
Y74612D01*
X-109298Y77151D01*
X-99142D01*
X-96602Y74612D01*
Y69533D01*
X-99142Y66994D01*
X-109298D01*
X761657Y-343398D02*
X766735D01*
X764196D01*
Y-328163D01*
X761657Y-330702D01*
X784510Y-328163D02*
X779431Y-330702D01*
X774353Y-335780D01*
Y-340858D01*
X776892Y-343398D01*
X781971D01*
X784510Y-340858D01*
Y-338319D01*
X781971Y-335780D01*
X774353D01*
X789588Y-330702D02*
X792127Y-328163D01*
X797206D01*
X799745Y-330702D01*
Y-340858D01*
X797206Y-343398D01*
X792127D01*
X789588Y-340858D01*
Y-330702D01*
X807362Y-345937D02*
X809902Y-343398D01*
Y-340858D01*
X807362D01*
Y-343398D01*
X809902D01*
X807362Y-345937D01*
X804823Y-348476D01*
X820058Y-330702D02*
X822597Y-328163D01*
X827676D01*
X830215Y-330702D01*
Y-340858D01*
X827676Y-343398D01*
X822597D01*
X820058Y-340858D01*
Y-330702D01*
X-331969Y461657D02*
Y466735D01*
Y464196D01*
X-347204D01*
X-344665Y461657D01*
Y474353D02*
X-347204Y476892D01*
Y481970D01*
X-344665Y484510D01*
X-334509D01*
X-331969Y481970D01*
Y476892D01*
X-334509Y474353D01*
X-344665D01*
Y489588D02*
X-347204Y492127D01*
Y497206D01*
X-344665Y499745D01*
X-334509D01*
X-331969Y497206D01*
Y492127D01*
X-334509Y489588D01*
X-344665D01*
X-329430Y507362D02*
X-331969Y509902D01*
X-334509D01*
Y507362D01*
X-331969D01*
Y509902D01*
X-329430Y507362D01*
X-326891Y504823D01*
X-344665Y520058D02*
X-347204Y522597D01*
Y527676D01*
X-344665Y530215D01*
X-334509D01*
X-331969Y527676D01*
Y522597D01*
X-334509Y520058D01*
X-344665D01*
D15*
X721320Y686320D02*
X878700D01*
X835000Y351000D02*
X900000Y416000D01*
Y449000D01*
X878700Y457720D02*
X891280D01*
X900000Y449000D01*
X-0Y1000000D02*
X1600000D01*
X-0D02*
X0Y-0D01*
X1600000Y0D02*
Y1000000D01*
X1600000Y-0D02*
X1600000Y0D01*
X0Y-0D02*
X1600000D01*
X-100000Y1000000D02*
X-94920Y984760D01*
X-105080D02*
X-100000Y1000000D01*
X-105080Y985240D02*
X-100000Y970000D01*
X-94920Y985240D01*
X-100000Y985000D02*
Y1000000D01*
Y970000D02*
Y985000D01*
X-102540Y1000000D02*
X0D01*
X-102540Y970000D02*
X0D01*
X-110080Y15240D02*
X-105000Y0D01*
X-99920Y15240D01*
X-105000Y30000D02*
X-99920Y14760D01*
X-110080D02*
X-105000Y30000D01*
Y0D02*
Y15000D01*
Y30000D01*
X-107540Y0D02*
X-2540D01*
X-107540Y30000D02*
X0D01*
Y-331717D02*
X15240Y-326637D01*
X0Y-331717D02*
X15240Y-336797D01*
X1584760D02*
X1600000Y-331717D01*
X1584760Y-326637D02*
X1600000Y-331717D01*
X0D02*
X757593D01*
X834279D02*
X1600000D01*
X0Y-334257D02*
Y-2540D01*
X1600000Y-334257D02*
Y-2540D01*
X-348730Y15240D02*
X-343650Y0D01*
X-338570Y15240D01*
X-343650Y1000000D02*
X-338570Y984760D01*
X-348730D02*
X-343650Y1000000D01*
Y0D02*
Y457593D01*
Y534279D02*
Y1000000D01*
X-346190Y0D02*
X-2540D01*
X-346190Y1000000D02*
X-2540D01*
D49*
X190000Y369000D02*
D03*
D50*
Y330900D02*
D03*
X1206000Y657000D02*
D03*
X1550000Y980000D02*
D03*
X40000D02*
D03*
X800000D02*
D03*
Y20000D02*
D03*
X40000D02*
D03*
X1550000D02*
D03*
D51*
X247000Y369100D02*
D03*
D52*
Y331000D02*
D03*
D56*
X1212730Y545570D02*
D03*
Y532870D02*
D03*
D63*
X69000Y381000D02*
D03*
Y279000D02*
D03*
Y609000D02*
D03*
Y711000D02*
D03*
Y809000D02*
D03*
Y911000D02*
D03*
X1531000Y809000D02*
D03*
Y911000D02*
D03*
D64*
X120000Y305000D02*
D03*
Y635000D02*
D03*
Y835000D02*
D03*
X917500Y244900D02*
D03*
X942900Y219500D02*
D03*
Y244900D02*
D03*
X968300Y219500D02*
D03*
Y244900D02*
D03*
X993700Y219500D02*
D03*
Y244900D02*
D03*
X1019100Y219500D02*
D03*
Y244900D02*
D03*
X1044500Y219500D02*
D03*
Y244900D02*
D03*
X1212772Y61215D02*
D03*
X1179130Y581270D02*
D03*
Y611270D02*
D03*
X119600Y55000D02*
D03*
X94200D02*
D03*
X68800D02*
D03*
X1480000Y885000D02*
D03*
X595000Y896600D02*
D03*
X1505000Y609600D02*
D03*
D65*
X120000Y330000D02*
D03*
Y660000D02*
D03*
Y860000D02*
D03*
X917500Y219500D02*
D03*
X1238172Y61215D02*
D03*
X1153730Y581270D02*
D03*
Y611270D02*
D03*
X145000Y55000D02*
D03*
X1480000Y860000D02*
D03*
D66*
X878700Y762520D02*
D03*
Y737120D02*
D03*
Y711720D02*
D03*
Y686320D02*
D03*
Y660920D02*
D03*
Y635520D02*
D03*
Y610120D02*
D03*
Y584720D02*
D03*
Y559320D02*
D03*
X879080Y533678D02*
D03*
Y508494D02*
D03*
Y482875D02*
D03*
X878700Y457720D02*
D03*
Y432320D02*
D03*
X1081900Y762520D02*
D03*
Y737120D02*
D03*
Y711720D02*
D03*
Y686320D02*
D03*
Y660920D02*
D03*
Y635520D02*
D03*
Y610120D02*
D03*
Y584720D02*
D03*
X1082280Y559078D02*
D03*
Y533894D02*
D03*
Y508275D02*
D03*
X1081900Y483120D02*
D03*
Y457720D02*
D03*
D67*
Y432320D02*
D03*
D68*
X290900Y360900D02*
D03*
D69*
X316300D02*
D03*
X341700D02*
D03*
X367100D02*
D03*
X290900Y437100D02*
D03*
X316300D02*
D03*
X341700D02*
D03*
X367100D02*
D03*
D70*
X595000Y922000D02*
D03*
X1505000Y635000D02*
D03*
D71*
X371000Y402000D02*
D03*
X284000Y71000D02*
D03*
X248000Y401000D02*
D03*
X517506Y948494D02*
D03*
X1101000Y42000D02*
D03*
X1130000Y560000D02*
D03*
X715000Y710000D02*
D03*
X721320Y686320D02*
D03*
X584500Y693250D02*
D03*
X541500Y743250D02*
D03*
X597500Y765250D02*
D03*
X580500Y783250D02*
D03*
X664500Y793250D02*
D03*
X621500D02*
D03*
X640000Y666750D02*
D03*
X530000Y206000D02*
D03*
X665000Y630000D02*
D03*
X1360000Y625000D02*
D03*
X130000Y547500D02*
D03*
Y420000D02*
D03*
X1055000Y95000D02*
D03*
X1318000Y579000D02*
D03*
X1424000Y565000D02*
D03*
X1291000Y443500D02*
D03*
X1088000Y150000D02*
D03*
X1412000Y208000D02*
D03*
X1091000Y168000D02*
D03*
X1123000Y41000D02*
D03*
X1292500Y322500D02*
D03*
X1332500Y386500D02*
D03*
Y429000D02*
D03*
X1331000Y272500D02*
D03*
X1411679Y441903D02*
D03*
X1412000Y322000D02*
D03*
X983000Y193000D02*
D03*
X1011000Y175000D02*
D03*
X951000Y142500D02*
D03*
X912000Y187000D02*
D03*
X951500Y61500D02*
D03*
X951500Y115500D02*
D03*
X727000Y103000D02*
D03*
X1332500Y308500D02*
D03*
X1389500Y387500D02*
D03*
X1428500Y405500D02*
D03*
X835000Y351000D02*
D03*
X751000Y540000D02*
D03*
Y596000D02*
D03*
X199237Y703976D02*
D03*
X657000Y209255D02*
D03*
X736000Y468500D02*
D03*
X691000Y487000D02*
D03*
X699000Y369000D02*
D03*
X627000Y385000D02*
D03*
Y464000D02*
D03*
X705000Y346000D02*
D03*
X592500Y487500D02*
D03*
X565000Y425000D02*
D03*
X493000Y569000D02*
D03*
X515000Y568000D02*
D03*
X1401716Y596431D02*
D03*
X266000Y193000D02*
D03*
X393000D02*
D03*
X463000Y206000D02*
D03*
X405000Y317000D02*
D03*
X407000Y383000D02*
D03*
X258000Y512000D02*
D03*
X273000Y484000D02*
D03*
X477000Y425000D02*
D03*
Y453000D02*
D03*
X458000Y468000D02*
D03*
X174000Y843476D02*
D03*
X176000Y797000D02*
D03*
X311000Y858476D02*
D03*
X288000Y796000D02*
D03*
X657000Y266255D02*
D03*
X1434000Y526500D02*
D03*
X1433500Y290500D02*
D03*
X1293000Y207500D02*
D03*
X1389000Y272500D02*
D03*
X1333500Y193000D02*
D03*
X1332500Y508000D02*
D03*
X1389000Y508500D02*
D03*
X332237Y718976D02*
D03*
X310237Y658500D02*
D03*
X202237D02*
D03*
X1237000Y573000D02*
D03*
X1266730Y602270D02*
D03*
X535111Y864603D02*
D03*
X284116Y151228D02*
D03*
X185000Y170828D02*
D03*
X1120229Y69785D02*
D03*
X764000Y298000D02*
D03*
X1232000Y712500D02*
D03*
X560500Y237754D02*
D03*
X584000Y237255D02*
D03*
X164000Y110489D02*
D03*
X70500Y89989D02*
D03*
X115000Y145489D02*
D03*
X332230Y125770D02*
D03*
X381230Y154770D02*
D03*
X467494Y890000D02*
D03*
X421494Y860000D02*
D03*
D73*
X463000Y206000D02*
X530000D01*
X463000Y204282D02*
Y206000D01*
X459825Y201107D02*
X463000Y204282D01*
X459825Y199825D02*
Y201107D01*
X453000Y193000D02*
X459825Y199825D01*
X393000Y193000D02*
X453000D01*
X266000D02*
X393000D01*
X450000Y630000D02*
X665000D01*
X436280Y575000D02*
X440000Y578720D01*
Y620000D01*
X157500Y575000D02*
X436280D01*
X440000Y620000D02*
X450000Y630000D01*
X130000Y547500D02*
X157500Y575000D01*
X130000Y420000D02*
Y547500D01*
M02*
