G04*
G04 #@! TF.GenerationSoftware,Altium Limited,Altium Designer,22.5.1 (42)*
G04*
G04 Layer_Color=32896*
%FSLAX44Y44*%
%MOMM*%
G71*
G04*
G04 #@! TF.SameCoordinates,40384B85-564C-47B5-BA78-C0A8BA91D8EB*
G04*
G04*
G04 #@! TF.FilePolarity,Positive*
G04*
G01*
G75*
%ADD11C,0.5080*%
%ADD12C,0.1524*%
%ADD15C,0.2540*%
D11*
X798827Y190565D02*
G03*
X798827Y190565I-3810J0D01*
G01*
D12*
X-109298Y1011524D02*
X-111837Y1014063D01*
Y1019141D01*
X-109298Y1021681D01*
X-106759D01*
X-104220Y1019141D01*
Y1016602D01*
Y1019141D01*
X-101681Y1021681D01*
X-99142D01*
X-96602Y1019141D01*
Y1014063D01*
X-99142Y1011524D01*
X-94063Y1029298D02*
X-96602Y1031837D01*
X-99142D01*
Y1029298D01*
X-96602D01*
Y1031837D01*
X-94063Y1029298D01*
X-91524Y1026759D01*
X-109298Y1041994D02*
X-111837Y1044533D01*
Y1049612D01*
X-109298Y1052151D01*
X-99142D01*
X-96602Y1049612D01*
Y1044533D01*
X-99142Y1041994D01*
X-109298D01*
Y36524D02*
X-111837Y39063D01*
Y44142D01*
X-109298Y46681D01*
X-106759D01*
X-104220Y44142D01*
Y41602D01*
Y44142D01*
X-101681Y46681D01*
X-99142D01*
X-96602Y44142D01*
Y39063D01*
X-99142Y36524D01*
X-94063Y54298D02*
X-96602Y56837D01*
X-99142D01*
Y54298D01*
X-96602D01*
Y56837D01*
X-94063Y54298D01*
X-91524Y51759D01*
X-109298Y66994D02*
X-111837Y69533D01*
Y74612D01*
X-109298Y77151D01*
X-99142D01*
X-96602Y74612D01*
Y69533D01*
X-99142Y66994D01*
X-109298D01*
X761657Y-343398D02*
X766735D01*
X764196D01*
Y-328163D01*
X761657Y-330702D01*
X784510Y-328163D02*
X779431Y-330702D01*
X774353Y-335780D01*
Y-340858D01*
X776892Y-343398D01*
X781971D01*
X784510Y-340858D01*
Y-338319D01*
X781971Y-335780D01*
X774353D01*
X789588Y-330702D02*
X792127Y-328163D01*
X797206D01*
X799745Y-330702D01*
Y-340858D01*
X797206Y-343398D01*
X792127D01*
X789588Y-340858D01*
Y-330702D01*
X807362Y-345937D02*
X809902Y-343398D01*
Y-340858D01*
X807362D01*
Y-343398D01*
X809902D01*
X807362Y-345937D01*
X804823Y-348476D01*
X820058Y-330702D02*
X822597Y-328163D01*
X827676D01*
X830215Y-330702D01*
Y-340858D01*
X827676Y-343398D01*
X822597D01*
X820058Y-340858D01*
Y-330702D01*
X-331969Y461657D02*
Y466735D01*
Y464196D01*
X-347204D01*
X-344665Y461657D01*
Y474353D02*
X-347204Y476892D01*
Y481970D01*
X-344665Y484510D01*
X-334509D01*
X-331969Y481970D01*
Y476892D01*
X-334509Y474353D01*
X-344665D01*
Y489588D02*
X-347204Y492127D01*
Y497206D01*
X-344665Y499745D01*
X-334509D01*
X-331969Y497206D01*
Y492127D01*
X-334509Y489588D01*
X-344665D01*
X-329430Y507362D02*
X-331969Y509902D01*
X-334509D01*
Y507362D01*
X-331969D01*
Y509902D01*
X-329430Y507362D01*
X-326891Y504823D01*
X-344665Y520058D02*
X-347204Y522597D01*
Y527676D01*
X-344665Y530215D01*
X-334509D01*
X-331969Y527676D01*
Y522597D01*
X-334509Y520058D01*
X-344665D01*
D15*
X-0Y1000000D02*
X1600000D01*
X-0D02*
X0Y-0D01*
X1600000Y0D02*
Y1000000D01*
X1600000Y-0D02*
X1600000Y0D01*
X0Y-0D02*
X1600000D01*
X-100000Y1000000D02*
X-94920Y984760D01*
X-105080D02*
X-100000Y1000000D01*
X-105080Y985240D02*
X-100000Y970000D01*
X-94920Y985240D01*
X-100000Y985000D02*
Y1000000D01*
Y970000D02*
Y985000D01*
X-102540Y1000000D02*
X0D01*
X-102540Y970000D02*
X0D01*
X-110080Y15240D02*
X-105000Y0D01*
X-99920Y15240D01*
X-105000Y30000D02*
X-99920Y14760D01*
X-110080D02*
X-105000Y30000D01*
Y0D02*
Y15000D01*
Y30000D01*
X-107540Y0D02*
X-2540D01*
X-107540Y30000D02*
X0D01*
Y-331717D02*
X15240Y-326637D01*
X0Y-331717D02*
X15240Y-336797D01*
X1584760D02*
X1600000Y-331717D01*
X1584760Y-326637D02*
X1600000Y-331717D01*
X0D02*
X757593D01*
X834279D02*
X1600000D01*
X0Y-334257D02*
Y-2540D01*
X1600000Y-334257D02*
Y-2540D01*
X-348730Y15240D02*
X-343650Y0D01*
X-338570Y15240D01*
X-343650Y1000000D02*
X-338570Y984760D01*
X-348730D02*
X-343650Y1000000D01*
Y0D02*
Y457593D01*
Y534279D02*
Y1000000D01*
X-346190Y0D02*
X-2540D01*
X-346190Y1000000D02*
X-2540D01*
M02*
