%TF.GenerationSoftware,Altium Limited,Altium Designer,22.5.1 (42)*%
G04 Layer_Color=8388736*
%FSLAX44Y44*%
%MOMM*%
%TF.SameCoordinates,EDF0C4A9-A600-4E9B-A30B-1A7791E2F720*%
%TF.FilePolarity,Negative*%
%TF.FileFunction,Soldermask,Top*%
%TF.Part,Single*%
G01*
G75*
%TA.AperFunction,SMDPad,CuDef*%
%ADD11R,0.3548X0.7818*%
%ADD13R,0.9779X0.5080*%
%ADD15R,1.8542X2.1590*%
%ADD16R,1.3335X0.4318*%
%ADD17R,1.4612X0.3508*%
%ADD18R,1.4732X0.3556*%
%ADD19R,0.9906X2.2098*%
%ADD20R,0.6008X1.1112*%
%ADD21R,1.1112X0.6008*%
%ADD22R,2.2098X0.9906*%
%ADD23R,1.3858X0.4310*%
%ADD24R,1.7526X2.9464*%
%ADD25R,1.7780X1.9812*%
%ADD26R,1.3279X0.2794*%
%TA.AperFunction,ComponentPad*%
%ADD32C,1.4224*%
%ADD33R,1.4224X1.4224*%
%ADD40R,1.2700X1.2700*%
%ADD41C,1.2700*%
%ADD42C,1.1430*%
%ADD43R,1.1430X1.1430*%
%ADD46R,1.2700X1.1684*%
%ADD47O,1.2700X1.1684*%
%TA.AperFunction,NonConductor*%
%ADD53R,160.0000X3.0000*%
%TA.AperFunction,ComponentPad*%
%ADD54C,1.8032*%
%ADD55R,1.8032X1.8032*%
%ADD56C,1.7032*%
%ADD57R,1.7032X1.7032*%
%TA.AperFunction,SMDPad,CuDef*%
%ADD58C,1.7272*%
%TA.AperFunction,ComponentPad*%
%ADD59C,3.5032*%
%ADD60R,1.7032X1.7032*%
%ADD61C,1.7032*%
%ADD62R,1.7032X1.7032*%
%TA.AperFunction,ViaPad*%
%ADD63C,1.4732*%
%ADD64C,1.4032*%
%TA.AperFunction,SMDPad,CuDef*%
%ADD73R,1.3032X1.9032*%
%ADD74R,1.9032X1.3032*%
%ADD75R,1.4032X1.6032*%
G36*
X1600000Y970000D02*
X0D01*
Y1000000D01*
X1600000D01*
Y970000D01*
D02*
G37*
D11*
X765500Y572360D02*
D03*
X772000D02*
D03*
X778500D02*
D03*
Y593640D02*
D03*
X772000D02*
D03*
X765500D02*
D03*
X849250Y231110D02*
D03*
X855750D02*
D03*
X862250D02*
D03*
Y252390D02*
D03*
X855750D02*
D03*
X849250D02*
D03*
D13*
X462686Y443500D02*
D03*
Y453000D02*
D03*
Y462500D02*
D03*
X435381D02*
D03*
Y443500D02*
D03*
X238347Y841500D02*
D03*
Y832000D02*
D03*
Y822500D02*
D03*
X265652D02*
D03*
Y841500D02*
D03*
X289890Y702000D02*
D03*
Y683000D02*
D03*
X262584D02*
D03*
Y692500D02*
D03*
Y702000D02*
D03*
D15*
X1428229Y96785D02*
D03*
D16*
X1450390Y106535D02*
D03*
Y100035D02*
D03*
Y93535D02*
D03*
Y87035D02*
D03*
X1406067D02*
D03*
Y93535D02*
D03*
Y100035D02*
D03*
Y106535D02*
D03*
D17*
X640750Y753000D02*
D03*
Y746500D02*
D03*
Y740000D02*
D03*
Y733500D02*
D03*
Y727000D02*
D03*
Y720500D02*
D03*
Y714000D02*
D03*
Y707500D02*
D03*
X584250D02*
D03*
Y714000D02*
D03*
Y720500D02*
D03*
Y727000D02*
D03*
Y733500D02*
D03*
Y740000D02*
D03*
Y746500D02*
D03*
Y753000D02*
D03*
D18*
X758210Y444750D02*
D03*
Y438250D02*
D03*
Y431750D02*
D03*
Y425250D02*
D03*
Y418750D02*
D03*
Y412250D02*
D03*
Y405750D02*
D03*
Y399250D02*
D03*
X699790D02*
D03*
Y405750D02*
D03*
Y412250D02*
D03*
Y418750D02*
D03*
Y425250D02*
D03*
Y431750D02*
D03*
Y438250D02*
D03*
Y444750D02*
D03*
D19*
X266000Y295000D02*
D03*
X316800D02*
D03*
X342200D02*
D03*
X367600D02*
D03*
X393000D02*
D03*
Y215000D02*
D03*
X367600D02*
D03*
X342200D02*
D03*
X316800D02*
D03*
X266000D02*
D03*
D20*
X427000Y250250D02*
D03*
Y215750D02*
D03*
X449000Y260250D02*
D03*
Y225750D02*
D03*
D21*
X214250Y614000D02*
D03*
X179750D02*
D03*
X214250Y595000D02*
D03*
X179750D02*
D03*
D22*
X240000Y547000D02*
D03*
Y496200D02*
D03*
Y470800D02*
D03*
Y445400D02*
D03*
Y420000D02*
D03*
X160000D02*
D03*
Y445400D02*
D03*
Y470800D02*
D03*
Y496200D02*
D03*
Y547000D02*
D03*
D23*
X315156Y150739D02*
D03*
Y144239D02*
D03*
Y137739D02*
D03*
Y131239D02*
D03*
Y124739D02*
D03*
Y118239D02*
D03*
X358844D02*
D03*
Y124739D02*
D03*
Y131239D02*
D03*
Y137739D02*
D03*
Y144239D02*
D03*
Y150739D02*
D03*
D24*
X337000Y134489D02*
D03*
D25*
X619000Y131000D02*
D03*
X467494Y890000D02*
D03*
D26*
X641133Y141000D02*
D03*
Y136000D02*
D03*
Y131000D02*
D03*
Y126000D02*
D03*
Y121000D02*
D03*
X596867D02*
D03*
Y126000D02*
D03*
Y131000D02*
D03*
Y136000D02*
D03*
Y141000D02*
D03*
X445360Y880000D02*
D03*
Y885000D02*
D03*
Y890000D02*
D03*
Y895000D02*
D03*
Y900000D02*
D03*
X489627D02*
D03*
Y895000D02*
D03*
Y890000D02*
D03*
Y885000D02*
D03*
Y880000D02*
D03*
D32*
X1500730Y465470D02*
D03*
Y492370D02*
D03*
D33*
Y519270D02*
D03*
D40*
X190000Y369000D02*
D03*
D41*
Y330900D02*
D03*
D42*
X247000Y369100D02*
D03*
D43*
Y331000D02*
D03*
D46*
X1472772Y421615D02*
D03*
D47*
Y408915D02*
D03*
Y396215D02*
D03*
D53*
X800000Y15000D02*
D03*
D54*
X1118700Y627520D02*
D03*
Y602120D02*
D03*
Y576720D02*
D03*
Y551320D02*
D03*
Y525920D02*
D03*
Y500520D02*
D03*
Y475120D02*
D03*
Y449720D02*
D03*
Y424320D02*
D03*
X1119080Y398678D02*
D03*
Y373494D02*
D03*
Y347875D02*
D03*
X1118700Y322720D02*
D03*
Y297320D02*
D03*
X1321900Y627520D02*
D03*
Y602120D02*
D03*
Y576720D02*
D03*
Y551320D02*
D03*
Y525920D02*
D03*
Y500520D02*
D03*
Y475120D02*
D03*
Y449720D02*
D03*
X1322280Y424078D02*
D03*
Y398894D02*
D03*
Y373275D02*
D03*
X1321900Y348120D02*
D03*
Y322720D02*
D03*
D55*
Y297320D02*
D03*
D56*
X1520772Y88215D02*
D03*
X120000Y305000D02*
D03*
Y635000D02*
D03*
Y835000D02*
D03*
X1439172Y444615D02*
D03*
Y474615D02*
D03*
X506600Y74000D02*
D03*
X481200D02*
D03*
X455800D02*
D03*
X1479000Y827000D02*
D03*
X595000Y896600D02*
D03*
D57*
X1546172Y88215D02*
D03*
X120000Y330000D02*
D03*
Y660000D02*
D03*
Y860000D02*
D03*
X1413772Y444615D02*
D03*
Y474615D02*
D03*
X532000Y74000D02*
D03*
X1479000Y802000D02*
D03*
D58*
X1414270Y222730D02*
D03*
Y182730D02*
D03*
X435000Y800000D02*
D03*
X475000D02*
D03*
X689270Y223270D02*
D03*
Y183270D02*
D03*
X174730Y150270D02*
D03*
Y190270D02*
D03*
D59*
X69000Y381000D02*
D03*
Y279000D02*
D03*
Y609000D02*
D03*
Y711000D02*
D03*
Y809000D02*
D03*
Y911000D02*
D03*
X1530000Y751000D02*
D03*
Y853000D02*
D03*
D60*
X290900Y360900D02*
D03*
D61*
X316300D02*
D03*
X341700D02*
D03*
X367100D02*
D03*
X290900Y437100D02*
D03*
X316300D02*
D03*
X341700D02*
D03*
X367100D02*
D03*
D62*
X595000Y922000D02*
D03*
D63*
X916000Y213000D02*
D03*
X915808Y270000D02*
D03*
X729500Y583000D02*
D03*
X820000Y616000D02*
D03*
Y553000D02*
D03*
X405000Y508000D02*
D03*
X1470000Y309000D02*
D03*
X946000Y563000D02*
D03*
X1466042Y520345D02*
D03*
X1550000Y980000D02*
D03*
X40000D02*
D03*
X800000D02*
D03*
Y20000D02*
D03*
X40000D02*
D03*
X1550000D02*
D03*
D64*
X811500Y241500D02*
D03*
X395500Y426500D02*
D03*
X435033Y383000D02*
D03*
X505033Y425000D02*
D03*
Y453000D02*
D03*
X486033Y468000D02*
D03*
X790000Y310000D02*
D03*
X1409000Y69000D02*
D03*
X1363000Y122000D02*
D03*
X1431000Y68000D02*
D03*
X1428229Y96785D02*
D03*
X570770Y76230D02*
D03*
X248000Y401000D02*
D03*
X517506Y948494D02*
D03*
X1390042Y423345D02*
D03*
X715000Y710000D02*
D03*
X721320Y686320D02*
D03*
X584500Y693250D02*
D03*
X541500Y743250D02*
D03*
X597500Y765250D02*
D03*
X580500Y783250D02*
D03*
X664500Y793250D02*
D03*
X621500D02*
D03*
X640000Y666750D02*
D03*
X665000Y630000D02*
D03*
X130000Y547500D02*
D03*
Y420000D02*
D03*
X199237Y703976D02*
D03*
X822000Y468500D02*
D03*
X777000Y487000D02*
D03*
X785000Y369000D02*
D03*
X713000Y385000D02*
D03*
Y464000D02*
D03*
X791000Y346000D02*
D03*
X678500Y487500D02*
D03*
X651000Y425000D02*
D03*
X266000Y193000D02*
D03*
X393000D02*
D03*
X463000Y206000D02*
D03*
X405000Y317000D02*
D03*
X258000Y512000D02*
D03*
X273000Y484000D02*
D03*
X174000Y843476D02*
D03*
X176000Y797000D02*
D03*
X311000Y858476D02*
D03*
X288000Y796000D02*
D03*
X332237Y718976D02*
D03*
X310237Y658500D02*
D03*
X202237D02*
D03*
X1497042Y436345D02*
D03*
X535111Y864603D02*
D03*
X570886Y156458D02*
D03*
X407000Y159828D02*
D03*
X1472000Y577000D02*
D03*
X386000Y99489D02*
D03*
X292500Y78989D02*
D03*
X337000Y134489D02*
D03*
X619000Y131000D02*
D03*
X668000Y160000D02*
D03*
X467494Y890000D02*
D03*
X421494Y860000D02*
D03*
D73*
X349500Y771000D02*
D03*
X322500D02*
D03*
X375500Y625000D02*
D03*
X348500D02*
D03*
X729500Y616000D02*
D03*
X756500D02*
D03*
X730500Y552754D02*
D03*
X757499D02*
D03*
X798500Y616000D02*
D03*
X771500D02*
D03*
X799500Y553000D02*
D03*
X772500D02*
D03*
X811500Y270000D02*
D03*
X838500D02*
D03*
X811500Y213000D02*
D03*
X838500D02*
D03*
X883500Y213000D02*
D03*
X856500D02*
D03*
X855500Y270000D02*
D03*
X882500D02*
D03*
X435533Y484000D02*
D03*
X462533D02*
D03*
Y405000D02*
D03*
X489533D02*
D03*
X1383500Y309000D02*
D03*
X1410500D02*
D03*
X1383500Y284000D02*
D03*
X1410500D02*
D03*
X1389500Y577000D02*
D03*
X1416500D02*
D03*
X613000Y689250D02*
D03*
X640000D02*
D03*
X730500Y464000D02*
D03*
X757500D02*
D03*
X730500Y487000D02*
D03*
X757500D02*
D03*
X651500Y467000D02*
D03*
X678500D02*
D03*
X651500Y445000D02*
D03*
X678500D02*
D03*
X761500Y382000D02*
D03*
X734500D02*
D03*
X761500Y360000D02*
D03*
X734500D02*
D03*
X394500Y336000D02*
D03*
X367500D02*
D03*
X393500Y361000D02*
D03*
X420500D02*
D03*
X368500Y463000D02*
D03*
X341500D02*
D03*
X289500Y484000D02*
D03*
X316500D02*
D03*
X289500Y463000D02*
D03*
X316500D02*
D03*
X238500Y797000D02*
D03*
X265500D02*
D03*
X220500D02*
D03*
X193500D02*
D03*
X219737Y658500D02*
D03*
X246737D02*
D03*
X289737D02*
D03*
X262737D02*
D03*
X363500Y78489D02*
D03*
X336500D02*
D03*
Y99489D02*
D03*
X363500D02*
D03*
X292500D02*
D03*
X319500D02*
D03*
X597500Y97000D02*
D03*
X570500D02*
D03*
X614500Y78000D02*
D03*
X641500D02*
D03*
Y99000D02*
D03*
X614500D02*
D03*
Y160000D02*
D03*
X641500D02*
D03*
X490500Y926000D02*
D03*
X517500D02*
D03*
X444994Y922000D02*
D03*
X471994D02*
D03*
Y943000D02*
D03*
X444994D02*
D03*
X471994Y860000D02*
D03*
X444994D02*
D03*
D74*
X405000Y489500D02*
D03*
Y462500D02*
D03*
X435033Y426500D02*
D03*
Y399500D02*
D03*
X486033Y452500D02*
D03*
Y425500D02*
D03*
X1386229Y106285D02*
D03*
Y79285D02*
D03*
X1363229Y106285D02*
D03*
Y79285D02*
D03*
X1470229Y107285D02*
D03*
Y80285D02*
D03*
X540500Y727750D02*
D03*
Y700750D02*
D03*
X562500Y727750D02*
D03*
Y700750D02*
D03*
Y756750D02*
D03*
Y783750D02*
D03*
X641500Y792750D02*
D03*
Y765750D02*
D03*
X663500Y676750D02*
D03*
Y703750D02*
D03*
X664500Y749750D02*
D03*
Y776750D02*
D03*
X689500Y733750D02*
D03*
Y760750D02*
D03*
X801000Y468500D02*
D03*
Y441500D02*
D03*
X779000Y468500D02*
D03*
Y441500D02*
D03*
X680000Y388500D02*
D03*
Y415500D02*
D03*
X785000Y385500D02*
D03*
Y412500D02*
D03*
X163000Y330500D02*
D03*
Y357500D02*
D03*
X218000Y330500D02*
D03*
Y357500D02*
D03*
X311000Y842500D02*
D03*
Y815500D02*
D03*
X288000Y842500D02*
D03*
Y815500D02*
D03*
X217000Y843500D02*
D03*
Y816500D02*
D03*
X194000Y843500D02*
D03*
Y816500D02*
D03*
X219237Y677000D02*
D03*
Y704000D02*
D03*
X241237Y677000D02*
D03*
Y704000D02*
D03*
X332237Y676000D02*
D03*
Y703000D02*
D03*
X310237Y676000D02*
D03*
Y703000D02*
D03*
X1412772Y396115D02*
D03*
Y423115D02*
D03*
X1466042Y474845D02*
D03*
Y501845D02*
D03*
X1439772Y423115D02*
D03*
Y396115D02*
D03*
X386000Y143989D02*
D03*
Y116989D02*
D03*
X407000Y143989D02*
D03*
Y116989D02*
D03*
X292000Y149989D02*
D03*
Y122989D02*
D03*
X667000Y114500D02*
D03*
Y141500D02*
D03*
X571000Y114500D02*
D03*
Y141500D02*
D03*
X517494Y905500D02*
D03*
Y878500D02*
D03*
X421494Y906500D02*
D03*
Y879500D02*
D03*
D75*
X1435000Y309000D02*
D03*
X1453000D02*
D03*
X1435000Y284000D02*
D03*
X1453000D02*
D03*
X1437000Y577000D02*
D03*
X1455000D02*
D03*
%TF.MD5,07b60df73fd24db14448954b294d3d1b*%
M02*
