G04*
G04 #@! TF.GenerationSoftware,Altium Limited,Altium Designer,22.5.1 (42)*
G04*
G04 Layer_Physical_Order=3*
G04 Layer_Color=16440176*
%FSLAX44Y44*%
%MOMM*%
G71*
G04*
G04 #@! TF.SameCoordinates,40384B85-564C-47B5-BA78-C0A8BA91D8EB*
G04*
G04*
G04 #@! TF.FilePolarity,Positive*
G04*
G01*
G75*
%ADD12C,0.1524*%
%ADD15C,0.2540*%
%ADD50C,1.2700*%
%ADD64C,1.5000*%
%ADD65R,1.5000X1.5000*%
%ADD69C,1.5000*%
%ADD71C,1.2000*%
%ADD72C,1.5240*%
G36*
X350000Y830000D02*
X339960Y819960D01*
X260040D01*
X210000Y870000D01*
X160000D01*
X150000Y860000D01*
Y780000D01*
X160000Y770000D01*
X350000D01*
X370000Y750000D01*
Y700000D01*
X360000Y690000D01*
X290000D01*
X260000Y720000D01*
X190000D01*
X170000Y700000D01*
Y520000D01*
X190000Y500000D01*
X380000D01*
X400000Y480000D01*
Y384963D01*
X399730Y383957D01*
Y382043D01*
X400000Y381036D01*
Y350000D01*
X390000Y340000D01*
X370000Y340000D01*
X360000Y330000D01*
Y300000D01*
X340000Y280000D01*
X240000Y280000D01*
X220000Y260000D01*
Y130000D01*
X210000Y120000D01*
X140000Y120000D01*
Y150000D01*
X130000Y160000D01*
X0Y160000D01*
X-0Y1000000D01*
X350000D01*
X350000Y830000D01*
D02*
G37*
G36*
X259068Y818988D02*
X260040Y818585D01*
X260040Y818585D01*
X339960D01*
X340932Y818988D01*
X350972Y829028D01*
X351375Y830000D01*
X400000D01*
X410000Y820000D01*
Y650000D01*
X430000Y630000D01*
X460000D01*
X480000Y610000D01*
Y510000D01*
X500000Y490000D01*
Y0D01*
X320000D01*
Y160000D01*
X310000Y170000D01*
X221375D01*
Y259431D01*
X240569Y278625D01*
X340000Y278625D01*
X340000Y278625D01*
X340972Y279028D01*
X360972Y299028D01*
X361375Y300000D01*
X361375Y300000D01*
Y329431D01*
X370569Y338625D01*
X390000Y338625D01*
X390000Y338625D01*
X390972Y339028D01*
X400972Y349028D01*
X401375Y350000D01*
X401375Y350000D01*
Y376701D01*
X401866Y376905D01*
X402645Y377120D01*
X404194Y376225D01*
X406043Y375730D01*
X407957D01*
X409806Y376225D01*
X411464Y377182D01*
X412818Y378536D01*
X413775Y380194D01*
X414270Y382043D01*
Y383957D01*
X413775Y385806D01*
X412818Y387464D01*
X411464Y388817D01*
X409806Y389774D01*
X407957Y390270D01*
X406043D01*
X404194Y389774D01*
X402645Y388880D01*
X401866Y389095D01*
X401375Y389299D01*
Y480000D01*
X400972Y480972D01*
X400972Y480972D01*
X380972Y500972D01*
X380000Y501375D01*
X380000Y501375D01*
X190569D01*
X171375Y520569D01*
Y699431D01*
X190569Y718625D01*
X259431D01*
X289028Y689028D01*
X290000Y688625D01*
X290000Y688625D01*
X360000D01*
X360972Y689028D01*
X360972Y689028D01*
X370972Y699028D01*
X371375Y700000D01*
X371375Y700000D01*
Y750000D01*
X371375Y750000D01*
X370972Y750972D01*
X350972Y770972D01*
X350000Y771375D01*
X350000Y771375D01*
X160569D01*
X151375Y780569D01*
Y859431D01*
X160569Y868625D01*
X209431D01*
X259068Y818988D01*
D02*
G37*
G36*
X640000Y674020D02*
X639043D01*
X637194Y673524D01*
X635536Y672567D01*
X634183Y671214D01*
X633225Y669556D01*
X632730Y667707D01*
Y665793D01*
X633225Y663944D01*
X634183Y662286D01*
X635536Y660932D01*
X637194Y659975D01*
X639043Y659480D01*
X640000D01*
X640000Y420000D01*
X630000Y410000D01*
X501375D01*
Y490000D01*
X500972Y490972D01*
X500972Y490972D01*
X481375Y510569D01*
Y610000D01*
X481375Y610000D01*
X480972Y610972D01*
X480972Y610972D01*
X460972Y630972D01*
X460000Y631375D01*
X460000Y631375D01*
X430569D01*
X411375Y650569D01*
Y820000D01*
X411375Y820000D01*
X410972Y820972D01*
X400972Y830972D01*
X400000Y831375D01*
X400000Y831375D01*
X351375D01*
X351375Y831375D01*
X351375Y998730D01*
X352644Y1000000D01*
X640000D01*
X640000Y674020D01*
D02*
G37*
G36*
X1600000Y0D02*
X1090000D01*
Y143009D01*
X1090806Y143225D01*
X1092464Y144183D01*
X1093817Y145536D01*
X1094775Y147194D01*
X1095270Y149043D01*
Y150957D01*
X1094775Y152806D01*
X1093817Y154464D01*
X1092464Y155817D01*
X1090806Y156775D01*
X1090000Y156991D01*
Y160697D01*
X1090043Y160730D01*
X1091957D01*
X1093806Y161225D01*
X1095464Y162183D01*
X1096817Y163536D01*
X1097775Y165194D01*
X1098270Y167043D01*
Y168957D01*
X1097775Y170806D01*
X1096817Y172464D01*
X1095464Y173817D01*
X1093806Y174775D01*
X1091957Y175270D01*
X1090043D01*
X1090000Y175303D01*
Y180000D01*
X1070000Y200000D01*
X984965D01*
X983957Y200270D01*
X982043D01*
X981035Y200000D01*
X720000Y200000D01*
X700000Y180000D01*
Y0D01*
X501375D01*
Y408625D01*
X630000D01*
X630000Y408625D01*
X630972Y409028D01*
X640972Y419028D01*
X641375Y420000D01*
X641375Y420000D01*
X641375Y659480D01*
X641438Y659609D01*
X642806Y659975D01*
X644464Y660932D01*
X645817Y662286D01*
X646774Y663944D01*
X647270Y665793D01*
Y667707D01*
X646774Y669556D01*
X645817Y671214D01*
X644464Y672567D01*
X642806Y673524D01*
X641438Y673891D01*
X641375Y674020D01*
X641375Y1000000D01*
X1600000D01*
Y0D01*
D02*
G37*
G36*
X318625Y159431D02*
Y0D01*
X108875D01*
Y51328D01*
X110145Y51495D01*
X110244Y51125D01*
X111566Y48835D01*
X113435Y46966D01*
X115724Y45644D01*
X118278Y44960D01*
X118330D01*
Y55000D01*
Y65040D01*
X118278D01*
X115724Y64356D01*
X113435Y63034D01*
X111566Y61165D01*
X110244Y58875D01*
X110145Y58505D01*
X108875Y58672D01*
Y111931D01*
X115569Y118625D01*
X138625D01*
X139313Y118910D01*
X140000Y118625D01*
X161370Y118625D01*
X161537Y117355D01*
X161194Y117263D01*
X159536Y116306D01*
X158182Y114953D01*
X157225Y113295D01*
X156730Y111446D01*
Y109532D01*
X157225Y107683D01*
X158182Y106025D01*
X159536Y104671D01*
X161194Y103714D01*
X163043Y103219D01*
X164957D01*
X166806Y103714D01*
X168464Y104671D01*
X169817Y106025D01*
X170774Y107683D01*
X171270Y109532D01*
Y111446D01*
X170774Y113295D01*
X169817Y114953D01*
X168464Y116306D01*
X166806Y117263D01*
X166463Y117355D01*
X166630Y118625D01*
X210000Y118625D01*
X210000Y118625D01*
X210972Y119028D01*
X210972Y119028D01*
X220972Y129028D01*
X221375Y130000D01*
X221375Y130000D01*
Y168625D01*
X309431D01*
X318625Y159431D01*
D02*
G37*
G36*
X976702Y198625D02*
X976904Y198137D01*
X977120Y197355D01*
X976225Y195806D01*
X975730Y193957D01*
Y192043D01*
X976225Y190194D01*
X977183Y188536D01*
X978536Y187183D01*
X980194Y186225D01*
X982043Y185730D01*
X983957D01*
X985806Y186225D01*
X987464Y187183D01*
X988817Y188536D01*
X989775Y190194D01*
X990270Y192043D01*
Y193957D01*
X989775Y195806D01*
X988880Y197355D01*
X989096Y198137D01*
X989298Y198625D01*
X1069431D01*
X1088625Y179431D01*
Y175303D01*
X1088291Y174893D01*
X1087578Y174419D01*
X1086536Y173817D01*
X1085183Y172464D01*
X1084225Y170806D01*
X1083730Y168957D01*
Y167043D01*
X1084225Y165194D01*
X1085183Y163536D01*
X1086536Y162183D01*
X1088194Y161225D01*
X1088625Y160697D01*
Y157270D01*
X1087043D01*
X1085194Y156775D01*
X1083536Y155817D01*
X1082183Y154464D01*
X1081225Y152806D01*
X1080730Y150957D01*
Y149043D01*
X1081225Y147194D01*
X1082183Y145536D01*
X1083536Y144183D01*
X1085194Y143225D01*
X1087043Y142730D01*
X1088625D01*
Y0D01*
X701375D01*
Y179431D01*
X720569Y198625D01*
X976702Y198625D01*
D02*
G37*
G36*
X138625Y149431D02*
Y120000D01*
X115000D01*
X107500Y112500D01*
Y0D01*
X0D01*
Y158625D01*
X0Y158625D01*
X129431Y158625D01*
X138625Y149431D01*
D02*
G37*
%LPC*%
G36*
X41003Y987620D02*
X38997D01*
X37059Y987101D01*
X35321Y986097D01*
X33902Y984679D01*
X32899Y982941D01*
X32380Y981003D01*
Y978997D01*
X32899Y977059D01*
X33902Y975321D01*
X35321Y973903D01*
X37059Y972899D01*
X38997Y972380D01*
X41003D01*
X42941Y972899D01*
X44679Y973903D01*
X46097Y975321D01*
X47101Y977059D01*
X47620Y978997D01*
Y981003D01*
X47101Y982941D01*
X46097Y984679D01*
X44679Y986097D01*
X42941Y987101D01*
X41003Y987620D01*
D02*
G37*
G36*
X70750Y928770D02*
X67250D01*
X63817Y928087D01*
X60583Y926748D01*
X57672Y924803D01*
X55197Y922328D01*
X53252Y919417D01*
X51913Y916184D01*
X51230Y912750D01*
Y909250D01*
X51913Y905817D01*
X53252Y902583D01*
X55197Y899672D01*
X57672Y897197D01*
X60583Y895253D01*
X63817Y893913D01*
X67250Y893230D01*
X70750D01*
X74183Y893913D01*
X77417Y895253D01*
X80328Y897197D01*
X82803Y899672D01*
X84747Y902583D01*
X86087Y905817D01*
X86770Y909250D01*
Y912750D01*
X86087Y916184D01*
X84747Y919417D01*
X82803Y922328D01*
X80328Y924803D01*
X77417Y926748D01*
X74183Y928087D01*
X70750Y928770D01*
D02*
G37*
G36*
X312270Y866976D02*
Y859746D01*
X319501D01*
X318958Y861772D01*
X317834Y863719D01*
X316244Y865309D01*
X314296Y866434D01*
X312270Y866976D01*
D02*
G37*
G36*
X309730D02*
X307704Y866434D01*
X305756Y865309D01*
X304166Y863719D01*
X303042Y861772D01*
X302499Y859746D01*
X309730D01*
Y866976D01*
D02*
G37*
G36*
X128770Y868770D02*
X111230D01*
Y851230D01*
X128770D01*
Y868770D01*
D02*
G37*
G36*
X319501Y857206D02*
X312270D01*
Y849975D01*
X314296Y850518D01*
X316244Y851642D01*
X317834Y853232D01*
X318958Y855179D01*
X319501Y857206D01*
D02*
G37*
G36*
X309730D02*
X302499D01*
X303042Y855179D01*
X304166Y853232D01*
X305756Y851642D01*
X307704Y850518D01*
X309730Y849975D01*
Y857206D01*
D02*
G37*
G36*
X121155Y843770D02*
X118846D01*
X116615Y843172D01*
X114615Y842018D01*
X112982Y840385D01*
X111828Y838385D01*
X111230Y836154D01*
Y833845D01*
X111828Y831615D01*
X112982Y829615D01*
X114615Y827982D01*
X116615Y826828D01*
X118846Y826230D01*
X121155D01*
X123385Y826828D01*
X125385Y827982D01*
X127018Y829615D01*
X128172Y831615D01*
X128770Y833845D01*
Y836154D01*
X128172Y838385D01*
X127018Y840385D01*
X125385Y842018D01*
X123385Y843172D01*
X121155Y843770D01*
D02*
G37*
G36*
X70750Y826770D02*
X67250D01*
X63817Y826087D01*
X60583Y824747D01*
X57672Y822803D01*
X55197Y820328D01*
X53252Y817417D01*
X51913Y814183D01*
X51230Y810750D01*
Y807250D01*
X51913Y803817D01*
X53252Y800583D01*
X55197Y797672D01*
X57672Y795197D01*
X60583Y793252D01*
X63817Y791913D01*
X67250Y791230D01*
X70750D01*
X74183Y791913D01*
X77417Y793252D01*
X80328Y795197D01*
X82803Y797672D01*
X84747Y800583D01*
X86087Y803817D01*
X86770Y807250D01*
Y810750D01*
X86087Y814183D01*
X84747Y817417D01*
X82803Y820328D01*
X80328Y822803D01*
X77417Y824747D01*
X74183Y826087D01*
X70750Y826770D01*
D02*
G37*
G36*
X333507Y727477D02*
Y720246D01*
X340738D01*
X340195Y722272D01*
X339071Y724219D01*
X337481Y725809D01*
X335533Y726934D01*
X333507Y727477D01*
D02*
G37*
G36*
X330967D02*
X328941Y726934D01*
X326993Y725809D01*
X325403Y724219D01*
X324279Y722272D01*
X323736Y720246D01*
X330967D01*
Y727477D01*
D02*
G37*
G36*
X340738Y717706D02*
X333507D01*
Y710475D01*
X335533Y711018D01*
X337481Y712142D01*
X339071Y713732D01*
X340195Y715679D01*
X340738Y717706D01*
D02*
G37*
G36*
X330967D02*
X323736D01*
X324279Y715679D01*
X325403Y713732D01*
X326993Y712142D01*
X328941Y711018D01*
X330967Y710475D01*
Y717706D01*
D02*
G37*
G36*
X70750Y728770D02*
X67250D01*
X63817Y728087D01*
X60583Y726748D01*
X57672Y724803D01*
X55197Y722328D01*
X53252Y719417D01*
X51913Y716183D01*
X51230Y712750D01*
Y709250D01*
X51913Y705817D01*
X53252Y702583D01*
X55197Y699672D01*
X57672Y697197D01*
X60583Y695253D01*
X63817Y693913D01*
X67250Y693230D01*
X70750D01*
X74183Y693913D01*
X77417Y695253D01*
X80328Y697197D01*
X82803Y699672D01*
X84747Y702583D01*
X86087Y705817D01*
X86770Y709250D01*
Y712750D01*
X86087Y716183D01*
X84747Y719417D01*
X82803Y722328D01*
X80328Y724803D01*
X77417Y726748D01*
X74183Y728087D01*
X70750Y728770D01*
D02*
G37*
G36*
X128770Y668770D02*
X111230D01*
Y651230D01*
X128770D01*
Y668770D01*
D02*
G37*
G36*
X121155Y643770D02*
X118846D01*
X116615Y643172D01*
X114615Y642018D01*
X112982Y640385D01*
X111828Y638385D01*
X111230Y636154D01*
Y633845D01*
X111828Y631615D01*
X112982Y629615D01*
X114615Y627982D01*
X116615Y626828D01*
X118846Y626230D01*
X121155D01*
X123385Y626828D01*
X125385Y627982D01*
X127018Y629615D01*
X128172Y631615D01*
X128770Y633845D01*
Y636154D01*
X128172Y638385D01*
X127018Y640385D01*
X125385Y642018D01*
X123385Y643172D01*
X121155Y643770D01*
D02*
G37*
G36*
X70750Y626770D02*
X67250D01*
X63817Y626087D01*
X60583Y624747D01*
X57672Y622803D01*
X55197Y620328D01*
X53252Y617417D01*
X51913Y614183D01*
X51230Y610750D01*
Y607250D01*
X51913Y603816D01*
X53252Y600583D01*
X55197Y597672D01*
X57672Y595197D01*
X60583Y593252D01*
X63817Y591913D01*
X67250Y591230D01*
X70750D01*
X74183Y591913D01*
X77417Y593252D01*
X80328Y595197D01*
X82803Y597672D01*
X84747Y600583D01*
X86087Y603816D01*
X86770Y607250D01*
Y610750D01*
X86087Y614183D01*
X84747Y617417D01*
X82803Y620328D01*
X80328Y622803D01*
X77417Y624747D01*
X74183Y626087D01*
X70750Y626770D01*
D02*
G37*
G36*
X130957Y554770D02*
X129043D01*
X127194Y554275D01*
X125536Y553317D01*
X124183Y551964D01*
X123225Y550306D01*
X122730Y548457D01*
Y546543D01*
X123225Y544694D01*
X124183Y543036D01*
X125536Y541683D01*
X127194Y540725D01*
X129043Y540230D01*
X130957D01*
X132806Y540725D01*
X134464Y541683D01*
X135817Y543036D01*
X136775Y544694D01*
X137270Y546543D01*
Y548457D01*
X136775Y550306D01*
X135817Y551964D01*
X134464Y553317D01*
X132806Y554275D01*
X130957Y554770D01*
D02*
G37*
G36*
X273957Y491270D02*
X272043D01*
X270194Y490774D01*
X268536Y489817D01*
X267183Y488464D01*
X266225Y486806D01*
X265730Y484957D01*
Y483043D01*
X266225Y481194D01*
X267183Y479536D01*
X268536Y478182D01*
X270194Y477225D01*
X272043Y476730D01*
X273957D01*
X275806Y477225D01*
X277464Y478182D01*
X278818Y479536D01*
X279775Y481194D01*
X280270Y483043D01*
Y484957D01*
X279775Y486806D01*
X278818Y488464D01*
X277464Y489817D01*
X275806Y490774D01*
X273957Y491270D01*
D02*
G37*
G36*
X317622Y447140D02*
X317570D01*
Y438370D01*
X326340D01*
Y438422D01*
X325656Y440975D01*
X324334Y443265D01*
X322465Y445134D01*
X320175Y446455D01*
X317622Y447140D01*
D02*
G37*
G36*
X315030D02*
X314978D01*
X312425Y446455D01*
X310135Y445134D01*
X308266Y443265D01*
X306944Y440975D01*
X306260Y438422D01*
Y438370D01*
X315030D01*
Y447140D01*
D02*
G37*
G36*
X368255Y445870D02*
X365945D01*
X363715Y445272D01*
X361715Y444118D01*
X360082Y442485D01*
X358928Y440485D01*
X358330Y438254D01*
Y435945D01*
X358928Y433715D01*
X360082Y431715D01*
X361715Y430082D01*
X363715Y428927D01*
X365945Y428330D01*
X368255D01*
X370485Y428927D01*
X372485Y430082D01*
X374118Y431715D01*
X375272Y433715D01*
X375870Y435945D01*
Y438254D01*
X375272Y440485D01*
X374118Y442485D01*
X372485Y444118D01*
X370485Y445272D01*
X368255Y445870D01*
D02*
G37*
G36*
X342854D02*
X340545D01*
X338315Y445272D01*
X336315Y444118D01*
X334682Y442485D01*
X333528Y440485D01*
X332930Y438254D01*
Y435945D01*
X333528Y433715D01*
X334682Y431715D01*
X336315Y430082D01*
X338315Y428927D01*
X340545Y428330D01*
X342854D01*
X345085Y428927D01*
X347085Y430082D01*
X348718Y431715D01*
X349872Y433715D01*
X350470Y435945D01*
Y438254D01*
X349872Y440485D01*
X348718Y442485D01*
X347085Y444118D01*
X345085Y445272D01*
X342854Y445870D01*
D02*
G37*
G36*
X292055D02*
X289745D01*
X287515Y445272D01*
X285515Y444118D01*
X283882Y442485D01*
X282728Y440485D01*
X282130Y438254D01*
Y435945D01*
X282728Y433715D01*
X283882Y431715D01*
X285515Y430082D01*
X287515Y428927D01*
X289745Y428330D01*
X292055D01*
X294285Y428927D01*
X296285Y430082D01*
X297918Y431715D01*
X299072Y433715D01*
X299670Y435945D01*
Y438254D01*
X299072Y440485D01*
X297918Y442485D01*
X296285Y444118D01*
X294285Y445272D01*
X292055Y445870D01*
D02*
G37*
G36*
X326340Y435830D02*
X317570D01*
Y427060D01*
X317622D01*
X320175Y427744D01*
X322465Y429066D01*
X324334Y430935D01*
X325656Y433224D01*
X326340Y435778D01*
Y435830D01*
D02*
G37*
G36*
X315030D02*
X306260D01*
Y435778D01*
X306944Y433224D01*
X308266Y430935D01*
X310135Y429066D01*
X312425Y427744D01*
X314978Y427060D01*
X315030D01*
Y435830D01*
D02*
G37*
G36*
X130957Y427270D02*
X129043D01*
X127194Y426775D01*
X125536Y425817D01*
X124183Y424464D01*
X123225Y422806D01*
X122730Y420957D01*
Y419043D01*
X123225Y417194D01*
X124183Y415536D01*
X125536Y414183D01*
X127194Y413225D01*
X129043Y412730D01*
X130957D01*
X132806Y413225D01*
X134464Y414183D01*
X135817Y415536D01*
X136775Y417194D01*
X137270Y419043D01*
Y420957D01*
X136775Y422806D01*
X135817Y424464D01*
X134464Y425817D01*
X132806Y426775D01*
X130957Y427270D01*
D02*
G37*
G36*
X372270Y410501D02*
Y403270D01*
X379501D01*
X378958Y405296D01*
X377834Y407244D01*
X376244Y408834D01*
X374296Y409958D01*
X372270Y410501D01*
D02*
G37*
G36*
X369730D02*
X367704Y409958D01*
X365756Y408834D01*
X364166Y407244D01*
X363042Y405296D01*
X362499Y403270D01*
X369730D01*
Y410501D01*
D02*
G37*
G36*
X248957Y408270D02*
X247043D01*
X245194Y407775D01*
X243536Y406817D01*
X242183Y405464D01*
X241225Y403806D01*
X240730Y401957D01*
Y400043D01*
X241225Y398194D01*
X242183Y396536D01*
X243536Y395183D01*
X245194Y394225D01*
X247043Y393730D01*
X248957D01*
X250806Y394225D01*
X252464Y395183D01*
X253818Y396536D01*
X254775Y398194D01*
X255270Y400043D01*
Y401957D01*
X254775Y403806D01*
X253818Y405464D01*
X252464Y406817D01*
X250806Y407775D01*
X248957Y408270D01*
D02*
G37*
G36*
X379501Y400730D02*
X372270D01*
Y393499D01*
X374296Y394042D01*
X376244Y395166D01*
X377834Y396756D01*
X378958Y398704D01*
X379501Y400730D01*
D02*
G37*
G36*
X369730D02*
X362499D01*
X363042Y398704D01*
X364166Y396756D01*
X365756Y395166D01*
X367704Y394042D01*
X369730Y393499D01*
Y400730D01*
D02*
G37*
G36*
X70750Y398770D02*
X67250D01*
X63817Y398087D01*
X60583Y396747D01*
X57672Y394803D01*
X55197Y392327D01*
X53252Y389417D01*
X51913Y386183D01*
X51230Y382750D01*
Y379250D01*
X51913Y375816D01*
X53252Y372583D01*
X55197Y369672D01*
X57672Y367197D01*
X60583Y365252D01*
X63817Y363913D01*
X67250Y363230D01*
X70750D01*
X74183Y363913D01*
X77417Y365252D01*
X80328Y367197D01*
X82803Y369672D01*
X84747Y372583D01*
X86087Y375816D01*
X86770Y379250D01*
Y382750D01*
X86087Y386183D01*
X84747Y389417D01*
X82803Y392327D01*
X80328Y394803D01*
X77417Y396747D01*
X74183Y398087D01*
X70750Y398770D01*
D02*
G37*
G36*
X247920Y376085D02*
X246080D01*
X244304Y375609D01*
X242711Y374689D01*
X241411Y373389D01*
X240491Y371796D01*
X240015Y370019D01*
Y368180D01*
X240491Y366404D01*
X241411Y364811D01*
X242711Y363511D01*
X244304Y362591D01*
X246080Y362115D01*
X247920D01*
X249696Y362591D01*
X251289Y363511D01*
X252589Y364811D01*
X253509Y366404D01*
X253985Y368180D01*
Y370019D01*
X253509Y371796D01*
X252589Y373389D01*
X251289Y374689D01*
X249696Y375609D01*
X247920Y376085D01*
D02*
G37*
G36*
X197620Y376620D02*
X182380D01*
Y361380D01*
X197620D01*
Y376620D01*
D02*
G37*
G36*
X368255Y369670D02*
X365945D01*
X363715Y369072D01*
X361715Y367918D01*
X360082Y366285D01*
X358928Y364285D01*
X358330Y362054D01*
Y359745D01*
X358928Y357515D01*
X360082Y355515D01*
X361715Y353882D01*
X363715Y352727D01*
X365945Y352130D01*
X368255D01*
X370485Y352727D01*
X372485Y353882D01*
X374118Y355515D01*
X375272Y357515D01*
X375870Y359745D01*
Y362054D01*
X375272Y364285D01*
X374118Y366285D01*
X372485Y367918D01*
X370485Y369072D01*
X368255Y369670D01*
D02*
G37*
G36*
X342854D02*
X340545D01*
X338315Y369072D01*
X336315Y367918D01*
X334682Y366285D01*
X333528Y364285D01*
X332930Y362054D01*
Y359745D01*
X333528Y357515D01*
X334682Y355515D01*
X336315Y353882D01*
X338315Y352727D01*
X340545Y352130D01*
X342854D01*
X345085Y352727D01*
X347085Y353882D01*
X348718Y355515D01*
X349872Y357515D01*
X350470Y359745D01*
Y362054D01*
X349872Y364285D01*
X348718Y366285D01*
X347085Y367918D01*
X345085Y369072D01*
X342854Y369670D01*
D02*
G37*
G36*
X317454D02*
X315145D01*
X312915Y369072D01*
X310915Y367918D01*
X309282Y366285D01*
X308128Y364285D01*
X307530Y362054D01*
Y359745D01*
X308128Y357515D01*
X309282Y355515D01*
X310915Y353882D01*
X312915Y352727D01*
X315145Y352130D01*
X317454D01*
X319685Y352727D01*
X321685Y353882D01*
X323318Y355515D01*
X324472Y357515D01*
X325070Y359745D01*
Y362054D01*
X324472Y364285D01*
X323318Y366285D01*
X321685Y367918D01*
X319685Y369072D01*
X317454Y369670D01*
D02*
G37*
G36*
X299670D02*
X282130D01*
Y352130D01*
X299670D01*
Y369670D01*
D02*
G37*
G36*
X253985Y337985D02*
X240015D01*
Y324015D01*
X253985D01*
Y337985D01*
D02*
G37*
G36*
X191003Y338520D02*
X188997D01*
X187059Y338000D01*
X185321Y336997D01*
X183902Y335579D01*
X182899Y333841D01*
X182380Y331903D01*
Y329897D01*
X182899Y327959D01*
X183902Y326221D01*
X185321Y324802D01*
X187059Y323799D01*
X188997Y323280D01*
X191003D01*
X192941Y323799D01*
X194679Y324802D01*
X196097Y326221D01*
X197101Y327959D01*
X197620Y329897D01*
Y331903D01*
X197101Y333841D01*
X196097Y335579D01*
X194679Y336997D01*
X192941Y338000D01*
X191003Y338520D01*
D02*
G37*
G36*
X128770Y338770D02*
X111230D01*
Y321230D01*
X128770D01*
Y338770D01*
D02*
G37*
G36*
X121155Y313770D02*
X118846D01*
X116615Y313172D01*
X114615Y312018D01*
X112982Y310385D01*
X111828Y308385D01*
X111230Y306154D01*
Y303845D01*
X111828Y301615D01*
X112982Y299615D01*
X114615Y297982D01*
X116615Y296828D01*
X118846Y296230D01*
X121155D01*
X123385Y296828D01*
X125385Y297982D01*
X127018Y299615D01*
X128172Y301615D01*
X128770Y303845D01*
Y306154D01*
X128172Y308385D01*
X127018Y310385D01*
X125385Y312018D01*
X123385Y313172D01*
X121155Y313770D01*
D02*
G37*
G36*
X70750Y296770D02*
X67250D01*
X63817Y296087D01*
X60583Y294748D01*
X57672Y292803D01*
X55197Y290328D01*
X53252Y287417D01*
X51913Y284183D01*
X51230Y280750D01*
Y277250D01*
X51913Y273817D01*
X53252Y270583D01*
X55197Y267672D01*
X57672Y265197D01*
X60583Y263252D01*
X63817Y261913D01*
X67250Y261230D01*
X70750D01*
X74183Y261913D01*
X77417Y263252D01*
X80328Y265197D01*
X82803Y267672D01*
X84747Y270583D01*
X86087Y273817D01*
X86770Y277250D01*
Y280750D01*
X86087Y284183D01*
X84747Y287417D01*
X82803Y290328D01*
X80328Y292803D01*
X77417Y294748D01*
X74183Y296087D01*
X70750Y296770D01*
D02*
G37*
G36*
X186270Y179329D02*
Y172098D01*
X193501D01*
X192958Y174124D01*
X191834Y176072D01*
X190244Y177662D01*
X188297Y178786D01*
X186270Y179329D01*
D02*
G37*
G36*
X183730D02*
X181704Y178786D01*
X179757Y177662D01*
X178167Y176072D01*
X177042Y174124D01*
X176499Y172098D01*
X183730D01*
Y179329D01*
D02*
G37*
G36*
X193501Y169558D02*
X186270D01*
Y162327D01*
X188297Y162870D01*
X190244Y163994D01*
X191834Y165584D01*
X192958Y167532D01*
X193501Y169558D01*
D02*
G37*
G36*
X183730D02*
X176499D01*
X177042Y167532D01*
X178167Y165584D01*
X179757Y163994D01*
X181704Y162870D01*
X183730Y162327D01*
Y169558D01*
D02*
G37*
G36*
X175270Y851977D02*
Y844746D01*
X182501D01*
X181958Y846772D01*
X180834Y848720D01*
X179244Y850310D01*
X177296Y851434D01*
X175270Y851977D01*
D02*
G37*
G36*
X172730D02*
X170704Y851434D01*
X168756Y850310D01*
X167166Y848720D01*
X166042Y846772D01*
X165499Y844746D01*
X172730D01*
Y851977D01*
D02*
G37*
G36*
X182501Y842206D02*
X175270D01*
Y834975D01*
X177296Y835518D01*
X179244Y836642D01*
X180834Y838232D01*
X181958Y840180D01*
X182501Y842206D01*
D02*
G37*
G36*
X172730D02*
X165499D01*
X166042Y840180D01*
X167166Y838232D01*
X168756Y836642D01*
X170704Y835518D01*
X172730Y834975D01*
Y842206D01*
D02*
G37*
G36*
X176957Y804270D02*
X175043D01*
X173194Y803774D01*
X171536Y802817D01*
X170182Y801464D01*
X169225Y799806D01*
X168730Y797957D01*
Y796043D01*
X169225Y794194D01*
X170182Y792536D01*
X171536Y791182D01*
X173194Y790225D01*
X175043Y789730D01*
X176957D01*
X178806Y790225D01*
X180464Y791182D01*
X181817Y792536D01*
X182775Y794194D01*
X183270Y796043D01*
Y797957D01*
X182775Y799806D01*
X181817Y801464D01*
X180464Y802817D01*
X178806Y803774D01*
X176957Y804270D01*
D02*
G37*
G36*
X288957Y803270D02*
X287043D01*
X285194Y802775D01*
X283536Y801818D01*
X282182Y800464D01*
X281225Y798806D01*
X280730Y796957D01*
Y795043D01*
X281225Y793194D01*
X282182Y791536D01*
X283536Y790183D01*
X285194Y789226D01*
X287043Y788730D01*
X288957D01*
X290806Y789226D01*
X292464Y790183D01*
X293817Y791536D01*
X294774Y793194D01*
X295270Y795043D01*
Y796957D01*
X294774Y798806D01*
X293817Y800464D01*
X292464Y801818D01*
X290806Y802775D01*
X288957Y803270D01*
D02*
G37*
G36*
X200507Y712477D02*
Y705246D01*
X207738D01*
X207195Y707272D01*
X206071Y709219D01*
X204481Y710809D01*
X202533Y711934D01*
X200507Y712477D01*
D02*
G37*
G36*
X197967D02*
X195941Y711934D01*
X193993Y710809D01*
X192403Y709219D01*
X191279Y707272D01*
X190736Y705246D01*
X197967D01*
Y712477D01*
D02*
G37*
G36*
X207738Y702706D02*
X200507D01*
Y695475D01*
X202533Y696018D01*
X204481Y697142D01*
X206071Y698732D01*
X207195Y700679D01*
X207738Y702706D01*
D02*
G37*
G36*
X197967D02*
X190736D01*
X191279Y700679D01*
X192403Y698732D01*
X193993Y697142D01*
X195941Y696018D01*
X197967Y695475D01*
Y702706D01*
D02*
G37*
G36*
X311194Y665770D02*
X309280D01*
X307431Y665274D01*
X305773Y664317D01*
X304419Y662964D01*
X303462Y661306D01*
X302967Y659457D01*
Y657543D01*
X303462Y655694D01*
X304419Y654036D01*
X305773Y652682D01*
X307431Y651725D01*
X309280Y651230D01*
X311194D01*
X313043Y651725D01*
X314701Y652682D01*
X316054Y654036D01*
X317012Y655694D01*
X317507Y657543D01*
Y659457D01*
X317012Y661306D01*
X316054Y662964D01*
X314701Y664317D01*
X313043Y665274D01*
X311194Y665770D01*
D02*
G37*
G36*
X203194D02*
X201280D01*
X199431Y665274D01*
X197773Y664317D01*
X196420Y662964D01*
X195463Y661306D01*
X194967Y659457D01*
Y657543D01*
X195463Y655694D01*
X196420Y654036D01*
X197773Y652682D01*
X199431Y651725D01*
X201280Y651230D01*
X203194D01*
X205043Y651725D01*
X206701Y652682D01*
X208055Y654036D01*
X209012Y655694D01*
X209507Y657543D01*
Y659457D01*
X209012Y661306D01*
X208055Y662964D01*
X206701Y664317D01*
X205043Y665274D01*
X203194Y665770D01*
D02*
G37*
G36*
X258957Y519270D02*
X257043D01*
X255194Y518774D01*
X253536Y517817D01*
X252183Y516464D01*
X251226Y514806D01*
X250730Y512957D01*
Y511043D01*
X251226Y509194D01*
X252183Y507536D01*
X253536Y506182D01*
X255194Y505225D01*
X257043Y504730D01*
X258957D01*
X260806Y505225D01*
X262464Y506182D01*
X263818Y507536D01*
X264775Y509194D01*
X265270Y511043D01*
Y512957D01*
X264775Y514806D01*
X263818Y516464D01*
X262464Y517817D01*
X260806Y518774D01*
X258957Y519270D01*
D02*
G37*
G36*
X458957Y475270D02*
X457043D01*
X455194Y474774D01*
X453536Y473817D01*
X452183Y472464D01*
X451225Y470806D01*
X450730Y468957D01*
Y467043D01*
X451225Y465194D01*
X452183Y463536D01*
X453536Y462182D01*
X455194Y461225D01*
X457043Y460730D01*
X458957D01*
X460806Y461225D01*
X462464Y462182D01*
X463817Y463536D01*
X464775Y465194D01*
X465270Y467043D01*
Y468957D01*
X464775Y470806D01*
X463817Y472464D01*
X462464Y473817D01*
X460806Y474774D01*
X458957Y475270D01*
D02*
G37*
G36*
X478270Y461501D02*
Y454270D01*
X485501D01*
X484958Y456297D01*
X483834Y458244D01*
X482244Y459834D01*
X480296Y460958D01*
X478270Y461501D01*
D02*
G37*
G36*
X475730D02*
X473704Y460958D01*
X471756Y459834D01*
X470166Y458244D01*
X469042Y456297D01*
X468499Y454270D01*
X475730D01*
Y461501D01*
D02*
G37*
G36*
X485501Y451730D02*
X478270D01*
Y444499D01*
X480296Y445042D01*
X482244Y446166D01*
X483834Y447757D01*
X484958Y449704D01*
X485501Y451730D01*
D02*
G37*
G36*
X475730D02*
X468499D01*
X469042Y449704D01*
X470166Y447757D01*
X471756Y446166D01*
X473704Y445042D01*
X475730Y444499D01*
Y451730D01*
D02*
G37*
G36*
X477957Y432270D02*
X476043D01*
X474194Y431775D01*
X472536Y430818D01*
X471183Y429464D01*
X470226Y427806D01*
X469730Y425957D01*
Y424043D01*
X470226Y422194D01*
X471183Y420536D01*
X472536Y419183D01*
X474194Y418226D01*
X476043Y417730D01*
X477957D01*
X479806Y418226D01*
X481464Y419183D01*
X482818Y420536D01*
X483775Y422194D01*
X484270Y424043D01*
Y425957D01*
X483775Y427806D01*
X482818Y429464D01*
X481464Y430818D01*
X479806Y431775D01*
X477957Y432270D01*
D02*
G37*
G36*
X406270Y325501D02*
Y318270D01*
X413501D01*
X412958Y320296D01*
X411834Y322244D01*
X410244Y323834D01*
X408297Y324958D01*
X406270Y325501D01*
D02*
G37*
G36*
X403730D02*
X401704Y324958D01*
X399757Y323834D01*
X398167Y322244D01*
X397042Y320296D01*
X396499Y318270D01*
X403730D01*
Y325501D01*
D02*
G37*
G36*
X413501Y315730D02*
X406270D01*
Y308499D01*
X408297Y309042D01*
X410244Y310166D01*
X411834Y311756D01*
X412958Y313704D01*
X413501Y315730D01*
D02*
G37*
G36*
X403730D02*
X396499D01*
X397042Y313704D01*
X398167Y311756D01*
X399757Y310166D01*
X401704Y309042D01*
X403730Y308499D01*
Y315730D01*
D02*
G37*
G36*
X463957Y213270D02*
X462043D01*
X460194Y212775D01*
X458536Y211817D01*
X457183Y210464D01*
X456226Y208806D01*
X455730Y206957D01*
Y205043D01*
X456226Y203194D01*
X457183Y201536D01*
X458536Y200182D01*
X460194Y199225D01*
X462043Y198730D01*
X463957D01*
X465806Y199225D01*
X467464Y200182D01*
X468818Y201536D01*
X469775Y203194D01*
X470270Y205043D01*
Y206957D01*
X469775Y208806D01*
X468818Y210464D01*
X467464Y211817D01*
X465806Y212775D01*
X463957Y213270D01*
D02*
G37*
G36*
X393957Y200270D02*
X392043D01*
X390194Y199775D01*
X388536Y198818D01*
X387183Y197464D01*
X386226Y195806D01*
X385730Y193957D01*
Y192043D01*
X386226Y190194D01*
X387183Y188536D01*
X388536Y187183D01*
X390194Y186226D01*
X392043Y185730D01*
X393957D01*
X395806Y186226D01*
X397464Y187183D01*
X398818Y188536D01*
X399775Y190194D01*
X400270Y192043D01*
Y193957D01*
X399775Y195806D01*
X398818Y197464D01*
X397464Y198818D01*
X395806Y199775D01*
X393957Y200270D01*
D02*
G37*
G36*
X266957D02*
X265043D01*
X263194Y199775D01*
X261536Y198818D01*
X260183Y197464D01*
X259226Y195806D01*
X258730Y193957D01*
Y192043D01*
X259226Y190194D01*
X260183Y188536D01*
X261536Y187183D01*
X263194Y186226D01*
X265043Y185730D01*
X266957D01*
X268806Y186226D01*
X270464Y187183D01*
X271818Y188536D01*
X272775Y190194D01*
X273270Y192043D01*
Y193957D01*
X272775Y195806D01*
X271818Y197464D01*
X270464Y198818D01*
X268806Y199775D01*
X266957Y200270D01*
D02*
G37*
G36*
X382500Y163271D02*
Y156040D01*
X389731D01*
X389188Y158066D01*
X388064Y160014D01*
X386474Y161604D01*
X384526Y162728D01*
X382500Y163271D01*
D02*
G37*
G36*
X379960D02*
X377934Y162728D01*
X375986Y161604D01*
X374396Y160014D01*
X373272Y158066D01*
X372729Y156040D01*
X379960D01*
Y163271D01*
D02*
G37*
G36*
X389731Y153500D02*
X382500D01*
Y146269D01*
X384526Y146812D01*
X386474Y147936D01*
X388064Y149526D01*
X389188Y151474D01*
X389731Y153500D01*
D02*
G37*
G36*
X379960D02*
X372729D01*
X373272Y151474D01*
X374396Y149526D01*
X375986Y147936D01*
X377934Y146812D01*
X379960Y146269D01*
Y153500D01*
D02*
G37*
G36*
X333187Y133040D02*
X331273D01*
X329424Y132544D01*
X327766Y131587D01*
X326412Y130234D01*
X325455Y128576D01*
X324960Y126727D01*
Y124813D01*
X325455Y122964D01*
X326412Y121306D01*
X327766Y119952D01*
X329424Y118995D01*
X331273Y118500D01*
X333187D01*
X335036Y118995D01*
X336694Y119952D01*
X338047Y121306D01*
X339004Y122964D01*
X339500Y124813D01*
Y126727D01*
X339004Y128576D01*
X338047Y130234D01*
X336694Y131587D01*
X335036Y132544D01*
X333187Y133040D01*
D02*
G37*
G36*
X518463Y955764D02*
X516549D01*
X514700Y955269D01*
X513042Y954312D01*
X511689Y952958D01*
X510731Y951300D01*
X510236Y949451D01*
Y947537D01*
X510731Y945688D01*
X511689Y944030D01*
X513042Y942677D01*
X514700Y941720D01*
X516549Y941224D01*
X518463D01*
X520312Y941720D01*
X521970Y942677D01*
X523323Y944030D01*
X524281Y945688D01*
X524776Y947537D01*
Y949451D01*
X524281Y951300D01*
X523323Y952958D01*
X521970Y954312D01*
X520312Y955269D01*
X518463Y955764D01*
D02*
G37*
G36*
X603770Y930770D02*
X586230D01*
Y913230D01*
X603770D01*
Y930770D01*
D02*
G37*
G36*
X596155Y905370D02*
X593845D01*
X591615Y904772D01*
X589615Y903618D01*
X587982Y901985D01*
X586828Y899985D01*
X586230Y897755D01*
Y895445D01*
X586828Y893215D01*
X587982Y891215D01*
X589615Y889582D01*
X591615Y888428D01*
X593845Y887830D01*
X596155D01*
X598385Y888428D01*
X600385Y889582D01*
X602018Y891215D01*
X603172Y893215D01*
X603770Y895445D01*
Y897755D01*
X603172Y899985D01*
X602018Y901985D01*
X600385Y903618D01*
X598385Y904772D01*
X596155Y905370D01*
D02*
G37*
G36*
X468451Y897270D02*
X466537D01*
X464688Y896775D01*
X463030Y895817D01*
X461676Y894464D01*
X460719Y892806D01*
X460224Y890957D01*
Y889043D01*
X460719Y887194D01*
X461676Y885536D01*
X463030Y884183D01*
X464688Y883225D01*
X466537Y882730D01*
X468451D01*
X470300Y883225D01*
X471958Y884183D01*
X473311Y885536D01*
X474268Y887194D01*
X474764Y889043D01*
Y890957D01*
X474268Y892806D01*
X473311Y894464D01*
X471958Y895817D01*
X470300Y896775D01*
X468451Y897270D01*
D02*
G37*
G36*
X422764Y868501D02*
Y861270D01*
X429995D01*
X429452Y863296D01*
X428328Y865244D01*
X426738Y866834D01*
X424790Y867958D01*
X422764Y868501D01*
D02*
G37*
G36*
X420224D02*
X418198Y867958D01*
X416250Y866834D01*
X414660Y865244D01*
X413536Y863296D01*
X412993Y861270D01*
X420224D01*
Y868501D01*
D02*
G37*
G36*
X536068Y871873D02*
X534154D01*
X532305Y871378D01*
X530647Y870421D01*
X529293Y869067D01*
X528336Y867409D01*
X527841Y865560D01*
Y863646D01*
X528336Y861797D01*
X529293Y860139D01*
X530647Y858786D01*
X532305Y857829D01*
X534154Y857333D01*
X536068D01*
X537917Y857829D01*
X539575Y858786D01*
X540928Y860139D01*
X541885Y861797D01*
X542381Y863646D01*
Y865560D01*
X541885Y867409D01*
X540928Y869067D01*
X539575Y870421D01*
X537917Y871378D01*
X536068Y871873D01*
D02*
G37*
G36*
X429995Y858730D02*
X422764D01*
Y851499D01*
X424790Y852042D01*
X426738Y853166D01*
X428328Y854756D01*
X429452Y856704D01*
X429995Y858730D01*
D02*
G37*
G36*
X420224D02*
X412993D01*
X413536Y856704D01*
X414660Y854756D01*
X416250Y853166D01*
X418198Y852042D01*
X420224Y851499D01*
Y858730D01*
D02*
G37*
G36*
X622457Y800520D02*
X620543D01*
X618694Y800025D01*
X617036Y799068D01*
X615683Y797714D01*
X614725Y796056D01*
X614230Y794207D01*
Y792293D01*
X614725Y790444D01*
X615683Y788786D01*
X617036Y787433D01*
X618694Y786476D01*
X620543Y785980D01*
X622457D01*
X624306Y786476D01*
X625964Y787433D01*
X627318Y788786D01*
X628275Y790444D01*
X628770Y792293D01*
Y794207D01*
X628275Y796056D01*
X627318Y797714D01*
X625964Y799068D01*
X624306Y800025D01*
X622457Y800520D01*
D02*
G37*
G36*
X581457Y790520D02*
X579543D01*
X577694Y790025D01*
X576036Y789068D01*
X574682Y787714D01*
X573725Y786056D01*
X573230Y784207D01*
Y782293D01*
X573725Y780444D01*
X574682Y778786D01*
X576036Y777433D01*
X577694Y776476D01*
X579543Y775980D01*
X581457D01*
X583306Y776476D01*
X584964Y777433D01*
X586317Y778786D01*
X587274Y780444D01*
X587770Y782293D01*
Y784207D01*
X587274Y786056D01*
X586317Y787714D01*
X584964Y789068D01*
X583306Y790025D01*
X581457Y790520D01*
D02*
G37*
G36*
X598457Y772520D02*
X596543D01*
X594694Y772025D01*
X593036Y771068D01*
X591683Y769714D01*
X590726Y768056D01*
X590230Y766207D01*
Y764293D01*
X590726Y762444D01*
X591683Y760786D01*
X593036Y759433D01*
X594694Y758476D01*
X596543Y757980D01*
X598457D01*
X600306Y758476D01*
X601964Y759433D01*
X603317Y760786D01*
X604275Y762444D01*
X604770Y764293D01*
Y766207D01*
X604275Y768056D01*
X603317Y769714D01*
X601964Y771068D01*
X600306Y772025D01*
X598457Y772520D01*
D02*
G37*
G36*
X542770Y751751D02*
Y744520D01*
X550001D01*
X549458Y746546D01*
X548334Y748494D01*
X546744Y750084D01*
X544796Y751208D01*
X542770Y751751D01*
D02*
G37*
G36*
X540230D02*
X538204Y751208D01*
X536256Y750084D01*
X534666Y748494D01*
X533542Y746546D01*
X532999Y744520D01*
X540230D01*
Y751751D01*
D02*
G37*
G36*
X550001Y741980D02*
X542770D01*
Y734749D01*
X544796Y735292D01*
X546744Y736416D01*
X548334Y738007D01*
X549458Y739954D01*
X550001Y741980D01*
D02*
G37*
G36*
X540230D02*
X532999D01*
X533542Y739954D01*
X534666Y738007D01*
X536256Y736416D01*
X538204Y735292D01*
X540230Y734749D01*
Y741980D01*
D02*
G37*
G36*
X585457Y700520D02*
X583543D01*
X581694Y700025D01*
X580036Y699068D01*
X578682Y697714D01*
X577725Y696056D01*
X577230Y694207D01*
Y692293D01*
X577725Y690444D01*
X578682Y688786D01*
X580036Y687433D01*
X581694Y686476D01*
X583543Y685980D01*
X585457D01*
X587306Y686476D01*
X588964Y687433D01*
X590317Y688786D01*
X591274Y690444D01*
X591770Y692293D01*
Y694207D01*
X591274Y696056D01*
X590317Y697714D01*
X588964Y699068D01*
X587306Y700025D01*
X585457Y700520D01*
D02*
G37*
G36*
X493957Y576270D02*
X492043D01*
X490194Y575774D01*
X488536Y574817D01*
X487183Y573464D01*
X486226Y571806D01*
X485730Y569957D01*
Y568043D01*
X486226Y566194D01*
X487183Y564536D01*
X488536Y563182D01*
X490194Y562225D01*
X492043Y561730D01*
X493957D01*
X495806Y562225D01*
X497464Y563182D01*
X498817Y564536D01*
X499775Y566194D01*
X500270Y568043D01*
Y569957D01*
X499775Y571806D01*
X498817Y573464D01*
X497464Y574817D01*
X495806Y575774D01*
X493957Y576270D01*
D02*
G37*
G36*
X515957Y575270D02*
X514043D01*
X512194Y574775D01*
X510536Y573818D01*
X509183Y572464D01*
X508226Y570806D01*
X507730Y568957D01*
Y567043D01*
X508226Y565194D01*
X509183Y563536D01*
X510536Y562183D01*
X512194Y561226D01*
X514043Y560730D01*
X515957D01*
X517806Y561226D01*
X519464Y562183D01*
X520817Y563536D01*
X521775Y565194D01*
X522270Y567043D01*
Y568957D01*
X521775Y570806D01*
X520817Y572464D01*
X519464Y573818D01*
X517806Y574775D01*
X515957Y575270D01*
D02*
G37*
G36*
X593770Y496001D02*
Y488770D01*
X601001D01*
X600458Y490796D01*
X599334Y492744D01*
X597744Y494334D01*
X595796Y495458D01*
X593770Y496001D01*
D02*
G37*
G36*
X591230D02*
X589204Y495458D01*
X587256Y494334D01*
X585666Y492744D01*
X584542Y490796D01*
X583999Y488770D01*
X591230D01*
Y496001D01*
D02*
G37*
G36*
X601001Y486230D02*
X593770D01*
Y478999D01*
X595796Y479542D01*
X597744Y480666D01*
X599334Y482256D01*
X600458Y484204D01*
X601001Y486230D01*
D02*
G37*
G36*
X591230D02*
X583999D01*
X584542Y484204D01*
X585666Y482256D01*
X587256Y480666D01*
X589204Y479542D01*
X591230Y478999D01*
Y486230D01*
D02*
G37*
G36*
X627957Y471270D02*
X626043D01*
X624194Y470774D01*
X622536Y469817D01*
X621182Y468464D01*
X620225Y466806D01*
X619730Y464957D01*
Y463043D01*
X620225Y461194D01*
X621182Y459536D01*
X622536Y458182D01*
X624194Y457225D01*
X626043Y456730D01*
X627957D01*
X629806Y457225D01*
X631464Y458182D01*
X632817Y459536D01*
X633774Y461194D01*
X634270Y463043D01*
Y464957D01*
X633774Y466806D01*
X632817Y468464D01*
X631464Y469817D01*
X629806Y470774D01*
X627957Y471270D01*
D02*
G37*
G36*
X565957Y432270D02*
X564043D01*
X562194Y431775D01*
X560536Y430818D01*
X559183Y429464D01*
X558225Y427806D01*
X557730Y425957D01*
Y424043D01*
X558225Y422194D01*
X559183Y420536D01*
X560536Y419183D01*
X562194Y418226D01*
X564043Y417730D01*
X565957D01*
X567806Y418226D01*
X569464Y419183D01*
X570817Y420536D01*
X571774Y422194D01*
X572270Y424043D01*
Y425957D01*
X571774Y427806D01*
X570817Y429464D01*
X569464Y430818D01*
X567806Y431775D01*
X565957Y432270D01*
D02*
G37*
G36*
X1551003Y987620D02*
X1548997D01*
X1547059Y987101D01*
X1545321Y986097D01*
X1543902Y984679D01*
X1542899Y982941D01*
X1542380Y981003D01*
Y978997D01*
X1542899Y977059D01*
X1543902Y975321D01*
X1545321Y973903D01*
X1547059Y972899D01*
X1548997Y972380D01*
X1551003D01*
X1552941Y972899D01*
X1554679Y973903D01*
X1556098Y975321D01*
X1557101Y977059D01*
X1557620Y978997D01*
Y981003D01*
X1557101Y982941D01*
X1556098Y984679D01*
X1554679Y986097D01*
X1552941Y987101D01*
X1551003Y987620D01*
D02*
G37*
G36*
X801003D02*
X798997D01*
X797059Y987101D01*
X795321Y986097D01*
X793903Y984679D01*
X792899Y982941D01*
X792380Y981003D01*
Y978997D01*
X792899Y977059D01*
X793903Y975321D01*
X795321Y973903D01*
X797059Y972899D01*
X798997Y972380D01*
X801003D01*
X802941Y972899D01*
X804679Y973903D01*
X806097Y975321D01*
X807101Y977059D01*
X807620Y978997D01*
Y981003D01*
X807101Y982941D01*
X806097Y984679D01*
X804679Y986097D01*
X802941Y987101D01*
X801003Y987620D01*
D02*
G37*
G36*
X1532750Y928770D02*
X1529250D01*
X1525817Y928087D01*
X1522583Y926748D01*
X1519672Y924803D01*
X1517197Y922328D01*
X1515253Y919417D01*
X1513913Y916183D01*
X1513230Y912750D01*
Y909250D01*
X1513913Y905817D01*
X1515253Y902583D01*
X1517197Y899672D01*
X1519672Y897197D01*
X1522583Y895252D01*
X1525817Y893913D01*
X1529250Y893230D01*
X1532750D01*
X1536183Y893913D01*
X1539417Y895252D01*
X1542328Y897197D01*
X1544803Y899672D01*
X1546748Y902583D01*
X1548087Y905817D01*
X1548770Y909250D01*
Y912750D01*
X1548087Y916183D01*
X1546748Y919417D01*
X1544803Y922328D01*
X1542328Y924803D01*
X1539417Y926748D01*
X1536183Y928087D01*
X1532750Y928770D01*
D02*
G37*
G36*
X1481155Y893770D02*
X1478845D01*
X1476615Y893172D01*
X1474615Y892018D01*
X1472982Y890385D01*
X1471828Y888385D01*
X1471230Y886155D01*
Y883845D01*
X1471828Y881615D01*
X1472982Y879615D01*
X1474615Y877982D01*
X1476615Y876828D01*
X1478845Y876230D01*
X1481155D01*
X1483385Y876828D01*
X1485385Y877982D01*
X1487018Y879615D01*
X1488172Y881615D01*
X1488770Y883845D01*
Y886155D01*
X1488172Y888385D01*
X1487018Y890385D01*
X1485385Y892018D01*
X1483385Y893172D01*
X1481155Y893770D01*
D02*
G37*
G36*
X1488770Y868770D02*
X1471230D01*
Y851230D01*
X1488770D01*
Y868770D01*
D02*
G37*
G36*
X665770Y801751D02*
Y794520D01*
X673001D01*
X672458Y796546D01*
X671334Y798494D01*
X669744Y800084D01*
X667796Y801208D01*
X665770Y801751D01*
D02*
G37*
G36*
X663230D02*
X661204Y801208D01*
X659257Y800084D01*
X657666Y798494D01*
X656542Y796546D01*
X655999Y794520D01*
X663230D01*
Y801751D01*
D02*
G37*
G36*
X1532750Y826770D02*
X1529250D01*
X1525817Y826087D01*
X1522583Y824748D01*
X1519672Y822803D01*
X1517197Y820328D01*
X1515253Y817417D01*
X1513913Y814184D01*
X1513230Y810750D01*
Y807250D01*
X1513913Y803817D01*
X1515253Y800583D01*
X1517197Y797672D01*
X1519672Y795197D01*
X1522583Y793253D01*
X1525817Y791913D01*
X1529250Y791230D01*
X1532750D01*
X1536183Y791913D01*
X1539417Y793253D01*
X1542328Y795197D01*
X1544803Y797672D01*
X1546748Y800583D01*
X1548087Y803817D01*
X1548770Y807250D01*
Y810750D01*
X1548087Y814184D01*
X1546748Y817417D01*
X1544803Y820328D01*
X1542328Y822803D01*
X1539417Y824748D01*
X1536183Y826087D01*
X1532750Y826770D01*
D02*
G37*
G36*
X673001Y791980D02*
X665770D01*
Y784749D01*
X667796Y785292D01*
X669744Y786416D01*
X671334Y788006D01*
X672458Y789954D01*
X673001Y791980D01*
D02*
G37*
G36*
X663230D02*
X655999D01*
X656542Y789954D01*
X657666Y788006D01*
X659257Y786416D01*
X661204Y785292D01*
X663230Y784749D01*
Y791980D01*
D02*
G37*
G36*
X1083120Y771790D02*
X1080680D01*
X1078322Y771158D01*
X1076208Y769938D01*
X1074482Y768212D01*
X1073262Y766098D01*
X1072630Y763740D01*
Y761300D01*
X1073262Y758942D01*
X1074482Y756828D01*
X1076208Y755102D01*
X1078322Y753882D01*
X1080680Y753250D01*
X1083120D01*
X1085478Y753882D01*
X1087592Y755102D01*
X1089318Y756828D01*
X1090538Y758942D01*
X1091170Y761300D01*
Y763740D01*
X1090538Y766098D01*
X1089318Y768212D01*
X1087592Y769938D01*
X1085478Y771158D01*
X1083120Y771790D01*
D02*
G37*
G36*
X879921D02*
X877480D01*
X875122Y771158D01*
X873008Y769938D01*
X871282Y768212D01*
X870062Y766098D01*
X869430Y763740D01*
Y761300D01*
X870062Y758942D01*
X871282Y756828D01*
X873008Y755102D01*
X875122Y753882D01*
X877480Y753250D01*
X879921D01*
X882278Y753882D01*
X884392Y755102D01*
X886118Y756828D01*
X887338Y758942D01*
X887970Y761300D01*
Y763740D01*
X887338Y766098D01*
X886118Y768212D01*
X884392Y769938D01*
X882278Y771158D01*
X879921Y771790D01*
D02*
G37*
G36*
X1083120Y746390D02*
X1080680D01*
X1078322Y745758D01*
X1076208Y744538D01*
X1074482Y742812D01*
X1073262Y740698D01*
X1072630Y738340D01*
Y735900D01*
X1073262Y733542D01*
X1074482Y731428D01*
X1076208Y729702D01*
X1078322Y728482D01*
X1080680Y727850D01*
X1083120D01*
X1085478Y728482D01*
X1087592Y729702D01*
X1089318Y731428D01*
X1090538Y733542D01*
X1091170Y735900D01*
Y738340D01*
X1090538Y740698D01*
X1089318Y742812D01*
X1087592Y744538D01*
X1085478Y745758D01*
X1083120Y746390D01*
D02*
G37*
G36*
X879921D02*
X877480D01*
X875122Y745758D01*
X873008Y744538D01*
X871282Y742812D01*
X870062Y740698D01*
X869430Y738340D01*
Y735900D01*
X870062Y733542D01*
X871282Y731428D01*
X873008Y729702D01*
X875122Y728482D01*
X877480Y727850D01*
X879921D01*
X882278Y728482D01*
X884392Y729702D01*
X886118Y731428D01*
X887338Y733542D01*
X887970Y735900D01*
Y738340D01*
X887338Y740698D01*
X886118Y742812D01*
X884392Y744538D01*
X882278Y745758D01*
X879921Y746390D01*
D02*
G37*
G36*
X716270Y718501D02*
Y711270D01*
X723501D01*
X722958Y713296D01*
X721834Y715244D01*
X720244Y716834D01*
X718296Y717958D01*
X716270Y718501D01*
D02*
G37*
G36*
X713730D02*
X711704Y717958D01*
X709756Y716834D01*
X708166Y715244D01*
X707042Y713296D01*
X706499Y711270D01*
X713730D01*
Y718501D01*
D02*
G37*
G36*
X1232957Y719770D02*
X1231043D01*
X1229194Y719275D01*
X1227536Y718317D01*
X1226182Y716964D01*
X1225225Y715306D01*
X1224730Y713457D01*
Y711543D01*
X1225225Y709694D01*
X1226182Y708036D01*
X1227536Y706683D01*
X1229194Y705725D01*
X1231043Y705230D01*
X1232957D01*
X1234806Y705725D01*
X1236464Y706683D01*
X1237817Y708036D01*
X1238774Y709694D01*
X1239270Y711543D01*
Y713457D01*
X1238774Y715306D01*
X1237817Y716964D01*
X1236464Y718317D01*
X1234806Y719275D01*
X1232957Y719770D01*
D02*
G37*
G36*
X1083120Y720990D02*
X1080680D01*
X1078322Y720358D01*
X1076208Y719138D01*
X1074482Y717412D01*
X1073262Y715298D01*
X1072630Y712940D01*
Y710500D01*
X1073262Y708142D01*
X1074482Y706028D01*
X1076208Y704302D01*
X1078322Y703082D01*
X1080680Y702450D01*
X1083120D01*
X1085478Y703082D01*
X1087592Y704302D01*
X1089318Y706028D01*
X1090538Y708142D01*
X1091170Y710500D01*
Y712940D01*
X1090538Y715298D01*
X1089318Y717412D01*
X1087592Y719138D01*
X1085478Y720358D01*
X1083120Y720990D01*
D02*
G37*
G36*
X879921D02*
X877480D01*
X875122Y720358D01*
X873008Y719138D01*
X871282Y717412D01*
X870062Y715298D01*
X869430Y712940D01*
Y710500D01*
X870062Y708142D01*
X871282Y706028D01*
X873008Y704302D01*
X875122Y703082D01*
X877480Y702450D01*
X879921D01*
X882278Y703082D01*
X884392Y704302D01*
X886118Y706028D01*
X887338Y708142D01*
X887970Y710500D01*
Y712940D01*
X887338Y715298D01*
X886118Y717412D01*
X884392Y719138D01*
X882278Y720358D01*
X879921Y720990D01*
D02*
G37*
G36*
X723501Y708730D02*
X716270D01*
Y701499D01*
X718296Y702042D01*
X720244Y703166D01*
X721834Y704756D01*
X722958Y706704D01*
X723501Y708730D01*
D02*
G37*
G36*
X713730D02*
X706499D01*
X707042Y706704D01*
X708166Y704756D01*
X709756Y703166D01*
X711704Y702042D01*
X713730Y701499D01*
Y708730D01*
D02*
G37*
G36*
X722277Y693590D02*
X720363D01*
X718514Y693094D01*
X716856Y692137D01*
X715503Y690784D01*
X714545Y689126D01*
X714050Y687277D01*
Y685363D01*
X714545Y683514D01*
X715503Y681856D01*
X716856Y680503D01*
X718514Y679545D01*
X720363Y679050D01*
X722277D01*
X724126Y679545D01*
X725784Y680503D01*
X727137Y681856D01*
X728095Y683514D01*
X728590Y685363D01*
Y687277D01*
X728095Y689126D01*
X727137Y690784D01*
X725784Y692137D01*
X724126Y693094D01*
X722277Y693590D01*
D02*
G37*
G36*
X1083120Y695590D02*
X1080680D01*
X1078322Y694958D01*
X1076208Y693738D01*
X1074482Y692012D01*
X1073262Y689898D01*
X1072630Y687540D01*
Y685100D01*
X1073262Y682742D01*
X1074482Y680628D01*
X1076208Y678902D01*
X1078322Y677682D01*
X1080680Y677050D01*
X1083120D01*
X1085478Y677682D01*
X1087592Y678902D01*
X1089318Y680628D01*
X1090538Y682742D01*
X1091170Y685100D01*
Y687540D01*
X1090538Y689898D01*
X1089318Y692012D01*
X1087592Y693738D01*
X1085478Y694958D01*
X1083120Y695590D01*
D02*
G37*
G36*
X879921D02*
X877480D01*
X875122Y694958D01*
X873008Y693738D01*
X871282Y692012D01*
X870062Y689898D01*
X869430Y687540D01*
Y685100D01*
X870062Y682742D01*
X871282Y680628D01*
X873008Y678902D01*
X875122Y677682D01*
X877480Y677050D01*
X879921D01*
X882278Y677682D01*
X884392Y678902D01*
X886118Y680628D01*
X887338Y682742D01*
X887970Y685100D01*
Y687540D01*
X887338Y689898D01*
X886118Y692012D01*
X884392Y693738D01*
X882278Y694958D01*
X879921Y695590D01*
D02*
G37*
G36*
X1207270Y665863D02*
Y658270D01*
X1214863D01*
X1214284Y660431D01*
X1213114Y662459D01*
X1211459Y664114D01*
X1209431Y665284D01*
X1207270Y665863D01*
D02*
G37*
G36*
X1204730D02*
X1202569Y665284D01*
X1200541Y664114D01*
X1198886Y662459D01*
X1197716Y660431D01*
X1197137Y658270D01*
X1204730D01*
Y665863D01*
D02*
G37*
G36*
X1083120Y670190D02*
X1080680D01*
X1078322Y669558D01*
X1076208Y668338D01*
X1074482Y666612D01*
X1073262Y664498D01*
X1072630Y662140D01*
Y659700D01*
X1073262Y657342D01*
X1074482Y655228D01*
X1076208Y653502D01*
X1078322Y652282D01*
X1080680Y651650D01*
X1083120D01*
X1085478Y652282D01*
X1087592Y653502D01*
X1089318Y655228D01*
X1090538Y657342D01*
X1091170Y659700D01*
Y662140D01*
X1090538Y664498D01*
X1089318Y666612D01*
X1087592Y668338D01*
X1085478Y669558D01*
X1083120Y670190D01*
D02*
G37*
G36*
X879921D02*
X877480D01*
X875122Y669558D01*
X873008Y668338D01*
X871282Y666612D01*
X870062Y664498D01*
X869430Y662140D01*
Y659700D01*
X870062Y657342D01*
X871282Y655228D01*
X873008Y653502D01*
X875122Y652282D01*
X877480Y651650D01*
X879921D01*
X882278Y652282D01*
X884392Y653502D01*
X886118Y655228D01*
X887338Y657342D01*
X887970Y659700D01*
Y662140D01*
X887338Y664498D01*
X886118Y666612D01*
X884392Y668338D01*
X882278Y669558D01*
X879921Y670190D01*
D02*
G37*
G36*
X1214863Y655730D02*
X1207270D01*
Y648137D01*
X1209431Y648716D01*
X1211459Y649886D01*
X1213114Y651541D01*
X1214284Y653569D01*
X1214863Y655730D01*
D02*
G37*
G36*
X1204730D02*
X1197137D01*
X1197716Y653569D01*
X1198886Y651541D01*
X1200541Y649886D01*
X1202569Y648716D01*
X1204730Y648137D01*
Y655730D01*
D02*
G37*
G36*
X666270Y638501D02*
Y631270D01*
X673501D01*
X672958Y633296D01*
X671834Y635244D01*
X670244Y636834D01*
X668296Y637958D01*
X666270Y638501D01*
D02*
G37*
G36*
X663730D02*
X661704Y637958D01*
X659756Y636834D01*
X658166Y635244D01*
X657042Y633296D01*
X656499Y631270D01*
X663730D01*
Y638501D01*
D02*
G37*
G36*
X1361270Y633501D02*
Y626270D01*
X1368501D01*
X1367958Y628296D01*
X1366834Y630244D01*
X1365244Y631834D01*
X1363296Y632958D01*
X1361270Y633501D01*
D02*
G37*
G36*
X1358730D02*
X1356704Y632958D01*
X1354756Y631834D01*
X1353166Y630244D01*
X1352042Y628296D01*
X1351499Y626270D01*
X1358730D01*
Y633501D01*
D02*
G37*
G36*
X1083120Y644790D02*
X1080680D01*
X1078322Y644158D01*
X1076208Y642938D01*
X1074482Y641212D01*
X1073262Y639098D01*
X1072630Y636740D01*
Y634300D01*
X1073262Y631942D01*
X1074482Y629828D01*
X1076208Y628102D01*
X1078322Y626882D01*
X1080680Y626250D01*
X1083120D01*
X1085478Y626882D01*
X1087592Y628102D01*
X1089318Y629828D01*
X1090538Y631942D01*
X1091170Y634300D01*
Y636740D01*
X1090538Y639098D01*
X1089318Y641212D01*
X1087592Y642938D01*
X1085478Y644158D01*
X1083120Y644790D01*
D02*
G37*
G36*
X879921D02*
X877480D01*
X875122Y644158D01*
X873008Y642938D01*
X871282Y641212D01*
X870062Y639098D01*
X869430Y636740D01*
Y634300D01*
X870062Y631942D01*
X871282Y629828D01*
X873008Y628102D01*
X875122Y626882D01*
X877480Y626250D01*
X879921D01*
X882278Y626882D01*
X884392Y628102D01*
X886118Y629828D01*
X887338Y631942D01*
X887970Y634300D01*
Y636740D01*
X887338Y639098D01*
X886118Y641212D01*
X884392Y642938D01*
X882278Y644158D01*
X879921Y644790D01*
D02*
G37*
G36*
X1513770Y643770D02*
X1496230D01*
Y626230D01*
X1513770D01*
Y643770D01*
D02*
G37*
G36*
X673501Y628730D02*
X666270D01*
Y621499D01*
X668296Y622042D01*
X670244Y623166D01*
X671834Y624756D01*
X672958Y626704D01*
X673501Y628730D01*
D02*
G37*
G36*
X663730D02*
X656499D01*
X657042Y626704D01*
X658166Y624756D01*
X659756Y623166D01*
X661704Y622042D01*
X663730Y621499D01*
Y628730D01*
D02*
G37*
G36*
X1368501Y623730D02*
X1361270D01*
Y616499D01*
X1363296Y617042D01*
X1365244Y618166D01*
X1366834Y619756D01*
X1367958Y621704D01*
X1368501Y623730D01*
D02*
G37*
G36*
X1358730D02*
X1351499D01*
X1352042Y621704D01*
X1353166Y619756D01*
X1354756Y618166D01*
X1356704Y617042D01*
X1358730Y616499D01*
Y623730D01*
D02*
G37*
G36*
X1180285Y620040D02*
X1177976D01*
X1175745Y619442D01*
X1173745Y618288D01*
X1172113Y616655D01*
X1170958Y614655D01*
X1170360Y612425D01*
Y610116D01*
X1170958Y607885D01*
X1172113Y605885D01*
X1173745Y604252D01*
X1175745Y603098D01*
X1177976Y602500D01*
X1180285D01*
X1182515Y603098D01*
X1184515Y604252D01*
X1186148Y605885D01*
X1187303Y607885D01*
X1187900Y610116D01*
Y612425D01*
X1187303Y614655D01*
X1186148Y616655D01*
X1184515Y618288D01*
X1182515Y619442D01*
X1180285Y620040D01*
D02*
G37*
G36*
X1162500D02*
X1144960D01*
Y602500D01*
X1162500D01*
Y620040D01*
D02*
G37*
G36*
X1083120Y619390D02*
X1080680D01*
X1078322Y618758D01*
X1076208Y617538D01*
X1074482Y615812D01*
X1073262Y613698D01*
X1072630Y611340D01*
Y608900D01*
X1073262Y606542D01*
X1074482Y604428D01*
X1076208Y602702D01*
X1078322Y601482D01*
X1080680Y600850D01*
X1083120D01*
X1085478Y601482D01*
X1087592Y602702D01*
X1089318Y604428D01*
X1090538Y606542D01*
X1091170Y608900D01*
Y611340D01*
X1090538Y613698D01*
X1089318Y615812D01*
X1087592Y617538D01*
X1085478Y618758D01*
X1083120Y619390D01*
D02*
G37*
G36*
X879921D02*
X877480D01*
X875122Y618758D01*
X873008Y617538D01*
X871282Y615812D01*
X870062Y613698D01*
X869430Y611340D01*
Y608900D01*
X870062Y606542D01*
X871282Y604428D01*
X873008Y602702D01*
X875122Y601482D01*
X877480Y600850D01*
X879921D01*
X882278Y601482D01*
X884392Y602702D01*
X886118Y604428D01*
X887338Y606542D01*
X887970Y608900D01*
Y611340D01*
X887338Y613698D01*
X886118Y615812D01*
X884392Y617538D01*
X882278Y618758D01*
X879921Y619390D01*
D02*
G37*
G36*
X1506154Y618370D02*
X1503845D01*
X1501615Y617772D01*
X1499615Y616618D01*
X1497982Y614985D01*
X1496828Y612985D01*
X1496230Y610754D01*
Y608445D01*
X1496828Y606215D01*
X1497982Y604215D01*
X1499615Y602582D01*
X1501615Y601427D01*
X1503845Y600830D01*
X1506154D01*
X1508385Y601427D01*
X1510385Y602582D01*
X1512018Y604215D01*
X1513172Y606215D01*
X1513770Y608445D01*
Y610754D01*
X1513172Y612985D01*
X1512018Y614985D01*
X1510385Y616618D01*
X1508385Y617772D01*
X1506154Y618370D01*
D02*
G37*
G36*
X1267687Y609540D02*
X1265773D01*
X1263924Y609044D01*
X1262266Y608087D01*
X1260912Y606734D01*
X1259955Y605076D01*
X1259460Y603227D01*
Y601313D01*
X1259955Y599464D01*
X1260912Y597806D01*
X1262266Y596452D01*
X1263924Y595495D01*
X1265773Y595000D01*
X1267687D01*
X1269536Y595495D01*
X1271194Y596452D01*
X1272547Y597806D01*
X1273504Y599464D01*
X1274000Y601313D01*
Y603227D01*
X1273504Y605076D01*
X1272547Y606734D01*
X1271194Y608087D01*
X1269536Y609044D01*
X1267687Y609540D01*
D02*
G37*
G36*
X1402673Y603701D02*
X1400759D01*
X1398910Y603206D01*
X1397252Y602249D01*
X1395899Y600895D01*
X1394942Y599238D01*
X1394446Y597388D01*
Y595474D01*
X1394942Y593625D01*
X1395899Y591968D01*
X1397252Y590614D01*
X1398910Y589657D01*
X1400759Y589161D01*
X1402673D01*
X1404522Y589657D01*
X1406180Y590614D01*
X1407534Y591968D01*
X1408491Y593625D01*
X1408986Y595474D01*
Y597388D01*
X1408491Y599238D01*
X1407534Y600895D01*
X1406180Y602249D01*
X1404522Y603206D01*
X1402673Y603701D01*
D02*
G37*
G36*
X751957Y603270D02*
X750043D01*
X748194Y602775D01*
X746536Y601818D01*
X745183Y600464D01*
X744225Y598806D01*
X743730Y596957D01*
Y595043D01*
X744225Y593194D01*
X745183Y591536D01*
X746536Y590183D01*
X748194Y589226D01*
X750043Y588730D01*
X751957D01*
X753806Y589226D01*
X755464Y590183D01*
X756817Y591536D01*
X757775Y593194D01*
X758270Y595043D01*
Y596957D01*
X757775Y598806D01*
X756817Y600464D01*
X755464Y601818D01*
X753806Y602775D01*
X751957Y603270D01*
D02*
G37*
G36*
X1083120Y593990D02*
X1080680D01*
X1078322Y593358D01*
X1076208Y592138D01*
X1074482Y590412D01*
X1073262Y588298D01*
X1072630Y585940D01*
Y583500D01*
X1073262Y581142D01*
X1074482Y579028D01*
X1076208Y577302D01*
X1078322Y576082D01*
X1080680Y575450D01*
X1083120D01*
X1085478Y576082D01*
X1087592Y577302D01*
X1089318Y579028D01*
X1090538Y581142D01*
X1091170Y583500D01*
Y585940D01*
X1090538Y588298D01*
X1089318Y590412D01*
X1087592Y592138D01*
X1085478Y593358D01*
X1083120Y593990D01*
D02*
G37*
G36*
X879921D02*
X877480D01*
X875122Y593358D01*
X873008Y592138D01*
X871282Y590412D01*
X870062Y588298D01*
X869430Y585940D01*
Y583500D01*
X870062Y581142D01*
X871282Y579028D01*
X873008Y577302D01*
X875122Y576082D01*
X877480Y575450D01*
X879921D01*
X882278Y576082D01*
X884392Y577302D01*
X886118Y579028D01*
X887338Y581142D01*
X887970Y583500D01*
Y585940D01*
X887338Y588298D01*
X886118Y590412D01*
X884392Y592138D01*
X882278Y593358D01*
X879921Y593990D01*
D02*
G37*
G36*
X1238270Y581501D02*
Y574270D01*
X1245501D01*
X1244958Y576296D01*
X1243834Y578244D01*
X1242244Y579834D01*
X1240296Y580958D01*
X1238270Y581501D01*
D02*
G37*
G36*
X1235730D02*
X1233704Y580958D01*
X1231756Y579834D01*
X1230166Y578244D01*
X1229042Y576296D01*
X1228499Y574270D01*
X1235730D01*
Y581501D01*
D02*
G37*
G36*
X1180285Y590040D02*
X1177976D01*
X1175745Y589442D01*
X1173745Y588288D01*
X1172113Y586655D01*
X1170958Y584655D01*
X1170360Y582425D01*
Y580116D01*
X1170958Y577885D01*
X1172113Y575885D01*
X1173745Y574252D01*
X1175745Y573098D01*
X1177976Y572500D01*
X1180285D01*
X1182515Y573098D01*
X1184515Y574252D01*
X1186148Y575885D01*
X1187303Y577885D01*
X1187900Y580116D01*
Y582425D01*
X1187303Y584655D01*
X1186148Y586655D01*
X1184515Y588288D01*
X1182515Y589442D01*
X1180285Y590040D01*
D02*
G37*
G36*
X1162500D02*
X1144960D01*
Y572500D01*
X1162500D01*
Y590040D01*
D02*
G37*
G36*
X1318957Y586270D02*
X1317043D01*
X1315194Y585775D01*
X1313536Y584817D01*
X1312183Y583464D01*
X1311225Y581806D01*
X1310730Y579957D01*
Y578043D01*
X1311225Y576194D01*
X1312183Y574536D01*
X1313536Y573183D01*
X1315194Y572225D01*
X1317043Y571730D01*
X1318957D01*
X1320806Y572225D01*
X1322464Y573183D01*
X1323817Y574536D01*
X1324775Y576194D01*
X1325270Y578043D01*
Y579957D01*
X1324775Y581806D01*
X1323817Y583464D01*
X1322464Y584817D01*
X1320806Y585775D01*
X1318957Y586270D01*
D02*
G37*
G36*
X1245501Y571730D02*
X1238270D01*
Y564499D01*
X1240296Y565042D01*
X1242244Y566166D01*
X1243834Y567756D01*
X1244958Y569704D01*
X1245501Y571730D01*
D02*
G37*
G36*
X1235730D02*
X1228499D01*
X1229042Y569704D01*
X1230166Y567756D01*
X1231756Y566166D01*
X1233704Y565042D01*
X1235730Y564499D01*
Y571730D01*
D02*
G37*
G36*
X1424957Y572270D02*
X1423043D01*
X1421194Y571774D01*
X1419536Y570817D01*
X1418183Y569464D01*
X1417225Y567806D01*
X1416730Y565957D01*
Y564043D01*
X1417225Y562194D01*
X1418183Y560536D01*
X1419536Y559183D01*
X1421194Y558225D01*
X1423043Y557730D01*
X1424957D01*
X1426806Y558225D01*
X1428464Y559183D01*
X1429817Y560536D01*
X1430775Y562194D01*
X1431270Y564043D01*
Y565957D01*
X1430775Y567806D01*
X1429817Y569464D01*
X1428464Y570817D01*
X1426806Y571774D01*
X1424957Y572270D01*
D02*
G37*
G36*
X1213778Y563540D02*
X1211682D01*
X1209745Y562738D01*
X1208262Y561255D01*
X1207460Y559318D01*
Y557222D01*
X1208262Y555285D01*
X1209745Y553802D01*
X1211682Y553000D01*
X1213778D01*
X1215715Y553802D01*
X1217198Y555285D01*
X1218000Y557222D01*
Y559318D01*
X1217198Y561255D01*
X1215715Y562738D01*
X1213778Y563540D01*
D02*
G37*
G36*
X1130957Y567270D02*
X1129043D01*
X1127194Y566775D01*
X1125536Y565817D01*
X1124183Y564464D01*
X1123225Y562806D01*
X1122730Y560957D01*
Y559043D01*
X1123225Y557194D01*
X1124183Y555536D01*
X1125536Y554183D01*
X1127194Y553225D01*
X1129043Y552730D01*
X1130957D01*
X1132806Y553225D01*
X1134464Y554183D01*
X1135817Y555536D01*
X1136775Y557194D01*
X1137270Y559043D01*
Y560957D01*
X1136775Y562806D01*
X1135817Y564464D01*
X1134464Y565817D01*
X1132806Y566775D01*
X1130957Y567270D01*
D02*
G37*
G36*
X879921Y568590D02*
X877480D01*
X875122Y567958D01*
X873008Y566738D01*
X871282Y565012D01*
X870062Y562898D01*
X869430Y560540D01*
Y558100D01*
X870062Y555742D01*
X871282Y553628D01*
X873008Y551902D01*
X875122Y550682D01*
X877480Y550050D01*
X879921D01*
X882278Y550682D01*
X884392Y551902D01*
X886118Y553628D01*
X887338Y555742D01*
X887970Y558100D01*
Y560540D01*
X887338Y562898D01*
X886118Y565012D01*
X884392Y566738D01*
X882278Y567958D01*
X879921Y568590D01*
D02*
G37*
G36*
X1083500Y568348D02*
X1081059D01*
X1078701Y567716D01*
X1076588Y566496D01*
X1074862Y564770D01*
X1073641Y562656D01*
X1073010Y560298D01*
Y557857D01*
X1073641Y555500D01*
X1074862Y553386D01*
X1076588Y551660D01*
X1078701Y550439D01*
X1081059Y549808D01*
X1083500D01*
X1085858Y550439D01*
X1087971Y551660D01*
X1089697Y553386D01*
X1090918Y555500D01*
X1091550Y557857D01*
Y560298D01*
X1090918Y562656D01*
X1089697Y564770D01*
X1087971Y566496D01*
X1085858Y567716D01*
X1083500Y568348D01*
D02*
G37*
G36*
X1213778Y550840D02*
X1211682D01*
X1209745Y550038D01*
X1208262Y548555D01*
X1207460Y546618D01*
Y544522D01*
X1208262Y542585D01*
X1208182Y541976D01*
X1206491Y541000D01*
X1204600Y539108D01*
X1203262Y536792D01*
X1202570Y534207D01*
Y534140D01*
X1212730D01*
X1222890D01*
Y534207D01*
X1222197Y536792D01*
X1220860Y539108D01*
X1218968Y541000D01*
X1217278Y541976D01*
X1217198Y542585D01*
X1218000Y544522D01*
Y546618D01*
X1217198Y548555D01*
X1215715Y550038D01*
X1213778Y550840D01*
D02*
G37*
G36*
X751957Y547270D02*
X750043D01*
X748194Y546775D01*
X746536Y545818D01*
X745183Y544464D01*
X744225Y542806D01*
X743730Y540957D01*
Y539043D01*
X744225Y537194D01*
X745183Y535536D01*
X746536Y534183D01*
X748194Y533226D01*
X750043Y532730D01*
X751957D01*
X753806Y533226D01*
X755464Y534183D01*
X756817Y535536D01*
X757775Y537194D01*
X758270Y539043D01*
Y540957D01*
X757775Y542806D01*
X756817Y544464D01*
X755464Y545818D01*
X753806Y546775D01*
X751957Y547270D01*
D02*
G37*
G36*
X1083500Y543164D02*
X1081059D01*
X1078701Y542532D01*
X1076588Y541312D01*
X1074862Y539586D01*
X1073641Y537472D01*
X1073010Y535115D01*
Y532674D01*
X1073641Y530316D01*
X1074862Y528202D01*
X1076588Y526476D01*
X1078701Y525256D01*
X1081059Y524624D01*
X1083500D01*
X1085858Y525256D01*
X1087971Y526476D01*
X1089697Y528202D01*
X1090918Y530316D01*
X1091550Y532674D01*
Y535115D01*
X1090918Y537472D01*
X1089697Y539586D01*
X1087971Y541312D01*
X1085858Y542532D01*
X1083500Y543164D01*
D02*
G37*
G36*
X880300Y542948D02*
X877859D01*
X875501Y542316D01*
X873388Y541096D01*
X871662Y539370D01*
X870441Y537256D01*
X869810Y534898D01*
Y532457D01*
X870441Y530100D01*
X871662Y527986D01*
X873388Y526260D01*
X875501Y525039D01*
X877859Y524408D01*
X880300D01*
X882658Y525039D01*
X884771Y526260D01*
X886497Y527986D01*
X887718Y530100D01*
X888350Y532457D01*
Y534898D01*
X887718Y537256D01*
X886497Y539370D01*
X884771Y541096D01*
X882658Y542316D01*
X880300Y542948D01*
D02*
G37*
G36*
X1222890Y531600D02*
X1214000D01*
Y522710D01*
X1214068D01*
X1216652Y523402D01*
X1218968Y524740D01*
X1220860Y526632D01*
X1222197Y528948D01*
X1222890Y531532D01*
Y531600D01*
D02*
G37*
G36*
X1211460D02*
X1202570D01*
Y531532D01*
X1203262Y528948D01*
X1204600Y526632D01*
X1206491Y524740D01*
X1208808Y523402D01*
X1211392Y522710D01*
X1211460D01*
Y531600D01*
D02*
G37*
G36*
X1434957Y533770D02*
X1433043D01*
X1431194Y533274D01*
X1429536Y532317D01*
X1428183Y530964D01*
X1427225Y529306D01*
X1426730Y527457D01*
Y525543D01*
X1427225Y523694D01*
X1428183Y522036D01*
X1429536Y520682D01*
X1431194Y519725D01*
X1433043Y519230D01*
X1434957D01*
X1436806Y519725D01*
X1438464Y520682D01*
X1439818Y522036D01*
X1440775Y523694D01*
X1441270Y525543D01*
Y527457D01*
X1440775Y529306D01*
X1439818Y530964D01*
X1438464Y532317D01*
X1436806Y533274D01*
X1434957Y533770D01*
D02*
G37*
G36*
X1390270Y517001D02*
Y509770D01*
X1397501D01*
X1396958Y511796D01*
X1395834Y513744D01*
X1394243Y515334D01*
X1392296Y516458D01*
X1390270Y517001D01*
D02*
G37*
G36*
X1387730D02*
X1385704Y516458D01*
X1383756Y515334D01*
X1382166Y513744D01*
X1381042Y511796D01*
X1380499Y509770D01*
X1387730D01*
Y517001D01*
D02*
G37*
G36*
X1333770Y516501D02*
Y509270D01*
X1341001D01*
X1340458Y511296D01*
X1339334Y513244D01*
X1337744Y514834D01*
X1335796Y515958D01*
X1333770Y516501D01*
D02*
G37*
G36*
X1331230D02*
X1329204Y515958D01*
X1327256Y514834D01*
X1325666Y513244D01*
X1324542Y511296D01*
X1323999Y509270D01*
X1331230D01*
Y516501D01*
D02*
G37*
G36*
X1397501Y507230D02*
X1390270D01*
Y499999D01*
X1392296Y500542D01*
X1394243Y501666D01*
X1395834Y503256D01*
X1396958Y505204D01*
X1397501Y507230D01*
D02*
G37*
G36*
X1387730D02*
X1380499D01*
X1381042Y505204D01*
X1382166Y503256D01*
X1383756Y501666D01*
X1385704Y500542D01*
X1387730Y499999D01*
Y507230D01*
D02*
G37*
G36*
X1341001Y506730D02*
X1333770D01*
Y499499D01*
X1335796Y500042D01*
X1337744Y501166D01*
X1339334Y502756D01*
X1340458Y504704D01*
X1341001Y506730D01*
D02*
G37*
G36*
X1331230D02*
X1323999D01*
X1324542Y504704D01*
X1325666Y502756D01*
X1327256Y501166D01*
X1329204Y500042D01*
X1331230Y499499D01*
Y506730D01*
D02*
G37*
G36*
X880300Y517764D02*
X877859D01*
X875501Y517132D01*
X873388Y515912D01*
X871662Y514186D01*
X870441Y512072D01*
X869810Y509715D01*
Y507274D01*
X870441Y504916D01*
X871662Y502802D01*
X873388Y501076D01*
X875501Y499856D01*
X877859Y499224D01*
X880300D01*
X882658Y499856D01*
X884771Y501076D01*
X886497Y502802D01*
X887718Y504916D01*
X888350Y507274D01*
Y509715D01*
X887718Y512072D01*
X886497Y514186D01*
X884771Y515912D01*
X882658Y517132D01*
X880300Y517764D01*
D02*
G37*
G36*
X1083500Y517545D02*
X1081059D01*
X1078701Y516913D01*
X1076588Y515693D01*
X1074862Y513967D01*
X1073641Y511853D01*
X1073010Y509496D01*
Y507055D01*
X1073641Y504697D01*
X1074862Y502583D01*
X1076588Y500857D01*
X1078701Y499637D01*
X1081059Y499005D01*
X1083500D01*
X1085858Y499637D01*
X1087971Y500857D01*
X1089697Y502583D01*
X1090918Y504697D01*
X1091550Y507055D01*
Y509496D01*
X1090918Y511853D01*
X1089697Y513967D01*
X1087971Y515693D01*
X1085858Y516913D01*
X1083500Y517545D01*
D02*
G37*
G36*
X692270Y495501D02*
Y488270D01*
X699501D01*
X698958Y490296D01*
X697834Y492244D01*
X696244Y493834D01*
X694296Y494958D01*
X692270Y495501D01*
D02*
G37*
G36*
X689730D02*
X687704Y494958D01*
X685757Y493834D01*
X684166Y492244D01*
X683042Y490296D01*
X682499Y488270D01*
X689730D01*
Y495501D01*
D02*
G37*
G36*
X699501Y485730D02*
X692270D01*
Y478499D01*
X694296Y479042D01*
X696244Y480166D01*
X697834Y481756D01*
X698958Y483704D01*
X699501Y485730D01*
D02*
G37*
G36*
X689730D02*
X682499D01*
X683042Y483704D01*
X684166Y481756D01*
X685757Y480166D01*
X687704Y479042D01*
X689730Y478499D01*
Y485730D01*
D02*
G37*
G36*
X1083120Y492390D02*
X1080680D01*
X1078322Y491758D01*
X1076208Y490538D01*
X1074482Y488812D01*
X1073262Y486698D01*
X1072630Y484340D01*
Y481900D01*
X1073262Y479542D01*
X1074482Y477428D01*
X1076208Y475702D01*
X1078322Y474482D01*
X1080680Y473850D01*
X1083120D01*
X1085478Y474482D01*
X1087592Y475702D01*
X1089318Y477428D01*
X1090538Y479542D01*
X1091170Y481900D01*
Y484340D01*
X1090538Y486698D01*
X1089318Y488812D01*
X1087592Y490538D01*
X1085478Y491758D01*
X1083120Y492390D01*
D02*
G37*
G36*
X880300Y492145D02*
X877859D01*
X875501Y491513D01*
X873388Y490293D01*
X871662Y488567D01*
X870441Y486453D01*
X869810Y484096D01*
Y481655D01*
X870441Y479297D01*
X871662Y477183D01*
X873388Y475457D01*
X875501Y474237D01*
X877859Y473605D01*
X880300D01*
X882658Y474237D01*
X884771Y475457D01*
X886497Y477183D01*
X887718Y479297D01*
X888350Y481655D01*
Y484096D01*
X887718Y486453D01*
X886497Y488567D01*
X884771Y490293D01*
X882658Y491513D01*
X880300Y492145D01*
D02*
G37*
G36*
X736957Y475770D02*
X735043D01*
X733194Y475275D01*
X731536Y474318D01*
X730182Y472964D01*
X729225Y471306D01*
X728730Y469457D01*
Y467543D01*
X729225Y465694D01*
X730182Y464036D01*
X731536Y462683D01*
X733194Y461726D01*
X735043Y461230D01*
X736957D01*
X738806Y461726D01*
X740464Y462683D01*
X741817Y464036D01*
X742774Y465694D01*
X743270Y467543D01*
Y469457D01*
X742774Y471306D01*
X741817Y472964D01*
X740464Y474318D01*
X738806Y475275D01*
X736957Y475770D01*
D02*
G37*
G36*
X1083120Y466990D02*
X1080680D01*
X1078322Y466358D01*
X1076208Y465138D01*
X1074482Y463412D01*
X1073262Y461298D01*
X1072630Y458940D01*
Y456500D01*
X1073262Y454142D01*
X1074482Y452028D01*
X1076208Y450302D01*
X1078322Y449082D01*
X1080680Y448450D01*
X1083120D01*
X1085478Y449082D01*
X1087592Y450302D01*
X1089318Y452028D01*
X1090538Y454142D01*
X1091170Y456500D01*
Y458940D01*
X1090538Y461298D01*
X1089318Y463412D01*
X1087592Y465138D01*
X1085478Y466358D01*
X1083120Y466990D01*
D02*
G37*
G36*
X879921D02*
X877480D01*
X875122Y466358D01*
X873008Y465138D01*
X871282Y463412D01*
X870062Y461298D01*
X869430Y458940D01*
Y456500D01*
X870062Y454142D01*
X871282Y452028D01*
X873008Y450302D01*
X875122Y449082D01*
X877480Y448450D01*
X879921D01*
X882278Y449082D01*
X884392Y450302D01*
X886118Y452028D01*
X887338Y454142D01*
X887970Y456500D01*
Y458940D01*
X887338Y461298D01*
X886118Y463412D01*
X884392Y465138D01*
X882278Y466358D01*
X879921Y466990D01*
D02*
G37*
G36*
X1291957Y450770D02*
X1290043D01*
X1288194Y450274D01*
X1286536Y449317D01*
X1285183Y447964D01*
X1284225Y446306D01*
X1283730Y444457D01*
Y442543D01*
X1284225Y440694D01*
X1285183Y439036D01*
X1286536Y437682D01*
X1288194Y436725D01*
X1290043Y436230D01*
X1291957D01*
X1293806Y436725D01*
X1295464Y437682D01*
X1296817Y439036D01*
X1297775Y440694D01*
X1298270Y442543D01*
Y444457D01*
X1297775Y446306D01*
X1296817Y447964D01*
X1295464Y449317D01*
X1293806Y450274D01*
X1291957Y450770D01*
D02*
G37*
G36*
X1412636Y449173D02*
X1410722D01*
X1408873Y448677D01*
X1407215Y447720D01*
X1405861Y446366D01*
X1404904Y444709D01*
X1404409Y442860D01*
Y440945D01*
X1404904Y439096D01*
X1405861Y437439D01*
X1407215Y436085D01*
X1408873Y435128D01*
X1410722Y434632D01*
X1412636D01*
X1414485Y435128D01*
X1416143Y436085D01*
X1417496Y437439D01*
X1418453Y439096D01*
X1418949Y440945D01*
Y442860D01*
X1418453Y444709D01*
X1417496Y446366D01*
X1416143Y447720D01*
X1414485Y448677D01*
X1412636Y449173D01*
D02*
G37*
G36*
X1333770Y437501D02*
Y430270D01*
X1341001D01*
X1340458Y432296D01*
X1339334Y434244D01*
X1337744Y435834D01*
X1335796Y436958D01*
X1333770Y437501D01*
D02*
G37*
G36*
X1331230D02*
X1329204Y436958D01*
X1327256Y435834D01*
X1325666Y434244D01*
X1324542Y432296D01*
X1323999Y430270D01*
X1331230D01*
Y437501D01*
D02*
G37*
G36*
X1091170Y441590D02*
X1072630D01*
Y423050D01*
X1091170D01*
Y441590D01*
D02*
G37*
G36*
X879921D02*
X877480D01*
X875122Y440958D01*
X873008Y439738D01*
X871282Y438012D01*
X870062Y435898D01*
X869430Y433540D01*
Y431100D01*
X870062Y428742D01*
X871282Y426628D01*
X873008Y424902D01*
X875122Y423682D01*
X877480Y423050D01*
X879921D01*
X882278Y423682D01*
X884392Y424902D01*
X886118Y426628D01*
X887338Y428742D01*
X887970Y431100D01*
Y433540D01*
X887338Y435898D01*
X886118Y438012D01*
X884392Y439738D01*
X882278Y440958D01*
X879921Y441590D01*
D02*
G37*
G36*
X1341001Y427730D02*
X1333770D01*
Y420499D01*
X1335796Y421042D01*
X1337744Y422166D01*
X1339334Y423756D01*
X1340458Y425704D01*
X1341001Y427730D01*
D02*
G37*
G36*
X1331230D02*
X1323999D01*
X1324542Y425704D01*
X1325666Y423756D01*
X1327256Y422166D01*
X1329204Y421042D01*
X1331230Y420499D01*
Y427730D01*
D02*
G37*
G36*
X1429457Y412770D02*
X1427543D01*
X1425694Y412275D01*
X1424036Y411317D01*
X1422682Y409964D01*
X1421725Y408306D01*
X1421230Y406457D01*
Y404543D01*
X1421725Y402694D01*
X1422682Y401036D01*
X1424036Y399683D01*
X1425694Y398725D01*
X1427543Y398230D01*
X1429457D01*
X1431306Y398725D01*
X1432964Y399683D01*
X1434317Y401036D01*
X1435275Y402694D01*
X1435770Y404543D01*
Y406457D01*
X1435275Y408306D01*
X1434317Y409964D01*
X1432964Y411317D01*
X1431306Y412275D01*
X1429457Y412770D01*
D02*
G37*
G36*
X1390770Y396001D02*
Y388770D01*
X1398001D01*
X1397458Y390796D01*
X1396333Y392744D01*
X1394743Y394334D01*
X1392796Y395458D01*
X1390770Y396001D01*
D02*
G37*
G36*
X1388230D02*
X1386203Y395458D01*
X1384256Y394334D01*
X1382666Y392744D01*
X1381542Y390796D01*
X1380999Y388770D01*
X1388230D01*
Y396001D01*
D02*
G37*
G36*
X1333770Y395001D02*
Y387770D01*
X1341001D01*
X1340458Y389796D01*
X1339334Y391744D01*
X1337744Y393334D01*
X1335796Y394458D01*
X1333770Y395001D01*
D02*
G37*
G36*
X1331230D02*
X1329204Y394458D01*
X1327256Y393334D01*
X1325666Y391744D01*
X1324542Y389796D01*
X1323999Y387770D01*
X1331230D01*
Y395001D01*
D02*
G37*
G36*
X1398001Y386230D02*
X1390770D01*
Y378999D01*
X1392796Y379542D01*
X1394743Y380666D01*
X1396333Y382256D01*
X1397458Y384204D01*
X1398001Y386230D01*
D02*
G37*
G36*
X1388230D02*
X1380999D01*
X1381542Y384204D01*
X1382666Y382256D01*
X1384256Y380666D01*
X1386203Y379542D01*
X1388230Y378999D01*
Y386230D01*
D02*
G37*
G36*
X1341001Y385230D02*
X1333770D01*
Y377999D01*
X1335796Y378542D01*
X1337744Y379666D01*
X1339334Y381256D01*
X1340458Y383204D01*
X1341001Y385230D01*
D02*
G37*
G36*
X1331230D02*
X1323999D01*
X1324542Y383204D01*
X1325666Y381256D01*
X1327256Y379666D01*
X1329204Y378542D01*
X1331230Y377999D01*
Y385230D01*
D02*
G37*
G36*
X627957Y392270D02*
X626043D01*
X624194Y391774D01*
X622536Y390817D01*
X621182Y389464D01*
X620225Y387806D01*
X619730Y385957D01*
Y384043D01*
X620225Y382194D01*
X621182Y380536D01*
X622536Y379182D01*
X624194Y378225D01*
X626043Y377730D01*
X627957D01*
X629806Y378225D01*
X631464Y379182D01*
X632817Y380536D01*
X633774Y382194D01*
X634270Y384043D01*
Y385957D01*
X633774Y387806D01*
X632817Y389464D01*
X631464Y390817D01*
X629806Y391774D01*
X627957Y392270D01*
D02*
G37*
G36*
X700270Y377501D02*
Y370270D01*
X707501D01*
X706958Y372296D01*
X705834Y374244D01*
X704244Y375834D01*
X702297Y376958D01*
X700270Y377501D01*
D02*
G37*
G36*
X697730D02*
X695704Y376958D01*
X693756Y375834D01*
X692167Y374244D01*
X691042Y372296D01*
X690499Y370270D01*
X697730D01*
Y377501D01*
D02*
G37*
G36*
X707501Y367730D02*
X700270D01*
Y360499D01*
X702297Y361042D01*
X704244Y362166D01*
X705834Y363756D01*
X706958Y365704D01*
X707501Y367730D01*
D02*
G37*
G36*
X697730D02*
X690499D01*
X691042Y365704D01*
X692167Y363756D01*
X693756Y362166D01*
X695704Y361042D01*
X697730Y360499D01*
Y367730D01*
D02*
G37*
G36*
X835957Y358270D02*
X834043D01*
X832194Y357774D01*
X830536Y356817D01*
X829183Y355464D01*
X828225Y353806D01*
X827730Y351957D01*
Y350043D01*
X828225Y348194D01*
X829183Y346536D01*
X830536Y345182D01*
X832194Y344225D01*
X834043Y343730D01*
X835957D01*
X837806Y344225D01*
X839464Y345182D01*
X840817Y346536D01*
X841775Y348194D01*
X842270Y350043D01*
Y351957D01*
X841775Y353806D01*
X840817Y355464D01*
X839464Y356817D01*
X837806Y357774D01*
X835957Y358270D01*
D02*
G37*
G36*
X705957Y353270D02*
X704043D01*
X702194Y352775D01*
X700536Y351818D01*
X699183Y350464D01*
X698226Y348806D01*
X697730Y346957D01*
Y345043D01*
X698226Y343194D01*
X699183Y341536D01*
X700536Y340183D01*
X702194Y339226D01*
X704043Y338730D01*
X705957D01*
X707806Y339226D01*
X709464Y340183D01*
X710818Y341536D01*
X711775Y343194D01*
X712270Y345043D01*
Y346957D01*
X711775Y348806D01*
X710818Y350464D01*
X709464Y351818D01*
X707806Y352775D01*
X705957Y353270D01*
D02*
G37*
G36*
X1293457Y329770D02*
X1291543D01*
X1289694Y329275D01*
X1288036Y328318D01*
X1286683Y326964D01*
X1285726Y325307D01*
X1285230Y323457D01*
Y321543D01*
X1285726Y319694D01*
X1286683Y318036D01*
X1288036Y316683D01*
X1289694Y315726D01*
X1291543Y315230D01*
X1293457D01*
X1295306Y315726D01*
X1296964Y316683D01*
X1298318Y318036D01*
X1299275Y319694D01*
X1299770Y321543D01*
Y323457D01*
X1299275Y325307D01*
X1298318Y326964D01*
X1296964Y328318D01*
X1295306Y329275D01*
X1293457Y329770D01*
D02*
G37*
G36*
X1412957Y329270D02*
X1411043D01*
X1409194Y328775D01*
X1407536Y327817D01*
X1406183Y326464D01*
X1405225Y324806D01*
X1404730Y322957D01*
Y321043D01*
X1405225Y319194D01*
X1406183Y317536D01*
X1407536Y316183D01*
X1409194Y315225D01*
X1411043Y314730D01*
X1412957D01*
X1414806Y315225D01*
X1416464Y316183D01*
X1417817Y317536D01*
X1418775Y319194D01*
X1419270Y321043D01*
Y322957D01*
X1418775Y324806D01*
X1417817Y326464D01*
X1416464Y327817D01*
X1414806Y328775D01*
X1412957Y329270D01*
D02*
G37*
G36*
X1333770Y317001D02*
Y309770D01*
X1341001D01*
X1340458Y311797D01*
X1339334Y313744D01*
X1337744Y315334D01*
X1335796Y316458D01*
X1333770Y317001D01*
D02*
G37*
G36*
X1331230D02*
X1329204Y316458D01*
X1327256Y315334D01*
X1325666Y313744D01*
X1324542Y311797D01*
X1323999Y309770D01*
X1331230D01*
Y317001D01*
D02*
G37*
G36*
X1341001Y307230D02*
X1333770D01*
Y299999D01*
X1335796Y300542D01*
X1337744Y301667D01*
X1339334Y303257D01*
X1340458Y305204D01*
X1341001Y307230D01*
D02*
G37*
G36*
X1331230D02*
X1323999D01*
X1324542Y305204D01*
X1325666Y303257D01*
X1327256Y301667D01*
X1329204Y300542D01*
X1331230Y299999D01*
Y307230D01*
D02*
G37*
G36*
X764957Y305270D02*
X763043D01*
X761194Y304775D01*
X759536Y303818D01*
X758182Y302464D01*
X757225Y300806D01*
X756730Y298957D01*
Y297043D01*
X757225Y295194D01*
X758182Y293536D01*
X759536Y292183D01*
X761194Y291226D01*
X763043Y290730D01*
X764957D01*
X766806Y291226D01*
X768464Y292183D01*
X769817Y293536D01*
X770774Y295194D01*
X771270Y297043D01*
Y298957D01*
X770774Y300806D01*
X769817Y302464D01*
X768464Y303818D01*
X766806Y304775D01*
X764957Y305270D01*
D02*
G37*
G36*
X1434457Y297770D02*
X1432543D01*
X1430694Y297274D01*
X1429036Y296317D01*
X1427683Y294964D01*
X1426726Y293306D01*
X1426230Y291457D01*
Y289543D01*
X1426726Y287694D01*
X1427683Y286036D01*
X1429036Y284683D01*
X1430694Y283725D01*
X1432543Y283230D01*
X1434457D01*
X1436306Y283725D01*
X1437964Y284683D01*
X1439318Y286036D01*
X1440275Y287694D01*
X1440770Y289543D01*
Y291457D01*
X1440275Y293306D01*
X1439318Y294964D01*
X1437964Y296317D01*
X1436306Y297274D01*
X1434457Y297770D01*
D02*
G37*
G36*
X1390270Y281001D02*
Y273770D01*
X1397501D01*
X1396958Y275796D01*
X1395834Y277744D01*
X1394243Y279334D01*
X1392296Y280458D01*
X1390270Y281001D01*
D02*
G37*
G36*
X1387730D02*
X1385704Y280458D01*
X1383756Y279334D01*
X1382166Y277744D01*
X1381042Y275796D01*
X1380499Y273770D01*
X1387730D01*
Y281001D01*
D02*
G37*
G36*
X1332270D02*
Y273770D01*
X1339501D01*
X1338958Y275796D01*
X1337834Y277744D01*
X1336244Y279334D01*
X1334296Y280458D01*
X1332270Y281001D01*
D02*
G37*
G36*
X1329730D02*
X1327704Y280458D01*
X1325756Y279334D01*
X1324166Y277744D01*
X1323042Y275796D01*
X1322499Y273770D01*
X1329730D01*
Y281001D01*
D02*
G37*
G36*
X1397501Y271230D02*
X1390270D01*
Y263999D01*
X1392296Y264542D01*
X1394243Y265666D01*
X1395834Y267256D01*
X1396958Y269204D01*
X1397501Y271230D01*
D02*
G37*
G36*
X1387730D02*
X1380499D01*
X1381042Y269204D01*
X1382166Y267256D01*
X1383756Y265666D01*
X1385704Y264542D01*
X1387730Y263999D01*
Y271230D01*
D02*
G37*
G36*
X1339501D02*
X1332270D01*
Y263999D01*
X1334296Y264542D01*
X1336244Y265666D01*
X1337834Y267256D01*
X1338958Y269204D01*
X1339501Y271230D01*
D02*
G37*
G36*
X1329730D02*
X1322499D01*
X1323042Y269204D01*
X1324166Y267256D01*
X1325756Y265666D01*
X1327704Y264542D01*
X1329730Y263999D01*
Y271230D01*
D02*
G37*
G36*
X657957Y273525D02*
X656043D01*
X654194Y273029D01*
X652536Y272072D01*
X651182Y270719D01*
X650225Y269061D01*
X649730Y267212D01*
Y265298D01*
X650225Y263449D01*
X651182Y261791D01*
X652536Y260437D01*
X654194Y259480D01*
X656043Y258985D01*
X657957D01*
X659806Y259480D01*
X661464Y260437D01*
X662817Y261791D01*
X663774Y263449D01*
X664270Y265298D01*
Y267212D01*
X663774Y269061D01*
X662817Y270719D01*
X661464Y272072D01*
X659806Y273029D01*
X657957Y273525D01*
D02*
G37*
G36*
X918822Y254940D02*
X918770D01*
Y246170D01*
X927540D01*
Y246222D01*
X926856Y248775D01*
X925534Y251065D01*
X923665Y252934D01*
X921375Y254256D01*
X918822Y254940D01*
D02*
G37*
G36*
X916230D02*
X916178D01*
X913625Y254256D01*
X911335Y252934D01*
X909466Y251065D01*
X908144Y248775D01*
X907460Y246222D01*
Y246170D01*
X916230D01*
Y254940D01*
D02*
G37*
G36*
X1045655Y253670D02*
X1043345D01*
X1041115Y253072D01*
X1039115Y251918D01*
X1037482Y250285D01*
X1036328Y248285D01*
X1035730Y246054D01*
Y243745D01*
X1036328Y241515D01*
X1037482Y239515D01*
X1039115Y237882D01*
X1041115Y236728D01*
X1043345Y236130D01*
X1045655D01*
X1047885Y236728D01*
X1049885Y237882D01*
X1051518Y239515D01*
X1052672Y241515D01*
X1053270Y243745D01*
Y246054D01*
X1052672Y248285D01*
X1051518Y250285D01*
X1049885Y251918D01*
X1047885Y253072D01*
X1045655Y253670D01*
D02*
G37*
G36*
X1020255D02*
X1017945D01*
X1015715Y253072D01*
X1013715Y251918D01*
X1012082Y250285D01*
X1010928Y248285D01*
X1010330Y246054D01*
Y243745D01*
X1010928Y241515D01*
X1012082Y239515D01*
X1013715Y237882D01*
X1015715Y236728D01*
X1017945Y236130D01*
X1020255D01*
X1022485Y236728D01*
X1024485Y237882D01*
X1026118Y239515D01*
X1027272Y241515D01*
X1027870Y243745D01*
Y246054D01*
X1027272Y248285D01*
X1026118Y250285D01*
X1024485Y251918D01*
X1022485Y253072D01*
X1020255Y253670D01*
D02*
G37*
G36*
X994855D02*
X992545D01*
X990315Y253072D01*
X988315Y251918D01*
X986682Y250285D01*
X985528Y248285D01*
X984930Y246054D01*
Y243745D01*
X985528Y241515D01*
X986682Y239515D01*
X988315Y237882D01*
X990315Y236728D01*
X992545Y236130D01*
X994855D01*
X997085Y236728D01*
X999085Y237882D01*
X1000718Y239515D01*
X1001872Y241515D01*
X1002470Y243745D01*
Y246054D01*
X1001872Y248285D01*
X1000718Y250285D01*
X999085Y251918D01*
X997085Y253072D01*
X994855Y253670D01*
D02*
G37*
G36*
X969455D02*
X967145D01*
X964915Y253072D01*
X962915Y251918D01*
X961282Y250285D01*
X960128Y248285D01*
X959530Y246054D01*
Y243745D01*
X960128Y241515D01*
X961282Y239515D01*
X962915Y237882D01*
X964915Y236728D01*
X967145Y236130D01*
X969455D01*
X971685Y236728D01*
X973685Y237882D01*
X975318Y239515D01*
X976472Y241515D01*
X977070Y243745D01*
Y246054D01*
X976472Y248285D01*
X975318Y250285D01*
X973685Y251918D01*
X971685Y253072D01*
X969455Y253670D01*
D02*
G37*
G36*
X944055D02*
X941745D01*
X939515Y253072D01*
X937515Y251918D01*
X935882Y250285D01*
X934728Y248285D01*
X934130Y246054D01*
Y243745D01*
X934728Y241515D01*
X935882Y239515D01*
X937515Y237882D01*
X939515Y236728D01*
X941745Y236130D01*
X944055D01*
X946285Y236728D01*
X948285Y237882D01*
X949918Y239515D01*
X951072Y241515D01*
X951670Y243745D01*
Y246054D01*
X951072Y248285D01*
X949918Y250285D01*
X948285Y251918D01*
X946285Y253072D01*
X944055Y253670D01*
D02*
G37*
G36*
X927540Y243630D02*
X918770D01*
Y234860D01*
X918822D01*
X921375Y235544D01*
X923665Y236866D01*
X925534Y238735D01*
X926856Y241025D01*
X927540Y243578D01*
Y243630D01*
D02*
G37*
G36*
X916230D02*
X907460D01*
Y243578D01*
X908144Y241025D01*
X909466Y238735D01*
X911335Y236866D01*
X913625Y235544D01*
X916178Y234860D01*
X916230D01*
Y243630D01*
D02*
G37*
G36*
X561457Y245025D02*
X559543D01*
X557694Y244529D01*
X556036Y243572D01*
X554683Y242218D01*
X553726Y240561D01*
X553230Y238712D01*
Y236797D01*
X553726Y234948D01*
X554683Y233291D01*
X556036Y231937D01*
X557694Y230980D01*
X559543Y230485D01*
X561457D01*
X563306Y230980D01*
X564964Y231937D01*
X566317Y233291D01*
X567275Y234948D01*
X567770Y236797D01*
Y238712D01*
X567275Y240561D01*
X566317Y242218D01*
X564964Y243572D01*
X563306Y244529D01*
X561457Y245025D01*
D02*
G37*
G36*
X584957Y244525D02*
X583043D01*
X581194Y244029D01*
X579536Y243072D01*
X578183Y241719D01*
X577226Y240061D01*
X576730Y238212D01*
Y236297D01*
X577226Y234449D01*
X578183Y232791D01*
X579536Y231437D01*
X581194Y230480D01*
X583043Y229985D01*
X584957D01*
X586806Y230480D01*
X588464Y231437D01*
X589818Y232791D01*
X590775Y234449D01*
X591270Y236297D01*
Y238212D01*
X590775Y240061D01*
X589818Y241719D01*
X588464Y243072D01*
X586806Y244029D01*
X584957Y244525D01*
D02*
G37*
G36*
X927540Y229540D02*
X918770D01*
Y220770D01*
X927540D01*
Y229540D01*
D02*
G37*
G36*
X916230D02*
X907460D01*
Y220770D01*
X916230D01*
Y229540D01*
D02*
G37*
G36*
X1045655Y228270D02*
X1043345D01*
X1041115Y227672D01*
X1039115Y226518D01*
X1037482Y224885D01*
X1036328Y222885D01*
X1035730Y220654D01*
Y218345D01*
X1036328Y216115D01*
X1037482Y214115D01*
X1039115Y212482D01*
X1041115Y211327D01*
X1043345Y210730D01*
X1045655D01*
X1047885Y211327D01*
X1049885Y212482D01*
X1051518Y214115D01*
X1052672Y216115D01*
X1053270Y218345D01*
Y220654D01*
X1052672Y222885D01*
X1051518Y224885D01*
X1049885Y226518D01*
X1047885Y227672D01*
X1045655Y228270D01*
D02*
G37*
G36*
X1020255D02*
X1017945D01*
X1015715Y227672D01*
X1013715Y226518D01*
X1012082Y224885D01*
X1010928Y222885D01*
X1010330Y220654D01*
Y218345D01*
X1010928Y216115D01*
X1012082Y214115D01*
X1013715Y212482D01*
X1015715Y211327D01*
X1017945Y210730D01*
X1020255D01*
X1022485Y211327D01*
X1024485Y212482D01*
X1026118Y214115D01*
X1027272Y216115D01*
X1027870Y218345D01*
Y220654D01*
X1027272Y222885D01*
X1026118Y224885D01*
X1024485Y226518D01*
X1022485Y227672D01*
X1020255Y228270D01*
D02*
G37*
G36*
X994855D02*
X992545D01*
X990315Y227672D01*
X988315Y226518D01*
X986682Y224885D01*
X985528Y222885D01*
X984930Y220654D01*
Y218345D01*
X985528Y216115D01*
X986682Y214115D01*
X988315Y212482D01*
X990315Y211327D01*
X992545Y210730D01*
X994855D01*
X997085Y211327D01*
X999085Y212482D01*
X1000718Y214115D01*
X1001872Y216115D01*
X1002470Y218345D01*
Y220654D01*
X1001872Y222885D01*
X1000718Y224885D01*
X999085Y226518D01*
X997085Y227672D01*
X994855Y228270D01*
D02*
G37*
G36*
X969455D02*
X967145D01*
X964915Y227672D01*
X962915Y226518D01*
X961282Y224885D01*
X960128Y222885D01*
X959530Y220654D01*
Y218345D01*
X960128Y216115D01*
X961282Y214115D01*
X962915Y212482D01*
X964915Y211327D01*
X967145Y210730D01*
X969455D01*
X971685Y211327D01*
X973685Y212482D01*
X975318Y214115D01*
X976472Y216115D01*
X977070Y218345D01*
Y220654D01*
X976472Y222885D01*
X975318Y224885D01*
X973685Y226518D01*
X971685Y227672D01*
X969455Y228270D01*
D02*
G37*
G36*
X944055D02*
X941745D01*
X939515Y227672D01*
X937515Y226518D01*
X935882Y224885D01*
X934728Y222885D01*
X934130Y220654D01*
Y218345D01*
X934728Y216115D01*
X935882Y214115D01*
X937515Y212482D01*
X939515Y211327D01*
X941745Y210730D01*
X944055D01*
X946285Y211327D01*
X948285Y212482D01*
X949918Y214115D01*
X951072Y216115D01*
X951670Y218345D01*
Y220654D01*
X951072Y222885D01*
X949918Y224885D01*
X948285Y226518D01*
X946285Y227672D01*
X944055Y228270D01*
D02*
G37*
G36*
X927540Y218230D02*
X918770D01*
Y209460D01*
X927540D01*
Y218230D01*
D02*
G37*
G36*
X916230D02*
X907460D01*
Y209460D01*
X916230D01*
Y218230D01*
D02*
G37*
G36*
X531270Y214501D02*
Y207270D01*
X538501D01*
X537958Y209296D01*
X536834Y211244D01*
X535244Y212834D01*
X533296Y213958D01*
X531270Y214501D01*
D02*
G37*
G36*
X528730D02*
X526704Y213958D01*
X524756Y212834D01*
X523166Y211244D01*
X522042Y209296D01*
X521499Y207270D01*
X528730D01*
Y214501D01*
D02*
G37*
G36*
X657957Y216525D02*
X656043D01*
X654194Y216029D01*
X652536Y215072D01*
X651183Y213718D01*
X650226Y212061D01*
X649730Y210212D01*
Y208298D01*
X650226Y206448D01*
X651183Y204791D01*
X652536Y203437D01*
X654194Y202480D01*
X656043Y201985D01*
X657957D01*
X659806Y202480D01*
X661464Y203437D01*
X662818Y204791D01*
X663775Y206448D01*
X664270Y208298D01*
Y210212D01*
X663775Y212061D01*
X662818Y213718D01*
X661464Y215072D01*
X659806Y216029D01*
X657957Y216525D01*
D02*
G37*
G36*
X1412957Y215270D02*
X1411043D01*
X1409194Y214775D01*
X1407536Y213817D01*
X1406183Y212464D01*
X1405225Y210806D01*
X1404730Y208957D01*
Y207043D01*
X1405225Y205194D01*
X1406183Y203536D01*
X1407536Y202183D01*
X1409194Y201225D01*
X1411043Y200730D01*
X1412957D01*
X1414806Y201225D01*
X1416464Y202183D01*
X1417817Y203536D01*
X1418775Y205194D01*
X1419270Y207043D01*
Y208957D01*
X1418775Y210806D01*
X1417817Y212464D01*
X1416464Y213817D01*
X1414806Y214775D01*
X1412957Y215270D01*
D02*
G37*
G36*
X1293957Y214770D02*
X1292043D01*
X1290194Y214274D01*
X1288536Y213317D01*
X1287183Y211964D01*
X1286225Y210306D01*
X1285730Y208457D01*
Y206543D01*
X1286225Y204694D01*
X1287183Y203036D01*
X1288536Y201682D01*
X1290194Y200725D01*
X1292043Y200230D01*
X1293957D01*
X1295806Y200725D01*
X1297464Y201682D01*
X1298817Y203036D01*
X1299775Y204694D01*
X1300270Y206543D01*
Y208457D01*
X1299775Y210306D01*
X1298817Y211964D01*
X1297464Y213317D01*
X1295806Y214274D01*
X1293957Y214770D01*
D02*
G37*
G36*
X538501Y204730D02*
X531270D01*
Y197499D01*
X533296Y198042D01*
X535244Y199166D01*
X536834Y200756D01*
X537958Y202704D01*
X538501Y204730D01*
D02*
G37*
G36*
X528730D02*
X521499D01*
X522042Y202704D01*
X523166Y200756D01*
X524756Y199166D01*
X526704Y198042D01*
X528730Y197499D01*
Y204730D01*
D02*
G37*
G36*
X1334770Y201501D02*
Y194270D01*
X1342001D01*
X1341458Y196296D01*
X1340334Y198244D01*
X1338743Y199834D01*
X1336796Y200958D01*
X1334770Y201501D01*
D02*
G37*
G36*
X1332230D02*
X1330204Y200958D01*
X1328256Y199834D01*
X1326666Y198244D01*
X1325542Y196296D01*
X1324999Y194270D01*
X1332230D01*
Y201501D01*
D02*
G37*
G36*
X1342001Y191730D02*
X1334770D01*
Y184499D01*
X1336796Y185042D01*
X1338743Y186166D01*
X1340334Y187756D01*
X1341458Y189704D01*
X1342001Y191730D01*
D02*
G37*
G36*
X1332230D02*
X1324999D01*
X1325542Y189704D01*
X1326666Y187756D01*
X1328256Y186166D01*
X1330204Y185042D01*
X1332230Y184499D01*
Y191730D01*
D02*
G37*
G36*
X1121186Y77055D02*
X1119272D01*
X1117423Y76560D01*
X1115765Y75603D01*
X1114411Y74249D01*
X1113454Y72591D01*
X1112959Y70742D01*
Y68828D01*
X1113454Y66979D01*
X1114411Y65321D01*
X1115765Y63968D01*
X1117423Y63011D01*
X1119272Y62515D01*
X1121186D01*
X1123035Y63011D01*
X1124693Y63968D01*
X1126046Y65321D01*
X1127003Y66979D01*
X1127499Y68828D01*
Y70742D01*
X1127003Y72591D01*
X1126046Y74249D01*
X1124693Y75603D01*
X1123035Y76560D01*
X1121186Y77055D01*
D02*
G37*
G36*
X1246942Y69984D02*
X1229402D01*
Y52445D01*
X1246942D01*
Y69984D01*
D02*
G37*
G36*
X1213927D02*
X1211618D01*
X1209387Y69387D01*
X1207387Y68232D01*
X1205755Y66599D01*
X1204600Y64600D01*
X1204002Y62369D01*
Y60060D01*
X1204600Y57829D01*
X1205755Y55830D01*
X1207387Y54197D01*
X1209387Y53042D01*
X1211618Y52445D01*
X1213927D01*
X1216158Y53042D01*
X1218157Y54197D01*
X1219790Y55830D01*
X1220945Y57829D01*
X1221542Y60060D01*
Y62369D01*
X1220945Y64600D01*
X1219790Y66599D01*
X1218157Y68232D01*
X1216158Y69387D01*
X1213927Y69984D01*
D02*
G37*
G36*
X1101957Y49270D02*
X1100043D01*
X1098194Y48775D01*
X1096536Y47817D01*
X1095183Y46464D01*
X1094225Y44806D01*
X1093730Y42957D01*
Y41043D01*
X1094225Y39194D01*
X1095183Y37536D01*
X1096536Y36183D01*
X1098194Y35225D01*
X1100043Y34730D01*
X1101957D01*
X1103806Y35225D01*
X1105464Y36183D01*
X1106817Y37536D01*
X1107775Y39194D01*
X1108270Y41043D01*
Y42957D01*
X1107775Y44806D01*
X1106817Y46464D01*
X1105464Y47817D01*
X1103806Y48775D01*
X1101957Y49270D01*
D02*
G37*
G36*
X1123957Y48270D02*
X1122043D01*
X1120194Y47775D01*
X1118536Y46817D01*
X1117183Y45464D01*
X1116225Y43806D01*
X1115730Y41957D01*
Y40043D01*
X1116225Y38194D01*
X1117183Y36536D01*
X1118536Y35183D01*
X1120194Y34225D01*
X1122043Y33730D01*
X1123957D01*
X1125806Y34225D01*
X1127464Y35183D01*
X1128817Y36536D01*
X1129775Y38194D01*
X1130270Y40043D01*
Y41957D01*
X1129775Y43806D01*
X1128817Y45464D01*
X1127464Y46817D01*
X1125806Y47775D01*
X1123957Y48270D01*
D02*
G37*
G36*
X1551003Y27620D02*
X1548997D01*
X1547059Y27101D01*
X1545321Y26098D01*
X1543902Y24679D01*
X1542899Y22941D01*
X1542380Y21003D01*
Y18997D01*
X1542899Y17059D01*
X1543902Y15321D01*
X1545321Y13902D01*
X1547059Y12899D01*
X1548997Y12380D01*
X1551003D01*
X1552941Y12899D01*
X1554679Y13902D01*
X1556098Y15321D01*
X1557101Y17059D01*
X1557620Y18997D01*
Y21003D01*
X1557101Y22941D01*
X1556098Y24679D01*
X1554679Y26098D01*
X1552941Y27101D01*
X1551003Y27620D01*
D02*
G37*
G36*
X285386Y159729D02*
Y152498D01*
X292617D01*
X292074Y154525D01*
X290950Y156472D01*
X289360Y158062D01*
X287412Y159186D01*
X285386Y159729D01*
D02*
G37*
G36*
X282846D02*
X280820Y159186D01*
X278872Y158062D01*
X277282Y156472D01*
X276158Y154525D01*
X275615Y152498D01*
X282846D01*
Y159729D01*
D02*
G37*
G36*
X292617Y149958D02*
X285386D01*
Y142727D01*
X287412Y143270D01*
X289360Y144395D01*
X290950Y145985D01*
X292074Y147932D01*
X292617Y149958D01*
D02*
G37*
G36*
X282846D02*
X275615D01*
X276158Y147932D01*
X277282Y145985D01*
X278872Y144395D01*
X280820Y143270D01*
X282846Y142727D01*
Y149958D01*
D02*
G37*
G36*
X284957Y78270D02*
X283043D01*
X281194Y77775D01*
X279536Y76817D01*
X278183Y75464D01*
X277225Y73806D01*
X276730Y71957D01*
Y70043D01*
X277225Y68194D01*
X278183Y66536D01*
X279536Y65183D01*
X281194Y64225D01*
X283043Y63730D01*
X284957D01*
X286806Y64225D01*
X288464Y65183D01*
X289817Y66536D01*
X290775Y68194D01*
X291270Y70043D01*
Y71957D01*
X290775Y73806D01*
X289817Y75464D01*
X288464Y76817D01*
X286806Y77775D01*
X284957Y78270D01*
D02*
G37*
G36*
X120922Y65040D02*
X120870D01*
Y56270D01*
X129640D01*
Y56322D01*
X128955Y58875D01*
X127634Y61165D01*
X125765Y63034D01*
X123475Y64356D01*
X120922Y65040D01*
D02*
G37*
G36*
X153770Y63770D02*
X136230D01*
Y46230D01*
X153770D01*
Y63770D01*
D02*
G37*
G36*
X129640Y53730D02*
X120870D01*
Y44960D01*
X120922D01*
X123475Y45644D01*
X125765Y46966D01*
X127634Y48835D01*
X128955Y51125D01*
X129640Y53678D01*
Y53730D01*
D02*
G37*
G36*
X913270Y195501D02*
Y188270D01*
X920501D01*
X919958Y190296D01*
X918834Y192244D01*
X917244Y193834D01*
X915296Y194958D01*
X913270Y195501D01*
D02*
G37*
G36*
X910730D02*
X908704Y194958D01*
X906756Y193834D01*
X905166Y192244D01*
X904042Y190296D01*
X903499Y188270D01*
X910730D01*
Y195501D01*
D02*
G37*
G36*
X920501Y185730D02*
X913270D01*
Y178499D01*
X915296Y179042D01*
X917244Y180166D01*
X918834Y181756D01*
X919958Y183704D01*
X920501Y185730D01*
D02*
G37*
G36*
X910730D02*
X903499D01*
X904042Y183704D01*
X905166Y181756D01*
X906756Y180166D01*
X908704Y179042D01*
X910730Y178499D01*
Y185730D01*
D02*
G37*
G36*
X1011957Y182270D02*
X1010043D01*
X1008194Y181775D01*
X1006536Y180817D01*
X1005183Y179464D01*
X1004225Y177806D01*
X1003730Y175957D01*
Y174043D01*
X1004225Y172194D01*
X1005183Y170536D01*
X1006536Y169183D01*
X1008194Y168225D01*
X1010043Y167730D01*
X1011957D01*
X1013806Y168225D01*
X1015464Y169183D01*
X1016817Y170536D01*
X1017775Y172194D01*
X1018270Y174043D01*
Y175957D01*
X1017775Y177806D01*
X1016817Y179464D01*
X1015464Y180817D01*
X1013806Y181775D01*
X1011957Y182270D01*
D02*
G37*
G36*
X951957Y149770D02*
X950043D01*
X948194Y149275D01*
X946536Y148317D01*
X945183Y146964D01*
X944225Y145306D01*
X943730Y143457D01*
Y141543D01*
X944225Y139694D01*
X945183Y138036D01*
X946536Y136683D01*
X948194Y135725D01*
X950043Y135230D01*
X951957D01*
X953806Y135725D01*
X955464Y136683D01*
X956817Y138036D01*
X957775Y139694D01*
X958270Y141543D01*
Y143457D01*
X957775Y145306D01*
X956817Y146964D01*
X955464Y148317D01*
X953806Y149275D01*
X951957Y149770D01*
D02*
G37*
G36*
X952770Y124001D02*
Y116770D01*
X960001D01*
X959458Y118796D01*
X958334Y120744D01*
X956744Y122334D01*
X954796Y123458D01*
X952770Y124001D01*
D02*
G37*
G36*
X950230D02*
X948204Y123458D01*
X946256Y122334D01*
X944666Y120744D01*
X943542Y118796D01*
X942999Y116770D01*
X950230D01*
Y124001D01*
D02*
G37*
G36*
X960001Y114230D02*
X952770D01*
Y106999D01*
X954796Y107542D01*
X956744Y108666D01*
X958334Y110256D01*
X959458Y112204D01*
X960001Y114230D01*
D02*
G37*
G36*
X950230D02*
X942999D01*
X943542Y112204D01*
X944666Y110256D01*
X946256Y108666D01*
X948204Y107542D01*
X950230Y106999D01*
Y114230D01*
D02*
G37*
G36*
X728270Y111501D02*
Y104270D01*
X735501D01*
X734958Y106296D01*
X733834Y108244D01*
X732244Y109834D01*
X730296Y110958D01*
X728270Y111501D01*
D02*
G37*
G36*
X725730D02*
X723704Y110958D01*
X721756Y109834D01*
X720166Y108244D01*
X719042Y106296D01*
X718499Y104270D01*
X725730D01*
Y111501D01*
D02*
G37*
G36*
X1056270Y103501D02*
Y96270D01*
X1063501D01*
X1062958Y98296D01*
X1061834Y100244D01*
X1060244Y101834D01*
X1058296Y102958D01*
X1056270Y103501D01*
D02*
G37*
G36*
X1053730D02*
X1051704Y102958D01*
X1049756Y101834D01*
X1048166Y100244D01*
X1047042Y98296D01*
X1046499Y96270D01*
X1053730D01*
Y103501D01*
D02*
G37*
G36*
X735501Y101730D02*
X728270D01*
Y94499D01*
X730296Y95042D01*
X732244Y96166D01*
X733834Y97756D01*
X734958Y99704D01*
X735501Y101730D01*
D02*
G37*
G36*
X725730D02*
X718499D01*
X719042Y99704D01*
X720166Y97756D01*
X721756Y96166D01*
X723704Y95042D01*
X725730Y94499D01*
Y101730D01*
D02*
G37*
G36*
X1063501Y93730D02*
X1056270D01*
Y86499D01*
X1058296Y87042D01*
X1060244Y88166D01*
X1061834Y89756D01*
X1062958Y91704D01*
X1063501Y93730D01*
D02*
G37*
G36*
X1053730D02*
X1046499D01*
X1047042Y91704D01*
X1048166Y89756D01*
X1049756Y88166D01*
X1051704Y87042D01*
X1053730Y86499D01*
Y93730D01*
D02*
G37*
G36*
X952770Y70001D02*
Y62770D01*
X960001D01*
X959458Y64796D01*
X958334Y66744D01*
X956744Y68334D01*
X954796Y69458D01*
X952770Y70001D01*
D02*
G37*
G36*
X950230D02*
X948204Y69458D01*
X946256Y68334D01*
X944666Y66744D01*
X943542Y64796D01*
X942999Y62770D01*
X950230D01*
Y70001D01*
D02*
G37*
G36*
X960001Y60230D02*
X952770D01*
Y52999D01*
X954796Y53542D01*
X956744Y54666D01*
X958334Y56256D01*
X959458Y58204D01*
X960001Y60230D01*
D02*
G37*
G36*
X950230D02*
X942999D01*
X943542Y58204D01*
X944666Y56256D01*
X946256Y54666D01*
X948204Y53542D01*
X950230Y52999D01*
Y60230D01*
D02*
G37*
G36*
X801003Y27620D02*
X798997D01*
X797059Y27101D01*
X795321Y26098D01*
X793903Y24679D01*
X792899Y22941D01*
X792380Y21003D01*
Y18997D01*
X792899Y17059D01*
X793903Y15321D01*
X795321Y13902D01*
X797059Y12899D01*
X798997Y12380D01*
X801003D01*
X802941Y12899D01*
X804679Y13902D01*
X806097Y15321D01*
X807101Y17059D01*
X807620Y18997D01*
Y21003D01*
X807101Y22941D01*
X806097Y24679D01*
X804679Y26098D01*
X802941Y27101D01*
X801003Y27620D01*
D02*
G37*
G36*
X116270Y153990D02*
Y146759D01*
X123501D01*
X122958Y148785D01*
X121833Y150733D01*
X120244Y152323D01*
X118296Y153447D01*
X116270Y153990D01*
D02*
G37*
G36*
X113730D02*
X111704Y153447D01*
X109756Y152323D01*
X108166Y150733D01*
X107042Y148785D01*
X106499Y146759D01*
X113730D01*
Y153990D01*
D02*
G37*
G36*
X123501Y144219D02*
X116270D01*
Y136988D01*
X118296Y137531D01*
X120244Y138655D01*
X121833Y140245D01*
X122958Y142193D01*
X123501Y144219D01*
D02*
G37*
G36*
X113730D02*
X106499D01*
X107042Y142193D01*
X108166Y140245D01*
X109756Y138655D01*
X111704Y137531D01*
X113730Y136988D01*
Y144219D01*
D02*
G37*
G36*
X71457Y97259D02*
X69543D01*
X67694Y96763D01*
X66036Y95806D01*
X64683Y94453D01*
X63726Y92795D01*
X63230Y90946D01*
Y89032D01*
X63726Y87183D01*
X64683Y85525D01*
X66036Y84171D01*
X67694Y83214D01*
X69543Y82719D01*
X71457D01*
X73306Y83214D01*
X74964Y84171D01*
X76318Y85525D01*
X77275Y87183D01*
X77770Y89032D01*
Y90946D01*
X77275Y92795D01*
X76318Y94453D01*
X74964Y95806D01*
X73306Y96763D01*
X71457Y97259D01*
D02*
G37*
G36*
X70122Y65040D02*
X70070D01*
Y56270D01*
X78840D01*
Y56322D01*
X78155Y58875D01*
X76834Y61165D01*
X74964Y63034D01*
X72675Y64356D01*
X70122Y65040D01*
D02*
G37*
G36*
X67530D02*
X67478D01*
X64925Y64356D01*
X62635Y63034D01*
X60766Y61165D01*
X59444Y58875D01*
X58760Y56322D01*
Y56270D01*
X67530D01*
Y65040D01*
D02*
G37*
G36*
X95354Y63770D02*
X93045D01*
X90815Y63172D01*
X88815Y62018D01*
X87182Y60385D01*
X86027Y58385D01*
X85430Y56154D01*
Y53845D01*
X86027Y51615D01*
X87182Y49615D01*
X88815Y47982D01*
X90815Y46828D01*
X93045Y46230D01*
X95354D01*
X97585Y46828D01*
X99585Y47982D01*
X101217Y49615D01*
X102372Y51615D01*
X102970Y53845D01*
Y56154D01*
X102372Y58385D01*
X101217Y60385D01*
X99585Y62018D01*
X97585Y63172D01*
X95354Y63770D01*
D02*
G37*
G36*
X78840Y53730D02*
X70070D01*
Y44960D01*
X70122D01*
X72675Y45644D01*
X74964Y46966D01*
X76834Y48835D01*
X78155Y51125D01*
X78840Y53678D01*
Y53730D01*
D02*
G37*
G36*
X67530D02*
X58760D01*
Y53678D01*
X59444Y51125D01*
X60766Y48835D01*
X62635Y46966D01*
X64925Y45644D01*
X67478Y44960D01*
X67530D01*
Y53730D01*
D02*
G37*
G36*
X41003Y27620D02*
X38997D01*
X37059Y27101D01*
X35321Y26098D01*
X33902Y24679D01*
X32899Y22941D01*
X32380Y21003D01*
Y18997D01*
X32899Y17059D01*
X33902Y15321D01*
X35321Y13902D01*
X37059Y12899D01*
X38997Y12380D01*
X41003D01*
X42941Y12899D01*
X44679Y13902D01*
X46097Y15321D01*
X47101Y17059D01*
X47620Y18997D01*
Y21003D01*
X47101Y22941D01*
X46097Y24679D01*
X44679Y26098D01*
X42941Y27101D01*
X41003Y27620D01*
D02*
G37*
%LPD*%
D12*
X-109298Y1011524D02*
X-111837Y1014063D01*
Y1019141D01*
X-109298Y1021681D01*
X-106759D01*
X-104220Y1019141D01*
Y1016602D01*
Y1019141D01*
X-101681Y1021681D01*
X-99142D01*
X-96602Y1019141D01*
Y1014063D01*
X-99142Y1011524D01*
X-94063Y1029298D02*
X-96602Y1031837D01*
X-99142D01*
Y1029298D01*
X-96602D01*
Y1031837D01*
X-94063Y1029298D01*
X-91524Y1026759D01*
X-109298Y1041994D02*
X-111837Y1044533D01*
Y1049612D01*
X-109298Y1052151D01*
X-99142D01*
X-96602Y1049612D01*
Y1044533D01*
X-99142Y1041994D01*
X-109298D01*
Y36524D02*
X-111837Y39063D01*
Y44142D01*
X-109298Y46681D01*
X-106759D01*
X-104220Y44142D01*
Y41602D01*
Y44142D01*
X-101681Y46681D01*
X-99142D01*
X-96602Y44142D01*
Y39063D01*
X-99142Y36524D01*
X-94063Y54298D02*
X-96602Y56837D01*
X-99142D01*
Y54298D01*
X-96602D01*
Y56837D01*
X-94063Y54298D01*
X-91524Y51759D01*
X-109298Y66994D02*
X-111837Y69533D01*
Y74612D01*
X-109298Y77151D01*
X-99142D01*
X-96602Y74612D01*
Y69533D01*
X-99142Y66994D01*
X-109298D01*
X761657Y-343398D02*
X766735D01*
X764196D01*
Y-328163D01*
X761657Y-330702D01*
X784510Y-328163D02*
X779431Y-330702D01*
X774353Y-335780D01*
Y-340858D01*
X776892Y-343398D01*
X781971D01*
X784510Y-340858D01*
Y-338319D01*
X781971Y-335780D01*
X774353D01*
X789588Y-330702D02*
X792127Y-328163D01*
X797206D01*
X799745Y-330702D01*
Y-340858D01*
X797206Y-343398D01*
X792127D01*
X789588Y-340858D01*
Y-330702D01*
X807362Y-345937D02*
X809902Y-343398D01*
Y-340858D01*
X807362D01*
Y-343398D01*
X809902D01*
X807362Y-345937D01*
X804823Y-348476D01*
X820058Y-330702D02*
X822597Y-328163D01*
X827676D01*
X830215Y-330702D01*
Y-340858D01*
X827676Y-343398D01*
X822597D01*
X820058Y-340858D01*
Y-330702D01*
X-331969Y461657D02*
Y466735D01*
Y464196D01*
X-347204D01*
X-344665Y461657D01*
Y474353D02*
X-347204Y476892D01*
Y481970D01*
X-344665Y484510D01*
X-334509D01*
X-331969Y481970D01*
Y476892D01*
X-334509Y474353D01*
X-344665D01*
Y489588D02*
X-347204Y492127D01*
Y497206D01*
X-344665Y499745D01*
X-334509D01*
X-331969Y497206D01*
Y492127D01*
X-334509Y489588D01*
X-344665D01*
X-329430Y507362D02*
X-331969Y509902D01*
X-334509D01*
Y507362D01*
X-331969D01*
Y509902D01*
X-329430Y507362D01*
X-326891Y504823D01*
X-344665Y520058D02*
X-347204Y522597D01*
Y527676D01*
X-344665Y530215D01*
X-334509D01*
X-331969Y527676D01*
Y522597D01*
X-334509Y520058D01*
X-344665D01*
D15*
X-0Y1000000D02*
X1600000D01*
X-0D02*
X0Y-0D01*
X1600000Y0D02*
Y1000000D01*
X1600000Y-0D02*
X1600000Y0D01*
X0Y-0D02*
X1600000D01*
X-100000Y1000000D02*
X-94920Y984760D01*
X-105080D02*
X-100000Y1000000D01*
X-105080Y985240D02*
X-100000Y970000D01*
X-94920Y985240D01*
X-100000Y985000D02*
Y1000000D01*
Y970000D02*
Y985000D01*
X-102540Y1000000D02*
X0D01*
X-102540Y970000D02*
X0D01*
X-110080Y15240D02*
X-105000Y0D01*
X-99920Y15240D01*
X-105000Y30000D02*
X-99920Y14760D01*
X-110080D02*
X-105000Y30000D01*
Y0D02*
Y15000D01*
Y30000D01*
X-107540Y0D02*
X-2540D01*
X-107540Y30000D02*
X0D01*
Y-331717D02*
X15240Y-326637D01*
X0Y-331717D02*
X15240Y-336797D01*
X1584760D02*
X1600000Y-331717D01*
X1584760Y-326637D02*
X1600000Y-331717D01*
X0D02*
X757593D01*
X834279D02*
X1600000D01*
X0Y-334257D02*
Y-2540D01*
X1600000Y-334257D02*
Y-2540D01*
X-348730Y15240D02*
X-343650Y0D01*
X-338570Y15240D01*
X-343650Y1000000D02*
X-338570Y984760D01*
X-348730D02*
X-343650Y1000000D01*
Y0D02*
Y457593D01*
Y534279D02*
Y1000000D01*
X-346190Y0D02*
X-2540D01*
X-346190Y1000000D02*
X-2540D01*
D50*
X1206000Y657000D02*
D03*
D64*
X917500Y244900D02*
D03*
X119600Y55000D02*
D03*
X68800D02*
D03*
D65*
X917500Y219500D02*
D03*
D69*
X316300Y437100D02*
D03*
D71*
X371000Y402000D02*
D03*
X715000Y710000D02*
D03*
X541500Y743250D02*
D03*
X664500Y793250D02*
D03*
X530000Y206000D02*
D03*
X665000Y630000D02*
D03*
X1360000Y625000D02*
D03*
X1055000Y95000D02*
D03*
X1332500Y386500D02*
D03*
Y429000D02*
D03*
X1331000Y272500D02*
D03*
X912000Y187000D02*
D03*
X951500Y61500D02*
D03*
X951500Y115500D02*
D03*
X727000Y103000D02*
D03*
X1332500Y308500D02*
D03*
X1389500Y387500D02*
D03*
X199237Y703976D02*
D03*
X691000Y487000D02*
D03*
X699000Y369000D02*
D03*
X592500Y487500D02*
D03*
X405000Y317000D02*
D03*
X477000Y453000D02*
D03*
X174000Y843476D02*
D03*
X311000Y858476D02*
D03*
X1389000Y272500D02*
D03*
X1333500Y193000D02*
D03*
X1332500Y508000D02*
D03*
X1389000Y508500D02*
D03*
X332237Y718976D02*
D03*
X1237000Y573000D02*
D03*
X284116Y151228D02*
D03*
X185000Y170828D02*
D03*
X115000Y145489D02*
D03*
X381230Y154770D02*
D03*
X421494Y860000D02*
D03*
D72*
X1212730Y532870D02*
D03*
M02*
