M48
;Layer_Color=9474304
;FILE_FORMAT=4:4
METRIC
;TYPE=PLATED
T1F00S00C0.7000
T2F00S00C0.7112
T3F00S00C0.8000
T4F00S00C0.8001
T5F00S00C0.8890
T6F00S00C0.9000
T7F00S00C1.0000
T8F00S00C2.0000
%
T01
X01759000Y00419000
X01781000Y00418000
X01778229Y00446785
X01713000Y00472000
X01820000Y00659000
X01847042Y00786345
X01740042Y00773345
X01135000Y00719000
X01141000Y00696000
X01140000Y00660000
X01161500Y00591500
X01018000Y00510000
X00969000Y00481000
X00920886Y00506458
X00920770Y00426230
X00813000Y00556000
X00855033Y00775000
X01001000Y00775000
X01063000Y00735000
X00785033Y00733000
X00745500Y00776500
X00755000Y00667000
X00743000Y00543000
X00757000Y00509828
X00736000Y00449489
X00687000Y00484489
X00642500Y00428989
X00616000Y00543000
X00598000Y00751000
X00480000Y00770000
Y00897500
X00608000Y00862000
X00623000Y00834000
X00755000Y00858000
X00660237Y01008500
X00682237Y01068976
X00638000Y01146000
X00526000Y01147000
X00549237Y01053976
X00552237Y01008500
X00934500Y01043250
X00990000Y01016750
X01015000Y00980000
X01071320Y01036320
X01065000Y01060000
X01014500Y01143250
X00971500
X00930500Y01133250
X00947500Y01115250
X00891500Y01093250
X00855033Y00803000
X00836033Y00818000
X01028500Y00837500
X01063000Y00814000
X01127000Y00837000
X01172000Y00818500
X01170000Y00903000
Y00966000
X01296000Y00913000
X01822000Y00927000
X01816042Y00870345
X00885111Y01214603
X00817494Y01240000
X00867506Y01298494
X00771494Y01210000
X00661000Y01208476
X00524000Y01193476
T02
X01266000Y00563000
X01265808Y00620000
X01079500Y00933000
T03
X01822772Y00746215
Y00758915
Y00771615
X00597000Y00719100
Y00681000
X00540000Y00680900
Y00719000
T04
X00390000Y00370000
X01150000
X01900000
Y01330000
X01150000
X00390000
T05
X01850730Y00815470
Y00842370
Y00869270
T06
X01870772Y00438215
X01896172
X00882000Y00424000
X00856600
X00831200
X00805800
X00717100Y00710900
X00691700
X00666300
X00640900
Y00787100
X00666300
X00691700
X00717100
X00470000Y00680000
Y00655000
Y00985000
Y01010000
Y01185000
X01829000Y01177000
Y01152000
X01789172Y00824615
X01763772
Y00794615
X01789172
X00945000Y01246600
Y01272000
X00470000Y01210000
T07
X01671900Y00647320
Y00672720
Y00698120
X01672280Y00723275
Y00748894
Y00774078
X01468700Y00774320
X01469080Y00748678
Y00723494
Y00697875
X01468700Y00672720
Y00647320
Y00799720
Y00825120
Y00850520
Y00875920
Y00901320
Y00926720
Y00952120
Y00977520
X01671900
Y00952120
Y00926720
Y00901320
Y00875920
Y00850520
Y00825120
Y00799720
T08
X00419000Y00629000
Y00731000
Y00959000
Y01061000
Y01159000
X01880000Y01101000
Y01203000
X00419000Y01261000
M30
