%TF.GenerationSoftware,Altium Limited,Altium Designer,22.5.1 (42)*%
G04 Layer_Color=8421504*
%FSLAX44Y44*%
%MOMM*%
%TF.SameCoordinates,EDF0C4A9-A600-4E9B-A30B-1A7791E2F720*%
%TF.FilePolarity,Positive*%
%TF.FileFunction,Paste,Top*%
%TF.Part,Single*%
G01*
G75*
%TA.AperFunction,SMDPad,CuDef*%
%ADD10R,1.1000X1.7000*%
%ADD11R,0.3548X0.7818*%
%ADD12R,1.7000X1.1000*%
%ADD13R,0.9779X0.5080*%
%ADD14R,1.2000X1.4000*%
%ADD15R,1.8542X2.1590*%
%ADD16R,1.3335X0.4318*%
%ADD17R,1.4612X0.3508*%
%ADD18R,1.4732X0.3556*%
%ADD19R,0.9906X2.2098*%
%ADD20R,0.6008X1.1112*%
%ADD21R,1.1112X0.6008*%
%ADD22R,2.2098X0.9906*%
%ADD23R,1.3858X0.4310*%
%ADD25R,1.7780X1.9812*%
%ADD26R,1.3279X0.2794*%
%TA.AperFunction,Conductor*%
%ADD27C,0.5080*%
%ADD28C,0.3048*%
G36*
X762970Y478531D02*
X762548Y478480D01*
X762171Y478327D01*
X761838Y478073D01*
X761549Y477718D01*
X761305Y477261D01*
X761105Y476702D01*
X760950Y476041D01*
X760871Y475500D01*
X760950Y474959D01*
X761105Y474298D01*
X761305Y473739D01*
X761549Y473282D01*
X761838Y472927D01*
X762171Y472673D01*
X762548Y472520D01*
X762970Y472469D01*
X753130Y472439D01*
X753613Y472491D01*
X754045Y472646D01*
X754426Y472902D01*
X754756Y473260D01*
X755035Y473721D01*
X755264Y474282D01*
X755442Y474946D01*
X755534Y475500D01*
X755442Y476054D01*
X755264Y476717D01*
X755035Y477280D01*
X754756Y477740D01*
X754426Y478098D01*
X754045Y478354D01*
X753613Y478508D01*
X753130Y478561D01*
X762970Y478531D01*
D02*
G37*
G36*
X759956Y461393D02*
X759909Y461195D01*
X759868Y460902D01*
X759803Y460029D01*
X759734Y456178D01*
X756686D01*
X756413Y461495D01*
X760007D01*
X759956Y461393D01*
D02*
G37*
G36*
X760969Y455530D02*
X760710Y455438D01*
X760481Y455284D01*
X760283Y455068D01*
X760115Y454791D01*
X759978Y454453D01*
X759872Y454052D01*
X759795Y453591D01*
X759750Y453067D01*
X759734Y452482D01*
X756686D01*
X756671Y453067D01*
X756625Y453591D01*
X756549Y454052D01*
X756442Y454453D01*
X756305Y454791D01*
X756138Y455068D01*
X755939Y455284D01*
X755711Y455438D01*
X755452Y455530D01*
X755162Y455561D01*
X761258D01*
X760969Y455530D01*
D02*
G37*
G36*
X759750Y448961D02*
X759795Y448438D01*
X759872Y447976D01*
X759978Y447575D01*
X760115Y447237D01*
X760283Y446960D01*
X760481Y446744D01*
X760710Y446590D01*
X760969Y446498D01*
X761258Y446467D01*
X755162D01*
X755452Y446498D01*
X755711Y446590D01*
X755939Y446744D01*
X756138Y446960D01*
X756305Y447237D01*
X756442Y447575D01*
X756549Y447976D01*
X756625Y448438D01*
X756671Y448961D01*
X756686Y449546D01*
X759734D01*
X759750Y448961D01*
D02*
G37*
G36*
X776561Y380420D02*
X776510Y380903D01*
X776357Y381335D01*
X776101Y381716D01*
X775743Y382046D01*
X775284Y382325D01*
X774721Y382554D01*
X774057Y382732D01*
X773290Y382859D01*
X772422Y382935D01*
X771750Y382952D01*
X771080Y382935D01*
X770212Y382859D01*
X769446Y382732D01*
X768783Y382554D01*
X768221Y382325D01*
X767760Y382046D01*
X767402Y381716D01*
X767146Y381335D01*
X766992Y380903D01*
X766939Y380420D01*
X766970Y390470D01*
X767020Y390008D01*
X767173Y389595D01*
X767427Y389231D01*
X767782Y388915D01*
X768240Y388647D01*
X768798Y388429D01*
X769459Y388259D01*
X770221Y388137D01*
X771084Y388064D01*
X771744Y388048D01*
X772422Y388066D01*
X773290Y388142D01*
X774057Y388269D01*
X774721Y388447D01*
X775284Y388675D01*
X775743Y388955D01*
X776101Y389285D01*
X776357Y389666D01*
X776510Y390098D01*
X776561Y390580D01*
Y380420D01*
D02*
G37*
G36*
X344763Y135489D02*
X329237D01*
Y148221D01*
X344763D01*
Y135489D01*
D02*
G37*
G36*
Y120757D02*
X329237D01*
Y133489D01*
X344763D01*
Y120757D01*
D02*
G37*
D10*
X349500Y771000D02*
D03*
X322500D02*
D03*
X375500Y625000D02*
D03*
X348500D02*
D03*
X729500Y616000D02*
D03*
X756500D02*
D03*
X730500Y552754D02*
D03*
X757499D02*
D03*
X798500Y616000D02*
D03*
X771500D02*
D03*
X799500Y553000D02*
D03*
X772500D02*
D03*
X811500Y270000D02*
D03*
X838500D02*
D03*
X811500Y213000D02*
D03*
X838500D02*
D03*
X883500Y213000D02*
D03*
X856500D02*
D03*
X855500Y270000D02*
D03*
X882500D02*
D03*
X435533Y484000D02*
D03*
X462533D02*
D03*
Y405000D02*
D03*
X489533D02*
D03*
X1383500Y309000D02*
D03*
X1410500D02*
D03*
X1383500Y284000D02*
D03*
X1410500D02*
D03*
X1389500Y577000D02*
D03*
X1416500D02*
D03*
X613000Y689250D02*
D03*
X640000D02*
D03*
X730500Y464000D02*
D03*
X757500D02*
D03*
X730500Y487000D02*
D03*
X757500D02*
D03*
X651500Y467000D02*
D03*
X678500D02*
D03*
X651500Y445000D02*
D03*
X678500D02*
D03*
X761500Y382000D02*
D03*
X734500D02*
D03*
X761500Y360000D02*
D03*
X734500D02*
D03*
X394500Y336000D02*
D03*
X367500D02*
D03*
X393500Y361000D02*
D03*
X420500D02*
D03*
X368500Y463000D02*
D03*
X341500D02*
D03*
X289500Y484000D02*
D03*
X316500D02*
D03*
X289500Y463000D02*
D03*
X316500D02*
D03*
X238500Y797000D02*
D03*
X265500D02*
D03*
X220500D02*
D03*
X193500D02*
D03*
X219737Y658500D02*
D03*
X246737D02*
D03*
X289737D02*
D03*
X262737D02*
D03*
X363500Y78489D02*
D03*
X336500D02*
D03*
Y99489D02*
D03*
X363500D02*
D03*
X292500D02*
D03*
X319500D02*
D03*
X597500Y97000D02*
D03*
X570500D02*
D03*
X614500Y78000D02*
D03*
X641500D02*
D03*
Y99000D02*
D03*
X614500D02*
D03*
Y160000D02*
D03*
X641500D02*
D03*
X490500Y926000D02*
D03*
X517500D02*
D03*
X444994Y922000D02*
D03*
X471994D02*
D03*
Y943000D02*
D03*
X444994D02*
D03*
X471994Y860000D02*
D03*
X444994D02*
D03*
D11*
X765500Y572360D02*
D03*
X772000D02*
D03*
X778500D02*
D03*
Y593640D02*
D03*
X772000D02*
D03*
X765500D02*
D03*
X849250Y231110D02*
D03*
X855750D02*
D03*
X862250D02*
D03*
Y252390D02*
D03*
X855750D02*
D03*
X849250D02*
D03*
D12*
X405000Y489500D02*
D03*
Y462500D02*
D03*
X435033Y426500D02*
D03*
Y399500D02*
D03*
X486033Y452500D02*
D03*
Y425500D02*
D03*
X1386229Y106285D02*
D03*
Y79285D02*
D03*
X1363229Y106285D02*
D03*
Y79285D02*
D03*
X1470229Y107285D02*
D03*
Y80285D02*
D03*
X540500Y727750D02*
D03*
Y700750D02*
D03*
X562500Y727750D02*
D03*
Y700750D02*
D03*
Y756750D02*
D03*
Y783750D02*
D03*
X641500Y792750D02*
D03*
Y765750D02*
D03*
X663500Y676750D02*
D03*
Y703750D02*
D03*
X664500Y749750D02*
D03*
Y776750D02*
D03*
X689500Y733750D02*
D03*
Y760750D02*
D03*
X801000Y468500D02*
D03*
Y441500D02*
D03*
X779000Y468500D02*
D03*
Y441500D02*
D03*
X680000Y388500D02*
D03*
Y415500D02*
D03*
X785000Y385500D02*
D03*
Y412500D02*
D03*
X163000Y330500D02*
D03*
Y357500D02*
D03*
X218000Y330500D02*
D03*
Y357500D02*
D03*
X311000Y842500D02*
D03*
Y815500D02*
D03*
X288000Y842500D02*
D03*
Y815500D02*
D03*
X217000Y843500D02*
D03*
Y816500D02*
D03*
X194000Y843500D02*
D03*
Y816500D02*
D03*
X219237Y677000D02*
D03*
Y704000D02*
D03*
X241237Y677000D02*
D03*
Y704000D02*
D03*
X332237Y676000D02*
D03*
Y703000D02*
D03*
X310237Y676000D02*
D03*
Y703000D02*
D03*
X1412772Y396115D02*
D03*
Y423115D02*
D03*
X1466042Y474845D02*
D03*
Y501845D02*
D03*
X1439772Y423115D02*
D03*
Y396115D02*
D03*
X386000Y143989D02*
D03*
Y116989D02*
D03*
X407000Y143989D02*
D03*
Y116989D02*
D03*
X292000Y149989D02*
D03*
Y122989D02*
D03*
X667000Y114500D02*
D03*
Y141500D02*
D03*
X571000Y114500D02*
D03*
Y141500D02*
D03*
X517494Y905500D02*
D03*
Y878500D02*
D03*
X421494Y906500D02*
D03*
Y879500D02*
D03*
D13*
X462686Y443500D02*
D03*
Y453000D02*
D03*
Y462500D02*
D03*
X435381D02*
D03*
Y443500D02*
D03*
X238347Y841500D02*
D03*
Y832000D02*
D03*
Y822500D02*
D03*
X265652D02*
D03*
Y841500D02*
D03*
X289890Y702000D02*
D03*
Y683000D02*
D03*
X262584D02*
D03*
Y692500D02*
D03*
Y702000D02*
D03*
D14*
X1435000Y309000D02*
D03*
X1453000D02*
D03*
X1435000Y284000D02*
D03*
X1453000D02*
D03*
X1437000Y577000D02*
D03*
X1455000D02*
D03*
D15*
X1428229Y96785D02*
D03*
D16*
X1450390Y106535D02*
D03*
Y100035D02*
D03*
Y93535D02*
D03*
Y87035D02*
D03*
X1406067D02*
D03*
Y93535D02*
D03*
Y100035D02*
D03*
Y106535D02*
D03*
D17*
X640750Y753000D02*
D03*
Y746500D02*
D03*
Y740000D02*
D03*
Y733500D02*
D03*
Y727000D02*
D03*
Y720500D02*
D03*
Y714000D02*
D03*
Y707500D02*
D03*
X584250D02*
D03*
Y714000D02*
D03*
Y720500D02*
D03*
Y727000D02*
D03*
Y733500D02*
D03*
Y740000D02*
D03*
Y746500D02*
D03*
Y753000D02*
D03*
D18*
X758210Y444750D02*
D03*
Y438250D02*
D03*
Y431750D02*
D03*
Y425250D02*
D03*
Y418750D02*
D03*
Y412250D02*
D03*
Y405750D02*
D03*
Y399250D02*
D03*
X699790D02*
D03*
Y405750D02*
D03*
Y412250D02*
D03*
Y418750D02*
D03*
Y425250D02*
D03*
Y431750D02*
D03*
Y438250D02*
D03*
Y444750D02*
D03*
D19*
X266000Y295000D02*
D03*
X316800D02*
D03*
X342200D02*
D03*
X367600D02*
D03*
X393000D02*
D03*
Y215000D02*
D03*
X367600D02*
D03*
X342200D02*
D03*
X316800D02*
D03*
X266000D02*
D03*
D20*
X427000Y250250D02*
D03*
Y215750D02*
D03*
X449000Y260250D02*
D03*
Y225750D02*
D03*
D21*
X214250Y614000D02*
D03*
X179750D02*
D03*
X214250Y595000D02*
D03*
X179750D02*
D03*
D22*
X240000Y547000D02*
D03*
Y496200D02*
D03*
Y470800D02*
D03*
Y445400D02*
D03*
Y420000D02*
D03*
X160000D02*
D03*
Y445400D02*
D03*
Y470800D02*
D03*
Y496200D02*
D03*
Y547000D02*
D03*
D23*
X315156Y150739D02*
D03*
Y144239D02*
D03*
Y137739D02*
D03*
Y131239D02*
D03*
Y124739D02*
D03*
Y118239D02*
D03*
X358844D02*
D03*
Y124739D02*
D03*
Y131239D02*
D03*
Y137739D02*
D03*
Y144239D02*
D03*
Y150739D02*
D03*
D25*
X619000Y131000D02*
D03*
X467494Y890000D02*
D03*
D26*
X641133Y141000D02*
D03*
Y136000D02*
D03*
Y131000D02*
D03*
Y126000D02*
D03*
Y121000D02*
D03*
X596867D02*
D03*
Y126000D02*
D03*
Y131000D02*
D03*
Y136000D02*
D03*
Y141000D02*
D03*
X445360Y880000D02*
D03*
Y885000D02*
D03*
Y890000D02*
D03*
Y895000D02*
D03*
Y900000D02*
D03*
X489627D02*
D03*
Y895000D02*
D03*
Y890000D02*
D03*
Y885000D02*
D03*
Y880000D02*
D03*
D27*
X758210Y464000D02*
Y486290D01*
X757500Y464000D02*
X758210Y463290D01*
X765000Y385500D02*
X785000D01*
D28*
X758210Y444750D02*
Y463290D01*
%TF.MD5,6e1d207fb522a63e5319a29f95830aaf*%
M02*
