%TF.GenerationSoftware,Altium Limited,Altium Designer,22.5.1 (42)*%
G04 Layer_Physical_Order=2*
G04 Layer_Color=36540*
%FSLAX44Y44*%
%MOMM*%
%TF.SameCoordinates,EDF0C4A9-A600-4E9B-A30B-1A7791E2F720*%
%TF.FilePolarity,Positive*%
%TF.FileFunction,Copper,L2,Inr,Signal*%
%TF.Part,Single*%
G01*
G75*
%TA.AperFunction,ComponentPad*%
%ADD32C,1.4224*%
%ADD33R,1.4224X1.4224*%
%ADD34C,1.6000*%
%ADD35R,1.6000X1.6000*%
%ADD36C,1.5000*%
%ADD37R,1.5000X1.5000*%
%TA.AperFunction,SMDPad,CuDef*%
%ADD38C,1.5240*%
%TA.AperFunction,ComponentPad*%
%ADD39C,3.3000*%
%ADD40R,1.2700X1.2700*%
%ADD41C,1.2700*%
%ADD42C,1.1430*%
%ADD43R,1.1430X1.1430*%
%ADD44R,1.5000X1.5000*%
%ADD45C,1.5000*%
%ADD48R,1.5000X1.5000*%
%TA.AperFunction,ViaPad*%
%ADD49C,1.2700*%
%ADD50C,1.2000*%
%TA.AperFunction,ComponentPad*%
%ADD51C,1.5240*%
G36*
X1600000Y0D02*
X0D01*
Y1000000D01*
X1600000D01*
Y0D01*
D02*
G37*
%LPC*%
G36*
X1551270Y988863D02*
Y981270D01*
X1558863D01*
X1558284Y983431D01*
X1557114Y985459D01*
X1555459Y987114D01*
X1553431Y988284D01*
X1551270Y988863D01*
D02*
G37*
G36*
X1548730D02*
X1546569Y988284D01*
X1544541Y987114D01*
X1542886Y985459D01*
X1541716Y983431D01*
X1541137Y981270D01*
X1548730D01*
Y988863D01*
D02*
G37*
G36*
X801270D02*
Y981270D01*
X808863D01*
X808284Y983431D01*
X807114Y985459D01*
X805459Y987114D01*
X803431Y988284D01*
X801270Y988863D01*
D02*
G37*
G36*
X798730D02*
X796569Y988284D01*
X794541Y987114D01*
X792886Y985459D01*
X791716Y983431D01*
X791137Y981270D01*
X798730D01*
Y988863D01*
D02*
G37*
G36*
X41270D02*
Y981270D01*
X48863D01*
X48284Y983431D01*
X47114Y985459D01*
X45459Y987114D01*
X43431Y988284D01*
X41270Y988863D01*
D02*
G37*
G36*
X38730D02*
X36569Y988284D01*
X34541Y987114D01*
X32886Y985459D01*
X31716Y983431D01*
X31137Y981270D01*
X38730D01*
Y988863D01*
D02*
G37*
G36*
X1558863Y978730D02*
X1551270D01*
Y971137D01*
X1553431Y971716D01*
X1555459Y972886D01*
X1557114Y974541D01*
X1558284Y976569D01*
X1558863Y978730D01*
D02*
G37*
G36*
X1548730D02*
X1541137D01*
X1541716Y976569D01*
X1542886Y974541D01*
X1544541Y972886D01*
X1546569Y971716D01*
X1548730Y971137D01*
Y978730D01*
D02*
G37*
G36*
X808863D02*
X801270D01*
Y971137D01*
X803431Y971716D01*
X805459Y972886D01*
X807114Y974541D01*
X808284Y976569D01*
X808863Y978730D01*
D02*
G37*
G36*
X798730D02*
X791137D01*
X791716Y976569D01*
X792886Y974541D01*
X794541Y972886D01*
X796569Y971716D01*
X798730Y971137D01*
Y978730D01*
D02*
G37*
G36*
X48863D02*
X41270D01*
Y971137D01*
X43431Y971716D01*
X45459Y972886D01*
X47114Y974541D01*
X48284Y976569D01*
X48863Y978730D01*
D02*
G37*
G36*
X38730D02*
X31137D01*
X31716Y976569D01*
X32886Y974541D01*
X34541Y972886D01*
X36569Y971716D01*
X38730Y971137D01*
Y978730D01*
D02*
G37*
G36*
X518776Y956995D02*
Y949764D01*
X526007D01*
X525464Y951790D01*
X524340Y953738D01*
X522750Y955328D01*
X520802Y956452D01*
X518776Y956995D01*
D02*
G37*
G36*
X516236D02*
X514210Y956452D01*
X512262Y955328D01*
X510672Y953738D01*
X509548Y951790D01*
X509005Y949764D01*
X516236D01*
Y956995D01*
D02*
G37*
G36*
X526007Y947224D02*
X518776D01*
Y939993D01*
X520802Y940536D01*
X522750Y941660D01*
X524340Y943250D01*
X525464Y945198D01*
X526007Y947224D01*
D02*
G37*
G36*
X516236D02*
X509005D01*
X509548Y945198D01*
X510672Y943250D01*
X512262Y941660D01*
X514210Y940536D01*
X516236Y939993D01*
Y947224D01*
D02*
G37*
G36*
X605040Y932040D02*
X596270D01*
Y923270D01*
X605040D01*
Y932040D01*
D02*
G37*
G36*
X593730D02*
X584960D01*
Y923270D01*
X593730D01*
Y932040D01*
D02*
G37*
G36*
X70875Y930040D02*
X70270D01*
Y912270D01*
X88040D01*
Y912876D01*
X87308Y916554D01*
X85873Y920019D01*
X83789Y923138D01*
X81137Y925790D01*
X78019Y927873D01*
X74554Y929309D01*
X70875Y930040D01*
D02*
G37*
G36*
X67730D02*
X67125D01*
X63446Y929309D01*
X59981Y927873D01*
X56863Y925790D01*
X54211Y923138D01*
X52127Y920019D01*
X50692Y916554D01*
X49960Y912876D01*
Y912270D01*
X67730D01*
Y930040D01*
D02*
G37*
G36*
X605040Y920730D02*
X596270D01*
Y911960D01*
X605040D01*
Y920730D01*
D02*
G37*
G36*
X593730D02*
X584960D01*
Y911960D01*
X593730D01*
Y920730D01*
D02*
G37*
G36*
X88040Y909730D02*
X70270D01*
Y891960D01*
X70875D01*
X74554Y892692D01*
X78019Y894127D01*
X81137Y896211D01*
X83789Y898863D01*
X85873Y901981D01*
X87308Y905446D01*
X88040Y909125D01*
Y909730D01*
D02*
G37*
G36*
X67730D02*
X49960D01*
Y909125D01*
X50692Y905446D01*
X52127Y901981D01*
X54211Y898863D01*
X56863Y896211D01*
X59981Y894127D01*
X63446Y892692D01*
X67125Y891960D01*
X67730D01*
Y909730D01*
D02*
G37*
G36*
X468764Y898501D02*
Y891270D01*
X475995D01*
X475452Y893296D01*
X474328Y895244D01*
X472738Y896834D01*
X470790Y897958D01*
X468764Y898501D01*
D02*
G37*
G36*
X466224D02*
X464198Y897958D01*
X462250Y896834D01*
X460660Y895244D01*
X459536Y893296D01*
X458993Y891270D01*
X466224D01*
Y898501D01*
D02*
G37*
G36*
X596155Y905370D02*
X593845D01*
X591615Y904772D01*
X589615Y903618D01*
X587982Y901985D01*
X586828Y899985D01*
X586230Y897755D01*
Y895445D01*
X586828Y893215D01*
X587982Y891215D01*
X589615Y889582D01*
X591615Y888428D01*
X593845Y887830D01*
X596155D01*
X598385Y888428D01*
X600385Y889582D01*
X602018Y891215D01*
X603172Y893215D01*
X603770Y895445D01*
Y897755D01*
X603172Y899985D01*
X602018Y901985D01*
X600385Y903618D01*
X598385Y904772D01*
X596155Y905370D01*
D02*
G37*
G36*
X475995Y888730D02*
X468764D01*
Y881499D01*
X470790Y882042D01*
X472738Y883166D01*
X474328Y884756D01*
X475452Y886704D01*
X475995Y888730D01*
D02*
G37*
G36*
X466224D02*
X458993D01*
X459536Y886704D01*
X460660Y884756D01*
X462250Y883166D01*
X464198Y882042D01*
X466224Y881499D01*
Y888730D01*
D02*
G37*
G36*
X536068Y871873D02*
X534154D01*
X532305Y871378D01*
X530647Y870421D01*
X529293Y869067D01*
X528336Y867409D01*
X527841Y865560D01*
Y863646D01*
X528336Y861797D01*
X529293Y860139D01*
X530647Y858786D01*
X532305Y857829D01*
X534154Y857333D01*
X536068D01*
X537917Y857829D01*
X539575Y858786D01*
X540928Y860139D01*
X541885Y861797D01*
X542381Y863646D01*
Y865560D01*
X541885Y867409D01*
X540928Y869067D01*
X539575Y870421D01*
X537917Y871378D01*
X536068Y871873D01*
D02*
G37*
G36*
X1531875Y872040D02*
X1531270D01*
Y854270D01*
X1549040D01*
Y854875D01*
X1548308Y858554D01*
X1546873Y862019D01*
X1544789Y865137D01*
X1542137Y867789D01*
X1539019Y869873D01*
X1535554Y871308D01*
X1531875Y872040D01*
D02*
G37*
G36*
X1528730D02*
X1528125D01*
X1524446Y871308D01*
X1520981Y869873D01*
X1517863Y867789D01*
X1515211Y865137D01*
X1513127Y862019D01*
X1511692Y858554D01*
X1510960Y854875D01*
Y854270D01*
X1528730D01*
Y872040D01*
D02*
G37*
G36*
X422451Y867270D02*
X420537D01*
X418688Y866775D01*
X417030Y865817D01*
X415677Y864464D01*
X414719Y862806D01*
X414224Y860957D01*
Y859043D01*
X414719Y857194D01*
X415677Y855536D01*
X417030Y854183D01*
X418688Y853225D01*
X420537Y852730D01*
X422451D01*
X424300Y853225D01*
X425958Y854183D01*
X427311Y855536D01*
X428269Y857194D01*
X428764Y859043D01*
Y860957D01*
X428269Y862806D01*
X427311Y864464D01*
X425958Y865817D01*
X424300Y866775D01*
X422451Y867270D01*
D02*
G37*
G36*
X128770Y868770D02*
X111230D01*
Y851230D01*
X128770D01*
Y868770D01*
D02*
G37*
G36*
X311957Y865746D02*
X310043D01*
X308194Y865250D01*
X306536Y864293D01*
X305182Y862940D01*
X304225Y861282D01*
X303730Y859433D01*
Y857518D01*
X304225Y855669D01*
X305182Y854012D01*
X306536Y852658D01*
X308194Y851701D01*
X310043Y851206D01*
X311957D01*
X313806Y851701D01*
X315464Y852658D01*
X316817Y854012D01*
X317775Y855669D01*
X318270Y857518D01*
Y859433D01*
X317775Y861282D01*
X316817Y862940D01*
X315464Y864293D01*
X313806Y865250D01*
X311957Y865746D01*
D02*
G37*
G36*
X121322Y845040D02*
X121270D01*
Y836270D01*
X130040D01*
Y836322D01*
X129356Y838875D01*
X128034Y841165D01*
X126165Y843034D01*
X123875Y844356D01*
X121322Y845040D01*
D02*
G37*
G36*
X118730D02*
X118678D01*
X116125Y844356D01*
X113835Y843034D01*
X111966Y841165D01*
X110644Y838875D01*
X109960Y836322D01*
Y836270D01*
X118730D01*
Y845040D01*
D02*
G37*
G36*
X174957Y850746D02*
X173043D01*
X171194Y850250D01*
X169536Y849293D01*
X168183Y847940D01*
X167225Y846282D01*
X166730Y844433D01*
Y842519D01*
X167225Y840670D01*
X168183Y839012D01*
X169536Y837658D01*
X171194Y836701D01*
X173043Y836206D01*
X174957D01*
X176806Y836701D01*
X178464Y837658D01*
X179817Y839012D01*
X180774Y840670D01*
X181270Y842519D01*
Y844433D01*
X180774Y846282D01*
X179817Y847940D01*
X178464Y849293D01*
X176806Y850250D01*
X174957Y850746D01*
D02*
G37*
G36*
X1549040Y851730D02*
X1531270D01*
Y833960D01*
X1531875D01*
X1535554Y834692D01*
X1539019Y836127D01*
X1542137Y838211D01*
X1544789Y840863D01*
X1546873Y843981D01*
X1548308Y847446D01*
X1549040Y851125D01*
Y851730D01*
D02*
G37*
G36*
X1528730D02*
X1510960D01*
Y851125D01*
X1511692Y847446D01*
X1513127Y843981D01*
X1515211Y840863D01*
X1517863Y838211D01*
X1520981Y836127D01*
X1524446Y834692D01*
X1528125Y833960D01*
X1528730D01*
Y851730D01*
D02*
G37*
G36*
X1480322Y837040D02*
X1480270D01*
Y828270D01*
X1489040D01*
Y828322D01*
X1488356Y830875D01*
X1487034Y833165D01*
X1485165Y835034D01*
X1482875Y836356D01*
X1480322Y837040D01*
D02*
G37*
G36*
X1477730D02*
X1477678D01*
X1475125Y836356D01*
X1472835Y835034D01*
X1470966Y833165D01*
X1469644Y830875D01*
X1468960Y828322D01*
Y828270D01*
X1477730D01*
Y837040D01*
D02*
G37*
G36*
X130040Y833730D02*
X121270D01*
Y824960D01*
X121322D01*
X123875Y825644D01*
X126165Y826966D01*
X128034Y828835D01*
X129356Y831125D01*
X130040Y833678D01*
Y833730D01*
D02*
G37*
G36*
X118730D02*
X109960D01*
Y833678D01*
X110644Y831125D01*
X111966Y828835D01*
X113835Y826966D01*
X116125Y825644D01*
X118678Y824960D01*
X118730D01*
Y833730D01*
D02*
G37*
G36*
X1489040Y825730D02*
X1480270D01*
Y816960D01*
X1480322D01*
X1482875Y817644D01*
X1485165Y818966D01*
X1487034Y820835D01*
X1488356Y823125D01*
X1489040Y825678D01*
Y825730D01*
D02*
G37*
G36*
X1477730D02*
X1468960D01*
Y825678D01*
X1469644Y823125D01*
X1470966Y820835D01*
X1472835Y818966D01*
X1475125Y817644D01*
X1477678Y816960D01*
X1477730D01*
Y825730D01*
D02*
G37*
G36*
X70875Y828040D02*
X70270D01*
Y810270D01*
X88040D01*
Y810875D01*
X87308Y814554D01*
X85873Y818019D01*
X83789Y821137D01*
X81137Y823789D01*
X78019Y825873D01*
X74554Y827308D01*
X70875Y828040D01*
D02*
G37*
G36*
X67730D02*
X67125D01*
X63446Y827308D01*
X59981Y825873D01*
X56863Y823789D01*
X54211Y821137D01*
X52127Y818019D01*
X50692Y814554D01*
X49960Y810875D01*
Y810270D01*
X67730D01*
Y828040D01*
D02*
G37*
G36*
X476338Y810160D02*
X476270D01*
Y801270D01*
X485160D01*
Y801338D01*
X484468Y803922D01*
X483130Y806238D01*
X481238Y808130D01*
X478922Y809468D01*
X476338Y810160D01*
D02*
G37*
G36*
X473730D02*
X473662D01*
X471078Y809468D01*
X468762Y808130D01*
X466870Y806238D01*
X465532Y803922D01*
X464840Y801338D01*
Y801270D01*
X473730D01*
Y810160D01*
D02*
G37*
G36*
X177270Y805501D02*
Y798270D01*
X184501D01*
X183958Y800296D01*
X182834Y802244D01*
X181244Y803834D01*
X179296Y804958D01*
X177270Y805501D01*
D02*
G37*
G36*
X174730D02*
X172704Y804958D01*
X170756Y803834D01*
X169166Y802244D01*
X168042Y800296D01*
X167499Y798270D01*
X174730D01*
Y805501D01*
D02*
G37*
G36*
X289270Y804501D02*
Y797270D01*
X296501D01*
X295958Y799296D01*
X294833Y801244D01*
X293243Y802834D01*
X291296Y803958D01*
X289270Y804501D01*
D02*
G37*
G36*
X286730D02*
X284703Y803958D01*
X282756Y802834D01*
X281166Y801244D01*
X280042Y799296D01*
X279499Y797270D01*
X286730D01*
Y804501D01*
D02*
G37*
G36*
X622770Y801751D02*
Y794520D01*
X630001D01*
X629458Y796546D01*
X628334Y798494D01*
X626744Y800084D01*
X624796Y801208D01*
X622770Y801751D01*
D02*
G37*
G36*
X620230D02*
X618204Y801208D01*
X616256Y800084D01*
X614666Y798494D01*
X613542Y796546D01*
X612999Y794520D01*
X620230D01*
Y801751D01*
D02*
G37*
G36*
X1487770Y810770D02*
X1470230D01*
Y793230D01*
X1487770D01*
Y810770D01*
D02*
G37*
G36*
X436170Y808890D02*
X433830D01*
X431569Y808284D01*
X429541Y807114D01*
X427886Y805459D01*
X426716Y803431D01*
X426110Y801170D01*
Y798830D01*
X426716Y796569D01*
X427886Y794541D01*
X429541Y792886D01*
X431569Y791716D01*
X433830Y791110D01*
X436170D01*
X438431Y791716D01*
X440459Y792886D01*
X442114Y794541D01*
X443284Y796569D01*
X443890Y798830D01*
Y801170D01*
X443284Y803431D01*
X442114Y805459D01*
X440459Y807114D01*
X438431Y808284D01*
X436170Y808890D01*
D02*
G37*
G36*
X88040Y807730D02*
X70270D01*
Y789960D01*
X70875D01*
X74554Y790692D01*
X78019Y792127D01*
X81137Y794211D01*
X83789Y796863D01*
X85873Y799981D01*
X87308Y803446D01*
X88040Y807125D01*
Y807730D01*
D02*
G37*
G36*
X67730D02*
X49960D01*
Y807125D01*
X50692Y803446D01*
X52127Y799981D01*
X54211Y796863D01*
X56863Y794211D01*
X59981Y792127D01*
X63446Y790692D01*
X67125Y789960D01*
X67730D01*
Y807730D01*
D02*
G37*
G36*
X485160Y798730D02*
X476270D01*
Y789840D01*
X476338D01*
X478922Y790532D01*
X481238Y791870D01*
X483130Y793762D01*
X484468Y796078D01*
X485160Y798662D01*
Y798730D01*
D02*
G37*
G36*
X473730D02*
X464840D01*
Y798662D01*
X465532Y796078D01*
X466870Y793762D01*
X468762Y791870D01*
X471078Y790532D01*
X473662Y789840D01*
X473730D01*
Y798730D01*
D02*
G37*
G36*
X184501Y795730D02*
X177270D01*
Y788499D01*
X179296Y789042D01*
X181244Y790166D01*
X182834Y791756D01*
X183958Y793704D01*
X184501Y795730D01*
D02*
G37*
G36*
X174730D02*
X167499D01*
X168042Y793704D01*
X169166Y791756D01*
X170756Y790166D01*
X172704Y789042D01*
X174730Y788499D01*
Y795730D01*
D02*
G37*
G36*
X296501Y794730D02*
X289270D01*
Y787499D01*
X291296Y788042D01*
X293243Y789166D01*
X294833Y790757D01*
X295958Y792704D01*
X296501Y794730D01*
D02*
G37*
G36*
X286730D02*
X279499D01*
X280042Y792704D01*
X281166Y790757D01*
X282756Y789166D01*
X284703Y788042D01*
X286730Y787499D01*
Y794730D01*
D02*
G37*
G36*
X665457Y800520D02*
X663543D01*
X661694Y800025D01*
X660036Y799068D01*
X658683Y797714D01*
X657726Y796056D01*
X657230Y794207D01*
Y792293D01*
X657726Y790444D01*
X658683Y788786D01*
X660036Y787433D01*
X661694Y786476D01*
X663543Y785980D01*
X665457D01*
X667306Y786476D01*
X668964Y787433D01*
X670318Y788786D01*
X671275Y790444D01*
X671770Y792293D01*
Y794207D01*
X671275Y796056D01*
X670318Y797714D01*
X668964Y799068D01*
X667306Y800025D01*
X665457Y800520D01*
D02*
G37*
G36*
X630001Y791980D02*
X622770D01*
Y784749D01*
X624796Y785292D01*
X626744Y786416D01*
X628334Y788006D01*
X629458Y789954D01*
X630001Y791980D01*
D02*
G37*
G36*
X620230D02*
X612999D01*
X613542Y789954D01*
X614666Y788006D01*
X616256Y786416D01*
X618204Y785292D01*
X620230Y784749D01*
Y791980D01*
D02*
G37*
G36*
X581770Y791751D02*
Y784520D01*
X589001D01*
X588458Y786546D01*
X587334Y788494D01*
X585744Y790084D01*
X583796Y791208D01*
X581770Y791751D01*
D02*
G37*
G36*
X579230D02*
X577204Y791208D01*
X575256Y790084D01*
X573666Y788494D01*
X572542Y786546D01*
X571999Y784520D01*
X579230D01*
Y791751D01*
D02*
G37*
G36*
X589001Y781980D02*
X581770D01*
Y774749D01*
X583796Y775292D01*
X585744Y776416D01*
X587334Y778006D01*
X588458Y779954D01*
X589001Y781980D01*
D02*
G37*
G36*
X579230D02*
X571999D01*
X572542Y779954D01*
X573666Y778006D01*
X575256Y776416D01*
X577204Y775292D01*
X579230Y774749D01*
Y781980D01*
D02*
G37*
G36*
X598770Y773751D02*
Y766520D01*
X606001D01*
X605458Y768546D01*
X604334Y770494D01*
X602744Y772084D01*
X600796Y773208D01*
X598770Y773751D01*
D02*
G37*
G36*
X596230D02*
X594204Y773208D01*
X592256Y772084D01*
X590666Y770494D01*
X589542Y768546D01*
X588999Y766520D01*
X596230D01*
Y773751D01*
D02*
G37*
G36*
X606001Y763980D02*
X598770D01*
Y756749D01*
X600796Y757292D01*
X602744Y758416D01*
X604334Y760006D01*
X605458Y761954D01*
X606001Y763980D01*
D02*
G37*
G36*
X596230D02*
X588999D01*
X589542Y761954D01*
X590666Y760006D01*
X592256Y758416D01*
X594204Y757292D01*
X596230Y756749D01*
Y763980D01*
D02*
G37*
G36*
X1531875Y770040D02*
X1531270D01*
Y752270D01*
X1549040D01*
Y752875D01*
X1548308Y756554D01*
X1546873Y760019D01*
X1544789Y763137D01*
X1542137Y765789D01*
X1539019Y767873D01*
X1535554Y769308D01*
X1531875Y770040D01*
D02*
G37*
G36*
X1528730D02*
X1528125D01*
X1524446Y769308D01*
X1520981Y767873D01*
X1517863Y765789D01*
X1515211Y763137D01*
X1513127Y760019D01*
X1511692Y756554D01*
X1510960Y752875D01*
Y752270D01*
X1528730D01*
Y770040D01*
D02*
G37*
G36*
X542457Y750520D02*
X540543D01*
X538694Y750025D01*
X537036Y749068D01*
X535683Y747714D01*
X534726Y746056D01*
X534230Y744207D01*
Y742293D01*
X534726Y740444D01*
X535683Y738786D01*
X537036Y737433D01*
X538694Y736476D01*
X540543Y735980D01*
X542457D01*
X544306Y736476D01*
X545964Y737433D01*
X547318Y738786D01*
X548275Y740444D01*
X548770Y742293D01*
Y744207D01*
X548275Y746056D01*
X547318Y747714D01*
X545964Y749068D01*
X544306Y750025D01*
X542457Y750520D01*
D02*
G37*
G36*
X1549040Y749730D02*
X1531270D01*
Y731960D01*
X1531875D01*
X1535554Y732692D01*
X1539019Y734127D01*
X1542137Y736211D01*
X1544789Y738863D01*
X1546873Y741981D01*
X1548308Y745446D01*
X1549040Y749125D01*
Y749730D01*
D02*
G37*
G36*
X1528730D02*
X1510960D01*
Y749125D01*
X1511692Y745446D01*
X1513127Y741981D01*
X1515211Y738863D01*
X1517863Y736211D01*
X1520981Y734127D01*
X1524446Y732692D01*
X1528125Y731960D01*
X1528730D01*
Y749730D01*
D02*
G37*
G36*
X70875Y730040D02*
X70270D01*
Y712270D01*
X88040D01*
Y712875D01*
X87308Y716554D01*
X85873Y720019D01*
X83789Y723137D01*
X81137Y725789D01*
X78019Y727873D01*
X74554Y729308D01*
X70875Y730040D01*
D02*
G37*
G36*
X67730D02*
X67125D01*
X63446Y729308D01*
X59981Y727873D01*
X56863Y725789D01*
X54211Y723137D01*
X52127Y720019D01*
X50692Y716554D01*
X49960Y712875D01*
Y712270D01*
X67730D01*
Y730040D01*
D02*
G37*
G36*
X333194Y726246D02*
X331280D01*
X329431Y725750D01*
X327773Y724793D01*
X326419Y723440D01*
X325462Y721782D01*
X324967Y719933D01*
Y718019D01*
X325462Y716170D01*
X326419Y714512D01*
X327773Y713158D01*
X329431Y712201D01*
X331280Y711706D01*
X333194D01*
X335043Y712201D01*
X336701Y713158D01*
X338054Y714512D01*
X339011Y716170D01*
X339507Y718019D01*
Y719933D01*
X339011Y721782D01*
X338054Y723440D01*
X336701Y724793D01*
X335043Y725750D01*
X333194Y726246D01*
D02*
G37*
G36*
X715957Y717270D02*
X714043D01*
X712194Y716775D01*
X710536Y715817D01*
X709183Y714464D01*
X708225Y712806D01*
X707730Y710957D01*
Y709043D01*
X708225Y707194D01*
X709183Y705536D01*
X710536Y704183D01*
X712194Y703225D01*
X714043Y702730D01*
X715957D01*
X717806Y703225D01*
X719464Y704183D01*
X720817Y705536D01*
X721775Y707194D01*
X722270Y709043D01*
Y710957D01*
X721775Y712806D01*
X720817Y714464D01*
X719464Y715817D01*
X717806Y716775D01*
X715957Y717270D01*
D02*
G37*
G36*
X200194Y711245D02*
X198280D01*
X196431Y710750D01*
X194773Y709793D01*
X193419Y708439D01*
X192462Y706782D01*
X191967Y704933D01*
Y703018D01*
X192462Y701169D01*
X193419Y699512D01*
X194773Y698158D01*
X196431Y697201D01*
X198280Y696705D01*
X200194D01*
X202043Y697201D01*
X203701Y698158D01*
X205054Y699512D01*
X206011Y701169D01*
X206507Y703018D01*
Y704933D01*
X206011Y706782D01*
X205054Y708439D01*
X203701Y709793D01*
X202043Y710750D01*
X200194Y711245D01*
D02*
G37*
G36*
X585770Y701751D02*
Y694520D01*
X593001D01*
X592458Y696547D01*
X591334Y698494D01*
X589743Y700084D01*
X587796Y701208D01*
X585770Y701751D01*
D02*
G37*
G36*
X583230D02*
X581204Y701208D01*
X579256Y700084D01*
X577666Y698494D01*
X576542Y696547D01*
X575999Y694520D01*
X583230D01*
Y701751D01*
D02*
G37*
G36*
X88040Y709730D02*
X70270D01*
Y691960D01*
X70875D01*
X74554Y692692D01*
X78019Y694127D01*
X81137Y696211D01*
X83789Y698863D01*
X85873Y701981D01*
X87308Y705446D01*
X88040Y709125D01*
Y709730D01*
D02*
G37*
G36*
X67730D02*
X49960D01*
Y709125D01*
X50692Y705446D01*
X52127Y701981D01*
X54211Y698863D01*
X56863Y696211D01*
X59981Y694127D01*
X63446Y692692D01*
X67125Y691960D01*
X67730D01*
Y709730D01*
D02*
G37*
G36*
X593001Y691980D02*
X585770D01*
Y684749D01*
X587796Y685292D01*
X589743Y686417D01*
X591334Y688007D01*
X592458Y689954D01*
X593001Y691980D01*
D02*
G37*
G36*
X583230D02*
X575999D01*
X576542Y689954D01*
X577666Y688007D01*
X579256Y686417D01*
X581204Y685292D01*
X583230Y684749D01*
Y691980D01*
D02*
G37*
G36*
X722277Y693590D02*
X720363D01*
X718514Y693094D01*
X716856Y692137D01*
X715503Y690784D01*
X714545Y689126D01*
X714050Y687277D01*
Y685363D01*
X714545Y683514D01*
X715503Y681856D01*
X716856Y680503D01*
X718514Y679545D01*
X720363Y679050D01*
X722277D01*
X724126Y679545D01*
X725784Y680503D01*
X727137Y681856D01*
X728095Y683514D01*
X728590Y685363D01*
Y687277D01*
X728095Y689126D01*
X727137Y690784D01*
X725784Y692137D01*
X724126Y693094D01*
X722277Y693590D01*
D02*
G37*
G36*
X641270Y675251D02*
Y668020D01*
X648501D01*
X647958Y670046D01*
X646834Y671994D01*
X645244Y673584D01*
X643296Y674708D01*
X641270Y675251D01*
D02*
G37*
G36*
X638730D02*
X636704Y674708D01*
X634756Y673584D01*
X633166Y671994D01*
X632042Y670046D01*
X631499Y668020D01*
X638730D01*
Y675251D01*
D02*
G37*
G36*
X311507Y667001D02*
Y659770D01*
X318738D01*
X318195Y661796D01*
X317071Y663744D01*
X315481Y665334D01*
X313533Y666458D01*
X311507Y667001D01*
D02*
G37*
G36*
X308967D02*
X306941Y666458D01*
X304993Y665334D01*
X303403Y663744D01*
X302279Y661796D01*
X301736Y659770D01*
X308967D01*
Y667001D01*
D02*
G37*
G36*
X203507D02*
Y659770D01*
X210738D01*
X210195Y661796D01*
X209071Y663744D01*
X207481Y665334D01*
X205533Y666458D01*
X203507Y667001D01*
D02*
G37*
G36*
X200967D02*
X198941Y666458D01*
X196994Y665334D01*
X195403Y663744D01*
X194279Y661796D01*
X193736Y659770D01*
X200967D01*
Y667001D01*
D02*
G37*
G36*
X648501Y665480D02*
X641270D01*
Y658249D01*
X643296Y658792D01*
X645244Y659916D01*
X646834Y661506D01*
X647958Y663454D01*
X648501Y665480D01*
D02*
G37*
G36*
X638730D02*
X631499D01*
X632042Y663454D01*
X633166Y661506D01*
X634756Y659916D01*
X636704Y658792D01*
X638730Y658249D01*
Y665480D01*
D02*
G37*
G36*
X128770Y668770D02*
X111230D01*
Y651230D01*
X128770D01*
Y668770D01*
D02*
G37*
G36*
X318738Y657230D02*
X311507D01*
Y649999D01*
X313533Y650542D01*
X315481Y651666D01*
X317071Y653256D01*
X318195Y655204D01*
X318738Y657230D01*
D02*
G37*
G36*
X308967D02*
X301736D01*
X302279Y655204D01*
X303403Y653256D01*
X304993Y651666D01*
X306941Y650542D01*
X308967Y649999D01*
Y657230D01*
D02*
G37*
G36*
X210738D02*
X203507D01*
Y649999D01*
X205533Y650542D01*
X207481Y651666D01*
X209071Y653256D01*
X210195Y655204D01*
X210738Y657230D01*
D02*
G37*
G36*
X200967D02*
X193736D01*
X194279Y655204D01*
X195403Y653256D01*
X196994Y651666D01*
X198941Y650542D01*
X200967Y649999D01*
Y657230D01*
D02*
G37*
G36*
X121322Y645040D02*
X121270D01*
Y636270D01*
X130040D01*
Y636322D01*
X129356Y638875D01*
X128034Y641164D01*
X126165Y643034D01*
X123875Y644356D01*
X121322Y645040D01*
D02*
G37*
G36*
X118730D02*
X118678D01*
X116125Y644356D01*
X113835Y643034D01*
X111966Y641164D01*
X110644Y638875D01*
X109960Y636322D01*
Y636270D01*
X118730D01*
Y645040D01*
D02*
G37*
G36*
X130040Y633730D02*
X121270D01*
Y624960D01*
X121322D01*
X123875Y625644D01*
X126165Y626966D01*
X128034Y628835D01*
X129356Y631124D01*
X130040Y633678D01*
Y633730D01*
D02*
G37*
G36*
X118730D02*
X109960D01*
Y633678D01*
X110644Y631124D01*
X111966Y628835D01*
X113835Y626966D01*
X116125Y625644D01*
X118678Y624960D01*
X118730D01*
Y633730D01*
D02*
G37*
G36*
X665957Y637270D02*
X664043D01*
X662194Y636775D01*
X660536Y635817D01*
X659183Y634464D01*
X658225Y632806D01*
X657730Y630957D01*
Y629043D01*
X658225Y627194D01*
X659183Y625536D01*
X660536Y624183D01*
X662194Y623225D01*
X664043Y622730D01*
X665957D01*
X667806Y623225D01*
X669464Y624183D01*
X670817Y625536D01*
X671775Y627194D01*
X672270Y629043D01*
Y630957D01*
X671775Y632806D01*
X670817Y634464D01*
X669464Y635817D01*
X667806Y636775D01*
X665957Y637270D01*
D02*
G37*
G36*
X1323121Y636790D02*
X1320680D01*
X1318322Y636158D01*
X1316208Y634938D01*
X1314482Y633212D01*
X1313262Y631098D01*
X1312630Y628740D01*
Y626300D01*
X1313262Y623942D01*
X1314482Y621828D01*
X1316208Y620102D01*
X1318322Y618882D01*
X1320680Y618250D01*
X1323121D01*
X1325478Y618882D01*
X1327592Y620102D01*
X1329318Y621828D01*
X1330538Y623942D01*
X1331170Y626300D01*
Y628740D01*
X1330538Y631098D01*
X1329318Y633212D01*
X1327592Y634938D01*
X1325478Y636158D01*
X1323121Y636790D01*
D02*
G37*
G36*
X1119921D02*
X1117480D01*
X1115122Y636158D01*
X1113008Y634938D01*
X1111282Y633212D01*
X1110062Y631098D01*
X1109430Y628740D01*
Y626300D01*
X1110062Y623942D01*
X1111282Y621828D01*
X1113008Y620102D01*
X1115122Y618882D01*
X1117480Y618250D01*
X1119921D01*
X1122278Y618882D01*
X1124392Y620102D01*
X1126118Y621828D01*
X1127338Y623942D01*
X1127970Y626300D01*
Y628740D01*
X1127338Y631098D01*
X1126118Y633212D01*
X1124392Y634938D01*
X1122278Y636158D01*
X1119921Y636790D01*
D02*
G37*
G36*
X70875Y628040D02*
X70270D01*
Y610270D01*
X88040D01*
Y610875D01*
X87308Y614554D01*
X85873Y618019D01*
X83789Y621137D01*
X81137Y623789D01*
X78019Y625873D01*
X74554Y627308D01*
X70875Y628040D01*
D02*
G37*
G36*
X67730D02*
X67125D01*
X63446Y627308D01*
X59981Y625873D01*
X56863Y623789D01*
X54211Y621137D01*
X52127Y618019D01*
X50692Y614554D01*
X49960Y610875D01*
Y610270D01*
X67730D01*
Y628040D01*
D02*
G37*
G36*
X821003Y623620D02*
X818997D01*
X817059Y623101D01*
X815321Y622098D01*
X813903Y620679D01*
X812899Y618941D01*
X812380Y617003D01*
Y614997D01*
X812899Y613059D01*
X813903Y611321D01*
X815321Y609902D01*
X817059Y608899D01*
X818997Y608380D01*
X821003D01*
X822941Y608899D01*
X824679Y609902D01*
X826097Y611321D01*
X827101Y613059D01*
X827620Y614997D01*
Y617003D01*
X827101Y618941D01*
X826097Y620679D01*
X824679Y622098D01*
X822941Y623101D01*
X821003Y623620D01*
D02*
G37*
G36*
X1323121Y611390D02*
X1320680D01*
X1318322Y610758D01*
X1316208Y609538D01*
X1314482Y607812D01*
X1313262Y605698D01*
X1312630Y603340D01*
Y600900D01*
X1313262Y598542D01*
X1314482Y596428D01*
X1316208Y594702D01*
X1318322Y593482D01*
X1320680Y592850D01*
X1323121D01*
X1325478Y593482D01*
X1327592Y594702D01*
X1329318Y596428D01*
X1330538Y598542D01*
X1331170Y600900D01*
Y603340D01*
X1330538Y605698D01*
X1329318Y607812D01*
X1327592Y609538D01*
X1325478Y610758D01*
X1323121Y611390D01*
D02*
G37*
G36*
X1119921D02*
X1117480D01*
X1115122Y610758D01*
X1113008Y609538D01*
X1111282Y607812D01*
X1110062Y605698D01*
X1109430Y603340D01*
Y600900D01*
X1110062Y598542D01*
X1111282Y596428D01*
X1113008Y594702D01*
X1115122Y593482D01*
X1117480Y592850D01*
X1119921D01*
X1122278Y593482D01*
X1124392Y594702D01*
X1126118Y596428D01*
X1127338Y598542D01*
X1127970Y600900D01*
Y603340D01*
X1127338Y605698D01*
X1126118Y607812D01*
X1124392Y609538D01*
X1122278Y610758D01*
X1119921Y611390D01*
D02*
G37*
G36*
X88040Y607730D02*
X70270D01*
Y589960D01*
X70875D01*
X74554Y590692D01*
X78019Y592127D01*
X81137Y594211D01*
X83789Y596863D01*
X85873Y599981D01*
X87308Y603446D01*
X88040Y607125D01*
Y607730D01*
D02*
G37*
G36*
X67730D02*
X49960D01*
Y607125D01*
X50692Y603446D01*
X52127Y599981D01*
X54211Y596863D01*
X56863Y594211D01*
X59981Y592127D01*
X63446Y590692D01*
X67125Y589960D01*
X67730D01*
Y607730D01*
D02*
G37*
G36*
X730770Y591863D02*
Y584270D01*
X738363D01*
X737784Y586431D01*
X736614Y588459D01*
X734959Y590114D01*
X732931Y591284D01*
X730770Y591863D01*
D02*
G37*
G36*
X728230D02*
X726069Y591284D01*
X724041Y590114D01*
X722386Y588459D01*
X721216Y586431D01*
X720637Y584270D01*
X728230D01*
Y591863D01*
D02*
G37*
G36*
X1473270Y585501D02*
Y578270D01*
X1480501D01*
X1479958Y580296D01*
X1478833Y582244D01*
X1477243Y583834D01*
X1475296Y584958D01*
X1473270Y585501D01*
D02*
G37*
G36*
X1470730D02*
X1468703Y584958D01*
X1466756Y583834D01*
X1465166Y582244D01*
X1464042Y580296D01*
X1463499Y578270D01*
X1470730D01*
Y585501D01*
D02*
G37*
G36*
X738363Y581730D02*
X730770D01*
Y574137D01*
X732931Y574716D01*
X734959Y575886D01*
X736614Y577541D01*
X737784Y579569D01*
X738363Y581730D01*
D02*
G37*
G36*
X728230D02*
X720637D01*
X721216Y579569D01*
X722386Y577541D01*
X724041Y575886D01*
X726069Y574716D01*
X728230Y574137D01*
Y581730D01*
D02*
G37*
G36*
X1480501Y575730D02*
X1473270D01*
Y568499D01*
X1475296Y569042D01*
X1477243Y570166D01*
X1478833Y571756D01*
X1479958Y573704D01*
X1480501Y575730D01*
D02*
G37*
G36*
X1470730D02*
X1463499D01*
X1464042Y573704D01*
X1465166Y571756D01*
X1466756Y570166D01*
X1468703Y569042D01*
X1470730Y568499D01*
Y575730D01*
D02*
G37*
G36*
X1323121Y585990D02*
X1320680D01*
X1318322Y585358D01*
X1316208Y584138D01*
X1314482Y582412D01*
X1313262Y580298D01*
X1312630Y577940D01*
Y575500D01*
X1313262Y573142D01*
X1314482Y571028D01*
X1316208Y569302D01*
X1318322Y568082D01*
X1320680Y567450D01*
X1323121D01*
X1325478Y568082D01*
X1327592Y569302D01*
X1329318Y571028D01*
X1330538Y573142D01*
X1331170Y575500D01*
Y577940D01*
X1330538Y580298D01*
X1329318Y582412D01*
X1327592Y584138D01*
X1325478Y585358D01*
X1323121Y585990D01*
D02*
G37*
G36*
X1119921D02*
X1117480D01*
X1115122Y585358D01*
X1113008Y584138D01*
X1111282Y582412D01*
X1110062Y580298D01*
X1109430Y577940D01*
Y575500D01*
X1110062Y573142D01*
X1111282Y571028D01*
X1113008Y569302D01*
X1115122Y568082D01*
X1117480Y567450D01*
X1119921D01*
X1122278Y568082D01*
X1124392Y569302D01*
X1126118Y571028D01*
X1127338Y573142D01*
X1127970Y575500D01*
Y577940D01*
X1127338Y580298D01*
X1126118Y582412D01*
X1124392Y584138D01*
X1122278Y585358D01*
X1119921Y585990D01*
D02*
G37*
G36*
X947003Y570620D02*
X944997D01*
X943059Y570101D01*
X941321Y569098D01*
X939902Y567679D01*
X938899Y565941D01*
X938380Y564003D01*
Y561997D01*
X938899Y560059D01*
X939902Y558321D01*
X941321Y556903D01*
X943059Y555899D01*
X944997Y555380D01*
X947003D01*
X948941Y555899D01*
X950679Y556903D01*
X952097Y558321D01*
X953101Y560059D01*
X953620Y561997D01*
Y564003D01*
X953101Y565941D01*
X952097Y567679D01*
X950679Y569098D01*
X948941Y570101D01*
X947003Y570620D01*
D02*
G37*
G36*
X1323288Y561860D02*
X1323170D01*
Y552590D01*
X1332440D01*
Y552708D01*
X1331722Y555388D01*
X1330334Y557792D01*
X1328372Y559754D01*
X1325968Y561142D01*
X1323288Y561860D01*
D02*
G37*
G36*
X1320630D02*
X1320513D01*
X1317832Y561142D01*
X1315428Y559754D01*
X1313466Y557792D01*
X1312078Y555388D01*
X1311360Y552708D01*
Y552590D01*
X1320630D01*
Y561860D01*
D02*
G37*
G36*
X821003Y560620D02*
X818997D01*
X817059Y560101D01*
X815321Y559098D01*
X813903Y557679D01*
X812899Y555941D01*
X812380Y554003D01*
Y551997D01*
X812899Y550059D01*
X813903Y548321D01*
X815321Y546903D01*
X817059Y545899D01*
X818997Y545380D01*
X821003D01*
X822941Y545899D01*
X824679Y546903D01*
X826097Y548321D01*
X827101Y550059D01*
X827620Y551997D01*
Y554003D01*
X827101Y555941D01*
X826097Y557679D01*
X824679Y559098D01*
X822941Y560101D01*
X821003Y560620D01*
D02*
G37*
G36*
X1119921Y560590D02*
X1117480D01*
X1115122Y559958D01*
X1113008Y558738D01*
X1111282Y557012D01*
X1110062Y554898D01*
X1109430Y552540D01*
Y550100D01*
X1110062Y547742D01*
X1111282Y545628D01*
X1113008Y543902D01*
X1115122Y542682D01*
X1117480Y542050D01*
X1119921D01*
X1122278Y542682D01*
X1124392Y543902D01*
X1126118Y545628D01*
X1127338Y547742D01*
X1127970Y550100D01*
Y552540D01*
X1127338Y554898D01*
X1126118Y557012D01*
X1124392Y558738D01*
X1122278Y559958D01*
X1119921Y560590D01*
D02*
G37*
G36*
X1332440Y550050D02*
X1323170D01*
Y540780D01*
X1323288D01*
X1325968Y541498D01*
X1328372Y542886D01*
X1330334Y544848D01*
X1331722Y547252D01*
X1332440Y549932D01*
Y550050D01*
D02*
G37*
G36*
X1320630D02*
X1311360D01*
Y549932D01*
X1312078Y547252D01*
X1313466Y544848D01*
X1315428Y542886D01*
X1317832Y541498D01*
X1320513Y540780D01*
X1320630D01*
Y550050D01*
D02*
G37*
G36*
X130957Y554770D02*
X129043D01*
X127194Y554275D01*
X125536Y553317D01*
X124183Y551964D01*
X123225Y550306D01*
X122730Y548457D01*
Y546543D01*
X123225Y544694D01*
X124183Y543036D01*
X125536Y541683D01*
X127194Y540725D01*
X129043Y540230D01*
X130957D01*
X132806Y540725D01*
X134464Y541683D01*
X135817Y543036D01*
X136775Y544694D01*
X137270Y546543D01*
Y548457D01*
X136775Y550306D01*
X135817Y551964D01*
X134464Y553317D01*
X132806Y554275D01*
X130957Y554770D01*
D02*
G37*
G36*
X1510382Y528922D02*
X1502000D01*
Y520540D01*
X1510382D01*
Y528922D01*
D02*
G37*
G36*
X1499460D02*
X1491078D01*
Y520540D01*
X1499460D01*
Y528922D01*
D02*
G37*
G36*
X1323121Y535190D02*
X1320680D01*
X1318322Y534558D01*
X1316208Y533338D01*
X1314482Y531612D01*
X1313262Y529498D01*
X1312630Y527140D01*
Y524700D01*
X1313262Y522342D01*
X1314482Y520228D01*
X1316208Y518502D01*
X1318322Y517282D01*
X1320680Y516650D01*
X1323121D01*
X1325478Y517282D01*
X1327592Y518502D01*
X1329318Y520228D01*
X1330538Y522342D01*
X1331170Y524700D01*
Y527140D01*
X1330538Y529498D01*
X1329318Y531612D01*
X1327592Y533338D01*
X1325478Y534558D01*
X1323121Y535190D01*
D02*
G37*
G36*
X1119921D02*
X1117480D01*
X1115122Y534558D01*
X1113008Y533338D01*
X1111282Y531612D01*
X1110062Y529498D01*
X1109430Y527140D01*
Y524700D01*
X1110062Y522342D01*
X1111282Y520228D01*
X1113008Y518502D01*
X1115122Y517282D01*
X1117480Y516650D01*
X1119921D01*
X1122278Y517282D01*
X1124392Y518502D01*
X1126118Y520228D01*
X1127338Y522342D01*
X1127970Y524700D01*
Y527140D01*
X1127338Y529498D01*
X1126118Y531612D01*
X1124392Y533338D01*
X1122278Y534558D01*
X1119921Y535190D01*
D02*
G37*
G36*
X1467045Y527965D02*
X1465039D01*
X1463101Y527445D01*
X1461363Y526442D01*
X1459944Y525024D01*
X1458941Y523286D01*
X1458422Y521348D01*
Y519342D01*
X1458941Y517404D01*
X1459944Y515666D01*
X1461363Y514247D01*
X1463101Y513244D01*
X1465039Y512725D01*
X1467045D01*
X1468983Y513244D01*
X1470721Y514247D01*
X1472140Y515666D01*
X1473143Y517404D01*
X1473662Y519342D01*
Y521348D01*
X1473143Y523286D01*
X1472140Y525024D01*
X1470721Y526442D01*
X1468983Y527445D01*
X1467045Y527965D01*
D02*
G37*
G36*
X1510382Y518000D02*
X1502000D01*
Y509618D01*
X1510382D01*
Y518000D01*
D02*
G37*
G36*
X1499460D02*
X1491078D01*
Y509618D01*
X1499460D01*
Y518000D01*
D02*
G37*
G36*
X406270Y516863D02*
Y509270D01*
X413863D01*
X413284Y511431D01*
X412114Y513459D01*
X410459Y515114D01*
X408431Y516284D01*
X406270Y516863D01*
D02*
G37*
G36*
X403730D02*
X401569Y516284D01*
X399541Y515114D01*
X397886Y513459D01*
X396716Y511431D01*
X396137Y509270D01*
X403730D01*
Y516863D01*
D02*
G37*
G36*
X258957Y519270D02*
X257043D01*
X255194Y518774D01*
X253536Y517817D01*
X252183Y516464D01*
X251226Y514806D01*
X250730Y512957D01*
Y511043D01*
X251226Y509194D01*
X252183Y507536D01*
X253536Y506182D01*
X255194Y505225D01*
X257043Y504730D01*
X258957D01*
X260806Y505225D01*
X262464Y506182D01*
X263818Y507536D01*
X264775Y509194D01*
X265270Y511043D01*
Y512957D01*
X264775Y514806D01*
X263818Y516464D01*
X262464Y517817D01*
X260806Y518774D01*
X258957Y519270D01*
D02*
G37*
G36*
X413863Y506730D02*
X406270D01*
Y499137D01*
X408431Y499716D01*
X410459Y500886D01*
X412114Y502541D01*
X413284Y504569D01*
X413863Y506730D01*
D02*
G37*
G36*
X403730D02*
X396137D01*
X396716Y504569D01*
X397886Y502541D01*
X399541Y500886D01*
X401569Y499716D01*
X403730Y499137D01*
Y506730D01*
D02*
G37*
G36*
X1323121Y509790D02*
X1320680D01*
X1318322Y509158D01*
X1316208Y507938D01*
X1314482Y506212D01*
X1313262Y504098D01*
X1312630Y501740D01*
Y499300D01*
X1313262Y496942D01*
X1314482Y494828D01*
X1316208Y493102D01*
X1318322Y491882D01*
X1320680Y491250D01*
X1323121D01*
X1325478Y491882D01*
X1327592Y493102D01*
X1329318Y494828D01*
X1330538Y496942D01*
X1331170Y499300D01*
Y501740D01*
X1330538Y504098D01*
X1329318Y506212D01*
X1327592Y507938D01*
X1325478Y509158D01*
X1323121Y509790D01*
D02*
G37*
G36*
X1119921D02*
X1117480D01*
X1115122Y509158D01*
X1113008Y507938D01*
X1111282Y506212D01*
X1110062Y504098D01*
X1109430Y501740D01*
Y499300D01*
X1110062Y496942D01*
X1111282Y494828D01*
X1113008Y493102D01*
X1115122Y491882D01*
X1117480Y491250D01*
X1119921D01*
X1122278Y491882D01*
X1124392Y493102D01*
X1126118Y494828D01*
X1127338Y496942D01*
X1127970Y499300D01*
Y501740D01*
X1127338Y504098D01*
X1126118Y506212D01*
X1124392Y507938D01*
X1122278Y509158D01*
X1119921Y509790D01*
D02*
G37*
G36*
X274270Y492501D02*
Y485270D01*
X281501D01*
X280958Y487296D01*
X279834Y489244D01*
X278244Y490834D01*
X276296Y491958D01*
X274270Y492501D01*
D02*
G37*
G36*
X271730D02*
X269704Y491958D01*
X267756Y490834D01*
X266166Y489244D01*
X265042Y487296D01*
X264499Y485270D01*
X271730D01*
Y492501D01*
D02*
G37*
G36*
X1501833Y500752D02*
X1499626D01*
X1497495Y500181D01*
X1495583Y499077D01*
X1494023Y497517D01*
X1492919Y495605D01*
X1492348Y493473D01*
Y491266D01*
X1492919Y489135D01*
X1494023Y487223D01*
X1495583Y485663D01*
X1497495Y484559D01*
X1499626Y483988D01*
X1501833D01*
X1503965Y484559D01*
X1505877Y485663D01*
X1507437Y487223D01*
X1508541Y489135D01*
X1509112Y491266D01*
Y493473D01*
X1508541Y495605D01*
X1507437Y497517D01*
X1505877Y499077D01*
X1503965Y500181D01*
X1501833Y500752D01*
D02*
G37*
G36*
X679457Y494770D02*
X677543D01*
X675694Y494274D01*
X674036Y493317D01*
X672683Y491964D01*
X671725Y490306D01*
X671230Y488457D01*
Y486543D01*
X671725Y484694D01*
X672683Y483036D01*
X674036Y481683D01*
X675694Y480725D01*
X677543Y480230D01*
X679457D01*
X681306Y480725D01*
X682964Y481683D01*
X684317Y483036D01*
X685275Y484694D01*
X685770Y486543D01*
Y488457D01*
X685275Y490306D01*
X684317Y491964D01*
X682964Y493317D01*
X681306Y494274D01*
X679457Y494770D01*
D02*
G37*
G36*
X777957Y494270D02*
X776043D01*
X774194Y493775D01*
X772536Y492817D01*
X771183Y491464D01*
X770226Y489806D01*
X769730Y487957D01*
Y486043D01*
X770226Y484194D01*
X771183Y482536D01*
X772536Y481183D01*
X774194Y480225D01*
X776043Y479730D01*
X777957D01*
X779806Y480225D01*
X781464Y481183D01*
X782818Y482536D01*
X783775Y484194D01*
X784270Y486043D01*
Y487957D01*
X783775Y489806D01*
X782818Y491464D01*
X781464Y492817D01*
X779806Y493775D01*
X777957Y494270D01*
D02*
G37*
G36*
X281501Y482730D02*
X274270D01*
Y475499D01*
X276296Y476042D01*
X278244Y477166D01*
X279834Y478756D01*
X280958Y480704D01*
X281501Y482730D01*
D02*
G37*
G36*
X271730D02*
X264499D01*
X265042Y480704D01*
X266166Y478756D01*
X267756Y477166D01*
X269704Y476042D01*
X271730Y475499D01*
Y482730D01*
D02*
G37*
G36*
X823270Y477001D02*
Y469770D01*
X830501D01*
X829958Y471797D01*
X828833Y473744D01*
X827243Y475334D01*
X825296Y476458D01*
X823270Y477001D01*
D02*
G37*
G36*
X820730D02*
X818704Y476458D01*
X816756Y475334D01*
X815166Y473744D01*
X814042Y471797D01*
X813499Y469770D01*
X820730D01*
Y477001D01*
D02*
G37*
G36*
X487303Y476501D02*
Y469270D01*
X494534D01*
X493991Y471296D01*
X492866Y473244D01*
X491276Y474834D01*
X489329Y475958D01*
X487303Y476501D01*
D02*
G37*
G36*
X484763D02*
X482736Y475958D01*
X480789Y474834D01*
X479199Y473244D01*
X478075Y471296D01*
X477532Y469270D01*
X484763D01*
Y476501D01*
D02*
G37*
G36*
X1323121Y484390D02*
X1320680D01*
X1318322Y483758D01*
X1316208Y482538D01*
X1314482Y480812D01*
X1313262Y478698D01*
X1312630Y476340D01*
Y473900D01*
X1313262Y471542D01*
X1314482Y469428D01*
X1316208Y467702D01*
X1318322Y466482D01*
X1320680Y465850D01*
X1323121D01*
X1325478Y466482D01*
X1327592Y467702D01*
X1329318Y469428D01*
X1330538Y471542D01*
X1331170Y473900D01*
Y476340D01*
X1330538Y478698D01*
X1329318Y480812D01*
X1327592Y482538D01*
X1325478Y483758D01*
X1323121Y484390D01*
D02*
G37*
G36*
X1119921D02*
X1117480D01*
X1115122Y483758D01*
X1113008Y482538D01*
X1111282Y480812D01*
X1110062Y478698D01*
X1109430Y476340D01*
Y473900D01*
X1110062Y471542D01*
X1111282Y469428D01*
X1113008Y467702D01*
X1115122Y466482D01*
X1117480Y465850D01*
X1119921D01*
X1122278Y466482D01*
X1124392Y467702D01*
X1126118Y469428D01*
X1127338Y471542D01*
X1127970Y473900D01*
Y476340D01*
X1127338Y478698D01*
X1126118Y480812D01*
X1124392Y482538D01*
X1122278Y483758D01*
X1119921Y484390D01*
D02*
G37*
G36*
X1440327Y483385D02*
X1438018D01*
X1435787Y482787D01*
X1433787Y481633D01*
X1432155Y480000D01*
X1431000Y478000D01*
X1430402Y475770D01*
Y473460D01*
X1431000Y471230D01*
X1432155Y469230D01*
X1433787Y467597D01*
X1435787Y466443D01*
X1438018Y465845D01*
X1440327D01*
X1442557Y466443D01*
X1444557Y467597D01*
X1446190Y469230D01*
X1447345Y471230D01*
X1447942Y473460D01*
Y475770D01*
X1447345Y478000D01*
X1446190Y480000D01*
X1444557Y481633D01*
X1442557Y482787D01*
X1440327Y483385D01*
D02*
G37*
G36*
X1422542D02*
X1405002D01*
Y465845D01*
X1422542D01*
Y483385D01*
D02*
G37*
G36*
X714270Y472501D02*
Y465270D01*
X721501D01*
X720958Y467296D01*
X719834Y469244D01*
X718243Y470834D01*
X716296Y471958D01*
X714270Y472501D01*
D02*
G37*
G36*
X711730D02*
X709704Y471958D01*
X707756Y470834D01*
X706166Y469244D01*
X705042Y467296D01*
X704499Y465270D01*
X711730D01*
Y472501D01*
D02*
G37*
G36*
X830501Y467230D02*
X823270D01*
Y459999D01*
X825296Y460542D01*
X827243Y461667D01*
X828833Y463257D01*
X829958Y465204D01*
X830501Y467230D01*
D02*
G37*
G36*
X820730D02*
X813499D01*
X814042Y465204D01*
X815166Y463257D01*
X816756Y461667D01*
X818704Y460542D01*
X820730Y459999D01*
Y467230D01*
D02*
G37*
G36*
X494534Y466730D02*
X487303D01*
Y459499D01*
X489329Y460042D01*
X491276Y461166D01*
X492866Y462756D01*
X493991Y464704D01*
X494534Y466730D01*
D02*
G37*
G36*
X484763D02*
X477532D01*
X478075Y464704D01*
X479199Y462756D01*
X480789Y461166D01*
X482736Y460042D01*
X484763Y459499D01*
Y466730D01*
D02*
G37*
G36*
X1501833Y473852D02*
X1499626D01*
X1497495Y473281D01*
X1495583Y472177D01*
X1494023Y470617D01*
X1492919Y468705D01*
X1492348Y466573D01*
Y464366D01*
X1492919Y462235D01*
X1494023Y460323D01*
X1495583Y458763D01*
X1497495Y457659D01*
X1499626Y457088D01*
X1501833D01*
X1503965Y457659D01*
X1505877Y458763D01*
X1507437Y460323D01*
X1508541Y462235D01*
X1509112Y464366D01*
Y466573D01*
X1508541Y468705D01*
X1507437Y470617D01*
X1505877Y472177D01*
X1503965Y473281D01*
X1501833Y473852D01*
D02*
G37*
G36*
X721501Y462730D02*
X714270D01*
Y455499D01*
X716296Y456042D01*
X718243Y457166D01*
X719834Y458756D01*
X720958Y460704D01*
X721501Y462730D01*
D02*
G37*
G36*
X711730D02*
X704499D01*
X705042Y460704D01*
X706166Y458756D01*
X707756Y457166D01*
X709704Y456042D01*
X711730Y455499D01*
Y462730D01*
D02*
G37*
G36*
X505990Y460270D02*
X504076D01*
X502227Y459775D01*
X500569Y458818D01*
X499216Y457464D01*
X498258Y455806D01*
X497763Y453957D01*
Y452043D01*
X498258Y450194D01*
X499216Y448536D01*
X500569Y447183D01*
X502227Y446226D01*
X504076Y445730D01*
X505990D01*
X507839Y446226D01*
X509497Y447183D01*
X510850Y448536D01*
X511808Y450194D01*
X512303Y452043D01*
Y453957D01*
X511808Y455806D01*
X510850Y457464D01*
X509497Y458818D01*
X507839Y459775D01*
X505990Y460270D01*
D02*
G37*
G36*
X1323121Y458990D02*
X1320680D01*
X1318322Y458358D01*
X1316208Y457138D01*
X1314482Y455412D01*
X1313262Y453298D01*
X1312630Y450940D01*
Y448500D01*
X1313262Y446142D01*
X1314482Y444028D01*
X1316208Y442302D01*
X1318322Y441082D01*
X1320680Y440450D01*
X1323121D01*
X1325478Y441082D01*
X1327592Y442302D01*
X1329318Y444028D01*
X1330538Y446142D01*
X1331170Y448500D01*
Y450940D01*
X1330538Y453298D01*
X1329318Y455412D01*
X1327592Y457138D01*
X1325478Y458358D01*
X1323121Y458990D01*
D02*
G37*
G36*
X1119921D02*
X1117480D01*
X1115122Y458358D01*
X1113008Y457138D01*
X1111282Y455412D01*
X1110062Y453298D01*
X1109430Y450940D01*
Y448500D01*
X1110062Y446142D01*
X1111282Y444028D01*
X1113008Y442302D01*
X1115122Y441082D01*
X1117480Y440450D01*
X1119921D01*
X1122278Y441082D01*
X1124392Y442302D01*
X1126118Y444028D01*
X1127338Y446142D01*
X1127970Y448500D01*
Y450940D01*
X1127338Y453298D01*
X1126118Y455412D01*
X1124392Y457138D01*
X1122278Y458358D01*
X1119921Y458990D01*
D02*
G37*
G36*
X1440327Y453385D02*
X1438018D01*
X1435787Y452787D01*
X1433787Y451633D01*
X1432155Y450000D01*
X1431000Y448000D01*
X1430402Y445770D01*
Y443460D01*
X1431000Y441230D01*
X1432155Y439230D01*
X1433787Y437597D01*
X1435787Y436443D01*
X1438018Y435845D01*
X1440327D01*
X1442557Y436443D01*
X1444557Y437597D01*
X1446190Y439230D01*
X1447345Y441230D01*
X1447942Y443460D01*
Y445770D01*
X1447345Y448000D01*
X1446190Y450000D01*
X1444557Y451633D01*
X1442557Y452787D01*
X1440327Y453385D01*
D02*
G37*
G36*
X1422542D02*
X1405002D01*
Y435845D01*
X1422542D01*
Y453385D01*
D02*
G37*
G36*
X1497999Y443615D02*
X1496085D01*
X1494236Y443119D01*
X1492578Y442162D01*
X1491225Y440809D01*
X1490268Y439151D01*
X1489772Y437302D01*
Y435388D01*
X1490268Y433539D01*
X1491225Y431881D01*
X1492578Y430527D01*
X1494236Y429570D01*
X1496085Y429075D01*
X1497999D01*
X1499848Y429570D01*
X1501506Y430527D01*
X1502860Y431881D01*
X1503817Y433539D01*
X1504312Y435388D01*
Y437302D01*
X1503817Y439151D01*
X1502860Y440809D01*
X1501506Y442162D01*
X1499848Y443119D01*
X1497999Y443615D01*
D02*
G37*
G36*
X368255Y445870D02*
X365945D01*
X363715Y445272D01*
X361715Y444118D01*
X360082Y442485D01*
X358928Y440485D01*
X358330Y438254D01*
Y435945D01*
X358928Y433715D01*
X360082Y431715D01*
X361715Y430082D01*
X363715Y428927D01*
X365945Y428330D01*
X368255D01*
X370485Y428927D01*
X372485Y430082D01*
X374118Y431715D01*
X375272Y433715D01*
X375870Y435945D01*
Y438254D01*
X375272Y440485D01*
X374118Y442485D01*
X372485Y444118D01*
X370485Y445272D01*
X368255Y445870D01*
D02*
G37*
G36*
X342854D02*
X340545D01*
X338315Y445272D01*
X336315Y444118D01*
X334682Y442485D01*
X333528Y440485D01*
X332930Y438254D01*
Y435945D01*
X333528Y433715D01*
X334682Y431715D01*
X336315Y430082D01*
X338315Y428927D01*
X340545Y428330D01*
X342854D01*
X345085Y428927D01*
X347085Y430082D01*
X348718Y431715D01*
X349872Y433715D01*
X350470Y435945D01*
Y438254D01*
X349872Y440485D01*
X348718Y442485D01*
X347085Y444118D01*
X345085Y445272D01*
X342854Y445870D01*
D02*
G37*
G36*
X317454D02*
X315145D01*
X312915Y445272D01*
X310915Y444118D01*
X309282Y442485D01*
X308128Y440485D01*
X307530Y438254D01*
Y435945D01*
X308128Y433715D01*
X309282Y431715D01*
X310915Y430082D01*
X312915Y428927D01*
X315145Y428330D01*
X317454D01*
X319685Y428927D01*
X321685Y430082D01*
X323318Y431715D01*
X324472Y433715D01*
X325070Y435945D01*
Y438254D01*
X324472Y440485D01*
X323318Y442485D01*
X321685Y444118D01*
X319685Y445272D01*
X317454Y445870D01*
D02*
G37*
G36*
X292055D02*
X289745D01*
X287515Y445272D01*
X285515Y444118D01*
X283882Y442485D01*
X282728Y440485D01*
X282130Y438254D01*
Y435945D01*
X282728Y433715D01*
X283882Y431715D01*
X285515Y430082D01*
X287515Y428927D01*
X289745Y428330D01*
X292055D01*
X294285Y428927D01*
X296285Y430082D01*
X297918Y431715D01*
X299072Y433715D01*
X299670Y435945D01*
Y438254D01*
X299072Y440485D01*
X297918Y442485D01*
X296285Y444118D01*
X294285Y445272D01*
X292055Y445870D01*
D02*
G37*
G36*
X506303Y433501D02*
Y426270D01*
X513534D01*
X512991Y428297D01*
X511867Y430244D01*
X510277Y431834D01*
X508329Y432958D01*
X506303Y433501D01*
D02*
G37*
G36*
X503763D02*
X501737Y432958D01*
X499789Y431834D01*
X498199Y430244D01*
X497075Y428297D01*
X496532Y426270D01*
X503763D01*
Y433501D01*
D02*
G37*
G36*
X652270Y433501D02*
Y426270D01*
X659501D01*
X658958Y428297D01*
X657834Y430244D01*
X656244Y431834D01*
X654296Y432958D01*
X652270Y433501D01*
D02*
G37*
G36*
X649730D02*
X647704Y432958D01*
X645756Y431834D01*
X644166Y430244D01*
X643042Y428297D01*
X642499Y426270D01*
X649730D01*
Y433501D01*
D02*
G37*
G36*
X1391312Y431846D02*
Y424615D01*
X1398543D01*
X1398000Y426641D01*
X1396876Y428588D01*
X1395286Y430178D01*
X1393338Y431303D01*
X1391312Y431846D01*
D02*
G37*
G36*
X1388772D02*
X1386746Y431303D01*
X1384798Y430178D01*
X1383208Y428588D01*
X1382084Y426641D01*
X1381541Y424615D01*
X1388772D01*
Y431846D01*
D02*
G37*
G36*
X1474109Y431775D02*
X1474042D01*
Y422885D01*
X1482932D01*
Y422952D01*
X1482240Y425536D01*
X1480902Y427853D01*
X1479010Y429745D01*
X1476694Y431082D01*
X1474109Y431775D01*
D02*
G37*
G36*
X1471502D02*
X1471434D01*
X1468850Y431082D01*
X1466534Y429745D01*
X1464642Y427853D01*
X1463304Y425536D01*
X1462612Y422952D01*
Y422885D01*
X1471502D01*
Y431775D01*
D02*
G37*
G36*
X396457Y433770D02*
X394543D01*
X392694Y433274D01*
X391036Y432317D01*
X389682Y430964D01*
X388725Y429306D01*
X388230Y427457D01*
Y425543D01*
X388725Y423694D01*
X389682Y422036D01*
X391036Y420682D01*
X392694Y419725D01*
X394543Y419230D01*
X396457D01*
X398306Y419725D01*
X399964Y420682D01*
X401317Y422036D01*
X402274Y423694D01*
X402770Y425543D01*
Y427457D01*
X402274Y429306D01*
X401317Y430964D01*
X399964Y432317D01*
X398306Y433274D01*
X396457Y433770D01*
D02*
G37*
G36*
X513534Y423730D02*
X506303D01*
Y416499D01*
X508329Y417042D01*
X510277Y418167D01*
X511867Y419757D01*
X512991Y421704D01*
X513534Y423730D01*
D02*
G37*
G36*
X503763D02*
X496532D01*
X497075Y421704D01*
X498199Y419757D01*
X499789Y418167D01*
X501737Y417042D01*
X503763Y416499D01*
Y423730D01*
D02*
G37*
G36*
X659501Y423730D02*
X652270D01*
Y416499D01*
X654296Y417042D01*
X656244Y418167D01*
X657834Y419757D01*
X658958Y421704D01*
X659501Y423730D01*
D02*
G37*
G36*
X649730D02*
X642499D01*
X643042Y421704D01*
X644166Y419757D01*
X645756Y418167D01*
X647704Y417042D01*
X649730Y416499D01*
Y423730D01*
D02*
G37*
G36*
X1119921Y433590D02*
X1117480D01*
X1115122Y432958D01*
X1113008Y431738D01*
X1111282Y430012D01*
X1110062Y427898D01*
X1109430Y425540D01*
Y423100D01*
X1110062Y420742D01*
X1111282Y418628D01*
X1113008Y416902D01*
X1115122Y415682D01*
X1117480Y415050D01*
X1119921D01*
X1122278Y415682D01*
X1124392Y416902D01*
X1126118Y418628D01*
X1127338Y420742D01*
X1127970Y423100D01*
Y425540D01*
X1127338Y427898D01*
X1126118Y430012D01*
X1124392Y431738D01*
X1122278Y432958D01*
X1119921Y433590D01*
D02*
G37*
G36*
X1398543Y422075D02*
X1391312D01*
Y414844D01*
X1393338Y415387D01*
X1395286Y416511D01*
X1396876Y418101D01*
X1398000Y420048D01*
X1398543Y422075D01*
D02*
G37*
G36*
X1388772D02*
X1381541D01*
X1382084Y420048D01*
X1383208Y418101D01*
X1384798Y416511D01*
X1386746Y415387D01*
X1388772Y414844D01*
Y422075D01*
D02*
G37*
G36*
X1323500Y433348D02*
X1321059D01*
X1318701Y432716D01*
X1316588Y431496D01*
X1314862Y429770D01*
X1313641Y427656D01*
X1313010Y425298D01*
Y422857D01*
X1313641Y420500D01*
X1314862Y418386D01*
X1316588Y416660D01*
X1318701Y415439D01*
X1321059Y414808D01*
X1323500D01*
X1325858Y415439D01*
X1327971Y416660D01*
X1329697Y418386D01*
X1330918Y420500D01*
X1331550Y422857D01*
Y425298D01*
X1330918Y427656D01*
X1329697Y429770D01*
X1327971Y431496D01*
X1325858Y432716D01*
X1323500Y433348D01*
D02*
G37*
G36*
X130957Y427270D02*
X129043D01*
X127194Y426775D01*
X125536Y425817D01*
X124183Y424464D01*
X123225Y422806D01*
X122730Y420957D01*
Y419043D01*
X123225Y417194D01*
X124183Y415536D01*
X125536Y414183D01*
X127194Y413225D01*
X129043Y412730D01*
X130957D01*
X132806Y413225D01*
X134464Y414183D01*
X135817Y415536D01*
X136775Y417194D01*
X137270Y419043D01*
Y420957D01*
X136775Y422806D01*
X135817Y424464D01*
X134464Y425817D01*
X132806Y426775D01*
X130957Y427270D01*
D02*
G37*
G36*
X1482932Y420345D02*
X1472772D01*
X1462612D01*
Y420277D01*
X1463304Y417693D01*
X1464642Y415376D01*
X1466534Y413485D01*
X1468224Y412509D01*
X1468304Y411900D01*
X1467502Y409963D01*
Y407867D01*
X1468304Y405929D01*
X1469787Y404447D01*
X1471724Y403645D01*
X1473820D01*
X1475757Y404447D01*
X1477240Y405929D01*
X1478042Y407867D01*
Y409963D01*
X1477240Y411900D01*
X1477320Y412509D01*
X1479010Y413485D01*
X1480902Y415376D01*
X1482240Y417693D01*
X1482932Y420277D01*
Y420345D01*
D02*
G37*
G36*
X248957Y408270D02*
X247043D01*
X245194Y407775D01*
X243536Y406817D01*
X242183Y405464D01*
X241225Y403806D01*
X240730Y401957D01*
Y400043D01*
X241225Y398194D01*
X242183Y396536D01*
X243536Y395183D01*
X245194Y394225D01*
X247043Y393730D01*
X248957D01*
X250806Y394225D01*
X252464Y395183D01*
X253818Y396536D01*
X254775Y398194D01*
X255270Y400043D01*
Y401957D01*
X254775Y403806D01*
X253818Y405464D01*
X252464Y406817D01*
X250806Y407775D01*
X248957Y408270D01*
D02*
G37*
G36*
X1473820Y401485D02*
X1471724D01*
X1469787Y400682D01*
X1468304Y399200D01*
X1467502Y397263D01*
Y395167D01*
X1468304Y393229D01*
X1469787Y391747D01*
X1471724Y390945D01*
X1473820D01*
X1475757Y391747D01*
X1477240Y393229D01*
X1478042Y395167D01*
Y397263D01*
X1477240Y399200D01*
X1475757Y400682D01*
X1473820Y401485D01*
D02*
G37*
G36*
X1323500Y408164D02*
X1321059D01*
X1318701Y407532D01*
X1316588Y406312D01*
X1314862Y404586D01*
X1313641Y402472D01*
X1313010Y400115D01*
Y397674D01*
X1313641Y395316D01*
X1314862Y393202D01*
X1316588Y391476D01*
X1318701Y390256D01*
X1321059Y389624D01*
X1323500D01*
X1325858Y390256D01*
X1327971Y391476D01*
X1329697Y393202D01*
X1330918Y395316D01*
X1331550Y397674D01*
Y400115D01*
X1330918Y402472D01*
X1329697Y404586D01*
X1327971Y406312D01*
X1325858Y407532D01*
X1323500Y408164D01*
D02*
G37*
G36*
X1120300Y407948D02*
X1117859D01*
X1115501Y407316D01*
X1113388Y406096D01*
X1111662Y404370D01*
X1110441Y402256D01*
X1109810Y399898D01*
Y397457D01*
X1110441Y395100D01*
X1111662Y392986D01*
X1113388Y391260D01*
X1115501Y390039D01*
X1117859Y389408D01*
X1120300D01*
X1122658Y390039D01*
X1124771Y391260D01*
X1126497Y392986D01*
X1127718Y395100D01*
X1128350Y397457D01*
Y399898D01*
X1127718Y402256D01*
X1126497Y404370D01*
X1124771Y406096D01*
X1122658Y407316D01*
X1120300Y407948D01*
D02*
G37*
G36*
X714270Y393501D02*
Y386270D01*
X721501D01*
X720958Y388296D01*
X719834Y390243D01*
X718243Y391833D01*
X716296Y392958D01*
X714270Y393501D01*
D02*
G37*
G36*
X711730D02*
X709704Y392958D01*
X707756Y391833D01*
X706166Y390243D01*
X705042Y388296D01*
X704499Y386270D01*
X711730D01*
Y393501D01*
D02*
G37*
G36*
X436303Y391501D02*
Y384270D01*
X443534D01*
X442991Y386296D01*
X441867Y388244D01*
X440277Y389834D01*
X438329Y390958D01*
X436303Y391501D01*
D02*
G37*
G36*
X433763D02*
X431737Y390958D01*
X429789Y389834D01*
X428199Y388244D01*
X427075Y386296D01*
X426532Y384270D01*
X433763D01*
Y391501D01*
D02*
G37*
G36*
X70875Y400040D02*
X70270D01*
Y382270D01*
X88040D01*
Y382875D01*
X87308Y386554D01*
X85873Y390019D01*
X83789Y393137D01*
X81137Y395789D01*
X78019Y397873D01*
X74554Y399308D01*
X70875Y400040D01*
D02*
G37*
G36*
X67730D02*
X67125D01*
X63446Y399308D01*
X59981Y397873D01*
X56863Y395789D01*
X54211Y393137D01*
X52127Y390019D01*
X50692Y386554D01*
X49960Y382875D01*
Y382270D01*
X67730D01*
Y400040D01*
D02*
G37*
G36*
X721501Y383730D02*
X714270D01*
Y376499D01*
X716296Y377042D01*
X718243Y378166D01*
X719834Y379756D01*
X720958Y381703D01*
X721501Y383730D01*
D02*
G37*
G36*
X711730D02*
X704499D01*
X705042Y381703D01*
X706166Y379756D01*
X707756Y378166D01*
X709704Y377042D01*
X711730Y376499D01*
Y383730D01*
D02*
G37*
G36*
X443534Y381730D02*
X436303D01*
Y374499D01*
X438329Y375042D01*
X440277Y376166D01*
X441867Y377756D01*
X442991Y379704D01*
X443534Y381730D01*
D02*
G37*
G36*
X433763D02*
X426532D01*
X427075Y379704D01*
X428199Y377756D01*
X429789Y376166D01*
X431737Y375042D01*
X433763Y374499D01*
Y381730D01*
D02*
G37*
G36*
X1120300Y382764D02*
X1117859D01*
X1115501Y382132D01*
X1113388Y380912D01*
X1111662Y379186D01*
X1110441Y377072D01*
X1109810Y374715D01*
Y372274D01*
X1110441Y369916D01*
X1111662Y367802D01*
X1113388Y366076D01*
X1115501Y364856D01*
X1117859Y364224D01*
X1120300D01*
X1122658Y364856D01*
X1124771Y366076D01*
X1126497Y367802D01*
X1127718Y369916D01*
X1128350Y372274D01*
Y374715D01*
X1127718Y377072D01*
X1126497Y379186D01*
X1124771Y380912D01*
X1122658Y382132D01*
X1120300Y382764D01*
D02*
G37*
G36*
X1323500Y382545D02*
X1321059D01*
X1318701Y381913D01*
X1316588Y380693D01*
X1314862Y378967D01*
X1313641Y376853D01*
X1313010Y374496D01*
Y372055D01*
X1313641Y369697D01*
X1314862Y367583D01*
X1316588Y365857D01*
X1318701Y364637D01*
X1321059Y364005D01*
X1323500D01*
X1325858Y364637D01*
X1327971Y365857D01*
X1329697Y367583D01*
X1330918Y369697D01*
X1331550Y372055D01*
Y374496D01*
X1330918Y376853D01*
X1329697Y378967D01*
X1327971Y380693D01*
X1325858Y381913D01*
X1323500Y382545D01*
D02*
G37*
G36*
X343022Y370940D02*
X342970D01*
Y362170D01*
X351740D01*
Y362222D01*
X351056Y364775D01*
X349734Y367065D01*
X347865Y368934D01*
X345575Y370256D01*
X343022Y370940D01*
D02*
G37*
G36*
X340430D02*
X340378D01*
X337825Y370256D01*
X335535Y368934D01*
X333666Y367065D01*
X332344Y364775D01*
X331660Y362222D01*
Y362170D01*
X340430D01*
Y370940D01*
D02*
G37*
G36*
X247920Y376085D02*
X246080D01*
X244304Y375609D01*
X242711Y374689D01*
X241411Y373389D01*
X240491Y371796D01*
X240015Y370019D01*
Y368180D01*
X240491Y366404D01*
X241411Y364811D01*
X242711Y363511D01*
X244304Y362591D01*
X246080Y362115D01*
X247920D01*
X249696Y362591D01*
X251289Y363511D01*
X252589Y364811D01*
X253509Y366404D01*
X253985Y368180D01*
Y370019D01*
X253509Y371796D01*
X252589Y373389D01*
X251289Y374689D01*
X249696Y375609D01*
X247920Y376085D01*
D02*
G37*
G36*
X88040Y379730D02*
X70270D01*
Y361960D01*
X70875D01*
X74554Y362691D01*
X78019Y364127D01*
X81137Y366211D01*
X83789Y368862D01*
X85873Y371981D01*
X87308Y375446D01*
X88040Y379124D01*
Y379730D01*
D02*
G37*
G36*
X67730D02*
X49960D01*
Y379124D01*
X50692Y375446D01*
X52127Y371981D01*
X54211Y368862D01*
X56863Y366211D01*
X59981Y364127D01*
X63446Y362691D01*
X67125Y361960D01*
X67730D01*
Y379730D01*
D02*
G37*
G36*
X785957Y376270D02*
X784043D01*
X782194Y375774D01*
X780536Y374817D01*
X779183Y373464D01*
X778226Y371806D01*
X777730Y369957D01*
Y368043D01*
X778226Y366194D01*
X779183Y364536D01*
X780536Y363182D01*
X782194Y362225D01*
X784043Y361730D01*
X785957D01*
X787806Y362225D01*
X789464Y363182D01*
X790818Y364536D01*
X791775Y366194D01*
X792270Y368043D01*
Y369957D01*
X791775Y371806D01*
X790818Y373464D01*
X789464Y374817D01*
X787806Y375774D01*
X785957Y376270D01*
D02*
G37*
G36*
X197620Y376620D02*
X182380D01*
Y361380D01*
X197620D01*
Y376620D01*
D02*
G37*
G36*
X368255Y369670D02*
X365945D01*
X363715Y369072D01*
X361715Y367918D01*
X360082Y366285D01*
X358928Y364285D01*
X358330Y362054D01*
Y359745D01*
X358928Y357515D01*
X360082Y355515D01*
X361715Y353882D01*
X363715Y352727D01*
X365945Y352130D01*
X368255D01*
X370485Y352727D01*
X372485Y353882D01*
X374118Y355515D01*
X375272Y357515D01*
X375870Y359745D01*
Y362054D01*
X375272Y364285D01*
X374118Y366285D01*
X372485Y367918D01*
X370485Y369072D01*
X368255Y369670D01*
D02*
G37*
G36*
X317454D02*
X315145D01*
X312915Y369072D01*
X310915Y367918D01*
X309282Y366285D01*
X308128Y364285D01*
X307530Y362054D01*
Y359745D01*
X308128Y357515D01*
X309282Y355515D01*
X310915Y353882D01*
X312915Y352727D01*
X315145Y352130D01*
X317454D01*
X319685Y352727D01*
X321685Y353882D01*
X323318Y355515D01*
X324472Y357515D01*
X325070Y359745D01*
Y362054D01*
X324472Y364285D01*
X323318Y366285D01*
X321685Y367918D01*
X319685Y369072D01*
X317454Y369670D01*
D02*
G37*
G36*
X299670D02*
X282130D01*
Y352130D01*
X299670D01*
Y369670D01*
D02*
G37*
G36*
X351740Y359630D02*
X342970D01*
Y350860D01*
X343022D01*
X345575Y351544D01*
X347865Y352866D01*
X349734Y354735D01*
X351056Y357024D01*
X351740Y359578D01*
Y359630D01*
D02*
G37*
G36*
X340430D02*
X331660D01*
Y359578D01*
X332344Y357024D01*
X333666Y354735D01*
X335535Y352866D01*
X337825Y351544D01*
X340378Y350860D01*
X340430D01*
Y359630D01*
D02*
G37*
G36*
X1323121Y357390D02*
X1320680D01*
X1318322Y356758D01*
X1316208Y355538D01*
X1314482Y353812D01*
X1313262Y351698D01*
X1312630Y349340D01*
Y346900D01*
X1313262Y344542D01*
X1314482Y342428D01*
X1316208Y340702D01*
X1318322Y339482D01*
X1320680Y338850D01*
X1323121D01*
X1325478Y339482D01*
X1327592Y340702D01*
X1329318Y342428D01*
X1330538Y344542D01*
X1331170Y346900D01*
Y349340D01*
X1330538Y351698D01*
X1329318Y353812D01*
X1327592Y355538D01*
X1325478Y356758D01*
X1323121Y357390D01*
D02*
G37*
G36*
X791957Y353270D02*
X790043D01*
X788194Y352775D01*
X786536Y351818D01*
X785183Y350464D01*
X784226Y348806D01*
X783730Y346957D01*
Y345043D01*
X784226Y343194D01*
X785183Y341536D01*
X786536Y340183D01*
X788194Y339226D01*
X790043Y338730D01*
X791957D01*
X793806Y339226D01*
X795464Y340183D01*
X796818Y341536D01*
X797775Y343194D01*
X798270Y345043D01*
Y346957D01*
X797775Y348806D01*
X796818Y350464D01*
X795464Y351818D01*
X793806Y352775D01*
X791957Y353270D01*
D02*
G37*
G36*
X1120300Y357145D02*
X1117859D01*
X1115501Y356513D01*
X1113388Y355293D01*
X1111662Y353567D01*
X1110441Y351453D01*
X1109810Y349096D01*
Y346655D01*
X1110441Y344297D01*
X1111662Y342183D01*
X1113388Y340457D01*
X1115501Y339237D01*
X1117859Y338605D01*
X1120300D01*
X1122658Y339237D01*
X1124771Y340457D01*
X1126497Y342183D01*
X1127718Y344297D01*
X1128350Y346655D01*
Y349096D01*
X1127718Y351453D01*
X1126497Y353567D01*
X1124771Y355293D01*
X1122658Y356513D01*
X1120300Y357145D01*
D02*
G37*
G36*
X253985Y337985D02*
X240015D01*
Y324015D01*
X253985D01*
Y337985D01*
D02*
G37*
G36*
X191003Y338520D02*
X188997D01*
X187059Y338000D01*
X185321Y336997D01*
X183902Y335579D01*
X182899Y333841D01*
X182380Y331903D01*
Y329897D01*
X182899Y327959D01*
X183902Y326221D01*
X185321Y324802D01*
X187059Y323799D01*
X188997Y323280D01*
X191003D01*
X192941Y323799D01*
X194679Y324802D01*
X196097Y326221D01*
X197101Y327959D01*
X197620Y329897D01*
Y331903D01*
X197101Y333841D01*
X196097Y335579D01*
X194679Y336997D01*
X192941Y338000D01*
X191003Y338520D01*
D02*
G37*
G36*
X128770Y338770D02*
X111230D01*
Y321230D01*
X128770D01*
Y338770D01*
D02*
G37*
G36*
X1323121Y331990D02*
X1320680D01*
X1318322Y331358D01*
X1316208Y330138D01*
X1314482Y328412D01*
X1313262Y326298D01*
X1312630Y323940D01*
Y321500D01*
X1313262Y319142D01*
X1314482Y317028D01*
X1316208Y315302D01*
X1318322Y314082D01*
X1320680Y313450D01*
X1323121D01*
X1325478Y314082D01*
X1327592Y315302D01*
X1329318Y317028D01*
X1330538Y319142D01*
X1331170Y321500D01*
Y323940D01*
X1330538Y326298D01*
X1329318Y328412D01*
X1327592Y330138D01*
X1325478Y331358D01*
X1323121Y331990D01*
D02*
G37*
G36*
X1119921D02*
X1117480D01*
X1115122Y331358D01*
X1113008Y330138D01*
X1111282Y328412D01*
X1110062Y326298D01*
X1109430Y323940D01*
Y321500D01*
X1110062Y319142D01*
X1111282Y317028D01*
X1113008Y315302D01*
X1115122Y314082D01*
X1117480Y313450D01*
X1119921D01*
X1122278Y314082D01*
X1124392Y315302D01*
X1126118Y317028D01*
X1127338Y319142D01*
X1127970Y321500D01*
Y323940D01*
X1127338Y326298D01*
X1126118Y328412D01*
X1124392Y330138D01*
X1122278Y331358D01*
X1119921Y331990D01*
D02*
G37*
G36*
X1471270Y317863D02*
Y310270D01*
X1478863D01*
X1478284Y312431D01*
X1477114Y314459D01*
X1475459Y316114D01*
X1473431Y317284D01*
X1471270Y317863D01*
D02*
G37*
G36*
X1468730D02*
X1466569Y317284D01*
X1464541Y316114D01*
X1462886Y314459D01*
X1461716Y312431D01*
X1461137Y310270D01*
X1468730D01*
Y317863D01*
D02*
G37*
G36*
X405957Y324270D02*
X404043D01*
X402194Y323774D01*
X400536Y322817D01*
X399183Y321464D01*
X398226Y319806D01*
X397730Y317957D01*
Y316043D01*
X398226Y314194D01*
X399183Y312536D01*
X400536Y311182D01*
X402194Y310225D01*
X404043Y309730D01*
X405957D01*
X407806Y310225D01*
X409464Y311182D01*
X410818Y312536D01*
X411775Y314194D01*
X412270Y316043D01*
Y317957D01*
X411775Y319806D01*
X410818Y321464D01*
X409464Y322817D01*
X407806Y323774D01*
X405957Y324270D01*
D02*
G37*
G36*
X121322Y315040D02*
X121270D01*
Y306270D01*
X130040D01*
Y306322D01*
X129356Y308875D01*
X128034Y311165D01*
X126165Y313034D01*
X123875Y314356D01*
X121322Y315040D01*
D02*
G37*
G36*
X118730D02*
X118678D01*
X116125Y314356D01*
X113835Y313034D01*
X111966Y311165D01*
X110644Y308875D01*
X109960Y306322D01*
Y306270D01*
X118730D01*
Y315040D01*
D02*
G37*
G36*
X790957Y317270D02*
X789043D01*
X787194Y316775D01*
X785536Y315817D01*
X784183Y314464D01*
X783225Y312806D01*
X782730Y310957D01*
Y309043D01*
X783225Y307194D01*
X784183Y305536D01*
X785536Y304183D01*
X787194Y303225D01*
X789043Y302730D01*
X790957D01*
X792806Y303225D01*
X794464Y304183D01*
X795817Y305536D01*
X796775Y307194D01*
X797270Y309043D01*
Y310957D01*
X796775Y312806D01*
X795817Y314464D01*
X794464Y315817D01*
X792806Y316775D01*
X790957Y317270D01*
D02*
G37*
G36*
X1478863Y307730D02*
X1471270D01*
Y300137D01*
X1473431Y300716D01*
X1475459Y301886D01*
X1477114Y303541D01*
X1478284Y305569D01*
X1478863Y307730D01*
D02*
G37*
G36*
X1468730D02*
X1461137D01*
X1461716Y305569D01*
X1462886Y303541D01*
X1464541Y301886D01*
X1466569Y300716D01*
X1468730Y300137D01*
Y307730D01*
D02*
G37*
G36*
X130040Y303730D02*
X121270D01*
Y294960D01*
X121322D01*
X123875Y295644D01*
X126165Y296966D01*
X128034Y298835D01*
X129356Y301125D01*
X130040Y303678D01*
Y303730D01*
D02*
G37*
G36*
X118730D02*
X109960D01*
Y303678D01*
X110644Y301125D01*
X111966Y298835D01*
X113835Y296966D01*
X116125Y295644D01*
X118678Y294960D01*
X118730D01*
Y303730D01*
D02*
G37*
G36*
X1331170Y306590D02*
X1312630D01*
Y288050D01*
X1331170D01*
Y306590D01*
D02*
G37*
G36*
X1119921D02*
X1117480D01*
X1115122Y305958D01*
X1113008Y304738D01*
X1111282Y303012D01*
X1110062Y300898D01*
X1109430Y298540D01*
Y296100D01*
X1110062Y293742D01*
X1111282Y291628D01*
X1113008Y289902D01*
X1115122Y288682D01*
X1117480Y288050D01*
X1119921D01*
X1122278Y288682D01*
X1124392Y289902D01*
X1126118Y291628D01*
X1127338Y293742D01*
X1127970Y296100D01*
Y298540D01*
X1127338Y300898D01*
X1126118Y303012D01*
X1124392Y304738D01*
X1122278Y305958D01*
X1119921Y306590D01*
D02*
G37*
G36*
X70875Y298040D02*
X70270D01*
Y280270D01*
X88040D01*
Y280875D01*
X87308Y284554D01*
X85873Y288019D01*
X83789Y291137D01*
X81137Y293789D01*
X78019Y295873D01*
X74554Y297308D01*
X70875Y298040D01*
D02*
G37*
G36*
X67730D02*
X67125D01*
X63446Y297308D01*
X59981Y295873D01*
X56863Y293789D01*
X54211Y291137D01*
X52127Y288019D01*
X50692Y284554D01*
X49960Y280875D01*
Y280270D01*
X67730D01*
Y298040D01*
D02*
G37*
G36*
X916811Y277620D02*
X914805D01*
X912867Y277101D01*
X911129Y276098D01*
X909710Y274679D01*
X908707Y272941D01*
X908188Y271003D01*
Y268997D01*
X908707Y267059D01*
X909710Y265321D01*
X911129Y263902D01*
X912867Y262899D01*
X914805Y262380D01*
X916811D01*
X918749Y262899D01*
X920487Y263902D01*
X921906Y265321D01*
X922909Y267059D01*
X923428Y268997D01*
Y271003D01*
X922909Y272941D01*
X921906Y274679D01*
X920487Y276098D01*
X918749Y277101D01*
X916811Y277620D01*
D02*
G37*
G36*
X88040Y277730D02*
X70270D01*
Y259960D01*
X70875D01*
X74554Y260692D01*
X78019Y262127D01*
X81137Y264211D01*
X83789Y266863D01*
X85873Y269981D01*
X87308Y273446D01*
X88040Y277125D01*
Y277730D01*
D02*
G37*
G36*
X67730D02*
X49960D01*
Y277125D01*
X50692Y273446D01*
X52127Y269981D01*
X54211Y266863D01*
X56863Y264211D01*
X59981Y262127D01*
X63446Y260692D01*
X67125Y259960D01*
X67730D01*
Y277730D01*
D02*
G37*
G36*
X812770Y250001D02*
Y242770D01*
X820001D01*
X819458Y244796D01*
X818334Y246744D01*
X816744Y248333D01*
X814796Y249458D01*
X812770Y250001D01*
D02*
G37*
G36*
X810230D02*
X808204Y249458D01*
X806256Y248333D01*
X804666Y246744D01*
X803542Y244796D01*
X802999Y242770D01*
X810230D01*
Y250001D01*
D02*
G37*
G36*
X820001Y240230D02*
X812770D01*
Y232999D01*
X814796Y233542D01*
X816744Y234666D01*
X818334Y236256D01*
X819458Y238204D01*
X820001Y240230D01*
D02*
G37*
G36*
X810230D02*
X802999D01*
X803542Y238204D01*
X804666Y236256D01*
X806256Y234666D01*
X808204Y233542D01*
X810230Y232999D01*
Y240230D01*
D02*
G37*
G36*
X690608Y233430D02*
X690540D01*
Y224540D01*
X699430D01*
Y224608D01*
X698738Y227192D01*
X697400Y229508D01*
X695508Y231400D01*
X693192Y232738D01*
X690608Y233430D01*
D02*
G37*
G36*
X688000D02*
X687932D01*
X685348Y232738D01*
X683032Y231400D01*
X681140Y229508D01*
X679802Y227192D01*
X679110Y224608D01*
Y224540D01*
X688000D01*
Y233430D01*
D02*
G37*
G36*
X1415608Y232890D02*
X1415540D01*
Y224000D01*
X1424430D01*
Y224068D01*
X1423738Y226652D01*
X1422400Y228968D01*
X1420509Y230860D01*
X1418192Y232198D01*
X1415608Y232890D01*
D02*
G37*
G36*
X1413000D02*
X1412933D01*
X1410349Y232198D01*
X1408032Y230860D01*
X1406140Y228968D01*
X1404803Y226652D01*
X1404110Y224068D01*
Y224000D01*
X1413000D01*
Y232890D01*
D02*
G37*
G36*
X699430Y222000D02*
X690540D01*
Y213110D01*
X690608D01*
X693192Y213802D01*
X695508Y215140D01*
X697400Y217032D01*
X698738Y219348D01*
X699430Y221932D01*
Y222000D01*
D02*
G37*
G36*
X688000D02*
X679110D01*
Y221932D01*
X679802Y219348D01*
X681140Y217032D01*
X683032Y215140D01*
X685348Y213802D01*
X687932Y213110D01*
X688000D01*
Y222000D01*
D02*
G37*
G36*
X1424430Y221460D02*
X1415540D01*
Y212570D01*
X1415608D01*
X1418192Y213262D01*
X1420509Y214600D01*
X1422400Y216492D01*
X1423738Y218808D01*
X1424430Y221392D01*
Y221460D01*
D02*
G37*
G36*
X1413000D02*
X1404110D01*
Y221392D01*
X1404803Y218808D01*
X1406140Y216492D01*
X1408032Y214600D01*
X1410349Y213262D01*
X1412933Y212570D01*
X1413000D01*
Y221460D01*
D02*
G37*
G36*
X917003Y220620D02*
X914997D01*
X913059Y220101D01*
X911321Y219097D01*
X909902Y217679D01*
X908899Y215941D01*
X908380Y214003D01*
Y211997D01*
X908899Y210059D01*
X909902Y208321D01*
X911321Y206903D01*
X913059Y205899D01*
X914997Y205380D01*
X917003D01*
X918941Y205899D01*
X920679Y206903D01*
X922097Y208321D01*
X923101Y210059D01*
X923620Y211997D01*
Y214003D01*
X923101Y215941D01*
X922097Y217679D01*
X920679Y219097D01*
X918941Y220101D01*
X917003Y220620D01*
D02*
G37*
G36*
X463957Y213270D02*
X462043D01*
X460194Y212775D01*
X458536Y211817D01*
X457183Y210464D01*
X456226Y208806D01*
X455730Y206957D01*
Y205043D01*
X456226Y203194D01*
X457183Y201536D01*
X458536Y200182D01*
X460194Y199225D01*
X462043Y198730D01*
X463957D01*
X465806Y199225D01*
X467464Y200182D01*
X468818Y201536D01*
X469775Y203194D01*
X470270Y205043D01*
Y206957D01*
X469775Y208806D01*
X468818Y210464D01*
X467464Y211817D01*
X465806Y212775D01*
X463957Y213270D01*
D02*
G37*
G36*
X176068Y200430D02*
X176000D01*
Y191540D01*
X184890D01*
Y191607D01*
X184198Y194192D01*
X182860Y196508D01*
X180968Y198400D01*
X178652Y199738D01*
X176068Y200430D01*
D02*
G37*
G36*
X173460D02*
X173392D01*
X170808Y199738D01*
X168492Y198400D01*
X166600Y196508D01*
X165262Y194192D01*
X164570Y191607D01*
Y191540D01*
X173460D01*
Y200430D01*
D02*
G37*
G36*
X393957Y200270D02*
X392043D01*
X390194Y199775D01*
X388536Y198818D01*
X387183Y197464D01*
X386226Y195806D01*
X385730Y193957D01*
Y192043D01*
X386226Y190194D01*
X387183Y188536D01*
X388536Y187183D01*
X390194Y186226D01*
X392043Y185730D01*
X393957D01*
X395806Y186226D01*
X397464Y187183D01*
X398818Y188536D01*
X399775Y190194D01*
X400270Y192043D01*
Y193957D01*
X399775Y195806D01*
X398818Y197464D01*
X397464Y198818D01*
X395806Y199775D01*
X393957Y200270D01*
D02*
G37*
G36*
X266957D02*
X265043D01*
X263194Y199775D01*
X261536Y198818D01*
X260183Y197464D01*
X259226Y195806D01*
X258730Y193957D01*
Y192043D01*
X259226Y190194D01*
X260183Y188536D01*
X261536Y187183D01*
X263194Y186226D01*
X265043Y185730D01*
X266957D01*
X268806Y186226D01*
X270464Y187183D01*
X271818Y188536D01*
X272775Y190194D01*
X273270Y192043D01*
Y193957D01*
X272775Y195806D01*
X271818Y197464D01*
X270464Y198818D01*
X268806Y199775D01*
X266957Y200270D01*
D02*
G37*
G36*
X184890Y189000D02*
X176000D01*
Y180110D01*
X176068D01*
X178652Y180802D01*
X180968Y182140D01*
X182860Y184032D01*
X184198Y186348D01*
X184890Y188932D01*
Y189000D01*
D02*
G37*
G36*
X173460D02*
X164570D01*
Y188932D01*
X165262Y186348D01*
X166600Y184032D01*
X168492Y182140D01*
X170808Y180802D01*
X173392Y180110D01*
X173460D01*
Y189000D01*
D02*
G37*
G36*
X690440Y192160D02*
X688100D01*
X685839Y191554D01*
X683811Y190384D01*
X682156Y188729D01*
X680986Y186701D01*
X680380Y184440D01*
Y182100D01*
X680986Y179839D01*
X682156Y177811D01*
X683811Y176156D01*
X685839Y174986D01*
X688100Y174380D01*
X690440D01*
X692701Y174986D01*
X694729Y176156D01*
X696384Y177811D01*
X697554Y179839D01*
X698160Y182100D01*
Y184440D01*
X697554Y186701D01*
X696384Y188729D01*
X694729Y190384D01*
X692701Y191554D01*
X690440Y192160D01*
D02*
G37*
G36*
X1415441Y191620D02*
X1413100D01*
X1410839Y191014D01*
X1408812Y189844D01*
X1407156Y188189D01*
X1405986Y186161D01*
X1405380Y183900D01*
Y181560D01*
X1405986Y179299D01*
X1407156Y177271D01*
X1408812Y175616D01*
X1410839Y174446D01*
X1413100Y173840D01*
X1415441D01*
X1417702Y174446D01*
X1419729Y175616D01*
X1421384Y177271D01*
X1422554Y179299D01*
X1423160Y181560D01*
Y183900D01*
X1422554Y186161D01*
X1421384Y188189D01*
X1419729Y189844D01*
X1417702Y191014D01*
X1415441Y191620D01*
D02*
G37*
G36*
X668957Y167270D02*
X667043D01*
X665194Y166775D01*
X663536Y165818D01*
X662182Y164464D01*
X661225Y162806D01*
X660730Y160957D01*
Y159043D01*
X661225Y157194D01*
X662182Y155536D01*
X663536Y154183D01*
X665194Y153226D01*
X667043Y152730D01*
X668957D01*
X670806Y153226D01*
X672464Y154183D01*
X673817Y155536D01*
X674774Y157194D01*
X675270Y159043D01*
Y160957D01*
X674774Y162806D01*
X673817Y164464D01*
X672464Y165818D01*
X670806Y166775D01*
X668957Y167270D01*
D02*
G37*
G36*
X407957Y167098D02*
X406043D01*
X404194Y166603D01*
X402536Y165645D01*
X401183Y164292D01*
X400226Y162634D01*
X399730Y160785D01*
Y158871D01*
X400226Y157022D01*
X401183Y155364D01*
X402536Y154011D01*
X404194Y153053D01*
X406043Y152558D01*
X407957D01*
X409806Y153053D01*
X411464Y154011D01*
X412818Y155364D01*
X413775Y157022D01*
X414270Y158871D01*
Y160785D01*
X413775Y162634D01*
X412818Y164292D01*
X411464Y165645D01*
X409806Y166603D01*
X407957Y167098D01*
D02*
G37*
G36*
X571843Y163728D02*
X569929D01*
X568080Y163233D01*
X566422Y162276D01*
X565069Y160922D01*
X564112Y159264D01*
X563616Y157416D01*
Y155501D01*
X564112Y153652D01*
X565069Y151994D01*
X566422Y150641D01*
X568080Y149684D01*
X569929Y149188D01*
X571843D01*
X573692Y149684D01*
X575350Y150641D01*
X576703Y151994D01*
X577661Y153652D01*
X578156Y155501D01*
Y157416D01*
X577661Y159264D01*
X576703Y160922D01*
X575350Y162276D01*
X573692Y163233D01*
X571843Y163728D01*
D02*
G37*
G36*
X175900Y159160D02*
X173560D01*
X171299Y158554D01*
X169271Y157384D01*
X167616Y155729D01*
X166446Y153701D01*
X165840Y151440D01*
Y149100D01*
X166446Y146839D01*
X167616Y144811D01*
X169271Y143156D01*
X171299Y141986D01*
X173560Y141380D01*
X175900D01*
X178161Y141986D01*
X180189Y143156D01*
X181844Y144811D01*
X183014Y146839D01*
X183620Y149100D01*
Y151440D01*
X183014Y153701D01*
X181844Y155729D01*
X180189Y157384D01*
X178161Y158554D01*
X175900Y159160D01*
D02*
G37*
G36*
X620270Y139501D02*
Y132270D01*
X627501D01*
X626958Y134296D01*
X625833Y136244D01*
X624243Y137834D01*
X622296Y138958D01*
X620270Y139501D01*
D02*
G37*
G36*
X617730D02*
X615703Y138958D01*
X613756Y137834D01*
X612166Y136244D01*
X611042Y134296D01*
X610499Y132270D01*
X617730D01*
Y139501D01*
D02*
G37*
G36*
X337957Y141759D02*
X336043D01*
X334194Y141264D01*
X332536Y140306D01*
X331182Y138953D01*
X330225Y137295D01*
X329730Y135446D01*
Y133532D01*
X330225Y131683D01*
X331182Y130025D01*
X332536Y128672D01*
X334194Y127714D01*
X336043Y127219D01*
X337957D01*
X339806Y127714D01*
X341464Y128672D01*
X342817Y130025D01*
X343774Y131683D01*
X344270Y133532D01*
Y135446D01*
X343774Y137295D01*
X342817Y138953D01*
X341464Y140306D01*
X339806Y141264D01*
X337957Y141759D01*
D02*
G37*
G36*
X627501Y129730D02*
X620270D01*
Y122499D01*
X622296Y123042D01*
X624243Y124166D01*
X625833Y125756D01*
X626958Y127704D01*
X627501Y129730D01*
D02*
G37*
G36*
X617730D02*
X610499D01*
X611042Y127704D01*
X612166Y125756D01*
X613756Y124166D01*
X615703Y123042D01*
X617730Y122499D01*
Y129730D01*
D02*
G37*
G36*
X1363957Y129270D02*
X1362043D01*
X1360194Y128774D01*
X1358536Y127817D01*
X1357182Y126464D01*
X1356225Y124806D01*
X1355730Y122957D01*
Y121043D01*
X1356225Y119194D01*
X1357182Y117536D01*
X1358536Y116182D01*
X1360194Y115225D01*
X1362043Y114730D01*
X1363957D01*
X1365806Y115225D01*
X1367464Y116182D01*
X1368817Y117536D01*
X1369774Y119194D01*
X1370270Y121043D01*
Y122957D01*
X1369774Y124806D01*
X1368817Y126464D01*
X1367464Y127817D01*
X1365806Y128774D01*
X1363957Y129270D01*
D02*
G37*
G36*
X387270Y107990D02*
Y100759D01*
X394501D01*
X393958Y102785D01*
X392834Y104733D01*
X391244Y106322D01*
X389296Y107447D01*
X387270Y107990D01*
D02*
G37*
G36*
X384730D02*
X382704Y107447D01*
X380756Y106322D01*
X379166Y104733D01*
X378042Y102785D01*
X377499Y100759D01*
X384730D01*
Y107990D01*
D02*
G37*
G36*
X1429499Y105286D02*
Y98055D01*
X1436730D01*
X1436187Y100082D01*
X1435063Y102029D01*
X1433472Y103619D01*
X1431525Y104743D01*
X1429499Y105286D01*
D02*
G37*
G36*
X1426959D02*
X1424933Y104743D01*
X1422985Y103619D01*
X1421395Y102029D01*
X1420271Y100082D01*
X1419728Y98055D01*
X1426959D01*
Y105286D01*
D02*
G37*
G36*
X394501Y98219D02*
X387270D01*
Y90988D01*
X389296Y91531D01*
X391244Y92655D01*
X392834Y94245D01*
X393958Y96193D01*
X394501Y98219D01*
D02*
G37*
G36*
X384730D02*
X377499D01*
X378042Y96193D01*
X379166Y94245D01*
X380756Y92655D01*
X382704Y91531D01*
X384730Y90988D01*
Y98219D01*
D02*
G37*
G36*
X1556212Y98254D02*
X1547442D01*
Y89485D01*
X1556212D01*
Y98254D01*
D02*
G37*
G36*
X1544902D02*
X1536132D01*
Y89485D01*
X1544902D01*
Y98254D01*
D02*
G37*
G36*
X1436730Y95515D02*
X1429499D01*
Y88284D01*
X1431525Y88827D01*
X1433472Y89951D01*
X1435063Y91542D01*
X1436187Y93489D01*
X1436730Y95515D01*
D02*
G37*
G36*
X1426959D02*
X1419728D01*
X1420271Y93489D01*
X1421395Y91542D01*
X1422985Y89951D01*
X1424933Y88827D01*
X1426959Y88284D01*
Y95515D01*
D02*
G37*
G36*
X293770Y87490D02*
Y80259D01*
X301001D01*
X300458Y82285D01*
X299334Y84233D01*
X297744Y85823D01*
X295796Y86947D01*
X293770Y87490D01*
D02*
G37*
G36*
X291230D02*
X289204Y86947D01*
X287256Y85823D01*
X285666Y84233D01*
X284542Y82285D01*
X283999Y80259D01*
X291230D01*
Y87490D01*
D02*
G37*
G36*
X1521927Y96985D02*
X1519618D01*
X1517387Y96387D01*
X1515387Y95232D01*
X1513755Y93600D01*
X1512600Y91600D01*
X1512002Y89369D01*
Y87060D01*
X1512600Y84830D01*
X1513755Y82830D01*
X1515387Y81197D01*
X1517387Y80042D01*
X1519618Y79445D01*
X1521927D01*
X1524157Y80042D01*
X1526157Y81197D01*
X1527790Y82830D01*
X1528945Y84830D01*
X1529542Y87060D01*
Y89369D01*
X1528945Y91600D01*
X1527790Y93600D01*
X1526157Y95232D01*
X1524157Y96387D01*
X1521927Y96985D01*
D02*
G37*
G36*
X1556212Y86945D02*
X1547442D01*
Y78175D01*
X1556212D01*
Y86945D01*
D02*
G37*
G36*
X1544902D02*
X1536132D01*
Y78175D01*
X1544902D01*
Y86945D01*
D02*
G37*
G36*
X572040Y84731D02*
Y77500D01*
X579271D01*
X578728Y79526D01*
X577604Y81474D01*
X576014Y83064D01*
X574066Y84188D01*
X572040Y84731D01*
D02*
G37*
G36*
X569500D02*
X567474Y84188D01*
X565526Y83064D01*
X563936Y81474D01*
X562812Y79526D01*
X562269Y77500D01*
X569500D01*
Y84731D01*
D02*
G37*
G36*
X542040Y84040D02*
X533270D01*
Y75270D01*
X542040D01*
Y84040D01*
D02*
G37*
G36*
X482522D02*
X482470D01*
Y75270D01*
X491240D01*
Y75322D01*
X490556Y77875D01*
X489234Y80165D01*
X487365Y82034D01*
X485075Y83356D01*
X482522Y84040D01*
D02*
G37*
G36*
X530730D02*
X521960D01*
Y75270D01*
X530730D01*
Y84040D01*
D02*
G37*
G36*
X479930D02*
X479878D01*
X477324Y83356D01*
X475035Y82034D01*
X473166Y80165D01*
X471844Y77875D01*
X471160Y75322D01*
Y75270D01*
X479930D01*
Y84040D01*
D02*
G37*
G36*
X301001Y77719D02*
X293770D01*
Y70488D01*
X295796Y71031D01*
X297744Y72155D01*
X299334Y73745D01*
X300458Y75693D01*
X301001Y77719D01*
D02*
G37*
G36*
X291230D02*
X283999D01*
X284542Y75693D01*
X285666Y73745D01*
X287256Y72155D01*
X289204Y71031D01*
X291230Y70488D01*
Y77719D01*
D02*
G37*
G36*
X1410270Y77501D02*
Y70270D01*
X1417501D01*
X1416958Y72296D01*
X1415834Y74244D01*
X1414244Y75834D01*
X1412296Y76958D01*
X1410270Y77501D01*
D02*
G37*
G36*
X1407730D02*
X1405704Y76958D01*
X1403756Y75834D01*
X1402166Y74244D01*
X1401042Y72296D01*
X1400499Y70270D01*
X1407730D01*
Y77501D01*
D02*
G37*
G36*
X579271Y74960D02*
X572040D01*
Y67729D01*
X574066Y68272D01*
X576014Y69396D01*
X577604Y70986D01*
X578728Y72934D01*
X579271Y74960D01*
D02*
G37*
G36*
X569500D02*
X562269D01*
X562812Y72934D01*
X563936Y70986D01*
X565526Y69396D01*
X567474Y68272D01*
X569500Y67729D01*
Y74960D01*
D02*
G37*
G36*
X507754Y82770D02*
X505445D01*
X503215Y82172D01*
X501215Y81018D01*
X499582Y79385D01*
X498428Y77385D01*
X497830Y75155D01*
Y72845D01*
X498428Y70615D01*
X499582Y68615D01*
X501215Y66982D01*
X503215Y65828D01*
X505445Y65230D01*
X507754D01*
X509985Y65828D01*
X511985Y66982D01*
X513618Y68615D01*
X514772Y70615D01*
X515370Y72845D01*
Y75155D01*
X514772Y77385D01*
X513618Y79385D01*
X511985Y81018D01*
X509985Y82172D01*
X507754Y82770D01*
D02*
G37*
G36*
X456954D02*
X454645D01*
X452415Y82172D01*
X450415Y81018D01*
X448782Y79385D01*
X447627Y77385D01*
X447030Y75155D01*
Y72845D01*
X447627Y70615D01*
X448782Y68615D01*
X450415Y66982D01*
X452415Y65828D01*
X454645Y65230D01*
X456954D01*
X459185Y65828D01*
X461185Y66982D01*
X462817Y68615D01*
X463972Y70615D01*
X464570Y72845D01*
Y75155D01*
X463972Y77385D01*
X462817Y79385D01*
X461185Y81018D01*
X459185Y82172D01*
X456954Y82770D01*
D02*
G37*
G36*
X542040Y72730D02*
X533270D01*
Y63960D01*
X542040D01*
Y72730D01*
D02*
G37*
G36*
X530730D02*
X521960D01*
Y63960D01*
X530730D01*
Y72730D01*
D02*
G37*
G36*
X491240D02*
X482470D01*
Y63960D01*
X482522D01*
X485075Y64644D01*
X487365Y65966D01*
X489234Y67835D01*
X490556Y70125D01*
X491240Y72678D01*
Y72730D01*
D02*
G37*
G36*
X479930D02*
X471160D01*
Y72678D01*
X471844Y70125D01*
X473166Y67835D01*
X475035Y65966D01*
X477324Y64644D01*
X479878Y63960D01*
X479930D01*
Y72730D01*
D02*
G37*
G36*
X1431957Y75270D02*
X1430043D01*
X1428194Y74775D01*
X1426536Y73817D01*
X1425182Y72464D01*
X1424225Y70806D01*
X1423730Y68957D01*
Y67043D01*
X1424225Y65194D01*
X1425182Y63536D01*
X1426536Y62183D01*
X1428194Y61225D01*
X1430043Y60730D01*
X1431957D01*
X1433806Y61225D01*
X1435464Y62183D01*
X1436817Y63536D01*
X1437775Y65194D01*
X1438270Y67043D01*
Y68957D01*
X1437775Y70806D01*
X1436817Y72464D01*
X1435464Y73817D01*
X1433806Y74775D01*
X1431957Y75270D01*
D02*
G37*
G36*
X1417501Y67730D02*
X1410270D01*
Y60499D01*
X1412296Y61042D01*
X1414244Y62166D01*
X1415834Y63756D01*
X1416958Y65704D01*
X1417501Y67730D01*
D02*
G37*
G36*
X1407730D02*
X1400499D01*
X1401042Y65704D01*
X1402166Y63756D01*
X1403756Y62166D01*
X1405704Y61042D01*
X1407730Y60499D01*
Y67730D01*
D02*
G37*
G36*
X1551270Y28863D02*
Y21270D01*
X1558863D01*
X1558284Y23431D01*
X1557114Y25459D01*
X1555459Y27114D01*
X1553431Y28284D01*
X1551270Y28863D01*
D02*
G37*
G36*
X1548730D02*
X1546569Y28284D01*
X1544541Y27114D01*
X1542886Y25459D01*
X1541716Y23431D01*
X1541137Y21270D01*
X1548730D01*
Y28863D01*
D02*
G37*
G36*
X801270D02*
Y21270D01*
X808863D01*
X808284Y23431D01*
X807114Y25459D01*
X805459Y27114D01*
X803431Y28284D01*
X801270Y28863D01*
D02*
G37*
G36*
X798730D02*
X796569Y28284D01*
X794541Y27114D01*
X792886Y25459D01*
X791716Y23431D01*
X791137Y21270D01*
X798730D01*
Y28863D01*
D02*
G37*
G36*
X41270D02*
Y21270D01*
X48863D01*
X48284Y23431D01*
X47114Y25459D01*
X45459Y27114D01*
X43431Y28284D01*
X41270Y28863D01*
D02*
G37*
G36*
X38730D02*
X36569Y28284D01*
X34541Y27114D01*
X32886Y25459D01*
X31716Y23431D01*
X31137Y21270D01*
X38730D01*
Y28863D01*
D02*
G37*
G36*
X1558863Y18730D02*
X1551270D01*
Y11137D01*
X1553431Y11716D01*
X1555459Y12886D01*
X1557114Y14541D01*
X1558284Y16569D01*
X1558863Y18730D01*
D02*
G37*
G36*
X1548730D02*
X1541137D01*
X1541716Y16569D01*
X1542886Y14541D01*
X1544541Y12886D01*
X1546569Y11716D01*
X1548730Y11137D01*
Y18730D01*
D02*
G37*
G36*
X808863D02*
X801270D01*
Y11137D01*
X803431Y11716D01*
X805459Y12886D01*
X807114Y14541D01*
X808284Y16569D01*
X808863Y18730D01*
D02*
G37*
G36*
X798730D02*
X791137D01*
X791716Y16569D01*
X792886Y14541D01*
X794541Y12886D01*
X796569Y11716D01*
X798730Y11137D01*
Y18730D01*
D02*
G37*
G36*
X48863D02*
X41270D01*
Y11137D01*
X43431Y11716D01*
X45459Y12886D01*
X47114Y14541D01*
X48284Y16569D01*
X48863Y18730D01*
D02*
G37*
G36*
X38730D02*
X31137D01*
X31716Y16569D01*
X32886Y14541D01*
X34541Y12886D01*
X36569Y11716D01*
X38730Y11137D01*
Y18730D01*
D02*
G37*
%LPD*%
D32*
X1500730Y465470D02*
D03*
Y492370D02*
D03*
D33*
Y519270D02*
D03*
D34*
X1118700Y627520D02*
D03*
Y602120D02*
D03*
Y576720D02*
D03*
Y551320D02*
D03*
Y525920D02*
D03*
Y500520D02*
D03*
Y475120D02*
D03*
Y449720D02*
D03*
Y424320D02*
D03*
X1119080Y398678D02*
D03*
Y373494D02*
D03*
Y347875D02*
D03*
X1118700Y322720D02*
D03*
Y297320D02*
D03*
X1321900Y627520D02*
D03*
Y602120D02*
D03*
Y576720D02*
D03*
Y551320D02*
D03*
Y525920D02*
D03*
Y500520D02*
D03*
Y475120D02*
D03*
Y449720D02*
D03*
X1322280Y424078D02*
D03*
Y398894D02*
D03*
Y373275D02*
D03*
X1321900Y348120D02*
D03*
Y322720D02*
D03*
D35*
Y297320D02*
D03*
D36*
X1520772Y88215D02*
D03*
X120000Y305000D02*
D03*
Y635000D02*
D03*
Y835000D02*
D03*
X1439172Y444615D02*
D03*
Y474615D02*
D03*
X506600Y74000D02*
D03*
X481200D02*
D03*
X455800D02*
D03*
X1479000Y827000D02*
D03*
X595000Y896600D02*
D03*
D37*
X1546172Y88215D02*
D03*
X120000Y330000D02*
D03*
Y660000D02*
D03*
Y860000D02*
D03*
X1413772Y444615D02*
D03*
Y474615D02*
D03*
X532000Y74000D02*
D03*
X1479000Y802000D02*
D03*
D38*
X1414270Y222730D02*
D03*
Y182730D02*
D03*
X435000Y800000D02*
D03*
X475000D02*
D03*
X689270Y223270D02*
D03*
Y183270D02*
D03*
X174730Y150270D02*
D03*
Y190270D02*
D03*
D39*
X69000Y381000D02*
D03*
Y279000D02*
D03*
Y609000D02*
D03*
Y711000D02*
D03*
Y809000D02*
D03*
Y911000D02*
D03*
X1530000Y751000D02*
D03*
Y853000D02*
D03*
D40*
X190000Y369000D02*
D03*
D41*
Y330900D02*
D03*
D42*
X247000Y369100D02*
D03*
D43*
Y331000D02*
D03*
D44*
X290900Y360900D02*
D03*
D45*
X316300D02*
D03*
X341700D02*
D03*
X367100D02*
D03*
X290900Y437100D02*
D03*
X316300D02*
D03*
X341700D02*
D03*
X367100D02*
D03*
D48*
X595000Y922000D02*
D03*
D49*
X916000Y213000D02*
D03*
X915808Y270000D02*
D03*
X729500Y583000D02*
D03*
X820000Y616000D02*
D03*
Y553000D02*
D03*
X405000Y508000D02*
D03*
X1470000Y309000D02*
D03*
X946000Y563000D02*
D03*
X1466042Y520345D02*
D03*
X1550000Y980000D02*
D03*
X40000D02*
D03*
X800000D02*
D03*
Y20000D02*
D03*
X40000D02*
D03*
X1550000D02*
D03*
D50*
X811500Y241500D02*
D03*
X395500Y426500D02*
D03*
X435033Y383000D02*
D03*
X505033Y425000D02*
D03*
Y453000D02*
D03*
X486033Y468000D02*
D03*
X790000Y310000D02*
D03*
X1409000Y69000D02*
D03*
X1363000Y122000D02*
D03*
X1431000Y68000D02*
D03*
X1428229Y96785D02*
D03*
X570770Y76230D02*
D03*
X248000Y401000D02*
D03*
X517506Y948494D02*
D03*
X1390042Y423345D02*
D03*
X715000Y710000D02*
D03*
X721320Y686320D02*
D03*
X584500Y693250D02*
D03*
X541500Y743250D02*
D03*
X597500Y765250D02*
D03*
X580500Y783250D02*
D03*
X664500Y793250D02*
D03*
X621500D02*
D03*
X640000Y666750D02*
D03*
X665000Y630000D02*
D03*
X130000Y547500D02*
D03*
Y420000D02*
D03*
X199237Y703976D02*
D03*
X822000Y468500D02*
D03*
X777000Y487000D02*
D03*
X785000Y369000D02*
D03*
X713000Y385000D02*
D03*
Y464000D02*
D03*
X791000Y346000D02*
D03*
X678500Y487500D02*
D03*
X651000Y425000D02*
D03*
X266000Y193000D02*
D03*
X393000D02*
D03*
X463000Y206000D02*
D03*
X405000Y317000D02*
D03*
X258000Y512000D02*
D03*
X273000Y484000D02*
D03*
X174000Y843476D02*
D03*
X176000Y797000D02*
D03*
X311000Y858476D02*
D03*
X288000Y796000D02*
D03*
X332237Y718976D02*
D03*
X310237Y658500D02*
D03*
X202237D02*
D03*
X1497042Y436345D02*
D03*
X535111Y864603D02*
D03*
X570886Y156458D02*
D03*
X407000Y159828D02*
D03*
X1472000Y577000D02*
D03*
X386000Y99489D02*
D03*
X292500Y78989D02*
D03*
X337000Y134489D02*
D03*
X619000Y131000D02*
D03*
X668000Y160000D02*
D03*
X467494Y890000D02*
D03*
X421494Y860000D02*
D03*
D51*
X1472772Y421615D02*
D03*
%TF.MD5,f563cad9102b8fd997e2cb01b93c066c*%
M02*
