M48
;Layer_Color=9474304
;FILE_FORMAT=4:4
METRIC,LZ
;TYPE=PLATED
T1F00S00C0.7000
T2F00S00C0.9000
T3F00S00C2.0000
%
T01
X014Y0035
X015
X01553Y00395
X016Y0035
Y004
Y0047
Y0052
X015
X014
Y0047
Y0044
Y004
X01367Y00403
X01432Y00409
X01298Y0049
T02
X01656Y00441
Y00466
X01213Y004546
Y0048
T03
X01707Y0039
Y00492
M30
