%TF.GenerationSoftware,Altium Limited,Altium Designer,22.5.1 (42)*%
G04 Layer_Physical_Order=2*
G04 Layer_Color=16711680*
%FSLAX45Y45*%
%MOMM*%
%TF.SameCoordinates,F16BC648-5459-4F57-BF5B-36DE0866112C*%
%TF.FilePolarity,Positive*%
%TF.FileFunction,Copper,L2,Bot,Signal*%
%TF.Part,Single*%
G01*
G75*
%TA.AperFunction,ComponentPad*%
%ADD18R,1.50000X1.50000*%
%ADD19C,1.50000*%
%ADD20C,3.30000*%
%ADD21R,1.50000X1.50000*%
%TA.AperFunction,ViaPad*%
%ADD22C,1.40000*%
G36*
X7000000Y1300000D02*
X1000000D01*
Y3800000D01*
X7000000D01*
Y1300000D01*
D02*
G37*
%LPC*%
G36*
X5212700Y3495362D02*
Y3412700D01*
X5295362D01*
X5288898Y3436823D01*
X5276339Y3458577D01*
X5258577Y3476339D01*
X5236823Y3488899D01*
X5212700Y3495362D01*
D02*
G37*
G36*
X5187300D02*
X5163177Y3488899D01*
X5141423Y3476339D01*
X5123661Y3458577D01*
X5111102Y3436823D01*
X5104638Y3412700D01*
X5187300D01*
Y3495362D01*
D02*
G37*
G36*
X4212700D02*
Y3412700D01*
X4295362D01*
X4288898Y3436823D01*
X4276339Y3458577D01*
X4258577Y3476339D01*
X4236823Y3488899D01*
X4212700Y3495362D01*
D02*
G37*
G36*
X4187300D02*
X4163177Y3488899D01*
X4141423Y3476339D01*
X4123661Y3458577D01*
X4111102Y3436823D01*
X4104638Y3412700D01*
X4187300D01*
Y3495362D01*
D02*
G37*
G36*
X3212700D02*
Y3412700D01*
X3295362D01*
X3288898Y3436823D01*
X3276339Y3458577D01*
X3258577Y3476339D01*
X3236823Y3488899D01*
X3212700Y3495362D01*
D02*
G37*
G36*
X3187300D02*
X3163177Y3488899D01*
X3141423Y3476339D01*
X3123661Y3458577D01*
X3111101Y3436823D01*
X3104638Y3412700D01*
X3187300D01*
Y3495362D01*
D02*
G37*
G36*
X5295362Y3387300D02*
X5212700D01*
Y3304638D01*
X5236823Y3311102D01*
X5258577Y3323661D01*
X5276339Y3341423D01*
X5288898Y3363177D01*
X5295362Y3387300D01*
D02*
G37*
G36*
X5187300D02*
X5104638D01*
X5111102Y3363177D01*
X5123661Y3341423D01*
X5141423Y3323661D01*
X5163177Y3311102D01*
X5187300Y3304638D01*
Y3387300D01*
D02*
G37*
G36*
X4295362D02*
X4212700D01*
Y3304638D01*
X4236823Y3311102D01*
X4258577Y3323661D01*
X4276339Y3341423D01*
X4288898Y3363177D01*
X4295362Y3387300D01*
D02*
G37*
G36*
X4187300D02*
X4104638D01*
X4111102Y3363177D01*
X4123661Y3341423D01*
X4141423Y3323661D01*
X4163177Y3311102D01*
X4187300Y3304638D01*
Y3387300D01*
D02*
G37*
G36*
X3295362D02*
X3212700D01*
Y3304638D01*
X3236823Y3311102D01*
X3258577Y3323661D01*
X3276339Y3341423D01*
X3288898Y3363177D01*
X3295362Y3387300D01*
D02*
G37*
G36*
X3187300D02*
X3104638D01*
X3111101Y3363177D01*
X3123661Y3341423D01*
X3141423Y3323661D01*
X3163177Y3311102D01*
X3187300Y3304638D01*
Y3387300D01*
D02*
G37*
G36*
X6288753Y3310400D02*
X6282698D01*
Y3132701D01*
X6460400D01*
Y3138753D01*
X6453083Y3175538D01*
X6438730Y3210188D01*
X6417893Y3241373D01*
X6391373Y3267893D01*
X6360188Y3288730D01*
X6325538Y3303083D01*
X6288753Y3310400D01*
D02*
G37*
G36*
X6257298D02*
X6251247D01*
X6214462Y3303083D01*
X6179812Y3288730D01*
X6148627Y3267893D01*
X6122107Y3241373D01*
X6101270Y3210188D01*
X6086917Y3175538D01*
X6079600Y3138753D01*
Y3132701D01*
X6257298D01*
Y3310400D01*
D02*
G37*
G36*
X2192700Y3195362D02*
Y3112700D01*
X2275362D01*
X2268898Y3136823D01*
X2256339Y3158577D01*
X2238577Y3176339D01*
X2216823Y3188899D01*
X2192700Y3195362D01*
D02*
G37*
G36*
X2167300D02*
X2143177Y3188899D01*
X2121423Y3176339D01*
X2103661Y3158577D01*
X2091101Y3136823D01*
X2084638Y3112700D01*
X2167300D01*
Y3195362D01*
D02*
G37*
G36*
X1430400Y3100400D02*
X1342700D01*
Y3012700D01*
X1430400D01*
Y3100400D01*
D02*
G37*
G36*
X1317300D02*
X1229600D01*
Y3012700D01*
X1317300D01*
Y3100400D01*
D02*
G37*
G36*
X2275362Y3087300D02*
X2192700D01*
Y3004638D01*
X2216823Y3011102D01*
X2238577Y3023661D01*
X2256339Y3041423D01*
X2268898Y3063177D01*
X2275362Y3087300D01*
D02*
G37*
G36*
X2167300D02*
X2084638D01*
X2091101Y3063177D01*
X2103661Y3041423D01*
X2121423Y3023661D01*
X2143177Y3011102D01*
X2167300Y3004638D01*
Y3087300D01*
D02*
G37*
G36*
X6460400Y3107301D02*
X6282698D01*
Y2929600D01*
X6288753D01*
X6325538Y2936917D01*
X6360188Y2951270D01*
X6391373Y2972107D01*
X6417893Y2998627D01*
X6438730Y3029812D01*
X6453083Y3064463D01*
X6460400Y3101247D01*
Y3107301D01*
D02*
G37*
G36*
X6257298D02*
X6079600D01*
Y3101247D01*
X6086917Y3064463D01*
X6101270Y3029812D01*
X6122107Y2998627D01*
X6148627Y2972107D01*
X6179812Y2951270D01*
X6214462Y2936917D01*
X6251247Y2929600D01*
X6257298D01*
Y3107301D01*
D02*
G37*
G36*
X5212700Y2995362D02*
Y2912700D01*
X5295362D01*
X5288898Y2936823D01*
X5276339Y2958577D01*
X5258577Y2976339D01*
X5236823Y2988899D01*
X5212700Y2995362D01*
D02*
G37*
G36*
X5187300D02*
X5163177Y2988899D01*
X5141423Y2976339D01*
X5123661Y2958577D01*
X5111102Y2936823D01*
X5104638Y2912700D01*
X5187300D01*
Y2995362D01*
D02*
G37*
G36*
X3212700D02*
Y2912700D01*
X3295362D01*
X3288898Y2936823D01*
X3276339Y2958577D01*
X3258577Y2976339D01*
X3236823Y2988899D01*
X3212700Y2995362D01*
D02*
G37*
G36*
X3187300D02*
X3163177Y2988899D01*
X3141423Y2976339D01*
X3123661Y2958577D01*
X3111101Y2936823D01*
X3104638Y2912700D01*
X3187300D01*
Y2995362D01*
D02*
G37*
G36*
X1430400Y2987300D02*
X1342700D01*
Y2899600D01*
X1430400D01*
Y2987300D01*
D02*
G37*
G36*
X1317300D02*
X1229600D01*
Y2899600D01*
X1317300D01*
Y2987300D01*
D02*
G37*
G36*
X5773218Y2960400D02*
X5772699D01*
Y2872700D01*
X5860400D01*
Y2873218D01*
X5853558Y2898753D01*
X5840340Y2921647D01*
X5821647Y2940340D01*
X5798753Y2953558D01*
X5773218Y2960400D01*
D02*
G37*
G36*
X5747299D02*
X5746782D01*
X5721247Y2953558D01*
X5698353Y2940340D01*
X5679660Y2921647D01*
X5666442Y2898753D01*
X5659600Y2873218D01*
Y2872700D01*
X5747299D01*
Y2960400D01*
D02*
G37*
G36*
X5295362Y2887300D02*
X5212700D01*
Y2804638D01*
X5236823Y2811102D01*
X5258577Y2823661D01*
X5276339Y2841423D01*
X5288898Y2863177D01*
X5295362Y2887300D01*
D02*
G37*
G36*
X5187300D02*
X5104638D01*
X5111102Y2863177D01*
X5123661Y2841423D01*
X5141423Y2823661D01*
X5163177Y2811102D01*
X5187300Y2804638D01*
Y2887300D01*
D02*
G37*
G36*
X3295362D02*
X3212700D01*
Y2804638D01*
X3236823Y2811102D01*
X3258577Y2823661D01*
X3276339Y2841423D01*
X3288898Y2863177D01*
X3295362Y2887300D01*
D02*
G37*
G36*
X3187300D02*
X3104638D01*
X3111101Y2863177D01*
X3123661Y2841423D01*
X3141423Y2823661D01*
X3163177Y2811102D01*
X3187300Y2804638D01*
Y2887300D01*
D02*
G37*
G36*
X5860400Y2847300D02*
X5772699D01*
Y2759600D01*
X5773218D01*
X5798753Y2766442D01*
X5821647Y2779660D01*
X5840340Y2798353D01*
X5853558Y2821247D01*
X5860400Y2846782D01*
Y2847300D01*
D02*
G37*
G36*
X5747299D02*
X5659600D01*
Y2846782D01*
X5666442Y2821247D01*
X5679660Y2798353D01*
X5698353Y2779660D01*
X5721247Y2766442D01*
X5746782Y2759600D01*
X5747299D01*
Y2847300D01*
D02*
G37*
G36*
X1341546Y2833700D02*
X1318454D01*
X1296149Y2827723D01*
X1276151Y2816177D01*
X1259823Y2799849D01*
X1248277Y2779851D01*
X1242300Y2757546D01*
Y2734454D01*
X1248277Y2712149D01*
X1259823Y2692151D01*
X1276151Y2675823D01*
X1296149Y2664277D01*
X1318454Y2658300D01*
X1341546D01*
X1363851Y2664277D01*
X1383849Y2675823D01*
X1400177Y2692151D01*
X1411723Y2712149D01*
X1417700Y2734454D01*
Y2757546D01*
X1411723Y2779851D01*
X1400177Y2799849D01*
X1383849Y2816177D01*
X1363851Y2827723D01*
X1341546Y2833700D01*
D02*
G37*
G36*
X3212700Y2695362D02*
Y2612700D01*
X3295362D01*
X3288898Y2636823D01*
X3276339Y2658577D01*
X3258577Y2676339D01*
X3236823Y2688899D01*
X3212700Y2695362D01*
D02*
G37*
G36*
X3187300D02*
X3163177Y2688899D01*
X3141423Y2676339D01*
X3123661Y2658577D01*
X3111101Y2636823D01*
X3104638Y2612700D01*
X3187300D01*
Y2695362D01*
D02*
G37*
G36*
X5847700Y2697700D02*
X5672300D01*
Y2522300D01*
X5847700D01*
Y2697700D01*
D02*
G37*
G36*
X3295362Y2587300D02*
X3212700D01*
Y2504638D01*
X3236823Y2511102D01*
X3258577Y2523661D01*
X3276339Y2541423D01*
X3288898Y2563177D01*
X3295362Y2587300D01*
D02*
G37*
G36*
X3187300D02*
X3104638D01*
X3111101Y2563177D01*
X3123661Y2541423D01*
X3141423Y2523661D01*
X3163177Y2511102D01*
X3187300Y2504638D01*
Y2587300D01*
D02*
G37*
G36*
X3532700Y2385362D02*
Y2302700D01*
X3615362D01*
X3608899Y2326823D01*
X3596339Y2348577D01*
X3578577Y2366339D01*
X3556823Y2378898D01*
X3532700Y2385362D01*
D02*
G37*
G36*
X3507300D02*
X3483177Y2378898D01*
X3461423Y2366339D01*
X3443661Y2348577D01*
X3431102Y2326823D01*
X3424638Y2302700D01*
X3507300D01*
Y2385362D01*
D02*
G37*
G36*
X2882700Y2325362D02*
Y2242700D01*
X2965362D01*
X2958899Y2266823D01*
X2946339Y2288577D01*
X2928577Y2306339D01*
X2906823Y2318899D01*
X2882700Y2325362D01*
D02*
G37*
G36*
X2857300D02*
X2833177Y2318899D01*
X2811423Y2306339D01*
X2793661Y2288577D01*
X2781102Y2266823D01*
X2774638Y2242700D01*
X2857300D01*
Y2325362D01*
D02*
G37*
G36*
X5212700Y2295362D02*
Y2212700D01*
X5295362D01*
X5288898Y2236823D01*
X5276339Y2258577D01*
X5258577Y2276339D01*
X5236823Y2288898D01*
X5212700Y2295362D01*
D02*
G37*
G36*
X5187300D02*
X5163177Y2288898D01*
X5141423Y2276339D01*
X5123661Y2258577D01*
X5111102Y2236823D01*
X5104638Y2212700D01*
X5187300D01*
Y2295362D01*
D02*
G37*
G36*
X3212700D02*
Y2212700D01*
X3295362D01*
X3288898Y2236823D01*
X3276339Y2258577D01*
X3258577Y2276339D01*
X3236823Y2288898D01*
X3212700Y2295362D01*
D02*
G37*
G36*
X3187300D02*
X3163177Y2288898D01*
X3141423Y2276339D01*
X3123661Y2258577D01*
X3111101Y2236823D01*
X3104638Y2212700D01*
X3187300D01*
Y2295362D01*
D02*
G37*
G36*
X3615362Y2277300D02*
X3532700D01*
Y2194638D01*
X3556823Y2201102D01*
X3578577Y2213661D01*
X3596339Y2231423D01*
X3608899Y2253177D01*
X3615362Y2277300D01*
D02*
G37*
G36*
X3507300D02*
X3424638D01*
X3431102Y2253177D01*
X3443661Y2231423D01*
X3461423Y2213661D01*
X3483177Y2201102D01*
X3507300Y2194638D01*
Y2277300D01*
D02*
G37*
G36*
X4742700Y2245362D02*
Y2162700D01*
X4825362D01*
X4818898Y2186823D01*
X4806339Y2208577D01*
X4788577Y2226339D01*
X4766823Y2238898D01*
X4742700Y2245362D01*
D02*
G37*
G36*
X4717300D02*
X4693177Y2238898D01*
X4671423Y2226339D01*
X4653661Y2208577D01*
X4641101Y2186823D01*
X4634638Y2162700D01*
X4717300D01*
Y2245362D01*
D02*
G37*
G36*
X2965362Y2217300D02*
X2882700D01*
Y2134638D01*
X2906823Y2141102D01*
X2928577Y2153661D01*
X2946339Y2171423D01*
X2958899Y2193177D01*
X2965362Y2217300D01*
D02*
G37*
G36*
X2857300D02*
X2774638D01*
X2781102Y2193177D01*
X2793661Y2171423D01*
X2811423Y2153661D01*
X2833177Y2141102D01*
X2857300Y2134638D01*
Y2217300D01*
D02*
G37*
G36*
X6288753Y2290400D02*
X6282698D01*
Y2112700D01*
X6460400D01*
Y2118753D01*
X6453083Y2155538D01*
X6438730Y2190188D01*
X6417893Y2221373D01*
X6391373Y2247893D01*
X6360188Y2268730D01*
X6325538Y2283083D01*
X6288753Y2290400D01*
D02*
G37*
G36*
X6257298D02*
X6251247D01*
X6214462Y2283083D01*
X6179812Y2268730D01*
X6148627Y2247893D01*
X6122107Y2221373D01*
X6101270Y2190188D01*
X6086917Y2155538D01*
X6079600Y2118753D01*
Y2112700D01*
X6257298D01*
Y2290400D01*
D02*
G37*
G36*
X5295362Y2187300D02*
X5212700D01*
Y2104638D01*
X5236823Y2111101D01*
X5258577Y2123661D01*
X5276339Y2141423D01*
X5288898Y2163177D01*
X5295362Y2187300D01*
D02*
G37*
G36*
X5187300D02*
X5104638D01*
X5111102Y2163177D01*
X5123661Y2141423D01*
X5141423Y2123661D01*
X5163177Y2111101D01*
X5187300Y2104638D01*
Y2187300D01*
D02*
G37*
G36*
X3295362D02*
X3212700D01*
Y2104638D01*
X3236823Y2111101D01*
X3258577Y2123661D01*
X3276339Y2141423D01*
X3288898Y2163177D01*
X3295362Y2187300D01*
D02*
G37*
G36*
X3187300D02*
X3104638D01*
X3111101Y2163177D01*
X3123661Y2141423D01*
X3141423Y2123661D01*
X3163177Y2111101D01*
X3187300Y2104638D01*
Y2187300D01*
D02*
G37*
G36*
X4825362Y2137300D02*
X4742700D01*
Y2054638D01*
X4766823Y2061102D01*
X4788577Y2073661D01*
X4806339Y2091423D01*
X4818898Y2113177D01*
X4825362Y2137300D01*
D02*
G37*
G36*
X4717300D02*
X4634638D01*
X4641101Y2113177D01*
X4653661Y2091423D01*
X4671423Y2073661D01*
X4693177Y2061102D01*
X4717300Y2054638D01*
Y2137300D01*
D02*
G37*
G36*
X6460400Y2087300D02*
X6282698D01*
Y1909600D01*
X6288753D01*
X6325538Y1916917D01*
X6360188Y1931270D01*
X6391373Y1952107D01*
X6417893Y1978627D01*
X6438730Y2009812D01*
X6453083Y2044463D01*
X6460400Y2081247D01*
Y2087300D01*
D02*
G37*
G36*
X6257298D02*
X6079600D01*
Y2081247D01*
X6086917Y2044463D01*
X6101270Y2009812D01*
X6122107Y1978627D01*
X6148627Y1952107D01*
X6179812Y1931270D01*
X6214462Y1916917D01*
X6251247Y1909600D01*
X6257298D01*
Y2087300D01*
D02*
G37*
G36*
X5212700Y1795362D02*
Y1712700D01*
X5295362D01*
X5288898Y1736823D01*
X5276339Y1758577D01*
X5258577Y1776339D01*
X5236823Y1788899D01*
X5212700Y1795362D01*
D02*
G37*
G36*
X5187300D02*
X5163177Y1788899D01*
X5141423Y1776339D01*
X5123661Y1758577D01*
X5111102Y1736823D01*
X5104638Y1712700D01*
X5187300D01*
Y1795362D01*
D02*
G37*
G36*
X4212700D02*
Y1712700D01*
X4295362D01*
X4288898Y1736823D01*
X4276339Y1758577D01*
X4258577Y1776339D01*
X4236823Y1788899D01*
X4212700Y1795362D01*
D02*
G37*
G36*
X4187300D02*
X4163177Y1788899D01*
X4141423Y1776339D01*
X4123661Y1758577D01*
X4111102Y1736823D01*
X4104638Y1712700D01*
X4187300D01*
Y1795362D01*
D02*
G37*
G36*
X3212700D02*
Y1712700D01*
X3295362D01*
X3288898Y1736823D01*
X3276339Y1758577D01*
X3258577Y1776339D01*
X3236823Y1788899D01*
X3212700Y1795362D01*
D02*
G37*
G36*
X3187300D02*
X3163177Y1788899D01*
X3141423Y1776339D01*
X3123661Y1758577D01*
X3111101Y1736823D01*
X3104638Y1712700D01*
X3187300D01*
Y1795362D01*
D02*
G37*
G36*
X5295362Y1687300D02*
X5212700D01*
Y1604638D01*
X5236823Y1611102D01*
X5258577Y1623661D01*
X5276339Y1641423D01*
X5288898Y1663177D01*
X5295362Y1687300D01*
D02*
G37*
G36*
X5187300D02*
X5104638D01*
X5111102Y1663177D01*
X5123661Y1641423D01*
X5141423Y1623661D01*
X5163177Y1611102D01*
X5187300Y1604638D01*
Y1687300D01*
D02*
G37*
G36*
X4295362D02*
X4212700D01*
Y1604638D01*
X4236823Y1611102D01*
X4258577Y1623661D01*
X4276339Y1641423D01*
X4288898Y1663177D01*
X4295362Y1687300D01*
D02*
G37*
G36*
X4187300D02*
X4104638D01*
X4111102Y1663177D01*
X4123661Y1641423D01*
X4141423Y1623661D01*
X4163177Y1611102D01*
X4187300Y1604638D01*
Y1687300D01*
D02*
G37*
G36*
X3295362D02*
X3212700D01*
Y1604638D01*
X3236823Y1611102D01*
X3258577Y1623661D01*
X3276339Y1641423D01*
X3288898Y1663177D01*
X3295362Y1687300D01*
D02*
G37*
G36*
X3187300D02*
X3104638D01*
X3111101Y1663177D01*
X3123661Y1641423D01*
X3141423Y1623661D01*
X3163177Y1611102D01*
X3187300Y1604638D01*
Y1687300D01*
D02*
G37*
%LPD*%
D18*
X1330000Y3000000D02*
D03*
D19*
Y2746000D02*
D03*
X5760000Y2860000D02*
D03*
D20*
X6270000Y2100000D02*
D03*
Y3120000D02*
D03*
D21*
X5760000Y2610000D02*
D03*
D22*
X2870000Y2230000D02*
D03*
X2180000Y3100000D02*
D03*
X3200000Y3400000D02*
D03*
X4200000D02*
D03*
Y1700000D02*
D03*
X5200000Y2200000D02*
D03*
X3200000D02*
D03*
X5200000Y2900000D02*
D03*
X3200000D02*
D03*
Y2600000D02*
D03*
Y1700000D02*
D03*
X5200000D02*
D03*
Y3400000D02*
D03*
X3520000Y2290000D02*
D03*
X4730000Y2150000D02*
D03*
%TF.MD5,244900a9e53c0eb3839ef3f4dbda3e93*%
M02*
