%TF.GenerationSoftware,Altium Limited,Altium Designer,22.5.1 (42)*%
G04 Layer_Color=16711935*
%FSLAX45Y45*%
%MOMM*%
%TF.SameCoordinates,F16BC648-5459-4F57-BF5B-36DE0866112C*%
%TF.FilePolarity,Positive*%
%TF.FileFunction,Other,Mechanical_13*%
%TF.Part,Single*%
G01*
G75*
%TA.AperFunction,NonConductor*%
%ADD30C,0.10000*%
%ADD33C,0.07620*%
%ADD39C,0.02540*%
D30*
X1600000Y3037500D02*
X1780000D01*
X1600000Y2697500D02*
X1780000D01*
Y3037500D01*
X1600000Y2697500D02*
Y3037500D01*
X2667500Y2420000D02*
X2847500D01*
X2667500Y2760000D02*
X2847500D01*
X2667500Y2420000D02*
Y2760000D01*
X2847500Y2420000D02*
Y2760000D01*
X3430000Y2420000D02*
X3610000D01*
X3430000Y2760000D02*
X3610000D01*
X3430000Y2420000D02*
Y2760000D01*
X3610000Y2420000D02*
Y2760000D01*
X1760001Y2210000D02*
Y2390000D01*
X2100000Y2210000D02*
Y2390000D01*
X1760001D02*
X2100000D01*
X1760001Y2210000D02*
X2100000D01*
X2220001Y1960000D02*
Y2140000D01*
X2560000Y1960000D02*
Y2140000D01*
X2220001D02*
X2560000D01*
X2220001Y1960000D02*
X2560000D01*
X2560000Y2210000D02*
Y2390000D01*
X2220001Y2210000D02*
Y2390000D01*
Y2210000D02*
X2560000D01*
X2220001Y2390000D02*
X2560000D01*
X4640000Y2300000D02*
X4820000D01*
X4640000Y2640000D02*
X4820000D01*
X4640000Y2300000D02*
Y2640000D01*
X4820000Y2300000D02*
Y2640000D01*
D33*
X2031410Y2806119D02*
X2116050Y2721480D01*
X2031410D02*
X2116050Y2806119D01*
X2031410Y2763800D02*
X2116050D01*
X2073730Y2721480D02*
Y2806119D01*
X3896960Y2891369D02*
X3981600Y2806730D01*
X3896960D02*
X3981600Y2891369D01*
X3896960Y2849050D02*
X3981600D01*
X3939280Y2806730D02*
Y2891369D01*
D39*
X2149520Y2834940D02*
G03*
X2210480Y2834940I30480J0D01*
G01*
X4059520Y2920190D02*
G03*
X4120480Y2920190I30480J0D01*
G01*
X2025060Y2525060D02*
Y2834940D01*
X2334940D01*
Y2525060D02*
Y2834940D01*
X2025060Y2525060D02*
X2334940D01*
Y2793970D02*
X2432730D01*
Y2766030D02*
Y2793970D01*
X2334940Y2766030D02*
X2432730D01*
X2334940D02*
Y2793970D01*
Y2743970D02*
X2432730D01*
Y2716030D02*
Y2743970D01*
X2334940Y2716030D02*
X2432730D01*
X2334940D02*
Y2743970D01*
Y2693970D02*
X2432730D01*
Y2666030D02*
Y2693970D01*
X2334940Y2666030D02*
X2432730D01*
X2334940D02*
Y2693970D01*
Y2643970D02*
X2432730D01*
Y2616030D02*
Y2643970D01*
X2334940Y2616030D02*
X2432730D01*
X2334940D02*
Y2643970D01*
Y2593970D02*
X2432730D01*
Y2566030D02*
Y2593970D01*
X2334940Y2566030D02*
X2432730D01*
X2334940D02*
Y2593970D01*
X1927270Y2566030D02*
X2025060D01*
X1927270D02*
Y2593970D01*
X2025060D01*
Y2566030D02*
Y2593970D01*
X1927270Y2616030D02*
X2025060D01*
X1927270D02*
Y2643970D01*
X2025060D01*
Y2616030D02*
Y2643970D01*
X1927270Y2666030D02*
X2025060D01*
X1927270D02*
Y2693970D01*
X2025060D01*
Y2666030D02*
Y2693970D01*
X1927270Y2716030D02*
X2025060D01*
X1927270D02*
Y2743970D01*
X2025060D01*
Y2716030D02*
Y2743970D01*
X1927270Y2766030D02*
X2025060D01*
X1927270D02*
Y2793970D01*
X2025060D01*
Y2766030D02*
Y2793970D01*
X3890610Y2419810D02*
Y2920190D01*
X4289390D01*
Y2419810D02*
Y2920190D01*
X3890610Y2419810D02*
X4289390D01*
Y2885900D02*
X4399880D01*
Y2835100D02*
Y2885900D01*
X4289390Y2835100D02*
X4399880D01*
X4289390D02*
Y2885900D01*
Y2758900D02*
X4399880D01*
Y2708100D02*
Y2758900D01*
X4289390Y2708100D02*
X4399880D01*
X4289390D02*
Y2758900D01*
Y2631900D02*
X4399880D01*
Y2581100D02*
Y2631900D01*
X4289390Y2581100D02*
X4399880D01*
X4289390D02*
Y2631900D01*
Y2504900D02*
X4399880D01*
Y2454100D02*
Y2504900D01*
X4289390Y2454100D02*
X4399880D01*
X4289390D02*
Y2504900D01*
X3780120Y2454100D02*
X3890610D01*
X3780120D02*
Y2504900D01*
X3890610D01*
Y2454100D02*
Y2504900D01*
X3780120Y2581100D02*
X3890610D01*
X3780120D02*
Y2631900D01*
X3890610D01*
Y2581100D02*
Y2631900D01*
X3780120Y2708100D02*
X3890610D01*
X3780120D02*
Y2758900D01*
X3890610D01*
Y2708100D02*
Y2758900D01*
X3780120Y2835100D02*
X3890610D01*
X3780120D02*
Y2885900D01*
X3890610D01*
Y2835100D02*
Y2885900D01*
%TF.MD5,2ad550f9b36a5b9ecc3ae2559624eadb*%
M02*
