%TF.GenerationSoftware,Altium Limited,Altium Designer,22.5.1 (42)*%
G04 Layer_Color=65535*
%FSLAX45Y45*%
%MOMM*%
%TF.SameCoordinates,F16BC648-5459-4F57-BF5B-36DE0866112C*%
%TF.FilePolarity,Positive*%
%TF.FileFunction,Legend,Top*%
%TF.Part,Single*%
G01*
G75*
%TA.AperFunction,NonConductor*%
%ADD28C,0.02499*%
%ADD29C,0.15240*%
%ADD30C,0.10000*%
%ADD31C,0.20000*%
%ADD32C,0.02500*%
%ADD33C,0.07620*%
%ADD34C,0.20320*%
G36*
X2493130Y2799050D02*
X2518530D01*
Y2760950D01*
X2493130D01*
Y2799050D01*
D02*
G37*
D28*
X8749999Y2610000D02*
G03*
X8749999Y2610000I-100000J0D01*
G01*
X7770001Y3235000D02*
X7870001Y1985000D01*
X7669999Y3235000D02*
X7770001Y1985000D01*
X7569999Y3235000D02*
X7669999Y1985000D01*
X7469999Y3235000D02*
X7569999Y1985000D01*
X7369999Y3235000D02*
X7469999Y1985000D01*
X7269999Y3235000D02*
X7369999Y1985000D01*
X7170000Y3235000D02*
X7269999Y1985000D01*
X7070000Y3235000D02*
X7170000Y1985000D01*
X6860000Y2019999D02*
Y3200001D01*
D29*
X2012360Y2847640D02*
X2347640D01*
X2012360Y2512360D02*
X2347640D01*
X3877910Y2932890D02*
X4302090D01*
X3877910Y2407110D02*
X4302090D01*
D30*
X1780000Y2827500D02*
Y2907500D01*
X1600000Y2827500D02*
Y2907500D01*
X2667500Y2550000D02*
Y2630000D01*
X2847500Y2550000D02*
Y2630000D01*
X3430000Y2550000D02*
Y2630000D01*
X3610000Y2550000D02*
Y2630000D01*
X1890001Y2390000D02*
X1970000D01*
X1890001Y2210000D02*
X1970000D01*
X2350001Y2140000D02*
X2430000D01*
X2350001Y1960000D02*
X2430000D01*
X2350001Y2210000D02*
X2430000D01*
X2350001Y2390000D02*
X2430000D01*
X4640000Y2430000D02*
Y2510000D01*
X4820000Y2430000D02*
Y2510000D01*
D31*
X1203000Y2619000D02*
X1457000D01*
X1203000D02*
Y3127000D01*
X1457000D01*
Y2619000D02*
Y3127000D01*
X5570000Y1870000D02*
Y3350000D01*
X6980000D01*
Y3235000D02*
Y3350000D01*
Y3235000D02*
X7870000D01*
Y3090000D02*
Y3235000D01*
Y3090000D02*
X9060000D01*
Y2130000D02*
Y3090000D01*
X7870000Y2130000D02*
X9060000D01*
X7870000Y1985000D02*
Y2130000D01*
X6980000Y1985000D02*
X7870000D01*
X6980000Y1870000D02*
Y1985000D01*
X5570000Y1870000D02*
X6980000D01*
Y1985000D02*
Y3235000D01*
X7870000Y2130000D02*
Y3090000D01*
D32*
X6060000Y2020000D02*
X6860000D01*
X6060000D02*
Y3200000D01*
X6860000D01*
X6980000Y3235000D02*
Y3350000D01*
X5570000D02*
X6980000D01*
X5570000Y1870000D02*
Y3350000D01*
Y1870000D02*
X6980000D01*
Y1985000D01*
X7870000Y3090000D02*
Y3235000D01*
X6980000D02*
X7870000D01*
X6980000Y1985000D02*
Y3235000D01*
Y1985000D02*
X7870000D01*
Y2130000D01*
X9060000D01*
X7870000D02*
Y3090000D01*
X9060000D01*
Y2130000D02*
Y3090000D01*
D33*
X1880000Y2975799D02*
X1964639Y2891160D01*
X1880000D02*
X1964639Y2975799D01*
X1880000Y2933480D02*
X1964639D01*
X1922320Y2891160D02*
Y2975799D01*
X3670000Y3035799D02*
X3754639Y2951160D01*
X3670000D02*
X3754639Y3035799D01*
X3670000Y2993479D02*
X3754639D01*
X3712320Y2951160D02*
Y3035799D01*
D34*
X3963041Y3166176D02*
Y3039217D01*
X3988433Y3013825D01*
X4039216D01*
X4064608Y3039217D01*
Y3166176D01*
X4216959Y3013825D02*
X4115392D01*
X4216959Y3115392D01*
Y3140784D01*
X4191567Y3166176D01*
X4140784D01*
X4115392Y3140784D01*
X2338433Y3086175D02*
Y2959217D01*
X2363825Y2933825D01*
X2414608D01*
X2440000Y2959217D01*
Y3086175D01*
X2490784Y2933825D02*
X2541567D01*
X2516176D01*
Y3086175D01*
X2490784Y3060784D01*
X1403041Y2223825D02*
Y2376175D01*
X1479216D01*
X1504608Y2350783D01*
Y2300000D01*
X1479216Y2274608D01*
X1403041D01*
X1453825D02*
X1504608Y2223825D01*
X1656959D02*
X1555392D01*
X1656959Y2325392D01*
Y2350783D01*
X1631567Y2376175D01*
X1580784D01*
X1555392Y2350783D01*
X1938433Y1983825D02*
Y2136175D01*
X2014608D01*
X2040000Y2110783D01*
Y2060000D01*
X2014608Y2034608D01*
X1938433D01*
X1989216D02*
X2040000Y1983825D01*
X2090784D02*
X2141567D01*
X2116176D01*
Y2136175D01*
X2090784Y2110783D01*
X1214200Y3208880D02*
Y3361231D01*
X1290375D01*
X1315767Y3335839D01*
Y3285055D01*
X1290375Y3259664D01*
X1214200D01*
X1468118Y3208880D02*
X1366551D01*
X1468118Y3310447D01*
Y3335839D01*
X1442726Y3361231D01*
X1391943D01*
X1366551Y3335839D01*
X5580460Y3429860D02*
Y3582211D01*
X5656635D01*
X5682027Y3556819D01*
Y3506035D01*
X5656635Y3480644D01*
X5580460D01*
X5732811Y3429860D02*
X5783594D01*
X5758203D01*
Y3582211D01*
X5732811Y3556819D01*
X4704608Y2870784D02*
X4679216Y2896176D01*
X4628433D01*
X4603041Y2870784D01*
Y2769217D01*
X4628433Y2743825D01*
X4679216D01*
X4704608Y2769217D01*
X4856959Y2896176D02*
X4755392D01*
Y2820000D01*
X4806175Y2845392D01*
X4831567D01*
X4856959Y2820000D01*
Y2769217D01*
X4831567Y2743825D01*
X4780784D01*
X4755392Y2769217D01*
X2734608Y3000783D02*
X2709217Y3026175D01*
X2658433D01*
X2633041Y3000783D01*
Y2899216D01*
X2658433Y2873825D01*
X2709217D01*
X2734608Y2899216D01*
X2861567Y2873825D02*
Y3026175D01*
X2785392Y2950000D01*
X2886959D01*
X3494608Y2110783D02*
X3469217Y2136175D01*
X3418433D01*
X3393041Y2110783D01*
Y2009216D01*
X3418433Y1983825D01*
X3469217D01*
X3494608Y2009216D01*
X3545392Y2110783D02*
X3570784Y2136175D01*
X3621567D01*
X3646959Y2110783D01*
Y2085392D01*
X3621567Y2060000D01*
X3596175D01*
X3621567D01*
X3646959Y2034608D01*
Y2009216D01*
X3621567Y1983825D01*
X3570784D01*
X3545392Y2009216D01*
X2744608Y2100783D02*
X2719217Y2126175D01*
X2668433D01*
X2643041Y2100783D01*
Y1999216D01*
X2668433Y1973825D01*
X2719217D01*
X2744608Y1999216D01*
X2896959Y1973825D02*
X2795392D01*
X2896959Y2075392D01*
Y2100783D01*
X2871567Y2126175D01*
X2820784D01*
X2795392Y2100783D01*
X1690000Y3270784D02*
X1664608Y3296176D01*
X1613825D01*
X1588433Y3270784D01*
Y3169217D01*
X1613825Y3143825D01*
X1664608D01*
X1690000Y3169217D01*
X1740784Y3143825D02*
X1791567D01*
X1766176D01*
Y3296176D01*
X1740784Y3270784D01*
%TF.MD5,b9fa580ecf3867f697bb48684fb4a37f*%
M02*
